<?xml version="1.0" encoding="utf-8" standalone="no"?>
<!DOCTYPE svg PUBLIC "-//W3C//DTD SVG 1.1//EN"
  "http://www.w3.org/Graphics/SVG/1.1/DTD/svg11.dtd">
<svg height="390.356525pt" version="1.1" viewBox="0 0 1000.548125 390.356525" width="1000.548125pt" xmlns="http://www.w3.org/2000/svg" xmlns:xlink="http://www.w3.org/1999/xlink">
 <metadata>
  <rdf:RDF xmlns:cc="http://creativecommons.org/ns#" xmlns:dc="http://purl.org/dc/elements/1.1/" xmlns:rdf="http://www.w3.org/1999/02/22-rdf-syntax-ns#">
   <cc:Work>
    <dc:type rdf:resource="http://purl.org/dc/dcmitype/StillImage"/>
    <dc:date>2021-09-07T06:21:32.678156</dc:date>
    <dc:format>image/svg+xml</dc:format>
    <dc:creator>
     <cc:Agent>
      <dc:title>Matplotlib v3.4.2, https://matplotlib.org/</dc:title>
     </cc:Agent>
    </dc:creator>
   </cc:Work>
  </rdf:RDF>
 </metadata>
 <defs>
  <style type="text/css">*{stroke-linecap:butt;stroke-linejoin:round;}</style>
 </defs>
 <g id="figure_1">
  <g id="axes_1">
   <g id="patch_1">
    <path d="M 43.148125 354.7359 
L 993.348125 354.7359 
L 993.348125 35.3279 
L 43.148125 35.3279 
z
" style="fill:#ffffff;"/>
   </g>
   <g id="matplotlib.axis_1">
    <g id="xtick_1">
     <g id="text_1">
      <!-- 1.0 -->
      <g transform="translate(79.977784 367.81465)scale(0.08 -0.08)">
       <defs>
        <path d="M 794 531 
L 1825 531 
L 1825 4091 
L 703 3866 
L 703 4441 
L 1819 4666 
L 2450 4666 
L 2450 531 
L 3481 531 
L 3481 0 
L 794 0 
L 794 531 
z
" id="DejaVuSans-31" transform="scale(0.015625)"/>
        <path d="M 684 794 
L 1344 794 
L 1344 0 
L 684 0 
L 684 794 
z
" id="DejaVuSans-2e" transform="scale(0.015625)"/>
        <path d="M 2034 4250 
Q 1547 4250 1301 3770 
Q 1056 3291 1056 2328 
Q 1056 1369 1301 889 
Q 1547 409 2034 409 
Q 2525 409 2770 889 
Q 3016 1369 3016 2328 
Q 3016 3291 2770 3770 
Q 2525 4250 2034 4250 
z
M 2034 4750 
Q 2819 4750 3233 4129 
Q 3647 3509 3647 2328 
Q 3647 1150 3233 529 
Q 2819 -91 2034 -91 
Q 1250 -91 836 529 
Q 422 1150 422 2328 
Q 422 3509 836 4129 
Q 1250 4750 2034 4750 
z
" id="DejaVuSans-30" transform="scale(0.015625)"/>
       </defs>
       <use xlink:href="#DejaVuSans-31"/>
       <use x="63.623047" xlink:href="#DejaVuSans-2e"/>
       <use x="95.410156" xlink:href="#DejaVuSans-30"/>
      </g>
     </g>
    </g>
    <g id="xtick_2">
     <g id="text_2">
      <!-- 2.0 -->
      <g transform="translate(137.565663 367.81465)scale(0.08 -0.08)">
       <defs>
        <path d="M 1228 531 
L 3431 531 
L 3431 0 
L 469 0 
L 469 531 
Q 828 903 1448 1529 
Q 2069 2156 2228 2338 
Q 2531 2678 2651 2914 
Q 2772 3150 2772 3378 
Q 2772 3750 2511 3984 
Q 2250 4219 1831 4219 
Q 1534 4219 1204 4116 
Q 875 4013 500 3803 
L 500 4441 
Q 881 4594 1212 4672 
Q 1544 4750 1819 4750 
Q 2544 4750 2975 4387 
Q 3406 4025 3406 3419 
Q 3406 3131 3298 2873 
Q 3191 2616 2906 2266 
Q 2828 2175 2409 1742 
Q 1991 1309 1228 531 
z
" id="DejaVuSans-32" transform="scale(0.015625)"/>
       </defs>
       <use xlink:href="#DejaVuSans-32"/>
       <use x="63.623047" xlink:href="#DejaVuSans-2e"/>
       <use x="95.410156" xlink:href="#DejaVuSans-30"/>
      </g>
     </g>
    </g>
    <g id="xtick_3">
     <g id="text_3">
      <!-- 3.0 -->
      <g transform="translate(195.153542 367.81465)scale(0.08 -0.08)">
       <defs>
        <path d="M 2597 2516 
Q 3050 2419 3304 2112 
Q 3559 1806 3559 1356 
Q 3559 666 3084 287 
Q 2609 -91 1734 -91 
Q 1441 -91 1130 -33 
Q 819 25 488 141 
L 488 750 
Q 750 597 1062 519 
Q 1375 441 1716 441 
Q 2309 441 2620 675 
Q 2931 909 2931 1356 
Q 2931 1769 2642 2001 
Q 2353 2234 1838 2234 
L 1294 2234 
L 1294 2753 
L 1863 2753 
Q 2328 2753 2575 2939 
Q 2822 3125 2822 3475 
Q 2822 3834 2567 4026 
Q 2313 4219 1838 4219 
Q 1578 4219 1281 4162 
Q 984 4106 628 3988 
L 628 4550 
Q 988 4650 1302 4700 
Q 1616 4750 1894 4750 
Q 2613 4750 3031 4423 
Q 3450 4097 3450 3541 
Q 3450 3153 3228 2886 
Q 3006 2619 2597 2516 
z
" id="DejaVuSans-33" transform="scale(0.015625)"/>
       </defs>
       <use xlink:href="#DejaVuSans-33"/>
       <use x="63.623047" xlink:href="#DejaVuSans-2e"/>
       <use x="95.410156" xlink:href="#DejaVuSans-30"/>
      </g>
     </g>
    </g>
    <g id="xtick_4">
     <g id="text_4">
      <!-- 4.0 -->
      <g transform="translate(252.74142 367.81465)scale(0.08 -0.08)">
       <defs>
        <path d="M 2419 4116 
L 825 1625 
L 2419 1625 
L 2419 4116 
z
M 2253 4666 
L 3047 4666 
L 3047 1625 
L 3713 1625 
L 3713 1100 
L 3047 1100 
L 3047 0 
L 2419 0 
L 2419 1100 
L 313 1100 
L 313 1709 
L 2253 4666 
z
" id="DejaVuSans-34" transform="scale(0.015625)"/>
       </defs>
       <use xlink:href="#DejaVuSans-34"/>
       <use x="63.623047" xlink:href="#DejaVuSans-2e"/>
       <use x="95.410156" xlink:href="#DejaVuSans-30"/>
      </g>
     </g>
    </g>
    <g id="xtick_5">
     <g id="text_5">
      <!-- 5.0 -->
      <g transform="translate(310.329299 367.81465)scale(0.08 -0.08)">
       <defs>
        <path d="M 691 4666 
L 3169 4666 
L 3169 4134 
L 1269 4134 
L 1269 2991 
Q 1406 3038 1543 3061 
Q 1681 3084 1819 3084 
Q 2600 3084 3056 2656 
Q 3513 2228 3513 1497 
Q 3513 744 3044 326 
Q 2575 -91 1722 -91 
Q 1428 -91 1123 -41 
Q 819 9 494 109 
L 494 744 
Q 775 591 1075 516 
Q 1375 441 1709 441 
Q 2250 441 2565 725 
Q 2881 1009 2881 1497 
Q 2881 1984 2565 2268 
Q 2250 2553 1709 2553 
Q 1456 2553 1204 2497 
Q 953 2441 691 2322 
L 691 4666 
z
" id="DejaVuSans-35" transform="scale(0.015625)"/>
       </defs>
       <use xlink:href="#DejaVuSans-35"/>
       <use x="63.623047" xlink:href="#DejaVuSans-2e"/>
       <use x="95.410156" xlink:href="#DejaVuSans-30"/>
      </g>
     </g>
    </g>
    <g id="xtick_6">
     <g id="text_6">
      <!-- 6.0 -->
      <g transform="translate(367.917178 367.81465)scale(0.08 -0.08)">
       <defs>
        <path d="M 2113 2584 
Q 1688 2584 1439 2293 
Q 1191 2003 1191 1497 
Q 1191 994 1439 701 
Q 1688 409 2113 409 
Q 2538 409 2786 701 
Q 3034 994 3034 1497 
Q 3034 2003 2786 2293 
Q 2538 2584 2113 2584 
z
M 3366 4563 
L 3366 3988 
Q 3128 4100 2886 4159 
Q 2644 4219 2406 4219 
Q 1781 4219 1451 3797 
Q 1122 3375 1075 2522 
Q 1259 2794 1537 2939 
Q 1816 3084 2150 3084 
Q 2853 3084 3261 2657 
Q 3669 2231 3669 1497 
Q 3669 778 3244 343 
Q 2819 -91 2113 -91 
Q 1303 -91 875 529 
Q 447 1150 447 2328 
Q 447 3434 972 4092 
Q 1497 4750 2381 4750 
Q 2619 4750 2861 4703 
Q 3103 4656 3366 4563 
z
" id="DejaVuSans-36" transform="scale(0.015625)"/>
       </defs>
       <use xlink:href="#DejaVuSans-36"/>
       <use x="63.623047" xlink:href="#DejaVuSans-2e"/>
       <use x="95.410156" xlink:href="#DejaVuSans-30"/>
      </g>
     </g>
    </g>
    <g id="xtick_7">
     <g id="text_7">
      <!-- 7.0 -->
      <g transform="translate(425.505057 367.81465)scale(0.08 -0.08)">
       <defs>
        <path d="M 525 4666 
L 3525 4666 
L 3525 4397 
L 1831 0 
L 1172 0 
L 2766 4134 
L 525 4134 
L 525 4666 
z
" id="DejaVuSans-37" transform="scale(0.015625)"/>
       </defs>
       <use xlink:href="#DejaVuSans-37"/>
       <use x="63.623047" xlink:href="#DejaVuSans-2e"/>
       <use x="95.410156" xlink:href="#DejaVuSans-30"/>
      </g>
     </g>
    </g>
    <g id="xtick_8">
     <g id="text_8">
      <!-- 8.0 -->
      <g transform="translate(483.092936 367.81465)scale(0.08 -0.08)">
       <defs>
        <path d="M 2034 2216 
Q 1584 2216 1326 1975 
Q 1069 1734 1069 1313 
Q 1069 891 1326 650 
Q 1584 409 2034 409 
Q 2484 409 2743 651 
Q 3003 894 3003 1313 
Q 3003 1734 2745 1975 
Q 2488 2216 2034 2216 
z
M 1403 2484 
Q 997 2584 770 2862 
Q 544 3141 544 3541 
Q 544 4100 942 4425 
Q 1341 4750 2034 4750 
Q 2731 4750 3128 4425 
Q 3525 4100 3525 3541 
Q 3525 3141 3298 2862 
Q 3072 2584 2669 2484 
Q 3125 2378 3379 2068 
Q 3634 1759 3634 1313 
Q 3634 634 3220 271 
Q 2806 -91 2034 -91 
Q 1263 -91 848 271 
Q 434 634 434 1313 
Q 434 1759 690 2068 
Q 947 2378 1403 2484 
z
M 1172 3481 
Q 1172 3119 1398 2916 
Q 1625 2713 2034 2713 
Q 2441 2713 2670 2916 
Q 2900 3119 2900 3481 
Q 2900 3844 2670 4047 
Q 2441 4250 2034 4250 
Q 1625 4250 1398 4047 
Q 1172 3844 1172 3481 
z
" id="DejaVuSans-38" transform="scale(0.015625)"/>
       </defs>
       <use xlink:href="#DejaVuSans-38"/>
       <use x="63.623047" xlink:href="#DejaVuSans-2e"/>
       <use x="95.410156" xlink:href="#DejaVuSans-30"/>
      </g>
     </g>
    </g>
    <g id="xtick_9">
     <g id="text_9">
      <!-- 9.0 -->
      <g transform="translate(540.680814 367.81465)scale(0.08 -0.08)">
       <defs>
        <path d="M 703 97 
L 703 672 
Q 941 559 1184 500 
Q 1428 441 1663 441 
Q 2288 441 2617 861 
Q 2947 1281 2994 2138 
Q 2813 1869 2534 1725 
Q 2256 1581 1919 1581 
Q 1219 1581 811 2004 
Q 403 2428 403 3163 
Q 403 3881 828 4315 
Q 1253 4750 1959 4750 
Q 2769 4750 3195 4129 
Q 3622 3509 3622 2328 
Q 3622 1225 3098 567 
Q 2575 -91 1691 -91 
Q 1453 -91 1209 -44 
Q 966 3 703 97 
z
M 1959 2075 
Q 2384 2075 2632 2365 
Q 2881 2656 2881 3163 
Q 2881 3666 2632 3958 
Q 2384 4250 1959 4250 
Q 1534 4250 1286 3958 
Q 1038 3666 1038 3163 
Q 1038 2656 1286 2365 
Q 1534 2075 1959 2075 
z
" id="DejaVuSans-39" transform="scale(0.015625)"/>
       </defs>
       <use xlink:href="#DejaVuSans-39"/>
       <use x="63.623047" xlink:href="#DejaVuSans-2e"/>
       <use x="95.410156" xlink:href="#DejaVuSans-30"/>
      </g>
     </g>
    </g>
    <g id="xtick_10">
     <g id="text_10">
      <!-- &gt;10 -->
      <g transform="translate(596.188068 367.81465)scale(0.08 -0.08)">
       <defs>
        <path d="M 678 3150 
L 678 3719 
L 4684 2266 
L 4684 1747 
L 678 294 
L 678 863 
L 3897 2003 
L 678 3150 
z
" id="DejaVuSans-3e" transform="scale(0.015625)"/>
       </defs>
       <use xlink:href="#DejaVuSans-3e"/>
       <use x="83.789062" xlink:href="#DejaVuSans-31"/>
       <use x="147.412109" xlink:href="#DejaVuSans-30"/>
      </g>
     </g>
    </g>
    <g id="xtick_11">
     <g id="text_11">
      <!-- &gt;50 -->
      <g transform="translate(653.775947 367.81465)scale(0.08 -0.08)">
       <use xlink:href="#DejaVuSans-3e"/>
       <use x="83.789062" xlink:href="#DejaVuSans-35"/>
       <use x="147.412109" xlink:href="#DejaVuSans-30"/>
      </g>
     </g>
    </g>
    <g id="xtick_12">
     <g id="text_12">
      <!-- &gt;100 -->
      <g transform="translate(708.818826 367.81465)scale(0.08 -0.08)">
       <use xlink:href="#DejaVuSans-3e"/>
       <use x="83.789062" xlink:href="#DejaVuSans-31"/>
       <use x="147.412109" xlink:href="#DejaVuSans-30"/>
       <use x="211.035156" xlink:href="#DejaVuSans-30"/>
      </g>
     </g>
    </g>
    <g id="xtick_13">
     <g id="text_13">
      <!-- &gt;500 -->
      <g transform="translate(766.406705 367.81465)scale(0.08 -0.08)">
       <use xlink:href="#DejaVuSans-3e"/>
       <use x="83.789062" xlink:href="#DejaVuSans-35"/>
       <use x="147.412109" xlink:href="#DejaVuSans-30"/>
       <use x="211.035156" xlink:href="#DejaVuSans-30"/>
      </g>
     </g>
    </g>
    <g id="xtick_14">
     <g id="text_14">
      <!-- &gt;1k -->
      <g transform="translate(826.768333 367.81465)scale(0.08 -0.08)">
       <defs>
        <path d="M 581 4863 
L 1159 4863 
L 1159 1991 
L 2875 3500 
L 3609 3500 
L 1753 1863 
L 3688 0 
L 2938 0 
L 1159 1709 
L 1159 0 
L 581 0 
L 581 4863 
z
" id="DejaVuSans-6b" transform="scale(0.015625)"/>
       </defs>
       <use xlink:href="#DejaVuSans-3e"/>
       <use x="83.789062" xlink:href="#DejaVuSans-31"/>
       <use x="147.412109" xlink:href="#DejaVuSans-6b"/>
      </g>
     </g>
    </g>
    <g id="xtick_15">
     <g id="text_15">
      <!-- &gt;5k -->
      <g transform="translate(884.356212 367.81465)scale(0.08 -0.08)">
       <use xlink:href="#DejaVuSans-3e"/>
       <use x="83.789062" xlink:href="#DejaVuSans-35"/>
       <use x="147.412109" xlink:href="#DejaVuSans-6b"/>
      </g>
     </g>
    </g>
    <g id="xtick_16">
     <g id="text_16">
      <!-- &gt;10k+ -->
      <g transform="translate(936.047216 367.81465)scale(0.08 -0.08)">
       <defs>
        <path d="M 2944 4013 
L 2944 2272 
L 4684 2272 
L 4684 1741 
L 2944 1741 
L 2944 0 
L 2419 0 
L 2419 1741 
L 678 1741 
L 678 2272 
L 2419 2272 
L 2419 4013 
L 2944 4013 
z
" id="DejaVuSans-2b" transform="scale(0.015625)"/>
       </defs>
       <use xlink:href="#DejaVuSans-3e"/>
       <use x="83.789062" xlink:href="#DejaVuSans-31"/>
       <use x="147.412109" xlink:href="#DejaVuSans-30"/>
       <use x="211.035156" xlink:href="#DejaVuSans-6b"/>
       <use x="268.945312" xlink:href="#DejaVuSans-2b"/>
      </g>
     </g>
    </g>
    <g id="text_17">
     <!-- Sequence Duplication Level -->
     <g transform="translate(448.843438 381.076838)scale(0.1 -0.1)">
      <defs>
       <path d="M 3425 4513 
L 3425 3897 
Q 3066 4069 2747 4153 
Q 2428 4238 2131 4238 
Q 1616 4238 1336 4038 
Q 1056 3838 1056 3469 
Q 1056 3159 1242 3001 
Q 1428 2844 1947 2747 
L 2328 2669 
Q 3034 2534 3370 2195 
Q 3706 1856 3706 1288 
Q 3706 609 3251 259 
Q 2797 -91 1919 -91 
Q 1588 -91 1214 -16 
Q 841 59 441 206 
L 441 856 
Q 825 641 1194 531 
Q 1563 422 1919 422 
Q 2459 422 2753 634 
Q 3047 847 3047 1241 
Q 3047 1584 2836 1778 
Q 2625 1972 2144 2069 
L 1759 2144 
Q 1053 2284 737 2584 
Q 422 2884 422 3419 
Q 422 4038 858 4394 
Q 1294 4750 2059 4750 
Q 2388 4750 2728 4690 
Q 3069 4631 3425 4513 
z
" id="DejaVuSans-53" transform="scale(0.015625)"/>
       <path d="M 3597 1894 
L 3597 1613 
L 953 1613 
Q 991 1019 1311 708 
Q 1631 397 2203 397 
Q 2534 397 2845 478 
Q 3156 559 3463 722 
L 3463 178 
Q 3153 47 2828 -22 
Q 2503 -91 2169 -91 
Q 1331 -91 842 396 
Q 353 884 353 1716 
Q 353 2575 817 3079 
Q 1281 3584 2069 3584 
Q 2775 3584 3186 3129 
Q 3597 2675 3597 1894 
z
M 3022 2063 
Q 3016 2534 2758 2815 
Q 2500 3097 2075 3097 
Q 1594 3097 1305 2825 
Q 1016 2553 972 2059 
L 3022 2063 
z
" id="DejaVuSans-65" transform="scale(0.015625)"/>
       <path d="M 947 1747 
Q 947 1113 1208 752 
Q 1469 391 1925 391 
Q 2381 391 2643 752 
Q 2906 1113 2906 1747 
Q 2906 2381 2643 2742 
Q 2381 3103 1925 3103 
Q 1469 3103 1208 2742 
Q 947 2381 947 1747 
z
M 2906 525 
Q 2725 213 2448 61 
Q 2172 -91 1784 -91 
Q 1150 -91 751 415 
Q 353 922 353 1747 
Q 353 2572 751 3078 
Q 1150 3584 1784 3584 
Q 2172 3584 2448 3432 
Q 2725 3281 2906 2969 
L 2906 3500 
L 3481 3500 
L 3481 -1331 
L 2906 -1331 
L 2906 525 
z
" id="DejaVuSans-71" transform="scale(0.015625)"/>
       <path d="M 544 1381 
L 544 3500 
L 1119 3500 
L 1119 1403 
Q 1119 906 1312 657 
Q 1506 409 1894 409 
Q 2359 409 2629 706 
Q 2900 1003 2900 1516 
L 2900 3500 
L 3475 3500 
L 3475 0 
L 2900 0 
L 2900 538 
Q 2691 219 2414 64 
Q 2138 -91 1772 -91 
Q 1169 -91 856 284 
Q 544 659 544 1381 
z
M 1991 3584 
L 1991 3584 
z
" id="DejaVuSans-75" transform="scale(0.015625)"/>
       <path d="M 3513 2113 
L 3513 0 
L 2938 0 
L 2938 2094 
Q 2938 2591 2744 2837 
Q 2550 3084 2163 3084 
Q 1697 3084 1428 2787 
Q 1159 2491 1159 1978 
L 1159 0 
L 581 0 
L 581 3500 
L 1159 3500 
L 1159 2956 
Q 1366 3272 1645 3428 
Q 1925 3584 2291 3584 
Q 2894 3584 3203 3211 
Q 3513 2838 3513 2113 
z
" id="DejaVuSans-6e" transform="scale(0.015625)"/>
       <path d="M 3122 3366 
L 3122 2828 
Q 2878 2963 2633 3030 
Q 2388 3097 2138 3097 
Q 1578 3097 1268 2742 
Q 959 2388 959 1747 
Q 959 1106 1268 751 
Q 1578 397 2138 397 
Q 2388 397 2633 464 
Q 2878 531 3122 666 
L 3122 134 
Q 2881 22 2623 -34 
Q 2366 -91 2075 -91 
Q 1284 -91 818 406 
Q 353 903 353 1747 
Q 353 2603 823 3093 
Q 1294 3584 2113 3584 
Q 2378 3584 2631 3529 
Q 2884 3475 3122 3366 
z
" id="DejaVuSans-63" transform="scale(0.015625)"/>
       <path id="DejaVuSans-20" transform="scale(0.015625)"/>
       <path d="M 1259 4147 
L 1259 519 
L 2022 519 
Q 2988 519 3436 956 
Q 3884 1394 3884 2338 
Q 3884 3275 3436 3711 
Q 2988 4147 2022 4147 
L 1259 4147 
z
M 628 4666 
L 1925 4666 
Q 3281 4666 3915 4102 
Q 4550 3538 4550 2338 
Q 4550 1131 3912 565 
Q 3275 0 1925 0 
L 628 0 
L 628 4666 
z
" id="DejaVuSans-44" transform="scale(0.015625)"/>
       <path d="M 1159 525 
L 1159 -1331 
L 581 -1331 
L 581 3500 
L 1159 3500 
L 1159 2969 
Q 1341 3281 1617 3432 
Q 1894 3584 2278 3584 
Q 2916 3584 3314 3078 
Q 3713 2572 3713 1747 
Q 3713 922 3314 415 
Q 2916 -91 2278 -91 
Q 1894 -91 1617 61 
Q 1341 213 1159 525 
z
M 3116 1747 
Q 3116 2381 2855 2742 
Q 2594 3103 2138 3103 
Q 1681 3103 1420 2742 
Q 1159 2381 1159 1747 
Q 1159 1113 1420 752 
Q 1681 391 2138 391 
Q 2594 391 2855 752 
Q 3116 1113 3116 1747 
z
" id="DejaVuSans-70" transform="scale(0.015625)"/>
       <path d="M 603 4863 
L 1178 4863 
L 1178 0 
L 603 0 
L 603 4863 
z
" id="DejaVuSans-6c" transform="scale(0.015625)"/>
       <path d="M 603 3500 
L 1178 3500 
L 1178 0 
L 603 0 
L 603 3500 
z
M 603 4863 
L 1178 4863 
L 1178 4134 
L 603 4134 
L 603 4863 
z
" id="DejaVuSans-69" transform="scale(0.015625)"/>
       <path d="M 2194 1759 
Q 1497 1759 1228 1600 
Q 959 1441 959 1056 
Q 959 750 1161 570 
Q 1363 391 1709 391 
Q 2188 391 2477 730 
Q 2766 1069 2766 1631 
L 2766 1759 
L 2194 1759 
z
M 3341 1997 
L 3341 0 
L 2766 0 
L 2766 531 
Q 2569 213 2275 61 
Q 1981 -91 1556 -91 
Q 1019 -91 701 211 
Q 384 513 384 1019 
Q 384 1609 779 1909 
Q 1175 2209 1959 2209 
L 2766 2209 
L 2766 2266 
Q 2766 2663 2505 2880 
Q 2244 3097 1772 3097 
Q 1472 3097 1187 3025 
Q 903 2953 641 2809 
L 641 3341 
Q 956 3463 1253 3523 
Q 1550 3584 1831 3584 
Q 2591 3584 2966 3190 
Q 3341 2797 3341 1997 
z
" id="DejaVuSans-61" transform="scale(0.015625)"/>
       <path d="M 1172 4494 
L 1172 3500 
L 2356 3500 
L 2356 3053 
L 1172 3053 
L 1172 1153 
Q 1172 725 1289 603 
Q 1406 481 1766 481 
L 2356 481 
L 2356 0 
L 1766 0 
Q 1100 0 847 248 
Q 594 497 594 1153 
L 594 3053 
L 172 3053 
L 172 3500 
L 594 3500 
L 594 4494 
L 1172 4494 
z
" id="DejaVuSans-74" transform="scale(0.015625)"/>
       <path d="M 1959 3097 
Q 1497 3097 1228 2736 
Q 959 2375 959 1747 
Q 959 1119 1226 758 
Q 1494 397 1959 397 
Q 2419 397 2687 759 
Q 2956 1122 2956 1747 
Q 2956 2369 2687 2733 
Q 2419 3097 1959 3097 
z
M 1959 3584 
Q 2709 3584 3137 3096 
Q 3566 2609 3566 1747 
Q 3566 888 3137 398 
Q 2709 -91 1959 -91 
Q 1206 -91 779 398 
Q 353 888 353 1747 
Q 353 2609 779 3096 
Q 1206 3584 1959 3584 
z
" id="DejaVuSans-6f" transform="scale(0.015625)"/>
       <path d="M 628 4666 
L 1259 4666 
L 1259 531 
L 3531 531 
L 3531 0 
L 628 0 
L 628 4666 
z
" id="DejaVuSans-4c" transform="scale(0.015625)"/>
       <path d="M 191 3500 
L 800 3500 
L 1894 563 
L 2988 3500 
L 3597 3500 
L 2284 0 
L 1503 0 
L 191 3500 
z
" id="DejaVuSans-76" transform="scale(0.015625)"/>
      </defs>
      <use xlink:href="#DejaVuSans-53"/>
      <use x="63.476562" xlink:href="#DejaVuSans-65"/>
      <use x="125" xlink:href="#DejaVuSans-71"/>
      <use x="188.476562" xlink:href="#DejaVuSans-75"/>
      <use x="251.855469" xlink:href="#DejaVuSans-65"/>
      <use x="313.378906" xlink:href="#DejaVuSans-6e"/>
      <use x="376.757812" xlink:href="#DejaVuSans-63"/>
      <use x="431.738281" xlink:href="#DejaVuSans-65"/>
      <use x="493.261719" xlink:href="#DejaVuSans-20"/>
      <use x="525.048828" xlink:href="#DejaVuSans-44"/>
      <use x="602.050781" xlink:href="#DejaVuSans-75"/>
      <use x="665.429688" xlink:href="#DejaVuSans-70"/>
      <use x="728.90625" xlink:href="#DejaVuSans-6c"/>
      <use x="756.689453" xlink:href="#DejaVuSans-69"/>
      <use x="784.472656" xlink:href="#DejaVuSans-63"/>
      <use x="839.453125" xlink:href="#DejaVuSans-61"/>
      <use x="900.732422" xlink:href="#DejaVuSans-74"/>
      <use x="939.941406" xlink:href="#DejaVuSans-69"/>
      <use x="967.724609" xlink:href="#DejaVuSans-6f"/>
      <use x="1028.90625" xlink:href="#DejaVuSans-6e"/>
      <use x="1092.285156" xlink:href="#DejaVuSans-20"/>
      <use x="1124.072266" xlink:href="#DejaVuSans-4c"/>
      <use x="1178.035156" xlink:href="#DejaVuSans-65"/>
      <use x="1239.558594" xlink:href="#DejaVuSans-76"/>
      <use x="1298.738281" xlink:href="#DejaVuSans-65"/>
      <use x="1360.261719" xlink:href="#DejaVuSans-6c"/>
     </g>
    </g>
   </g>
   <g id="matplotlib.axis_2">
    <g id="ytick_1">
     <g id="line2d_1">
      <path clip-path="url(#p9c5a3123d2)" d="M 43.148125 354.7359 
L 993.348125 354.7359 
" style="fill:none;stroke:#dedede;stroke-linecap:square;"/>
     </g>
     <g id="text_18">
      <!-- 0 -->
      <g transform="translate(31.058125 357.775275)scale(0.08 -0.08)">
       <use xlink:href="#DejaVuSans-30"/>
      </g>
     </g>
    </g>
    <g id="ytick_2">
     <g id="line2d_2">
      <path clip-path="url(#p9c5a3123d2)" d="M 43.148125 290.8543 
L 993.348125 290.8543 
" style="fill:none;stroke:#dedede;stroke-linecap:square;"/>
     </g>
     <g id="text_19">
      <!-- 20 -->
      <g transform="translate(25.968125 293.893675)scale(0.08 -0.08)">
       <use xlink:href="#DejaVuSans-32"/>
       <use x="63.623047" xlink:href="#DejaVuSans-30"/>
      </g>
     </g>
    </g>
    <g id="ytick_3">
     <g id="line2d_3">
      <path clip-path="url(#p9c5a3123d2)" d="M 43.148125 226.9727 
L 993.348125 226.9727 
" style="fill:none;stroke:#dedede;stroke-linecap:square;"/>
     </g>
     <g id="text_20">
      <!-- 40 -->
      <g transform="translate(25.968125 230.012075)scale(0.08 -0.08)">
       <use xlink:href="#DejaVuSans-34"/>
       <use x="63.623047" xlink:href="#DejaVuSans-30"/>
      </g>
     </g>
    </g>
    <g id="ytick_4">
     <g id="line2d_4">
      <path clip-path="url(#p9c5a3123d2)" d="M 43.148125 163.0911 
L 993.348125 163.0911 
" style="fill:none;stroke:#dedede;stroke-linecap:square;"/>
     </g>
     <g id="text_21">
      <!-- 60 -->
      <g transform="translate(25.968125 166.130475)scale(0.08 -0.08)">
       <use xlink:href="#DejaVuSans-36"/>
       <use x="63.623047" xlink:href="#DejaVuSans-30"/>
      </g>
     </g>
    </g>
    <g id="ytick_5">
     <g id="line2d_5">
      <path clip-path="url(#p9c5a3123d2)" d="M 43.148125 99.2095 
L 993.348125 99.2095 
" style="fill:none;stroke:#dedede;stroke-linecap:square;"/>
     </g>
     <g id="text_22">
      <!-- 80 -->
      <g transform="translate(25.968125 102.248875)scale(0.08 -0.08)">
       <use xlink:href="#DejaVuSans-38"/>
       <use x="63.623047" xlink:href="#DejaVuSans-30"/>
      </g>
     </g>
    </g>
    <g id="ytick_6">
     <g id="line2d_6">
      <path clip-path="url(#p9c5a3123d2)" d="M 43.148125 35.3279 
L 993.348125 35.3279 
" style="fill:none;stroke:#dedede;stroke-linecap:square;"/>
     </g>
     <g id="text_23">
      <!-- 100 -->
      <g transform="translate(20.878125 38.367275)scale(0.08 -0.08)">
       <use xlink:href="#DejaVuSans-31"/>
       <use x="63.623047" xlink:href="#DejaVuSans-30"/>
       <use x="127.246094" xlink:href="#DejaVuSans-30"/>
      </g>
     </g>
    </g>
    <g id="text_24">
     <!-- % of Library -->
     <g transform="translate(14.798437 225.263931)rotate(-90)scale(0.1 -0.1)">
      <defs>
       <path d="M 4653 2053 
Q 4381 2053 4226 1822 
Q 4072 1591 4072 1178 
Q 4072 772 4226 539 
Q 4381 306 4653 306 
Q 4919 306 5073 539 
Q 5228 772 5228 1178 
Q 5228 1588 5073 1820 
Q 4919 2053 4653 2053 
z
M 4653 2450 
Q 5147 2450 5437 2106 
Q 5728 1763 5728 1178 
Q 5728 594 5436 251 
Q 5144 -91 4653 -91 
Q 4153 -91 3862 251 
Q 3572 594 3572 1178 
Q 3572 1766 3864 2108 
Q 4156 2450 4653 2450 
z
M 1428 4353 
Q 1159 4353 1004 4120 
Q 850 3888 850 3481 
Q 850 3069 1003 2837 
Q 1156 2606 1428 2606 
Q 1700 2606 1854 2837 
Q 2009 3069 2009 3481 
Q 2009 3884 1853 4118 
Q 1697 4353 1428 4353 
z
M 4250 4750 
L 4750 4750 
L 1831 -91 
L 1331 -91 
L 4250 4750 
z
M 1428 4750 
Q 1922 4750 2215 4408 
Q 2509 4066 2509 3481 
Q 2509 2891 2217 2550 
Q 1925 2209 1428 2209 
Q 931 2209 642 2551 
Q 353 2894 353 3481 
Q 353 4063 643 4406 
Q 934 4750 1428 4750 
z
" id="DejaVuSans-25" transform="scale(0.015625)"/>
       <path d="M 2375 4863 
L 2375 4384 
L 1825 4384 
Q 1516 4384 1395 4259 
Q 1275 4134 1275 3809 
L 1275 3500 
L 2222 3500 
L 2222 3053 
L 1275 3053 
L 1275 0 
L 697 0 
L 697 3053 
L 147 3053 
L 147 3500 
L 697 3500 
L 697 3744 
Q 697 4328 969 4595 
Q 1241 4863 1831 4863 
L 2375 4863 
z
" id="DejaVuSans-66" transform="scale(0.015625)"/>
       <path d="M 3116 1747 
Q 3116 2381 2855 2742 
Q 2594 3103 2138 3103 
Q 1681 3103 1420 2742 
Q 1159 2381 1159 1747 
Q 1159 1113 1420 752 
Q 1681 391 2138 391 
Q 2594 391 2855 752 
Q 3116 1113 3116 1747 
z
M 1159 2969 
Q 1341 3281 1617 3432 
Q 1894 3584 2278 3584 
Q 2916 3584 3314 3078 
Q 3713 2572 3713 1747 
Q 3713 922 3314 415 
Q 2916 -91 2278 -91 
Q 1894 -91 1617 61 
Q 1341 213 1159 525 
L 1159 0 
L 581 0 
L 581 4863 
L 1159 4863 
L 1159 2969 
z
" id="DejaVuSans-62" transform="scale(0.015625)"/>
       <path d="M 2631 2963 
Q 2534 3019 2420 3045 
Q 2306 3072 2169 3072 
Q 1681 3072 1420 2755 
Q 1159 2438 1159 1844 
L 1159 0 
L 581 0 
L 581 3500 
L 1159 3500 
L 1159 2956 
Q 1341 3275 1631 3429 
Q 1922 3584 2338 3584 
Q 2397 3584 2469 3576 
Q 2541 3569 2628 3553 
L 2631 2963 
z
" id="DejaVuSans-72" transform="scale(0.015625)"/>
       <path d="M 2059 -325 
Q 1816 -950 1584 -1140 
Q 1353 -1331 966 -1331 
L 506 -1331 
L 506 -850 
L 844 -850 
Q 1081 -850 1212 -737 
Q 1344 -625 1503 -206 
L 1606 56 
L 191 3500 
L 800 3500 
L 1894 763 
L 2988 3500 
L 3597 3500 
L 2059 -325 
z
" id="DejaVuSans-79" transform="scale(0.015625)"/>
      </defs>
      <use xlink:href="#DejaVuSans-25"/>
      <use x="95.019531" xlink:href="#DejaVuSans-20"/>
      <use x="126.806641" xlink:href="#DejaVuSans-6f"/>
      <use x="187.988281" xlink:href="#DejaVuSans-66"/>
      <use x="223.193359" xlink:href="#DejaVuSans-20"/>
      <use x="254.980469" xlink:href="#DejaVuSans-4c"/>
      <use x="310.693359" xlink:href="#DejaVuSans-69"/>
      <use x="338.476562" xlink:href="#DejaVuSans-62"/>
      <use x="401.953125" xlink:href="#DejaVuSans-72"/>
      <use x="443.066406" xlink:href="#DejaVuSans-61"/>
      <use x="504.345703" xlink:href="#DejaVuSans-72"/>
      <use x="545.458984" xlink:href="#DejaVuSans-79"/>
     </g>
    </g>
   </g>
   <g id="line2d_7">
    <path clip-path="url(#p9c5a3123d2)" d="M 86.339034 291.231195 
L 143.926913 330.016716 
L 201.514792 327.729171 
L 259.10267 326.999154 
L 316.690549 328.212339 
L 374.278428 330.464472 
L 431.866307 332.540994 
L 489.454186 336.134908 
L 547.042064 339.048503 
L 604.629943 285.84463 
L 662.217822 354.630696 
L 719.805701 354.570021 
L 777.39358 354.7359 
L 834.981458 354.7359 
L 892.569337 354.7359 
L 950.157216 354.7359 
" style="fill:none;stroke:#d9534f;stroke-linecap:square;"/>
   </g>
   <g id="line2d_8">
    <path clip-path="url(#p9c5a3123d2)" d="M 86.339034 288.016071 
L 143.926913 329.264418 
L 201.514792 327.903178 
L 259.10267 326.476541 
L 316.690549 327.875748 
L 374.278428 330.367348 
L 431.866307 333.24285 
L 489.454186 336.398887 
L 547.042064 339.455146 
L 604.629943 289.21182 
L 662.217822 354.648458 
L 719.805701 354.562335 
L 777.39358 354.7359 
L 834.981458 354.7359 
L 892.569337 354.7359 
L 950.157216 354.7359 
" style="fill:none;stroke:#d9534f;stroke-linecap:square;"/>
   </g>
   <g id="line2d_9">
    <path clip-path="url(#p9c5a3123d2)" d="M 86.339034 309.773334 
L 143.926913 348.01464 
L 201.514792 347.709575 
L 259.10267 345.810575 
L 316.690549 344.227216 
L 374.278428 342.876787 
L 431.866307 341.903614 
L 489.454186 341.330588 
L 547.042064 341.594727 
L 604.629943 167.65518 
L 662.217822 352.067263 
L 719.805701 354.619774 
L 777.39358 354.575428 
L 834.981458 354.7359 
L 892.569337 354.7359 
L 950.157216 354.7359 
" style="fill:none;stroke:#d9534f;stroke-linecap:square;"/>
   </g>
   <g id="line2d_10">
    <path clip-path="url(#p9c5a3123d2)" d="M 86.339034 309.575374 
L 143.926913 347.836309 
L 201.514792 347.767625 
L 259.10267 345.627419 
L 316.690549 343.820482 
L 374.278428 342.708283 
L 431.866307 341.744712 
L 489.454186 341.124728 
L 547.042064 341.045131 
L 604.629943 168.8422 
L 662.217822 352.842965 
L 719.805701 354.579994 
L 777.39358 354.643477 
L 834.981458 354.7359 
L 892.569337 354.7359 
L 950.157216 354.7359 
" style="fill:none;stroke:#d9534f;stroke-linecap:square;"/>
   </g>
   <g id="line2d_11">
    <path clip-path="url(#p9c5a3123d2)" d="M 86.339034 249.208896 
L 143.926913 344.302826 
L 201.514792 343.433899 
L 259.10267 341.071132 
L 316.690549 339.544558 
L 374.278428 339.934385 
L 431.866307 339.696323 
L 489.454186 340.095077 
L 547.042064 341.505595 
L 604.629943 251.607372 
L 662.217822 353.771748 
L 719.805701 353.250987 
L 777.39358 354.7359 
L 834.981458 354.7359 
L 892.569337 354.7359 
L 950.157216 354.7359 
" style="fill:none;stroke:#d9534f;stroke-linecap:square;"/>
   </g>
   <g id="line2d_12">
    <path clip-path="url(#p9c5a3123d2)" d="M 86.339034 245.593327 
L 143.926913 344.642064 
L 201.514792 343.291062 
L 259.10267 341.285388 
L 316.690549 339.440406 
L 374.278428 339.327327 
L 431.866307 340.02961 
L 489.454186 340.856876 
L 547.042064 341.773415 
L 604.629943 253.693392 
L 662.217822 353.83424 
L 719.805701 353.655693 
L 777.39358 354.7359 
L 834.981458 354.7359 
L 892.569337 354.7359 
L 950.157216 354.7359 
" style="fill:none;stroke:#d9534f;stroke-linecap:square;"/>
   </g>
   <g id="line2d_13">
    <path clip-path="url(#p9c5a3123d2)" d="M 86.339034 236.4603 
L 143.926913 293.082662 
L 201.514792 309.108964 
L 259.10267 322.521464 
L 316.690549 332.54095 
L 374.278428 340.237657 
L 431.866307 345.645635 
L 489.454186 349.128727 
L 547.042064 351.11142 
L 604.629943 348.436307 
L 662.217822 354.7359 
L 719.805701 354.412814 
L 777.39358 354.7359 
L 834.981458 354.7359 
L 892.569337 354.7359 
L 950.157216 354.7359 
" style="fill:none;stroke:#f0ad4e;stroke-linecap:square;"/>
   </g>
   <g id="line2d_14">
    <path clip-path="url(#p9c5a3123d2)" d="M 86.339034 234.173182 
L 143.926913 292.989967 
L 201.514792 309.260345 
L 259.10267 322.446067 
L 316.690549 333.143244 
L 374.278428 340.895808 
L 431.866307 345.555359 
L 489.454186 349.306516 
L 547.042064 351.558146 
L 604.629943 348.949712 
L 662.217822 354.7359 
L 719.805701 354.408552 
L 777.39358 354.7359 
L 834.981458 354.7359 
L 892.569337 354.7359 
L 950.157216 354.7359 
" style="fill:none;stroke:#f0ad4e;stroke-linecap:square;"/>
   </g>
   <g id="line2d_15">
    <path clip-path="url(#p9c5a3123d2)" d="M 86.339034 205.730421 
L 143.926913 306.09927 
L 201.514792 324.862982 
L 259.10267 336.774837 
L 316.690549 343.645853 
L 374.278428 347.176353 
L 431.866307 349.715114 
L 489.454186 350.580976 
L 547.042064 351.227769 
L 604.629943 313.639058 
L 662.217822 353.630205 
L 719.805701 354.339963 
L 777.39358 354.7359 
L 834.981458 354.7359 
L 892.569337 354.7359 
L 950.157216 354.7359 
" style="fill:none;stroke:#f0ad4e;stroke-linecap:square;"/>
   </g>
   <g id="line2d_16">
    <path clip-path="url(#p9c5a3123d2)" d="M 86.339034 203.065798 
L 143.926913 306.140218 
L 201.514792 325.125604 
L 259.10267 336.717389 
L 316.690549 343.818762 
L 374.278428 347.603595 
L 431.866307 349.888521 
L 489.454186 350.966785 
L 547.042064 351.331503 
L 604.629943 314.780279 
L 662.217822 353.566934 
L 719.805701 354.417413 
L 777.39358 354.7359 
L 834.981458 354.7359 
L 892.569337 354.7359 
L 950.157216 354.7359 
" style="fill:none;stroke:#f0ad4e;stroke-linecap:square;"/>
   </g>
   <g id="line2d_17">
    <path clip-path="url(#p9c5a3123d2)" d="M 86.339034 165.483216 
L 143.926913 279.286697 
L 201.514792 322.907863 
L 259.10267 341.923947 
L 316.690549 349.629805 
L 374.278428 352.474978 
L 431.866307 353.736946 
L 489.454186 354.27974 
L 547.042064 354.479505 
L 604.629943 354.169298 
L 662.217822 354.314905 
L 719.805701 354.7359 
L 777.39358 354.7359 
L 834.981458 354.7359 
L 892.569337 354.7359 
L 950.157216 354.7359 
" style="fill:none;stroke:#5cb85c;stroke-linecap:square;"/>
   </g>
   <g id="line2d_18">
    <path clip-path="url(#p9c5a3123d2)" d="M 86.339034 160.406084 
L 143.926913 281.474416 
L 201.514792 324.620235 
L 259.10267 342.107479 
L 316.690549 350.206201 
L 374.278428 352.462385 
L 431.866307 353.735797 
L 489.454186 354.342681 
L 547.042064 354.536288 
L 604.629943 354.366775 
L 662.217822 354.42856 
L 719.805701 354.7359 
L 777.39358 354.7359 
L 834.981458 354.7359 
L 892.569337 354.7359 
L 950.157216 354.7359 
" style="fill:none;stroke:#5cb85c;stroke-linecap:square;"/>
   </g>
   <g id="line2d_19">
    <path clip-path="url(#p9c5a3123d2)" d="M 86.339034 236.589015 
L 143.926913 297.818585 
L 201.514792 310.18404 
L 259.10267 322.15913 
L 316.690549 331.904322 
L 374.278428 339.394525 
L 431.866307 344.617057 
L 489.454186 348.355092 
L 547.042064 350.415598 
L 604.629943 346.609486 
L 662.217822 354.678584 
L 719.805701 354.697365 
L 777.39358 354.7359 
L 834.981458 354.7359 
L 892.569337 354.7359 
L 950.157216 354.7359 
" style="fill:none;stroke:#f0ad4e;stroke-linecap:square;"/>
   </g>
   <g id="line2d_20">
    <path clip-path="url(#p9c5a3123d2)" d="M 86.339034 226.983806 
L 143.926913 299.666493 
L 201.514792 311.409943 
L 259.10267 323.716426 
L 316.690549 333.322316 
L 374.278428 340.829533 
L 431.866307 345.309637 
L 489.454186 348.729957 
L 547.042064 350.807465 
L 604.629943 347.275674 
L 662.217822 354.655582 
L 719.805701 354.715968 
L 777.39358 354.7359 
L 834.981458 354.7359 
L 892.569337 354.7359 
L 950.157216 354.7359 
" style="fill:none;stroke:#f0ad4e;stroke-linecap:square;"/>
   </g>
   <g id="line2d_21">
    <path clip-path="url(#p9c5a3123d2)" d="M 86.339034 329.97665 
L 143.926913 352.245721 
L 201.514792 353.502641 
L 259.10267 353.551867 
L 316.690549 353.35445 
L 374.278428 353.032049 
L 431.866307 352.806452 
L 489.454186 352.37291 
L 547.042064 352.192714 
L 604.629943 218.966973 
L 662.217822 270.45957 
L 719.805701 295.20619 
L 777.39358 354.602031 
L 834.981458 354.624382 
L 892.569337 354.7359 
L 950.157216 354.7359 
" style="fill:none;stroke:#d9534f;stroke-linecap:square;"/>
   </g>
   <g id="line2d_22">
    <path clip-path="url(#p9c5a3123d2)" d="M 86.339034 326.345601 
L 143.926913 352.152818 
L 201.514792 353.465072 
L 259.10267 353.454376 
L 316.690549 353.232074 
L 374.278428 353.023376 
L 431.866307 352.610993 
L 489.454186 352.458062 
L 547.042064 352.191641 
L 604.629943 217.893856 
L 662.217822 271.687961 
L 719.805701 299.109623 
L 777.39358 354.639313 
L 834.981458 354.629834 
L 892.569337 354.7359 
L 950.157216 354.7359 
" style="fill:none;stroke:#d9534f;stroke-linecap:square;"/>
   </g>
   <g id="line2d_23">
    <path clip-path="url(#p9c5a3123d2)" d="M 86.339034 181.083502 
L 143.926913 283.284659 
L 201.514792 316.056628 
L 259.10267 335.424597 
L 316.690549 345.89616 
L 374.278428 350.59448 
L 431.866307 352.927121 
L 489.454186 353.945941 
L 547.042064 354.470216 
L 604.629943 354.50411 
L 662.217822 354.499485 
L 719.805701 354.7359 
L 777.39358 354.7359 
L 834.981458 354.7359 
L 892.569337 354.7359 
L 950.157216 354.7359 
" style="fill:none;stroke:#5cb85c;stroke-linecap:square;"/>
   </g>
   <g id="line2d_24">
    <path clip-path="url(#p9c5a3123d2)" d="M 86.339034 179.74411 
L 143.926913 284.540521 
L 201.514792 316.390256 
L 259.10267 335.060059 
L 316.690549 345.431987 
L 374.278428 350.802786 
L 431.866307 353.167255 
L 489.454186 354.13572 
L 547.042064 354.416059 
L 604.629943 354.476996 
L 662.217822 354.521152 
L 719.805701 354.7359 
L 777.39358 354.7359 
L 834.981458 354.7359 
L 892.569337 354.7359 
L 950.157216 354.7359 
" style="fill:none;stroke:#5cb85c;stroke-linecap:square;"/>
   </g>
   <g id="line2d_25">
    <path clip-path="url(#p9c5a3123d2)" d="M 86.339034 251.378715 
L 143.926913 314.664836 
L 201.514792 323.061702 
L 259.10267 328.208711 
L 316.690549 332.986171 
L 374.278428 336.195362 
L 431.866307 339.2502 
L 489.454186 342.381532 
L 547.042064 344.383593 
L 604.629943 315.692852 
L 662.217822 354.650243 
L 719.805701 354.568882 
L 777.39358 354.7359 
L 834.981458 354.7359 
L 892.569337 354.7359 
L 950.157216 354.7359 
" style="fill:none;stroke:#d9534f;stroke-linecap:square;"/>
   </g>
   <g id="line2d_26">
    <path clip-path="url(#p9c5a3123d2)" d="M 86.339034 245.304367 
L 143.926913 314.931066 
L 201.514792 323.39297 
L 259.10267 329.224847 
L 316.690549 333.106523 
L 374.278428 336.269644 
L 431.866307 339.720582 
L 489.454186 342.527114 
L 547.042064 345.15405 
L 604.629943 318.517212 
L 662.217822 354.671921 
L 719.805701 354.602504 
L 777.39358 354.7359 
L 834.981458 354.7359 
L 892.569337 354.7359 
L 950.157216 354.7359 
" style="fill:none;stroke:#f0ad4e;stroke-linecap:square;"/>
   </g>
   <g id="line2d_27">
    <path clip-path="url(#p9c5a3123d2)" d="M 86.339034 284.644946 
L 143.926913 315.870121 
L 201.514792 318.046914 
L 259.10267 323.823834 
L 316.690549 328.041941 
L 374.278428 333.03997 
L 431.866307 337.057329 
L 489.454186 340.082181 
L 547.042064 342.89151 
L 604.629943 305.030452 
L 662.217822 354.591351 
L 719.805701 354.302253 
L 777.39358 354.7359 
L 834.981458 354.7359 
L 892.569337 354.7359 
L 950.157216 354.7359 
" style="fill:none;stroke:#d9534f;stroke-linecap:square;"/>
   </g>
   <g id="line2d_28">
    <path clip-path="url(#p9c5a3123d2)" d="M 86.339034 278.69294 
L 143.926913 315.560871 
L 201.514792 318.017226 
L 259.10267 323.190631 
L 316.690549 329.361954 
L 374.278428 333.203106 
L 431.866307 337.34996 
L 489.454186 340.55609 
L 547.042064 343.591237 
L 604.629943 309.020963 
L 662.217822 354.591419 
L 719.805701 354.286403 
L 777.39358 354.7359 
L 834.981458 354.7359 
L 892.569337 354.7359 
L 950.157216 354.7359 
" style="fill:none;stroke:#d9534f;stroke-linecap:square;"/>
   </g>
   <g id="line2d_29">
    <path clip-path="url(#p9c5a3123d2)" d="M 86.339034 251.485865 
L 143.926913 315.771493 
L 201.514792 321.669375 
L 259.10267 325.54837 
L 316.690549 330.301888 
L 374.278428 334.818773 
L 431.866307 339.713078 
L 489.454186 342.460646 
L 547.042064 345.764598 
L 604.629943 320.929767 
L 662.217822 354.373352 
L 719.805701 354.585595 
L 777.39358 354.7359 
L 834.981458 354.7359 
L 892.569337 354.7359 
L 950.157216 354.7359 
" style="fill:none;stroke:#d9534f;stroke-linecap:square;"/>
   </g>
   <g id="line2d_30">
    <path clip-path="url(#p9c5a3123d2)" d="M 86.339034 250.245092 
L 143.926913 315.69435 
L 201.514792 321.381403 
L 259.10267 325.738323 
L 316.690549 330.13658 
L 374.278428 334.818394 
L 431.866307 339.702159 
L 489.454186 342.906861 
L 547.042064 346.236972 
L 604.629943 321.589277 
L 662.217822 354.340722 
L 719.805701 354.632667 
L 777.39358 354.7359 
L 834.981458 354.7359 
L 892.569337 354.7359 
L 950.157216 354.7359 
" style="fill:none;stroke:#d9534f;stroke-linecap:square;"/>
   </g>
   <g id="line2d_31">
    <path clip-path="url(#p9c5a3123d2)" d="M 86.339034 210.195763 
L 143.926913 286.39852 
L 201.514792 315.103657 
L 259.10267 333.134692 
L 316.690549 343.499962 
L 374.278428 348.301724 
L 431.866307 350.563235 
L 489.454186 351.952963 
L 547.042064 352.414069 
L 604.629943 336.503967 
L 662.217822 354.68513 
L 719.805701 354.669116 
L 777.39358 354.7359 
L 834.981458 354.7359 
L 892.569337 354.7359 
L 950.157216 354.7359 
" style="fill:none;stroke:#f0ad4e;stroke-linecap:square;"/>
   </g>
   <g id="line2d_32">
    <path clip-path="url(#p9c5a3123d2)" d="M 86.339034 207.782537 
L 143.926913 286.543194 
L 201.514792 316.039491 
L 259.10267 333.86511 
L 316.690549 343.467106 
L 374.278428 348.244592 
L 431.866307 350.645509 
L 489.454186 352.012981 
L 547.042064 352.640667 
L 604.629943 336.884336 
L 662.217822 354.64738 
L 719.805701 354.649896 
L 777.39358 354.7359 
L 834.981458 354.7359 
L 892.569337 354.7359 
L 950.157216 354.7359 
" style="fill:none;stroke:#f0ad4e;stroke-linecap:square;"/>
   </g>
   <g id="line2d_33">
    <path clip-path="url(#p9c5a3123d2)" d="M 86.339034 181.441271 
L 143.926913 311.639201 
L 201.514792 330.659583 
L 259.10267 337.120454 
L 316.690549 340.473336 
L 374.278428 343.297521 
L 431.866307 345.65383 
L 489.454186 347.721127 
L 547.042064 349.824385 
L 604.629943 340.327493 
L 662.217822 354.579642 
L 719.805701 354.684957 
L 777.39358 354.7359 
L 834.981458 354.7359 
L 892.569337 354.7359 
L 950.157216 354.7359 
" style="fill:none;stroke:#f0ad4e;stroke-linecap:square;"/>
   </g>
   <g id="line2d_34">
    <path clip-path="url(#p9c5a3123d2)" d="M 86.339034 175.874781 
L 143.926913 313.089489 
L 201.514792 331.392148 
L 259.10267 337.243778 
L 316.690549 340.894357 
L 374.278428 343.801907 
L 431.866307 346.219349 
L 489.454186 348.316831 
L 547.042064 350.004642 
L 604.629943 341.418894 
L 662.217822 354.617357 
L 719.805701 354.549268 
L 777.39358 354.7359 
L 834.981458 354.7359 
L 892.569337 354.7359 
L 950.157216 354.7359 
" style="fill:none;stroke:#f0ad4e;stroke-linecap:square;"/>
   </g>
   <g id="line2d_35">
    <path clip-path="url(#p9c5a3123d2)" d="M 86.339034 180.626279 
L 143.926913 285.816495 
L 201.514792 318.501069 
L 259.10267 335.256156 
L 316.690549 344.855461 
L 374.278428 349.540471 
L 431.866307 352.080333 
L 489.454186 353.344388 
L 547.042064 354.115143 
L 604.629943 353.815205 
L 662.217822 354.7359 
L 719.805701 354.7359 
L 777.39358 354.7359 
L 834.981458 354.7359 
L 892.569337 354.7359 
L 950.157216 354.7359 
" style="fill:none;stroke:#5cb85c;stroke-linecap:square;"/>
   </g>
   <g id="line2d_36">
    <path clip-path="url(#p9c5a3123d2)" d="M 86.339034 177.894021 
L 143.926913 285.618111 
L 201.514792 319.337919 
L 259.10267 336.178998 
L 316.690549 345.545194 
L 374.278428 349.958185 
L 431.866307 352.231683 
L 489.454186 353.325602 
L 547.042064 354.026094 
L 604.629943 354.008473 
L 662.217822 354.694093 
L 719.805701 354.604427 
L 777.39358 354.7359 
L 834.981458 354.7359 
L 892.569337 354.7359 
L 950.157216 354.7359 
" style="fill:none;stroke:#5cb85c;stroke-linecap:square;"/>
   </g>
   <g id="line2d_37">
    <path clip-path="url(#p9c5a3123d2)" d="M 86.339034 205.494263 
L 143.926913 300.26351 
L 201.514792 323.79478 
L 259.10267 335.044197 
L 316.690549 340.848067 
L 374.278428 344.161699 
L 431.866307 346.538917 
L 489.454186 348.414718 
L 547.042064 349.761194 
L 604.629943 333.703763 
L 662.217822 354.7359 
L 719.805701 354.661794 
L 777.39358 354.7359 
L 834.981458 354.7359 
L 892.569337 354.7359 
L 950.157216 354.7359 
" style="fill:none;stroke:#f0ad4e;stroke-linecap:square;"/>
   </g>
   <g id="line2d_38">
    <path clip-path="url(#p9c5a3123d2)" d="M 86.339034 201.283552 
L 143.926913 301.799052 
L 201.514792 324.223069 
L 259.10267 335.848129 
L 316.690549 341.031437 
L 374.278428 344.362599 
L 431.866307 346.962353 
L 489.454186 348.171326 
L 547.042064 350.052696 
L 604.629943 334.509504 
L 662.217822 354.7359 
L 719.805701 354.443184 
L 777.39358 354.7359 
L 834.981458 354.7359 
L 892.569337 354.7359 
L 950.157216 354.7359 
" style="fill:none;stroke:#f0ad4e;stroke-linecap:square;"/>
   </g>
   <g id="line2d_39">
    <path clip-path="url(#p9c5a3123d2)" d="M 86.339034 174.836303 
L 143.926913 302.834391 
L 201.514792 327.041408 
L 259.10267 336.794614 
L 316.690549 342.965227 
L 374.278428 346.323572 
L 431.866307 348.510576 
L 489.454186 350.403558 
L 547.042064 351.552194 
L 604.629943 346.779851 
L 662.217822 354.645206 
L 719.805701 354.7359 
L 777.39358 354.7359 
L 834.981458 354.7359 
L 892.569337 354.7359 
L 950.157216 354.7359 
" style="fill:none;stroke:#5cb85c;stroke-linecap:square;"/>
   </g>
   <g id="line2d_40">
    <path clip-path="url(#p9c5a3123d2)" d="M 86.339034 171.525664 
L 143.926913 304.715307 
L 201.514792 327.099017 
L 259.10267 337.635251 
L 316.690549 343.214956 
L 374.278428 345.883818 
L 431.866307 348.829405 
L 489.454186 350.297921 
L 547.042064 351.802669 
L 604.629943 347.075807 
L 662.217822 354.607084 
L 719.805701 354.7359 
L 777.39358 354.7359 
L 834.981458 354.7359 
L 892.569337 354.7359 
L 950.157216 354.7359 
" style="fill:none;stroke:#5cb85c;stroke-linecap:square;"/>
   </g>
   <g id="line2d_41">
    <path clip-path="url(#p9c5a3123d2)" d="M 86.339034 103.800727 
L 143.926913 315.227678 
L 201.514792 339.177977 
L 259.10267 347.651683 
L 316.690549 351.447444 
L 374.278428 353.122871 
L 431.866307 354.015207 
L 489.454186 354.392174 
L 547.042064 354.59753 
L 604.629943 354.572762 
L 662.217822 354.680846 
L 719.805701 354.7359 
L 777.39358 354.7359 
L 834.981458 354.7359 
L 892.569337 354.7359 
L 950.157216 354.7359 
" style="fill:none;stroke:#5cb85c;stroke-linecap:square;"/>
   </g>
   <g id="line2d_42">
    <path clip-path="url(#p9c5a3123d2)" d="M 86.339034 102.886699 
L 143.926913 315.283441 
L 201.514792 339.440643 
L 259.10267 347.724779 
L 316.690549 351.81255 
L 374.278428 353.289988 
L 431.866307 353.939308 
L 489.454186 354.415238 
L 547.042064 354.597429 
L 604.629943 354.595057 
L 662.217822 354.701768 
L 719.805701 354.7359 
L 777.39358 354.7359 
L 834.981458 354.7359 
L 892.569337 354.7359 
L 950.157216 354.7359 
" style="fill:none;stroke:#5cb85c;stroke-linecap:square;"/>
   </g>
   <g id="line2d_43">
    <path clip-path="url(#p9c5a3123d2)" d="M 86.339034 133.733007 
L 143.926913 308.390034 
L 201.514792 334.276849 
L 259.10267 342.626559 
L 316.690549 347.149604 
L 374.278428 350.170855 
L 431.866307 352.144039 
L 489.454186 353.017641 
L 547.042064 353.608038 
L 604.629943 352.877926 
L 662.217822 354.7359 
L 719.805701 354.692348 
L 777.39358 354.7359 
L 834.981458 354.7359 
L 892.569337 354.7359 
L 950.157216 354.7359 
" style="fill:none;stroke:#5cb85c;stroke-linecap:square;"/>
   </g>
   <g id="line2d_44">
    <path clip-path="url(#p9c5a3123d2)" d="M 86.339034 131.925063 
L 143.926913 309.387444 
L 201.514792 334.427098 
L 259.10267 342.820491 
L 316.690549 347.576094 
L 374.278428 350.169002 
L 431.866307 352.053711 
L 489.454186 352.981305 
L 547.042064 353.692355 
L 604.629943 352.964694 
L 662.217822 354.7359 
L 719.805701 354.689644 
L 777.39358 354.7359 
L 834.981458 354.7359 
L 892.569337 354.7359 
L 950.157216 354.7359 
" style="fill:none;stroke:#5cb85c;stroke-linecap:square;"/>
   </g>
   <g id="line2d_45">
    <path clip-path="url(#p9c5a3123d2)" d="M 86.339034 194.834709 
L 143.926913 299.373535 
L 201.514792 322.798603 
L 259.10267 334.186633 
L 316.690549 339.905758 
L 374.278428 344.238156 
L 431.866307 347.456749 
L 489.454186 349.676596 
L 547.042064 350.757507 
L 604.629943 344.84659 
L 662.217822 354.685057 
L 719.805701 354.662907 
L 777.39358 354.7359 
L 834.981458 354.7359 
L 892.569337 354.7359 
L 950.157216 354.7359 
" style="fill:none;stroke:#f0ad4e;stroke-linecap:square;"/>
   </g>
   <g id="line2d_46">
    <path clip-path="url(#p9c5a3123d2)" d="M 86.339034 189.645648 
L 143.926913 300.745327 
L 201.514792 323.515012 
L 259.10267 334.779458 
L 316.690549 340.774881 
L 374.278428 344.928915 
L 431.866307 347.590453 
L 489.454186 349.692615 
L 547.042064 351.146876 
L 604.629943 345.240646 
L 662.217822 354.702472 
L 719.805701 354.660498 
L 777.39358 354.7359 
L 834.981458 354.7359 
L 892.569337 354.7359 
L 950.157216 354.7359 
" style="fill:none;stroke:#f0ad4e;stroke-linecap:square;"/>
   </g>
   <g id="line2d_47">
    <path clip-path="url(#p9c5a3123d2)" d="M 86.339034 261.307924 
L 143.926913 318.112638 
L 201.514792 325.505693 
L 259.10267 329.407003 
L 316.690549 331.982956 
L 374.278428 334.743685 
L 431.866307 337.670878 
L 489.454186 340.533048 
L 547.042064 342.887342 
L 604.629943 306.105817 
L 662.217822 354.717246 
L 719.805701 354.448569 
L 777.39358 354.7359 
L 834.981458 354.7359 
L 892.569337 354.7359 
L 950.157216 354.7359 
" style="fill:none;stroke:#d9534f;stroke-linecap:square;"/>
   </g>
   <g id="line2d_48">
    <path clip-path="url(#p9c5a3123d2)" d="M 86.339034 254.756536 
L 143.926913 318.926537 
L 201.514792 326.579007 
L 259.10267 329.425951 
L 316.690549 332.221159 
L 374.278428 335.244838 
L 431.866307 338.13671 
L 489.454186 340.672728 
L 547.042064 343.457961 
L 604.629943 308.837126 
L 662.217822 354.720633 
L 719.805701 354.443612 
L 777.39358 354.7359 
L 834.981458 354.7359 
L 892.569337 354.7359 
L 950.157216 354.7359 
" style="fill:none;stroke:#d9534f;stroke-linecap:square;"/>
   </g>
   <g id="line2d_49">
    <path clip-path="url(#p9c5a3123d2)" d="M 86.339034 246.172805 
L 143.926913 303.796027 
L 201.514792 310.682442 
L 259.10267 319.941279 
L 316.690549 329.137397 
L 374.278428 337.035653 
L 431.866307 342.158575 
L 489.454186 346.496949 
L 547.042064 349.11519 
L 604.629943 343.559668 
L 662.217822 354.590915 
L 719.805701 354.7359 
L 777.39358 354.7359 
L 834.981458 354.7359 
L 892.569337 354.7359 
L 950.157216 354.7359 
" style="fill:none;stroke:#f0ad4e;stroke-linecap:square;"/>
   </g>
   <g id="line2d_50">
    <path clip-path="url(#p9c5a3123d2)" d="M 86.339034 241.60971 
L 143.926913 303.284937 
L 201.514792 311.109595 
L 259.10267 320.657158 
L 316.690549 329.439115 
L 374.278428 337.695901 
L 431.866307 342.703376 
L 489.454186 347.014263 
L 547.042064 349.672141 
L 604.629943 344.839728 
L 662.217822 354.7359 
L 719.805701 354.660974 
L 777.39358 354.7359 
L 834.981458 354.7359 
L 892.569337 354.7359 
L 950.157216 354.7359 
" style="fill:none;stroke:#f0ad4e;stroke-linecap:square;"/>
   </g>
   <g id="line2d_51">
    <path clip-path="url(#p9c5a3123d2)" d="M 86.339034 200.554226 
L 143.926913 299.004993 
L 201.514792 318.577624 
L 259.10267 331.194855 
L 316.690549 339.38101 
L 374.278428 344.155242 
L 431.866307 347.858518 
L 489.454186 349.673979 
L 547.042064 351.447526 
L 604.629943 346.455121 
L 662.217822 354.62387 
L 719.805701 354.495836 
L 777.39358 354.7359 
L 834.981458 354.7359 
L 892.569337 354.7359 
L 950.157216 354.7359 
" style="fill:none;stroke:#f0ad4e;stroke-linecap:square;"/>
   </g>
   <g id="line2d_52">
    <path clip-path="url(#p9c5a3123d2)" d="M 86.339034 199.405234 
L 143.926913 297.829305 
L 201.514792 319.384076 
L 259.10267 331.899511 
L 316.690549 339.418505 
L 374.278428 344.175326 
L 431.866307 347.617201 
L 489.454186 350.060488 
L 547.042064 351.460077 
L 604.629943 347.064322 
L 662.217822 354.636441 
L 719.805701 354.472313 
L 777.39358 354.7359 
L 834.981458 354.7359 
L 892.569337 354.7359 
L 950.157216 354.7359 
" style="fill:none;stroke:#f0ad4e;stroke-linecap:square;"/>
   </g>
   <g id="line2d_53">
    <path clip-path="url(#p9c5a3123d2)" d="M 86.339034 247.263729 
L 143.926913 319.881555 
L 201.514792 327.648759 
L 259.10267 330.369518 
L 316.690549 332.428201 
L 374.278428 335.651004 
L 431.866307 338.453448 
L 489.454186 340.722768 
L 547.042064 343.523379 
L 604.629943 312.228882 
L 662.217822 354.721729 
L 719.805701 354.52983 
L 777.39358 354.7359 
L 834.981458 354.7359 
L 892.569337 354.7359 
L 950.157216 354.7359 
" style="fill:none;stroke:#d9534f;stroke-linecap:square;"/>
   </g>
   <g id="line2d_54">
    <path clip-path="url(#p9c5a3123d2)" d="M 86.339034 245.926571 
L 143.926913 319.73299 
L 201.514792 327.475732 
L 259.10267 330.415028 
L 316.690549 332.732391 
L 374.278428 335.310803 
L 431.866307 338.685665 
L 489.454186 341.300346 
L 547.042064 343.399885 
L 604.629943 313.214164 
L 662.217822 354.699772 
L 719.805701 354.529453 
L 777.39358 354.7359 
L 834.981458 354.7359 
L 892.569337 354.7359 
L 950.157216 354.7359 
" style="fill:none;stroke:#d9534f;stroke-linecap:square;"/>
   </g>
   <g id="line2d_55">
    <path clip-path="url(#p9c5a3123d2)" d="M 86.339034 227.942723 
L 143.926913 308.381513 
L 201.514792 321.720713 
L 259.10267 330.799783 
L 316.690549 337.807388 
L 374.278428 342.277896 
L 431.866307 345.525677 
L 489.454186 347.264774 
L 547.042064 348.86195 
L 604.629943 317.811174 
L 662.217822 354.570299 
L 719.805701 354.497459 
L 777.39358 354.697351 
L 834.981458 354.7359 
L 892.569337 354.7359 
L 950.157216 354.7359 
" style="fill:none;stroke:#f0ad4e;stroke-linecap:square;"/>
   </g>
   <g id="line2d_56">
    <path clip-path="url(#p9c5a3123d2)" d="M 86.339034 224.077206 
L 143.926913 308.665804 
L 201.514792 321.711321 
L 259.10267 331.781361 
L 316.690549 337.812553 
L 374.278428 342.865547 
L 431.866307 345.674466 
L 489.454186 347.605671 
L 547.042064 349.022404 
L 604.629943 319.103695 
L 662.217822 354.638272 
L 719.805701 354.4645 
L 777.39358 354.7359 
L 834.981458 354.7359 
L 892.569337 354.7359 
L 950.157216 354.7359 
" style="fill:none;stroke:#f0ad4e;stroke-linecap:square;"/>
   </g>
   <g id="line2d_57">
    <path clip-path="url(#p9c5a3123d2)" d="M 86.339034 206.5298 
L 143.926913 293.315021 
L 201.514792 314.203968 
L 259.10267 329.037331 
L 316.690549 338.566002 
L 374.278428 344.399519 
L 431.866307 348.546817 
L 489.454186 350.758698 
L 547.042064 352.379979 
L 604.629943 350.564952 
L 662.217822 354.59906 
L 719.805701 354.521652 
L 777.39358 354.7359 
L 834.981458 354.7359 
L 892.569337 354.7359 
L 950.157216 354.7359 
" style="fill:none;stroke:#f0ad4e;stroke-linecap:square;"/>
   </g>
   <g id="line2d_58">
    <path clip-path="url(#p9c5a3123d2)" d="M 86.339034 203.973284 
L 143.926913 293.728707 
L 201.514792 314.656023 
L 259.10267 329.475514 
L 316.690549 338.532119 
L 374.278428 344.821487 
L 431.866307 348.707871 
L 489.454186 350.9939 
L 547.042064 352.477158 
L 604.629943 350.929614 
L 662.217822 354.610548 
L 719.805701 354.516573 
L 777.39358 354.7359 
L 834.981458 354.7359 
L 892.569337 354.7359 
L 950.157216 354.7359 
" style="fill:none;stroke:#f0ad4e;stroke-linecap:square;"/>
   </g>
   <g id="line2d_59">
    <path clip-path="url(#p9c5a3123d2)" d="M 86.339034 192.964329 
L 143.926913 299.778798 
L 201.514792 321.219324 
L 259.10267 333.588591 
L 316.690549 340.7865 
L 374.278428 345.244936 
L 431.866307 348.279521 
L 489.454186 350.228205 
L 547.042064 351.453571 
L 604.629943 344.567614 
L 662.217822 354.662766 
L 719.805701 354.648644 
L 777.39358 354.7359 
L 834.981458 354.7359 
L 892.569337 354.7359 
L 950.157216 354.7359 
" style="fill:none;stroke:#f0ad4e;stroke-linecap:square;"/>
   </g>
   <g id="line2d_60">
    <path clip-path="url(#p9c5a3123d2)" d="M 86.339034 191.320001 
L 143.926913 300.250541 
L 201.514792 321.910472 
L 259.10267 333.377887 
L 316.690549 340.568563 
L 374.278428 345.438332 
L 431.866307 348.214655 
L 489.454186 350.21525 
L 547.042064 351.574904 
L 604.629943 345.257382 
L 662.217822 354.633898 
L 719.805701 354.660914 
L 777.39358 354.7359 
L 834.981458 354.7359 
L 892.569337 354.7359 
L 950.157216 354.7359 
" style="fill:none;stroke:#f0ad4e;stroke-linecap:square;"/>
   </g>
   <g id="line2d_61">
    <path clip-path="url(#p9c5a3123d2)" d="M 86.339034 290.751769 
L 143.926913 335.667463 
L 201.514792 341.176876 
L 259.10267 344.993115 
L 316.690549 347.895866 
L 374.278428 349.806833 
L 431.866307 351.112713 
L 489.454186 352.223435 
L 547.042064 352.971267 
L 604.629943 335.347594 
L 662.217822 315.202207 
L 719.805701 225.008737 
L 777.39358 350.062188 
L 834.981458 354.674537 
L 892.569337 354.7359 
L 950.157216 354.7359 
" style="fill:none;stroke:#d9534f;stroke-linecap:square;"/>
   </g>
   <g id="line2d_62">
    <path clip-path="url(#p9c5a3123d2)" d="M 86.339034 288.513089 
L 143.926913 335.207483 
L 201.514792 341.168455 
L 259.10267 345.058283 
L 316.690549 347.989967 
L 374.278428 349.845313 
L 431.866307 351.185319 
L 489.454186 352.233194 
L 547.042064 352.956714 
L 604.629943 334.46143 
L 662.217822 314.869323 
L 719.805701 228.172385 
L 777.39358 350.795352 
L 834.981458 354.438293 
L 892.569337 354.7359 
L 950.157216 354.7359 
" style="fill:none;stroke:#d9534f;stroke-linecap:square;"/>
   </g>
   <g id="line2d_63">
    <path clip-path="url(#p9c5a3123d2)" d="M 86.339034 170.882134 
L 143.926913 300.499211 
L 201.514792 324.026894 
L 259.10267 335.35996 
L 316.690549 342.565311 
L 374.278428 347.449827 
L 431.866307 350.138205 
L 489.454186 351.883264 
L 547.042064 353.074468 
L 604.629943 352.138063 
L 662.217822 354.7359 
L 719.805701 354.669563 
L 777.39358 354.7359 
L 834.981458 354.7359 
L 892.569337 354.7359 
L 950.157216 354.7359 
" style="fill:none;stroke:#5cb85c;stroke-linecap:square;"/>
   </g>
   <g id="line2d_64">
    <path clip-path="url(#p9c5a3123d2)" d="M 86.339034 168.526615 
L 143.926913 300.220658 
L 201.514792 324.049759 
L 259.10267 335.880923 
L 316.690549 343.161332 
L 374.278428 347.555841 
L 431.866307 350.600317 
L 489.454186 352.213492 
L 547.042064 353.304338 
L 604.629943 352.498037 
L 662.217822 354.7359 
L 719.805701 354.675589 
L 777.39358 354.7359 
L 834.981458 354.7359 
L 892.569337 354.7359 
L 950.157216 354.7359 
" style="fill:none;stroke:#5cb85c;stroke-linecap:square;"/>
   </g>
   <g id="line2d_65">
    <path clip-path="url(#p9c5a3123d2)" d="M 86.339034 220.410182 
L 143.926913 299.646105 
L 201.514792 319.417291 
L 259.10267 332.083744 
L 316.690549 339.913189 
L 374.278428 344.540949 
L 431.866307 347.740983 
L 489.454186 349.409018 
L 547.042064 350.680798 
L 604.629943 324.752698 
L 662.217822 354.339739 
L 719.805701 354.488104 
L 777.39358 354.7359 
L 834.981458 354.7359 
L 892.569337 354.7359 
L 950.157216 354.7359 
" style="fill:none;stroke:#f0ad4e;stroke-linecap:square;"/>
   </g>
   <g id="line2d_66">
    <path clip-path="url(#p9c5a3123d2)" d="M 86.339034 216.980492 
L 143.926913 299.044894 
L 201.514792 320.35725 
L 259.10267 332.54888 
L 316.690549 340.14505 
L 374.278428 344.84113 
L 431.866307 348.176572 
L 489.454186 349.785845 
L 547.042064 350.95862 
L 604.629943 325.864495 
L 662.217822 354.29862 
L 719.805701 354.420954 
L 777.39358 354.7359 
L 834.981458 354.7359 
L 892.569337 354.7359 
L 950.157216 354.7359 
" style="fill:none;stroke:#f0ad4e;stroke-linecap:square;"/>
   </g>
   <g id="line2d_67">
    <path clip-path="url(#p9c5a3123d2)" d="M 86.339034 168.291009 
L 143.926913 321.738927 
L 201.514792 334.880213 
L 259.10267 339.526468 
L 316.690549 342.773195 
L 374.278428 344.738088 
L 431.866307 346.68657 
L 489.454186 348.095914 
L 547.042064 349.167327 
L 604.629943 332.114642 
L 662.217822 354.70285 
L 719.805701 354.707597 
L 777.39358 354.7359 
L 834.981458 354.7359 
L 892.569337 354.7359 
L 950.157216 354.7359 
" style="fill:none;stroke:#f0ad4e;stroke-linecap:square;"/>
   </g>
   <g id="line2d_68">
    <path clip-path="url(#p9c5a3123d2)" d="M 86.339034 165.331783 
L 143.926913 321.818908 
L 201.514792 335.341256 
L 259.10267 339.510496 
L 316.690549 343.183911 
L 374.278428 345.000148 
L 431.866307 346.735652 
L 489.454186 348.286056 
L 547.042064 349.648852 
L 604.629943 333.276548 
L 662.217822 354.63432 
L 719.805701 354.65487 
L 777.39358 354.7359 
L 834.981458 354.7359 
L 892.569337 354.7359 
L 950.157216 354.7359 
" style="fill:none;stroke:#5cb85c;stroke-linecap:square;"/>
   </g>
   <g id="line2d_69">
    <path clip-path="url(#p9c5a3123d2)" d="M 86.339034 216.284667 
L 143.926913 301.067133 
L 201.514792 317.077803 
L 259.10267 328.17301 
L 316.690549 336.060339 
L 374.278428 341.917191 
L 431.866307 345.043486 
L 489.454186 348.212703 
L 547.042064 350.351186 
L 604.629943 343.818097 
L 662.217822 354.719764 
L 719.805701 354.697421 
L 777.39358 354.7359 
L 834.981458 354.7359 
L 892.569337 354.7359 
L 950.157216 354.7359 
" style="fill:none;stroke:#f0ad4e;stroke-linecap:square;"/>
   </g>
   <g id="line2d_70">
    <path clip-path="url(#p9c5a3123d2)" d="M 86.339034 213.957303 
L 143.926913 301.971917 
L 201.514792 317.234935 
L 259.10267 328.315027 
L 316.690549 335.878993 
L 374.278428 342.002319 
L 431.866307 345.720457 
L 489.454186 348.236929 
L 547.042064 350.436101 
L 604.629943 344.271089 
L 662.217822 354.694682 
L 719.805701 354.703049 
L 777.39358 354.7359 
L 834.981458 354.7359 
L 892.569337 354.7359 
L 950.157216 354.7359 
" style="fill:none;stroke:#f0ad4e;stroke-linecap:square;"/>
   </g>
   <g id="line2d_71">
    <path clip-path="url(#p9c5a3123d2)" d="M 86.339034 259.169308 
L 143.926913 311.301259 
L 201.514792 318.349278 
L 259.10267 324.302982 
L 316.690549 330.577037 
L 374.278428 334.936307 
L 431.866307 339.51736 
L 489.454186 343.12136 
L 547.042064 345.419713 
L 604.629943 321.564523 
L 662.217822 354.659853 
L 719.805701 354.503821 
L 777.39358 354.7359 
L 834.981458 354.7359 
L 892.569337 354.7359 
L 950.157216 354.7359 
" style="fill:none;stroke:#d9534f;stroke-linecap:square;"/>
   </g>
   <g id="line2d_72">
    <path clip-path="url(#p9c5a3123d2)" d="M 86.339034 249.754901 
L 143.926913 311.745699 
L 201.514792 319.50049 
L 259.10267 326.27303 
L 316.690549 331.211128 
L 374.278428 335.839581 
L 431.866307 339.999331 
L 489.454186 343.510122 
L 547.042064 346.138113 
L 604.629943 324.269894 
L 662.217822 354.6915 
L 719.805701 354.48901 
L 777.39358 354.7359 
L 834.981458 354.7359 
L 892.569337 354.7359 
L 950.157216 354.7359 
" style="fill:none;stroke:#f0ad4e;stroke-linecap:square;"/>
   </g>
   <g id="line2d_73">
    <path clip-path="url(#p9c5a3123d2)" d="M 86.339034 254.325515 
L 143.926913 306.098124 
L 201.514792 314.090863 
L 259.10267 320.754672 
L 316.690549 328.286071 
L 374.278428 334.558172 
L 431.866307 340.303421 
L 489.454186 344.28504 
L 547.042064 347.323324 
L 604.629943 338.076051 
L 662.217822 354.696869 
L 719.805701 354.624677 
L 777.39358 354.7359 
L 834.981458 354.7359 
L 892.569337 354.7359 
L 950.157216 354.7359 
" style="fill:none;stroke:#f0ad4e;stroke-linecap:square;"/>
   </g>
   <g id="line2d_74">
    <path clip-path="url(#p9c5a3123d2)" d="M 86.339034 251.443446 
L 143.926913 305.924212 
L 201.514792 314.167855 
L 259.10267 321.139 
L 316.690549 328.196347 
L 374.278428 334.821467 
L 431.866307 340.68854 
L 489.454186 344.512111 
L 547.042064 347.687278 
L 604.629943 339.494574 
L 662.217822 354.699427 
L 719.805701 354.648541 
L 777.39358 354.7359 
L 834.981458 354.7359 
L 892.569337 354.7359 
L 950.157216 354.7359 
" style="fill:none;stroke:#f0ad4e;stroke-linecap:square;"/>
   </g>
   <g id="line2d_75">
    <path clip-path="url(#p9c5a3123d2)" d="M 86.339034 183.775896 
L 143.926913 287.067574 
L 201.514792 316.282127 
L 259.10267 334.488386 
L 316.690549 343.961297 
L 374.278428 349.10843 
L 431.866307 352.02043 
L 489.454186 353.34686 
L 547.042064 354.061714 
L 604.629943 353.863272 
L 662.217822 354.710913 
L 719.805701 354.7359 
L 777.39358 354.7359 
L 834.981458 354.7359 
L 892.569337 354.7359 
L 950.157216 354.7359 
" style="fill:none;stroke:#5cb85c;stroke-linecap:square;"/>
   </g>
   <g id="line2d_76">
    <path clip-path="url(#p9c5a3123d2)" d="M 86.339034 183.759424 
L 143.926913 286.111465 
L 201.514792 316.533841 
L 259.10267 334.896248 
L 316.690549 344.234179 
L 374.278428 349.256723 
L 431.866307 352.033441 
L 489.454186 353.366013 
L 547.042064 353.999304 
L 604.629943 353.760362 
L 662.217822 354.7359 
L 719.805701 354.7359 
L 777.39358 354.7359 
L 834.981458 354.7359 
L 892.569337 354.7359 
L 950.157216 354.7359 
" style="fill:none;stroke:#5cb85c;stroke-linecap:square;"/>
   </g>
   <g id="line2d_77">
    <path clip-path="url(#p9c5a3123d2)" d="M 86.339034 179.47184 
L 143.926913 315.745154 
L 201.514792 332.020909 
L 259.10267 337.994912 
L 316.690549 341.227086 
L 374.278428 343.935229 
L 431.866307 345.900664 
L 489.454186 347.626102 
L 547.042064 349.308724 
L 604.629943 334.72038 
L 662.217822 354.7359 
L 719.805701 354.7359 
L 777.39358 354.7359 
L 834.981458 354.7359 
L 892.569337 354.7359 
L 950.157216 354.7359 
" style="fill:none;stroke:#f0ad4e;stroke-linecap:square;"/>
   </g>
   <g id="line2d_78">
    <path clip-path="url(#p9c5a3123d2)" d="M 86.339034 177.628771 
L 143.926913 315.942994 
L 201.514792 332.415682 
L 259.10267 338.199376 
L 316.690549 341.509251 
L 374.278428 344.554124 
L 431.866307 345.825977 
L 489.454186 347.556191 
L 547.042064 349.034393 
L 604.629943 335.28424 
L 662.217822 354.7359 
L 719.805701 354.7359 
L 777.39358 354.7359 
L 834.981458 354.7359 
L 892.569337 354.7359 
L 950.157216 354.7359 
" style="fill:none;stroke:#f0ad4e;stroke-linecap:square;"/>
   </g>
   <g id="line2d_79">
    <path clip-path="url(#p9c5a3123d2)" d="M 86.339034 204.098949 
L 143.926913 307.818106 
L 201.514792 319.839756 
L 259.10267 330.296135 
L 316.690549 338.003539 
L 374.278428 343.365951 
L 431.866307 346.665427 
L 489.454186 348.97536 
L 547.042064 350.497841 
L 604.629943 338.511785 
L 662.217822 354.680835 
L 719.805701 354.669117 
L 777.39358 354.7359 
L 834.981458 354.7359 
L 892.569337 354.7359 
L 950.157216 354.7359 
" style="fill:none;stroke:#f0ad4e;stroke-linecap:square;"/>
   </g>
   <g id="line2d_80">
    <path clip-path="url(#p9c5a3123d2)" d="M 86.339034 201.995504 
L 143.926913 306.661279 
L 201.514792 320.125857 
L 259.10267 330.975983 
L 316.690549 338.55132 
L 374.278428 344.011045 
L 431.866307 347.019957 
L 489.454186 349.048814 
L 547.042064 350.518336 
L 604.629943 339.17145 
L 662.217822 354.676104 
L 719.805701 354.667151 
L 777.39358 354.7359 
L 834.981458 354.7359 
L 892.569337 354.7359 
L 950.157216 354.7359 
" style="fill:none;stroke:#f0ad4e;stroke-linecap:square;"/>
   </g>
   <g id="line2d_81">
    <path clip-path="url(#p9c5a3123d2)" d="M 86.339034 256.019024 
L 143.926913 315.425583 
L 201.514792 333.346998 
L 259.10267 343.179326 
L 316.690549 346.942557 
L 374.278428 348.817773 
L 431.866307 349.121679 
L 489.454186 349.800137 
L 547.042064 349.374632 
L 604.629943 245.203069 
L 662.217822 345.898796 
L 719.805701 354.293225 
L 777.39358 354.7359 
L 834.981458 354.7359 
L 892.569337 354.7359 
L 950.157216 354.7359 
" style="fill:none;stroke:#d9534f;stroke-linecap:square;"/>
   </g>
   <g id="line2d_82">
    <path clip-path="url(#p9c5a3123d2)" d="M 86.339034 252.123208 
L 143.926913 315.781199 
L 201.514792 333.934439 
L 259.10267 342.994552 
L 316.690549 347.295372 
L 374.278428 349.136707 
L 431.866307 349.501737 
L 489.454186 349.770454 
L 547.042064 349.51008 
L 604.629943 246.370382 
L 662.217822 346.627667 
L 719.805701 354.377003 
L 777.39358 354.7359 
L 834.981458 354.7359 
L 892.569337 354.7359 
L 950.157216 354.7359 
" style="fill:none;stroke:#d9534f;stroke-linecap:square;"/>
   </g>
   <g id="line2d_83">
    <path clip-path="url(#p9c5a3123d2)" d="M 86.339034 281.204766 
L 143.926913 342.195109 
L 201.514792 348.537575 
L 259.10267 349.640022 
L 316.690549 349.794418 
L 374.278428 349.700143 
L 431.866307 349.632561 
L 489.454186 349.602923 
L 547.042064 349.448075 
L 604.629943 201.421703 
L 662.217822 316.84763 
L 719.805701 349.397876 
L 777.39358 354.7359 
L 834.981458 354.7359 
L 892.569337 354.7359 
L 950.157216 354.7359 
" style="fill:none;stroke:#d9534f;stroke-linecap:square;"/>
   </g>
   <g id="line2d_84">
    <path clip-path="url(#p9c5a3123d2)" d="M 86.339034 278.714876 
L 143.926913 342.378424 
L 201.514792 348.478045 
L 259.10267 349.551735 
L 316.690549 349.516839 
L 374.278428 349.570209 
L 431.866307 349.484379 
L 489.454186 349.676578 
L 547.042064 349.681645 
L 604.629943 201.853167 
L 662.217822 318.442115 
L 719.805701 350.074787 
L 777.39358 354.7359 
L 834.981458 354.7359 
L 892.569337 354.7359 
L 950.157216 354.7359 
" style="fill:none;stroke:#d9534f;stroke-linecap:square;"/>
   </g>
   <g id="line2d_85">
    <path clip-path="url(#p9c5a3123d2)" d="M 86.339034 241.567152 
L 143.926913 296.237641 
L 201.514792 314.44974 
L 259.10267 327.211777 
L 316.690549 335.082286 
L 374.278428 340.853944 
L 431.866307 344.702596 
L 489.454186 347.369559 
L 547.042064 349.408338 
L 604.629943 331.502471 
L 662.217822 354.413676 
L 719.805701 354.623619 
L 777.39358 354.7359 
L 834.981458 354.7359 
L 892.569337 354.7359 
L 950.157216 354.7359 
" style="fill:none;stroke:#f0ad4e;stroke-linecap:square;"/>
   </g>
   <g id="line2d_86">
    <path clip-path="url(#p9c5a3123d2)" d="M 86.339034 233.743876 
L 143.926913 297.762991 
L 201.514792 315.229607 
L 259.10267 328.207427 
L 316.690549 336.708326 
L 374.278428 341.602269 
L 431.866307 345.299151 
L 489.454186 347.750061 
L 547.042064 349.396013 
L 604.629943 332.66281 
L 662.217822 354.503374 
L 719.805701 354.556896 
L 777.39358 354.7359 
L 834.981458 354.7359 
L 892.569337 354.7359 
L 950.157216 354.7359 
" style="fill:none;stroke:#f0ad4e;stroke-linecap:square;"/>
   </g>
   <g id="line2d_87">
    <path clip-path="url(#p9c5a3123d2)" d="M 86.339034 243.520535 
L 143.926913 314.444998 
L 201.514792 326.380219 
L 259.10267 331.871503 
L 316.690549 335.370652 
L 374.278428 338.117319 
L 431.866307 340.927424 
L 489.454186 343.541644 
L 547.042064 345.293085 
L 604.629943 308.621906 
L 662.217822 354.597615 
L 719.805701 354.7359 
L 777.39358 354.7359 
L 834.981458 354.7359 
L 892.569337 354.7359 
L 950.157216 354.7359 
" style="fill:none;stroke:#f0ad4e;stroke-linecap:square;"/>
   </g>
   <g id="line2d_88">
    <path clip-path="url(#p9c5a3123d2)" d="M 86.339034 238.665697 
L 143.926913 315.299162 
L 201.514792 326.652369 
L 259.10267 332.204313 
L 316.690549 336.035982 
L 374.278428 338.919491 
L 431.866307 341.177214 
L 489.454186 343.320698 
L 547.042064 345.394584 
L 604.629943 310.427644 
L 662.217822 354.589746 
L 719.805701 354.7359 
L 777.39358 354.7359 
L 834.981458 354.7359 
L 892.569337 354.7359 
L 950.157216 354.7359 
" style="fill:none;stroke:#f0ad4e;stroke-linecap:square;"/>
   </g>
   <g id="line2d_89">
    <path clip-path="url(#p9c5a3123d2)" d="M 86.339034 238.380345 
L 143.926913 312.967356 
L 201.514792 321.610277 
L 259.10267 326.076575 
L 316.690549 330.9765 
L 374.278428 336.098597 
L 431.866307 339.937497 
L 489.454186 343.520663 
L 547.042064 346.389947 
L 604.629943 331.993243 
L 662.217822 354.7359 
L 719.805701 354.7359 
L 777.39358 354.7359 
L 834.981458 354.7359 
L 892.569337 354.7359 
L 950.157216 354.7359 
" style="fill:none;stroke:#f0ad4e;stroke-linecap:square;"/>
   </g>
   <g id="line2d_90">
    <path clip-path="url(#p9c5a3123d2)" d="M 86.339034 232.876767 
L 143.926913 313.160032 
L 201.514792 321.712678 
L 259.10267 326.460327 
L 316.690549 331.370051 
L 374.278428 336.521985 
L 431.866307 340.301258 
L 489.454186 343.891481 
L 547.042064 346.980086 
L 604.629943 334.676336 
L 662.217822 354.7359 
L 719.805701 354.7359 
L 777.39358 354.7359 
L 834.981458 354.7359 
L 892.569337 354.7359 
L 950.157216 354.7359 
" style="fill:none;stroke:#f0ad4e;stroke-linecap:square;"/>
   </g>
   <g id="line2d_91">
    <path clip-path="url(#p9c5a3123d2)" d="M 86.339034 243.49913 
L 143.926913 312.788751 
L 201.514792 325.835773 
L 259.10267 332.240385 
L 316.690549 336.966069 
L 374.278428 339.887918 
L 431.866307 342.425607 
L 489.454186 345.052095 
L 547.042064 346.60354 
L 604.629943 303.344315 
L 662.217822 354.070904 
L 719.805701 354.708313 
L 777.39358 354.7359 
L 834.981458 354.7359 
L 892.569337 354.7359 
L 950.157216 354.7359 
" style="fill:none;stroke:#f0ad4e;stroke-linecap:square;"/>
   </g>
   <g id="line2d_92">
    <path clip-path="url(#p9c5a3123d2)" d="M 86.339034 241.880514 
L 143.926913 312.92647 
L 201.514792 326.355275 
L 259.10267 331.823856 
L 316.690549 336.562023 
L 374.278428 340.260928 
L 431.866307 343.297756 
L 489.454186 344.900884 
L 547.042064 346.429731 
L 604.629943 304.204486 
L 662.217822 354.156501 
L 719.805701 354.624377 
L 777.39358 354.7359 
L 834.981458 354.7359 
L 892.569337 354.7359 
L 950.157216 354.7359 
" style="fill:none;stroke:#f0ad4e;stroke-linecap:square;"/>
   </g>
   <g id="line2d_93">
    <path clip-path="url(#p9c5a3123d2)" d="M 86.339034 257.440179 
L 143.926913 331.350503 
L 201.514792 338.511879 
L 259.10267 342.149568 
L 316.690549 344.37233 
L 374.278428 345.309386 
L 431.866307 346.738919 
L 489.454186 347.633179 
L 547.042064 348.074194 
L 604.629943 237.832769 
L 662.217822 343.919664 
L 719.805701 354.090231 
L 777.39358 354.7359 
L 834.981458 354.7359 
L 892.569337 354.7359 
L 950.157216 354.7359 
" style="fill:none;stroke:#d9534f;stroke-linecap:square;"/>
   </g>
   <g id="line2d_94">
    <path clip-path="url(#p9c5a3123d2)" d="M 86.339034 255.716265 
L 143.926913 330.313252 
L 201.514792 338.453469 
L 259.10267 342.162451 
L 316.690549 343.96655 
L 374.278428 345.832784 
L 431.866307 347.108407 
L 489.454186 347.517836 
L 547.042064 348.239613 
L 604.629943 239.296869 
L 662.217822 344.733967 
L 719.805701 354.081338 
L 777.39358 354.7359 
L 834.981458 354.7359 
L 892.569337 354.7359 
L 950.157216 354.7359 
" style="fill:none;stroke:#d9534f;stroke-linecap:square;"/>
   </g>
   <g id="line2d_95">
    <path clip-path="url(#p9c5a3123d2)" d="M 86.339034 163.263215 
L 143.926913 294.58808 
L 201.514792 324.019452 
L 259.10267 338.565789 
L 316.690549 345.570194 
L 374.278428 349.672371 
L 431.866307 351.66688 
L 489.454186 353.20836 
L 547.042064 353.872775 
L 604.629943 353.573806 
L 662.217822 354.721542 
L 719.805701 354.700337 
L 777.39358 354.7359 
L 834.981458 354.7359 
L 892.569337 354.7359 
L 950.157216 354.7359 
" style="fill:none;stroke:#5cb85c;stroke-linecap:square;"/>
   </g>
   <g id="line2d_96">
    <path clip-path="url(#p9c5a3123d2)" d="M 86.339034 161.741741 
L 143.926913 294.64312 
L 201.514792 324.32355 
L 259.10267 338.497814 
L 316.690549 345.788783 
L 374.278428 349.668946 
L 431.866307 352.101484 
L 489.454186 353.421305 
L 547.042064 354.036036 
L 604.629943 353.793658 
L 662.217822 354.670462 
L 719.805701 354.7359 
L 777.39358 354.7359 
L 834.981458 354.7359 
L 892.569337 354.7359 
L 950.157216 354.7359 
" style="fill:none;stroke:#5cb85c;stroke-linecap:square;"/>
   </g>
   <g id="line2d_97">
    <path clip-path="url(#p9c5a3123d2)" d="M 86.339034 191.281206 
L 143.926913 295.238935 
L 201.514792 320.242615 
L 259.10267 333.69831 
L 316.690549 341.239578 
L 374.278428 345.351178 
L 431.866307 348.615459 
L 489.454186 350.992552 
L 547.042064 352.208174 
L 604.629943 349.27691 
L 662.217822 354.700523 
L 719.805701 354.577358 
L 777.39358 354.7359 
L 834.981458 354.7359 
L 892.569337 354.7359 
L 950.157216 354.7359 
" style="fill:none;stroke:#f0ad4e;stroke-linecap:square;"/>
   </g>
   <g id="line2d_98">
    <path clip-path="url(#p9c5a3123d2)" d="M 86.339034 189.320395 
L 143.926913 295.513999 
L 201.514792 321.317705 
L 259.10267 333.655952 
L 316.690549 340.944151 
L 374.278428 345.827403 
L 431.866307 349.066421 
L 489.454186 350.810092 
L 547.042064 352.313499 
L 604.629943 349.533857 
L 662.217822 354.69601 
L 719.805701 354.423318 
L 777.39358 354.7359 
L 834.981458 354.7359 
L 892.569337 354.7359 
L 950.157216 354.7359 
" style="fill:none;stroke:#f0ad4e;stroke-linecap:square;"/>
   </g>
   <g id="line2d_99">
    <path clip-path="url(#p9c5a3123d2)" d="M 86.339034 151.014369 
L 143.926913 321.797753 
L 201.514792 329.04945 
L 259.10267 336.389493 
L 316.690549 342.10349 
L 374.278428 345.993698 
L 431.866307 348.40534 
L 489.454186 351.041877 
L 547.042064 352.281193 
L 604.629943 349.874336 
L 662.217822 354.7359 
L 719.805701 354.7359 
L 777.39358 354.7359 
L 834.981458 354.7359 
L 892.569337 354.7359 
L 950.157216 354.7359 
" style="fill:none;stroke:#5cb85c;stroke-linecap:square;"/>
   </g>
   <g id="line2d_100">
    <path clip-path="url(#p9c5a3123d2)" d="M 86.339034 149.185287 
L 143.926913 321.231287 
L 201.514792 329.999067 
L 259.10267 336.347443 
L 316.690549 341.985607 
L 374.278428 346.529479 
L 431.866307 349.106026 
L 489.454186 351.172079 
L 547.042064 352.373664 
L 604.629943 350.543594 
L 662.217822 354.605869 
L 719.805701 354.343398 
L 777.39358 354.7359 
L 834.981458 354.7359 
L 892.569337 354.7359 
L 950.157216 354.7359 
" style="fill:none;stroke:#5cb85c;stroke-linecap:square;"/>
   </g>
   <g id="line2d_101">
    <path clip-path="url(#p9c5a3123d2)" d="M 86.339034 155.225025 
L 143.926913 334.968485 
L 201.514792 340.226366 
L 259.10267 343.062395 
L 316.690549 345.096969 
L 374.278428 346.97547 
L 431.866307 348.131734 
L 489.454186 348.631821 
L 547.042064 349.389453 
L 604.629943 316.644786 
L 662.217822 354.393792 
L 719.805701 354.676504 
L 777.39358 354.7359 
L 834.981458 354.7359 
L 892.569337 354.7359 
L 950.157216 354.7359 
" style="fill:none;stroke:#5cb85c;stroke-linecap:square;"/>
   </g>
   <g id="line2d_102">
    <path clip-path="url(#p9c5a3123d2)" d="M 86.339034 154.665748 
L 143.926913 334.540941 
L 201.514792 340.400118 
L 259.10267 343.035246 
L 316.690549 345.008044 
L 374.278428 346.642256 
L 431.866307 348.167336 
L 489.454186 348.974851 
L 547.042064 349.605402 
L 604.629943 317.436292 
L 662.217822 354.410866 
L 719.805701 354.535701 
L 777.39358 354.7359 
L 834.981458 354.7359 
L 892.569337 354.7359 
L 950.157216 354.7359 
" style="fill:none;stroke:#5cb85c;stroke-linecap:square;"/>
   </g>
   <g id="line2d_103">
    <path clip-path="url(#p9c5a3123d2)" d="M 86.339034 228.106272 
L 143.926913 315.299199 
L 201.514792 332.638907 
L 259.10267 340.357433 
L 316.690549 343.812401 
L 374.278428 346.008431 
L 431.866307 347.182187 
L 489.454186 348.147983 
L 547.042064 348.768733 
L 604.629943 280.456371 
L 662.217822 351.952831 
L 719.805701 354.692051 
L 777.39358 354.7359 
L 834.981458 354.7359 
L 892.569337 354.7359 
L 950.157216 354.7359 
" style="fill:none;stroke:#f0ad4e;stroke-linecap:square;"/>
   </g>
   <g id="line2d_104">
    <path clip-path="url(#p9c5a3123d2)" d="M 86.339034 225.218831 
L 143.926913 315.137874 
L 201.514792 333.32282 
L 259.10267 340.505026 
L 316.690549 344.498755 
L 374.278428 346.136488 
L 431.866307 347.120744 
L 489.454186 347.980782 
L 547.042064 348.817991 
L 604.629943 281.875917 
L 662.217822 352.115257 
L 719.805701 354.692315 
L 777.39358 354.7359 
L 834.981458 354.7359 
L 892.569337 354.7359 
L 950.157216 354.7359 
" style="fill:none;stroke:#f0ad4e;stroke-linecap:square;"/>
   </g>
   <g id="line2d_105">
    <path clip-path="url(#p9c5a3123d2)" d="M 86.339034 226.943052 
L 143.926913 291.139084 
L 201.514792 311.643801 
L 259.10267 325.901956 
L 316.690549 336.041615 
L 374.278428 342.016864 
L 431.866307 346.618503 
L 489.454186 349.228661 
L 547.042064 351.102643 
L 604.629943 347.400201 
L 662.217822 354.675954 
L 719.805701 354.710466 
L 777.39358 354.7359 
L 834.981458 354.7359 
L 892.569337 354.7359 
L 950.157216 354.7359 
" style="fill:none;stroke:#f0ad4e;stroke-linecap:square;"/>
   </g>
   <g id="line2d_106">
    <path clip-path="url(#p9c5a3123d2)" d="M 86.339034 218.819908 
L 143.926913 293.711829 
L 201.514792 313.687577 
L 259.10267 327.29717 
L 316.690549 336.633637 
L 374.278428 342.797881 
L 431.866307 347.037926 
L 489.454186 349.672821 
L 547.042064 351.12896 
L 604.629943 347.246359 
L 662.217822 354.652831 
L 719.805701 354.7359 
L 777.39358 354.7359 
L 834.981458 354.7359 
L 892.569337 354.7359 
L 950.157216 354.7359 
" style="fill:none;stroke:#f0ad4e;stroke-linecap:square;"/>
   </g>
   <g id="line2d_107">
    <path clip-path="url(#p9c5a3123d2)" d="M 86.339034 209.890796 
L 143.926913 285.833918 
L 201.514792 310.771975 
L 259.10267 328.846383 
L 316.690549 339.300399 
L 374.278428 345.953033 
L 431.866307 349.755271 
L 489.454186 351.989391 
L 547.042064 352.965985 
L 604.629943 352.714494 
L 662.217822 354.665255 
L 719.805701 354.7359 
L 777.39358 354.7359 
L 834.981458 354.7359 
L 892.569337 354.7359 
L 950.157216 354.7359 
" style="fill:none;stroke:#f0ad4e;stroke-linecap:square;"/>
   </g>
   <g id="line2d_108">
    <path clip-path="url(#p9c5a3123d2)" d="M 86.339034 207.263163 
L 143.926913 285.227264 
L 201.514792 312.229723 
L 259.10267 328.571115 
L 316.690549 340.183885 
L 374.278428 346.248819 
L 431.866307 350.095665 
L 489.454186 352.188435 
L 547.042064 353.387974 
L 604.629943 352.578673 
L 662.217822 354.712184 
L 719.805701 354.7359 
L 777.39358 354.7359 
L 834.981458 354.7359 
L 892.569337 354.7359 
L 950.157216 354.7359 
" style="fill:none;stroke:#f0ad4e;stroke-linecap:square;"/>
   </g>
   <g id="line2d_109">
    <path clip-path="url(#p9c5a3123d2)" d="M 86.339034 181.053132 
L 143.926913 302.731412 
L 201.514792 328.038033 
L 259.10267 338.032344 
L 316.690549 343.094552 
L 374.278428 345.901115 
L 431.866307 347.984438 
L 489.454186 349.292037 
L 547.042064 350.628016 
L 604.629943 341.218287 
L 662.217822 354.713534 
L 719.805701 354.7359 
L 777.39358 354.7359 
L 834.981458 354.7359 
L 892.569337 354.7359 
L 950.157216 354.7359 
" style="fill:none;stroke:#f0ad4e;stroke-linecap:square;"/>
   </g>
   <g id="line2d_110">
    <path clip-path="url(#p9c5a3123d2)" d="M 86.339034 175.896495 
L 143.926913 303.970582 
L 201.514792 328.677642 
L 259.10267 338.699555 
L 316.690549 343.146695 
L 374.278428 346.115874 
L 431.866307 348.014675 
L 489.454186 349.564477 
L 547.042064 350.883138 
L 604.629943 343.035526 
L 662.217822 354.682243 
L 719.805701 354.7359 
L 777.39358 354.7359 
L 834.981458 354.7359 
L 892.569337 354.7359 
L 950.157216 354.7359 
" style="fill:none;stroke:#5cb85c;stroke-linecap:square;"/>
   </g>
   <g id="line2d_111">
    <path clip-path="url(#p9c5a3123d2)" d="M 86.339034 243.416682 
L 143.926913 315.665902 
L 201.514792 329.474677 
L 259.10267 336.991022 
L 316.690549 341.080186 
L 374.278428 344.122464 
L 431.866307 345.739946 
L 489.454186 347.139831 
L 547.042064 347.734079 
L 604.629943 278.513718 
L 662.217822 352.832552 
L 719.805701 354.71174 
L 777.39358 354.7359 
L 834.981458 354.7359 
L 892.569337 354.7359 
L 950.157216 354.7359 
" style="fill:none;stroke:#d9534f;stroke-linecap:square;"/>
   </g>
   <g id="line2d_112">
    <path clip-path="url(#p9c5a3123d2)" d="M 86.339034 242.488616 
L 143.926913 315.001667 
L 201.514792 330.086984 
L 259.10267 337.28248 
L 316.690549 341.3139 
L 374.278428 344.179273 
L 431.866307 345.77553 
L 489.454186 347.074271 
L 547.042064 347.707866 
L 604.629943 278.903759 
L 662.217822 353.01904 
L 719.805701 354.589414 
L 777.39358 354.7359 
L 834.981458 354.7359 
L 892.569337 354.7359 
L 950.157216 354.7359 
" style="fill:none;stroke:#d9534f;stroke-linecap:square;"/>
   </g>
   <g id="line2d_113">
    <path clip-path="url(#p9c5a3123d2)" d="M 86.339034 258.821311 
L 143.926913 298.373323 
L 201.514792 310.526229 
L 259.10267 321.267086 
L 316.690549 330.369793 
L 374.278428 336.950937 
L 431.866307 341.670044 
L 489.454186 345.799326 
L 547.042064 347.945596 
L 604.629943 336.306064 
L 662.217822 354.657192 
L 719.805701 354.7359 
L 777.39358 354.7359 
L 834.981458 354.7359 
L 892.569337 354.7359 
L 950.157216 354.7359 
" style="fill:none;stroke:#f0ad4e;stroke-linecap:square;"/>
   </g>
   <g id="line2d_114">
    <path clip-path="url(#p9c5a3123d2)" d="M 86.339034 256.76407 
L 143.926913 297.638756 
L 201.514792 311.060566 
L 259.10267 321.486687 
L 316.690549 330.320048 
L 374.278428 337.52014 
L 431.866307 342.294321 
L 489.454186 346.087279 
L 547.042064 347.942848 
L 604.629943 336.984435 
L 662.217822 354.643867 
L 719.805701 354.679781 
L 777.39358 354.7359 
L 834.981458 354.7359 
L 892.569337 354.7359 
L 950.157216 354.7359 
" style="fill:none;stroke:#f0ad4e;stroke-linecap:square;"/>
   </g>
   <g id="line2d_115">
    <path clip-path="url(#p9c5a3123d2)" d="M 86.339034 193.421468 
L 143.926913 308.690449 
L 201.514792 328.518688 
L 259.10267 337.590155 
L 316.690549 342.074947 
L 374.278428 345.188887 
L 431.866307 347.044475 
L 489.454186 348.114313 
L 547.042064 349.199872 
L 604.629943 328.522707 
L 662.217822 354.683474 
L 719.805701 354.61813 
L 777.39358 354.7359 
L 834.981458 354.491135 
L 892.569337 354.7359 
L 950.157216 354.7359 
" style="fill:none;stroke:#f0ad4e;stroke-linecap:square;"/>
   </g>
   <g id="line2d_116">
    <path clip-path="url(#p9c5a3123d2)" d="M 86.339034 190.252786 
L 143.926913 308.664841 
L 201.514792 329.377795 
L 259.10267 337.540432 
L 316.690549 342.342906 
L 374.278428 345.266339 
L 431.866307 347.29698 
L 489.454186 348.471805 
L 547.042064 349.328092 
L 604.629943 329.875341 
L 662.217822 354.695663 
L 719.805701 354.54049 
L 777.39358 354.7359 
L 834.981458 354.50523 
L 892.569337 354.7359 
L 950.157216 354.7359 
" style="fill:none;stroke:#f0ad4e;stroke-linecap:square;"/>
   </g>
   <g id="line2d_117">
    <path clip-path="url(#p9c5a3123d2)" d="M 86.339034 289.361028 
L 143.926913 333.944479 
L 201.514792 337.445495 
L 259.10267 339.459055 
L 316.690549 340.187604 
L 374.278428 341.597017 
L 431.866307 342.471541 
L 489.454186 343.750857 
L 547.042064 344.368315 
L 604.629943 222.300075 
L 662.217822 348.403259 
L 719.805701 354.311154 
L 777.39358 354.7359 
L 834.981458 354.558821 
L 892.569337 354.7359 
L 950.157216 354.7359 
" style="fill:none;stroke:#d9534f;stroke-linecap:square;"/>
   </g>
   <g id="line2d_118">
    <path clip-path="url(#p9c5a3123d2)" d="M 86.339034 288.876443 
L 143.926913 333.71272 
L 201.514792 337.508124 
L 259.10267 338.883586 
L 316.690549 340.461551 
L 374.278428 341.719755 
L 431.866307 342.717613 
L 489.454186 343.797113 
L 547.042064 344.204049 
L 604.629943 222.172042 
L 662.217822 349.219797 
L 719.805701 354.306419 
L 777.39358 354.7359 
L 834.981458 354.579489 
L 892.569337 354.7359 
L 950.157216 354.7359 
" style="fill:none;stroke:#d9534f;stroke-linecap:square;"/>
   </g>
   <g id="line2d_119">
    <path clip-path="url(#p9c5a3123d2)" d="M 86.339034 251.774674 
L 143.926913 322.523136 
L 201.514792 333.869623 
L 259.10267 339.966823 
L 316.690549 343.861142 
L 374.278428 346.189574 
L 431.866307 347.53055 
L 489.454186 348.693292 
L 547.042064 349.542269 
L 604.629943 271.226255 
L 662.217822 333.100842 
L 719.805701 349.570895 
L 777.39358 354.7359 
L 834.981458 354.309626 
L 892.569337 354.7359 
L 950.157216 354.7359 
" style="fill:none;stroke:#d9534f;stroke-linecap:square;"/>
   </g>
   <g id="line2d_120">
    <path clip-path="url(#p9c5a3123d2)" d="M 86.339034 250.57728 
L 143.926913 321.777362 
L 201.514792 334.206353 
L 259.10267 340.253606 
L 316.690549 344.143628 
L 374.278428 346.176496 
L 431.866307 347.651964 
L 489.454186 348.717377 
L 547.042064 349.440422 
L 604.629943 271.60889 
L 662.217822 333.383602 
L 719.805701 350.331548 
L 777.39358 354.7359 
L 834.981458 353.890171 
L 892.569337 354.7359 
L 950.157216 354.7359 
" style="fill:none;stroke:#d9534f;stroke-linecap:square;"/>
   </g>
   <g id="line2d_121">
    <path clip-path="url(#p9c5a3123d2)" d="M 86.339034 184.456816 
L 143.926913 277.417397 
L 201.514792 318.376383 
L 259.10267 336.78293 
L 316.690549 346.356958 
L 374.278428 350.292483 
L 431.866307 352.588244 
L 489.454186 353.732601 
L 547.042064 354.216554 
L 604.629943 353.868891 
L 662.217822 354.697848 
L 719.805701 354.635695 
L 777.39358 354.7359 
L 834.981458 354.7359 
L 892.569337 354.7359 
L 950.157216 354.7359 
" style="fill:none;stroke:#5cb85c;stroke-linecap:square;"/>
   </g>
   <g id="line2d_122">
    <path clip-path="url(#p9c5a3123d2)" d="M 86.339034 182.303588 
L 143.926913 278.069712 
L 201.514792 318.735526 
L 259.10267 337.66989 
L 316.690549 346.363661 
L 374.278428 350.492328 
L 431.866307 352.728032 
L 489.454186 353.702808 
L 547.042064 354.178006 
L 604.629943 353.843716 
L 662.217822 354.691534 
L 719.805701 354.643998 
L 777.39358 354.7359 
L 834.981458 354.7359 
L 892.569337 354.7359 
L 950.157216 354.7359 
" style="fill:none;stroke:#5cb85c;stroke-linecap:square;"/>
   </g>
   <g id="line2d_123">
    <path clip-path="url(#p9c5a3123d2)" d="M 86.339034 229.052103 
L 143.926913 297.137267 
L 201.514792 317.100836 
L 259.10267 329.183826 
L 316.690549 335.767727 
L 374.278428 341.195945 
L 431.866307 344.748748 
L 489.454186 346.978792 
L 547.042064 349.705368 
L 604.629943 337.371138 
L 662.217822 354.642434 
L 719.805701 354.538615 
L 777.39358 354.7359 
L 834.981458 354.7359 
L 892.569337 354.7359 
L 950.157216 354.7359 
" style="fill:none;stroke:#f0ad4e;stroke-linecap:square;"/>
   </g>
   <g id="line2d_124">
    <path clip-path="url(#p9c5a3123d2)" d="M 86.339034 225.982254 
L 143.926913 296.922593 
L 201.514792 317.520551 
L 259.10267 328.896173 
L 316.690549 336.899475 
L 374.278428 341.267297 
L 431.866307 344.935173 
L 489.454186 347.866124 
L 547.042064 349.464354 
L 604.629943 338.550476 
L 662.217822 354.669344 
L 719.805701 354.448984 
L 777.39358 354.7359 
L 834.981458 354.7359 
L 892.569337 354.7359 
L 950.157216 354.7359 
" style="fill:none;stroke:#f0ad4e;stroke-linecap:square;"/>
   </g>
   <g id="line2d_125">
    <path clip-path="url(#p9c5a3123d2)" d="M 43.148125 354.7359 
L 993.348125 354.7359 
" style="fill:none;stroke:#dedede;stroke-linecap:square;stroke-width:2;"/>
   </g>
   <g id="text_25">
    <!-- FastQC: Sequence Duplication Levels -->
    <g transform="translate(369.834375 19.3575)scale(0.16 -0.16)">
     <defs>
      <path d="M 628 4666 
L 3309 4666 
L 3309 4134 
L 1259 4134 
L 1259 2759 
L 3109 2759 
L 3109 2228 
L 1259 2228 
L 1259 0 
L 628 0 
L 628 4666 
z
" id="DejaVuSans-46" transform="scale(0.015625)"/>
      <path d="M 2834 3397 
L 2834 2853 
Q 2591 2978 2328 3040 
Q 2066 3103 1784 3103 
Q 1356 3103 1142 2972 
Q 928 2841 928 2578 
Q 928 2378 1081 2264 
Q 1234 2150 1697 2047 
L 1894 2003 
Q 2506 1872 2764 1633 
Q 3022 1394 3022 966 
Q 3022 478 2636 193 
Q 2250 -91 1575 -91 
Q 1294 -91 989 -36 
Q 684 19 347 128 
L 347 722 
Q 666 556 975 473 
Q 1284 391 1588 391 
Q 1994 391 2212 530 
Q 2431 669 2431 922 
Q 2431 1156 2273 1281 
Q 2116 1406 1581 1522 
L 1381 1569 
Q 847 1681 609 1914 
Q 372 2147 372 2553 
Q 372 3047 722 3315 
Q 1072 3584 1716 3584 
Q 2034 3584 2315 3537 
Q 2597 3491 2834 3397 
z
" id="DejaVuSans-73" transform="scale(0.015625)"/>
      <path d="M 2522 4238 
Q 1834 4238 1429 3725 
Q 1025 3213 1025 2328 
Q 1025 1447 1429 934 
Q 1834 422 2522 422 
Q 3209 422 3611 934 
Q 4013 1447 4013 2328 
Q 4013 3213 3611 3725 
Q 3209 4238 2522 4238 
z
M 3406 84 
L 4238 -825 
L 3475 -825 
L 2784 -78 
Q 2681 -84 2626 -87 
Q 2572 -91 2522 -91 
Q 1538 -91 948 567 
Q 359 1225 359 2328 
Q 359 3434 948 4092 
Q 1538 4750 2522 4750 
Q 3503 4750 4090 4092 
Q 4678 3434 4678 2328 
Q 4678 1516 4351 937 
Q 4025 359 3406 84 
z
" id="DejaVuSans-51" transform="scale(0.015625)"/>
      <path d="M 4122 4306 
L 4122 3641 
Q 3803 3938 3442 4084 
Q 3081 4231 2675 4231 
Q 1875 4231 1450 3742 
Q 1025 3253 1025 2328 
Q 1025 1406 1450 917 
Q 1875 428 2675 428 
Q 3081 428 3442 575 
Q 3803 722 4122 1019 
L 4122 359 
Q 3791 134 3420 21 
Q 3050 -91 2638 -91 
Q 1578 -91 968 557 
Q 359 1206 359 2328 
Q 359 3453 968 4101 
Q 1578 4750 2638 4750 
Q 3056 4750 3426 4639 
Q 3797 4528 4122 4306 
z
" id="DejaVuSans-43" transform="scale(0.015625)"/>
      <path d="M 750 794 
L 1409 794 
L 1409 0 
L 750 0 
L 750 794 
z
M 750 3309 
L 1409 3309 
L 1409 2516 
L 750 2516 
L 750 3309 
z
" id="DejaVuSans-3a" transform="scale(0.015625)"/>
     </defs>
     <use xlink:href="#DejaVuSans-46"/>
     <use x="48.394531" xlink:href="#DejaVuSans-61"/>
     <use x="109.673828" xlink:href="#DejaVuSans-73"/>
     <use x="161.773438" xlink:href="#DejaVuSans-74"/>
     <use x="200.982422" xlink:href="#DejaVuSans-51"/>
     <use x="279.693359" xlink:href="#DejaVuSans-43"/>
     <use x="349.517578" xlink:href="#DejaVuSans-3a"/>
     <use x="383.208984" xlink:href="#DejaVuSans-20"/>
     <use x="414.996094" xlink:href="#DejaVuSans-53"/>
     <use x="478.472656" xlink:href="#DejaVuSans-65"/>
     <use x="539.996094" xlink:href="#DejaVuSans-71"/>
     <use x="603.472656" xlink:href="#DejaVuSans-75"/>
     <use x="666.851562" xlink:href="#DejaVuSans-65"/>
     <use x="728.375" xlink:href="#DejaVuSans-6e"/>
     <use x="791.753906" xlink:href="#DejaVuSans-63"/>
     <use x="846.734375" xlink:href="#DejaVuSans-65"/>
     <use x="908.257812" xlink:href="#DejaVuSans-20"/>
     <use x="940.044922" xlink:href="#DejaVuSans-44"/>
     <use x="1017.046875" xlink:href="#DejaVuSans-75"/>
     <use x="1080.425781" xlink:href="#DejaVuSans-70"/>
     <use x="1143.902344" xlink:href="#DejaVuSans-6c"/>
     <use x="1171.685547" xlink:href="#DejaVuSans-69"/>
     <use x="1199.46875" xlink:href="#DejaVuSans-63"/>
     <use x="1254.449219" xlink:href="#DejaVuSans-61"/>
     <use x="1315.728516" xlink:href="#DejaVuSans-74"/>
     <use x="1354.9375" xlink:href="#DejaVuSans-69"/>
     <use x="1382.720703" xlink:href="#DejaVuSans-6f"/>
     <use x="1443.902344" xlink:href="#DejaVuSans-6e"/>
     <use x="1507.28125" xlink:href="#DejaVuSans-20"/>
     <use x="1539.068359" xlink:href="#DejaVuSans-4c"/>
     <use x="1593.03125" xlink:href="#DejaVuSans-65"/>
     <use x="1654.554688" xlink:href="#DejaVuSans-76"/>
     <use x="1713.734375" xlink:href="#DejaVuSans-65"/>
     <use x="1775.257812" xlink:href="#DejaVuSans-6c"/>
     <use x="1803.041016" xlink:href="#DejaVuSans-73"/>
    </g>
   </g>
  </g>
 </g>
 <defs>
  <clipPath id="p9c5a3123d2">
   <rect height="319.408" width="950.2" x="43.148125" y="35.3279"/>
  </clipPath>
 </defs>
</svg>
