<?xml version="1.0" encoding="utf-8" standalone="no"?>
<!DOCTYPE svg PUBLIC "-//W3C//DTD SVG 1.1//EN"
  "http://www.w3.org/Graphics/SVG/1.1/DTD/svg11.dtd">
<svg height="390.356525pt" version="1.1" viewBox="0 0 1000.340625 390.356525" width="1000.340625pt" xmlns="http://www.w3.org/2000/svg" xmlns:xlink="http://www.w3.org/1999/xlink">
 <metadata>
  <rdf:RDF xmlns:cc="http://creativecommons.org/ns#" xmlns:dc="http://purl.org/dc/elements/1.1/" xmlns:rdf="http://www.w3.org/1999/02/22-rdf-syntax-ns#">
   <cc:Work>
    <dc:type rdf:resource="http://purl.org/dc/dcmitype/StillImage"/>
    <dc:date>2021-09-07T06:21:24.564980</dc:date>
    <dc:format>image/svg+xml</dc:format>
    <dc:creator>
     <cc:Agent>
      <dc:title>Matplotlib v3.4.2, https://matplotlib.org/</dc:title>
     </cc:Agent>
    </dc:creator>
   </cc:Work>
  </rdf:RDF>
 </metadata>
 <defs>
  <style type="text/css">*{stroke-linecap:butt;stroke-linejoin:round;}</style>
 </defs>
 <g id="figure_1">
  <g id="axes_1">
   <g id="patch_1">
    <path d="M 40.600625 354.7359 
L 993.140625 354.7359 
L 993.140625 35.3279 
L 40.600625 35.3279 
z
" style="fill:#ffffff;"/>
   </g>
   <g id="patch_2">
    <path clip-path="url(#p6b67384a2c)" d="M 749.938923 354.7359 
L 2573.951689 354.7359 
L 2573.951689 35.3279 
L 749.938923 35.3279 
z
" style="fill:#c3e6c3;"/>
   </g>
   <g id="patch_3">
    <path clip-path="url(#p6b67384a2c)" d="M 547.270838 354.7359 
L 749.938923 354.7359 
L 749.938923 35.3279 
L 547.270838 35.3279 
z
" style="fill:#e6dcc3;"/>
   </g>
   <g id="patch_4">
    <path clip-path="url(#p6b67384a2c)" d="M 40.600625 354.7359 
L 547.270838 354.7359 
L 547.270838 35.3279 
L 40.600625 35.3279 
z
" style="fill:#e6c3c3;"/>
   </g>
   <g id="matplotlib.axis_1">
    <g id="xtick_1">
     <g id="text_1">
      <!-- 0 -->
      <g transform="translate(38.055625 367.81465)scale(0.08 -0.08)">
       <defs>
        <path d="M 2034 4250 
Q 1547 4250 1301 3770 
Q 1056 3291 1056 2328 
Q 1056 1369 1301 889 
Q 1547 409 2034 409 
Q 2525 409 2770 889 
Q 3016 1369 3016 2328 
Q 3016 3291 2770 3770 
Q 2525 4250 2034 4250 
z
M 2034 4750 
Q 2819 4750 3233 4129 
Q 3647 3509 3647 2328 
Q 3647 1150 3233 529 
Q 2819 -91 2034 -91 
Q 1250 -91 836 529 
Q 422 1150 422 2328 
Q 422 3509 836 4129 
Q 1250 4750 2034 4750 
z
" id="DejaVuSans-30" transform="scale(0.015625)"/>
       </defs>
       <use xlink:href="#DejaVuSans-30"/>
      </g>
     </g>
    </g>
    <g id="xtick_2">
     <g id="text_2">
      <!-- 5 -->
      <g transform="translate(164.723178 367.81465)scale(0.08 -0.08)">
       <defs>
        <path d="M 691 4666 
L 3169 4666 
L 3169 4134 
L 1269 4134 
L 1269 2991 
Q 1406 3038 1543 3061 
Q 1681 3084 1819 3084 
Q 2600 3084 3056 2656 
Q 3513 2228 3513 1497 
Q 3513 744 3044 326 
Q 2575 -91 1722 -91 
Q 1428 -91 1123 -41 
Q 819 9 494 109 
L 494 744 
Q 775 591 1075 516 
Q 1375 441 1709 441 
Q 2250 441 2565 725 
Q 2881 1009 2881 1497 
Q 2881 1984 2565 2268 
Q 2250 2553 1709 2553 
Q 1456 2553 1204 2497 
Q 953 2441 691 2322 
L 691 4666 
z
" id="DejaVuSans-35" transform="scale(0.015625)"/>
       </defs>
       <use xlink:href="#DejaVuSans-35"/>
      </g>
     </g>
    </g>
    <g id="xtick_3">
     <g id="text_3">
      <!-- 10 -->
      <g transform="translate(288.845731 367.81465)scale(0.08 -0.08)">
       <defs>
        <path d="M 794 531 
L 1825 531 
L 1825 4091 
L 703 3866 
L 703 4441 
L 1819 4666 
L 2450 4666 
L 2450 531 
L 3481 531 
L 3481 0 
L 794 0 
L 794 531 
z
" id="DejaVuSans-31" transform="scale(0.015625)"/>
       </defs>
       <use xlink:href="#DejaVuSans-31"/>
       <use x="63.623047" xlink:href="#DejaVuSans-30"/>
      </g>
     </g>
    </g>
    <g id="xtick_4">
     <g id="text_4">
      <!-- 15 -->
      <g transform="translate(415.513285 367.81465)scale(0.08 -0.08)">
       <use xlink:href="#DejaVuSans-31"/>
       <use x="63.623047" xlink:href="#DejaVuSans-35"/>
      </g>
     </g>
    </g>
    <g id="xtick_5">
     <g id="text_5">
      <!-- 20 -->
      <g transform="translate(542.180838 367.81465)scale(0.08 -0.08)">
       <defs>
        <path d="M 1228 531 
L 3431 531 
L 3431 0 
L 469 0 
L 469 531 
Q 828 903 1448 1529 
Q 2069 2156 2228 2338 
Q 2531 2678 2651 2914 
Q 2772 3150 2772 3378 
Q 2772 3750 2511 3984 
Q 2250 4219 1831 4219 
Q 1534 4219 1204 4116 
Q 875 4013 500 3803 
L 500 4441 
Q 881 4594 1212 4672 
Q 1544 4750 1819 4750 
Q 2544 4750 2975 4387 
Q 3406 4025 3406 3419 
Q 3406 3131 3298 2873 
Q 3191 2616 2906 2266 
Q 2828 2175 2409 1742 
Q 1991 1309 1228 531 
z
" id="DejaVuSans-32" transform="scale(0.015625)"/>
       </defs>
       <use xlink:href="#DejaVuSans-32"/>
       <use x="63.623047" xlink:href="#DejaVuSans-30"/>
      </g>
     </g>
    </g>
    <g id="xtick_6">
     <g id="text_6">
      <!-- 25 -->
      <g transform="translate(668.848391 367.81465)scale(0.08 -0.08)">
       <use xlink:href="#DejaVuSans-32"/>
       <use x="63.623047" xlink:href="#DejaVuSans-35"/>
      </g>
     </g>
    </g>
    <g id="xtick_7">
     <g id="text_7">
      <!-- 30 -->
      <g transform="translate(795.515944 367.81465)scale(0.08 -0.08)">
       <defs>
        <path d="M 2597 2516 
Q 3050 2419 3304 2112 
Q 3559 1806 3559 1356 
Q 3559 666 3084 287 
Q 2609 -91 1734 -91 
Q 1441 -91 1130 -33 
Q 819 25 488 141 
L 488 750 
Q 750 597 1062 519 
Q 1375 441 1716 441 
Q 2309 441 2620 675 
Q 2931 909 2931 1356 
Q 2931 1769 2642 2001 
Q 2353 2234 1838 2234 
L 1294 2234 
L 1294 2753 
L 1863 2753 
Q 2328 2753 2575 2939 
Q 2822 3125 2822 3475 
Q 2822 3834 2567 4026 
Q 2313 4219 1838 4219 
Q 1578 4219 1281 4162 
Q 984 4106 628 3988 
L 628 4550 
Q 988 4650 1302 4700 
Q 1616 4750 1894 4750 
Q 2613 4750 3031 4423 
Q 3450 4097 3450 3541 
Q 3450 3153 3228 2886 
Q 3006 2619 2597 2516 
z
" id="DejaVuSans-33" transform="scale(0.015625)"/>
       </defs>
       <use xlink:href="#DejaVuSans-33"/>
       <use x="63.623047" xlink:href="#DejaVuSans-30"/>
      </g>
     </g>
    </g>
    <g id="xtick_8">
     <g id="text_8">
      <!-- 35 -->
      <g transform="translate(922.183497 367.81465)scale(0.08 -0.08)">
       <use xlink:href="#DejaVuSans-33"/>
       <use x="63.623047" xlink:href="#DejaVuSans-35"/>
      </g>
     </g>
    </g>
    <g id="text_9">
     <!-- Mean Sequence Quality (Phred Score) -->
     <g transform="translate(422.078438 381.076838)scale(0.1 -0.1)">
      <defs>
       <path d="M 628 4666 
L 1569 4666 
L 2759 1491 
L 3956 4666 
L 4897 4666 
L 4897 0 
L 4281 0 
L 4281 4097 
L 3078 897 
L 2444 897 
L 1241 4097 
L 1241 0 
L 628 0 
L 628 4666 
z
" id="DejaVuSans-4d" transform="scale(0.015625)"/>
       <path d="M 3597 1894 
L 3597 1613 
L 953 1613 
Q 991 1019 1311 708 
Q 1631 397 2203 397 
Q 2534 397 2845 478 
Q 3156 559 3463 722 
L 3463 178 
Q 3153 47 2828 -22 
Q 2503 -91 2169 -91 
Q 1331 -91 842 396 
Q 353 884 353 1716 
Q 353 2575 817 3079 
Q 1281 3584 2069 3584 
Q 2775 3584 3186 3129 
Q 3597 2675 3597 1894 
z
M 3022 2063 
Q 3016 2534 2758 2815 
Q 2500 3097 2075 3097 
Q 1594 3097 1305 2825 
Q 1016 2553 972 2059 
L 3022 2063 
z
" id="DejaVuSans-65" transform="scale(0.015625)"/>
       <path d="M 2194 1759 
Q 1497 1759 1228 1600 
Q 959 1441 959 1056 
Q 959 750 1161 570 
Q 1363 391 1709 391 
Q 2188 391 2477 730 
Q 2766 1069 2766 1631 
L 2766 1759 
L 2194 1759 
z
M 3341 1997 
L 3341 0 
L 2766 0 
L 2766 531 
Q 2569 213 2275 61 
Q 1981 -91 1556 -91 
Q 1019 -91 701 211 
Q 384 513 384 1019 
Q 384 1609 779 1909 
Q 1175 2209 1959 2209 
L 2766 2209 
L 2766 2266 
Q 2766 2663 2505 2880 
Q 2244 3097 1772 3097 
Q 1472 3097 1187 3025 
Q 903 2953 641 2809 
L 641 3341 
Q 956 3463 1253 3523 
Q 1550 3584 1831 3584 
Q 2591 3584 2966 3190 
Q 3341 2797 3341 1997 
z
" id="DejaVuSans-61" transform="scale(0.015625)"/>
       <path d="M 3513 2113 
L 3513 0 
L 2938 0 
L 2938 2094 
Q 2938 2591 2744 2837 
Q 2550 3084 2163 3084 
Q 1697 3084 1428 2787 
Q 1159 2491 1159 1978 
L 1159 0 
L 581 0 
L 581 3500 
L 1159 3500 
L 1159 2956 
Q 1366 3272 1645 3428 
Q 1925 3584 2291 3584 
Q 2894 3584 3203 3211 
Q 3513 2838 3513 2113 
z
" id="DejaVuSans-6e" transform="scale(0.015625)"/>
       <path id="DejaVuSans-20" transform="scale(0.015625)"/>
       <path d="M 3425 4513 
L 3425 3897 
Q 3066 4069 2747 4153 
Q 2428 4238 2131 4238 
Q 1616 4238 1336 4038 
Q 1056 3838 1056 3469 
Q 1056 3159 1242 3001 
Q 1428 2844 1947 2747 
L 2328 2669 
Q 3034 2534 3370 2195 
Q 3706 1856 3706 1288 
Q 3706 609 3251 259 
Q 2797 -91 1919 -91 
Q 1588 -91 1214 -16 
Q 841 59 441 206 
L 441 856 
Q 825 641 1194 531 
Q 1563 422 1919 422 
Q 2459 422 2753 634 
Q 3047 847 3047 1241 
Q 3047 1584 2836 1778 
Q 2625 1972 2144 2069 
L 1759 2144 
Q 1053 2284 737 2584 
Q 422 2884 422 3419 
Q 422 4038 858 4394 
Q 1294 4750 2059 4750 
Q 2388 4750 2728 4690 
Q 3069 4631 3425 4513 
z
" id="DejaVuSans-53" transform="scale(0.015625)"/>
       <path d="M 947 1747 
Q 947 1113 1208 752 
Q 1469 391 1925 391 
Q 2381 391 2643 752 
Q 2906 1113 2906 1747 
Q 2906 2381 2643 2742 
Q 2381 3103 1925 3103 
Q 1469 3103 1208 2742 
Q 947 2381 947 1747 
z
M 2906 525 
Q 2725 213 2448 61 
Q 2172 -91 1784 -91 
Q 1150 -91 751 415 
Q 353 922 353 1747 
Q 353 2572 751 3078 
Q 1150 3584 1784 3584 
Q 2172 3584 2448 3432 
Q 2725 3281 2906 2969 
L 2906 3500 
L 3481 3500 
L 3481 -1331 
L 2906 -1331 
L 2906 525 
z
" id="DejaVuSans-71" transform="scale(0.015625)"/>
       <path d="M 544 1381 
L 544 3500 
L 1119 3500 
L 1119 1403 
Q 1119 906 1312 657 
Q 1506 409 1894 409 
Q 2359 409 2629 706 
Q 2900 1003 2900 1516 
L 2900 3500 
L 3475 3500 
L 3475 0 
L 2900 0 
L 2900 538 
Q 2691 219 2414 64 
Q 2138 -91 1772 -91 
Q 1169 -91 856 284 
Q 544 659 544 1381 
z
M 1991 3584 
L 1991 3584 
z
" id="DejaVuSans-75" transform="scale(0.015625)"/>
       <path d="M 3122 3366 
L 3122 2828 
Q 2878 2963 2633 3030 
Q 2388 3097 2138 3097 
Q 1578 3097 1268 2742 
Q 959 2388 959 1747 
Q 959 1106 1268 751 
Q 1578 397 2138 397 
Q 2388 397 2633 464 
Q 2878 531 3122 666 
L 3122 134 
Q 2881 22 2623 -34 
Q 2366 -91 2075 -91 
Q 1284 -91 818 406 
Q 353 903 353 1747 
Q 353 2603 823 3093 
Q 1294 3584 2113 3584 
Q 2378 3584 2631 3529 
Q 2884 3475 3122 3366 
z
" id="DejaVuSans-63" transform="scale(0.015625)"/>
       <path d="M 2522 4238 
Q 1834 4238 1429 3725 
Q 1025 3213 1025 2328 
Q 1025 1447 1429 934 
Q 1834 422 2522 422 
Q 3209 422 3611 934 
Q 4013 1447 4013 2328 
Q 4013 3213 3611 3725 
Q 3209 4238 2522 4238 
z
M 3406 84 
L 4238 -825 
L 3475 -825 
L 2784 -78 
Q 2681 -84 2626 -87 
Q 2572 -91 2522 -91 
Q 1538 -91 948 567 
Q 359 1225 359 2328 
Q 359 3434 948 4092 
Q 1538 4750 2522 4750 
Q 3503 4750 4090 4092 
Q 4678 3434 4678 2328 
Q 4678 1516 4351 937 
Q 4025 359 3406 84 
z
" id="DejaVuSans-51" transform="scale(0.015625)"/>
       <path d="M 603 4863 
L 1178 4863 
L 1178 0 
L 603 0 
L 603 4863 
z
" id="DejaVuSans-6c" transform="scale(0.015625)"/>
       <path d="M 603 3500 
L 1178 3500 
L 1178 0 
L 603 0 
L 603 3500 
z
M 603 4863 
L 1178 4863 
L 1178 4134 
L 603 4134 
L 603 4863 
z
" id="DejaVuSans-69" transform="scale(0.015625)"/>
       <path d="M 1172 4494 
L 1172 3500 
L 2356 3500 
L 2356 3053 
L 1172 3053 
L 1172 1153 
Q 1172 725 1289 603 
Q 1406 481 1766 481 
L 2356 481 
L 2356 0 
L 1766 0 
Q 1100 0 847 248 
Q 594 497 594 1153 
L 594 3053 
L 172 3053 
L 172 3500 
L 594 3500 
L 594 4494 
L 1172 4494 
z
" id="DejaVuSans-74" transform="scale(0.015625)"/>
       <path d="M 2059 -325 
Q 1816 -950 1584 -1140 
Q 1353 -1331 966 -1331 
L 506 -1331 
L 506 -850 
L 844 -850 
Q 1081 -850 1212 -737 
Q 1344 -625 1503 -206 
L 1606 56 
L 191 3500 
L 800 3500 
L 1894 763 
L 2988 3500 
L 3597 3500 
L 2059 -325 
z
" id="DejaVuSans-79" transform="scale(0.015625)"/>
       <path d="M 1984 4856 
Q 1566 4138 1362 3434 
Q 1159 2731 1159 2009 
Q 1159 1288 1364 580 
Q 1569 -128 1984 -844 
L 1484 -844 
Q 1016 -109 783 600 
Q 550 1309 550 2009 
Q 550 2706 781 3412 
Q 1013 4119 1484 4856 
L 1984 4856 
z
" id="DejaVuSans-28" transform="scale(0.015625)"/>
       <path d="M 1259 4147 
L 1259 2394 
L 2053 2394 
Q 2494 2394 2734 2622 
Q 2975 2850 2975 3272 
Q 2975 3691 2734 3919 
Q 2494 4147 2053 4147 
L 1259 4147 
z
M 628 4666 
L 2053 4666 
Q 2838 4666 3239 4311 
Q 3641 3956 3641 3272 
Q 3641 2581 3239 2228 
Q 2838 1875 2053 1875 
L 1259 1875 
L 1259 0 
L 628 0 
L 628 4666 
z
" id="DejaVuSans-50" transform="scale(0.015625)"/>
       <path d="M 3513 2113 
L 3513 0 
L 2938 0 
L 2938 2094 
Q 2938 2591 2744 2837 
Q 2550 3084 2163 3084 
Q 1697 3084 1428 2787 
Q 1159 2491 1159 1978 
L 1159 0 
L 581 0 
L 581 4863 
L 1159 4863 
L 1159 2956 
Q 1366 3272 1645 3428 
Q 1925 3584 2291 3584 
Q 2894 3584 3203 3211 
Q 3513 2838 3513 2113 
z
" id="DejaVuSans-68" transform="scale(0.015625)"/>
       <path d="M 2631 2963 
Q 2534 3019 2420 3045 
Q 2306 3072 2169 3072 
Q 1681 3072 1420 2755 
Q 1159 2438 1159 1844 
L 1159 0 
L 581 0 
L 581 3500 
L 1159 3500 
L 1159 2956 
Q 1341 3275 1631 3429 
Q 1922 3584 2338 3584 
Q 2397 3584 2469 3576 
Q 2541 3569 2628 3553 
L 2631 2963 
z
" id="DejaVuSans-72" transform="scale(0.015625)"/>
       <path d="M 2906 2969 
L 2906 4863 
L 3481 4863 
L 3481 0 
L 2906 0 
L 2906 525 
Q 2725 213 2448 61 
Q 2172 -91 1784 -91 
Q 1150 -91 751 415 
Q 353 922 353 1747 
Q 353 2572 751 3078 
Q 1150 3584 1784 3584 
Q 2172 3584 2448 3432 
Q 2725 3281 2906 2969 
z
M 947 1747 
Q 947 1113 1208 752 
Q 1469 391 1925 391 
Q 2381 391 2643 752 
Q 2906 1113 2906 1747 
Q 2906 2381 2643 2742 
Q 2381 3103 1925 3103 
Q 1469 3103 1208 2742 
Q 947 2381 947 1747 
z
" id="DejaVuSans-64" transform="scale(0.015625)"/>
       <path d="M 1959 3097 
Q 1497 3097 1228 2736 
Q 959 2375 959 1747 
Q 959 1119 1226 758 
Q 1494 397 1959 397 
Q 2419 397 2687 759 
Q 2956 1122 2956 1747 
Q 2956 2369 2687 2733 
Q 2419 3097 1959 3097 
z
M 1959 3584 
Q 2709 3584 3137 3096 
Q 3566 2609 3566 1747 
Q 3566 888 3137 398 
Q 2709 -91 1959 -91 
Q 1206 -91 779 398 
Q 353 888 353 1747 
Q 353 2609 779 3096 
Q 1206 3584 1959 3584 
z
" id="DejaVuSans-6f" transform="scale(0.015625)"/>
       <path d="M 513 4856 
L 1013 4856 
Q 1481 4119 1714 3412 
Q 1947 2706 1947 2009 
Q 1947 1309 1714 600 
Q 1481 -109 1013 -844 
L 513 -844 
Q 928 -128 1133 580 
Q 1338 1288 1338 2009 
Q 1338 2731 1133 3434 
Q 928 4138 513 4856 
z
" id="DejaVuSans-29" transform="scale(0.015625)"/>
      </defs>
      <use xlink:href="#DejaVuSans-4d"/>
      <use x="86.279297" xlink:href="#DejaVuSans-65"/>
      <use x="147.802734" xlink:href="#DejaVuSans-61"/>
      <use x="209.082031" xlink:href="#DejaVuSans-6e"/>
      <use x="272.460938" xlink:href="#DejaVuSans-20"/>
      <use x="304.248047" xlink:href="#DejaVuSans-53"/>
      <use x="367.724609" xlink:href="#DejaVuSans-65"/>
      <use x="429.248047" xlink:href="#DejaVuSans-71"/>
      <use x="492.724609" xlink:href="#DejaVuSans-75"/>
      <use x="556.103516" xlink:href="#DejaVuSans-65"/>
      <use x="617.626953" xlink:href="#DejaVuSans-6e"/>
      <use x="681.005859" xlink:href="#DejaVuSans-63"/>
      <use x="735.986328" xlink:href="#DejaVuSans-65"/>
      <use x="797.509766" xlink:href="#DejaVuSans-20"/>
      <use x="829.296875" xlink:href="#DejaVuSans-51"/>
      <use x="908.007812" xlink:href="#DejaVuSans-75"/>
      <use x="971.386719" xlink:href="#DejaVuSans-61"/>
      <use x="1032.666016" xlink:href="#DejaVuSans-6c"/>
      <use x="1060.449219" xlink:href="#DejaVuSans-69"/>
      <use x="1088.232422" xlink:href="#DejaVuSans-74"/>
      <use x="1127.441406" xlink:href="#DejaVuSans-79"/>
      <use x="1186.621094" xlink:href="#DejaVuSans-20"/>
      <use x="1218.408203" xlink:href="#DejaVuSans-28"/>
      <use x="1257.421875" xlink:href="#DejaVuSans-50"/>
      <use x="1317.724609" xlink:href="#DejaVuSans-68"/>
      <use x="1381.103516" xlink:href="#DejaVuSans-72"/>
      <use x="1419.966797" xlink:href="#DejaVuSans-65"/>
      <use x="1481.490234" xlink:href="#DejaVuSans-64"/>
      <use x="1544.966797" xlink:href="#DejaVuSans-20"/>
      <use x="1576.753906" xlink:href="#DejaVuSans-53"/>
      <use x="1640.230469" xlink:href="#DejaVuSans-63"/>
      <use x="1695.210938" xlink:href="#DejaVuSans-6f"/>
      <use x="1756.392578" xlink:href="#DejaVuSans-72"/>
      <use x="1795.255859" xlink:href="#DejaVuSans-65"/>
      <use x="1856.779297" xlink:href="#DejaVuSans-29"/>
     </g>
    </g>
   </g>
   <g id="matplotlib.axis_2">
    <g id="ytick_1">
     <g id="line2d_1">
      <path clip-path="url(#p6b67384a2c)" d="M 40.600625 354.7359 
L 993.140625 354.7359 
" style="fill:none;stroke:#dedede;stroke-linecap:square;"/>
     </g>
     <g id="text_10">
      <!-- 0.0 -->
      <g transform="translate(20.878125 357.775275)scale(0.08 -0.08)">
       <defs>
        <path d="M 684 794 
L 1344 794 
L 1344 0 
L 684 0 
L 684 794 
z
" id="DejaVuSans-2e" transform="scale(0.015625)"/>
       </defs>
       <use xlink:href="#DejaVuSans-30"/>
       <use x="63.623047" xlink:href="#DejaVuSans-2e"/>
       <use x="95.410156" xlink:href="#DejaVuSans-30"/>
      </g>
     </g>
    </g>
    <g id="ytick_2">
     <g id="line2d_2">
      <path clip-path="url(#p6b67384a2c)" d="M 40.600625 317.855974 
L 993.140625 317.855974 
" style="fill:none;stroke:#dedede;stroke-linecap:square;"/>
     </g>
     <g id="text_11">
      <!-- 0.5 -->
      <g transform="translate(20.878125 320.895349)scale(0.08 -0.08)">
       <use xlink:href="#DejaVuSans-30"/>
       <use x="63.623047" xlink:href="#DejaVuSans-2e"/>
       <use x="95.410156" xlink:href="#DejaVuSans-35"/>
      </g>
     </g>
    </g>
    <g id="ytick_3">
     <g id="line2d_3">
      <path clip-path="url(#p6b67384a2c)" d="M 40.600625 280.976048 
L 993.140625 280.976048 
" style="fill:none;stroke:#dedede;stroke-linecap:square;"/>
     </g>
     <g id="text_12">
      <!-- 1.0 -->
      <g transform="translate(20.878125 284.015423)scale(0.08 -0.08)">
       <use xlink:href="#DejaVuSans-31"/>
       <use x="63.623047" xlink:href="#DejaVuSans-2e"/>
       <use x="95.410156" xlink:href="#DejaVuSans-30"/>
      </g>
     </g>
    </g>
    <g id="ytick_4">
     <g id="line2d_4">
      <path clip-path="url(#p6b67384a2c)" d="M 40.600625 244.096122 
L 993.140625 244.096122 
" style="fill:none;stroke:#dedede;stroke-linecap:square;"/>
     </g>
     <g id="text_13">
      <!-- 1.5 -->
      <g transform="translate(20.878125 247.135497)scale(0.08 -0.08)">
       <use xlink:href="#DejaVuSans-31"/>
       <use x="63.623047" xlink:href="#DejaVuSans-2e"/>
       <use x="95.410156" xlink:href="#DejaVuSans-35"/>
      </g>
     </g>
    </g>
    <g id="ytick_5">
     <g id="line2d_5">
      <path clip-path="url(#p6b67384a2c)" d="M 40.600625 207.216196 
L 993.140625 207.216196 
" style="fill:none;stroke:#dedede;stroke-linecap:square;"/>
     </g>
     <g id="text_14">
      <!-- 2.0 -->
      <g transform="translate(20.878125 210.255571)scale(0.08 -0.08)">
       <use xlink:href="#DejaVuSans-32"/>
       <use x="63.623047" xlink:href="#DejaVuSans-2e"/>
       <use x="95.410156" xlink:href="#DejaVuSans-30"/>
      </g>
     </g>
    </g>
    <g id="ytick_6">
     <g id="line2d_6">
      <path clip-path="url(#p6b67384a2c)" d="M 40.600625 170.33627 
L 993.140625 170.33627 
" style="fill:none;stroke:#dedede;stroke-linecap:square;"/>
     </g>
     <g id="text_15">
      <!-- 2.5 -->
      <g transform="translate(20.878125 173.375645)scale(0.08 -0.08)">
       <use xlink:href="#DejaVuSans-32"/>
       <use x="63.623047" xlink:href="#DejaVuSans-2e"/>
       <use x="95.410156" xlink:href="#DejaVuSans-35"/>
      </g>
     </g>
    </g>
    <g id="ytick_7">
     <g id="line2d_7">
      <path clip-path="url(#p6b67384a2c)" d="M 40.600625 133.456344 
L 993.140625 133.456344 
" style="fill:none;stroke:#dedede;stroke-linecap:square;"/>
     </g>
     <g id="text_16">
      <!-- 3.0 -->
      <g transform="translate(20.878125 136.495719)scale(0.08 -0.08)">
       <use xlink:href="#DejaVuSans-33"/>
       <use x="63.623047" xlink:href="#DejaVuSans-2e"/>
       <use x="95.410156" xlink:href="#DejaVuSans-30"/>
      </g>
     </g>
    </g>
    <g id="ytick_8">
     <g id="line2d_8">
      <path clip-path="url(#p6b67384a2c)" d="M 40.600625 96.576418 
L 993.140625 96.576418 
" style="fill:none;stroke:#dedede;stroke-linecap:square;"/>
     </g>
     <g id="text_17">
      <!-- 3.5 -->
      <g transform="translate(20.878125 99.615793)scale(0.08 -0.08)">
       <use xlink:href="#DejaVuSans-33"/>
       <use x="63.623047" xlink:href="#DejaVuSans-2e"/>
       <use x="95.410156" xlink:href="#DejaVuSans-35"/>
      </g>
     </g>
    </g>
    <g id="ytick_9">
     <g id="line2d_9">
      <path clip-path="url(#p6b67384a2c)" d="M 40.600625 59.696492 
L 993.140625 59.696492 
" style="fill:none;stroke:#dedede;stroke-linecap:square;"/>
     </g>
     <g id="text_18">
      <!-- 4.0 -->
      <g transform="translate(20.878125 62.735867)scale(0.08 -0.08)">
       <defs>
        <path d="M 2419 4116 
L 825 1625 
L 2419 1625 
L 2419 4116 
z
M 2253 4666 
L 3047 4666 
L 3047 1625 
L 3713 1625 
L 3713 1100 
L 3047 1100 
L 3047 0 
L 2419 0 
L 2419 1100 
L 313 1100 
L 313 1709 
L 2253 4666 
z
" id="DejaVuSans-34" transform="scale(0.015625)"/>
       </defs>
       <use xlink:href="#DejaVuSans-34"/>
       <use x="63.623047" xlink:href="#DejaVuSans-2e"/>
       <use x="95.410156" xlink:href="#DejaVuSans-30"/>
      </g>
     </g>
    </g>
    <g id="text_19">
     <!-- Count -->
     <g transform="translate(14.798438 209.880338)rotate(-90)scale(0.1 -0.1)">
      <defs>
       <path d="M 4122 4306 
L 4122 3641 
Q 3803 3938 3442 4084 
Q 3081 4231 2675 4231 
Q 1875 4231 1450 3742 
Q 1025 3253 1025 2328 
Q 1025 1406 1450 917 
Q 1875 428 2675 428 
Q 3081 428 3442 575 
Q 3803 722 4122 1019 
L 4122 359 
Q 3791 134 3420 21 
Q 3050 -91 2638 -91 
Q 1578 -91 968 557 
Q 359 1206 359 2328 
Q 359 3453 968 4101 
Q 1578 4750 2638 4750 
Q 3056 4750 3426 4639 
Q 3797 4528 4122 4306 
z
" id="DejaVuSans-43" transform="scale(0.015625)"/>
      </defs>
      <use xlink:href="#DejaVuSans-43"/>
      <use x="69.824219" xlink:href="#DejaVuSans-6f"/>
      <use x="131.005859" xlink:href="#DejaVuSans-75"/>
      <use x="194.384766" xlink:href="#DejaVuSans-6e"/>
      <use x="257.763672" xlink:href="#DejaVuSans-74"/>
     </g>
    </g>
    <g id="text_20">
     <!-- 1e6 -->
     <g transform="translate(40.600625 32.3279)scale(0.1 -0.1)">
      <defs>
       <path d="M 2113 2584 
Q 1688 2584 1439 2293 
Q 1191 2003 1191 1497 
Q 1191 994 1439 701 
Q 1688 409 2113 409 
Q 2538 409 2786 701 
Q 3034 994 3034 1497 
Q 3034 2003 2786 2293 
Q 2538 2584 2113 2584 
z
M 3366 4563 
L 3366 3988 
Q 3128 4100 2886 4159 
Q 2644 4219 2406 4219 
Q 1781 4219 1451 3797 
Q 1122 3375 1075 2522 
Q 1259 2794 1537 2939 
Q 1816 3084 2150 3084 
Q 2853 3084 3261 2657 
Q 3669 2231 3669 1497 
Q 3669 778 3244 343 
Q 2819 -91 2113 -91 
Q 1303 -91 875 529 
Q 447 1150 447 2328 
Q 447 3434 972 4092 
Q 1497 4750 2381 4750 
Q 2619 4750 2861 4703 
Q 3103 4656 3366 4563 
z
" id="DejaVuSans-36" transform="scale(0.015625)"/>
      </defs>
      <use xlink:href="#DejaVuSans-31"/>
      <use x="63.623047" xlink:href="#DejaVuSans-65"/>
      <use x="125.146484" xlink:href="#DejaVuSans-36"/>
     </g>
    </g>
   </g>
   <g id="line2d_10">
    <path clip-path="url(#p6b67384a2c)" d="M 724.605412 354.735826 
L 749.938923 354.735236 
L 775.272434 354.731991 
L 800.605944 354.706691 
L 825.939455 354.605493 
L 851.272965 354.209402 
L 876.606476 353.100865 
L 901.939987 350.042487 
L 927.273497 341.876091 
L 952.607008 322.942453 
L 977.940519 262.951648 
" style="fill:none;stroke:#5cb85c;stroke-linecap:square;"/>
   </g>
   <g id="line2d_11">
    <path clip-path="url(#p6b67384a2c)" d="M 724.605412 354.733687 
L 749.938923 354.715985 
L 775.272434 354.611393 
L 800.605944 354.247979 
L 825.939455 353.314916 
L 851.272965 351.305034 
L 876.606476 347.607527 
L 901.939987 341.415756 
L 927.273497 330.771545 
L 952.607008 314.712772 
L 977.940519 301.201589 
" style="fill:none;stroke:#5cb85c;stroke-linecap:square;"/>
   </g>
   <g id="line2d_12">
    <path clip-path="url(#p6b67384a2c)" d="M 749.938923 354.734867 
L 775.272434 354.727196 
L 800.605944 354.684416 
L 825.939455 354.534093 
L 851.272965 354.091755 
L 876.606476 353.092604 
L 901.939987 350.925023 
L 927.273497 345.606053 
L 952.607008 328.263342 
L 977.940519 219.406192 
" style="fill:none;stroke:#5cb85c;stroke-linecap:square;"/>
   </g>
   <g id="line2d_13">
    <path clip-path="url(#p6b67384a2c)" d="M 724.605412 354.735162 
L 749.938923 354.729778 
L 775.272434 354.698725 
L 800.605944 354.579603 
L 825.939455 354.225261 
L 851.272965 353.361311 
L 876.606476 351.481763 
L 901.939987 347.69921 
L 927.273497 338.995621 
L 952.607008 319.094844 
L 977.940519 241.200163 
" style="fill:none;stroke:#5cb85c;stroke-linecap:square;"/>
   </g>
   <g id="line2d_14">
    <path clip-path="url(#p6b67384a2c)" d="M 775.272434 354.735826 
L 800.605944 354.734646 
L 825.939455 354.729483 
L 851.272965 354.705216 
L 876.606476 354.618991 
L 901.939987 354.328819 
L 927.273497 353.469886 
L 952.607008 351.917905 
L 977.940519 351.465241 
" style="fill:none;stroke:#5cb85c;stroke-linecap:square;"/>
   </g>
   <g id="line2d_15">
    <path clip-path="url(#p6b67384a2c)" d="M 724.605412 354.735531 
L 749.938923 354.731843 
L 775.272434 354.719525 
L 800.605944 354.666197 
L 825.939455 354.541248 
L 851.272965 354.315911 
L 876.606476 353.959651 
L 901.939987 353.451593 
L 927.273497 352.794246 
L 952.607008 352.717167 
L 977.940519 353.5449 
" style="fill:none;stroke:#5cb85c;stroke-linecap:square;"/>
   </g>
   <g id="line2d_16">
    <path clip-path="url(#p6b67384a2c)" d="M 749.938923 354.735826 
L 775.272434 354.735457 
L 800.605944 354.730663 
L 825.939455 354.713772 
L 851.272965 354.658083 
L 876.606476 354.493894 
L 901.939987 354.073094 
L 927.273497 352.937487 
L 952.607008 350.066828 
L 977.940519 328.231625 
" style="fill:none;stroke:#5cb85c;stroke-linecap:square;"/>
   </g>
   <g id="line2d_17">
    <path clip-path="url(#p6b67384a2c)" d="M 699.271902 354.735826 
L 724.605412 354.735752 
L 749.938923 354.733908 
L 775.272434 354.724098 
L 800.605944 354.691865 
L 825.939455 354.606673 
L 851.272965 354.401989 
L 876.606476 353.983992 
L 901.939987 353.137081 
L 927.273497 351.285045 
L 952.607008 346.739668 
L 977.940519 335.07263 
" style="fill:none;stroke:#5cb85c;stroke-linecap:square;"/>
   </g>
   <g id="line2d_18">
    <path clip-path="url(#p6b67384a2c)" d="M 749.938923 354.735679 
L 775.272434 354.733761 
L 800.605944 354.725131 
L 825.939455 354.690095 
L 851.272965 354.561089 
L 876.606476 354.215082 
L 901.939987 353.315211 
L 927.273497 350.9071 
L 952.607008 344.756561 
L 977.940519 315.106133 
" style="fill:none;stroke:#5cb85c;stroke-linecap:square;"/>
   </g>
   <g id="line2d_19">
    <path clip-path="url(#p6b67384a2c)" d="M 699.271902 354.735826 
L 724.605412 354.735826 
L 749.938923 354.731401 
L 775.272434 354.703962 
L 800.605944 354.620097 
L 825.939455 354.382295 
L 851.272965 353.843848 
L 876.606476 352.801622 
L 901.939987 350.92908 
L 927.273497 347.294121 
L 952.607008 340.898552 
L 977.940519 327.541011 
" style="fill:none;stroke:#5cb85c;stroke-linecap:square;"/>
   </g>
   <g id="line2d_20">
    <path clip-path="url(#p6b67384a2c)" d="M 749.938923 354.735826 
L 775.272434 354.735531 
L 800.605944 354.734572 
L 825.939455 354.72668 
L 851.272965 354.691423 
L 876.606476 354.597748 
L 901.939987 354.297766 
L 927.273497 353.317793 
L 952.607008 351.048793 
L 977.940519 345.559437 
" style="fill:none;stroke:#5cb85c;stroke-linecap:square;"/>
   </g>
   <g id="line2d_21">
    <path clip-path="url(#p6b67384a2c)" d="M 724.605412 354.735162 
L 749.938923 354.730811 
L 775.272434 354.713329 
L 800.605944 354.660296 
L 825.939455 354.514768 
L 851.272965 354.220835 
L 876.606476 353.74324 
L 901.939987 353.052848 
L 927.273497 352.037912 
L 952.607008 350.823014 
L 977.940519 349.949254 
" style="fill:none;stroke:#5cb85c;stroke-linecap:square;"/>
   </g>
   <g id="line2d_22">
    <path clip-path="url(#p6b67384a2c)" d="M 749.938923 354.735384 
L 775.272434 354.731253 
L 800.605944 354.70197 
L 825.939455 354.58484 
L 851.272965 354.197011 
L 876.606476 353.136713 
L 901.939987 350.516246 
L 927.273497 343.831022 
L 952.607008 328.463747 
L 977.940519 267.660477 
" style="fill:none;stroke:#5cb85c;stroke-linecap:square;"/>
   </g>
   <g id="line2d_23">
    <path clip-path="url(#p6b67384a2c)" d="M 724.605412 354.735384 
L 749.938923 354.72786 
L 775.272434 354.691423 
L 800.605944 354.547886 
L 825.939455 354.106138 
L 851.272965 353.050192 
L 876.606476 350.823014 
L 901.939987 346.423976 
L 927.273497 337.535471 
L 952.607008 323.037972 
L 977.940519 287.615246 
" style="fill:none;stroke:#5cb85c;stroke-linecap:square;"/>
   </g>
   <g id="line2d_24">
    <path clip-path="url(#p6b67384a2c)" d="M 699.271902 354.735826 
L 724.605412 354.735826 
L 749.938923 354.734572 
L 775.272434 354.7255 
L 800.605944 354.671581 
L 825.939455 354.447499 
L 851.272965 353.808222 
L 876.606476 352.197381 
L 901.939987 348.621798 
L 927.273497 340.020883 
L 952.607008 314.805045 
L 977.940519 116.461041 
" style="fill:none;stroke:#5cb85c;stroke-linecap:square;"/>
   </g>
   <g id="line2d_25">
    <path clip-path="url(#p6b67384a2c)" d="M 699.271902 354.735605 
L 724.605412 354.733908 
L 749.938923 354.714215 
L 775.272434 354.613975 
L 800.605944 354.270623 
L 825.939455 353.329226 
L 851.272965 351.194985 
L 876.606476 346.999229 
L 901.939987 339.326508 
L 927.273497 323.337437 
L 952.607008 284.915193 
L 977.940519 181.794273 
" style="fill:none;stroke:#5cb85c;stroke-linecap:square;"/>
   </g>
   <g id="line2d_26">
    <path clip-path="url(#p6b67384a2c)" d="M 724.605412 354.735826 
L 749.938923 354.735826 
L 775.272434 354.735752 
L 800.605944 354.733835 
L 825.939455 354.721001 
L 851.272965 354.687809 
L 876.606476 354.552164 
L 901.939987 354.171416 
L 927.273497 353.051963 
L 952.607008 350.271806 
L 977.940519 342.492871 
" style="fill:none;stroke:#5cb85c;stroke-linecap:square;"/>
   </g>
   <g id="line2d_27">
    <path clip-path="url(#p6b67384a2c)" d="M 699.271902 354.735826 
L 724.605412 354.735752 
L 749.938923 354.733245 
L 775.272434 354.721812 
L 800.605944 354.6794 
L 825.939455 354.574735 
L 851.272965 354.330737 
L 876.606476 353.867083 
L 901.939987 353.057273 
L 927.273497 351.388162 
L 952.607008 348.954234 
L 977.940519 347.84791 
" style="fill:none;stroke:#5cb85c;stroke-linecap:square;"/>
   </g>
   <g id="line2d_28">
    <path clip-path="url(#p6b67384a2c)" d="M 749.938923 354.735531 
L 775.272434 354.733097 
L 800.605944 354.71687 
L 825.939455 354.641414 
L 851.272965 354.38886 
L 876.606476 353.673168 
L 901.939987 351.784621 
L 927.273497 346.921781 
L 952.607008 335.830881 
L 977.940519 291.887195 
" style="fill:none;stroke:#5cb85c;stroke-linecap:square;"/>
   </g>
   <g id="line2d_29">
    <path clip-path="url(#p6b67384a2c)" d="M 699.271902 354.735826 
L 724.605412 354.73531 
L 749.938923 354.729925 
L 775.272434 354.697397 
L 800.605944 354.575546 
L 825.939455 354.200035 
L 851.272965 353.368909 
L 876.606476 351.683349 
L 901.939987 348.49589 
L 927.273497 342.097887 
L 952.607008 330.984564 
L 977.940519 308.48058 
" style="fill:none;stroke:#5cb85c;stroke-linecap:square;"/>
   </g>
   <g id="line2d_30">
    <path clip-path="url(#p6b67384a2c)" d="M 775.272434 354.735236 
L 800.605944 354.730073 
L 825.939455 354.708978 
L 851.272965 354.645028 
L 876.606476 354.469922 
L 901.939987 354.044844 
L 927.273497 353.050487 
L 952.607008 350.707284 
L 977.940519 339.772239 
" style="fill:none;stroke:#5cb85c;stroke-linecap:square;"/>
   </g>
   <g id="line2d_31">
    <path clip-path="url(#p6b67384a2c)" d="M 724.605412 354.735826 
L 749.938923 354.734056 
L 775.272434 354.72491 
L 800.605944 354.695627 
L 825.939455 354.605345 
L 851.272965 354.400661 
L 876.606476 353.981115 
L 901.939987 353.241083 
L 927.273497 351.869445 
L 952.607008 349.655174 
L 977.940519 343.692649 
" style="fill:none;stroke:#5cb85c;stroke-linecap:square;"/>
   </g>
   <g id="line2d_32">
    <path clip-path="url(#p6b67384a2c)" d="M 749.938923 354.735752 
L 775.272434 354.733982 
L 800.605944 354.717313 
L 825.939455 354.650265 
L 851.272965 354.452441 
L 876.606476 353.947186 
L 901.939987 352.857089 
L 927.273497 350.479957 
L 952.607008 345.139965 
L 977.940519 314.556843 
" style="fill:none;stroke:#5cb85c;stroke-linecap:square;"/>
   </g>
   <g id="line2d_33">
    <path clip-path="url(#p6b67384a2c)" d="M 724.605412 354.735826 
L 749.938923 354.733245 
L 775.272434 354.721812 
L 800.605944 354.675859 
L 825.939455 354.522365 
L 851.272965 354.123029 
L 876.606476 353.27929 
L 901.939987 351.664392 
L 927.273497 348.467345 
L 952.607008 342.439764 
L 977.940519 321.643764 
" style="fill:none;stroke:#5cb85c;stroke-linecap:square;"/>
   </g>
   <g id="line2d_34">
    <path clip-path="url(#p6b67384a2c)" d="M 749.938923 354.735384 
L 775.272434 354.730294 
L 800.605944 354.698282 
L 825.939455 354.549878 
L 851.272965 354.07184 
L 876.606476 352.75058 
L 901.939987 349.423715 
L 927.273497 340.903789 
L 952.607008 323.456855 
L 977.940519 259.316689 
" style="fill:none;stroke:#5cb85c;stroke-linecap:square;"/>
   </g>
   <g id="line2d_35">
    <path clip-path="url(#p6b67384a2c)" d="M 699.271902 354.735679 
L 724.605412 354.734056 
L 749.938923 354.722623 
L 775.272434 354.659411 
L 800.605944 354.420872 
L 825.939455 353.729299 
L 851.272965 352.21973 
L 876.606476 349.17662 
L 901.939987 343.667865 
L 927.273497 333.239402 
L 952.607008 317.388558 
L 977.940519 285.41499 
" style="fill:none;stroke:#5cb85c;stroke-linecap:square;"/>
   </g>
   <g id="line2d_36">
    <path clip-path="url(#p6b67384a2c)" d="M 749.938923 354.735752 
L 775.272434 354.734572 
L 800.605944 354.725795 
L 825.939455 354.694078 
L 851.272965 354.581373 
L 876.606476 354.26841 
L 901.939987 353.433301 
L 927.273497 351.146303 
L 952.607008 345.70408 
L 977.940519 321.714057 
" style="fill:none;stroke:#5cb85c;stroke-linecap:square;"/>
   </g>
   <g id="line2d_37">
    <path clip-path="url(#p6b67384a2c)" d="M 724.605412 354.735236 
L 749.938923 354.730294 
L 775.272434 354.705437 
L 800.605944 354.605714 
L 825.939455 354.343571 
L 851.272965 353.75423 
L 876.606476 352.634039 
L 901.939987 350.703596 
L 927.273497 347.561058 
L 952.607008 343.158111 
L 977.940519 333.542334 
" style="fill:none;stroke:#5cb85c;stroke-linecap:square;"/>
   </g>
   <g id="line2d_38">
    <path clip-path="url(#p6b67384a2c)" d="M 775.272434 354.734351 
L 800.605944 354.726606 
L 825.939455 354.692382 
L 851.272965 354.55777 
L 876.606476 354.108277 
L 901.939987 352.910565 
L 927.273497 349.563122 
L 952.607008 343.082286 
L 977.940519 331.399758 
" style="fill:none;stroke:#5cb85c;stroke-linecap:square;"/>
   </g>
   <g id="line2d_39">
    <path clip-path="url(#p6b67384a2c)" d="M 699.271902 354.735826 
L 724.605412 354.735015 
L 749.938923 354.72786 
L 775.272434 354.695627 
L 800.605944 354.57053 
L 825.939455 354.235439 
L 851.272965 353.502193 
L 876.606476 352.223861 
L 901.939987 349.992183 
L 927.273497 346.302862 
L 952.607008 342.706922 
L 977.940519 341.554498 
" style="fill:none;stroke:#5cb85c;stroke-linecap:square;"/>
   </g>
   <g id="line2d_40">
    <path clip-path="url(#p6b67384a2c)" d="M 724.605412 354.735752 
L 749.938923 354.735826 
L 775.272434 354.733466 
L 800.605944 354.71805 
L 825.939455 354.649896 
L 851.272965 354.424781 
L 876.606476 353.803944 
L 901.939987 352.19325 
L 927.273497 347.952796 
L 952.607008 337.580022 
L 977.940519 283.805697 
" style="fill:none;stroke:#5cb85c;stroke-linecap:square;"/>
   </g>
   <g id="line2d_41">
    <path clip-path="url(#p6b67384a2c)" d="M 724.605412 354.735457 
L 749.938923 354.730442 
L 775.272434 354.701675 
L 800.605944 354.604312 
L 825.939455 354.292087 
L 851.272965 353.536048 
L 876.606476 351.933099 
L 901.939987 348.847356 
L 927.273497 342.39418 
L 952.607008 330.893397 
L 977.940519 302.665427 
" style="fill:none;stroke:#5cb85c;stroke-linecap:square;"/>
   </g>
   <g id="line2d_42">
    <path clip-path="url(#p6b67384a2c)" d="M 749.938923 354.735531 
L 775.272434 354.733171 
L 800.605944 354.722918 
L 825.939455 354.665164 
L 851.272965 354.494705 
L 876.606476 354.035698 
L 901.939987 352.903484 
L 927.273497 350.179975 
L 952.607008 343.503897 
L 977.940519 313.285961 
" style="fill:none;stroke:#5cb85c;stroke-linecap:square;"/>
   </g>
   <g id="line2d_43">
    <path clip-path="url(#p6b67384a2c)" d="M 699.271902 354.735826 
L 724.605412 354.735384 
L 749.938923 354.731032 
L 775.272434 354.709051 
L 800.605944 354.624449 
L 825.939455 354.376321 
L 851.272965 353.789709 
L 876.606476 352.654323 
L 901.939987 350.613462 
L 927.273497 346.73303 
L 952.607008 340.419482 
L 977.940519 324.610237 
" style="fill:none;stroke:#5cb85c;stroke-linecap:square;"/>
   </g>
   <g id="line2d_44">
    <path clip-path="url(#p6b67384a2c)" d="M 749.938923 354.735605 
L 775.272434 354.735015 
L 800.605944 354.72904 
L 825.939455 354.702192 
L 851.272965 354.621867 
L 876.606476 354.347702 
L 901.939987 353.56806 
L 927.273497 351.45012 
L 952.607008 346.546565 
L 977.940519 327.629597 
" style="fill:none;stroke:#5cb85c;stroke-linecap:square;"/>
   </g>
   <g id="line2d_45">
    <path clip-path="url(#p6b67384a2c)" d="M 724.605412 354.735605 
L 749.938923 354.730589 
L 775.272434 354.709273 
L 800.605944 354.629096 
L 825.939455 354.411652 
L 851.272965 353.929631 
L 876.606476 353.025557 
L 901.939987 351.427992 
L 927.273497 348.593843 
L 952.607008 344.074061 
L 977.940519 337.534365 
" style="fill:none;stroke:#5cb85c;stroke-linecap:square;"/>
   </g>
   <g id="line2d_46">
    <path clip-path="url(#p6b67384a2c)" d="M 724.605412 354.735679 
L 749.938923 354.735384 
L 775.272434 354.734351 
L 800.605944 354.723287 
L 825.939455 354.673499 
L 851.272965 354.496033 
L 876.606476 353.967396 
L 901.939987 352.481873 
L 927.273497 348.571494 
L 952.607008 339.927798 
L 977.940519 308.945046 
" style="fill:none;stroke:#5cb85c;stroke-linecap:square;"/>
   </g>
   <g id="line2d_47">
    <path clip-path="url(#p6b67384a2c)" d="M 724.605412 354.734867 
L 749.938923 354.728303 
L 775.272434 354.69548 
L 800.605944 354.567654 
L 825.939455 354.232932 
L 851.272965 353.442226 
L 876.606476 351.914217 
L 901.939987 349.131405 
L 927.273497 343.891948 
L 952.607008 336.357158 
L 977.940519 324.295652 
" style="fill:none;stroke:#5cb85c;stroke-linecap:square;"/>
   </g>
   <g id="line2d_48">
    <path clip-path="url(#p6b67384a2c)" d="M 724.605412 354.735826 
L 749.938923 354.735457 
L 775.272434 354.733097 
L 800.605944 354.711781 
L 825.939455 354.623933 
L 851.272965 354.313551 
L 876.606476 353.405862 
L 901.939987 351.040826 
L 927.273497 344.976365 
L 952.607008 332.472964 
L 977.940519 298.972567 
" style="fill:none;stroke:#5cb85c;stroke-linecap:square;"/>
   </g>
   <g id="line2d_49">
    <path clip-path="url(#p6b67384a2c)" d="M 724.605412 354.734941 
L 749.938923 354.7255 
L 775.272434 354.682498 
L 800.605944 354.510859 
L 825.939455 354.04477 
L 851.272965 352.961459 
L 876.606476 350.82707 
L 901.939987 346.900391 
L 927.273497 339.414577 
L 952.607008 329.239258 
L 977.940519 316.680906 
" style="fill:none;stroke:#5cb85c;stroke-linecap:square;"/>
   </g>
   <g id="line2d_50">
    <path clip-path="url(#p6b67384a2c)" d="M 749.938923 354.735605 
L 775.272434 354.73236 
L 800.605944 354.715247 
L 825.939455 354.640381 
L 851.272965 354.394392 
L 876.606476 353.750542 
L 901.939987 352.030241 
L 927.273497 347.592922 
L 952.607008 337.087897 
L 977.940519 299.523553 
" style="fill:none;stroke:#5cb85c;stroke-linecap:square;"/>
   </g>
   <g id="line2d_51">
    <path clip-path="url(#p6b67384a2c)" d="M 699.271902 354.735752 
L 724.605412 354.735605 
L 749.938923 354.729704 
L 775.272434 354.699758 
L 800.605944 354.598928 
L 825.939455 354.309642 
L 851.272965 353.608776 
L 876.606476 352.194947 
L 901.939987 349.443852 
L 927.273497 343.795322 
L 952.607008 334.535879 
L 977.940519 311.286774 
" style="fill:none;stroke:#5cb85c;stroke-linecap:square;"/>
   </g>
   <g id="line2d_52">
    <path clip-path="url(#p6b67384a2c)" d="M 749.938923 354.735531 
L 775.272434 354.735457 
L 800.605944 354.729852 
L 825.939455 354.708756 
L 851.272965 354.639201 
L 876.606476 354.444254 
L 901.939987 353.978681 
L 927.273497 352.742245 
L 952.607008 349.387057 
L 977.940519 330.188031 
" style="fill:none;stroke:#5cb85c;stroke-linecap:square;"/>
   </g>
   <g id="line2d_53">
    <path clip-path="url(#p6b67384a2c)" d="M 724.605412 354.735826 
L 749.938923 354.735236 
L 775.272434 354.730737 
L 800.605944 354.708904 
L 825.939455 354.645765 
L 851.272965 354.465054 
L 876.606476 354.077888 
L 901.939987 353.248754 
L 927.273497 351.265351 
L 952.607008 347.145421 
L 977.940519 335.266028 
" style="fill:none;stroke:#5cb85c;stroke-linecap:square;"/>
   </g>
   <g id="line2d_54">
    <path clip-path="url(#p6b67384a2c)" d="M 724.605412 354.735826 
L 749.938923 354.735457 
L 775.272434 354.732581 
L 800.605944 354.715026 
L 825.939455 354.637062 
L 851.272965 354.388712 
L 876.606476 353.738224 
L 901.939987 352.137783 
L 927.273497 348.092055 
L 952.607008 337.512753 
L 977.940519 285.572172 
" style="fill:none;stroke:#5cb85c;stroke-linecap:square;"/>
   </g>
   <g id="line2d_55">
    <path clip-path="url(#p6b67384a2c)" d="M 724.605412 354.734941 
L 749.938923 354.730442 
L 775.272434 354.703446 
L 800.605944 354.593543 
L 825.939455 354.262583 
L 851.272965 353.515248 
L 876.606476 351.910676 
L 901.939987 348.712744 
L 927.273497 342.580276 
L 952.607008 331.528026 
L 977.940519 303.725725 
" style="fill:none;stroke:#5cb85c;stroke-linecap:square;"/>
   </g>
   <g id="line2d_56">
    <path clip-path="url(#p6b67384a2c)" d="M 749.938923 354.735531 
L 775.272434 354.731622 
L 800.605944 354.708093 
L 825.939455 354.622162 
L 851.272965 354.339883 
L 876.606476 353.634149 
L 901.939987 352.029651 
L 927.273497 348.057314 
L 952.607008 336.356863 
L 977.940519 264.667523 
" style="fill:none;stroke:#5cb85c;stroke-linecap:square;"/>
   </g>
   <g id="line2d_57">
    <path clip-path="url(#p6b67384a2c)" d="M 724.605412 354.734867 
L 749.938923 354.730737 
L 775.272434 354.695258 
L 800.605944 354.565957 
L 825.939455 354.183291 
L 851.272965 353.289027 
L 876.606476 351.483828 
L 901.939987 348.160504 
L 927.273497 341.51157 
L 952.607008 328.089637 
L 977.940519 287.174015 
" style="fill:none;stroke:#5cb85c;stroke-linecap:square;"/>
   </g>
   <g id="line2d_58">
    <path clip-path="url(#p6b67384a2c)" d="M 699.271902 354.735826 
L 724.605412 354.735605 
L 749.938923 354.73472 
L 775.272434 354.725795 
L 800.605944 354.680506 
L 825.939455 354.483346 
L 851.272965 353.886998 
L 876.606476 352.330001 
L 901.939987 348.389602 
L 927.273497 337.742589 
L 952.607008 306.034925 
L 977.940519 104.041579 
" style="fill:none;stroke:#5cb85c;stroke-linecap:square;"/>
   </g>
   <g id="line2d_59">
    <path clip-path="url(#p6b67384a2c)" d="M 699.271902 354.735679 
L 724.605412 354.732876 
L 749.938923 354.708683 
L 775.272434 354.578128 
L 800.605944 354.127307 
L 825.939455 352.932177 
L 851.272965 350.272691 
L 876.606476 345.127352 
L 901.939987 335.490774 
L 927.273497 316.198885 
L 952.607008 275.196742 
L 977.940519 182.420199 
" style="fill:none;stroke:#5cb85c;stroke-linecap:square;"/>
   </g>
   <g id="line2d_60">
    <path clip-path="url(#p6b67384a2c)" d="M 724.605412 354.735826 
L 749.938923 354.735752 
L 775.272434 354.731401 
L 800.605944 354.708683 
L 825.939455 354.610434 
L 851.272965 354.333909 
L 876.606476 353.596089 
L 901.939987 351.873206 
L 927.273497 347.453811 
L 952.607008 333.822327 
L 977.940519 276.725046 
" style="fill:none;stroke:#5cb85c;stroke-linecap:square;"/>
   </g>
   <g id="line2d_61">
    <path clip-path="url(#p6b67384a2c)" d="M 699.271902 354.735826 
L 724.605412 354.734941 
L 749.938923 354.727934 
L 775.272434 354.686112 
L 800.605944 354.531511 
L 825.939455 354.085707 
L 851.272965 353.062215 
L 876.606476 351.077559 
L 901.939987 347.413096 
L 927.273497 340.263848 
L 952.607008 327.75698 
L 977.940519 298.986655 
" style="fill:none;stroke:#5cb85c;stroke-linecap:square;"/>
   </g>
   <g id="line2d_62">
    <path clip-path="url(#p6b67384a2c)" d="M 724.605412 354.735826 
L 749.938923 354.735752 
L 775.272434 354.732655 
L 800.605944 354.710305 
L 825.939455 354.631604 
L 851.272965 354.400219 
L 876.606476 353.801436 
L 901.939987 352.445288 
L 927.273497 348.86941 
L 952.607008 338.371834 
L 977.940519 287.215763 
" style="fill:none;stroke:#5cb85c;stroke-linecap:square;"/>
   </g>
   <g id="line2d_63">
    <path clip-path="url(#p6b67384a2c)" d="M 724.605412 354.735089 
L 749.938923 354.730589 
L 775.272434 354.700126 
L 800.605944 354.571563 
L 825.939455 354.220097 
L 851.272965 353.398044 
L 876.606476 351.753789 
L 901.939987 348.723587 
L 927.273497 342.938971 
L 952.607008 333.002707 
L 977.940519 305.87553 
" style="fill:none;stroke:#5cb85c;stroke-linecap:square;"/>
   </g>
   <g id="line2d_64">
    <path clip-path="url(#p6b67384a2c)" d="M 724.605412 354.735826 
L 749.938923 354.733982 
L 775.272434 354.71687 
L 800.605944 354.630792 
L 825.939455 354.274237 
L 851.272965 353.260113 
L 876.606476 350.874424 
L 901.939987 345.522188 
L 927.273497 332.51331 
L 952.607008 294.683726 
L 977.940519 50.537805 
" style="fill:none;stroke:#5cb85c;stroke-linecap:square;"/>
   </g>
   <g id="line2d_65">
    <path clip-path="url(#p6b67384a2c)" d="M 699.271902 354.735752 
L 724.605412 354.732802 
L 749.938923 354.700053 
L 775.272434 354.537043 
L 800.605944 353.978091 
L 825.939455 352.426774 
L 851.272965 349.135831 
L 876.606476 342.983153 
L 901.939987 331.936877 
L 927.273497 310.134498 
L 952.607008 261.510897 
L 977.940519 134.407403 
" style="fill:none;stroke:#5cb85c;stroke-linecap:square;"/>
   </g>
   <g id="line2d_66">
    <path clip-path="url(#p6b67384a2c)" d="M 749.938923 354.735826 
L 775.272434 354.735162 
L 800.605944 354.731401 
L 825.939455 354.71628 
L 851.272965 354.661624 
L 876.606476 354.478257 
L 901.939987 353.946448 
L 927.273497 352.270772 
L 952.607008 347.414718 
L 977.940519 321.606589 
" style="fill:none;stroke:#5cb85c;stroke-linecap:square;"/>
   </g>
   <g id="line2d_67">
    <path clip-path="url(#p6b67384a2c)" d="M 699.271902 354.735826 
L 724.605412 354.7359 
L 749.938923 354.73295 
L 775.272434 354.722402 
L 800.605944 354.669737 
L 825.939455 354.535347 
L 851.272965 354.205788 
L 876.606476 353.515248 
L 901.939987 352.044403 
L 927.273497 348.78112 
L 952.607008 342.501501 
L 977.940519 333.588655 
" style="fill:none;stroke:#5cb85c;stroke-linecap:square;"/>
   </g>
   <g id="line2d_68">
    <path clip-path="url(#p6b67384a2c)" d="M 749.938923 354.735752 
L 775.272434 354.734794 
L 800.605944 354.729262 
L 825.939455 354.694521 
L 851.272965 354.576062 
L 876.606476 354.197011 
L 901.939987 353.040899 
L 927.273497 349.766846 
L 952.607008 343.249795 
L 977.940519 328.371252 
" style="fill:none;stroke:#5cb85c;stroke-linecap:square;"/>
   </g>
   <g id="line2d_69">
    <path clip-path="url(#p6b67384a2c)" d="M 699.271902 354.735826 
L 724.605412 354.735015 
L 749.938923 354.723656 
L 775.272434 354.676966 
L 800.605944 354.51735 
L 825.939455 354.119489 
L 851.272965 353.325685 
L 876.606476 351.959874 
L 901.939987 349.817151 
L 927.273497 346.363493 
L 952.607008 342.618263 
L 977.940519 339.975226 
" style="fill:none;stroke:#5cb85c;stroke-linecap:square;"/>
   </g>
   <g id="line2d_70">
    <path clip-path="url(#p6b67384a2c)" d="M 724.605412 354.735752 
L 749.938923 354.735457 
L 775.272434 354.729778 
L 800.605944 354.697471 
L 825.939455 354.568391 
L 851.272965 354.15423 
L 876.606476 353.086925 
L 901.939987 350.361203 
L 927.273497 343.145203 
L 952.607008 323.778152 
L 977.940519 247.232391 
" style="fill:none;stroke:#5cb85c;stroke-linecap:square;"/>
   </g>
   <g id="line2d_71">
    <path clip-path="url(#p6b67384a2c)" d="M 699.271902 354.735605 
L 724.605412 354.733835 
L 749.938923 354.708388 
L 775.272434 354.591257 
L 800.605944 354.197896 
L 825.939455 353.173076 
L 851.272965 351.043113 
L 876.606476 347.191226 
L 901.939987 340.71784 
L 927.273497 330.044199 
L 952.607008 315.469769 
L 977.940519 289.354651 
" style="fill:none;stroke:#5cb85c;stroke-linecap:square;"/>
   </g>
   <g id="line2d_72">
    <path clip-path="url(#p6b67384a2c)" d="M 749.938923 354.735605 
L 775.272434 354.731548 
L 800.605944 354.71451 
L 825.939455 354.645839 
L 851.272965 354.444549 
L 876.606476 353.929557 
L 901.939987 352.685302 
L 927.273497 349.527864 
L 952.607008 341.329236 
L 977.940519 299.525987 
" style="fill:none;stroke:#5cb85c;stroke-linecap:square;"/>
   </g>
   <g id="line2d_73">
    <path clip-path="url(#p6b67384a2c)" d="M 699.271902 354.735826 
L 724.605412 354.734867 
L 749.938923 354.727344 
L 775.272434 354.67999 
L 800.605944 354.53011 
L 825.939455 354.117866 
L 851.272965 353.245213 
L 876.606476 351.688585 
L 901.939987 349.034706 
L 927.273497 344.635521 
L 952.607008 338.199531 
L 977.940519 315.412236 
" style="fill:none;stroke:#5cb85c;stroke-linecap:square;"/>
   </g>
   <g id="line2d_74">
    <path clip-path="url(#p6b67384a2c)" d="M 724.605412 354.735826 
L 749.938923 354.735605 
L 775.272434 354.73295 
L 800.605944 354.71119 
L 825.939455 354.624375 
L 851.272965 354.307872 
L 876.606476 353.515322 
L 901.939987 351.510898 
L 927.273497 346.424714 
L 952.607008 334.42819 
L 977.940519 284.005144 
" style="fill:none;stroke:#5cb85c;stroke-linecap:square;"/>
   </g>
   <g id="line2d_75">
    <path clip-path="url(#p6b67384a2c)" d="M 699.271902 354.735826 
L 724.605412 354.735089 
L 749.938923 354.729262 
L 775.272434 354.697766 
L 800.605944 354.572743 
L 825.939455 354.217368 
L 851.272965 353.417074 
L 876.606476 351.758657 
L 901.939987 348.545088 
L 927.273497 341.751584 
L 952.607008 329.551115 
L 977.940519 299.756413 
" style="fill:none;stroke:#5cb85c;stroke-linecap:square;"/>
   </g>
   <g id="line2d_76">
    <path clip-path="url(#p6b67384a2c)" d="M 749.938923 354.735826 
L 775.272434 354.734572 
L 800.605944 354.723213 
L 825.939455 354.681096 
L 851.272965 354.539773 
L 876.606476 354.114547 
L 901.939987 352.969868 
L 927.273497 349.714624 
L 952.607008 341.012289 
L 977.940519 295.891175 
" style="fill:none;stroke:#5cb85c;stroke-linecap:square;"/>
   </g>
   <g id="line2d_77">
    <path clip-path="url(#p6b67384a2c)" d="M 724.605412 354.734941 
L 749.938923 354.726754 
L 775.272434 354.686481 
L 800.605944 354.545305 
L 825.939455 354.146559 
L 851.272965 353.303631 
L 876.606476 351.714549 
L 901.939987 348.848315 
L 927.273497 343.504487 
L 952.607008 333.890186 
L 977.940519 317.751678 
" style="fill:none;stroke:#5cb85c;stroke-linecap:square;"/>
   </g>
   <g id="line2d_78">
    <path clip-path="url(#p6b67384a2c)" d="M 724.605412 354.735752 
L 749.938923 354.735457 
L 775.272434 354.733908 
L 800.605944 354.72491 
L 825.939455 354.680285 
L 851.272965 354.538002 
L 876.606476 354.183439 
L 901.939987 353.275012 
L 927.273497 351.044293 
L 952.607008 345.454403 
L 977.940519 316.237093 
" style="fill:none;stroke:#5cb85c;stroke-linecap:square;"/>
   </g>
   <g id="line2d_79">
    <path clip-path="url(#p6b67384a2c)" d="M 724.605412 354.735679 
L 749.938923 354.732286 
L 775.272434 354.71628 
L 800.605944 354.65469 
L 825.939455 354.471028 
L 851.272965 354.031272 
L 876.606476 353.068927 
L 901.939987 351.234446 
L 927.273497 347.905664 
L 952.607008 342.296965 
L 977.940519 326.495318 
" style="fill:none;stroke:#5cb85c;stroke-linecap:square;"/>
   </g>
   <g id="line2d_80">
    <path clip-path="url(#p6b67384a2c)" d="M 775.272434 354.73472 
L 800.605944 354.729999 
L 825.939455 354.706249 
L 851.272965 354.640602 
L 876.606476 354.463505 
L 901.939987 353.996089 
L 927.273497 352.775953 
L 952.607008 349.265132 
L 977.940519 329.78781 
" style="fill:none;stroke:#5cb85c;stroke-linecap:square;"/>
   </g>
   <g id="line2d_81">
    <path clip-path="url(#p6b67384a2c)" d="M 724.605412 354.735531 
L 749.938923 354.732138 
L 775.272434 354.717903 
L 800.605944 354.661771 
L 825.939455 354.512776 
L 851.272965 354.17739 
L 876.606476 353.555226 
L 901.939987 352.466014 
L 927.273497 350.346968 
L 952.607008 346.67653 
L 977.940519 337.989611 
" style="fill:none;stroke:#5cb85c;stroke-linecap:square;"/>
   </g>
   <g id="line2d_82">
    <path clip-path="url(#p6b67384a2c)" d="M 724.605412 354.735826 
L 749.938923 354.734499 
L 775.272434 354.729704 
L 800.605944 354.686997 
L 825.939455 354.536306 
L 851.272965 354.073241 
L 876.606476 352.972744 
L 901.939987 350.615601 
L 927.273497 345.372972 
L 952.607008 332.618492 
L 977.940519 265.803646 
" style="fill:none;stroke:#5cb85c;stroke-linecap:square;"/>
   </g>
   <g id="line2d_83">
    <path clip-path="url(#p6b67384a2c)" d="M 724.605412 354.73531 
L 749.938923 354.729114 
L 775.272434 354.697914 
L 800.605944 354.569276 
L 825.939455 354.195093 
L 851.272965 353.248754 
L 876.606476 351.363526 
L 901.939987 347.687409 
L 927.273497 340.498995 
L 952.607008 325.756982 
L 977.940519 283.397658 
" style="fill:none;stroke:#5cb85c;stroke-linecap:square;"/>
   </g>
   <g id="line2d_84">
    <path clip-path="url(#p6b67384a2c)" d="M 749.938923 354.735605 
L 775.272434 354.73295 
L 800.605944 354.717608 
L 825.939455 354.64938 
L 851.272965 354.404571 
L 876.606476 353.714547 
L 901.939987 351.826664 
L 927.273497 346.992222 
L 952.607008 336.167226 
L 977.940519 298.314334 
" style="fill:none;stroke:#5cb85c;stroke-linecap:square;"/>
   </g>
   <g id="line2d_85">
    <path clip-path="url(#p6b67384a2c)" d="M 724.605412 354.735384 
L 749.938923 354.727934 
L 775.272434 354.692529 
L 800.605944 354.553639 
L 825.939455 354.14678 
L 851.272965 353.234076 
L 876.606476 351.39657 
L 901.939987 347.897403 
L 927.273497 341.152507 
L 952.607008 331.265736 
L 977.940519 317.188447 
" style="fill:none;stroke:#5cb85c;stroke-linecap:square;"/>
   </g>
   <g id="line2d_86">
    <path clip-path="url(#p6b67384a2c)" d="M 699.271902 354.735826 
L 724.605412 354.7359 
L 749.938923 354.735089 
L 775.272434 354.731106 
L 800.605944 354.702708 
L 825.939455 354.590446 
L 851.272965 354.260149 
L 876.606476 353.483236 
L 901.939987 351.785063 
L 927.273497 347.603912 
L 952.607008 335.600455 
L 977.940519 275.462647 
" style="fill:none;stroke:#5cb85c;stroke-linecap:square;"/>
   </g>
   <g id="line2d_87">
    <path clip-path="url(#p6b67384a2c)" d="M 724.605412 354.73531 
L 749.938923 354.728598 
L 775.272434 354.694152 
L 800.605944 354.553861 
L 825.939455 354.140584 
L 851.272965 353.189894 
L 876.606476 351.291831 
L 901.939987 347.81789 
L 927.273497 341.072477 
L 952.607008 329.458472 
L 977.940519 296.007568 
" style="fill:none;stroke:#5cb85c;stroke-linecap:square;"/>
   </g>
   <g id="line2d_88">
    <path clip-path="url(#p6b67384a2c)" d="M 724.605412 354.735826 
L 749.938923 354.735679 
L 775.272434 354.732876 
L 800.605944 354.710748 
L 825.939455 354.620392 
L 851.272965 354.332876 
L 876.606476 353.601105 
L 901.939987 351.937746 
L 927.273497 348.085195 
L 952.607008 338.852453 
L 977.940519 288.073221 
" style="fill:none;stroke:#5cb85c;stroke-linecap:square;"/>
   </g>
   <g id="line2d_89">
    <path clip-path="url(#p6b67384a2c)" d="M 699.271902 354.735826 
L 724.605412 354.735162 
L 749.938923 354.731179 
L 775.272434 354.702856 
L 800.605944 354.587421 
L 825.939455 354.261698 
L 851.272965 353.483974 
L 876.606476 351.831532 
L 901.939987 348.829432 
L 927.273497 343.273545 
L 952.607008 333.236305 
L 977.940519 304.745087 
" style="fill:none;stroke:#5cb85c;stroke-linecap:square;"/>
   </g>
   <g id="line2d_90">
    <path clip-path="url(#p6b67384a2c)" d="M 775.272434 354.734204 
L 800.605944 354.726459 
L 825.939455 354.691054 
L 851.272965 354.579382 
L 876.606476 354.267377 
L 901.939987 353.424597 
L 927.273497 351.189158 
L 952.607008 345.800779 
L 977.940519 324.232956 
" style="fill:none;stroke:#5cb85c;stroke-linecap:square;"/>
   </g>
   <g id="line2d_91">
    <path clip-path="url(#p6b67384a2c)" d="M 724.605412 354.735531 
L 749.938923 354.733097 
L 775.272434 354.713034 
L 800.605944 354.636841 
L 825.939455 354.425002 
L 851.272965 353.951316 
L 876.606476 353.008002 
L 901.939987 351.246764 
L 927.273497 348.152612 
L 952.607008 343.848503 
L 977.940519 333.667062 
" style="fill:none;stroke:#5cb85c;stroke-linecap:square;"/>
   </g>
   <g id="line2d_92">
    <path clip-path="url(#p6b67384a2c)" d="M 749.938923 354.735752 
L 775.272434 354.734867 
L 800.605944 354.730811 
L 825.939455 354.713551 
L 851.272965 354.656977 
L 876.606476 354.465128 
L 901.939987 353.86546 
L 927.273497 351.912299 
L 952.607008 346.568029 
L 977.940519 335.849764 
" style="fill:none;stroke:#5cb85c;stroke-linecap:square;"/>
   </g>
   <g id="line2d_93">
    <path clip-path="url(#p6b67384a2c)" d="M 699.271902 354.735826 
L 724.605412 354.735826 
L 749.938923 354.731474 
L 775.272434 354.71119 
L 800.605944 354.631972 
L 825.939455 354.414381 
L 851.272965 353.951464 
L 876.606476 353.083679 
L 901.939987 351.4825 
L 927.273497 348.78525 
L 952.607008 346.263106 
L 977.940519 344.177767 
" style="fill:none;stroke:#5cb85c;stroke-linecap:square;"/>
   </g>
   <g id="line2d_94">
    <path clip-path="url(#p6b67384a2c)" d="M 749.938923 354.735679 
L 775.272434 354.733023 
L 800.605944 354.717976 
L 825.939455 354.649748 
L 851.272965 354.411799 
L 876.606476 353.731955 
L 901.939987 351.933689 
L 927.273497 347.135316 
L 952.607008 335.762137 
L 977.940519 290.462303 
" style="fill:none;stroke:#5cb85c;stroke-linecap:square;"/>
   </g>
   <g id="line2d_95">
    <path clip-path="url(#p6b67384a2c)" d="M 699.271902 354.735826 
L 724.605412 354.735015 
L 749.938923 354.728524 
L 775.272434 354.689505 
L 800.605944 354.544936 
L 825.939455 354.128414 
L 851.272965 353.160316 
L 876.606476 351.268228 
L 901.939987 347.63526 
L 927.273497 340.753024 
L 952.607008 330.316668 
L 977.940519 311.04971 
" style="fill:none;stroke:#5cb85c;stroke-linecap:square;"/>
   </g>
   <g id="line2d_96">
    <path clip-path="url(#p6b67384a2c)" d="M 699.271902 354.735826 
L 724.605412 354.735826 
L 749.938923 354.734941 
L 775.272434 354.727344 
L 800.605944 354.683457 
L 825.939455 354.510269 
L 851.272965 353.98532 
L 876.606476 352.700792 
L 901.939987 349.823789 
L 927.273497 342.972679 
L 952.607008 324.213336 
L 977.940519 230.007548 
" style="fill:none;stroke:#5cb85c;stroke-linecap:square;"/>
   </g>
   <g id="line2d_97">
    <path clip-path="url(#p6b67384a2c)" d="M 699.271902 354.735752 
L 724.605412 354.734425 
L 749.938923 354.72373 
L 775.272434 354.661403 
L 800.605944 354.435255 
L 825.939455 353.784619 
L 851.272965 352.223344 
L 876.606476 349.126094 
L 901.939987 343.284978 
L 927.273497 332.01167 
L 952.607008 312.48161 
L 977.940519 265.628245 
" style="fill:none;stroke:#5cb85c;stroke-linecap:square;"/>
   </g>
   <g id="line2d_98">
    <path clip-path="url(#p6b67384a2c)" d="M 724.605412 354.735826 
L 749.938923 354.735384 
L 775.272434 354.732728 
L 800.605944 354.715985 
L 825.939455 354.639938 
L 851.272965 354.372559 
L 876.606476 353.598892 
L 901.939987 351.462733 
L 927.273497 345.601996 
L 952.607008 330.329429 
L 977.940519 278.125008 
" style="fill:none;stroke:#5cb85c;stroke-linecap:square;"/>
   </g>
   <g id="line2d_99">
    <path clip-path="url(#p6b67384a2c)" d="M 699.271902 354.735752 
L 724.605412 354.733097 
L 749.938923 354.715247 
L 775.272434 354.623342 
L 800.605944 354.318124 
L 825.939455 353.543129 
L 851.272965 351.973741 
L 876.606476 349.171826 
L 901.939987 344.477822 
L 927.273497 336.272113 
L 952.607008 323.443209 
L 977.940519 309.778975 
" style="fill:none;stroke:#5cb85c;stroke-linecap:square;"/>
   </g>
   <g id="line2d_100">
    <path clip-path="url(#p6b67384a2c)" d="M 775.272434 354.735015 
L 800.605944 354.729778 
L 825.939455 354.711633 
L 851.272965 354.643774 
L 876.606476 354.437763 
L 901.939987 353.856978 
L 927.273497 352.234925 
L 952.607008 347.992848 
L 977.940519 328.623806 
" style="fill:none;stroke:#5cb85c;stroke-linecap:square;"/>
   </g>
   <g id="line2d_101">
    <path clip-path="url(#p6b67384a2c)" d="M 724.605412 354.735089 
L 749.938923 354.729925 
L 775.272434 354.704626 
L 800.605944 354.617368 
L 825.939455 354.406046 
L 851.272965 353.971158 
L 876.606476 353.184878 
L 901.939987 351.904259 
L 927.273497 349.601108 
L 952.607008 345.714185 
L 977.940519 337.869677 
" style="fill:none;stroke:#5cb85c;stroke-linecap:square;"/>
   </g>
   <g id="line2d_102">
    <path clip-path="url(#p6b67384a2c)" d="M 749.938923 354.735826 
L 775.272434 354.735752 
L 800.605944 354.73354 
L 825.939455 354.72727 
L 851.272965 354.704773 
L 876.606476 354.638906 
L 901.939987 354.44418 
L 927.273497 353.85801 
L 952.607008 352.494854 
L 977.940519 347.930005 
" style="fill:none;stroke:#5cb85c;stroke-linecap:square;"/>
   </g>
   <g id="line2d_103">
    <path clip-path="url(#p6b67384a2c)" d="M 724.605412 354.735605 
L 749.938923 354.733245 
L 775.272434 354.724689 
L 800.605944 354.694816 
L 825.939455 354.617663 
L 851.272965 354.4534 
L 876.606476 354.186389 
L 901.939987 353.742945 
L 927.273497 353.042669 
L 952.607008 352.086962 
L 977.940519 350.720635 
" style="fill:none;stroke:#5cb85c;stroke-linecap:square;"/>
   </g>
   <g id="line2d_104">
    <path clip-path="url(#p6b67384a2c)" d="M 724.605412 354.735826 
L 749.938923 354.735679 
L 775.272434 354.734425 
L 800.605944 354.721443 
L 825.939455 354.668631 
L 851.272965 354.519562 
L 876.606476 354.131143 
L 901.939987 353.213718 
L 927.273497 350.846395 
L 952.607008 344.196502 
L 977.940519 300.289844 
" style="fill:none;stroke:#5cb85c;stroke-linecap:square;"/>
   </g>
   <g id="line2d_105">
    <path clip-path="url(#p6b67384a2c)" d="M 724.605412 354.735679 
L 749.938923 354.731548 
L 775.272434 354.709937 
L 800.605944 354.628358 
L 825.939455 354.405456 
L 851.272965 353.883384 
L 876.606476 352.785026 
L 901.939987 350.73369 
L 927.273497 346.792702 
L 952.607008 339.071299 
L 977.940519 314.316091 
" style="fill:none;stroke:#5cb85c;stroke-linecap:square;"/>
   </g>
   <g id="line2d_106">
    <path clip-path="url(#p6b67384a2c)" d="M 673.938391 354.735826 
L 699.271902 354.7359 
L 724.605412 354.735752 
L 749.938923 354.735605 
L 775.272434 354.732507 
L 800.605944 354.714583 
L 825.939455 354.622679 
L 851.272965 354.326164 
L 876.606476 353.521739 
L 901.939987 351.580158 
L 927.273497 346.738341 
L 952.607008 334.278974 
L 977.940519 260.209257 
" style="fill:none;stroke:#5cb85c;stroke-linecap:square;"/>
   </g>
   <g id="line2d_107">
    <path clip-path="url(#p6b67384a2c)" d="M 699.271902 354.735826 
L 724.605412 354.735605 
L 749.938923 354.729778 
L 775.272434 354.695996 
L 800.605944 354.567728 
L 825.939455 354.173997 
L 851.272965 353.238796 
L 876.606476 351.305993 
L 901.939987 347.477488 
L 927.273497 339.820552 
L 952.607008 324.750897 
L 977.940519 284.698929 
" style="fill:none;stroke:#5cb85c;stroke-linecap:square;"/>
   </g>
   <g id="line2d_108">
    <path clip-path="url(#p6b67384a2c)" d="M 749.938923 354.735605 
L 775.272434 354.732433 
L 800.605944 354.718345 
L 825.939455 354.652256 
L 851.272965 354.43496 
L 876.606476 353.870992 
L 901.939987 352.503779 
L 927.273497 349.200002 
L 952.607008 339.70851 
L 977.940519 273.458001 
" style="fill:none;stroke:#5cb85c;stroke-linecap:square;"/>
   </g>
   <g id="line2d_109">
    <path clip-path="url(#p6b67384a2c)" d="M 724.605412 354.735679 
L 749.938923 354.731991 
L 775.272434 354.704995 
L 800.605944 354.622457 
L 825.939455 354.363782 
L 851.272965 353.68969 
L 876.606476 352.282205 
L 901.939987 349.413094 
L 927.273497 343.317875 
L 952.607008 329.721205 
L 977.940519 295.167812 
" style="fill:none;stroke:#5cb85c;stroke-linecap:square;"/>
   </g>
   <g id="line2d_110">
    <path clip-path="url(#p6b67384a2c)" d="M 724.605412 354.735826 
L 749.938923 354.735752 
L 775.272434 354.733908 
L 800.605944 354.72668 
L 825.939455 354.695996 
L 851.272965 354.59642 
L 876.606476 354.326828 
L 901.939987 353.573076 
L 927.273497 351.65023 
L 952.607008 345.604135 
L 977.940519 316.141426 
" style="fill:none;stroke:#5cb85c;stroke-linecap:square;"/>
   </g>
   <g id="line2d_111">
    <path clip-path="url(#p6b67384a2c)" d="M 699.271902 354.735826 
L 724.605412 354.7359 
L 749.938923 354.733908 
L 775.272434 354.725352 
L 800.605944 354.684858 
L 825.939455 354.559171 
L 851.272965 354.237578 
L 876.606476 353.492383 
L 901.939987 351.951834 
L 927.273497 348.257793 
L 952.607008 341.029254 
L 977.940519 327.112319 
" style="fill:none;stroke:#5cb85c;stroke-linecap:square;"/>
   </g>
   <g id="line2d_112">
    <path clip-path="url(#p6b67384a2c)" d="M 749.938923 354.735531 
L 775.272434 354.734056 
L 800.605944 354.722992 
L 825.939455 354.673647 
L 851.272965 354.513071 
L 876.606476 354.014234 
L 901.939987 352.708463 
L 927.273497 349.224416 
L 952.607008 340.422137 
L 977.940519 307.304332 
" style="fill:none;stroke:#5cb85c;stroke-linecap:square;"/>
   </g>
   <g id="line2d_113">
    <path clip-path="url(#p6b67384a2c)" d="M 724.605412 354.735236 
L 749.938923 354.728967 
L 775.272434 354.695922 
L 800.605944 354.571268 
L 825.939455 354.199518 
L 851.272965 353.355632 
L 876.606476 351.656574 
L 901.939987 348.732881 
L 927.273497 343.262039 
L 952.607008 335.345246 
L 977.940519 326.505497 
" style="fill:none;stroke:#5cb85c;stroke-linecap:square;"/>
   </g>
   <g id="line2d_114">
    <path clip-path="url(#p6b67384a2c)" d="M 699.271902 354.735826 
L 724.605412 354.7359 
L 749.938923 354.735457 
L 775.272434 354.732802 
L 800.605944 354.713625 
L 825.939455 354.647462 
L 851.272965 354.417331 
L 876.606476 353.844807 
L 901.939987 352.398081 
L 927.273497 348.902971 
L 952.607008 338.150481 
L 977.940519 270.402499 
" style="fill:none;stroke:#5cb85c;stroke-linecap:square;"/>
   </g>
   <g id="line2d_115">
    <path clip-path="url(#p6b67384a2c)" d="M 724.605412 354.735162 
L 749.938923 354.732064 
L 775.272434 354.708683 
L 800.605944 354.612131 
L 825.939455 354.342834 
L 851.272965 353.672873 
L 876.606476 352.220837 
L 901.939987 349.355561 
L 927.273497 342.940888 
L 952.607008 329.139387 
L 977.940519 291.220923 
" style="fill:none;stroke:#5cb85c;stroke-linecap:square;"/>
   </g>
   <g id="line2d_116">
    <path clip-path="url(#p6b67384a2c)" d="M 724.605412 354.735826 
L 749.938923 354.735531 
L 775.272434 354.733245 
L 800.605944 354.718566 
L 825.939455 354.660739 
L 851.272965 354.455096 
L 876.606476 353.911339 
L 901.939987 352.527309 
L 927.273497 349.004833 
L 952.607008 339.538125 
L 977.940519 271.420312 
" style="fill:none;stroke:#5cb85c;stroke-linecap:square;"/>
   </g>
   <g id="line2d_117">
    <path clip-path="url(#p6b67384a2c)" d="M 699.271902 354.735826 
L 724.605412 354.735605 
L 749.938923 354.730368 
L 775.272434 354.702708 
L 800.605944 354.602173 
L 825.939455 354.299906 
L 851.272965 353.590188 
L 876.606476 352.088585 
L 901.939987 349.126685 
L 927.273497 342.846033 
L 952.607008 328.231477 
L 977.940519 295.487266 
" style="fill:none;stroke:#5cb85c;stroke-linecap:square;"/>
   </g>
   <g id="line2d_118">
    <path clip-path="url(#p6b67384a2c)" d="M 749.938923 354.735089 
L 775.272434 354.730073 
L 800.605944 354.696586 
L 825.939455 354.554746 
L 851.272965 354.101344 
L 876.606476 352.87693 
L 901.939987 349.730114 
L 927.273497 341.596246 
L 952.607008 325.665741 
L 977.940519 286.723932 
" style="fill:none;stroke:#5cb85c;stroke-linecap:square;"/>
   </g>
   <g id="line2d_119">
    <path clip-path="url(#p6b67384a2c)" d="M 673.938391 354.735826 
L 699.271902 354.735679 
L 724.605412 354.734646 
L 749.938923 354.722992 
L 775.272434 354.652773 
L 800.605944 354.405382 
L 825.939455 353.728488 
L 851.272965 352.224008 
L 876.606476 349.362716 
L 901.939987 344.417118 
L 927.273497 335.437151 
L 952.607008 323.893218 
L 977.940519 306.568504 
" style="fill:none;stroke:#5cb85c;stroke-linecap:square;"/>
   </g>
   <g id="line2d_120">
    <path clip-path="url(#p6b67384a2c)" d="M 724.605412 354.735752 
L 749.938923 354.735384 
L 775.272434 354.729409 
L 800.605944 354.695922 
L 825.939455 354.559098 
L 851.272965 354.170236 
L 876.606476 353.189451 
L 901.939987 351.103449 
L 927.273497 346.261041 
L 952.607008 332.826495 
L 977.940519 237.73581 
" style="fill:none;stroke:#5cb85c;stroke-linecap:square;"/>
   </g>
   <g id="line2d_121">
    <path clip-path="url(#p6b67384a2c)" d="M 699.271902 354.735826 
L 724.605412 354.735531 
L 749.938923 354.731474 
L 775.272434 354.706912 
L 800.605944 354.613459 
L 825.939455 354.291349 
L 851.272965 353.503742 
L 876.606476 351.675899 
L 901.939987 348.076492 
L 927.273497 340.141407 
L 952.607008 322.580661 
L 977.940519 259.685193 
" style="fill:none;stroke:#5cb85c;stroke-linecap:square;"/>
   </g>
   <g id="line2d_122">
    <path clip-path="url(#p6b67384a2c)" d="M 749.938923 354.735384 
L 775.272434 354.731401 
L 800.605944 354.705732 
L 825.939455 354.599813 
L 851.272965 354.25233 
L 876.606476 353.400625 
L 901.939987 351.4201 
L 927.273497 346.847136 
L 952.607008 334.457546 
L 977.940519 263.706506 
" style="fill:none;stroke:#5cb85c;stroke-linecap:square;"/>
   </g>
   <g id="line2d_123">
    <path clip-path="url(#p6b67384a2c)" d="M 699.271902 354.735826 
L 724.605412 354.735531 
L 749.938923 354.728819 
L 775.272434 354.691497 
L 800.605944 354.545157 
L 825.939455 354.116981 
L 851.272965 353.111192 
L 876.606476 351.051595 
L 901.939987 347.150806 
L 927.273497 339.576849 
L 952.607008 324.83668 
L 977.940519 289.047441 
" style="fill:none;stroke:#5cb85c;stroke-linecap:square;"/>
   </g>
   <g id="line2d_124">
    <path clip-path="url(#p6b67384a2c)" d="M 749.938923 354.735679 
L 775.272434 354.734646 
L 800.605944 354.729704 
L 825.939455 354.702708 
L 851.272965 354.607779 
L 876.606476 354.368133 
L 901.939987 353.700238 
L 927.273497 352.133947 
L 952.607008 348.172748 
L 977.940519 328.315195 
" style="fill:none;stroke:#5cb85c;stroke-linecap:square;"/>
   </g>
   <g id="line2d_125">
    <path clip-path="url(#p6b67384a2c)" d="M 724.605412 354.735679 
L 749.938923 354.733097 
L 775.272434 354.717017 
L 800.605944 354.665681 
L 825.939455 354.517202 
L 851.272965 354.182259 
L 876.606476 353.485449 
L 901.939987 352.216042 
L 927.273497 349.737785 
L 952.607008 345.415974 
L 977.940519 336.530493 
" style="fill:none;stroke:#5cb85c;stroke-linecap:square;"/>
   </g>
   <g id="line2d_126">
    <path clip-path="url(#p6b67384a2c)" d="M 749.938923 354.735457 
L 775.272434 354.733908 
L 800.605944 354.71923 
L 825.939455 354.663689 
L 851.272965 354.476413 
L 876.606476 353.899685 
L 901.939987 352.225336 
L 927.273497 347.468268 
L 952.607008 334.405546 
L 977.940519 301.720711 
" style="fill:none;stroke:#5cb85c;stroke-linecap:square;"/>
   </g>
   <g id="line2d_127">
    <path clip-path="url(#p6b67384a2c)" d="M 724.605412 354.734941 
L 749.938923 354.730294 
L 775.272434 354.697471 
L 800.605944 354.575104 
L 825.939455 354.222974 
L 851.272965 353.379309 
L 876.606476 351.657311 
L 901.939987 348.298288 
L 927.273497 341.24301 
L 952.607008 331.060463 
L 977.940519 319.184979 
" style="fill:none;stroke:#5cb85c;stroke-linecap:square;"/>
   </g>
   <g id="line2d_128">
    <path clip-path="url(#p6b67384a2c)" d="M 40.600625 354.7359 
L 993.140625 354.7359 
" style="fill:none;stroke:#dedede;stroke-linecap:square;stroke-width:2;"/>
   </g>
   <g id="text_21">
    <!-- FastQC: Per Sequence Quality Scores -->
    <g transform="translate(368.678125 19.3575)scale(0.16 -0.16)">
     <defs>
      <path d="M 628 4666 
L 3309 4666 
L 3309 4134 
L 1259 4134 
L 1259 2759 
L 3109 2759 
L 3109 2228 
L 1259 2228 
L 1259 0 
L 628 0 
L 628 4666 
z
" id="DejaVuSans-46" transform="scale(0.015625)"/>
      <path d="M 2834 3397 
L 2834 2853 
Q 2591 2978 2328 3040 
Q 2066 3103 1784 3103 
Q 1356 3103 1142 2972 
Q 928 2841 928 2578 
Q 928 2378 1081 2264 
Q 1234 2150 1697 2047 
L 1894 2003 
Q 2506 1872 2764 1633 
Q 3022 1394 3022 966 
Q 3022 478 2636 193 
Q 2250 -91 1575 -91 
Q 1294 -91 989 -36 
Q 684 19 347 128 
L 347 722 
Q 666 556 975 473 
Q 1284 391 1588 391 
Q 1994 391 2212 530 
Q 2431 669 2431 922 
Q 2431 1156 2273 1281 
Q 2116 1406 1581 1522 
L 1381 1569 
Q 847 1681 609 1914 
Q 372 2147 372 2553 
Q 372 3047 722 3315 
Q 1072 3584 1716 3584 
Q 2034 3584 2315 3537 
Q 2597 3491 2834 3397 
z
" id="DejaVuSans-73" transform="scale(0.015625)"/>
      <path d="M 750 794 
L 1409 794 
L 1409 0 
L 750 0 
L 750 794 
z
M 750 3309 
L 1409 3309 
L 1409 2516 
L 750 2516 
L 750 3309 
z
" id="DejaVuSans-3a" transform="scale(0.015625)"/>
     </defs>
     <use xlink:href="#DejaVuSans-46"/>
     <use x="48.394531" xlink:href="#DejaVuSans-61"/>
     <use x="109.673828" xlink:href="#DejaVuSans-73"/>
     <use x="161.773438" xlink:href="#DejaVuSans-74"/>
     <use x="200.982422" xlink:href="#DejaVuSans-51"/>
     <use x="279.693359" xlink:href="#DejaVuSans-43"/>
     <use x="349.517578" xlink:href="#DejaVuSans-3a"/>
     <use x="383.208984" xlink:href="#DejaVuSans-20"/>
     <use x="414.996094" xlink:href="#DejaVuSans-50"/>
     <use x="471.673828" xlink:href="#DejaVuSans-65"/>
     <use x="533.197266" xlink:href="#DejaVuSans-72"/>
     <use x="574.310547" xlink:href="#DejaVuSans-20"/>
     <use x="606.097656" xlink:href="#DejaVuSans-53"/>
     <use x="669.574219" xlink:href="#DejaVuSans-65"/>
     <use x="731.097656" xlink:href="#DejaVuSans-71"/>
     <use x="794.574219" xlink:href="#DejaVuSans-75"/>
     <use x="857.953125" xlink:href="#DejaVuSans-65"/>
     <use x="919.476562" xlink:href="#DejaVuSans-6e"/>
     <use x="982.855469" xlink:href="#DejaVuSans-63"/>
     <use x="1037.835938" xlink:href="#DejaVuSans-65"/>
     <use x="1099.359375" xlink:href="#DejaVuSans-20"/>
     <use x="1131.146484" xlink:href="#DejaVuSans-51"/>
     <use x="1209.857422" xlink:href="#DejaVuSans-75"/>
     <use x="1273.236328" xlink:href="#DejaVuSans-61"/>
     <use x="1334.515625" xlink:href="#DejaVuSans-6c"/>
     <use x="1362.298828" xlink:href="#DejaVuSans-69"/>
     <use x="1390.082031" xlink:href="#DejaVuSans-74"/>
     <use x="1429.291016" xlink:href="#DejaVuSans-79"/>
     <use x="1488.470703" xlink:href="#DejaVuSans-20"/>
     <use x="1520.257812" xlink:href="#DejaVuSans-53"/>
     <use x="1583.734375" xlink:href="#DejaVuSans-63"/>
     <use x="1638.714844" xlink:href="#DejaVuSans-6f"/>
     <use x="1699.896484" xlink:href="#DejaVuSans-72"/>
     <use x="1738.759766" xlink:href="#DejaVuSans-65"/>
     <use x="1800.283203" xlink:href="#DejaVuSans-73"/>
    </g>
   </g>
  </g>
 </g>
 <defs>
  <clipPath id="p6b67384a2c">
   <rect height="319.408" width="952.54" x="40.600625" y="35.3279"/>
  </clipPath>
 </defs>
</svg>
