<?xml version="1.0" encoding="utf-8" standalone="no"?>
<!DOCTYPE svg PUBLIC "-//W3C//DTD SVG 1.1//EN"
  "http://www.w3.org/Graphics/SVG/1.1/DTD/svg11.dtd">
<svg height="390.356525pt" version="1.1" viewBox="0 0 1000.548125 390.356525" width="1000.548125pt" xmlns="http://www.w3.org/2000/svg" xmlns:xlink="http://www.w3.org/1999/xlink">
 <metadata>
  <rdf:RDF xmlns:cc="http://creativecommons.org/ns#" xmlns:dc="http://purl.org/dc/elements/1.1/" xmlns:rdf="http://www.w3.org/1999/02/22-rdf-syntax-ns#">
   <cc:Work>
    <dc:type rdf:resource="http://purl.org/dc/dcmitype/StillImage"/>
    <dc:date>2021-08-30T17:43:24.895950</dc:date>
    <dc:format>image/svg+xml</dc:format>
    <dc:creator>
     <cc:Agent>
      <dc:title>Matplotlib v3.4.2, https://matplotlib.org/</dc:title>
     </cc:Agent>
    </dc:creator>
   </cc:Work>
  </rdf:RDF>
 </metadata>
 <defs>
  <style type="text/css">*{stroke-linecap:butt;stroke-linejoin:round;}</style>
 </defs>
 <g id="figure_1">
  <g id="axes_1">
   <g id="patch_1">
    <path d="M 43.148125 354.7359 
L 993.348125 354.7359 
L 993.348125 35.3279 
L 43.148125 35.3279 
z
" style="fill:#ffffff;"/>
   </g>
   <g id="matplotlib.axis_1">
    <g id="xtick_1">
     <g id="text_1">
      <!-- 1.0 -->
      <g transform="translate(79.977784 367.81465)scale(0.08 -0.08)">
       <defs>
        <path d="M 794 531 
L 1825 531 
L 1825 4091 
L 703 3866 
L 703 4441 
L 1819 4666 
L 2450 4666 
L 2450 531 
L 3481 531 
L 3481 0 
L 794 0 
L 794 531 
z
" id="DejaVuSans-31" transform="scale(0.015625)"/>
        <path d="M 684 794 
L 1344 794 
L 1344 0 
L 684 0 
L 684 794 
z
" id="DejaVuSans-2e" transform="scale(0.015625)"/>
        <path d="M 2034 4250 
Q 1547 4250 1301 3770 
Q 1056 3291 1056 2328 
Q 1056 1369 1301 889 
Q 1547 409 2034 409 
Q 2525 409 2770 889 
Q 3016 1369 3016 2328 
Q 3016 3291 2770 3770 
Q 2525 4250 2034 4250 
z
M 2034 4750 
Q 2819 4750 3233 4129 
Q 3647 3509 3647 2328 
Q 3647 1150 3233 529 
Q 2819 -91 2034 -91 
Q 1250 -91 836 529 
Q 422 1150 422 2328 
Q 422 3509 836 4129 
Q 1250 4750 2034 4750 
z
" id="DejaVuSans-30" transform="scale(0.015625)"/>
       </defs>
       <use xlink:href="#DejaVuSans-31"/>
       <use x="63.623047" xlink:href="#DejaVuSans-2e"/>
       <use x="95.410156" xlink:href="#DejaVuSans-30"/>
      </g>
     </g>
    </g>
    <g id="xtick_2">
     <g id="text_2">
      <!-- 2.0 -->
      <g transform="translate(137.565663 367.81465)scale(0.08 -0.08)">
       <defs>
        <path d="M 1228 531 
L 3431 531 
L 3431 0 
L 469 0 
L 469 531 
Q 828 903 1448 1529 
Q 2069 2156 2228 2338 
Q 2531 2678 2651 2914 
Q 2772 3150 2772 3378 
Q 2772 3750 2511 3984 
Q 2250 4219 1831 4219 
Q 1534 4219 1204 4116 
Q 875 4013 500 3803 
L 500 4441 
Q 881 4594 1212 4672 
Q 1544 4750 1819 4750 
Q 2544 4750 2975 4387 
Q 3406 4025 3406 3419 
Q 3406 3131 3298 2873 
Q 3191 2616 2906 2266 
Q 2828 2175 2409 1742 
Q 1991 1309 1228 531 
z
" id="DejaVuSans-32" transform="scale(0.015625)"/>
       </defs>
       <use xlink:href="#DejaVuSans-32"/>
       <use x="63.623047" xlink:href="#DejaVuSans-2e"/>
       <use x="95.410156" xlink:href="#DejaVuSans-30"/>
      </g>
     </g>
    </g>
    <g id="xtick_3">
     <g id="text_3">
      <!-- 3.0 -->
      <g transform="translate(195.153542 367.81465)scale(0.08 -0.08)">
       <defs>
        <path d="M 2597 2516 
Q 3050 2419 3304 2112 
Q 3559 1806 3559 1356 
Q 3559 666 3084 287 
Q 2609 -91 1734 -91 
Q 1441 -91 1130 -33 
Q 819 25 488 141 
L 488 750 
Q 750 597 1062 519 
Q 1375 441 1716 441 
Q 2309 441 2620 675 
Q 2931 909 2931 1356 
Q 2931 1769 2642 2001 
Q 2353 2234 1838 2234 
L 1294 2234 
L 1294 2753 
L 1863 2753 
Q 2328 2753 2575 2939 
Q 2822 3125 2822 3475 
Q 2822 3834 2567 4026 
Q 2313 4219 1838 4219 
Q 1578 4219 1281 4162 
Q 984 4106 628 3988 
L 628 4550 
Q 988 4650 1302 4700 
Q 1616 4750 1894 4750 
Q 2613 4750 3031 4423 
Q 3450 4097 3450 3541 
Q 3450 3153 3228 2886 
Q 3006 2619 2597 2516 
z
" id="DejaVuSans-33" transform="scale(0.015625)"/>
       </defs>
       <use xlink:href="#DejaVuSans-33"/>
       <use x="63.623047" xlink:href="#DejaVuSans-2e"/>
       <use x="95.410156" xlink:href="#DejaVuSans-30"/>
      </g>
     </g>
    </g>
    <g id="xtick_4">
     <g id="text_4">
      <!-- 4.0 -->
      <g transform="translate(252.74142 367.81465)scale(0.08 -0.08)">
       <defs>
        <path d="M 2419 4116 
L 825 1625 
L 2419 1625 
L 2419 4116 
z
M 2253 4666 
L 3047 4666 
L 3047 1625 
L 3713 1625 
L 3713 1100 
L 3047 1100 
L 3047 0 
L 2419 0 
L 2419 1100 
L 313 1100 
L 313 1709 
L 2253 4666 
z
" id="DejaVuSans-34" transform="scale(0.015625)"/>
       </defs>
       <use xlink:href="#DejaVuSans-34"/>
       <use x="63.623047" xlink:href="#DejaVuSans-2e"/>
       <use x="95.410156" xlink:href="#DejaVuSans-30"/>
      </g>
     </g>
    </g>
    <g id="xtick_5">
     <g id="text_5">
      <!-- 5.0 -->
      <g transform="translate(310.329299 367.81465)scale(0.08 -0.08)">
       <defs>
        <path d="M 691 4666 
L 3169 4666 
L 3169 4134 
L 1269 4134 
L 1269 2991 
Q 1406 3038 1543 3061 
Q 1681 3084 1819 3084 
Q 2600 3084 3056 2656 
Q 3513 2228 3513 1497 
Q 3513 744 3044 326 
Q 2575 -91 1722 -91 
Q 1428 -91 1123 -41 
Q 819 9 494 109 
L 494 744 
Q 775 591 1075 516 
Q 1375 441 1709 441 
Q 2250 441 2565 725 
Q 2881 1009 2881 1497 
Q 2881 1984 2565 2268 
Q 2250 2553 1709 2553 
Q 1456 2553 1204 2497 
Q 953 2441 691 2322 
L 691 4666 
z
" id="DejaVuSans-35" transform="scale(0.015625)"/>
       </defs>
       <use xlink:href="#DejaVuSans-35"/>
       <use x="63.623047" xlink:href="#DejaVuSans-2e"/>
       <use x="95.410156" xlink:href="#DejaVuSans-30"/>
      </g>
     </g>
    </g>
    <g id="xtick_6">
     <g id="text_6">
      <!-- 6.0 -->
      <g transform="translate(367.917178 367.81465)scale(0.08 -0.08)">
       <defs>
        <path d="M 2113 2584 
Q 1688 2584 1439 2293 
Q 1191 2003 1191 1497 
Q 1191 994 1439 701 
Q 1688 409 2113 409 
Q 2538 409 2786 701 
Q 3034 994 3034 1497 
Q 3034 2003 2786 2293 
Q 2538 2584 2113 2584 
z
M 3366 4563 
L 3366 3988 
Q 3128 4100 2886 4159 
Q 2644 4219 2406 4219 
Q 1781 4219 1451 3797 
Q 1122 3375 1075 2522 
Q 1259 2794 1537 2939 
Q 1816 3084 2150 3084 
Q 2853 3084 3261 2657 
Q 3669 2231 3669 1497 
Q 3669 778 3244 343 
Q 2819 -91 2113 -91 
Q 1303 -91 875 529 
Q 447 1150 447 2328 
Q 447 3434 972 4092 
Q 1497 4750 2381 4750 
Q 2619 4750 2861 4703 
Q 3103 4656 3366 4563 
z
" id="DejaVuSans-36" transform="scale(0.015625)"/>
       </defs>
       <use xlink:href="#DejaVuSans-36"/>
       <use x="63.623047" xlink:href="#DejaVuSans-2e"/>
       <use x="95.410156" xlink:href="#DejaVuSans-30"/>
      </g>
     </g>
    </g>
    <g id="xtick_7">
     <g id="text_7">
      <!-- 7.0 -->
      <g transform="translate(425.505057 367.81465)scale(0.08 -0.08)">
       <defs>
        <path d="M 525 4666 
L 3525 4666 
L 3525 4397 
L 1831 0 
L 1172 0 
L 2766 4134 
L 525 4134 
L 525 4666 
z
" id="DejaVuSans-37" transform="scale(0.015625)"/>
       </defs>
       <use xlink:href="#DejaVuSans-37"/>
       <use x="63.623047" xlink:href="#DejaVuSans-2e"/>
       <use x="95.410156" xlink:href="#DejaVuSans-30"/>
      </g>
     </g>
    </g>
    <g id="xtick_8">
     <g id="text_8">
      <!-- 8.0 -->
      <g transform="translate(483.092936 367.81465)scale(0.08 -0.08)">
       <defs>
        <path d="M 2034 2216 
Q 1584 2216 1326 1975 
Q 1069 1734 1069 1313 
Q 1069 891 1326 650 
Q 1584 409 2034 409 
Q 2484 409 2743 651 
Q 3003 894 3003 1313 
Q 3003 1734 2745 1975 
Q 2488 2216 2034 2216 
z
M 1403 2484 
Q 997 2584 770 2862 
Q 544 3141 544 3541 
Q 544 4100 942 4425 
Q 1341 4750 2034 4750 
Q 2731 4750 3128 4425 
Q 3525 4100 3525 3541 
Q 3525 3141 3298 2862 
Q 3072 2584 2669 2484 
Q 3125 2378 3379 2068 
Q 3634 1759 3634 1313 
Q 3634 634 3220 271 
Q 2806 -91 2034 -91 
Q 1263 -91 848 271 
Q 434 634 434 1313 
Q 434 1759 690 2068 
Q 947 2378 1403 2484 
z
M 1172 3481 
Q 1172 3119 1398 2916 
Q 1625 2713 2034 2713 
Q 2441 2713 2670 2916 
Q 2900 3119 2900 3481 
Q 2900 3844 2670 4047 
Q 2441 4250 2034 4250 
Q 1625 4250 1398 4047 
Q 1172 3844 1172 3481 
z
" id="DejaVuSans-38" transform="scale(0.015625)"/>
       </defs>
       <use xlink:href="#DejaVuSans-38"/>
       <use x="63.623047" xlink:href="#DejaVuSans-2e"/>
       <use x="95.410156" xlink:href="#DejaVuSans-30"/>
      </g>
     </g>
    </g>
    <g id="xtick_9">
     <g id="text_9">
      <!-- 9.0 -->
      <g transform="translate(540.680814 367.81465)scale(0.08 -0.08)">
       <defs>
        <path d="M 703 97 
L 703 672 
Q 941 559 1184 500 
Q 1428 441 1663 441 
Q 2288 441 2617 861 
Q 2947 1281 2994 2138 
Q 2813 1869 2534 1725 
Q 2256 1581 1919 1581 
Q 1219 1581 811 2004 
Q 403 2428 403 3163 
Q 403 3881 828 4315 
Q 1253 4750 1959 4750 
Q 2769 4750 3195 4129 
Q 3622 3509 3622 2328 
Q 3622 1225 3098 567 
Q 2575 -91 1691 -91 
Q 1453 -91 1209 -44 
Q 966 3 703 97 
z
M 1959 2075 
Q 2384 2075 2632 2365 
Q 2881 2656 2881 3163 
Q 2881 3666 2632 3958 
Q 2384 4250 1959 4250 
Q 1534 4250 1286 3958 
Q 1038 3666 1038 3163 
Q 1038 2656 1286 2365 
Q 1534 2075 1959 2075 
z
" id="DejaVuSans-39" transform="scale(0.015625)"/>
       </defs>
       <use xlink:href="#DejaVuSans-39"/>
       <use x="63.623047" xlink:href="#DejaVuSans-2e"/>
       <use x="95.410156" xlink:href="#DejaVuSans-30"/>
      </g>
     </g>
    </g>
    <g id="xtick_10">
     <g id="text_10">
      <!-- &gt;10 -->
      <g transform="translate(596.188068 367.81465)scale(0.08 -0.08)">
       <defs>
        <path d="M 678 3150 
L 678 3719 
L 4684 2266 
L 4684 1747 
L 678 294 
L 678 863 
L 3897 2003 
L 678 3150 
z
" id="DejaVuSans-3e" transform="scale(0.015625)"/>
       </defs>
       <use xlink:href="#DejaVuSans-3e"/>
       <use x="83.789062" xlink:href="#DejaVuSans-31"/>
       <use x="147.412109" xlink:href="#DejaVuSans-30"/>
      </g>
     </g>
    </g>
    <g id="xtick_11">
     <g id="text_11">
      <!-- &gt;50 -->
      <g transform="translate(653.775947 367.81465)scale(0.08 -0.08)">
       <use xlink:href="#DejaVuSans-3e"/>
       <use x="83.789062" xlink:href="#DejaVuSans-35"/>
       <use x="147.412109" xlink:href="#DejaVuSans-30"/>
      </g>
     </g>
    </g>
    <g id="xtick_12">
     <g id="text_12">
      <!-- &gt;100 -->
      <g transform="translate(708.818826 367.81465)scale(0.08 -0.08)">
       <use xlink:href="#DejaVuSans-3e"/>
       <use x="83.789062" xlink:href="#DejaVuSans-31"/>
       <use x="147.412109" xlink:href="#DejaVuSans-30"/>
       <use x="211.035156" xlink:href="#DejaVuSans-30"/>
      </g>
     </g>
    </g>
    <g id="xtick_13">
     <g id="text_13">
      <!-- &gt;500 -->
      <g transform="translate(766.406705 367.81465)scale(0.08 -0.08)">
       <use xlink:href="#DejaVuSans-3e"/>
       <use x="83.789062" xlink:href="#DejaVuSans-35"/>
       <use x="147.412109" xlink:href="#DejaVuSans-30"/>
       <use x="211.035156" xlink:href="#DejaVuSans-30"/>
      </g>
     </g>
    </g>
    <g id="xtick_14">
     <g id="text_14">
      <!-- &gt;1k -->
      <g transform="translate(826.768333 367.81465)scale(0.08 -0.08)">
       <defs>
        <path d="M 581 4863 
L 1159 4863 
L 1159 1991 
L 2875 3500 
L 3609 3500 
L 1753 1863 
L 3688 0 
L 2938 0 
L 1159 1709 
L 1159 0 
L 581 0 
L 581 4863 
z
" id="DejaVuSans-6b" transform="scale(0.015625)"/>
       </defs>
       <use xlink:href="#DejaVuSans-3e"/>
       <use x="83.789062" xlink:href="#DejaVuSans-31"/>
       <use x="147.412109" xlink:href="#DejaVuSans-6b"/>
      </g>
     </g>
    </g>
    <g id="xtick_15">
     <g id="text_15">
      <!-- &gt;5k -->
      <g transform="translate(884.356212 367.81465)scale(0.08 -0.08)">
       <use xlink:href="#DejaVuSans-3e"/>
       <use x="83.789062" xlink:href="#DejaVuSans-35"/>
       <use x="147.412109" xlink:href="#DejaVuSans-6b"/>
      </g>
     </g>
    </g>
    <g id="xtick_16">
     <g id="text_16">
      <!-- &gt;10k+ -->
      <g transform="translate(936.047216 367.81465)scale(0.08 -0.08)">
       <defs>
        <path d="M 2944 4013 
L 2944 2272 
L 4684 2272 
L 4684 1741 
L 2944 1741 
L 2944 0 
L 2419 0 
L 2419 1741 
L 678 1741 
L 678 2272 
L 2419 2272 
L 2419 4013 
L 2944 4013 
z
" id="DejaVuSans-2b" transform="scale(0.015625)"/>
       </defs>
       <use xlink:href="#DejaVuSans-3e"/>
       <use x="83.789062" xlink:href="#DejaVuSans-31"/>
       <use x="147.412109" xlink:href="#DejaVuSans-30"/>
       <use x="211.035156" xlink:href="#DejaVuSans-6b"/>
       <use x="268.945312" xlink:href="#DejaVuSans-2b"/>
      </g>
     </g>
    </g>
    <g id="text_17">
     <!-- Sequence Duplication Level -->
     <g transform="translate(448.843438 381.076838)scale(0.1 -0.1)">
      <defs>
       <path d="M 3425 4513 
L 3425 3897 
Q 3066 4069 2747 4153 
Q 2428 4238 2131 4238 
Q 1616 4238 1336 4038 
Q 1056 3838 1056 3469 
Q 1056 3159 1242 3001 
Q 1428 2844 1947 2747 
L 2328 2669 
Q 3034 2534 3370 2195 
Q 3706 1856 3706 1288 
Q 3706 609 3251 259 
Q 2797 -91 1919 -91 
Q 1588 -91 1214 -16 
Q 841 59 441 206 
L 441 856 
Q 825 641 1194 531 
Q 1563 422 1919 422 
Q 2459 422 2753 634 
Q 3047 847 3047 1241 
Q 3047 1584 2836 1778 
Q 2625 1972 2144 2069 
L 1759 2144 
Q 1053 2284 737 2584 
Q 422 2884 422 3419 
Q 422 4038 858 4394 
Q 1294 4750 2059 4750 
Q 2388 4750 2728 4690 
Q 3069 4631 3425 4513 
z
" id="DejaVuSans-53" transform="scale(0.015625)"/>
       <path d="M 3597 1894 
L 3597 1613 
L 953 1613 
Q 991 1019 1311 708 
Q 1631 397 2203 397 
Q 2534 397 2845 478 
Q 3156 559 3463 722 
L 3463 178 
Q 3153 47 2828 -22 
Q 2503 -91 2169 -91 
Q 1331 -91 842 396 
Q 353 884 353 1716 
Q 353 2575 817 3079 
Q 1281 3584 2069 3584 
Q 2775 3584 3186 3129 
Q 3597 2675 3597 1894 
z
M 3022 2063 
Q 3016 2534 2758 2815 
Q 2500 3097 2075 3097 
Q 1594 3097 1305 2825 
Q 1016 2553 972 2059 
L 3022 2063 
z
" id="DejaVuSans-65" transform="scale(0.015625)"/>
       <path d="M 947 1747 
Q 947 1113 1208 752 
Q 1469 391 1925 391 
Q 2381 391 2643 752 
Q 2906 1113 2906 1747 
Q 2906 2381 2643 2742 
Q 2381 3103 1925 3103 
Q 1469 3103 1208 2742 
Q 947 2381 947 1747 
z
M 2906 525 
Q 2725 213 2448 61 
Q 2172 -91 1784 -91 
Q 1150 -91 751 415 
Q 353 922 353 1747 
Q 353 2572 751 3078 
Q 1150 3584 1784 3584 
Q 2172 3584 2448 3432 
Q 2725 3281 2906 2969 
L 2906 3500 
L 3481 3500 
L 3481 -1331 
L 2906 -1331 
L 2906 525 
z
" id="DejaVuSans-71" transform="scale(0.015625)"/>
       <path d="M 544 1381 
L 544 3500 
L 1119 3500 
L 1119 1403 
Q 1119 906 1312 657 
Q 1506 409 1894 409 
Q 2359 409 2629 706 
Q 2900 1003 2900 1516 
L 2900 3500 
L 3475 3500 
L 3475 0 
L 2900 0 
L 2900 538 
Q 2691 219 2414 64 
Q 2138 -91 1772 -91 
Q 1169 -91 856 284 
Q 544 659 544 1381 
z
M 1991 3584 
L 1991 3584 
z
" id="DejaVuSans-75" transform="scale(0.015625)"/>
       <path d="M 3513 2113 
L 3513 0 
L 2938 0 
L 2938 2094 
Q 2938 2591 2744 2837 
Q 2550 3084 2163 3084 
Q 1697 3084 1428 2787 
Q 1159 2491 1159 1978 
L 1159 0 
L 581 0 
L 581 3500 
L 1159 3500 
L 1159 2956 
Q 1366 3272 1645 3428 
Q 1925 3584 2291 3584 
Q 2894 3584 3203 3211 
Q 3513 2838 3513 2113 
z
" id="DejaVuSans-6e" transform="scale(0.015625)"/>
       <path d="M 3122 3366 
L 3122 2828 
Q 2878 2963 2633 3030 
Q 2388 3097 2138 3097 
Q 1578 3097 1268 2742 
Q 959 2388 959 1747 
Q 959 1106 1268 751 
Q 1578 397 2138 397 
Q 2388 397 2633 464 
Q 2878 531 3122 666 
L 3122 134 
Q 2881 22 2623 -34 
Q 2366 -91 2075 -91 
Q 1284 -91 818 406 
Q 353 903 353 1747 
Q 353 2603 823 3093 
Q 1294 3584 2113 3584 
Q 2378 3584 2631 3529 
Q 2884 3475 3122 3366 
z
" id="DejaVuSans-63" transform="scale(0.015625)"/>
       <path id="DejaVuSans-20" transform="scale(0.015625)"/>
       <path d="M 1259 4147 
L 1259 519 
L 2022 519 
Q 2988 519 3436 956 
Q 3884 1394 3884 2338 
Q 3884 3275 3436 3711 
Q 2988 4147 2022 4147 
L 1259 4147 
z
M 628 4666 
L 1925 4666 
Q 3281 4666 3915 4102 
Q 4550 3538 4550 2338 
Q 4550 1131 3912 565 
Q 3275 0 1925 0 
L 628 0 
L 628 4666 
z
" id="DejaVuSans-44" transform="scale(0.015625)"/>
       <path d="M 1159 525 
L 1159 -1331 
L 581 -1331 
L 581 3500 
L 1159 3500 
L 1159 2969 
Q 1341 3281 1617 3432 
Q 1894 3584 2278 3584 
Q 2916 3584 3314 3078 
Q 3713 2572 3713 1747 
Q 3713 922 3314 415 
Q 2916 -91 2278 -91 
Q 1894 -91 1617 61 
Q 1341 213 1159 525 
z
M 3116 1747 
Q 3116 2381 2855 2742 
Q 2594 3103 2138 3103 
Q 1681 3103 1420 2742 
Q 1159 2381 1159 1747 
Q 1159 1113 1420 752 
Q 1681 391 2138 391 
Q 2594 391 2855 752 
Q 3116 1113 3116 1747 
z
" id="DejaVuSans-70" transform="scale(0.015625)"/>
       <path d="M 603 4863 
L 1178 4863 
L 1178 0 
L 603 0 
L 603 4863 
z
" id="DejaVuSans-6c" transform="scale(0.015625)"/>
       <path d="M 603 3500 
L 1178 3500 
L 1178 0 
L 603 0 
L 603 3500 
z
M 603 4863 
L 1178 4863 
L 1178 4134 
L 603 4134 
L 603 4863 
z
" id="DejaVuSans-69" transform="scale(0.015625)"/>
       <path d="M 2194 1759 
Q 1497 1759 1228 1600 
Q 959 1441 959 1056 
Q 959 750 1161 570 
Q 1363 391 1709 391 
Q 2188 391 2477 730 
Q 2766 1069 2766 1631 
L 2766 1759 
L 2194 1759 
z
M 3341 1997 
L 3341 0 
L 2766 0 
L 2766 531 
Q 2569 213 2275 61 
Q 1981 -91 1556 -91 
Q 1019 -91 701 211 
Q 384 513 384 1019 
Q 384 1609 779 1909 
Q 1175 2209 1959 2209 
L 2766 2209 
L 2766 2266 
Q 2766 2663 2505 2880 
Q 2244 3097 1772 3097 
Q 1472 3097 1187 3025 
Q 903 2953 641 2809 
L 641 3341 
Q 956 3463 1253 3523 
Q 1550 3584 1831 3584 
Q 2591 3584 2966 3190 
Q 3341 2797 3341 1997 
z
" id="DejaVuSans-61" transform="scale(0.015625)"/>
       <path d="M 1172 4494 
L 1172 3500 
L 2356 3500 
L 2356 3053 
L 1172 3053 
L 1172 1153 
Q 1172 725 1289 603 
Q 1406 481 1766 481 
L 2356 481 
L 2356 0 
L 1766 0 
Q 1100 0 847 248 
Q 594 497 594 1153 
L 594 3053 
L 172 3053 
L 172 3500 
L 594 3500 
L 594 4494 
L 1172 4494 
z
" id="DejaVuSans-74" transform="scale(0.015625)"/>
       <path d="M 1959 3097 
Q 1497 3097 1228 2736 
Q 959 2375 959 1747 
Q 959 1119 1226 758 
Q 1494 397 1959 397 
Q 2419 397 2687 759 
Q 2956 1122 2956 1747 
Q 2956 2369 2687 2733 
Q 2419 3097 1959 3097 
z
M 1959 3584 
Q 2709 3584 3137 3096 
Q 3566 2609 3566 1747 
Q 3566 888 3137 398 
Q 2709 -91 1959 -91 
Q 1206 -91 779 398 
Q 353 888 353 1747 
Q 353 2609 779 3096 
Q 1206 3584 1959 3584 
z
" id="DejaVuSans-6f" transform="scale(0.015625)"/>
       <path d="M 628 4666 
L 1259 4666 
L 1259 531 
L 3531 531 
L 3531 0 
L 628 0 
L 628 4666 
z
" id="DejaVuSans-4c" transform="scale(0.015625)"/>
       <path d="M 191 3500 
L 800 3500 
L 1894 563 
L 2988 3500 
L 3597 3500 
L 2284 0 
L 1503 0 
L 191 3500 
z
" id="DejaVuSans-76" transform="scale(0.015625)"/>
      </defs>
      <use xlink:href="#DejaVuSans-53"/>
      <use x="63.476562" xlink:href="#DejaVuSans-65"/>
      <use x="125" xlink:href="#DejaVuSans-71"/>
      <use x="188.476562" xlink:href="#DejaVuSans-75"/>
      <use x="251.855469" xlink:href="#DejaVuSans-65"/>
      <use x="313.378906" xlink:href="#DejaVuSans-6e"/>
      <use x="376.757812" xlink:href="#DejaVuSans-63"/>
      <use x="431.738281" xlink:href="#DejaVuSans-65"/>
      <use x="493.261719" xlink:href="#DejaVuSans-20"/>
      <use x="525.048828" xlink:href="#DejaVuSans-44"/>
      <use x="602.050781" xlink:href="#DejaVuSans-75"/>
      <use x="665.429688" xlink:href="#DejaVuSans-70"/>
      <use x="728.90625" xlink:href="#DejaVuSans-6c"/>
      <use x="756.689453" xlink:href="#DejaVuSans-69"/>
      <use x="784.472656" xlink:href="#DejaVuSans-63"/>
      <use x="839.453125" xlink:href="#DejaVuSans-61"/>
      <use x="900.732422" xlink:href="#DejaVuSans-74"/>
      <use x="939.941406" xlink:href="#DejaVuSans-69"/>
      <use x="967.724609" xlink:href="#DejaVuSans-6f"/>
      <use x="1028.90625" xlink:href="#DejaVuSans-6e"/>
      <use x="1092.285156" xlink:href="#DejaVuSans-20"/>
      <use x="1124.072266" xlink:href="#DejaVuSans-4c"/>
      <use x="1178.035156" xlink:href="#DejaVuSans-65"/>
      <use x="1239.558594" xlink:href="#DejaVuSans-76"/>
      <use x="1298.738281" xlink:href="#DejaVuSans-65"/>
      <use x="1360.261719" xlink:href="#DejaVuSans-6c"/>
     </g>
    </g>
   </g>
   <g id="matplotlib.axis_2">
    <g id="ytick_1">
     <g id="line2d_1">
      <path clip-path="url(#pe15c5fec7b)" d="M 43.148125 354.7359 
L 993.348125 354.7359 
" style="fill:none;stroke:#dedede;stroke-linecap:square;"/>
     </g>
     <g id="text_18">
      <!-- 0 -->
      <g transform="translate(31.058125 357.775275)scale(0.08 -0.08)">
       <use xlink:href="#DejaVuSans-30"/>
      </g>
     </g>
    </g>
    <g id="ytick_2">
     <g id="line2d_2">
      <path clip-path="url(#pe15c5fec7b)" d="M 43.148125 290.8543 
L 993.348125 290.8543 
" style="fill:none;stroke:#dedede;stroke-linecap:square;"/>
     </g>
     <g id="text_19">
      <!-- 20 -->
      <g transform="translate(25.968125 293.893675)scale(0.08 -0.08)">
       <use xlink:href="#DejaVuSans-32"/>
       <use x="63.623047" xlink:href="#DejaVuSans-30"/>
      </g>
     </g>
    </g>
    <g id="ytick_3">
     <g id="line2d_3">
      <path clip-path="url(#pe15c5fec7b)" d="M 43.148125 226.9727 
L 993.348125 226.9727 
" style="fill:none;stroke:#dedede;stroke-linecap:square;"/>
     </g>
     <g id="text_20">
      <!-- 40 -->
      <g transform="translate(25.968125 230.012075)scale(0.08 -0.08)">
       <use xlink:href="#DejaVuSans-34"/>
       <use x="63.623047" xlink:href="#DejaVuSans-30"/>
      </g>
     </g>
    </g>
    <g id="ytick_4">
     <g id="line2d_4">
      <path clip-path="url(#pe15c5fec7b)" d="M 43.148125 163.0911 
L 993.348125 163.0911 
" style="fill:none;stroke:#dedede;stroke-linecap:square;"/>
     </g>
     <g id="text_21">
      <!-- 60 -->
      <g transform="translate(25.968125 166.130475)scale(0.08 -0.08)">
       <use xlink:href="#DejaVuSans-36"/>
       <use x="63.623047" xlink:href="#DejaVuSans-30"/>
      </g>
     </g>
    </g>
    <g id="ytick_5">
     <g id="line2d_5">
      <path clip-path="url(#pe15c5fec7b)" d="M 43.148125 99.2095 
L 993.348125 99.2095 
" style="fill:none;stroke:#dedede;stroke-linecap:square;"/>
     </g>
     <g id="text_22">
      <!-- 80 -->
      <g transform="translate(25.968125 102.248875)scale(0.08 -0.08)">
       <use xlink:href="#DejaVuSans-38"/>
       <use x="63.623047" xlink:href="#DejaVuSans-30"/>
      </g>
     </g>
    </g>
    <g id="ytick_6">
     <g id="line2d_6">
      <path clip-path="url(#pe15c5fec7b)" d="M 43.148125 35.3279 
L 993.348125 35.3279 
" style="fill:none;stroke:#dedede;stroke-linecap:square;"/>
     </g>
     <g id="text_23">
      <!-- 100 -->
      <g transform="translate(20.878125 38.367275)scale(0.08 -0.08)">
       <use xlink:href="#DejaVuSans-31"/>
       <use x="63.623047" xlink:href="#DejaVuSans-30"/>
       <use x="127.246094" xlink:href="#DejaVuSans-30"/>
      </g>
     </g>
    </g>
    <g id="text_24">
     <!-- % of Library -->
     <g transform="translate(14.798437 225.263931)rotate(-90)scale(0.1 -0.1)">
      <defs>
       <path d="M 4653 2053 
Q 4381 2053 4226 1822 
Q 4072 1591 4072 1178 
Q 4072 772 4226 539 
Q 4381 306 4653 306 
Q 4919 306 5073 539 
Q 5228 772 5228 1178 
Q 5228 1588 5073 1820 
Q 4919 2053 4653 2053 
z
M 4653 2450 
Q 5147 2450 5437 2106 
Q 5728 1763 5728 1178 
Q 5728 594 5436 251 
Q 5144 -91 4653 -91 
Q 4153 -91 3862 251 
Q 3572 594 3572 1178 
Q 3572 1766 3864 2108 
Q 4156 2450 4653 2450 
z
M 1428 4353 
Q 1159 4353 1004 4120 
Q 850 3888 850 3481 
Q 850 3069 1003 2837 
Q 1156 2606 1428 2606 
Q 1700 2606 1854 2837 
Q 2009 3069 2009 3481 
Q 2009 3884 1853 4118 
Q 1697 4353 1428 4353 
z
M 4250 4750 
L 4750 4750 
L 1831 -91 
L 1331 -91 
L 4250 4750 
z
M 1428 4750 
Q 1922 4750 2215 4408 
Q 2509 4066 2509 3481 
Q 2509 2891 2217 2550 
Q 1925 2209 1428 2209 
Q 931 2209 642 2551 
Q 353 2894 353 3481 
Q 353 4063 643 4406 
Q 934 4750 1428 4750 
z
" id="DejaVuSans-25" transform="scale(0.015625)"/>
       <path d="M 2375 4863 
L 2375 4384 
L 1825 4384 
Q 1516 4384 1395 4259 
Q 1275 4134 1275 3809 
L 1275 3500 
L 2222 3500 
L 2222 3053 
L 1275 3053 
L 1275 0 
L 697 0 
L 697 3053 
L 147 3053 
L 147 3500 
L 697 3500 
L 697 3744 
Q 697 4328 969 4595 
Q 1241 4863 1831 4863 
L 2375 4863 
z
" id="DejaVuSans-66" transform="scale(0.015625)"/>
       <path d="M 3116 1747 
Q 3116 2381 2855 2742 
Q 2594 3103 2138 3103 
Q 1681 3103 1420 2742 
Q 1159 2381 1159 1747 
Q 1159 1113 1420 752 
Q 1681 391 2138 391 
Q 2594 391 2855 752 
Q 3116 1113 3116 1747 
z
M 1159 2969 
Q 1341 3281 1617 3432 
Q 1894 3584 2278 3584 
Q 2916 3584 3314 3078 
Q 3713 2572 3713 1747 
Q 3713 922 3314 415 
Q 2916 -91 2278 -91 
Q 1894 -91 1617 61 
Q 1341 213 1159 525 
L 1159 0 
L 581 0 
L 581 4863 
L 1159 4863 
L 1159 2969 
z
" id="DejaVuSans-62" transform="scale(0.015625)"/>
       <path d="M 2631 2963 
Q 2534 3019 2420 3045 
Q 2306 3072 2169 3072 
Q 1681 3072 1420 2755 
Q 1159 2438 1159 1844 
L 1159 0 
L 581 0 
L 581 3500 
L 1159 3500 
L 1159 2956 
Q 1341 3275 1631 3429 
Q 1922 3584 2338 3584 
Q 2397 3584 2469 3576 
Q 2541 3569 2628 3553 
L 2631 2963 
z
" id="DejaVuSans-72" transform="scale(0.015625)"/>
       <path d="M 2059 -325 
Q 1816 -950 1584 -1140 
Q 1353 -1331 966 -1331 
L 506 -1331 
L 506 -850 
L 844 -850 
Q 1081 -850 1212 -737 
Q 1344 -625 1503 -206 
L 1606 56 
L 191 3500 
L 800 3500 
L 1894 763 
L 2988 3500 
L 3597 3500 
L 2059 -325 
z
" id="DejaVuSans-79" transform="scale(0.015625)"/>
      </defs>
      <use xlink:href="#DejaVuSans-25"/>
      <use x="95.019531" xlink:href="#DejaVuSans-20"/>
      <use x="126.806641" xlink:href="#DejaVuSans-6f"/>
      <use x="187.988281" xlink:href="#DejaVuSans-66"/>
      <use x="223.193359" xlink:href="#DejaVuSans-20"/>
      <use x="254.980469" xlink:href="#DejaVuSans-4c"/>
      <use x="310.693359" xlink:href="#DejaVuSans-69"/>
      <use x="338.476562" xlink:href="#DejaVuSans-62"/>
      <use x="401.953125" xlink:href="#DejaVuSans-72"/>
      <use x="443.066406" xlink:href="#DejaVuSans-61"/>
      <use x="504.345703" xlink:href="#DejaVuSans-72"/>
      <use x="545.458984" xlink:href="#DejaVuSans-79"/>
     </g>
    </g>
   </g>
   <g id="line2d_7">
    <path clip-path="url(#pe15c5fec7b)" d="M 86.339034 121.724965 
L 143.926913 326.515657 
L 201.514792 320.393587 
L 259.10267 346.461567 
L 316.690549 347.205515 
L 374.278428 352.32241 
L 431.866307 352.894807 
L 489.454186 353.741932 
L 547.042064 354.136909 
L 604.629943 352.629666 
L 662.217822 354.718633 
L 719.805701 354.728473 
L 777.39358 354.719339 
L 834.981458 354.701141 
L 892.569337 354.7359 
L 950.157216 354.7359 
" style="fill:none;stroke:#5cb85c;stroke-linecap:square;"/>
   </g>
   <g id="line2d_8">
    <path clip-path="url(#pe15c5fec7b)" d="M 86.339034 118.554853 
L 143.926913 326.97162 
L 201.514792 321.540759 
L 259.10267 347.050506 
L 316.690549 347.673323 
L 374.278428 352.444291 
L 431.866307 352.997567 
L 489.454186 353.941341 
L 547.042064 354.21418 
L 604.629943 352.630321 
L 662.217822 354.722246 
L 719.805701 354.7359 
L 777.39358 354.718967 
L 834.981458 354.698726 
L 892.569337 354.7359 
L 950.157216 354.7359 
" style="fill:none;stroke:#5cb85c;stroke-linecap:square;"/>
   </g>
   <g id="line2d_9">
    <path clip-path="url(#pe15c5fec7b)" d="M 86.339034 194.892221 
L 143.926913 325.803652 
L 201.514792 304.547689 
L 259.10267 335.790546 
L 316.690549 332.559357 
L 374.278428 344.62577 
L 431.866307 345.439238 
L 489.454186 349.828821 
L 547.042064 350.855487 
L 604.629943 344.096245 
L 662.217822 354.301701 
L 719.805701 354.692234 
L 777.39358 354.7359 
L 834.981458 354.725738 
L 892.569337 354.7359 
L 950.157216 354.7359 
" style="fill:none;stroke:#f0ad4e;stroke-linecap:square;"/>
   </g>
   <g id="line2d_10">
    <path clip-path="url(#pe15c5fec7b)" d="M 86.339034 188.140241 
L 143.926913 326.440354 
L 201.514792 305.462758 
L 259.10267 336.347126 
L 316.690549 333.474595 
L 374.278428 345.41256 
L 431.866307 346.01205 
L 489.454186 350.541082 
L 547.042064 351.141035 
L 604.629943 345.317842 
L 662.217822 354.420797 
L 719.805701 354.721635 
L 777.39358 354.7359 
L 834.981458 354.726626 
L 892.569337 354.7359 
L 950.157216 354.7359 
" style="fill:none;stroke:#f0ad4e;stroke-linecap:square;"/>
   </g>
   <g id="line2d_11">
    <path clip-path="url(#pe15c5fec7b)" d="M 86.339034 159.279486 
L 143.926913 326.991173 
L 201.514792 309.331336 
L 259.10267 341.728191 
L 316.690549 340.011468 
L 374.278428 349.196671 
L 431.866307 349.495944 
L 489.454186 352.034598 
L 547.042064 352.536679 
L 604.629943 347.728585 
L 662.217822 354.442869 
L 719.805701 354.651761 
L 777.39358 354.729937 
L 834.981458 354.7359 
L 892.569337 354.7359 
L 950.157216 354.7359 
" style="fill:none;stroke:#5cb85c;stroke-linecap:square;"/>
   </g>
   <g id="line2d_12">
    <path clip-path="url(#pe15c5fec7b)" d="M 86.339034 153.456044 
L 143.926913 327.195295 
L 201.514792 310.70654 
L 259.10267 342.430484 
L 316.690549 340.887207 
L 374.278428 349.455672 
L 431.866307 350.275132 
L 489.454186 352.435817 
L 547.042064 352.899775 
L 604.629943 348.538841 
L 662.217822 354.446775 
L 719.805701 354.695217 
L 777.39358 354.7359 
L 834.981458 354.7359 
L 892.569337 354.7359 
L 950.157216 354.7359 
" style="fill:none;stroke:#5cb85c;stroke-linecap:square;"/>
   </g>
   <g id="line2d_13">
    <path clip-path="url(#pe15c5fec7b)" d="M 86.339034 151.528796 
L 143.926913 324.17801 
L 201.514792 311.300915 
L 259.10267 342.525394 
L 316.690549 343.027473 
L 374.278428 349.940091 
L 431.866307 350.833898 
L 489.454186 352.562457 
L 547.042064 353.110415 
L 604.629943 349.016408 
L 662.217822 354.698537 
L 719.805701 354.728213 
L 777.39358 354.7359 
L 834.981458 354.708095 
L 892.569337 354.7359 
L 950.157216 354.7359 
" style="fill:none;stroke:#5cb85c;stroke-linecap:square;"/>
   </g>
   <g id="line2d_14">
    <path clip-path="url(#pe15c5fec7b)" d="M 86.339034 148.217119 
L 143.926913 323.716614 
L 201.514792 313.258629 
L 259.10267 342.825658 
L 316.690549 343.677383 
L 374.278428 350.241405 
L 431.866307 350.913991 
L 489.454186 352.620222 
L 547.042064 353.036295 
L 604.629943 349.521972 
L 662.217822 354.691752 
L 719.805701 354.73232 
L 777.39358 354.7359 
L 834.981458 354.705339 
L 892.569337 354.7359 
L 950.157216 354.7359 
" style="fill:none;stroke:#5cb85c;stroke-linecap:square;"/>
   </g>
   <g id="line2d_15">
    <path clip-path="url(#pe15c5fec7b)" d="M 86.339034 141.558874 
L 143.926913 324.279369 
L 201.514792 314.355749 
L 259.10267 342.846807 
L 316.690549 343.759986 
L 374.278428 350.696852 
L 431.866307 351.665577 
L 489.454186 353.29552 
L 547.042064 353.815371 
L 604.629943 351.767419 
L 662.217822 354.677715 
L 719.805701 354.719824 
L 777.39358 354.728317 
L 834.981458 354.72722 
L 892.569337 354.7359 
L 950.157216 354.7359 
" style="fill:none;stroke:#5cb85c;stroke-linecap:square;"/>
   </g>
   <g id="line2d_16">
    <path clip-path="url(#pe15c5fec7b)" d="M 86.339034 137.143373 
L 143.926913 324.894157 
L 201.514792 315.431141 
L 259.10267 343.560034 
L 316.690549 344.698381 
L 374.278428 351.046332 
L 431.866307 351.996221 
L 489.454186 353.588033 
L 547.042064 353.892571 
L 604.629943 351.760726 
L 662.217822 354.705158 
L 719.805701 354.723594 
L 777.39358 354.7359 
L 834.981458 354.718978 
L 892.569337 354.7359 
L 950.157216 354.7359 
" style="fill:none;stroke:#5cb85c;stroke-linecap:square;"/>
   </g>
   <g id="line2d_17">
    <path clip-path="url(#pe15c5fec7b)" d="M 86.339034 133.105205 
L 143.926913 327.254831 
L 201.514792 316.651193 
L 259.10267 345.126814 
L 316.690549 345.138865 
L 374.278428 351.101449 
L 431.866307 351.78795 
L 489.454186 353.44036 
L 547.042064 353.667455 
L 604.629943 350.87326 
L 662.217822 354.599408 
L 719.805701 354.721211 
L 777.39358 354.730336 
L 834.981458 354.696262 
L 892.569337 354.7359 
L 950.157216 354.7359 
" style="fill:none;stroke:#5cb85c;stroke-linecap:square;"/>
   </g>
   <g id="line2d_18">
    <path clip-path="url(#pe15c5fec7b)" d="M 86.339034 129.330486 
L 143.926913 327.157421 
L 201.514792 318.19346 
L 259.10267 345.542405 
L 316.690549 345.788841 
L 374.278428 351.505451 
L 431.866307 352.166736 
L 489.454186 353.395279 
L 547.042064 353.696362 
L 604.629943 351.314769 
L 662.217822 354.653929 
L 719.805701 354.72867 
L 777.39358 354.728751 
L 834.981458 354.69204 
L 892.569337 354.7359 
L 950.157216 354.7359 
" style="fill:none;stroke:#5cb85c;stroke-linecap:square;"/>
   </g>
   <g id="line2d_19">
    <path clip-path="url(#pe15c5fec7b)" d="M 86.339034 88.787444 
L 143.926913 333.436755 
L 201.514792 332.594626 
L 259.10267 351.225341 
L 316.690549 351.154211 
L 374.278428 353.920563 
L 431.866307 353.993592 
L 489.454186 354.459245 
L 547.042064 354.516913 
L 604.629943 353.918906 
L 662.217822 354.718769 
L 719.805701 354.706133 
L 777.39358 354.7359 
L 834.981458 354.726201 
L 892.569337 354.7359 
L 950.157216 354.7359 
" style="fill:none;stroke:#5cb85c;stroke-linecap:square;"/>
   </g>
   <g id="line2d_20">
    <path clip-path="url(#pe15c5fec7b)" d="M 86.339034 87.021797 
L 143.926913 334.001972 
L 201.514792 333.08684 
L 259.10267 351.478304 
L 316.690549 351.410652 
L 374.278428 353.965484 
L 431.866307 354.003215 
L 489.454186 354.433502 
L 547.042064 354.510467 
L 604.629943 354.080718 
L 662.217822 354.725428 
L 719.805701 354.718383 
L 777.39358 354.730662 
L 834.981458 354.727176 
L 892.569337 354.7359 
L 950.157216 354.7359 
" style="fill:none;stroke:#5cb85c;stroke-linecap:square;"/>
   </g>
   <g id="line2d_21">
    <path clip-path="url(#pe15c5fec7b)" d="M 86.339034 175.388614 
L 143.926913 328.920565 
L 201.514792 316.400474 
L 259.10267 339.921268 
L 316.690549 338.852712 
L 374.278428 346.857494 
L 431.866307 348.024912 
L 489.454186 350.921076 
L 547.042064 351.469297 
L 604.629943 332.997568 
L 662.217822 353.239798 
L 719.805701 354.503267 
L 777.39358 354.7359 
L 834.981458 354.702494 
L 892.569337 354.695062 
L 950.157216 354.7359 
" style="fill:none;stroke:#f0ad4e;stroke-linecap:square;"/>
   </g>
   <g id="line2d_22">
    <path clip-path="url(#pe15c5fec7b)" d="M 86.339034 171.352327 
L 143.926913 328.330071 
L 201.514792 317.450812 
L 259.10267 340.430124 
L 316.690549 339.080522 
L 374.278428 347.451805 
L 431.866307 348.395689 
L 489.454186 351.257419 
L 547.042064 351.992425 
L 604.629943 333.724107 
L 662.217822 353.505881 
L 719.805701 354.545382 
L 777.39358 354.7359 
L 834.981458 354.702317 
L 892.569337 354.675721 
L 950.157216 354.7359 
" style="fill:none;stroke:#f0ad4e;stroke-linecap:square;"/>
   </g>
   <g id="line2d_23">
    <path clip-path="url(#pe15c5fec7b)" d="M 86.339034 149.54167 
L 143.926913 327.408445 
L 201.514792 309.222684 
L 259.10267 343.558299 
L 316.690549 341.563514 
L 374.278428 350.227133 
L 431.866307 350.485582 
L 489.454186 353.238354 
L 547.042064 353.13382 
L 604.629943 350.115085 
L 662.217822 354.364383 
L 719.805701 354.577328 
L 777.39358 354.730577 
L 834.981458 354.727726 
L 892.569337 354.7359 
L 950.157216 354.7359 
" style="fill:none;stroke:#5cb85c;stroke-linecap:square;"/>
   </g>
   <g id="line2d_24">
    <path clip-path="url(#pe15c5fec7b)" d="M 86.339034 142.935234 
L 143.926913 327.631859 
L 201.514792 311.237642 
L 259.10267 344.398643 
L 316.690549 342.551887 
L 374.278428 351.041214 
L 431.866307 351.127187 
L 489.454186 353.244601 
L 547.042064 353.384585 
L 604.629943 350.916606 
L 662.217822 354.351563 
L 719.805701 354.608713 
L 777.39358 354.728965 
L 834.981458 354.7359 
L 892.569337 354.7359 
L 950.157216 354.7359 
" style="fill:none;stroke:#5cb85c;stroke-linecap:square;"/>
   </g>
   <g id="line2d_25">
    <path clip-path="url(#pe15c5fec7b)" d="M 86.339034 95.674325 
L 143.926913 326.964857 
L 201.514792 336.268548 
L 259.10267 349.764534 
L 316.690549 351.503314 
L 374.278428 353.011774 
L 431.866307 353.765151 
L 489.454186 354.124454 
L 547.042064 354.265505 
L 604.629943 352.727256 
L 662.217822 354.705212 
L 719.805701 354.683629 
L 777.39358 354.721495 
L 834.981458 354.714546 
L 892.569337 354.7359 
L 950.157216 354.7359 
" style="fill:none;stroke:#5cb85c;stroke-linecap:square;"/>
   </g>
   <g id="line2d_26">
    <path clip-path="url(#pe15c5fec7b)" d="M 86.339034 93.298636 
L 143.926913 327.865325 
L 201.514792 336.805575 
L 259.10267 350.126372 
L 316.690549 351.493608 
L 374.278428 353.364911 
L 431.866307 353.67512 
L 489.454186 354.220984 
L 547.042064 354.320267 
L 604.629943 352.89888 
L 662.217822 354.690719 
L 719.805701 354.696764 
L 777.39358 354.729218 
L 834.981458 354.708221 
L 892.569337 354.7359 
L 950.157216 354.7359 
" style="fill:none;stroke:#5cb85c;stroke-linecap:square;"/>
   </g>
   <g id="line2d_27">
    <path clip-path="url(#pe15c5fec7b)" d="M 86.339034 98.63098 
L 143.926913 330.845172 
L 201.514792 330.965391 
L 259.10267 349.486399 
L 316.690549 350.054442 
L 374.278428 353.223947 
L 431.866307 353.437563 
L 489.454186 354.089218 
L 547.042064 354.330061 
L 604.629943 352.94937 
L 662.217822 354.708345 
L 719.805701 354.727444 
L 777.39358 354.7359 
L 834.981458 354.71037 
L 892.569337 354.7359 
L 950.157216 354.7359 
" style="fill:none;stroke:#5cb85c;stroke-linecap:square;"/>
   </g>
   <g id="line2d_28">
    <path clip-path="url(#pe15c5fec7b)" d="M 86.339034 96.490848 
L 143.926913 331.209054 
L 201.514792 332.113519 
L 259.10267 349.73293 
L 316.690549 349.926096 
L 374.278428 353.256021 
L 431.866307 353.5918 
L 489.454186 354.172858 
L 547.042064 354.400916 
L 604.629943 353.124715 
L 662.217822 354.725599 
L 719.805701 354.70597 
L 777.39358 354.730567 
L 834.981458 354.713708 
L 892.569337 354.7359 
L 950.157216 354.7359 
" style="fill:none;stroke:#5cb85c;stroke-linecap:square;"/>
   </g>
   <g id="line2d_29">
    <path clip-path="url(#pe15c5fec7b)" d="M 86.339034 97.61718 
L 143.926913 333.678353 
L 201.514792 333.706513 
L 259.10267 350.080366 
L 316.690549 349.745128 
L 374.278428 352.858707 
L 431.866307 352.949818 
L 489.454186 353.700386 
L 547.042064 353.824813 
L 604.629943 350.072867 
L 662.217822 354.530805 
L 719.805701 354.676915 
L 777.39358 354.728217 
L 834.981458 354.724533 
L 892.569337 354.7359 
L 950.157216 354.7359 
" style="fill:none;stroke:#5cb85c;stroke-linecap:square;"/>
   </g>
   <g id="line2d_30">
    <path clip-path="url(#pe15c5fec7b)" d="M 86.339034 94.946669 
L 143.926913 334.549378 
L 201.514792 334.101909 
L 259.10267 350.182562 
L 316.690549 350.270551 
L 374.278428 352.832926 
L 431.866307 353.209932 
L 489.454186 353.793592 
L 547.042064 353.959983 
L 604.629943 350.324399 
L 662.217822 354.574775 
L 719.805701 354.700125 
L 777.39358 354.722373 
L 834.981458 354.725425 
L 892.569337 354.7359 
L 950.157216 354.7359 
" style="fill:none;stroke:#5cb85c;stroke-linecap:square;"/>
   </g>
   <g id="line2d_31">
    <path clip-path="url(#pe15c5fec7b)" d="M 86.339034 123.944456 
L 143.926913 322.925359 
L 201.514792 326.222648 
L 259.10267 343.352376 
L 316.690549 347.103301 
L 374.278428 351.088278 
L 431.866307 352.736233 
L 489.454186 353.786335 
L 547.042064 354.046213 
L 604.629943 352.79692 
L 662.217822 354.728894 
L 719.805701 354.718187 
L 777.39358 354.709499 
L 834.981458 354.7359 
L 892.569337 354.7359 
L 950.157216 354.7359 
" style="fill:none;stroke:#5cb85c;stroke-linecap:square;"/>
   </g>
   <g id="line2d_32">
    <path clip-path="url(#pe15c5fec7b)" d="M 86.339034 120.95263 
L 143.926913 323.300013 
L 201.514792 326.831571 
L 259.10267 344.245231 
L 316.690549 347.522874 
L 374.278428 351.438023 
L 431.866307 352.668566 
L 489.454186 353.766949 
L 547.042064 354.081616 
L 604.629943 353.166261 
L 662.217822 354.7359 
L 719.805701 354.732164 
L 777.39358 354.716902 
L 834.981458 354.7359 
L 892.569337 354.7359 
L 950.157216 354.7359 
" style="fill:none;stroke:#5cb85c;stroke-linecap:square;"/>
   </g>
   <g id="line2d_33">
    <path clip-path="url(#pe15c5fec7b)" d="M 86.339034 116.910462 
L 143.926913 316.324902 
L 201.514792 332.154436 
L 259.10267 346.072412 
L 316.690549 350.027583 
L 374.278428 352.512304 
L 431.866307 353.521692 
L 489.454186 354.102401 
L 547.042064 354.33671 
L 604.629943 352.597511 
L 662.217822 354.226454 
L 719.805701 354.693468 
L 777.39358 354.728185 
L 834.981458 354.7359 
L 892.569337 354.68608 
L 950.157216 354.7359 
" style="fill:none;stroke:#5cb85c;stroke-linecap:square;"/>
   </g>
   <g id="line2d_34">
    <path clip-path="url(#pe15c5fec7b)" d="M 86.339034 112.147505 
L 143.926913 317.70123 
L 201.514792 333.303592 
L 259.10267 346.96808 
L 316.690549 350.562421 
L 374.278428 352.852234 
L 431.866307 353.701472 
L 489.454186 354.179523 
L 547.042064 354.281937 
L 604.629943 352.746577 
L 662.217822 354.324905 
L 719.805701 354.701188 
L 777.39358 354.7233 
L 834.981458 354.7359 
L 892.569337 354.700636 
L 950.157216 354.7359 
" style="fill:none;stroke:#5cb85c;stroke-linecap:square;"/>
   </g>
   <g id="line2d_35">
    <path clip-path="url(#pe15c5fec7b)" d="M 86.339034 129.916797 
L 143.926913 304.031839 
L 201.514792 334.689029 
L 259.10267 345.445384 
L 316.690549 350.219067 
L 374.278428 351.874969 
L 431.866307 352.820989 
L 489.454186 353.373105 
L 547.042064 353.791281 
L 604.629943 351.824283 
L 662.217822 354.717723 
L 719.805701 354.726513 
L 777.39358 354.72772 
L 834.981458 354.7359 
L 892.569337 354.7359 
L 950.157216 354.7359 
" style="fill:none;stroke:#5cb85c;stroke-linecap:square;"/>
   </g>
   <g id="line2d_36">
    <path clip-path="url(#pe15c5fec7b)" d="M 86.339034 125.745816 
L 143.926913 306.463032 
L 201.514792 336.700384 
L 259.10267 345.91725 
L 316.690549 350.126138 
L 374.278428 352.013488 
L 431.866307 352.853324 
L 489.454186 353.360259 
L 547.042064 353.878671 
L 604.629943 350.966508 
L 662.217822 354.686128 
L 719.805701 354.727814 
L 777.39358 354.719889 
L 834.981458 354.7359 
L 892.569337 354.7359 
L 950.157216 354.7359 
" style="fill:none;stroke:#5cb85c;stroke-linecap:square;"/>
   </g>
   <g id="line2d_37">
    <path clip-path="url(#pe15c5fec7b)" d="M 86.339034 132.574959 
L 143.926913 315.930556 
L 201.514792 327.433095 
L 259.10267 343.064726 
L 316.690549 347.657568 
L 374.278428 350.836276 
L 431.866307 352.300165 
L 489.454186 353.28817 
L 547.042064 353.705184 
L 604.629943 351.243055 
L 662.217822 354.715427 
L 719.805701 354.716637 
L 777.39358 354.7359 
L 834.981458 354.692881 
L 892.569337 354.7359 
L 950.157216 354.7359 
" style="fill:none;stroke:#5cb85c;stroke-linecap:square;"/>
   </g>
   <g id="line2d_38">
    <path clip-path="url(#pe15c5fec7b)" d="M 86.339034 129.361513 
L 143.926913 316.218972 
L 201.514792 328.378197 
L 259.10267 343.912607 
L 316.690549 348.045069 
L 374.278428 351.221215 
L 431.866307 352.341796 
L 489.454186 353.368518 
L 547.042064 353.743777 
L 604.629943 351.429359 
L 662.217822 354.715351 
L 719.805701 354.728001 
L 777.39358 354.7359 
L 834.981458 354.694325 
L 892.569337 354.7359 
L 950.157216 354.7359 
" style="fill:none;stroke:#5cb85c;stroke-linecap:square;"/>
   </g>
   <g id="line2d_39">
    <path clip-path="url(#pe15c5fec7b)" d="M 86.339034 235.747996 
L 143.926913 334.747488 
L 201.514792 328.041467 
L 259.10267 333.019621 
L 316.690549 330.89637 
L 374.278428 335.049116 
L 431.866307 337.285198 
L 489.454186 340.958779 
L 547.042064 343.341921 
L 604.629943 310.30444 
L 662.217822 353.568182 
L 719.805701 354.476543 
L 777.39358 354.730218 
L 834.981458 354.727261 
L 892.569337 354.7359 
L 950.157216 354.7359 
" style="fill:none;stroke:#f0ad4e;stroke-linecap:square;"/>
   </g>
   <g id="line2d_40">
    <path clip-path="url(#pe15c5fec7b)" d="M 86.339034 232.749957 
L 143.926913 333.784176 
L 201.514792 327.8685 
L 259.10267 332.634107 
L 316.690549 331.375274 
L 374.278428 335.12687 
L 431.866307 337.254826 
L 489.454186 341.073599 
L 547.042064 343.74631 
L 604.629943 313.543347 
L 662.217822 353.736992 
L 719.805701 354.536519 
L 777.39358 354.728224 
L 834.981458 354.7359 
L 892.569337 354.7359 
L 950.157216 354.7359 
" style="fill:none;stroke:#f0ad4e;stroke-linecap:square;"/>
   </g>
   <g id="line2d_41">
    <path clip-path="url(#pe15c5fec7b)" d="M 86.339034 145.597482 
L 143.926913 309.822158 
L 201.514792 324.454546 
L 259.10267 341.045699 
L 316.690549 346.661559 
L 374.278428 350.620384 
L 431.866307 352.534594 
L 489.454186 353.544035 
L 547.042064 354.009027 
L 604.629943 351.000347 
L 662.217822 353.831146 
L 719.805701 354.617701 
L 777.39358 354.71725 
L 834.981458 354.726194 
L 892.569337 354.669104 
L 950.157216 354.515176 
" style="fill:none;stroke:#5cb85c;stroke-linecap:square;"/>
   </g>
   <g id="line2d_42">
    <path clip-path="url(#pe15c5fec7b)" d="M 86.339034 140.681779 
L 143.926913 311.812739 
L 201.514792 325.19998 
L 259.10267 341.261632 
L 316.690549 347.234854 
L 374.278428 351.316304 
L 431.866307 352.757586 
L 489.454186 353.662015 
L 547.042064 353.94405 
L 604.629943 351.10768 
L 662.217822 353.842345 
L 719.805701 354.673495 
L 777.39358 354.72266 
L 834.981458 354.727436 
L 892.569337 354.685946 
L 950.157216 354.7359 
" style="fill:none;stroke:#5cb85c;stroke-linecap:square;"/>
   </g>
   <g id="line2d_43">
    <path clip-path="url(#pe15c5fec7b)" d="M 86.339034 73.384134 
L 143.926913 333.715401 
L 201.514792 343.04294 
L 259.10267 352.486124 
L 316.690549 353.343324 
L 374.278428 354.119082 
L 431.866307 354.36922 
L 489.454186 354.533015 
L 547.042064 354.561788 
L 604.629943 354.431386 
L 662.217822 354.732324 
L 719.805701 354.712186 
L 777.39358 354.727778 
L 834.981458 354.7359 
L 892.569337 354.7359 
L 950.157216 354.7359 
" style="fill:none;stroke:#5cb85c;stroke-linecap:square;"/>
   </g>
   <g id="line2d_44">
    <path clip-path="url(#pe15c5fec7b)" d="M 86.339034 71.971627 
L 143.926913 334.434422 
L 201.514792 343.385264 
L 259.10267 352.694405 
L 316.690549 353.410686 
L 374.278428 354.144773 
L 431.866307 354.346698 
L 489.454186 354.533012 
L 547.042064 354.574682 
L 604.629943 354.486406 
L 662.217822 354.728819 
L 719.805701 354.720095 
L 777.39358 354.72781 
L 834.981458 354.7359 
L 892.569337 354.7359 
L 950.157216 354.7359 
" style="fill:none;stroke:#5cb85c;stroke-linecap:square;"/>
   </g>
   <g id="line2d_45">
    <path clip-path="url(#pe15c5fec7b)" d="M 86.339034 117.699917 
L 143.926913 332.099829 
L 201.514792 333.291726 
L 259.10267 348.194893 
L 316.690549 349.045455 
L 374.278428 351.887561 
L 431.866307 352.307832 
L 489.454186 352.963429 
L 547.042064 353.273298 
L 604.629943 339.771028 
L 662.217822 352.857983 
L 719.805701 354.066487 
L 777.39358 354.7359 
L 834.981458 354.699262 
L 892.569337 354.7359 
L 950.157216 354.7359 
" style="fill:none;stroke:#5cb85c;stroke-linecap:square;"/>
   </g>
   <g id="line2d_46">
    <path clip-path="url(#pe15c5fec7b)" d="M 86.339034 114.021143 
L 143.926913 332.257618 
L 201.514792 334.660551 
L 259.10267 348.554808 
L 316.690549 349.594821 
L 374.278428 351.97988 
L 431.866307 352.563961 
L 489.454186 353.107573 
L 547.042064 353.39516 
L 604.629943 340.009862 
L 662.217822 353.058948 
L 719.805701 354.242616 
L 777.39358 354.7359 
L 834.981458 354.711758 
L 892.569337 354.7359 
L 950.157216 354.7359 
" style="fill:none;stroke:#5cb85c;stroke-linecap:square;"/>
   </g>
   <g id="line2d_47">
    <path clip-path="url(#pe15c5fec7b)" d="M 86.339034 114.860213 
L 143.926913 315.212472 
L 201.514792 334.773833 
L 259.10267 347.186847 
L 316.690549 350.335563 
L 374.278428 352.095427 
L 431.866307 353.113942 
L 489.454186 353.703805 
L 547.042064 353.924787 
L 604.629943 352.930466 
L 662.217822 354.722101 
L 719.805701 354.677314 
L 777.39358 354.715686 
L 834.981458 354.642143 
L 892.569337 354.7359 
L 950.157216 354.7359 
" style="fill:none;stroke:#5cb85c;stroke-linecap:square;"/>
   </g>
   <g id="line2d_48">
    <path clip-path="url(#pe15c5fec7b)" d="M 86.339034 111.097386 
L 143.926913 317.186908 
L 201.514792 335.421485 
L 259.10267 347.34633 
L 316.690549 350.463419 
L 374.278428 352.518753 
L 431.866307 353.190902 
L 489.454186 353.655491 
L 547.042064 354.101766 
L 604.629943 353.111287 
L 662.217822 354.725777 
L 719.805701 354.707395 
L 777.39358 354.714386 
L 834.981458 354.653315 
L 892.569337 354.7359 
L 950.157216 354.7359 
" style="fill:none;stroke:#5cb85c;stroke-linecap:square;"/>
   </g>
   <g id="line2d_49">
    <path clip-path="url(#pe15c5fec7b)" d="M 86.339034 98.802257 
L 143.926913 323.493948 
L 201.514792 340.341647 
L 259.10267 349.063327 
L 316.690549 351.307147 
L 374.278428 352.259586 
L 431.866307 353.09835 
L 489.454186 353.691316 
L 547.042064 353.854352 
L 604.629943 352.240058 
L 662.217822 354.725601 
L 719.805701 354.668975 
L 777.39358 354.682348 
L 834.981458 354.665687 
L 892.569337 354.7359 
L 950.157216 354.7359 
" style="fill:none;stroke:#5cb85c;stroke-linecap:square;"/>
   </g>
   <g id="line2d_50">
    <path clip-path="url(#pe15c5fec7b)" d="M 86.339034 96.528522 
L 143.926913 324.102863 
L 201.514792 340.926301 
L 259.10267 349.588111 
L 316.690549 351.105114 
L 374.278428 352.589885 
L 431.866307 353.165713 
L 489.454186 353.614131 
L 547.042064 353.957274 
L 604.629943 352.560231 
L 662.217822 354.715346 
L 719.805701 354.691429 
L 777.39358 354.687305 
L 834.981458 354.662375 
L 892.569337 354.7359 
L 950.157216 354.7359 
" style="fill:none;stroke:#5cb85c;stroke-linecap:square;"/>
   </g>
   <g id="line2d_51">
    <path clip-path="url(#pe15c5fec7b)" d="M 86.339034 84.543443 
L 143.926913 330.969319 
L 201.514792 338.467589 
L 259.10267 350.826424 
L 316.690549 352.307105 
L 374.278428 353.772177 
L 431.866307 354.160169 
L 489.454186 354.404205 
L 547.042064 354.516647 
L 604.629943 354.021909 
L 662.217822 354.7359 
L 719.805701 354.723666 
L 777.39358 354.7359 
L 834.981458 354.710148 
L 892.569337 354.7359 
L 950.157216 354.7359 
" style="fill:none;stroke:#5cb85c;stroke-linecap:square;"/>
   </g>
   <g id="line2d_52">
    <path clip-path="url(#pe15c5fec7b)" d="M 86.339034 81.508269 
L 143.926913 331.918254 
L 201.514792 339.497859 
L 259.10267 351.169233 
L 316.690549 352.557321 
L 374.278428 353.903869 
L 431.866307 354.295248 
L 489.454186 354.455724 
L 547.042064 354.548886 
L 604.629943 354.132735 
L 662.217822 354.7359 
L 719.805701 354.732048 
L 777.39358 354.7359 
L 834.981458 354.703355 
L 892.569337 354.7359 
L 950.157216 354.7359 
" style="fill:none;stroke:#5cb85c;stroke-linecap:square;"/>
   </g>
   <g id="line2d_53">
    <path clip-path="url(#pe15c5fec7b)" d="M 86.339034 107.238209 
L 143.926913 320.625486 
L 201.514792 332.101444 
L 259.10267 347.528281 
L 316.690549 350.492897 
L 374.278428 353.011684 
L 431.866307 353.803678 
L 489.454186 354.243502 
L 547.042064 354.526469 
L 604.629943 354.415643 
L 662.217822 354.732488 
L 719.805701 354.723129 
L 777.39358 354.7359 
L 834.981458 354.715789 
L 892.569337 354.7359 
L 950.157216 354.7359 
" style="fill:none;stroke:#5cb85c;stroke-linecap:square;"/>
   </g>
   <g id="line2d_54">
    <path clip-path="url(#pe15c5fec7b)" d="M 86.339034 103.305375 
L 143.926913 322.269763 
L 201.514792 332.721074 
L 259.10267 348.191054 
L 316.690549 350.906424 
L 374.278428 353.290955 
L 431.866307 353.964368 
L 489.454186 354.352905 
L 547.042064 354.503903 
L 604.629943 354.473852 
L 662.217822 354.7359 
L 719.805701 354.723345 
L 777.39358 354.7359 
L 834.981458 354.719781 
L 892.569337 354.7359 
L 950.157216 354.7359 
" style="fill:none;stroke:#5cb85c;stroke-linecap:square;"/>
   </g>
   <g id="line2d_55">
    <path clip-path="url(#pe15c5fec7b)" d="M 86.339034 125.691336 
L 143.926913 335.978186 
L 201.514792 327.988775 
L 259.10267 347.026708 
L 316.690549 344.912182 
L 374.278428 350.20168 
L 431.866307 349.747703 
L 489.454186 351.820045 
L 547.042064 352.131955 
L 604.629943 344.525177 
L 662.217822 353.747077 
L 719.805701 353.700249 
L 777.39358 354.687628 
L 834.981458 354.7359 
L 892.569337 354.7359 
L 950.157216 354.7359 
" style="fill:none;stroke:#5cb85c;stroke-linecap:square;"/>
   </g>
   <g id="line2d_56">
    <path clip-path="url(#pe15c5fec7b)" d="M 86.339034 123.400572 
L 143.926913 335.565633 
L 201.514792 327.781718 
L 259.10267 347.207339 
L 316.690549 345.137378 
L 374.278428 350.126985 
L 431.866307 350.128444 
L 489.454186 352.19522 
L 547.042064 352.333968 
L 604.629943 345.937883 
L 662.217822 353.729393 
L 719.805701 353.901143 
L 777.39358 354.713024 
L 834.981458 354.7359 
L 892.569337 354.7359 
L 950.157216 354.7359 
" style="fill:none;stroke:#5cb85c;stroke-linecap:square;"/>
   </g>
   <g id="line2d_57">
    <path clip-path="url(#pe15c5fec7b)" d="M 86.339034 87.688091 
L 143.926913 328.202034 
L 201.514792 340.960224 
L 259.10267 350.421904 
L 316.690549 352.135704 
L 374.278428 353.185638 
L 431.866307 353.726971 
L 489.454186 354.008938 
L 547.042064 354.249658 
L 604.629943 353.48452 
L 662.217822 354.732498 
L 719.805701 354.713215 
L 777.39358 354.717289 
L 834.981458 354.667916 
L 892.569337 354.7359 
L 950.157216 354.7359 
" style="fill:none;stroke:#5cb85c;stroke-linecap:square;"/>
   </g>
   <g id="line2d_58">
    <path clip-path="url(#pe15c5fec7b)" d="M 86.339034 86.537579 
L 143.926913 328.853525 
L 201.514792 341.308713 
L 259.10267 350.393009 
L 316.690549 352.113219 
L 374.278428 353.249807 
L 431.866307 353.61128 
L 489.454186 354.002493 
L 547.042064 354.265751 
L 604.629943 353.720207 
L 662.217822 354.722226 
L 719.805701 354.731318 
L 777.39358 354.716726 
L 834.981458 354.668746 
L 892.569337 354.7359 
L 950.157216 354.7359 
" style="fill:none;stroke:#5cb85c;stroke-linecap:square;"/>
   </g>
   <g id="line2d_59">
    <path clip-path="url(#pe15c5fec7b)" d="M 86.339034 105.967284 
L 143.926913 331.813206 
L 201.514792 331.03566 
L 259.10267 348.598413 
L 316.690549 349.277373 
L 374.278428 352.210515 
L 431.866307 352.541754 
L 489.454186 353.362603 
L 547.042064 353.63795 
L 604.629943 349.700529 
L 662.217822 354.657086 
L 719.805701 354.707909 
L 777.39358 354.712954 
L 834.981458 354.671365 
L 892.569337 354.7359 
L 950.157216 354.7359 
" style="fill:none;stroke:#5cb85c;stroke-linecap:square;"/>
   </g>
   <g id="line2d_60">
    <path clip-path="url(#pe15c5fec7b)" d="M 86.339034 104.697483 
L 143.926913 331.670892 
L 201.514792 331.436819 
L 259.10267 348.758034 
L 316.690549 349.546213 
L 374.278428 352.126882 
L 431.866307 352.718285 
L 489.454186 353.39466 
L 547.042064 353.486522 
L 604.629943 350.251317 
L 662.217822 354.705164 
L 719.805701 354.71234 
L 777.39358 354.715934 
L 834.981458 354.674057 
L 892.569337 354.7359 
L 950.157216 354.7359 
" style="fill:none;stroke:#5cb85c;stroke-linecap:square;"/>
   </g>
   <g id="line2d_61">
    <path clip-path="url(#pe15c5fec7b)" d="M 86.339034 113.09968 
L 143.926913 327.436726 
L 201.514792 328.564725 
L 259.10267 346.725273 
L 316.690549 348.225458 
L 374.278428 351.853873 
L 431.866307 352.798318 
L 489.454186 353.677477 
L 547.042064 353.953209 
L 604.629943 352.075151 
L 662.217822 354.497978 
L 719.805701 354.64971 
L 777.39358 354.675448 
L 834.981458 354.661573 
L 892.569337 354.7359 
L 950.157216 354.7359 
" style="fill:none;stroke:#5cb85c;stroke-linecap:square;"/>
   </g>
   <g id="line2d_62">
    <path clip-path="url(#pe15c5fec7b)" d="M 86.339034 112.198398 
L 143.926913 327.419134 
L 201.514792 328.310527 
L 259.10267 346.587118 
L 316.690549 348.45909 
L 374.278428 352.123307 
L 431.866307 353.068132 
L 489.454186 353.838278 
L 547.042064 354.08523 
L 604.629943 352.225113 
L 662.217822 354.573986 
L 719.805701 354.657702 
L 777.39358 354.692259 
L 834.981458 354.656327 
L 892.569337 354.7359 
L 950.157216 354.7359 
" style="fill:none;stroke:#5cb85c;stroke-linecap:square;"/>
   </g>
   <g id="line2d_63">
    <path clip-path="url(#pe15c5fec7b)" d="M 86.339034 109.908874 
L 143.926913 326.985197 
L 201.514792 335.143166 
L 259.10267 348.228828 
L 316.690549 350.060968 
L 374.278428 352.195414 
L 431.866307 352.680752 
L 489.454186 353.424321 
L 547.042064 353.448643 
L 604.629943 346.154756 
L 662.217822 354.528071 
L 719.805701 354.724979 
L 777.39358 354.730501 
L 834.981458 354.68013 
L 892.569337 354.7359 
L 950.157216 354.7359 
" style="fill:none;stroke:#5cb85c;stroke-linecap:square;"/>
   </g>
   <g id="line2d_64">
    <path clip-path="url(#pe15c5fec7b)" d="M 86.339034 108.872733 
L 143.926913 326.596644 
L 201.514792 335.758815 
L 259.10267 348.413998 
L 316.690549 350.361837 
L 374.278428 352.252968 
L 431.866307 352.995317 
L 489.454186 353.324562 
L 547.042064 353.493605 
L 604.629943 346.073072 
L 662.217822 354.602655 
L 719.805701 354.715772 
L 777.39358 354.7359 
L 834.981458 354.696723 
L 892.569337 354.7359 
L 950.157216 354.7359 
" style="fill:none;stroke:#5cb85c;stroke-linecap:square;"/>
   </g>
   <g id="line2d_65">
    <path clip-path="url(#pe15c5fec7b)" d="M 86.339034 125.428203 
L 143.926913 328.017049 
L 201.514792 326.330036 
L 259.10267 344.671639 
L 316.690549 346.264973 
L 374.278428 350.524348 
L 431.866307 351.781474 
L 489.454186 353.064054 
L 547.042064 353.364671 
L 604.629943 349.015622 
L 662.217822 354.439515 
L 719.805701 354.667102 
L 777.39358 354.727887 
L 834.981458 354.724383 
L 892.569337 354.609544 
L 950.157216 354.7359 
" style="fill:none;stroke:#5cb85c;stroke-linecap:square;"/>
   </g>
   <g id="line2d_66">
    <path clip-path="url(#pe15c5fec7b)" d="M 86.339034 122.656631 
L 143.926913 327.518785 
L 201.514792 326.51509 
L 259.10267 345.211264 
L 316.690549 346.972053 
L 374.278428 351.056349 
L 431.866307 352.111916 
L 489.454186 353.124941 
L 547.042064 353.345186 
L 604.629943 349.745779 
L 662.217822 354.608988 
L 719.805701 354.715973 
L 777.39358 354.7295 
L 834.981458 354.717671 
L 892.569337 354.600373 
L 950.157216 354.7359 
" style="fill:none;stroke:#5cb85c;stroke-linecap:square;"/>
   </g>
   <g id="line2d_67">
    <path clip-path="url(#pe15c5fec7b)" d="M 86.339034 105.755591 
L 143.926913 326.144048 
L 201.514792 331.633238 
L 259.10267 347.34325 
L 316.690549 349.614736 
L 374.278428 352.26708 
L 431.866307 353.18348 
L 489.454186 353.960407 
L 547.042064 354.278445 
L 604.629943 353.836258 
L 662.217822 354.73233 
L 719.805701 354.703684 
L 777.39358 354.716081 
L 834.981458 354.725971 
L 892.569337 354.7359 
L 950.157216 354.7359 
" style="fill:none;stroke:#5cb85c;stroke-linecap:square;"/>
   </g>
   <g id="line2d_68">
    <path clip-path="url(#pe15c5fec7b)" d="M 86.339034 105.025203 
L 143.926913 325.886252 
L 201.514792 331.868299 
L 259.10267 347.147304 
L 316.690549 349.498908 
L 374.278428 352.629704 
L 431.866307 353.450158 
L 489.454186 354.0762 
L 547.042064 354.294521 
L 604.629943 354.107948 
L 662.217822 354.721778 
L 719.805701 354.723202 
L 777.39358 354.729223 
L 834.981458 354.7359 
L 892.569337 354.7359 
L 950.157216 354.7359 
" style="fill:none;stroke:#5cb85c;stroke-linecap:square;"/>
   </g>
   <g id="line2d_69">
    <path clip-path="url(#pe15c5fec7b)" d="M 86.339034 91.833415 
L 143.926913 328.836473 
L 201.514792 338.521435 
L 259.10267 349.694562 
L 316.690549 351.481416 
L 374.278428 352.883791 
L 431.866307 353.492312 
L 489.454186 353.957406 
L 547.042064 354.104695 
L 604.629943 353.206453 
L 662.217822 354.715206 
L 719.805701 354.723446 
L 777.39358 354.7359 
L 834.981458 354.708089 
L 892.569337 354.7359 
L 950.157216 354.7359 
" style="fill:none;stroke:#5cb85c;stroke-linecap:square;"/>
   </g>
   <g id="line2d_70">
    <path clip-path="url(#pe15c5fec7b)" d="M 86.339034 90.036727 
L 143.926913 328.966013 
L 201.514792 339.058026 
L 259.10267 350.18434 
L 316.690549 351.54536 
L 374.278428 353.191852 
L 431.866307 353.530804 
L 489.454186 353.912322 
L 547.042064 354.207719 
L 604.629943 353.36627 
L 662.217822 354.708339 
L 719.805701 354.732212 
L 777.39358 354.7359 
L 834.981458 354.718714 
L 892.569337 354.7359 
L 950.157216 354.7359 
" style="fill:none;stroke:#5cb85c;stroke-linecap:square;"/>
   </g>
   <g id="line2d_71">
    <path clip-path="url(#pe15c5fec7b)" d="M 86.339034 195.13607 
L 143.926913 331.785229 
L 201.514792 316.399743 
L 259.10267 339.76938 
L 316.690549 336.635594 
L 374.278428 344.688746 
L 431.866307 344.64112 
L 489.454186 348.129182 
L 547.042064 348.148808 
L 604.629943 323.322671 
L 662.217822 354.132973 
L 719.805701 354.659196 
L 777.39358 354.7359 
L 834.981458 354.70999 
L 892.569337 354.7359 
L 950.157216 354.7359 
" style="fill:none;stroke:#f0ad4e;stroke-linecap:square;"/>
   </g>
   <g id="line2d_72">
    <path clip-path="url(#pe15c5fec7b)" d="M 86.339034 194.800454 
L 143.926913 331.7641 
L 201.514792 315.761344 
L 259.10267 339.879869 
L 316.690549 336.717137 
L 374.278428 344.387066 
L 431.866307 344.057301 
L 489.454186 347.865722 
L 547.042064 348.404934 
L 604.629943 324.938104 
L 662.217822 354.186874 
L 719.805701 354.68545 
L 777.39358 354.7359 
L 834.981458 354.710346 
L 892.569337 354.7359 
L 950.157216 354.7359 
" style="fill:none;stroke:#f0ad4e;stroke-linecap:square;"/>
   </g>
   <g id="line2d_73">
    <path clip-path="url(#pe15c5fec7b)" d="M 86.339034 87.304385 
L 143.926913 330.432696 
L 201.514792 339.054582 
L 259.10267 350.629492 
L 316.690549 351.753725 
L 374.278428 353.28812 
L 431.866307 353.636823 
L 489.454186 354.040986 
L 547.042064 354.256013 
L 604.629943 353.616587 
L 662.217822 354.725519 
L 719.805701 354.708878 
L 777.39358 354.72823 
L 834.981458 354.718564 
L 892.569337 354.7359 
L 950.157216 354.7359 
" style="fill:none;stroke:#5cb85c;stroke-linecap:square;"/>
   </g>
   <g id="line2d_74">
    <path clip-path="url(#pe15c5fec7b)" d="M 86.339034 87.508234 
L 143.926913 330.248742 
L 201.514792 338.866725 
L 259.10267 350.591295 
L 316.690549 351.68015 
L 374.278428 353.185485 
L 431.866307 353.765427 
L 489.454186 354.098932 
L 547.042064 354.291467 
L 604.629943 353.797168 
L 662.217822 354.73246 
L 719.805701 354.71867 
L 777.39358 354.703793 
L 834.981458 354.706053 
L 892.569337 354.7359 
L 950.157216 354.7359 
" style="fill:none;stroke:#5cb85c;stroke-linecap:square;"/>
   </g>
   <g id="line2d_75">
    <path clip-path="url(#pe15c5fec7b)" d="M 86.339034 89.83745 
L 143.926913 323.599415 
L 201.514792 340.942081 
L 259.10267 350.537951 
L 316.690549 352.732613 
L 374.278428 353.888876 
L 431.866307 354.225257 
L 489.454186 354.40478 
L 547.042064 354.494556 
L 604.629943 353.377234 
L 662.217822 354.725792 
L 719.805701 354.701903 
L 777.39358 354.718353 
L 834.981458 354.708339 
L 892.569337 354.7359 
L 950.157216 354.7359 
" style="fill:none;stroke:#5cb85c;stroke-linecap:square;"/>
   </g>
   <g id="line2d_76">
    <path clip-path="url(#pe15c5fec7b)" d="M 86.339034 87.945493 
L 143.926913 324.299073 
L 201.514792 341.495403 
L 259.10267 351.005431 
L 316.690549 352.867221 
L 374.278428 353.834327 
L 431.866307 354.228466 
L 489.454186 354.404778 
L 547.042064 354.459156 
L 604.629943 353.503488 
L 662.217822 354.718885 
L 719.805701 354.711946 
L 777.39358 354.723564 
L 834.981458 354.697369 
L 892.569337 354.7359 
L 950.157216 354.7359 
" style="fill:none;stroke:#5cb85c;stroke-linecap:square;"/>
   </g>
   <g id="line2d_77">
    <path clip-path="url(#pe15c5fec7b)" d="M 86.339034 92.064536 
L 143.926913 325.657077 
L 201.514792 339.533793 
L 259.10267 350.714533 
L 316.690549 352.511609 
L 374.278428 353.513524 
L 431.866307 353.952259 
L 489.454186 354.176498 
L 547.042064 354.23385 
L 604.629943 351.863262 
L 662.217822 354.582096 
L 719.805701 354.70245 
L 777.39358 354.7359 
L 834.981458 354.691186 
L 892.569337 354.697927 
L 950.157216 354.7359 
" style="fill:none;stroke:#5cb85c;stroke-linecap:square;"/>
   </g>
   <g id="line2d_78">
    <path clip-path="url(#pe15c5fec7b)" d="M 86.339034 90.621324 
L 143.926913 325.668047 
L 201.514792 340.370886 
L 259.10267 350.797533 
L 316.690549 352.511471 
L 374.278428 353.632164 
L 431.866307 353.948998 
L 489.454186 354.11216 
L 547.042064 354.288533 
L 604.629943 352.206534 
L 662.217822 354.636495 
L 719.805701 354.702185 
L 777.39358 354.730586 
L 834.981458 354.667685 
L 892.569337 354.7359 
L 950.157216 354.7359 
" style="fill:none;stroke:#5cb85c;stroke-linecap:square;"/>
   </g>
   <g id="line2d_79">
    <path clip-path="url(#pe15c5fec7b)" d="M 86.339034 158.482694 
L 143.926913 331.737137 
L 201.514792 326.977916 
L 259.10267 342.074169 
L 316.690549 341.993006 
L 374.278428 346.577945 
L 431.866307 347.719149 
L 489.454186 349.639116 
L 547.042064 350.410562 
L 604.629943 335.633893 
L 662.217822 353.117235 
L 719.805701 353.131705 
L 777.39358 354.664172 
L 834.981458 354.7359 
L 892.569337 354.7359 
L 950.157216 354.7359 
" style="fill:none;stroke:#5cb85c;stroke-linecap:square;"/>
   </g>
   <g id="line2d_80">
    <path clip-path="url(#pe15c5fec7b)" d="M 86.339034 156.955886 
L 143.926913 331.349625 
L 201.514792 326.186928 
L 259.10267 342.215116 
L 316.690549 341.855904 
L 374.278428 346.995504 
L 431.866307 347.96437 
L 489.454186 349.791994 
L 547.042064 350.650498 
L 604.629943 337.137913 
L 662.217822 353.189341 
L 719.805701 353.182863 
L 777.39358 354.682758 
L 834.981458 354.7359 
L 892.569337 354.7359 
L 950.157216 354.7359 
" style="fill:none;stroke:#5cb85c;stroke-linecap:square;"/>
   </g>
   <g id="line2d_81">
    <path clip-path="url(#pe15c5fec7b)" d="M 86.339034 153.960874 
L 143.926913 315.08261 
L 201.514792 320.760162 
L 259.10267 341.18184 
L 316.690549 345.122941 
L 374.278428 349.505649 
L 431.866307 351.095418 
L 489.454186 352.364093 
L 547.042064 352.927743 
L 604.629943 346.485743 
L 662.217822 354.358578 
L 719.805701 354.590287 
L 777.39358 354.722763 
L 834.981458 354.7359 
L 892.569337 354.7359 
L 950.157216 354.7359 
" style="fill:none;stroke:#5cb85c;stroke-linecap:square;"/>
   </g>
   <g id="line2d_82">
    <path clip-path="url(#pe15c5fec7b)" d="M 86.339034 148.705261 
L 143.926913 314.395111 
L 201.514792 321.70334 
L 259.10267 341.838606 
L 316.690549 346.274553 
L 374.278428 350.325772 
L 431.866307 351.6406 
L 489.454186 352.617597 
L 547.042064 353.223462 
L 604.629943 347.612329 
L 662.217822 354.488286 
L 719.805701 354.603622 
L 777.39358 354.730162 
L 834.981458 354.7359 
L 892.569337 354.7359 
L 950.157216 354.7359 
" style="fill:none;stroke:#5cb85c;stroke-linecap:square;"/>
   </g>
   <g id="line2d_83">
    <path clip-path="url(#pe15c5fec7b)" d="M 86.339034 159.122273 
L 143.926913 313.145362 
L 201.514792 320.54568 
L 259.10267 340.405355 
L 316.690549 345.085109 
L 374.278428 349.50913 
L 431.866307 351.098781 
L 489.454186 352.100643 
L 547.042064 352.779786 
L 604.629943 344.549175 
L 662.217822 354.471735 
L 719.805701 354.615338 
L 777.39358 354.730334 
L 834.981458 354.7359 
L 892.569337 354.7359 
L 950.157216 354.7359 
" style="fill:none;stroke:#5cb85c;stroke-linecap:square;"/>
   </g>
   <g id="line2d_84">
    <path clip-path="url(#pe15c5fec7b)" d="M 86.339034 155.192375 
L 143.926913 312.367122 
L 201.514792 320.867125 
L 259.10267 341.232214 
L 316.690549 345.939143 
L 374.278428 349.947793 
L 431.866307 351.412932 
L 489.454186 352.47956 
L 547.042064 353.014417 
L 604.629943 345.856168 
L 662.217822 354.475721 
L 719.805701 354.643876 
L 777.39358 354.730254 
L 834.981458 354.7359 
L 892.569337 354.7359 
L 950.157216 354.7359 
" style="fill:none;stroke:#5cb85c;stroke-linecap:square;"/>
   </g>
   <g id="line2d_85">
    <path clip-path="url(#pe15c5fec7b)" d="M 86.339034 274.407283 
L 143.926913 336.567363 
L 201.514792 328.683669 
L 259.10267 335.213101 
L 316.690549 335.313186 
L 374.278428 339.287495 
L 431.866307 340.76883 
L 489.454186 343.827814 
L 547.042064 345.127775 
L 604.629943 267.152368 
L 662.217822 344.119098 
L 719.805701 348.003578 
L 777.39358 353.940645 
L 834.981458 354.482396 
L 892.569337 354.7359 
L 950.157216 354.7359 
" style="fill:none;stroke:#d9534f;stroke-linecap:square;"/>
   </g>
   <g id="line2d_86">
    <path clip-path="url(#pe15c5fec7b)" d="M 86.339034 272.856326 
L 143.926913 335.288615 
L 201.514792 327.014634 
L 259.10267 334.267056 
L 316.690549 333.749786 
L 374.278428 338.688191 
L 431.866307 340.298171 
L 489.454186 343.374564 
L 547.042064 344.593665 
L 604.629943 273.781382 
L 662.217822 345.718683 
L 719.805701 348.647683 
L 777.39358 354.112295 
L 834.981458 354.503549 
L 892.569337 354.7359 
L 950.157216 354.7359 
" style="fill:none;stroke:#d9534f;stroke-linecap:square;"/>
   </g>
   <g id="line2d_87">
    <path clip-path="url(#pe15c5fec7b)" d="M 86.339034 218.373725 
L 143.926913 336.952531 
L 201.514792 321.170154 
L 259.10267 338.357383 
L 316.690549 334.219146 
L 374.278428 342.218161 
L 431.866307 342.260818 
L 489.454186 346.150759 
L 547.042064 346.893805 
L 604.629943 312.314283 
L 662.217822 348.235291 
L 719.805701 350.326696 
L 777.39358 354.694793 
L 834.981458 354.727057 
L 892.569337 354.7359 
L 950.157216 354.7359 
" style="fill:none;stroke:#f0ad4e;stroke-linecap:square;"/>
   </g>
   <g id="line2d_88">
    <path clip-path="url(#pe15c5fec7b)" d="M 86.339034 219.256622 
L 143.926913 335.360624 
L 201.514792 320.556166 
L 259.10267 337.991396 
L 316.690549 333.879872 
L 374.278428 341.597971 
L 431.866307 341.987891 
L 489.454186 346.556221 
L 547.042064 347.491747 
L 604.629943 313.268526 
L 662.217822 348.790545 
L 719.805701 350.712666 
L 777.39358 354.708453 
L 834.981458 354.7359 
L 892.569337 354.7359 
L 950.157216 354.7359 
" style="fill:none;stroke:#f0ad4e;stroke-linecap:square;"/>
   </g>
   <g id="line2d_89">
    <path clip-path="url(#pe15c5fec7b)" d="M 86.339034 221.674604 
L 143.926913 334.074573 
L 201.514792 325.239544 
L 259.10267 336.797452 
L 316.690549 335.692543 
L 374.278428 341.150301 
L 431.866307 343.037769 
L 489.454186 345.800736 
L 547.042064 347.24099 
L 604.629943 305.843669 
L 662.217822 350.434507 
L 719.805701 350.952645 
L 777.39358 354.331024 
L 834.981458 354.624243 
L 892.569337 354.7359 
L 950.157216 354.7359 
" style="fill:none;stroke:#f0ad4e;stroke-linecap:square;"/>
   </g>
   <g id="line2d_90">
    <path clip-path="url(#pe15c5fec7b)" d="M 86.339034 222.360219 
L 143.926913 333.23602 
L 201.514792 323.71006 
L 259.10267 335.460168 
L 316.690549 334.578852 
L 374.278428 340.094018 
L 431.866307 342.402949 
L 489.454186 345.576271 
L 547.042064 347.075016 
L 604.629943 311.433641 
L 662.217822 350.900125 
L 719.805701 350.988117 
L 777.39358 354.422526 
L 834.981458 354.656618 
L 892.569337 354.7359 
L 950.157216 354.7359 
" style="fill:none;stroke:#f0ad4e;stroke-linecap:square;"/>
   </g>
   <g id="line2d_91">
    <path clip-path="url(#pe15c5fec7b)" d="M 86.339034 354.7359 
L 143.926913 115.683488 
L 201.514792 354.7359 
L 259.10267 305.814371 
L 316.690549 354.7359 
L 374.278428 338.385686 
L 431.866307 354.7359 
L 489.454186 347.986271 
L 547.042064 354.7359 
L 604.629943 347.617091 
L 662.217822 354.099393 
L 719.805701 354.168464 
L 777.39358 354.724435 
L 834.981458 354.7359 
L 892.569337 354.7359 
L 950.157216 354.7359 
" style="fill:none;stroke:#d9534f;stroke-linecap:square;"/>
   </g>
   <g id="line2d_92">
    <path clip-path="url(#pe15c5fec7b)" d="M 86.339034 354.7359 
L 143.926913 112.337239 
L 201.514792 354.7359 
L 259.10267 305.592109 
L 316.690549 354.7359 
L 374.278428 339.616267 
L 431.866307 354.7359 
L 489.454186 348.844604 
L 547.042064 354.7359 
L 604.629943 349.078104 
L 662.217822 354.005344 
L 719.805701 354.279997 
L 777.39358 354.725537 
L 834.981458 354.7359 
L 892.569337 354.7359 
L 950.157216 354.7359 
" style="fill:none;stroke:#d9534f;stroke-linecap:square;"/>
   </g>
   <g id="line2d_93">
    <path clip-path="url(#pe15c5fec7b)" d="M 86.339034 239.948406 
L 143.926913 310.641538 
L 201.514792 317.77044 
L 259.10267 324.806841 
L 316.690549 329.909666 
L 374.278428 335.582301 
L 431.866307 340.744197 
L 489.454186 344.507219 
L 547.042064 347.323572 
L 604.629943 337.643523 
L 662.217822 354.384818 
L 719.805701 354.228844 
L 777.39358 354.7359 
L 834.981458 354.667335 
L 892.569337 354.7359 
L 950.157216 354.7359 
" style="fill:none;stroke:#f0ad4e;stroke-linecap:square;"/>
   </g>
   <g id="line2d_94">
    <path clip-path="url(#pe15c5fec7b)" d="M 86.339034 240.138879 
L 143.926913 308.08637 
L 201.514792 316.507388 
L 259.10267 323.41939 
L 316.690549 329.599219 
L 374.278428 335.566742 
L 431.866307 341.19989 
L 489.454186 345.441003 
L 547.042064 348.293653 
L 604.629943 340.495638 
L 662.217822 354.458054 
L 719.805701 354.278433 
L 777.39358 354.730451 
L 834.981458 354.679489 
L 892.569337 354.7359 
L 950.157216 354.7359 
" style="fill:none;stroke:#f0ad4e;stroke-linecap:square;"/>
   </g>
   <g id="line2d_95">
    <path clip-path="url(#pe15c5fec7b)" d="M 86.339034 167.324428 
L 143.926913 323.380016 
L 201.514792 304.022617 
L 259.10267 339.758758 
L 316.690549 339.794022 
L 374.278428 349.185636 
L 431.866307 349.953281 
L 489.454186 352.335615 
L 547.042064 353.053588 
L 604.629943 349.375845 
L 662.217822 354.565514 
L 719.805701 354.711697 
L 777.39358 354.7359 
L 834.981458 354.697683 
L 892.569337 354.7359 
L 950.157216 354.7359 
" style="fill:none;stroke:#5cb85c;stroke-linecap:square;"/>
   </g>
   <g id="line2d_96">
    <path clip-path="url(#pe15c5fec7b)" d="M 86.339034 159.121892 
L 143.926913 322.941732 
L 201.514792 306.38478 
L 259.10267 341.31843 
L 316.690549 341.339351 
L 374.278428 349.848736 
L 431.866307 350.588296 
L 489.454186 352.900911 
L 547.042064 353.301089 
L 604.629943 350.389034 
L 662.217822 354.623334 
L 719.805701 354.720589 
L 777.39358 354.725052 
L 834.981458 354.691375 
L 892.569337 354.7359 
L 950.157216 354.7359 
" style="fill:none;stroke:#5cb85c;stroke-linecap:square;"/>
   </g>
   <g id="line2d_97">
    <path clip-path="url(#pe15c5fec7b)" d="M 86.339034 167.210177 
L 143.926913 310.695571 
L 201.514792 318.753072 
L 259.10267 335.664951 
L 316.690549 341.923283 
L 374.278428 347.156453 
L 431.866307 350.253131 
L 489.454186 352.373055 
L 547.042064 353.326258 
L 604.629943 350.859504 
L 662.217822 354.499954 
L 719.805701 354.716895 
L 777.39358 354.7359 
L 834.981458 354.726395 
L 892.569337 354.7359 
L 950.157216 354.7359 
" style="fill:none;stroke:#5cb85c;stroke-linecap:square;"/>
   </g>
   <g id="line2d_98">
    <path clip-path="url(#pe15c5fec7b)" d="M 86.339034 163.473327 
L 143.926913 309.478896 
L 201.514792 318.594478 
L 259.10267 336.161566 
L 316.690549 342.722566 
L 374.278428 348.438582 
L 431.866307 351.206344 
L 489.454186 352.607431 
L 547.042064 353.67691 
L 604.629943 351.774031 
L 662.217822 354.568606 
L 719.805701 354.720062 
L 777.39358 354.7359 
L 834.981458 354.7359 
L 892.569337 354.7359 
L 950.157216 354.7359 
" style="fill:none;stroke:#5cb85c;stroke-linecap:square;"/>
   </g>
   <g id="line2d_99">
    <path clip-path="url(#pe15c5fec7b)" d="M 86.339034 152.297269 
L 143.926913 319.288459 
L 201.514792 313.401014 
L 259.10267 339.698063 
L 316.690549 342.981844 
L 374.278428 349.720014 
L 431.866307 351.436228 
L 489.454186 353.053562 
L 547.042064 353.740766 
L 604.629943 352.419946 
L 662.217822 354.663517 
L 719.805701 354.732318 
L 777.39358 354.7359 
L 834.981458 354.725699 
L 892.569337 354.7359 
L 950.157216 354.7359 
" style="fill:none;stroke:#5cb85c;stroke-linecap:square;"/>
   </g>
   <g id="line2d_100">
    <path clip-path="url(#pe15c5fec7b)" d="M 86.339034 151.228229 
L 143.926913 317.5793 
L 201.514792 312.994119 
L 259.10267 340.224947 
L 316.690549 343.317325 
L 374.278428 350.204166 
L 431.866307 352.03679 
L 489.454186 353.481266 
L 547.042064 354.069194 
L 604.629943 352.863805 
L 662.217822 354.691588 
L 719.805701 354.732069 
L 777.39358 354.7359 
L 834.981458 354.7359 
L 892.569337 354.7359 
L 950.157216 354.7359 
" style="fill:none;stroke:#5cb85c;stroke-linecap:square;"/>
   </g>
   <g id="line2d_101">
    <path clip-path="url(#pe15c5fec7b)" d="M 86.339034 127.549443 
L 143.926913 318.196656 
L 201.514792 323.894703 
L 259.10267 344.602289 
L 316.690549 348.168345 
L 374.278428 351.870506 
L 431.866307 353.062339 
L 489.454186 353.780839 
L 547.042064 354.111379 
L 604.629943 352.808583 
L 662.217822 354.687784 
L 719.805701 354.720433 
L 777.39358 354.7359 
L 834.981458 354.705401 
L 892.569337 354.7359 
L 950.157216 354.7359 
" style="fill:none;stroke:#5cb85c;stroke-linecap:square;"/>
   </g>
   <g id="line2d_102">
    <path clip-path="url(#pe15c5fec7b)" d="M 86.339034 122.657984 
L 143.926913 318.426529 
L 201.514792 325.471968 
L 259.10267 345.616413 
L 316.690549 348.917839 
L 374.278428 352.300252 
L 431.866307 353.303124 
L 489.454186 353.964063 
L 547.042064 354.24976 
L 604.629943 353.128428 
L 662.217822 354.698168 
L 719.805701 354.708325 
L 777.39358 354.7359 
L 834.981458 354.715846 
L 892.569337 354.7359 
L 950.157216 354.7359 
" style="fill:none;stroke:#5cb85c;stroke-linecap:square;"/>
   </g>
   <g id="line2d_103">
    <path clip-path="url(#pe15c5fec7b)" d="M 86.339034 81.07203 
L 143.926913 332.633353 
L 201.514792 338.876439 
L 259.10267 351.438347 
L 316.690549 352.589385 
L 374.278428 353.990607 
L 431.866307 354.25344 
L 489.454186 354.44607 
L 547.042064 354.568238 
L 604.629943 354.109375 
L 662.217822 354.725388 
L 719.805701 354.731459 
L 777.39358 354.7359 
L 834.981458 354.724568 
L 892.569337 354.7359 
L 950.157216 354.7359 
" style="fill:none;stroke:#5cb85c;stroke-linecap:square;"/>
   </g>
   <g id="line2d_104">
    <path clip-path="url(#pe15c5fec7b)" d="M 86.339034 77.782795 
L 143.926913 333.646204 
L 201.514792 339.865083 
L 259.10267 352.043953 
L 316.690549 352.939072 
L 374.278428 354.070903 
L 431.866307 354.327407 
L 489.454186 354.468606 
L 547.042064 354.590804 
L 604.629943 354.265875 
L 662.217822 354.72892 
L 719.805701 354.704081 
L 777.39358 354.7359 
L 834.981458 354.724995 
L 892.569337 354.7359 
L 950.157216 354.7359 
" style="fill:none;stroke:#5cb85c;stroke-linecap:square;"/>
   </g>
   <g id="line2d_105">
    <path clip-path="url(#pe15c5fec7b)" d="M 86.339034 125.842353 
L 143.926913 306.71335 
L 201.514792 332.888705 
L 259.10267 345.751371 
L 316.690549 350.472715 
L 374.278428 352.711794 
L 431.866307 353.566144 
L 489.454186 354.062446 
L 547.042064 354.328352 
L 604.629943 351.78946 
L 662.217822 354.669084 
L 719.805701 354.682508 
L 777.39358 354.731215 
L 834.981458 354.711865 
L 892.569337 354.709138 
L 950.157216 354.7359 
" style="fill:none;stroke:#5cb85c;stroke-linecap:square;"/>
   </g>
   <g id="line2d_106">
    <path clip-path="url(#pe15c5fec7b)" d="M 86.339034 121.736255 
L 143.926913 307.334086 
L 201.514792 334.054446 
L 259.10267 346.8321 
L 316.690549 350.875815 
L 374.278428 353.006364 
L 431.866307 353.832103 
L 489.454186 354.152214 
L 547.042064 354.309079 
L 604.629943 351.9807 
L 662.217822 354.68257 
L 719.805701 354.688327 
L 777.39358 354.726233 
L 834.981458 354.684309 
L 892.569337 354.7359 
L 950.157216 354.7359 
" style="fill:none;stroke:#5cb85c;stroke-linecap:square;"/>
   </g>
   <g id="line2d_107">
    <path clip-path="url(#pe15c5fec7b)" d="M 86.339034 132.219579 
L 143.926913 321.391949 
L 201.514792 331.258173 
L 259.10267 346.535574 
L 316.690549 349.785871 
L 374.278428 352.258121 
L 431.866307 352.951703 
L 489.454186 353.277394 
L 547.042064 353.262901 
L 604.629943 335.298857 
L 662.217822 354.596202 
L 719.805701 354.702457 
L 777.39358 354.723679 
L 834.981458 354.675318 
L 892.569337 354.692722 
L 950.157216 354.7359 
" style="fill:none;stroke:#5cb85c;stroke-linecap:square;"/>
   </g>
   <g id="line2d_108">
    <path clip-path="url(#pe15c5fec7b)" d="M 86.339034 128.438519 
L 143.926913 322.145394 
L 201.514792 332.35199 
L 259.10267 347.187356 
L 316.690549 350.435466 
L 374.278428 352.443833 
L 431.866307 352.967593 
L 489.454186 353.283691 
L 547.042064 353.220958 
L 604.629943 335.689184 
L 662.217822 354.674459 
L 719.805701 354.702979 
L 777.39358 354.728322 
L 834.981458 354.708521 
L 892.569337 354.652235 
L 950.157216 354.7359 
" style="fill:none;stroke:#5cb85c;stroke-linecap:square;"/>
   </g>
   <g id="line2d_109">
    <path clip-path="url(#pe15c5fec7b)" d="M 86.339034 120.674255 
L 143.926913 326.695208 
L 201.514792 326.745655 
L 259.10267 344.85696 
L 316.690549 347.00307 
L 374.278428 351.179532 
L 431.866307 352.348301 
L 489.454186 353.384676 
L 547.042064 353.863024 
L 604.629943 351.283826 
L 662.217822 354.670673 
L 719.805701 354.723572 
L 777.39358 354.729949 
L 834.981458 354.7359 
L 892.569337 354.7359 
L 950.157216 354.7359 
" style="fill:none;stroke:#5cb85c;stroke-linecap:square;"/>
   </g>
   <g id="line2d_110">
    <path clip-path="url(#pe15c5fec7b)" d="M 86.339034 118.604336 
L 143.926913 326.552861 
L 201.514792 327.361243 
L 259.10267 345.323894 
L 316.690549 347.278313 
L 374.278428 351.291654 
L 431.866307 352.608457 
L 489.454186 353.613026 
L 547.042064 354.056238 
L 604.629943 351.292654 
L 662.217822 354.708292 
L 719.805701 354.731833 
L 777.39358 354.7359 
L 834.981458 354.7359 
L 892.569337 354.7359 
L 950.157216 354.7359 
" style="fill:none;stroke:#5cb85c;stroke-linecap:square;"/>
   </g>
   <g id="line2d_111">
    <path clip-path="url(#pe15c5fec7b)" d="M 86.339034 96.357658 
L 143.926913 325.725529 
L 201.514792 336.772949 
L 259.10267 349.759175 
L 316.690549 351.722305 
L 374.278428 353.266003 
L 431.866307 353.778481 
L 489.454186 353.992947 
L 547.042064 354.201432 
L 604.629943 352.456431 
L 662.217822 354.71888 
L 719.805701 354.700988 
L 777.39358 354.71802 
L 834.981458 354.723802 
L 892.569337 354.7359 
L 950.157216 354.7359 
" style="fill:none;stroke:#5cb85c;stroke-linecap:square;"/>
   </g>
   <g id="line2d_112">
    <path clip-path="url(#pe15c5fec7b)" d="M 86.339034 92.676321 
L 143.926913 326.955458 
L 201.514792 338.116328 
L 259.10267 349.880801 
L 316.690549 352.106981 
L 374.278428 353.44571 
L 431.866307 353.746339 
L 489.454186 353.999368 
L 547.042064 354.25616 
L 604.629943 352.848962 
L 662.217822 354.729153 
L 719.805701 354.704041 
L 777.39358 354.72474 
L 834.981458 354.704238 
L 892.569337 354.7359 
L 950.157216 354.7359 
" style="fill:none;stroke:#5cb85c;stroke-linecap:square;"/>
   </g>
   <g id="line2d_113">
    <path clip-path="url(#pe15c5fec7b)" d="M 86.339034 89.928588 
L 143.926913 330.433635 
L 201.514792 335.898501 
L 259.10267 350.426952 
L 316.690549 351.624595 
L 374.278428 353.534842 
L 431.866307 353.880645 
L 489.454186 354.169338 
L 547.042064 354.420049 
L 604.629943 353.717296 
L 662.217822 354.725627 
L 719.805701 354.717251 
L 777.39358 354.7359 
L 834.981458 354.681379 
L 892.569337 354.7359 
L 950.157216 354.7359 
" style="fill:none;stroke:#5cb85c;stroke-linecap:square;"/>
   </g>
   <g id="line2d_114">
    <path clip-path="url(#pe15c5fec7b)" d="M 86.339034 86.136637 
L 143.926913 330.988634 
L 201.514792 337.596814 
L 259.10267 350.89451 
L 316.690549 352.10881 
L 374.278428 353.602228 
L 431.866307 354.022083 
L 489.454186 354.291643 
L 547.042064 354.439373 
L 604.629943 353.95436 
L 662.217822 354.728918 
L 719.805701 354.72293 
L 777.39358 354.724146 
L 834.981458 354.683516 
L 892.569337 354.7359 
L 950.157216 354.7359 
" style="fill:none;stroke:#5cb85c;stroke-linecap:square;"/>
   </g>
   <g id="line2d_115">
    <path clip-path="url(#pe15c5fec7b)" d="M 86.339034 127.120855 
L 143.926913 315.334278 
L 201.514792 328.76287 
L 259.10267 343.939766 
L 316.690549 348.22945 
L 374.278428 351.373289 
L 431.866307 352.885759 
L 489.454186 353.668352 
L 547.042064 354.037385 
L 604.629943 352.865261 
L 662.217822 354.513099 
L 719.805701 354.714322 
L 777.39358 354.728731 
L 834.981458 354.721183 
L 892.569337 354.7359 
L 950.157216 354.7359 
" style="fill:none;stroke:#5cb85c;stroke-linecap:square;"/>
   </g>
   <g id="line2d_116">
    <path clip-path="url(#pe15c5fec7b)" d="M 86.339034 121.323844 
L 143.926913 316.190802 
L 201.514792 330.532893 
L 259.10267 344.870723 
L 316.690549 349.091212 
L 374.278428 351.809439 
L 431.866307 353.194 
L 489.454186 353.806549 
L 547.042064 354.178978 
L 604.629943 353.187052 
L 662.217822 354.541884 
L 719.805701 354.720411 
L 777.39358 354.723497 
L 834.981458 354.723318 
L 892.569337 354.7359 
L 950.157216 354.7359 
" style="fill:none;stroke:#5cb85c;stroke-linecap:square;"/>
   </g>
   <g id="line2d_117">
    <path clip-path="url(#pe15c5fec7b)" d="M 86.339034 150.325733 
L 143.926913 328.439743 
L 201.514792 328.028048 
L 259.10267 346.993118 
L 316.690549 348.457466 
L 374.278428 351.949052 
L 431.866307 352.607435 
L 489.454186 353.452891 
L 547.042064 353.627608 
L 604.629943 322.90378 
L 662.217822 347.028206 
L 719.805701 353.782532 
L 777.39358 354.729861 
L 834.981458 354.688449 
L 892.569337 354.7359 
L 950.157216 354.616576 
" style="fill:none;stroke:#5cb85c;stroke-linecap:square;"/>
   </g>
   <g id="line2d_118">
    <path clip-path="url(#pe15c5fec7b)" d="M 86.339034 145.90513 
L 143.926913 328.745407 
L 201.514792 329.199632 
L 259.10267 347.626812 
L 316.690549 349.089377 
L 374.278428 352.279905 
L 431.866307 352.910196 
L 489.454186 353.535521 
L 547.042064 353.662344 
L 604.629943 322.233314 
L 662.217822 348.342573 
L 719.805701 354.051481 
L 777.39358 354.728867 
L 834.981458 354.726367 
L 892.569337 354.699172 
L 950.157216 354.630301 
" style="fill:none;stroke:#5cb85c;stroke-linecap:square;"/>
   </g>
   <g id="line2d_119">
    <path clip-path="url(#pe15c5fec7b)" d="M 86.339034 104.241351 
L 143.926913 327.86808 
L 201.514792 332.437972 
L 259.10267 349.170722 
L 316.690549 350.654778 
L 374.278428 353.121389 
L 431.866307 353.434384 
L 489.454186 354.03449 
L 547.042064 354.217264 
L 604.629943 349.537234 
L 662.217822 354.019673 
L 719.805701 354.692131 
L 777.39358 354.729231 
L 834.981458 354.7359 
L 892.569337 354.7359 
L 950.157216 354.7359 
" style="fill:none;stroke:#5cb85c;stroke-linecap:square;"/>
   </g>
   <g id="line2d_120">
    <path clip-path="url(#pe15c5fec7b)" d="M 86.339034 99.562684 
L 143.926913 328.784401 
L 201.514792 334.01432 
L 259.10267 349.830259 
L 316.690549 351.311928 
L 374.278428 353.249753 
L 431.866307 353.707523 
L 489.454186 354.076305 
L 547.042064 354.304232 
L 604.629943 349.794562 
L 662.217822 354.143615 
L 719.805701 354.670381 
L 777.39358 354.7359 
L 834.981458 354.708736 
L 892.569337 354.7359 
L 950.157216 354.7359 
" style="fill:none;stroke:#5cb85c;stroke-linecap:square;"/>
   </g>
   <g id="line2d_121">
    <path clip-path="url(#pe15c5fec7b)" d="M 86.339034 111.397109 
L 143.926913 325.198882 
L 201.514792 331.091017 
L 259.10267 347.246445 
L 316.690549 349.517015 
L 374.278428 352.02715 
L 431.866307 352.939756 
L 489.454186 353.50706 
L 547.042064 353.840578 
L 604.629943 351.419697 
L 662.217822 354.663803 
L 719.805701 354.667235 
L 777.39358 354.691057 
L 834.981458 354.687794 
L 892.569337 354.7359 
L 950.157216 354.7359 
" style="fill:none;stroke:#5cb85c;stroke-linecap:square;"/>
   </g>
   <g id="line2d_122">
    <path clip-path="url(#pe15c5fec7b)" d="M 86.339034 107.983812 
L 143.926913 325.17958 
L 201.514792 332.063938 
L 259.10267 347.873262 
L 316.690549 350.167258 
L 374.278428 352.261159 
L 431.866307 353.061666 
L 489.454186 353.674217 
L 547.042064 353.856581 
L 604.629943 351.998998 
L 662.217822 354.715325 
L 719.805701 354.666063 
L 777.39358 354.691445 
L 834.981458 354.701296 
L 892.569337 354.7359 
L 950.157216 354.7359 
" style="fill:none;stroke:#5cb85c;stroke-linecap:square;"/>
   </g>
   <g id="line2d_123">
    <path clip-path="url(#pe15c5fec7b)" d="M 86.339034 101.476002 
L 143.926913 326.47487 
L 201.514792 334.404797 
L 259.10267 348.555436 
L 316.690549 350.706081 
L 374.278428 353.102267 
L 431.866307 353.678794 
L 489.454186 354.166546 
L 547.042064 354.355906 
L 604.629943 351.497222 
L 662.217822 354.317405 
L 719.805701 354.687473 
L 777.39358 354.7359 
L 834.981458 354.7359 
L 892.569337 354.7359 
L 950.157216 354.7359 
" style="fill:none;stroke:#5cb85c;stroke-linecap:square;"/>
   </g>
   <g id="line2d_124">
    <path clip-path="url(#pe15c5fec7b)" d="M 86.339034 97.542498 
L 143.926913 326.757339 
L 201.514792 335.567834 
L 259.10267 349.467738 
L 316.690549 351.45604 
L 374.278428 353.272271 
L 431.866307 353.832961 
L 489.454186 354.201894 
L 547.042064 354.41385 
L 604.629943 351.779437 
L 662.217822 354.438192 
L 719.805701 354.705383 
L 777.39358 354.7359 
L 834.981458 354.723261 
L 892.569337 354.7359 
L 950.157216 354.7359 
" style="fill:none;stroke:#5cb85c;stroke-linecap:square;"/>
   </g>
   <g id="line2d_125">
    <path clip-path="url(#pe15c5fec7b)" d="M 43.148125 354.7359 
L 993.348125 354.7359 
" style="fill:none;stroke:#dedede;stroke-linecap:square;stroke-width:2;"/>
   </g>
   <g id="text_25">
    <!-- FastQC: Sequence Duplication Levels -->
    <g transform="translate(369.834375 19.3575)scale(0.16 -0.16)">
     <defs>
      <path d="M 628 4666 
L 3309 4666 
L 3309 4134 
L 1259 4134 
L 1259 2759 
L 3109 2759 
L 3109 2228 
L 1259 2228 
L 1259 0 
L 628 0 
L 628 4666 
z
" id="DejaVuSans-46" transform="scale(0.015625)"/>
      <path d="M 2834 3397 
L 2834 2853 
Q 2591 2978 2328 3040 
Q 2066 3103 1784 3103 
Q 1356 3103 1142 2972 
Q 928 2841 928 2578 
Q 928 2378 1081 2264 
Q 1234 2150 1697 2047 
L 1894 2003 
Q 2506 1872 2764 1633 
Q 3022 1394 3022 966 
Q 3022 478 2636 193 
Q 2250 -91 1575 -91 
Q 1294 -91 989 -36 
Q 684 19 347 128 
L 347 722 
Q 666 556 975 473 
Q 1284 391 1588 391 
Q 1994 391 2212 530 
Q 2431 669 2431 922 
Q 2431 1156 2273 1281 
Q 2116 1406 1581 1522 
L 1381 1569 
Q 847 1681 609 1914 
Q 372 2147 372 2553 
Q 372 3047 722 3315 
Q 1072 3584 1716 3584 
Q 2034 3584 2315 3537 
Q 2597 3491 2834 3397 
z
" id="DejaVuSans-73" transform="scale(0.015625)"/>
      <path d="M 2522 4238 
Q 1834 4238 1429 3725 
Q 1025 3213 1025 2328 
Q 1025 1447 1429 934 
Q 1834 422 2522 422 
Q 3209 422 3611 934 
Q 4013 1447 4013 2328 
Q 4013 3213 3611 3725 
Q 3209 4238 2522 4238 
z
M 3406 84 
L 4238 -825 
L 3475 -825 
L 2784 -78 
Q 2681 -84 2626 -87 
Q 2572 -91 2522 -91 
Q 1538 -91 948 567 
Q 359 1225 359 2328 
Q 359 3434 948 4092 
Q 1538 4750 2522 4750 
Q 3503 4750 4090 4092 
Q 4678 3434 4678 2328 
Q 4678 1516 4351 937 
Q 4025 359 3406 84 
z
" id="DejaVuSans-51" transform="scale(0.015625)"/>
      <path d="M 4122 4306 
L 4122 3641 
Q 3803 3938 3442 4084 
Q 3081 4231 2675 4231 
Q 1875 4231 1450 3742 
Q 1025 3253 1025 2328 
Q 1025 1406 1450 917 
Q 1875 428 2675 428 
Q 3081 428 3442 575 
Q 3803 722 4122 1019 
L 4122 359 
Q 3791 134 3420 21 
Q 3050 -91 2638 -91 
Q 1578 -91 968 557 
Q 359 1206 359 2328 
Q 359 3453 968 4101 
Q 1578 4750 2638 4750 
Q 3056 4750 3426 4639 
Q 3797 4528 4122 4306 
z
" id="DejaVuSans-43" transform="scale(0.015625)"/>
      <path d="M 750 794 
L 1409 794 
L 1409 0 
L 750 0 
L 750 794 
z
M 750 3309 
L 1409 3309 
L 1409 2516 
L 750 2516 
L 750 3309 
z
" id="DejaVuSans-3a" transform="scale(0.015625)"/>
     </defs>
     <use xlink:href="#DejaVuSans-46"/>
     <use x="48.394531" xlink:href="#DejaVuSans-61"/>
     <use x="109.673828" xlink:href="#DejaVuSans-73"/>
     <use x="161.773438" xlink:href="#DejaVuSans-74"/>
     <use x="200.982422" xlink:href="#DejaVuSans-51"/>
     <use x="279.693359" xlink:href="#DejaVuSans-43"/>
     <use x="349.517578" xlink:href="#DejaVuSans-3a"/>
     <use x="383.208984" xlink:href="#DejaVuSans-20"/>
     <use x="414.996094" xlink:href="#DejaVuSans-53"/>
     <use x="478.472656" xlink:href="#DejaVuSans-65"/>
     <use x="539.996094" xlink:href="#DejaVuSans-71"/>
     <use x="603.472656" xlink:href="#DejaVuSans-75"/>
     <use x="666.851562" xlink:href="#DejaVuSans-65"/>
     <use x="728.375" xlink:href="#DejaVuSans-6e"/>
     <use x="791.753906" xlink:href="#DejaVuSans-63"/>
     <use x="846.734375" xlink:href="#DejaVuSans-65"/>
     <use x="908.257812" xlink:href="#DejaVuSans-20"/>
     <use x="940.044922" xlink:href="#DejaVuSans-44"/>
     <use x="1017.046875" xlink:href="#DejaVuSans-75"/>
     <use x="1080.425781" xlink:href="#DejaVuSans-70"/>
     <use x="1143.902344" xlink:href="#DejaVuSans-6c"/>
     <use x="1171.685547" xlink:href="#DejaVuSans-69"/>
     <use x="1199.46875" xlink:href="#DejaVuSans-63"/>
     <use x="1254.449219" xlink:href="#DejaVuSans-61"/>
     <use x="1315.728516" xlink:href="#DejaVuSans-74"/>
     <use x="1354.9375" xlink:href="#DejaVuSans-69"/>
     <use x="1382.720703" xlink:href="#DejaVuSans-6f"/>
     <use x="1443.902344" xlink:href="#DejaVuSans-6e"/>
     <use x="1507.28125" xlink:href="#DejaVuSans-20"/>
     <use x="1539.068359" xlink:href="#DejaVuSans-4c"/>
     <use x="1593.03125" xlink:href="#DejaVuSans-65"/>
     <use x="1654.554688" xlink:href="#DejaVuSans-76"/>
     <use x="1713.734375" xlink:href="#DejaVuSans-65"/>
     <use x="1775.257812" xlink:href="#DejaVuSans-6c"/>
     <use x="1803.041016" xlink:href="#DejaVuSans-73"/>
    </g>
   </g>
  </g>
 </g>
 <defs>
  <clipPath id="pe15c5fec7b">
   <rect height="319.408" width="950.2" x="43.148125" y="35.3279"/>
  </clipPath>
 </defs>
</svg>
