<?xml version="1.0" encoding="utf-8" standalone="no"?>
<!DOCTYPE svg PUBLIC "-//W3C//DTD SVG 1.1//EN"
  "http://www.w3.org/Graphics/SVG/1.1/DTD/svg11.dtd">
<svg height="390.356525pt" version="1.1" viewBox="0 0 1000.340625 390.356525" width="1000.340625pt" xmlns="http://www.w3.org/2000/svg" xmlns:xlink="http://www.w3.org/1999/xlink">
 <metadata>
  <rdf:RDF xmlns:cc="http://creativecommons.org/ns#" xmlns:dc="http://purl.org/dc/elements/1.1/" xmlns:rdf="http://www.w3.org/1999/02/22-rdf-syntax-ns#">
   <cc:Work>
    <dc:type rdf:resource="http://purl.org/dc/dcmitype/StillImage"/>
    <dc:date>2021-09-07T06:20:14.378067</dc:date>
    <dc:format>image/svg+xml</dc:format>
    <dc:creator>
     <cc:Agent>
      <dc:title>Matplotlib v3.4.2, https://matplotlib.org/</dc:title>
     </cc:Agent>
    </dc:creator>
   </cc:Work>
  </rdf:RDF>
 </metadata>
 <defs>
  <style type="text/css">*{stroke-linecap:butt;stroke-linejoin:round;}</style>
 </defs>
 <g id="figure_1">
  <g id="axes_1">
   <g id="patch_1">
    <path d="M 40.600625 354.7359 
L 993.140625 354.7359 
L 993.140625 35.3279 
L 40.600625 35.3279 
z
" style="fill:#ffffff;"/>
   </g>
   <g id="patch_2">
    <path clip-path="url(#p656897bd96)" d="M 711.572197 354.7359 
L 2436.927669 354.7359 
L 2436.927669 35.3279 
L 711.572197 35.3279 
z
" style="fill:#c3e6c3;"/>
   </g>
   <g id="patch_3">
    <path clip-path="url(#p656897bd96)" d="M 519.866034 354.7359 
L 711.572197 354.7359 
L 711.572197 35.3279 
L 519.866034 35.3279 
z
" style="fill:#e6dcc3;"/>
   </g>
   <g id="patch_4">
    <path clip-path="url(#p656897bd96)" d="M 40.600625 354.7359 
L 519.866034 354.7359 
L 519.866034 35.3279 
L 40.600625 35.3279 
z
" style="fill:#e6c3c3;"/>
   </g>
   <g id="matplotlib.axis_1">
    <g id="xtick_1">
     <g id="text_1">
      <!-- 0 -->
      <g transform="translate(38.055625 367.81465)scale(0.08 -0.08)">
       <defs>
        <path d="M 2034 4250 
Q 1547 4250 1301 3770 
Q 1056 3291 1056 2328 
Q 1056 1369 1301 889 
Q 1547 409 2034 409 
Q 2525 409 2770 889 
Q 3016 1369 3016 2328 
Q 3016 3291 2770 3770 
Q 2525 4250 2034 4250 
z
M 2034 4750 
Q 2819 4750 3233 4129 
Q 3647 3509 3647 2328 
Q 3647 1150 3233 529 
Q 2819 -91 2034 -91 
Q 1250 -91 836 529 
Q 422 1150 422 2328 
Q 422 3509 836 4129 
Q 1250 4750 2034 4750 
z
" id="DejaVuSans-30" transform="scale(0.015625)"/>
       </defs>
       <use xlink:href="#DejaVuSans-30"/>
      </g>
     </g>
    </g>
    <g id="xtick_2">
     <g id="text_2">
      <!-- 5 -->
      <g transform="translate(157.871977 367.81465)scale(0.08 -0.08)">
       <defs>
        <path d="M 691 4666 
L 3169 4666 
L 3169 4134 
L 1269 4134 
L 1269 2991 
Q 1406 3038 1543 3061 
Q 1681 3084 1819 3084 
Q 2600 3084 3056 2656 
Q 3513 2228 3513 1497 
Q 3513 744 3044 326 
Q 2575 -91 1722 -91 
Q 1428 -91 1123 -41 
Q 819 9 494 109 
L 494 744 
Q 775 591 1075 516 
Q 1375 441 1709 441 
Q 2250 441 2565 725 
Q 2881 1009 2881 1497 
Q 2881 1984 2565 2268 
Q 2250 2553 1709 2553 
Q 1456 2553 1204 2497 
Q 953 2441 691 2322 
L 691 4666 
z
" id="DejaVuSans-35" transform="scale(0.015625)"/>
       </defs>
       <use xlink:href="#DejaVuSans-35"/>
      </g>
     </g>
    </g>
    <g id="xtick_3">
     <g id="text_3">
      <!-- 10 -->
      <g transform="translate(275.143329 367.81465)scale(0.08 -0.08)">
       <defs>
        <path d="M 794 531 
L 1825 531 
L 1825 4091 
L 703 3866 
L 703 4441 
L 1819 4666 
L 2450 4666 
L 2450 531 
L 3481 531 
L 3481 0 
L 794 0 
L 794 531 
z
" id="DejaVuSans-31" transform="scale(0.015625)"/>
       </defs>
       <use xlink:href="#DejaVuSans-31"/>
       <use x="63.623047" xlink:href="#DejaVuSans-30"/>
      </g>
     </g>
    </g>
    <g id="xtick_4">
     <g id="text_4">
      <!-- 15 -->
      <g transform="translate(394.959682 367.81465)scale(0.08 -0.08)">
       <use xlink:href="#DejaVuSans-31"/>
       <use x="63.623047" xlink:href="#DejaVuSans-35"/>
      </g>
     </g>
    </g>
    <g id="xtick_5">
     <g id="text_5">
      <!-- 20 -->
      <g transform="translate(514.776034 367.81465)scale(0.08 -0.08)">
       <defs>
        <path d="M 1228 531 
L 3431 531 
L 3431 0 
L 469 0 
L 469 531 
Q 828 903 1448 1529 
Q 2069 2156 2228 2338 
Q 2531 2678 2651 2914 
Q 2772 3150 2772 3378 
Q 2772 3750 2511 3984 
Q 2250 4219 1831 4219 
Q 1534 4219 1204 4116 
Q 875 4013 500 3803 
L 500 4441 
Q 881 4594 1212 4672 
Q 1544 4750 1819 4750 
Q 2544 4750 2975 4387 
Q 3406 4025 3406 3419 
Q 3406 3131 3298 2873 
Q 3191 2616 2906 2266 
Q 2828 2175 2409 1742 
Q 1991 1309 1228 531 
z
" id="DejaVuSans-32" transform="scale(0.015625)"/>
       </defs>
       <use xlink:href="#DejaVuSans-32"/>
       <use x="63.623047" xlink:href="#DejaVuSans-30"/>
      </g>
     </g>
    </g>
    <g id="xtick_6">
     <g id="text_6">
      <!-- 25 -->
      <g transform="translate(634.592386 367.81465)scale(0.08 -0.08)">
       <use xlink:href="#DejaVuSans-32"/>
       <use x="63.623047" xlink:href="#DejaVuSans-35"/>
      </g>
     </g>
    </g>
    <g id="xtick_7">
     <g id="text_7">
      <!-- 30 -->
      <g transform="translate(754.408738 367.81465)scale(0.08 -0.08)">
       <defs>
        <path d="M 2597 2516 
Q 3050 2419 3304 2112 
Q 3559 1806 3559 1356 
Q 3559 666 3084 287 
Q 2609 -91 1734 -91 
Q 1441 -91 1130 -33 
Q 819 25 488 141 
L 488 750 
Q 750 597 1062 519 
Q 1375 441 1716 441 
Q 2309 441 2620 675 
Q 2931 909 2931 1356 
Q 2931 1769 2642 2001 
Q 2353 2234 1838 2234 
L 1294 2234 
L 1294 2753 
L 1863 2753 
Q 2328 2753 2575 2939 
Q 2822 3125 2822 3475 
Q 2822 3834 2567 4026 
Q 2313 4219 1838 4219 
Q 1578 4219 1281 4162 
Q 984 4106 628 3988 
L 628 4550 
Q 988 4650 1302 4700 
Q 1616 4750 1894 4750 
Q 2613 4750 3031 4423 
Q 3450 4097 3450 3541 
Q 3450 3153 3228 2886 
Q 3006 2619 2597 2516 
z
" id="DejaVuSans-33" transform="scale(0.015625)"/>
       </defs>
       <use xlink:href="#DejaVuSans-33"/>
       <use x="63.623047" xlink:href="#DejaVuSans-30"/>
      </g>
     </g>
    </g>
    <g id="xtick_8">
     <g id="text_8">
      <!-- 35 -->
      <g transform="translate(874.22509 367.81465)scale(0.08 -0.08)">
       <use xlink:href="#DejaVuSans-33"/>
       <use x="63.623047" xlink:href="#DejaVuSans-35"/>
      </g>
     </g>
    </g>
    <g id="text_9">
     <!-- Mean Sequence Quality (Phred Score) -->
     <g transform="translate(422.078438 381.076838)scale(0.1 -0.1)">
      <defs>
       <path d="M 628 4666 
L 1569 4666 
L 2759 1491 
L 3956 4666 
L 4897 4666 
L 4897 0 
L 4281 0 
L 4281 4097 
L 3078 897 
L 2444 897 
L 1241 4097 
L 1241 0 
L 628 0 
L 628 4666 
z
" id="DejaVuSans-4d" transform="scale(0.015625)"/>
       <path d="M 3597 1894 
L 3597 1613 
L 953 1613 
Q 991 1019 1311 708 
Q 1631 397 2203 397 
Q 2534 397 2845 478 
Q 3156 559 3463 722 
L 3463 178 
Q 3153 47 2828 -22 
Q 2503 -91 2169 -91 
Q 1331 -91 842 396 
Q 353 884 353 1716 
Q 353 2575 817 3079 
Q 1281 3584 2069 3584 
Q 2775 3584 3186 3129 
Q 3597 2675 3597 1894 
z
M 3022 2063 
Q 3016 2534 2758 2815 
Q 2500 3097 2075 3097 
Q 1594 3097 1305 2825 
Q 1016 2553 972 2059 
L 3022 2063 
z
" id="DejaVuSans-65" transform="scale(0.015625)"/>
       <path d="M 2194 1759 
Q 1497 1759 1228 1600 
Q 959 1441 959 1056 
Q 959 750 1161 570 
Q 1363 391 1709 391 
Q 2188 391 2477 730 
Q 2766 1069 2766 1631 
L 2766 1759 
L 2194 1759 
z
M 3341 1997 
L 3341 0 
L 2766 0 
L 2766 531 
Q 2569 213 2275 61 
Q 1981 -91 1556 -91 
Q 1019 -91 701 211 
Q 384 513 384 1019 
Q 384 1609 779 1909 
Q 1175 2209 1959 2209 
L 2766 2209 
L 2766 2266 
Q 2766 2663 2505 2880 
Q 2244 3097 1772 3097 
Q 1472 3097 1187 3025 
Q 903 2953 641 2809 
L 641 3341 
Q 956 3463 1253 3523 
Q 1550 3584 1831 3584 
Q 2591 3584 2966 3190 
Q 3341 2797 3341 1997 
z
" id="DejaVuSans-61" transform="scale(0.015625)"/>
       <path d="M 3513 2113 
L 3513 0 
L 2938 0 
L 2938 2094 
Q 2938 2591 2744 2837 
Q 2550 3084 2163 3084 
Q 1697 3084 1428 2787 
Q 1159 2491 1159 1978 
L 1159 0 
L 581 0 
L 581 3500 
L 1159 3500 
L 1159 2956 
Q 1366 3272 1645 3428 
Q 1925 3584 2291 3584 
Q 2894 3584 3203 3211 
Q 3513 2838 3513 2113 
z
" id="DejaVuSans-6e" transform="scale(0.015625)"/>
       <path id="DejaVuSans-20" transform="scale(0.015625)"/>
       <path d="M 3425 4513 
L 3425 3897 
Q 3066 4069 2747 4153 
Q 2428 4238 2131 4238 
Q 1616 4238 1336 4038 
Q 1056 3838 1056 3469 
Q 1056 3159 1242 3001 
Q 1428 2844 1947 2747 
L 2328 2669 
Q 3034 2534 3370 2195 
Q 3706 1856 3706 1288 
Q 3706 609 3251 259 
Q 2797 -91 1919 -91 
Q 1588 -91 1214 -16 
Q 841 59 441 206 
L 441 856 
Q 825 641 1194 531 
Q 1563 422 1919 422 
Q 2459 422 2753 634 
Q 3047 847 3047 1241 
Q 3047 1584 2836 1778 
Q 2625 1972 2144 2069 
L 1759 2144 
Q 1053 2284 737 2584 
Q 422 2884 422 3419 
Q 422 4038 858 4394 
Q 1294 4750 2059 4750 
Q 2388 4750 2728 4690 
Q 3069 4631 3425 4513 
z
" id="DejaVuSans-53" transform="scale(0.015625)"/>
       <path d="M 947 1747 
Q 947 1113 1208 752 
Q 1469 391 1925 391 
Q 2381 391 2643 752 
Q 2906 1113 2906 1747 
Q 2906 2381 2643 2742 
Q 2381 3103 1925 3103 
Q 1469 3103 1208 2742 
Q 947 2381 947 1747 
z
M 2906 525 
Q 2725 213 2448 61 
Q 2172 -91 1784 -91 
Q 1150 -91 751 415 
Q 353 922 353 1747 
Q 353 2572 751 3078 
Q 1150 3584 1784 3584 
Q 2172 3584 2448 3432 
Q 2725 3281 2906 2969 
L 2906 3500 
L 3481 3500 
L 3481 -1331 
L 2906 -1331 
L 2906 525 
z
" id="DejaVuSans-71" transform="scale(0.015625)"/>
       <path d="M 544 1381 
L 544 3500 
L 1119 3500 
L 1119 1403 
Q 1119 906 1312 657 
Q 1506 409 1894 409 
Q 2359 409 2629 706 
Q 2900 1003 2900 1516 
L 2900 3500 
L 3475 3500 
L 3475 0 
L 2900 0 
L 2900 538 
Q 2691 219 2414 64 
Q 2138 -91 1772 -91 
Q 1169 -91 856 284 
Q 544 659 544 1381 
z
M 1991 3584 
L 1991 3584 
z
" id="DejaVuSans-75" transform="scale(0.015625)"/>
       <path d="M 3122 3366 
L 3122 2828 
Q 2878 2963 2633 3030 
Q 2388 3097 2138 3097 
Q 1578 3097 1268 2742 
Q 959 2388 959 1747 
Q 959 1106 1268 751 
Q 1578 397 2138 397 
Q 2388 397 2633 464 
Q 2878 531 3122 666 
L 3122 134 
Q 2881 22 2623 -34 
Q 2366 -91 2075 -91 
Q 1284 -91 818 406 
Q 353 903 353 1747 
Q 353 2603 823 3093 
Q 1294 3584 2113 3584 
Q 2378 3584 2631 3529 
Q 2884 3475 3122 3366 
z
" id="DejaVuSans-63" transform="scale(0.015625)"/>
       <path d="M 2522 4238 
Q 1834 4238 1429 3725 
Q 1025 3213 1025 2328 
Q 1025 1447 1429 934 
Q 1834 422 2522 422 
Q 3209 422 3611 934 
Q 4013 1447 4013 2328 
Q 4013 3213 3611 3725 
Q 3209 4238 2522 4238 
z
M 3406 84 
L 4238 -825 
L 3475 -825 
L 2784 -78 
Q 2681 -84 2626 -87 
Q 2572 -91 2522 -91 
Q 1538 -91 948 567 
Q 359 1225 359 2328 
Q 359 3434 948 4092 
Q 1538 4750 2522 4750 
Q 3503 4750 4090 4092 
Q 4678 3434 4678 2328 
Q 4678 1516 4351 937 
Q 4025 359 3406 84 
z
" id="DejaVuSans-51" transform="scale(0.015625)"/>
       <path d="M 603 4863 
L 1178 4863 
L 1178 0 
L 603 0 
L 603 4863 
z
" id="DejaVuSans-6c" transform="scale(0.015625)"/>
       <path d="M 603 3500 
L 1178 3500 
L 1178 0 
L 603 0 
L 603 3500 
z
M 603 4863 
L 1178 4863 
L 1178 4134 
L 603 4134 
L 603 4863 
z
" id="DejaVuSans-69" transform="scale(0.015625)"/>
       <path d="M 1172 4494 
L 1172 3500 
L 2356 3500 
L 2356 3053 
L 1172 3053 
L 1172 1153 
Q 1172 725 1289 603 
Q 1406 481 1766 481 
L 2356 481 
L 2356 0 
L 1766 0 
Q 1100 0 847 248 
Q 594 497 594 1153 
L 594 3053 
L 172 3053 
L 172 3500 
L 594 3500 
L 594 4494 
L 1172 4494 
z
" id="DejaVuSans-74" transform="scale(0.015625)"/>
       <path d="M 2059 -325 
Q 1816 -950 1584 -1140 
Q 1353 -1331 966 -1331 
L 506 -1331 
L 506 -850 
L 844 -850 
Q 1081 -850 1212 -737 
Q 1344 -625 1503 -206 
L 1606 56 
L 191 3500 
L 800 3500 
L 1894 763 
L 2988 3500 
L 3597 3500 
L 2059 -325 
z
" id="DejaVuSans-79" transform="scale(0.015625)"/>
       <path d="M 1984 4856 
Q 1566 4138 1362 3434 
Q 1159 2731 1159 2009 
Q 1159 1288 1364 580 
Q 1569 -128 1984 -844 
L 1484 -844 
Q 1016 -109 783 600 
Q 550 1309 550 2009 
Q 550 2706 781 3412 
Q 1013 4119 1484 4856 
L 1984 4856 
z
" id="DejaVuSans-28" transform="scale(0.015625)"/>
       <path d="M 1259 4147 
L 1259 2394 
L 2053 2394 
Q 2494 2394 2734 2622 
Q 2975 2850 2975 3272 
Q 2975 3691 2734 3919 
Q 2494 4147 2053 4147 
L 1259 4147 
z
M 628 4666 
L 2053 4666 
Q 2838 4666 3239 4311 
Q 3641 3956 3641 3272 
Q 3641 2581 3239 2228 
Q 2838 1875 2053 1875 
L 1259 1875 
L 1259 0 
L 628 0 
L 628 4666 
z
" id="DejaVuSans-50" transform="scale(0.015625)"/>
       <path d="M 3513 2113 
L 3513 0 
L 2938 0 
L 2938 2094 
Q 2938 2591 2744 2837 
Q 2550 3084 2163 3084 
Q 1697 3084 1428 2787 
Q 1159 2491 1159 1978 
L 1159 0 
L 581 0 
L 581 4863 
L 1159 4863 
L 1159 2956 
Q 1366 3272 1645 3428 
Q 1925 3584 2291 3584 
Q 2894 3584 3203 3211 
Q 3513 2838 3513 2113 
z
" id="DejaVuSans-68" transform="scale(0.015625)"/>
       <path d="M 2631 2963 
Q 2534 3019 2420 3045 
Q 2306 3072 2169 3072 
Q 1681 3072 1420 2755 
Q 1159 2438 1159 1844 
L 1159 0 
L 581 0 
L 581 3500 
L 1159 3500 
L 1159 2956 
Q 1341 3275 1631 3429 
Q 1922 3584 2338 3584 
Q 2397 3584 2469 3576 
Q 2541 3569 2628 3553 
L 2631 2963 
z
" id="DejaVuSans-72" transform="scale(0.015625)"/>
       <path d="M 2906 2969 
L 2906 4863 
L 3481 4863 
L 3481 0 
L 2906 0 
L 2906 525 
Q 2725 213 2448 61 
Q 2172 -91 1784 -91 
Q 1150 -91 751 415 
Q 353 922 353 1747 
Q 353 2572 751 3078 
Q 1150 3584 1784 3584 
Q 2172 3584 2448 3432 
Q 2725 3281 2906 2969 
z
M 947 1747 
Q 947 1113 1208 752 
Q 1469 391 1925 391 
Q 2381 391 2643 752 
Q 2906 1113 2906 1747 
Q 2906 2381 2643 2742 
Q 2381 3103 1925 3103 
Q 1469 3103 1208 2742 
Q 947 2381 947 1747 
z
" id="DejaVuSans-64" transform="scale(0.015625)"/>
       <path d="M 1959 3097 
Q 1497 3097 1228 2736 
Q 959 2375 959 1747 
Q 959 1119 1226 758 
Q 1494 397 1959 397 
Q 2419 397 2687 759 
Q 2956 1122 2956 1747 
Q 2956 2369 2687 2733 
Q 2419 3097 1959 3097 
z
M 1959 3584 
Q 2709 3584 3137 3096 
Q 3566 2609 3566 1747 
Q 3566 888 3137 398 
Q 2709 -91 1959 -91 
Q 1206 -91 779 398 
Q 353 888 353 1747 
Q 353 2609 779 3096 
Q 1206 3584 1959 3584 
z
" id="DejaVuSans-6f" transform="scale(0.015625)"/>
       <path d="M 513 4856 
L 1013 4856 
Q 1481 4119 1714 3412 
Q 1947 2706 1947 2009 
Q 1947 1309 1714 600 
Q 1481 -109 1013 -844 
L 513 -844 
Q 928 -128 1133 580 
Q 1338 1288 1338 2009 
Q 1338 2731 1133 3434 
Q 928 4138 513 4856 
z
" id="DejaVuSans-29" transform="scale(0.015625)"/>
      </defs>
      <use xlink:href="#DejaVuSans-4d"/>
      <use x="86.279297" xlink:href="#DejaVuSans-65"/>
      <use x="147.802734" xlink:href="#DejaVuSans-61"/>
      <use x="209.082031" xlink:href="#DejaVuSans-6e"/>
      <use x="272.460938" xlink:href="#DejaVuSans-20"/>
      <use x="304.248047" xlink:href="#DejaVuSans-53"/>
      <use x="367.724609" xlink:href="#DejaVuSans-65"/>
      <use x="429.248047" xlink:href="#DejaVuSans-71"/>
      <use x="492.724609" xlink:href="#DejaVuSans-75"/>
      <use x="556.103516" xlink:href="#DejaVuSans-65"/>
      <use x="617.626953" xlink:href="#DejaVuSans-6e"/>
      <use x="681.005859" xlink:href="#DejaVuSans-63"/>
      <use x="735.986328" xlink:href="#DejaVuSans-65"/>
      <use x="797.509766" xlink:href="#DejaVuSans-20"/>
      <use x="829.296875" xlink:href="#DejaVuSans-51"/>
      <use x="908.007812" xlink:href="#DejaVuSans-75"/>
      <use x="971.386719" xlink:href="#DejaVuSans-61"/>
      <use x="1032.666016" xlink:href="#DejaVuSans-6c"/>
      <use x="1060.449219" xlink:href="#DejaVuSans-69"/>
      <use x="1088.232422" xlink:href="#DejaVuSans-74"/>
      <use x="1127.441406" xlink:href="#DejaVuSans-79"/>
      <use x="1186.621094" xlink:href="#DejaVuSans-20"/>
      <use x="1218.408203" xlink:href="#DejaVuSans-28"/>
      <use x="1257.421875" xlink:href="#DejaVuSans-50"/>
      <use x="1317.724609" xlink:href="#DejaVuSans-68"/>
      <use x="1381.103516" xlink:href="#DejaVuSans-72"/>
      <use x="1419.966797" xlink:href="#DejaVuSans-65"/>
      <use x="1481.490234" xlink:href="#DejaVuSans-64"/>
      <use x="1544.966797" xlink:href="#DejaVuSans-20"/>
      <use x="1576.753906" xlink:href="#DejaVuSans-53"/>
      <use x="1640.230469" xlink:href="#DejaVuSans-63"/>
      <use x="1695.210938" xlink:href="#DejaVuSans-6f"/>
      <use x="1756.392578" xlink:href="#DejaVuSans-72"/>
      <use x="1795.255859" xlink:href="#DejaVuSans-65"/>
      <use x="1856.779297" xlink:href="#DejaVuSans-29"/>
     </g>
    </g>
   </g>
   <g id="matplotlib.axis_2">
    <g id="ytick_1">
     <g id="line2d_1">
      <path clip-path="url(#p656897bd96)" d="M 40.600625 354.7359 
L 993.140625 354.7359 
" style="fill:none;stroke:#dedede;stroke-linecap:square;"/>
     </g>
     <g id="text_10">
      <!-- 0.0 -->
      <g transform="translate(20.878125 357.775275)scale(0.08 -0.08)">
       <defs>
        <path d="M 684 794 
L 1344 794 
L 1344 0 
L 684 0 
L 684 794 
z
" id="DejaVuSans-2e" transform="scale(0.015625)"/>
       </defs>
       <use xlink:href="#DejaVuSans-30"/>
       <use x="63.623047" xlink:href="#DejaVuSans-2e"/>
       <use x="95.410156" xlink:href="#DejaVuSans-30"/>
      </g>
     </g>
    </g>
    <g id="ytick_2">
     <g id="line2d_2">
      <path clip-path="url(#p656897bd96)" d="M 40.600625 286.79856 
L 993.140625 286.79856 
" style="fill:none;stroke:#dedede;stroke-linecap:square;"/>
     </g>
     <g id="text_11">
      <!-- 0.5 -->
      <g transform="translate(20.878125 289.837935)scale(0.08 -0.08)">
       <use xlink:href="#DejaVuSans-30"/>
       <use x="63.623047" xlink:href="#DejaVuSans-2e"/>
       <use x="95.410156" xlink:href="#DejaVuSans-35"/>
      </g>
     </g>
    </g>
    <g id="ytick_3">
     <g id="line2d_3">
      <path clip-path="url(#p656897bd96)" d="M 40.600625 218.86122 
L 993.140625 218.86122 
" style="fill:none;stroke:#dedede;stroke-linecap:square;"/>
     </g>
     <g id="text_12">
      <!-- 1.0 -->
      <g transform="translate(20.878125 221.900595)scale(0.08 -0.08)">
       <use xlink:href="#DejaVuSans-31"/>
       <use x="63.623047" xlink:href="#DejaVuSans-2e"/>
       <use x="95.410156" xlink:href="#DejaVuSans-30"/>
      </g>
     </g>
    </g>
    <g id="ytick_4">
     <g id="line2d_4">
      <path clip-path="url(#p656897bd96)" d="M 40.600625 150.923879 
L 993.140625 150.923879 
" style="fill:none;stroke:#dedede;stroke-linecap:square;"/>
     </g>
     <g id="text_13">
      <!-- 1.5 -->
      <g transform="translate(20.878125 153.963254)scale(0.08 -0.08)">
       <use xlink:href="#DejaVuSans-31"/>
       <use x="63.623047" xlink:href="#DejaVuSans-2e"/>
       <use x="95.410156" xlink:href="#DejaVuSans-35"/>
      </g>
     </g>
    </g>
    <g id="ytick_5">
     <g id="line2d_5">
      <path clip-path="url(#p656897bd96)" d="M 40.600625 82.986539 
L 993.140625 82.986539 
" style="fill:none;stroke:#dedede;stroke-linecap:square;"/>
     </g>
     <g id="text_14">
      <!-- 2.0 -->
      <g transform="translate(20.878125 86.025914)scale(0.08 -0.08)">
       <use xlink:href="#DejaVuSans-32"/>
       <use x="63.623047" xlink:href="#DejaVuSans-2e"/>
       <use x="95.410156" xlink:href="#DejaVuSans-30"/>
      </g>
     </g>
    </g>
    <g id="text_15">
     <!-- Count -->
     <g transform="translate(14.798438 209.880338)rotate(-90)scale(0.1 -0.1)">
      <defs>
       <path d="M 4122 4306 
L 4122 3641 
Q 3803 3938 3442 4084 
Q 3081 4231 2675 4231 
Q 1875 4231 1450 3742 
Q 1025 3253 1025 2328 
Q 1025 1406 1450 917 
Q 1875 428 2675 428 
Q 3081 428 3442 575 
Q 3803 722 4122 1019 
L 4122 359 
Q 3791 134 3420 21 
Q 3050 -91 2638 -91 
Q 1578 -91 968 557 
Q 359 1206 359 2328 
Q 359 3453 968 4101 
Q 1578 4750 2638 4750 
Q 3056 4750 3426 4639 
Q 3797 4528 4122 4306 
z
" id="DejaVuSans-43" transform="scale(0.015625)"/>
      </defs>
      <use xlink:href="#DejaVuSans-43"/>
      <use x="69.824219" xlink:href="#DejaVuSans-6f"/>
      <use x="131.005859" xlink:href="#DejaVuSans-75"/>
      <use x="194.384766" xlink:href="#DejaVuSans-6e"/>
      <use x="257.763672" xlink:href="#DejaVuSans-74"/>
     </g>
    </g>
    <g id="text_16">
     <!-- 1e7 -->
     <g transform="translate(40.600625 32.3279)scale(0.1 -0.1)">
      <defs>
       <path d="M 525 4666 
L 3525 4666 
L 3525 4397 
L 1831 0 
L 1172 0 
L 2766 4134 
L 525 4134 
L 525 4666 
z
" id="DejaVuSans-37" transform="scale(0.015625)"/>
      </defs>
      <use xlink:href="#DejaVuSans-31"/>
      <use x="63.623047" xlink:href="#DejaVuSans-65"/>
      <use x="125.146484" xlink:href="#DejaVuSans-37"/>
     </g>
    </g>
   </g>
   <g id="line2d_6">
    <path clip-path="url(#p656897bd96)" d="M 639.682386 354.735818 
L 663.645656 354.734922 
L 687.608927 354.721171 
L 711.572197 354.629632 
L 735.535468 354.215418 
L 759.498738 352.862297 
L 783.462009 349.409286 
L 807.425279 342.025748 
L 831.38855 328.208257 
L 855.35182 304.596268 
L 879.31509 267.826799 
L 903.278361 212.605672 
L 927.241631 211.887642 
" style="fill:none;stroke:#5cb85c;stroke-linecap:square;"/>
   </g>
   <g id="line2d_7">
    <path clip-path="url(#p656897bd96)" d="M 615.719116 354.735886 
L 639.682386 354.735492 
L 663.645656 354.728902 
L 687.608927 354.672786 
L 711.572197 354.38893 
L 735.535468 353.402507 
L 759.498738 350.858499 
L 783.462009 345.557878 
L 807.425279 336.169073 
L 831.38855 320.800927 
L 855.35182 296.529809 
L 879.31509 261.467932 
L 903.278361 221.869689 
L 927.241631 237.276519 
" style="fill:none;stroke:#5cb85c;stroke-linecap:square;"/>
   </g>
   <g id="line2d_8">
    <path clip-path="url(#p656897bd96)" d="M 639.682386 354.735873 
L 663.645656 354.734867 
L 687.608927 354.720465 
L 711.572197 354.633274 
L 735.535468 354.223381 
L 759.498738 352.892393 
L 783.462009 349.47918 
L 807.425279 342.232658 
L 831.38855 328.685014 
L 855.35182 305.283182 
L 879.31509 266.991714 
L 903.278361 202.820507 
L 927.241631 191.485583 
" style="fill:none;stroke:#5cb85c;stroke-linecap:square;"/>
   </g>
   <g id="line2d_9">
    <path clip-path="url(#p656897bd96)" d="M 639.682386 354.735275 
L 663.645656 354.727748 
L 687.608927 354.665585 
L 711.572197 354.358807 
L 735.535468 353.278427 
L 759.498738 350.585024 
L 783.462009 345.018931 
L 807.425279 335.27033 
L 831.38855 319.484763 
L 855.35182 294.550699 
L 879.31509 257.038798 
L 903.278361 211.113238 
L 927.241631 228.090467 
" style="fill:none;stroke:#5cb85c;stroke-linecap:square;"/>
   </g>
   <g id="line2d_10">
    <path clip-path="url(#p656897bd96)" d="M 639.682386 354.735832 
L 663.645656 354.734541 
L 687.608927 354.718073 
L 711.572197 354.610882 
L 735.535468 354.128296 
L 759.498738 352.561932 
L 783.462009 348.685414 
L 807.425279 340.575747 
L 831.38855 325.798764 
L 855.35182 300.812335 
L 879.31509 260.988037 
L 903.278361 197.219345 
L 927.241631 193.861298 
L 951.204902 347.926608 
L 975.168172 329.862994 
" style="fill:none;stroke:#5cb85c;stroke-linecap:square;"/>
   </g>
   <g id="line2d_11">
    <path clip-path="url(#p656897bd96)" d="M 639.682386 354.735329 
L 663.645656 354.728427 
L 687.608927 354.674539 
L 711.572197 354.397667 
L 735.535468 353.454357 
L 759.498738 351.002186 
L 783.462009 345.756744 
L 807.425279 336.246141 
L 831.38855 320.242903 
L 855.35182 293.995665 
L 879.31509 253.113175 
L 903.278361 201.266359 
L 927.241631 215.450412 
L 951.204902 344.001556 
L 975.168172 338.154637 
" style="fill:none;stroke:#5cb85c;stroke-linecap:square;"/>
   </g>
   <g id="line2d_12">
    <path clip-path="url(#p656897bd96)" d="M 639.682386 354.735832 
L 663.645656 354.734745 
L 687.608927 354.719772 
L 711.572197 354.611806 
L 735.535468 354.147237 
L 759.498738 352.659694 
L 783.462009 348.908004 
L 807.425279 341.142983 
L 831.38855 326.94234 
L 855.35182 303.235741 
L 879.31509 265.951933 
L 903.278361 209.211699 
L 927.241631 210.881408 
" style="fill:none;stroke:#5cb85c;stroke-linecap:square;"/>
   </g>
   <g id="line2d_13">
    <path clip-path="url(#p656897bd96)" d="M 639.682386 354.73537 
L 663.645656 354.729555 
L 687.608927 354.676278 
L 711.572197 354.41722 
L 735.535468 353.497959 
L 759.498738 351.112285 
L 783.462009 346.049106 
L 807.425279 336.933953 
L 831.38855 321.762865 
L 855.35182 297.370778 
L 879.31509 260.911199 
L 903.278361 216.73027 
L 927.241631 228.956355 
" style="fill:none;stroke:#5cb85c;stroke-linecap:square;"/>
   </g>
   <g id="line2d_14">
    <path clip-path="url(#p656897bd96)" d="M 639.682386 354.735873 
L 663.645656 354.734337 
L 687.608927 354.720655 
L 711.572197 354.616915 
L 735.535468 354.158691 
L 759.498738 352.684491 
L 783.462009 348.93098 
L 807.425279 340.882389 
L 831.38855 325.935155 
L 855.35182 300.630657 
L 879.31509 261.208181 
L 903.278361 203.104472 
L 927.241631 211.852817 
" style="fill:none;stroke:#5cb85c;stroke-linecap:square;"/>
   </g>
   <g id="line2d_15">
    <path clip-path="url(#p656897bd96)" d="M 639.682386 354.735424 
L 663.645656 354.729174 
L 687.608927 354.673466 
L 711.572197 354.394922 
L 735.535468 353.397806 
L 759.498738 350.848756 
L 783.462009 345.482753 
L 807.425279 335.855828 
L 831.38855 319.963463 
L 855.35182 294.710271 
L 879.31509 257.006392 
L 903.278361 212.880668 
L 927.241631 229.516689 
" style="fill:none;stroke:#5cb85c;stroke-linecap:square;"/>
   </g>
   <g id="line2d_16">
    <path clip-path="url(#p656897bd96)" d="M 639.682386 354.735846 
L 663.645656 354.734039 
L 687.608927 354.719527 
L 711.572197 354.617635 
L 735.535468 354.171055 
L 759.498738 352.687671 
L 783.462009 348.965778 
L 807.425279 341.068538 
L 831.38855 326.418244 
L 855.35182 301.771569 
L 879.31509 262.983478 
L 903.278361 203.769918 
L 927.241631 202.107681 
" style="fill:none;stroke:#5cb85c;stroke-linecap:square;"/>
   </g>
   <g id="line2d_17">
    <path clip-path="url(#p656897bd96)" d="M 615.719116 354.735886 
L 639.682386 354.73552 
L 663.645656 354.729147 
L 687.608927 354.673425 
L 711.572197 354.387911 
L 735.535468 353.407263 
L 759.498738 350.834109 
L 783.462009 345.530241 
L 807.425279 335.954405 
L 831.38855 320.148321 
L 855.35182 294.823074 
L 879.31509 256.940805 
L 903.278361 211.290119 
L 927.241631 225.296652 
" style="fill:none;stroke:#5cb85c;stroke-linecap:square;"/>
   </g>
   <g id="line2d_18">
    <path clip-path="url(#p656897bd96)" d="M 639.682386 354.735846 
L 663.645656 354.73431 
L 687.608927 354.718685 
L 711.572197 354.613029 
L 735.535468 354.159166 
L 759.498738 352.727659 
L 783.462009 349.131939 
L 807.425279 341.705654 
L 831.38855 327.925108 
L 855.35182 304.515463 
L 879.31509 266.531995 
L 903.278361 204.071668 
L 927.241631 187.777101 
" style="fill:none;stroke:#5cb85c;stroke-linecap:square;"/>
   </g>
   <g id="line2d_19">
    <path clip-path="url(#p656897bd96)" d="M 639.682386 354.735357 
L 663.645656 354.728807 
L 687.608927 354.674675 
L 711.572197 354.409284 
L 735.535468 353.484861 
L 759.498738 351.06193 
L 783.462009 346.042719 
L 807.425279 336.948124 
L 831.38855 321.878087 
L 855.35182 297.375792 
L 879.31509 259.149734 
L 903.278361 209.043228 
L 927.241631 213.815024 
" style="fill:none;stroke:#5cb85c;stroke-linecap:square;"/>
   </g>
   <g id="line2d_20">
    <path clip-path="url(#p656897bd96)" d="M 639.682386 354.735832 
L 663.645656 354.734433 
L 687.608927 354.719215 
L 711.572197 354.616167 
L 735.535468 354.156598 
L 759.498738 352.704438 
L 783.462009 349.10081 
L 807.425279 341.629646 
L 831.38855 328.018603 
L 855.35182 305.115866 
L 879.31509 268.13336 
L 903.278361 206.255908 
L 927.241631 196.451939 
" style="fill:none;stroke:#5cb85c;stroke-linecap:square;"/>
   </g>
   <g id="line2d_21">
    <path clip-path="url(#p656897bd96)" d="M 615.719116 354.735873 
L 639.682386 354.735316 
L 663.645656 354.729229 
L 687.608927 354.669729 
L 711.572197 354.387939 
L 735.535468 353.40907 
L 759.498738 350.915566 
L 783.462009 345.732844 
L 807.425279 336.627936 
L 831.38855 321.795611 
L 855.35182 298.046008 
L 879.31509 261.258427 
L 903.278361 212.328514 
L 927.241631 221.736654 
" style="fill:none;stroke:#5cb85c;stroke-linecap:square;"/>
   </g>
   <g id="line2d_22">
    <path clip-path="url(#p656897bd96)" d="M 639.682386 354.735669 
L 663.645656 354.734378 
L 687.608927 354.717489 
L 711.572197 354.611711 
L 735.535468 354.150103 
L 759.498738 352.699193 
L 783.462009 349.147075 
L 807.425279 341.961139 
L 831.38855 329.086198 
L 855.35182 307.323667 
L 879.31509 270.53273 
L 903.278361 200.132865 
L 927.241631 159.541459 
" style="fill:none;stroke:#5cb85c;stroke-linecap:square;"/>
   </g>
   <g id="line2d_23">
    <path clip-path="url(#p656897bd96)" d="M 639.682386 354.735424 
L 663.645656 354.728658 
L 687.608927 354.678901 
L 711.572197 354.422247 
L 735.535468 353.541385 
L 759.498738 351.24657 
L 783.462009 346.450493 
L 807.425279 337.840712 
L 831.38855 323.506396 
L 855.35182 299.749577 
L 879.31509 260.647861 
L 903.278361 199.781901 
L 927.241631 192.043552 
" style="fill:none;stroke:#5cb85c;stroke-linecap:square;"/>
   </g>
   <g id="line2d_24">
    <path clip-path="url(#p656897bd96)" d="M 639.682386 354.735859 
L 663.645656 354.734541 
L 687.608927 354.721321 
L 711.572197 354.628708 
L 735.535468 354.221166 
L 759.498738 352.888398 
L 783.462009 349.483053 
L 807.425279 342.206787 
L 831.38855 328.563135 
L 855.35182 305.660941 
L 879.31509 271.352217 
L 903.278361 224.787557 
L 927.241631 236.495172 
L 951.204902 348.798448 
L 975.168172 337.104489 
" style="fill:none;stroke:#5cb85c;stroke-linecap:square;"/>
   </g>
   <g id="line2d_25">
    <path clip-path="url(#p656897bd96)" d="M 615.719116 354.735886 
L 639.682386 354.735411 
L 663.645656 354.728155 
L 687.608927 354.670055 
L 711.572197 354.37999 
L 735.535468 353.399668 
L 759.498738 350.909615 
L 783.462009 345.793349 
L 807.425279 336.788947 
L 831.38855 322.280154 
L 855.35182 299.782812 
L 879.31509 268.131947 
L 903.278361 234.163385 
L 927.241631 249.026132 
L 951.204902 346.153729 
L 975.168172 345.438458 
" style="fill:none;stroke:#5cb85c;stroke-linecap:square;"/>
   </g>
   <g id="line2d_26">
    <path clip-path="url(#p656897bd96)" d="M 639.682386 354.735832 
L 663.645656 354.734528 
L 687.608927 354.721035 
L 711.572197 354.623437 
L 735.535468 354.20357 
L 759.498738 352.797131 
L 783.462009 349.204618 
L 807.425279 341.559412 
L 831.38855 327.239186 
L 855.35182 303.049172 
L 879.31509 265.402224 
L 903.278361 210.803321 
L 927.241631 219.973721 
" style="fill:none;stroke:#5cb85c;stroke-linecap:square;"/>
   </g>
   <g id="line2d_27">
    <path clip-path="url(#p656897bd96)" d="M 615.719116 354.735886 
L 639.682386 354.735085 
L 663.645656 354.727979 
L 687.608927 354.665775 
L 711.572197 354.35647 
L 735.535468 353.29056 
L 759.498738 350.567047 
L 783.462009 344.922514 
L 807.425279 334.984219 
L 831.38855 318.997163 
L 855.35182 294.055165 
L 879.31509 258.595786 
L 903.278361 221.306448 
L 927.241631 247.84299 
" style="fill:none;stroke:#5cb85c;stroke-linecap:square;"/>
   </g>
   <g id="line2d_28">
    <path clip-path="url(#p656897bd96)" d="M 639.682386 354.735818 
L 663.645656 354.734908 
L 687.608927 354.721878 
L 711.572197 354.636127 
L 735.535468 354.256167 
L 759.498738 352.993348 
L 783.462009 349.778376 
L 807.425279 342.9079 
L 831.38855 329.868225 
L 855.35182 307.434065 
L 879.31509 270.754627 
L 903.278361 209.639093 
L 927.241631 183.984037 
" style="fill:none;stroke:#5cb85c;stroke-linecap:square;"/>
   </g>
   <g id="line2d_29">
    <path clip-path="url(#p656897bd96)" d="M 639.682386 354.735465 
L 663.645656 354.727883 
L 687.608927 354.664321 
L 711.572197 354.345804 
L 735.535468 353.255097 
L 759.498738 350.494653 
L 783.462009 344.966864 
L 807.425279 335.289529 
L 831.38855 319.956167 
L 855.35182 295.989762 
L 879.31509 260.706722 
L 903.278361 217.067783 
L 927.241631 224.24452 
" style="fill:none;stroke:#5cb85c;stroke-linecap:square;"/>
   </g>
   <g id="line2d_30">
    <path clip-path="url(#p656897bd96)" d="M 639.682386 354.735791 
L 663.645656 354.734786 
L 687.608927 354.722965 
L 711.572197 354.644551 
L 735.535468 354.294647 
L 759.498738 353.134861 
L 783.462009 350.149736 
L 807.425279 343.672223 
L 831.38855 331.266525 
L 855.35182 309.825989 
L 879.31509 275.454722 
L 903.278361 221.099823 
L 927.241631 224.741332 
" style="fill:none;stroke:#5cb85c;stroke-linecap:square;"/>
   </g>
   <g id="line2d_31">
    <path clip-path="url(#p656897bd96)" d="M 615.719116 354.735886 
L 639.682386 354.735547 
L 663.645656 354.728373 
L 687.608927 354.669403 
L 711.572197 354.374881 
L 735.535468 353.360223 
L 759.498738 350.856936 
L 783.462009 345.728577 
L 807.425279 336.874942 
L 831.38855 322.671989 
L 855.35182 301.024897 
L 879.31509 270.516439 
L 903.278361 235.05437 
L 927.241631 247.881388 
" style="fill:none;stroke:#5cb85c;stroke-linecap:square;"/>
   </g>
   <g id="line2d_32">
    <path clip-path="url(#p656897bd96)" d="M 639.682386 354.735846 
L 663.645656 354.734568 
L 687.608927 354.724242 
L 711.572197 354.661563 
L 735.535468 354.379066 
L 759.498738 353.459683 
L 783.462009 351.007662 
L 807.425279 345.537864 
L 831.38855 334.696083 
L 855.35182 315.224521 
L 879.31509 283.150814 
L 903.278361 231.420769 
L 927.241631 232.800834 
L 951.204902 333.896936 
L 975.168172 290.933797 
" style="fill:none;stroke:#5cb85c;stroke-linecap:square;"/>
   </g>
   <g id="line2d_33">
    <path clip-path="url(#p656897bd96)" d="M 615.719116 354.735859 
L 639.682386 354.735153 
L 663.645656 354.7234 
L 687.608927 354.636046 
L 711.572197 354.241765 
L 735.535468 352.959977 
L 759.498738 349.95856 
L 783.462009 344.214037 
L 807.425279 334.736424 
L 831.38855 320.368696 
L 855.35182 299.689738 
L 879.31509 272.250308 
L 903.278361 244.122673 
L 927.241631 259.144122 
L 951.204902 322.451695 
L 975.168172 327.131695 
" style="fill:none;stroke:#5cb85c;stroke-linecap:square;"/>
   </g>
   <g id="line2d_34">
    <path clip-path="url(#p656897bd96)" d="M 639.682386 354.735859 
L 663.645656 354.735357 
L 687.608927 354.729174 
L 711.572197 354.683561 
L 735.535468 354.46661 
L 759.498738 353.743743 
L 783.462009 351.824975 
L 807.425279 347.597914 
L 831.38855 339.564527 
L 855.35182 325.257902 
L 879.31509 301.060673 
L 903.278361 257.294107 
L 927.241631 239.784521 
" style="fill:none;stroke:#5cb85c;stroke-linecap:square;"/>
   </g>
   <g id="line2d_35">
    <path clip-path="url(#p656897bd96)" d="M 639.682386 354.735737 
L 663.645656 354.732231 
L 687.608927 354.701184 
L 711.572197 354.542129 
L 735.535468 353.963357 
L 759.498738 352.425677 
L 783.462009 349.197336 
L 807.425279 343.318323 
L 831.38855 333.511106 
L 855.35182 317.888956 
L 879.31509 294.421034 
L 903.278361 263.681181 
L 927.241631 262.36067 
" style="fill:none;stroke:#5cb85c;stroke-linecap:square;"/>
   </g>
   <g id="line2d_36">
    <path clip-path="url(#p656897bd96)" d="M 615.719116 354.735886 
L 639.682386 354.735886 
L 663.645656 354.734677 
L 687.608927 354.721158 
L 711.572197 354.640231 
L 735.535468 354.270502 
L 759.498738 353.086504 
L 783.462009 350.116174 
L 807.425279 343.743951 
L 831.38855 331.858177 
L 855.35182 311.642199 
L 879.31509 279.347342 
L 903.278361 227.421026 
L 927.241631 228.155809 
L 951.204902 343.513222 
L 975.168172 317.499593 
" style="fill:none;stroke:#5cb85c;stroke-linecap:square;"/>
   </g>
   <g id="line2d_37">
    <path clip-path="url(#p656897bd96)" d="M 639.682386 354.735452 
L 663.645656 354.728794 
L 687.608927 354.673995 
L 711.572197 354.410534 
L 735.535468 353.530651 
L 759.498738 351.265647 
L 783.462009 346.661955 
L 807.425279 338.460233 
L 831.38855 325.226392 
L 855.35182 304.516482 
L 879.31509 274.789167 
L 903.278361 238.340513 
L 927.241631 237.913119 
L 951.204902 337.446757 
L 975.168172 332.786745 
" style="fill:none;stroke:#5cb85c;stroke-linecap:square;"/>
   </g>
   <g id="line2d_38">
    <path clip-path="url(#p656897bd96)" d="M 639.682386 354.735751 
L 663.645656 354.734555 
L 687.608927 354.72166 
L 711.572197 354.639212 
L 735.535468 354.256915 
L 759.498738 353.023567 
L 783.462009 349.938695 
L 807.425279 343.478207 
L 831.38855 331.563153 
L 855.35182 311.159192 
L 879.31509 276.78908 
L 903.278361 212.346069 
L 927.241631 187.318144 
" style="fill:none;stroke:#5cb85c;stroke-linecap:square;"/>
   </g>
   <g id="line2d_39">
    <path clip-path="url(#p656897bd96)" d="M 639.682386 354.735506 
L 663.645656 354.729691 
L 687.608927 354.681102 
L 711.572197 354.431581 
L 735.535468 353.578832 
L 759.498738 351.380855 
L 783.462009 346.886352 
L 807.425279 338.925903 
L 831.38855 325.921228 
L 855.35182 304.999096 
L 879.31509 272.025626 
L 903.278361 222.325086 
L 927.241631 204.08334 
" style="fill:none;stroke:#5cb85c;stroke-linecap:square;"/>
   </g>
   <g id="line2d_40">
    <path clip-path="url(#p656897bd96)" d="M 639.682386 354.735846 
L 663.645656 354.734677 
L 687.608927 354.72378 
L 711.572197 354.649497 
L 735.535468 354.330613 
L 759.498738 353.270206 
L 783.462009 350.512195 
L 807.425279 344.505393 
L 831.38855 332.991196 
L 855.35182 312.886281 
L 879.31509 280.678601 
L 903.278361 230.473015 
L 927.241631 236.743496 
L 951.204902 337.936232 
L 975.168172 303.638936 
" style="fill:none;stroke:#5cb85c;stroke-linecap:square;"/>
   </g>
   <g id="line2d_41">
    <path clip-path="url(#p656897bd96)" d="M 639.682386 354.735112 
L 663.645656 354.725315 
L 687.608927 354.65481 
L 711.572197 354.314362 
L 735.535468 353.222161 
L 759.498738 350.553514 
L 783.462009 345.320152 
L 807.425279 336.535011 
L 831.38855 322.715673 
L 855.35182 302.194914 
L 879.31509 273.808601 
L 903.278361 242.568145 
L 927.241631 252.925301 
L 951.204902 329.488455 
L 975.168172 329.048438 
" style="fill:none;stroke:#5cb85c;stroke-linecap:square;"/>
   </g>
   <g id="line2d_42">
    <path clip-path="url(#p656897bd96)" d="M 639.682386 354.735873 
L 663.645656 354.734813 
L 687.608927 354.7245 
L 711.572197 354.658017 
L 735.535468 354.344554 
L 759.498738 353.283862 
L 783.462009 350.436662 
L 807.425279 344.113136 
L 831.38855 331.604499 
L 855.35182 309.407033 
L 879.31509 273.318351 
L 903.278361 216.424185 
L 927.241631 225.054469 
" style="fill:none;stroke:#5cb85c;stroke-linecap:square;"/>
   </g>
   <g id="line2d_43">
    <path clip-path="url(#p656897bd96)" d="M 639.682386 354.735587 
L 663.645656 354.728753 
L 687.608927 354.675599 
L 711.572197 354.411458 
L 735.535468 353.468977 
L 759.498738 351.03129 
L 783.462009 345.905608 
L 807.425279 336.69643 
L 831.38855 321.642643 
L 855.35182 297.808078 
L 879.31509 264.833983 
L 903.278361 232.011239 
L 927.241631 254.890307 
" style="fill:none;stroke:#5cb85c;stroke-linecap:square;"/>
   </g>
   <g id="line2d_44">
    <path clip-path="url(#p656897bd96)" d="M 639.682386 354.735778 
L 663.645656 354.73484 
L 687.608927 354.723889 
L 711.572197 354.644497 
L 735.535468 354.263939 
L 759.498738 353.019993 
L 783.462009 349.734951 
L 807.425279 342.525345 
L 831.38855 328.771784 
L 855.35182 304.717427 
L 879.31509 264.908401 
L 903.278361 197.43756 
L 927.241631 200.149075 
" style="fill:none;stroke:#5cb85c;stroke-linecap:square;"/>
   </g>
   <g id="line2d_45">
    <path clip-path="url(#p656897bd96)" d="M 639.682386 354.735615 
L 663.645656 354.729691 
L 687.608927 354.680694 
L 711.572197 354.421785 
L 735.535468 353.504604 
L 759.498738 351.074594 
L 783.462009 345.888339 
L 807.425279 336.426393 
L 831.38855 320.389186 
L 855.35182 294.541963 
L 879.31509 256.171333 
L 903.278361 211.586544 
L 927.241631 226.216741 
" style="fill:none;stroke:#5cb85c;stroke-linecap:square;"/>
   </g>
   <g id="line2d_46">
    <path clip-path="url(#p656897bd96)" d="M 639.682386 354.735764 
L 663.645656 354.734759 
L 687.608927 354.726294 
L 711.572197 354.667609 
L 735.535468 354.399284 
L 759.498738 353.479766 
L 783.462009 350.993055 
L 807.425279 345.26481 
L 831.38855 333.820629 
L 855.35182 313.382957 
L 879.31509 281.508945 
L 903.278361 238.359997 
L 927.241631 256.757687 
L 951.204902 324.731822 
L 975.168172 266.237514 
" style="fill:none;stroke:#5cb85c;stroke-linecap:square;"/>
   </g>
   <g id="line2d_47">
    <path clip-path="url(#p656897bd96)" d="M 615.719116 354.735886 
L 639.682386 354.735003 
L 663.645656 354.724554 
L 687.608927 354.642826 
L 711.572197 354.26114 
L 735.535468 353.03714 
L 759.498738 350.053305 
L 783.462009 344.215232 
L 807.425279 334.410339 
L 831.38855 319.350179 
L 855.35182 297.670206 
L 879.31509 271.403334 
L 903.278361 251.48276 
L 927.241631 274.470446 
L 951.204902 309.071871 
L 975.168172 314.27257 
" style="fill:none;stroke:#5cb85c;stroke-linecap:square;"/>
   </g>
   <g id="line2d_48">
    <path clip-path="url(#p656897bd96)" d="M 639.682386 354.735846 
L 663.645656 354.734487 
L 687.608927 354.723427 
L 711.572197 354.649864 
L 735.535468 354.319594 
L 759.498738 353.230341 
L 783.462009 350.329226 
L 807.425279 343.906987 
L 831.38855 331.345033 
L 855.35182 309.816886 
L 879.31509 277.049728 
L 903.278361 233.089744 
L 927.241631 250.926761 
L 951.204902 320.018805 
L 975.168172 249.538353 
" style="fill:none;stroke:#5cb85c;stroke-linecap:square;"/>
   </g>
   <g id="line2d_49">
    <path clip-path="url(#p656897bd96)" d="M 615.719116 354.735846 
L 639.682386 354.735058 
L 663.645656 354.72469 
L 687.608927 354.649402 
L 711.572197 354.28913 
L 735.535468 353.140976 
L 759.498738 350.322052 
L 783.462009 344.717235 
L 807.425279 335.205776 
L 831.38855 320.313803 
L 855.35182 298.291329 
L 879.31509 269.737741 
L 903.278361 241.535456 
L 927.241631 251.636693 
L 951.204902 301.104846 
L 975.168172 308.010948 
" style="fill:none;stroke:#5cb85c;stroke-linecap:square;"/>
   </g>
   <g id="line2d_50">
    <path clip-path="url(#p656897bd96)" d="M 639.682386 354.735873 
L 663.645656 354.734895 
L 687.608927 354.72537 
L 711.572197 354.657908 
L 735.535468 354.347638 
L 759.498738 353.274432 
L 783.462009 350.375586 
L 807.425279 343.780528 
L 831.38855 330.863982 
L 855.35182 308.22563 
L 879.31509 271.849193 
L 903.278361 217.744982 
L 927.241631 236.911152 
" style="fill:none;stroke:#5cb85c;stroke-linecap:square;"/>
   </g>
   <g id="line2d_51">
    <path clip-path="url(#p656897bd96)" d="M 639.682386 354.73556 
L 663.645656 354.729066 
L 687.608927 354.675762 
L 711.572197 354.406132 
L 735.535468 353.453691 
L 759.498738 350.938311 
L 783.462009 345.683657 
L 807.425279 336.192838 
L 831.38855 320.495834 
L 855.35182 296.311676 
L 879.31509 264.104404 
L 903.278361 235.532037 
L 927.241631 264.9682 
" style="fill:none;stroke:#5cb85c;stroke-linecap:square;"/>
   </g>
   <g id="line2d_52">
    <path clip-path="url(#p656897bd96)" d="M 639.682386 354.735791 
L 663.645656 354.735207 
L 687.608927 354.725234 
L 711.572197 354.661617 
L 735.535468 354.36162 
L 759.498738 353.351595 
L 783.462009 350.643382 
L 807.425279 344.602529 
L 831.38855 332.667855 
L 855.35182 311.650542 
L 879.31509 277.788112 
L 903.278361 225.762526 
L 927.241631 226.585396 
L 951.204902 345.599483 
L 975.168172 323.614932 
" style="fill:none;stroke:#5cb85c;stroke-linecap:square;"/>
   </g>
   <g id="line2d_53">
    <path clip-path="url(#p656897bd96)" d="M 615.719116 354.735873 
L 639.682386 354.735411 
L 663.645656 354.728019 
L 687.608927 354.669063 
L 711.572197 354.382802 
L 735.535468 353.394382 
L 759.498738 350.844925 
L 783.462009 345.668752 
L 807.425279 336.492931 
L 831.38855 321.783817 
L 855.35182 299.334059 
L 879.31509 269.403571 
L 903.278361 239.872079 
L 927.241631 252.931008 
L 951.204902 339.780242 
L 975.168172 337.464788 
" style="fill:none;stroke:#5cb85c;stroke-linecap:square;"/>
   </g>
   <g id="line2d_54">
    <path clip-path="url(#p656897bd96)" d="M 639.682386 354.735818 
L 663.645656 354.735085 
L 687.608927 354.723318 
L 711.572197 354.640462 
L 735.535468 354.246806 
L 759.498738 352.946661 
L 783.462009 349.534386 
L 807.425279 342.102313 
L 831.38855 327.865772 
L 855.35182 302.748508 
L 879.31509 260.468628 
L 903.278361 186.886116 
L 927.241631 203.019699 
" style="fill:none;stroke:#5cb85c;stroke-linecap:square;"/>
   </g>
   <g id="line2d_55">
    <path clip-path="url(#p656897bd96)" d="M 639.682386 354.735628 
L 663.645656 354.729704 
L 687.608927 354.680368 
L 711.572197 354.424326 
L 735.535468 353.514536 
L 759.498738 351.126987 
L 783.462009 346.062082 
L 807.425279 336.844316 
L 831.38855 321.163114 
L 855.35182 295.433858 
L 879.31509 255.416971 
L 903.278361 204.198752 
L 927.241631 216.322931 
" style="fill:none;stroke:#5cb85c;stroke-linecap:square;"/>
   </g>
   <g id="line2d_56">
    <path clip-path="url(#p656897bd96)" d="M 639.682386 354.735859 
L 663.645656 354.735153 
L 687.608927 354.727204 
L 711.572197 354.666862 
L 735.535468 354.390072 
L 759.498738 353.397928 
L 783.462009 350.621886 
L 807.425279 344.117375 
L 831.38855 330.729548 
L 855.35182 307.228731 
L 879.31509 272.583609 
L 903.278361 232.858064 
L 927.241631 268.665282 
L 951.204902 331.678673 
L 975.168172 288.968139 
" style="fill:none;stroke:#5cb85c;stroke-linecap:square;"/>
   </g>
   <g id="line2d_57">
    <path clip-path="url(#p656897bd96)" d="M 639.682386 354.735384 
L 663.645656 354.725614 
L 687.608927 354.648356 
L 711.572197 354.275217 
L 735.535468 353.062155 
L 759.498738 350.035723 
L 783.462009 344.097184 
L 807.425279 333.973977 
L 831.38855 318.131044 
L 855.35182 295.405446 
L 879.31509 268.914558 
L 903.278361 251.242928 
L 927.241631 275.9258 
L 951.204902 321.796603 
L 975.168172 323.134398 
" style="fill:none;stroke:#5cb85c;stroke-linecap:square;"/>
   </g>
   <g id="line2d_58">
    <path clip-path="url(#p656897bd96)" d="M 639.682386 354.735859 
L 663.645656 354.735085 
L 687.608927 354.72219 
L 711.572197 354.639347 
L 735.535468 354.238979 
L 759.498738 352.875219 
L 783.462009 349.236413 
L 807.425279 341.078946 
L 831.38855 325.248635 
L 855.35182 298.029091 
L 879.31509 256.2198 
L 903.278361 201.352952 
L 927.241631 246.297117 
" style="fill:none;stroke:#5cb85c;stroke-linecap:square;"/>
   </g>
   <g id="line2d_59">
    <path clip-path="url(#p656897bd96)" d="M 639.682386 354.735642 
L 663.645656 354.730343 
L 687.608927 354.68549 
L 711.572197 354.443416 
L 735.535468 353.577786 
L 759.498738 351.194884 
L 783.462009 346.022882 
L 807.425279 336.398144 
L 831.38855 319.923611 
L 855.35182 293.077492 
L 879.31509 255.361072 
L 903.278361 219.520742 
L 927.241631 249.738129 
" style="fill:none;stroke:#5cb85c;stroke-linecap:square;"/>
   </g>
   <g id="line2d_60">
    <path clip-path="url(#p656897bd96)" d="M 639.682386 354.735846 
L 663.645656 354.73484 
L 687.608927 354.72359 
L 711.572197 354.63947 
L 735.535468 354.250121 
L 759.498738 352.940819 
L 783.462009 349.38309 
L 807.425279 341.409189 
L 831.38855 325.960007 
L 855.35182 299.559149 
L 879.31509 260.718013 
L 903.278361 213.531957 
L 927.241631 259.9649 
" style="fill:none;stroke:#5cb85c;stroke-linecap:square;"/>
   </g>
   <g id="line2d_61">
    <path clip-path="url(#p656897bd96)" d="M 615.719116 354.735873 
L 639.682386 354.735574 
L 663.645656 354.730968 
L 687.608927 354.681632 
L 711.572197 354.429421 
L 735.535468 353.525107 
L 759.498738 351.110302 
L 783.462009 345.977636 
L 807.425279 336.495798 
L 831.38855 320.502777 
L 855.35182 295.428409 
L 879.31509 261.689259 
L 903.278361 232.102968 
L 927.241631 261.141167 
" style="fill:none;stroke:#5cb85c;stroke-linecap:square;"/>
   </g>
   <g id="line2d_62">
    <path clip-path="url(#p656897bd96)" d="M 639.682386 354.735859 
L 663.645656 354.734718 
L 687.608927 354.722883 
L 711.572197 354.640801 
L 735.535468 354.257716 
L 759.498738 352.962858 
L 783.462009 349.559469 
L 807.425279 341.920064 
L 831.38855 327.170949 
L 855.35182 301.606318 
L 879.31509 262.740467 
L 903.278361 210.364772 
L 927.241631 247.293363 
L 951.204902 343.784808 
L 975.168172 317.442784 
" style="fill:none;stroke:#5cb85c;stroke-linecap:square;"/>
   </g>
   <g id="line2d_63">
    <path clip-path="url(#p656897bd96)" d="M 639.682386 354.735343 
L 663.645656 354.728794 
L 687.608927 354.676034 
L 711.572197 354.408211 
L 735.535468 353.478407 
L 759.498738 351.046006 
L 783.462009 345.988913 
L 807.425279 336.844466 
L 831.38855 321.59703 
L 855.35182 297.545146 
L 879.31509 263.267429 
L 903.278361 226.956158 
L 927.241631 241.640474 
L 951.204902 337.694294 
L 975.168172 333.331127 
" style="fill:none;stroke:#5cb85c;stroke-linecap:square;"/>
   </g>
   <g id="line2d_64">
    <path clip-path="url(#p656897bd96)" d="M 639.682386 354.735859 
L 663.645656 354.735221 
L 687.608927 354.724609 
L 711.572197 354.644796 
L 735.535468 354.279443 
L 759.498738 353.00506 
L 783.462009 349.480865 
L 807.425279 341.488988 
L 831.38855 325.766141 
L 855.35182 298.641098 
L 879.31509 258.506381 
L 903.278361 209.194565 
L 927.241631 255.305608 
" style="fill:none;stroke:#5cb85c;stroke-linecap:square;"/>
   </g>
   <g id="line2d_65">
    <path clip-path="url(#p656897bd96)" d="M 615.719116 354.735886 
L 639.682386 354.73552 
L 663.645656 354.73018 
L 687.608927 354.685749 
L 711.572197 354.44987 
L 735.535468 353.582365 
L 759.498738 351.21786 
L 783.462009 346.024838 
L 807.425279 336.334446 
L 831.38855 319.790141 
L 855.35182 293.373563 
L 879.31509 257.536426 
L 903.278361 227.483012 
L 927.241631 260.564678 
" style="fill:none;stroke:#5cb85c;stroke-linecap:square;"/>
   </g>
   <g id="line2d_66">
    <path clip-path="url(#p656897bd96)" d="M 639.682386 354.735818 
L 663.645656 354.734895 
L 687.608927 354.724432 
L 711.572197 354.650408 
L 735.535468 354.301223 
L 759.498738 353.123407 
L 783.462009 349.924401 
L 807.425279 342.712879 
L 831.38855 328.435059 
L 855.35182 303.553144 
L 879.31509 265.765852 
L 903.278361 216.453602 
L 927.241631 250.590621 
L 951.204902 347.919176 
L 975.168172 331.627734 
" style="fill:none;stroke:#5cb85c;stroke-linecap:square;"/>
   </g>
   <g id="line2d_67">
    <path clip-path="url(#p656897bd96)" d="M 615.719116 354.735873 
L 639.682386 354.735343 
L 663.645656 354.729147 
L 687.608927 354.677352 
L 711.572197 354.416554 
L 735.535468 353.491492 
L 759.498738 351.023912 
L 783.462009 345.866585 
L 807.425279 336.495471 
L 831.38855 320.796688 
L 855.35182 296.315847 
L 879.31509 263.819216 
L 903.278361 234.483452 
L 927.241631 256.9954 
L 951.204902 343.890859 
L 975.168172 341.515362 
" style="fill:none;stroke:#5cb85c;stroke-linecap:square;"/>
   </g>
   <g id="line2d_68">
    <path clip-path="url(#p656897bd96)" d="M 639.682386 354.735805 
L 663.645656 354.734895 
L 687.608927 354.723318 
L 711.572197 354.644212 
L 735.535468 354.283818 
L 759.498738 353.046706 
L 783.462009 349.727967 
L 807.425279 342.279697 
L 831.38855 327.607338 
L 855.35182 302.498336 
L 879.31509 265.184186 
L 903.278361 217.852364 
L 927.241631 253.650165 
L 951.204902 341.031865 
L 975.168172 310.490009 
" style="fill:none;stroke:#5cb85c;stroke-linecap:square;"/>
   </g>
   <g id="line2d_69">
    <path clip-path="url(#p656897bd96)" d="M 639.682386 354.735452 
L 663.645656 354.728359 
L 687.608927 354.674539 
L 711.572197 354.393374 
L 735.535468 353.433786 
L 759.498738 350.943801 
L 783.462009 345.712965 
L 807.425279 336.253791 
L 831.38855 320.519802 
L 855.35182 296.226306 
L 879.31509 263.445697 
L 903.278361 233.310758 
L 927.241631 255.216977 
L 951.204902 334.189502 
L 975.168172 328.705572 
" style="fill:none;stroke:#5cb85c;stroke-linecap:square;"/>
   </g>
   <g id="line2d_70">
    <path clip-path="url(#p656897bd96)" d="M 639.682386 354.735818 
L 663.645656 354.734555 
L 687.608927 354.721307 
L 711.572197 354.627988 
L 735.535468 354.213652 
L 759.498738 352.862664 
L 783.462009 349.41858 
L 807.425279 342.046305 
L 831.38855 328.201423 
L 855.35182 303.69012 
L 879.31509 261.243875 
L 903.278361 180.707976 
L 927.241631 179.101978 
L 951.204902 338.625389 
L 975.168172 295.577803 
" style="fill:none;stroke:#5cb85c;stroke-linecap:square;"/>
   </g>
   <g id="line2d_71">
    <path clip-path="url(#p656897bd96)" d="M 639.682386 354.735316 
L 663.645656 354.727421 
L 687.608927 354.662487 
L 711.572197 354.34791 
L 735.535468 353.297001 
L 759.498738 350.629822 
L 783.462009 345.22296 
L 807.425279 335.648184 
L 831.38855 319.983192 
L 855.35182 294.366059 
L 879.31509 252.927624 
L 903.278361 192.815918 
L 927.241631 193.798102 
L 951.204902 326.66305 
L 975.168172 320.684387 
" style="fill:none;stroke:#5cb85c;stroke-linecap:square;"/>
   </g>
   <g id="line2d_72">
    <path clip-path="url(#p656897bd96)" d="M 639.682386 354.735886 
L 663.645656 354.734867 
L 687.608927 354.723929 
L 711.572197 354.643125 
L 735.535468 354.267907 
L 759.498738 352.994435 
L 783.462009 349.546601 
L 807.425279 341.720831 
L 831.38855 326.433462 
L 855.35182 300.080853 
L 879.31509 261.034614 
L 903.278361 213.562922 
L 927.241631 259.369688 
L 951.204902 344.60916 
L 975.168172 320.943378 
" style="fill:none;stroke:#5cb85c;stroke-linecap:square;"/>
   </g>
   <g id="line2d_73">
    <path clip-path="url(#p656897bd96)" d="M 639.682386 354.735397 
L 663.645656 354.728889 
L 687.608927 354.672596 
L 711.572197 354.384582 
L 735.535468 353.367357 
L 759.498738 350.757788 
L 783.462009 345.242608 
L 807.425279 335.381639 
L 831.38855 318.998862 
L 855.35182 293.633382 
L 879.31509 260.114417 
L 903.278361 231.705317 
L 927.241631 260.765175 
L 951.204902 338.791604 
L 975.168172 336.122047 
" style="fill:none;stroke:#5cb85c;stroke-linecap:square;"/>
   </g>
   <g id="line2d_74">
    <path clip-path="url(#p656897bd96)" d="M 663.645656 354.734664 
L 687.608927 354.723916 
L 711.572197 354.652718 
L 735.535468 354.327501 
L 759.498738 353.21799 
L 783.462009 350.193419 
L 807.425279 343.219108 
L 831.38855 329.330392 
L 855.35182 305.404872 
L 879.31509 271.537632 
L 903.278361 233.952725 
L 927.241631 268.596747 
L 951.204902 316.792637 
L 975.168172 252.638687 
" style="fill:none;stroke:#5cb85c;stroke-linecap:square;"/>
   </g>
   <g id="line2d_75">
    <path clip-path="url(#p656897bd96)" d="M 615.719116 354.735873 
L 639.682386 354.735126 
L 663.645656 354.722842 
L 687.608927 354.635285 
L 711.572197 354.23152 
L 735.535468 352.924854 
L 759.498738 349.780578 
L 783.462009 343.580086 
L 807.425279 333.160767 
L 831.38855 316.881187 
L 855.35182 293.717761 
L 879.31509 266.412154 
L 903.278361 247.165342 
L 927.241631 267.936763 
L 951.204902 302.00257 
L 975.168172 306.172102 
" style="fill:none;stroke:#5cb85c;stroke-linecap:square;"/>
   </g>
   <g id="line2d_76">
    <path clip-path="url(#p656897bd96)" d="M 615.719116 354.735886 
L 639.682386 354.735832 
L 663.645656 354.734895 
L 687.608927 354.726497 
L 711.572197 354.666631 
L 735.535468 354.392232 
L 759.498738 353.414532 
L 783.462009 350.727896 
L 807.425279 344.382711 
L 831.38855 331.375442 
L 855.35182 308.143793 
L 879.31509 273.010731 
L 903.278361 230.494783 
L 927.241631 262.757994 
L 951.204902 325.109758 
L 975.168172 267.90793 
" style="fill:none;stroke:#5cb85c;stroke-linecap:square;"/>
   </g>
   <g id="line2d_77">
    <path clip-path="url(#p656897bd96)" d="M 615.719116 354.735873 
L 639.682386 354.734976 
L 663.645656 354.724704 
L 687.608927 354.642731 
L 711.572197 354.251724 
L 735.535468 352.98847 
L 759.498738 349.908748 
L 783.462009 343.839675 
L 807.425279 333.487043 
L 831.38855 317.524472 
L 855.35182 294.374198 
L 879.31509 266.711513 
L 903.278361 248.616946 
L 927.241631 274.478463 
L 951.204902 311.380953 
L 975.168172 308.917056 
" style="fill:none;stroke:#5cb85c;stroke-linecap:square;"/>
   </g>
   <g id="line2d_78">
    <path clip-path="url(#p656897bd96)" d="M 639.682386 354.735859 
L 663.645656 354.734799 
L 687.608927 354.725179 
L 711.572197 354.655055 
L 735.535468 354.354921 
L 759.498738 353.324203 
L 783.462009 350.598095 
L 807.425279 344.478843 
L 831.38855 332.360492 
L 855.35182 309.998102 
L 879.31509 269.30892 
L 903.278361 189.188567 
L 927.241631 194.967399 
" style="fill:none;stroke:#5cb85c;stroke-linecap:square;"/>
   </g>
   <g id="line2d_79">
    <path clip-path="url(#p656897bd96)" d="M 615.719116 354.735886 
L 639.682386 354.735465 
L 663.645656 354.729147 
L 687.608927 354.669226 
L 711.572197 354.369514 
L 735.535468 353.351582 
L 759.498738 350.778183 
L 783.462009 345.530159 
L 807.425279 336.351798 
L 831.38855 321.374658 
L 855.35182 297.661374 
L 879.31509 261.125732 
L 903.278361 212.327523 
L 927.241631 220.426088 
" style="fill:none;stroke:#5cb85c;stroke-linecap:square;"/>
   </g>
   <g id="line2d_80">
    <path clip-path="url(#p656897bd96)" d="M 639.682386 354.735832 
L 663.645656 354.735289 
L 687.608927 354.727802 
L 711.572197 354.677066 
L 735.535468 354.45434 
L 759.498738 353.662911 
L 783.462009 351.483998 
L 807.425279 346.345163 
L 831.38855 335.777999 
L 855.35182 315.505877 
L 879.31509 278.602409 
L 903.278361 209.042222 
L 927.241631 220.625009 
L 951.204902 341.591302 
L 975.168172 312.085979 
" style="fill:none;stroke:#5cb85c;stroke-linecap:square;"/>
   </g>
   <g id="line2d_81">
    <path clip-path="url(#p656897bd96)" d="M 615.719116 354.735886 
L 639.682386 354.734949 
L 663.645656 354.724527 
L 687.608927 354.636127 
L 711.572197 354.219739 
L 735.535468 352.915451 
L 759.498738 349.825471 
L 783.462009 343.933075 
L 807.425279 334.324357 
L 831.38855 319.691972 
L 855.35182 298.206544 
L 879.31509 267.884954 
L 903.278361 234.171714 
L 927.241631 253.891968 
L 951.204902 334.662373 
L 975.168172 330.229991 
" style="fill:none;stroke:#5cb85c;stroke-linecap:square;"/>
   </g>
   <g id="line2d_82">
    <path clip-path="url(#p656897bd96)" d="M 639.682386 354.735846 
L 663.645656 354.734922 
L 687.608927 354.725179 
L 711.572197 354.666156 
L 735.535468 354.390642 
L 759.498738 353.468447 
L 783.462009 350.945187 
L 807.425279 345.136789 
L 831.38855 333.434555 
L 855.35182 311.912318 
L 879.31509 274.248346 
L 903.278361 209.856125 
L 927.241631 236.429761 
L 951.204902 340.600748 
L 975.168172 309.484889 
" style="fill:none;stroke:#5cb85c;stroke-linecap:square;"/>
   </g>
   <g id="line2d_83">
    <path clip-path="url(#p656897bd96)" d="M 639.682386 354.735166 
L 663.645656 354.726008 
L 687.608927 354.650992 
L 711.572197 354.296373 
L 735.535468 353.130513 
L 759.498738 350.308356 
L 783.462009 344.773487 
L 807.425279 335.481126 
L 831.38855 320.95702 
L 855.35182 298.865712 
L 879.31509 267.531598 
L 903.278361 233.519367 
L 927.241631 255.044824 
L 951.204902 333.41651 
L 975.168172 327.332858 
" style="fill:none;stroke:#5cb85c;stroke-linecap:square;"/>
   </g>
   <g id="line2d_84">
    <path clip-path="url(#p656897bd96)" d="M 639.682386 354.735859 
L 663.645656 354.734922 
L 687.608927 354.724989 
L 711.572197 354.658438 
L 735.535468 354.356565 
L 759.498738 353.350264 
L 783.462009 350.680177 
L 807.425279 344.777387 
L 831.38855 333.164721 
L 855.35182 311.898472 
L 879.31509 273.31096 
L 903.278361 197.828689 
L 927.241631 204.885449 
" style="fill:none;stroke:#5cb85c;stroke-linecap:square;"/>
   </g>
   <g id="line2d_85">
    <path clip-path="url(#p656897bd96)" d="M 615.719116 354.735832 
L 639.682386 354.735289 
L 663.645656 354.726375 
L 687.608927 354.663737 
L 711.572197 354.3442 
L 735.535468 353.277924 
L 759.498738 350.627552 
L 783.462009 345.3762 
L 807.425279 336.311076 
L 831.38855 322.048922 
L 855.35182 299.673786 
L 879.31509 265.937761 
L 903.278361 221.897625 
L 927.241631 229.486511 
" style="fill:none;stroke:#5cb85c;stroke-linecap:square;"/>
   </g>
   <g id="line2d_86">
    <path clip-path="url(#p656897bd96)" d="M 639.682386 354.735778 
L 663.645656 354.734582 
L 687.608927 354.72412 
L 711.572197 354.648818 
L 735.535468 354.295204 
L 759.498738 353.100621 
L 783.462009 349.943858 
L 807.425279 342.665446 
L 831.38855 328.156734 
L 855.35182 301.331104 
L 879.31509 254.833199 
L 903.278361 178.288483 
L 927.241631 220.31213 
L 951.204902 339.964434 
L 975.168172 306.597417 
" style="fill:none;stroke:#5cb85c;stroke-linecap:square;"/>
   </g>
   <g id="line2d_87">
    <path clip-path="url(#p656897bd96)" d="M 615.719116 354.735886 
L 639.682386 354.734867 
L 663.645656 354.722652 
L 687.608927 354.623844 
L 711.572197 354.164737 
L 735.535468 352.659925 
L 759.498738 349.05074 
L 783.462009 342.016386 
L 807.425279 330.260441 
L 831.38855 312.000568 
L 855.35182 284.304444 
L 879.31509 246.010679 
L 903.278361 209.11766 
L 927.241631 244.746392 
L 951.204902 332.133011 
L 975.168172 327.785592 
" style="fill:none;stroke:#5cb85c;stroke-linecap:square;"/>
   </g>
   <g id="line2d_88">
    <path clip-path="url(#p656897bd96)" d="M 639.682386 354.735846 
L 663.645656 354.735071 
L 687.608927 354.725886 
L 711.572197 354.665272 
L 735.535468 354.379541 
L 759.498738 353.407548 
L 783.462009 350.766348 
L 807.425279 344.739505 
L 831.38855 332.633601 
L 855.35182 310.028497 
L 879.31509 269.242722 
L 903.278361 193.242185 
L 927.241631 213.713879 
" style="fill:none;stroke:#5cb85c;stroke-linecap:square;"/>
   </g>
   <g id="line2d_89">
    <path clip-path="url(#p656897bd96)" d="M 639.682386 354.735302 
L 663.645656 354.72541 
L 687.608927 354.649049 
L 711.572197 354.268369 
L 735.535468 353.046434 
L 759.498738 350.028793 
L 783.462009 344.137036 
L 807.425279 334.258662 
L 831.38855 318.838693 
L 855.35182 295.26112 
L 879.31509 260.754237 
L 903.278361 221.134865 
L 927.241631 245.17793 
" style="fill:none;stroke:#5cb85c;stroke-linecap:square;"/>
   </g>
   <g id="line2d_90">
    <path clip-path="url(#p656897bd96)" d="M 639.682386 354.735791 
L 663.645656 354.734922 
L 687.608927 354.722258 
L 711.572197 354.640679 
L 735.535468 354.261317 
L 759.498738 352.946621 
L 783.462009 349.297081 
L 807.425279 340.877444 
L 831.38855 323.415808 
L 855.35182 289.99955 
L 879.31509 228.653028 
L 903.278361 111.447257 
L 927.241631 123.46434 
" style="fill:none;stroke:#5cb85c;stroke-linecap:square;"/>
   </g>
   <g id="line2d_91">
    <path clip-path="url(#p656897bd96)" d="M 639.682386 354.735139 
L 663.645656 354.721008 
L 687.608927 354.598802 
L 711.572197 354.007421 
L 735.535468 352.078436 
L 759.498738 347.383286 
L 783.462009 338.16408 
L 807.425279 322.57276 
L 831.38855 298.014281 
L 855.35182 259.839257 
L 879.31509 205.37082 
L 903.278361 149.69704 
L 927.241631 202.013765 
" style="fill:none;stroke:#5cb85c;stroke-linecap:square;"/>
   </g>
   <g id="line2d_92">
    <path clip-path="url(#p656897bd96)" d="M 615.719116 354.735886 
L 639.682386 354.735696 
L 663.645656 354.734025 
L 687.608927 354.720723 
L 711.572197 354.645557 
L 735.535468 354.322393 
L 759.498738 353.276701 
L 783.462009 350.581899 
L 807.425279 344.594934 
L 831.38855 332.72124 
L 855.35182 311.245214 
L 879.31509 276.174505 
L 903.278361 224.340339 
L 927.241631 237.282905 
L 951.204902 251.440408 
L 975.168172 67.065723 
" style="fill:none;stroke:#5cb85c;stroke-linecap:square;"/>
   </g>
   <g id="line2d_93">
    <path clip-path="url(#p656897bd96)" d="M 615.719116 354.735846 
L 639.682386 354.734487 
L 663.645656 354.714106 
L 687.608927 354.575541 
L 711.572197 353.991361 
L 735.535468 352.21912 
L 759.498738 348.258903 
L 783.462009 341.057532 
L 807.425279 329.779349 
L 831.38855 313.421165 
L 855.35182 290.622617 
L 879.31509 261.5981 
L 903.278361 230.908874 
L 927.241631 225.018911 
L 951.204902 210.120524 
L 975.168172 200.861711 
" style="fill:none;stroke:#5cb85c;stroke-linecap:square;"/>
   </g>
   <g id="line2d_94">
    <path clip-path="url(#p656897bd96)" d="M 639.682386 354.735859 
L 663.645656 354.735275 
L 687.608927 354.727014 
L 711.572197 354.676903 
L 735.535468 354.434639 
L 759.498738 353.594227 
L 783.462009 351.184571 
L 807.425279 345.470334 
L 831.38855 333.401945 
L 855.35182 310.012355 
L 879.31509 267.383046 
L 903.278361 189.592631 
L 927.241631 206.0017 
" style="fill:none;stroke:#5cb85c;stroke-linecap:square;"/>
   </g>
   <g id="line2d_95">
    <path clip-path="url(#p656897bd96)" d="M 615.719116 354.735886 
L 639.682386 354.735112 
L 663.645656 354.723916 
L 687.608927 354.627268 
L 711.572197 354.184398 
L 735.535468 352.735471 
L 759.498738 349.240815 
L 783.462009 342.530658 
L 807.425279 331.480351 
L 831.38855 314.611686 
L 855.35182 289.756117 
L 879.31509 255.988052 
L 903.278361 222.021882 
L 927.241631 253.314786 
" style="fill:none;stroke:#5cb85c;stroke-linecap:square;"/>
   </g>
   <g id="line2d_96">
    <path clip-path="url(#p656897bd96)" d="M 639.682386 354.735859 
L 663.645656 354.735058 
L 687.608927 354.72772 
L 711.572197 354.677936 
L 735.535468 354.446473 
L 759.498738 353.660995 
L 783.462009 351.453113 
L 807.425279 346.261016 
L 831.38855 335.37335 
L 855.35182 314.697912 
L 879.31509 278.566062 
L 903.278361 219.137385 
L 927.241631 243.097349 
L 951.204902 338.103643 
L 975.168172 306.878337 
" style="fill:none;stroke:#5cb85c;stroke-linecap:square;"/>
   </g>
   <g id="line2d_97">
    <path clip-path="url(#p656897bd96)" d="M 615.719116 354.735832 
L 639.682386 354.73484 
L 663.645656 354.722394 
L 687.608927 354.629089 
L 711.572197 354.203774 
L 735.535468 352.857514 
L 759.498738 349.714773 
L 783.462009 343.741152 
L 807.425279 334.180969 
L 831.38855 319.817493 
L 855.35182 299.24805 
L 879.31509 272.394594 
L 903.278361 245.727421 
L 927.241631 263.587768 
L 951.204902 331.377942 
L 975.168172 329.614506 
" style="fill:none;stroke:#5cb85c;stroke-linecap:square;"/>
   </g>
   <g id="line2d_98">
    <path clip-path="url(#p656897bd96)" d="M 663.645656 354.735261 
L 687.608927 354.727598 
L 711.572197 354.674063 
L 735.535468 354.4112 
L 759.498738 353.508055 
L 783.462009 350.957646 
L 807.425279 344.883518 
L 831.38855 332.250855 
L 855.35182 308.463981 
L 879.31509 268.069838 
L 903.278361 205.82933 
L 927.241631 248.058474 
" style="fill:none;stroke:#5cb85c;stroke-linecap:square;"/>
   </g>
   <g id="line2d_99">
    <path clip-path="url(#p656897bd96)" d="M 615.719116 354.735873 
L 639.682386 354.735248 
L 663.645656 354.723997 
L 687.608927 354.639809 
L 711.572197 354.216859 
L 735.535468 352.841032 
L 759.498738 349.490838 
L 783.462009 342.99573 
L 807.425279 332.298751 
L 831.38855 315.915104 
L 855.35182 292.358579 
L 879.31509 262.660124 
L 903.278361 239.729831 
L 927.241631 278.699845 
" style="fill:none;stroke:#5cb85c;stroke-linecap:square;"/>
   </g>
   <g id="line2d_100">
    <path clip-path="url(#p656897bd96)" d="M 639.682386 354.735873 
L 663.645656 354.735126 
L 687.608927 354.727258 
L 711.572197 354.674729 
L 735.535468 354.433253 
L 759.498738 353.612977 
L 783.462009 351.376018 
L 807.425279 346.205076 
L 831.38855 335.514674 
L 855.35182 315.353466 
L 879.31509 278.683716 
L 903.278361 208.625726 
L 927.241631 205.853801 
L 951.204902 343.689519 
L 975.168172 318.805254 
" style="fill:none;stroke:#5cb85c;stroke-linecap:square;"/>
   </g>
   <g id="line2d_101">
    <path clip-path="url(#p656897bd96)" d="M 615.719116 354.735873 
L 639.682386 354.73503 
L 663.645656 354.725179 
L 687.608927 354.643655 
L 711.572197 354.245786 
L 735.535468 352.994897 
L 759.498738 350.019405 
L 783.462009 344.277653 
L 807.425279 334.784198 
L 831.38855 320.325148 
L 855.35182 298.651261 
L 879.31509 268.103861 
L 903.278361 231.71135 
L 927.241631 240.955693 
L 951.204902 338.417949 
L 975.168172 332.435427 
" style="fill:none;stroke:#5cb85c;stroke-linecap:square;"/>
   </g>
   <g id="line2d_102">
    <path clip-path="url(#p656897bd96)" d="M 639.682386 354.735873 
L 663.645656 354.735166 
L 687.608927 354.727503 
L 711.572197 354.668248 
L 735.535468 354.392422 
L 759.498738 353.423989 
L 783.462009 350.769066 
L 807.425279 344.682002 
L 831.38855 332.297746 
L 855.35182 310.186003 
L 879.31509 273.37141 
L 903.278361 214.63409 
L 927.241631 249.228925 
" style="fill:none;stroke:#5cb85c;stroke-linecap:square;"/>
   </g>
   <g id="line2d_103">
    <path clip-path="url(#p656897bd96)" d="M 639.682386 354.735547 
L 663.645656 354.727911 
L 687.608927 354.663778 
L 711.572197 354.349214 
L 735.535468 353.296539 
L 759.498738 350.678614 
L 783.462009 345.441841 
L 807.425279 336.494045 
L 831.38855 322.366339 
L 855.35182 300.989624 
L 879.31509 271.83926 
L 903.278361 241.72348 
L 927.241631 260.546254 
" style="fill:none;stroke:#5cb85c;stroke-linecap:square;"/>
   </g>
   <g id="line2d_104">
    <path clip-path="url(#p656897bd96)" d="M 639.682386 354.735764 
L 663.645656 354.734093 
L 687.608927 354.723114 
L 711.572197 354.657949 
L 735.535468 354.368196 
L 759.498738 353.423147 
L 783.462009 350.868553 
L 807.425279 345.033062 
L 831.38855 333.178376 
L 855.35182 311.653245 
L 879.31509 276.751442 
L 903.278361 227.374828 
L 927.241631 247.622642 
L 951.204902 251.042078 
L 975.168172 50.537804 
" style="fill:none;stroke:#5cb85c;stroke-linecap:square;"/>
   </g>
   <g id="line2d_105">
    <path clip-path="url(#p656897bd96)" d="M 615.719116 354.735805 
L 639.682386 354.734134 
L 663.645656 354.712652 
L 687.608927 354.558325 
L 711.572197 353.90629 
L 735.535468 351.96941 
L 759.498738 347.676572 
L 783.462009 339.995033 
L 807.425279 328.061798 
L 831.38855 311.028534 
L 855.35182 287.794236 
L 879.31509 259.121553 
L 903.278361 231.933886 
L 927.241631 229.545861 
L 951.204902 199.468288 
L 975.168172 216.197818 
" style="fill:none;stroke:#5cb85c;stroke-linecap:square;"/>
   </g>
   <g id="line2d_106">
    <path clip-path="url(#p656897bd96)" d="M 639.682386 354.735873 
L 663.645656 354.735071 
L 687.608927 354.726525 
L 711.572197 354.666332 
L 735.535468 354.388224 
L 759.498738 353.441014 
L 783.462009 350.841324 
L 807.425279 344.875692 
L 831.38855 332.920894 
L 855.35182 311.234901 
L 879.31509 274.882921 
L 903.278361 216.381575 
L 927.241631 250.307621 
L 951.204902 341.718847 
L 975.168172 313.917285 
" style="fill:none;stroke:#5cb85c;stroke-linecap:square;"/>
   </g>
   <g id="line2d_107">
    <path clip-path="url(#p656897bd96)" d="M 615.719116 354.735832 
L 639.682386 354.735384 
L 663.645656 354.726266 
L 687.608927 354.648451 
L 711.572197 354.276413 
L 735.535468 353.077305 
L 759.498738 350.169763 
L 783.462009 344.606347 
L 807.425279 335.459889 
L 831.38855 321.332333 
L 855.35182 300.502595 
L 879.31509 272.0759 
L 903.278361 242.176119 
L 927.241631 258.947212 
L 951.204902 334.805109 
L 975.168172 332.23508 
" style="fill:none;stroke:#5cb85c;stroke-linecap:square;"/>
   </g>
   <g id="line2d_108">
    <path clip-path="url(#p656897bd96)" d="M 639.682386 354.735846 
L 663.645656 354.735126 
L 687.608927 354.725723 
L 711.572197 354.656604 
L 735.535468 354.342638 
L 759.498738 353.274541 
L 783.462009 350.406213 
L 807.425279 344.021937 
L 831.38855 331.556305 
L 855.35182 309.234269 
L 879.31509 271.35094 
L 903.278361 203.003299 
L 927.241631 228.823701 
" style="fill:none;stroke:#5cb85c;stroke-linecap:square;"/>
   </g>
   <g id="line2d_109">
    <path clip-path="url(#p656897bd96)" d="M 639.682386 354.73552 
L 663.645656 354.728209 
L 687.608927 354.669131 
L 711.572197 354.375723 
L 735.535468 353.378281 
L 759.498738 350.889709 
L 783.462009 345.83763 
L 807.425279 337.073061 
L 831.38855 323.106788 
L 855.35182 301.376201 
L 879.31509 269.477337 
L 903.278361 229.694657 
L 927.241631 235.52489 
" style="fill:none;stroke:#5cb85c;stroke-linecap:square;"/>
   </g>
   <g id="line2d_110">
    <path clip-path="url(#p656897bd96)" d="M 639.682386 354.735846 
L 663.645656 354.734799 
L 687.608927 354.72541 
L 711.572197 354.663954 
L 735.535468 354.355125 
L 759.498738 353.299637 
L 783.462009 350.429352 
L 807.425279 343.835286 
L 831.38855 330.600779 
L 855.35182 307.262822 
L 879.31509 270.59655 
L 903.278361 220.572303 
L 927.241631 263.870686 
L 951.204902 337.583298 
L 975.168172 298.468442 
" style="fill:none;stroke:#5cb85c;stroke-linecap:square;"/>
   </g>
   <g id="line2d_111">
    <path clip-path="url(#p656897bd96)" d="M 615.719116 354.735873 
L 639.682386 354.735153 
L 663.645656 354.725859 
L 687.608927 354.655992 
L 711.572197 354.295517 
L 735.535468 353.140854 
L 759.498738 350.322106 
L 783.462009 344.725754 
L 807.425279 335.222516 
L 831.38855 320.38992 
L 855.35182 298.476404 
L 879.31509 269.94302 
L 903.278361 243.70903 
L 927.241631 262.905255 
L 951.204902 327.912512 
L 975.168172 324.574425 
" style="fill:none;stroke:#5cb85c;stroke-linecap:square;"/>
   </g>
   <g id="line2d_112">
    <path clip-path="url(#p656897bd96)" d="M 639.682386 354.735886 
L 663.645656 354.735139 
L 687.608927 354.726973 
L 711.572197 354.665884 
L 735.535468 354.37734 
L 759.498738 353.392018 
L 783.462009 350.698683 
L 807.425279 344.593113 
L 831.38855 332.409693 
L 855.35182 310.40756 
L 879.31509 273.028476 
L 903.278361 208.931009 
L 927.241631 236.311931 
" style="fill:none;stroke:#5cb85c;stroke-linecap:square;"/>
   </g>
   <g id="line2d_113">
    <path clip-path="url(#p656897bd96)" d="M 639.682386 354.735533 
L 663.645656 354.728658 
L 687.608927 354.669919 
L 711.572197 354.380737 
L 735.535468 353.402847 
L 759.498738 350.933991 
L 783.462009 345.919712 
L 807.425279 337.243774 
L 831.38855 323.39453 
L 855.35182 301.773906 
L 879.31509 270.692777 
L 903.278361 234.624218 
L 927.241631 246.513103 
" style="fill:none;stroke:#5cb85c;stroke-linecap:square;"/>
   </g>
   <g id="line2d_114">
    <path clip-path="url(#p656897bd96)" d="M 639.682386 354.735832 
L 663.645656 354.73503 
L 687.608927 354.726661 
L 711.572197 354.669824 
L 735.535468 354.414176 
L 759.498738 353.529224 
L 783.462009 351.132354 
L 807.425279 345.715031 
L 831.38855 334.72334 
L 855.35182 314.613629 
L 879.31509 280.067518 
L 903.278361 220.885426 
L 927.241631 240.795904 
L 951.204902 335.294462 
L 975.168172 286.596827 
" style="fill:none;stroke:#5cb85c;stroke-linecap:square;"/>
   </g>
   <g id="line2d_115">
    <path clip-path="url(#p656897bd96)" d="M 639.682386 354.735003 
L 663.645656 354.725655 
L 687.608927 354.655 
L 711.572197 354.304416 
L 735.535468 353.16599 
L 759.498738 350.449733 
L 783.462009 345.151857 
L 807.425279 336.342735 
L 831.38855 322.736801 
L 855.35182 302.275678 
L 879.31509 273.987806 
L 903.278361 242.967535 
L 927.241631 253.134833 
L 951.204902 323.402547 
L 975.168172 314.599647 
" style="fill:none;stroke:#5cb85c;stroke-linecap:square;"/>
   </g>
   <g id="line2d_116">
    <path clip-path="url(#p656897bd96)" d="M 639.682386 354.735886 
L 663.645656 354.734935 
L 687.608927 354.724296 
L 711.572197 354.654212 
L 735.535468 354.331523 
L 759.498738 353.2289 
L 783.462009 350.366388 
L 807.425279 344.030171 
L 831.38855 331.770103 
L 855.35182 309.883165 
L 879.31509 271.280584 
L 903.278361 197.122548 
L 927.241631 209.780321 
" style="fill:none;stroke:#5cb85c;stroke-linecap:square;"/>
   </g>
   <g id="line2d_117">
    <path clip-path="url(#p656897bd96)" d="M 639.682386 354.735601 
L 663.645656 354.728848 
L 687.608927 354.677909 
L 711.572197 354.411024 
L 735.535468 353.516832 
L 759.498738 351.202384 
L 783.462009 346.497139 
L 807.425279 338.147925 
L 831.38855 324.643082 
L 855.35182 303.060802 
L 879.31509 269.47659 
L 903.278361 221.370227 
L 927.241631 214.174671 
" style="fill:none;stroke:#5cb85c;stroke-linecap:square;"/>
   </g>
   <g id="line2d_118">
    <path clip-path="url(#p656897bd96)" d="M 663.645656 354.735221 
L 687.608927 354.728142 
L 711.572197 354.675884 
L 735.535468 354.428456 
L 759.498738 353.571671 
L 783.462009 351.18097 
L 807.425279 345.642256 
L 831.38855 334.384713 
L 855.35182 313.513479 
L 879.31509 276.695394 
L 903.278361 210.129383 
L 927.241631 229.582357 
" style="fill:none;stroke:#5cb85c;stroke-linecap:square;"/>
   </g>
   <g id="line2d_119">
    <path clip-path="url(#p656897bd96)" d="M 639.682386 354.735221 
L 663.645656 354.727231 
L 687.608927 354.660653 
L 711.572197 354.336265 
L 735.535468 353.245273 
L 759.498738 350.56755 
L 783.462009 345.273669 
L 807.425279 336.326702 
L 831.38855 322.27302 
L 855.35182 300.824604 
L 879.31509 270.694516 
L 903.278361 237.125222 
L 927.241631 253.213899 
" style="fill:none;stroke:#5cb85c;stroke-linecap:square;"/>
   </g>
   <g id="line2d_120">
    <path clip-path="url(#p656897bd96)" d="M 639.682386 354.735846 
L 663.645656 354.735126 
L 687.608927 354.726022 
L 711.572197 354.661101 
L 735.535468 354.364663 
L 759.498738 353.35006 
L 783.462009 350.571708 
L 807.425279 344.369654 
L 831.38855 332.061935 
L 855.35182 309.899864 
L 879.31509 272.737378 
L 903.278361 212.097269 
L 927.241631 247.794986 
L 951.204902 348.319558 
L 975.168172 331.016637 
" style="fill:none;stroke:#5cb85c;stroke-linecap:square;"/>
   </g>
   <g id="line2d_121">
    <path clip-path="url(#p656897bd96)" d="M 639.682386 354.735438 
L 663.645656 354.728712 
L 687.608927 354.669457 
L 711.572197 354.377191 
L 735.535468 353.383037 
L 759.498738 350.889505 
L 783.462009 345.857359 
L 807.425279 337.136025 
L 831.38855 323.206343 
L 855.35182 301.922349 
L 879.31509 271.547592 
L 903.278361 237.307009 
L 927.241631 250.866501 
L 951.204902 343.484444 
L 975.168172 341.330844 
" style="fill:none;stroke:#5cb85c;stroke-linecap:square;"/>
   </g>
   <g id="line2d_122">
    <path clip-path="url(#p656897bd96)" d="M 663.645656 354.735071 
L 687.608927 354.726443 
L 711.572197 354.665082 
L 735.535468 354.37768 
L 759.498738 353.381094 
L 783.462009 350.654483 
L 807.425279 344.502104 
L 831.38855 332.10979 
L 855.35182 309.742005 
L 879.31509 272.343016 
L 903.278361 211.950606 
L 927.241631 245.989116 
L 951.204902 345.213979 
L 975.168172 317.659232 
" style="fill:none;stroke:#5cb85c;stroke-linecap:square;"/>
   </g>
   <g id="line2d_123">
    <path clip-path="url(#p656897bd96)" d="M 615.719116 354.735886 
L 639.682386 354.735411 
L 663.645656 354.728345 
L 687.608927 354.671523 
L 711.572197 354.378346 
L 735.535468 353.395089 
L 759.498738 350.837642 
L 783.462009 345.653656 
L 807.425279 336.505703 
L 831.38855 321.807432 
L 855.35182 298.955757 
L 879.31509 267.481515 
L 903.278361 236.377001 
L 927.241631 257.872688 
L 951.204902 337.726265 
L 975.168172 331.659243 
" style="fill:none;stroke:#5cb85c;stroke-linecap:square;"/>
   </g>
   <g id="line2d_124">
    <path clip-path="url(#p656897bd96)" d="M 40.600625 354.7359 
L 993.140625 354.7359 
" style="fill:none;stroke:#dedede;stroke-linecap:square;stroke-width:2;"/>
   </g>
   <g id="text_17">
    <!-- FastQC: Per Sequence Quality Scores -->
    <g transform="translate(368.678125 19.3575)scale(0.16 -0.16)">
     <defs>
      <path d="M 628 4666 
L 3309 4666 
L 3309 4134 
L 1259 4134 
L 1259 2759 
L 3109 2759 
L 3109 2228 
L 1259 2228 
L 1259 0 
L 628 0 
L 628 4666 
z
" id="DejaVuSans-46" transform="scale(0.015625)"/>
      <path d="M 2834 3397 
L 2834 2853 
Q 2591 2978 2328 3040 
Q 2066 3103 1784 3103 
Q 1356 3103 1142 2972 
Q 928 2841 928 2578 
Q 928 2378 1081 2264 
Q 1234 2150 1697 2047 
L 1894 2003 
Q 2506 1872 2764 1633 
Q 3022 1394 3022 966 
Q 3022 478 2636 193 
Q 2250 -91 1575 -91 
Q 1294 -91 989 -36 
Q 684 19 347 128 
L 347 722 
Q 666 556 975 473 
Q 1284 391 1588 391 
Q 1994 391 2212 530 
Q 2431 669 2431 922 
Q 2431 1156 2273 1281 
Q 2116 1406 1581 1522 
L 1381 1569 
Q 847 1681 609 1914 
Q 372 2147 372 2553 
Q 372 3047 722 3315 
Q 1072 3584 1716 3584 
Q 2034 3584 2315 3537 
Q 2597 3491 2834 3397 
z
" id="DejaVuSans-73" transform="scale(0.015625)"/>
      <path d="M 750 794 
L 1409 794 
L 1409 0 
L 750 0 
L 750 794 
z
M 750 3309 
L 1409 3309 
L 1409 2516 
L 750 2516 
L 750 3309 
z
" id="DejaVuSans-3a" transform="scale(0.015625)"/>
     </defs>
     <use xlink:href="#DejaVuSans-46"/>
     <use x="48.394531" xlink:href="#DejaVuSans-61"/>
     <use x="109.673828" xlink:href="#DejaVuSans-73"/>
     <use x="161.773438" xlink:href="#DejaVuSans-74"/>
     <use x="200.982422" xlink:href="#DejaVuSans-51"/>
     <use x="279.693359" xlink:href="#DejaVuSans-43"/>
     <use x="349.517578" xlink:href="#DejaVuSans-3a"/>
     <use x="383.208984" xlink:href="#DejaVuSans-20"/>
     <use x="414.996094" xlink:href="#DejaVuSans-50"/>
     <use x="471.673828" xlink:href="#DejaVuSans-65"/>
     <use x="533.197266" xlink:href="#DejaVuSans-72"/>
     <use x="574.310547" xlink:href="#DejaVuSans-20"/>
     <use x="606.097656" xlink:href="#DejaVuSans-53"/>
     <use x="669.574219" xlink:href="#DejaVuSans-65"/>
     <use x="731.097656" xlink:href="#DejaVuSans-71"/>
     <use x="794.574219" xlink:href="#DejaVuSans-75"/>
     <use x="857.953125" xlink:href="#DejaVuSans-65"/>
     <use x="919.476562" xlink:href="#DejaVuSans-6e"/>
     <use x="982.855469" xlink:href="#DejaVuSans-63"/>
     <use x="1037.835938" xlink:href="#DejaVuSans-65"/>
     <use x="1099.359375" xlink:href="#DejaVuSans-20"/>
     <use x="1131.146484" xlink:href="#DejaVuSans-51"/>
     <use x="1209.857422" xlink:href="#DejaVuSans-75"/>
     <use x="1273.236328" xlink:href="#DejaVuSans-61"/>
     <use x="1334.515625" xlink:href="#DejaVuSans-6c"/>
     <use x="1362.298828" xlink:href="#DejaVuSans-69"/>
     <use x="1390.082031" xlink:href="#DejaVuSans-74"/>
     <use x="1429.291016" xlink:href="#DejaVuSans-79"/>
     <use x="1488.470703" xlink:href="#DejaVuSans-20"/>
     <use x="1520.257812" xlink:href="#DejaVuSans-53"/>
     <use x="1583.734375" xlink:href="#DejaVuSans-63"/>
     <use x="1638.714844" xlink:href="#DejaVuSans-6f"/>
     <use x="1699.896484" xlink:href="#DejaVuSans-72"/>
     <use x="1738.759766" xlink:href="#DejaVuSans-65"/>
     <use x="1800.283203" xlink:href="#DejaVuSans-73"/>
    </g>
   </g>
  </g>
 </g>
 <defs>
  <clipPath id="p656897bd96">
   <rect height="319.408" width="952.54" x="40.600625" y="35.3279"/>
  </clipPath>
 </defs>
</svg>
