<?xml version="1.0" encoding="utf-8" standalone="no"?>
<!DOCTYPE svg PUBLIC "-//W3C//DTD SVG 1.1//EN"
  "http://www.w3.org/Graphics/SVG/1.1/DTD/svg11.dtd">
<svg height="390.356525pt" version="1.1" viewBox="0 0 1000.548125 390.356525" width="1000.548125pt" xmlns="http://www.w3.org/2000/svg" xmlns:xlink="http://www.w3.org/1999/xlink">
 <metadata>
  <rdf:RDF xmlns:cc="http://creativecommons.org/ns#" xmlns:dc="http://purl.org/dc/elements/1.1/" xmlns:rdf="http://www.w3.org/1999/02/22-rdf-syntax-ns#">
   <cc:Work>
    <dc:type rdf:resource="http://purl.org/dc/dcmitype/StillImage"/>
    <dc:date>2021-09-07T06:20:22.298051</dc:date>
    <dc:format>image/svg+xml</dc:format>
    <dc:creator>
     <cc:Agent>
      <dc:title>Matplotlib v3.4.2, https://matplotlib.org/</dc:title>
     </cc:Agent>
    </dc:creator>
   </cc:Work>
  </rdf:RDF>
 </metadata>
 <defs>
  <style type="text/css">*{stroke-linecap:butt;stroke-linejoin:round;}</style>
 </defs>
 <g id="figure_1">
  <g id="axes_1">
   <g id="patch_1">
    <path d="M 43.148125 354.7359 
L 993.348125 354.7359 
L 993.348125 35.3279 
L 43.148125 35.3279 
z
" style="fill:#ffffff;"/>
   </g>
   <g id="matplotlib.axis_1">
    <g id="xtick_1">
     <g id="text_1">
      <!-- 1.0 -->
      <g transform="translate(79.977784 367.81465)scale(0.08 -0.08)">
       <defs>
        <path d="M 794 531 
L 1825 531 
L 1825 4091 
L 703 3866 
L 703 4441 
L 1819 4666 
L 2450 4666 
L 2450 531 
L 3481 531 
L 3481 0 
L 794 0 
L 794 531 
z
" id="DejaVuSans-31" transform="scale(0.015625)"/>
        <path d="M 684 794 
L 1344 794 
L 1344 0 
L 684 0 
L 684 794 
z
" id="DejaVuSans-2e" transform="scale(0.015625)"/>
        <path d="M 2034 4250 
Q 1547 4250 1301 3770 
Q 1056 3291 1056 2328 
Q 1056 1369 1301 889 
Q 1547 409 2034 409 
Q 2525 409 2770 889 
Q 3016 1369 3016 2328 
Q 3016 3291 2770 3770 
Q 2525 4250 2034 4250 
z
M 2034 4750 
Q 2819 4750 3233 4129 
Q 3647 3509 3647 2328 
Q 3647 1150 3233 529 
Q 2819 -91 2034 -91 
Q 1250 -91 836 529 
Q 422 1150 422 2328 
Q 422 3509 836 4129 
Q 1250 4750 2034 4750 
z
" id="DejaVuSans-30" transform="scale(0.015625)"/>
       </defs>
       <use xlink:href="#DejaVuSans-31"/>
       <use x="63.623047" xlink:href="#DejaVuSans-2e"/>
       <use x="95.410156" xlink:href="#DejaVuSans-30"/>
      </g>
     </g>
    </g>
    <g id="xtick_2">
     <g id="text_2">
      <!-- 2.0 -->
      <g transform="translate(137.565663 367.81465)scale(0.08 -0.08)">
       <defs>
        <path d="M 1228 531 
L 3431 531 
L 3431 0 
L 469 0 
L 469 531 
Q 828 903 1448 1529 
Q 2069 2156 2228 2338 
Q 2531 2678 2651 2914 
Q 2772 3150 2772 3378 
Q 2772 3750 2511 3984 
Q 2250 4219 1831 4219 
Q 1534 4219 1204 4116 
Q 875 4013 500 3803 
L 500 4441 
Q 881 4594 1212 4672 
Q 1544 4750 1819 4750 
Q 2544 4750 2975 4387 
Q 3406 4025 3406 3419 
Q 3406 3131 3298 2873 
Q 3191 2616 2906 2266 
Q 2828 2175 2409 1742 
Q 1991 1309 1228 531 
z
" id="DejaVuSans-32" transform="scale(0.015625)"/>
       </defs>
       <use xlink:href="#DejaVuSans-32"/>
       <use x="63.623047" xlink:href="#DejaVuSans-2e"/>
       <use x="95.410156" xlink:href="#DejaVuSans-30"/>
      </g>
     </g>
    </g>
    <g id="xtick_3">
     <g id="text_3">
      <!-- 3.0 -->
      <g transform="translate(195.153542 367.81465)scale(0.08 -0.08)">
       <defs>
        <path d="M 2597 2516 
Q 3050 2419 3304 2112 
Q 3559 1806 3559 1356 
Q 3559 666 3084 287 
Q 2609 -91 1734 -91 
Q 1441 -91 1130 -33 
Q 819 25 488 141 
L 488 750 
Q 750 597 1062 519 
Q 1375 441 1716 441 
Q 2309 441 2620 675 
Q 2931 909 2931 1356 
Q 2931 1769 2642 2001 
Q 2353 2234 1838 2234 
L 1294 2234 
L 1294 2753 
L 1863 2753 
Q 2328 2753 2575 2939 
Q 2822 3125 2822 3475 
Q 2822 3834 2567 4026 
Q 2313 4219 1838 4219 
Q 1578 4219 1281 4162 
Q 984 4106 628 3988 
L 628 4550 
Q 988 4650 1302 4700 
Q 1616 4750 1894 4750 
Q 2613 4750 3031 4423 
Q 3450 4097 3450 3541 
Q 3450 3153 3228 2886 
Q 3006 2619 2597 2516 
z
" id="DejaVuSans-33" transform="scale(0.015625)"/>
       </defs>
       <use xlink:href="#DejaVuSans-33"/>
       <use x="63.623047" xlink:href="#DejaVuSans-2e"/>
       <use x="95.410156" xlink:href="#DejaVuSans-30"/>
      </g>
     </g>
    </g>
    <g id="xtick_4">
     <g id="text_4">
      <!-- 4.0 -->
      <g transform="translate(252.74142 367.81465)scale(0.08 -0.08)">
       <defs>
        <path d="M 2419 4116 
L 825 1625 
L 2419 1625 
L 2419 4116 
z
M 2253 4666 
L 3047 4666 
L 3047 1625 
L 3713 1625 
L 3713 1100 
L 3047 1100 
L 3047 0 
L 2419 0 
L 2419 1100 
L 313 1100 
L 313 1709 
L 2253 4666 
z
" id="DejaVuSans-34" transform="scale(0.015625)"/>
       </defs>
       <use xlink:href="#DejaVuSans-34"/>
       <use x="63.623047" xlink:href="#DejaVuSans-2e"/>
       <use x="95.410156" xlink:href="#DejaVuSans-30"/>
      </g>
     </g>
    </g>
    <g id="xtick_5">
     <g id="text_5">
      <!-- 5.0 -->
      <g transform="translate(310.329299 367.81465)scale(0.08 -0.08)">
       <defs>
        <path d="M 691 4666 
L 3169 4666 
L 3169 4134 
L 1269 4134 
L 1269 2991 
Q 1406 3038 1543 3061 
Q 1681 3084 1819 3084 
Q 2600 3084 3056 2656 
Q 3513 2228 3513 1497 
Q 3513 744 3044 326 
Q 2575 -91 1722 -91 
Q 1428 -91 1123 -41 
Q 819 9 494 109 
L 494 744 
Q 775 591 1075 516 
Q 1375 441 1709 441 
Q 2250 441 2565 725 
Q 2881 1009 2881 1497 
Q 2881 1984 2565 2268 
Q 2250 2553 1709 2553 
Q 1456 2553 1204 2497 
Q 953 2441 691 2322 
L 691 4666 
z
" id="DejaVuSans-35" transform="scale(0.015625)"/>
       </defs>
       <use xlink:href="#DejaVuSans-35"/>
       <use x="63.623047" xlink:href="#DejaVuSans-2e"/>
       <use x="95.410156" xlink:href="#DejaVuSans-30"/>
      </g>
     </g>
    </g>
    <g id="xtick_6">
     <g id="text_6">
      <!-- 6.0 -->
      <g transform="translate(367.917178 367.81465)scale(0.08 -0.08)">
       <defs>
        <path d="M 2113 2584 
Q 1688 2584 1439 2293 
Q 1191 2003 1191 1497 
Q 1191 994 1439 701 
Q 1688 409 2113 409 
Q 2538 409 2786 701 
Q 3034 994 3034 1497 
Q 3034 2003 2786 2293 
Q 2538 2584 2113 2584 
z
M 3366 4563 
L 3366 3988 
Q 3128 4100 2886 4159 
Q 2644 4219 2406 4219 
Q 1781 4219 1451 3797 
Q 1122 3375 1075 2522 
Q 1259 2794 1537 2939 
Q 1816 3084 2150 3084 
Q 2853 3084 3261 2657 
Q 3669 2231 3669 1497 
Q 3669 778 3244 343 
Q 2819 -91 2113 -91 
Q 1303 -91 875 529 
Q 447 1150 447 2328 
Q 447 3434 972 4092 
Q 1497 4750 2381 4750 
Q 2619 4750 2861 4703 
Q 3103 4656 3366 4563 
z
" id="DejaVuSans-36" transform="scale(0.015625)"/>
       </defs>
       <use xlink:href="#DejaVuSans-36"/>
       <use x="63.623047" xlink:href="#DejaVuSans-2e"/>
       <use x="95.410156" xlink:href="#DejaVuSans-30"/>
      </g>
     </g>
    </g>
    <g id="xtick_7">
     <g id="text_7">
      <!-- 7.0 -->
      <g transform="translate(425.505057 367.81465)scale(0.08 -0.08)">
       <defs>
        <path d="M 525 4666 
L 3525 4666 
L 3525 4397 
L 1831 0 
L 1172 0 
L 2766 4134 
L 525 4134 
L 525 4666 
z
" id="DejaVuSans-37" transform="scale(0.015625)"/>
       </defs>
       <use xlink:href="#DejaVuSans-37"/>
       <use x="63.623047" xlink:href="#DejaVuSans-2e"/>
       <use x="95.410156" xlink:href="#DejaVuSans-30"/>
      </g>
     </g>
    </g>
    <g id="xtick_8">
     <g id="text_8">
      <!-- 8.0 -->
      <g transform="translate(483.092936 367.81465)scale(0.08 -0.08)">
       <defs>
        <path d="M 2034 2216 
Q 1584 2216 1326 1975 
Q 1069 1734 1069 1313 
Q 1069 891 1326 650 
Q 1584 409 2034 409 
Q 2484 409 2743 651 
Q 3003 894 3003 1313 
Q 3003 1734 2745 1975 
Q 2488 2216 2034 2216 
z
M 1403 2484 
Q 997 2584 770 2862 
Q 544 3141 544 3541 
Q 544 4100 942 4425 
Q 1341 4750 2034 4750 
Q 2731 4750 3128 4425 
Q 3525 4100 3525 3541 
Q 3525 3141 3298 2862 
Q 3072 2584 2669 2484 
Q 3125 2378 3379 2068 
Q 3634 1759 3634 1313 
Q 3634 634 3220 271 
Q 2806 -91 2034 -91 
Q 1263 -91 848 271 
Q 434 634 434 1313 
Q 434 1759 690 2068 
Q 947 2378 1403 2484 
z
M 1172 3481 
Q 1172 3119 1398 2916 
Q 1625 2713 2034 2713 
Q 2441 2713 2670 2916 
Q 2900 3119 2900 3481 
Q 2900 3844 2670 4047 
Q 2441 4250 2034 4250 
Q 1625 4250 1398 4047 
Q 1172 3844 1172 3481 
z
" id="DejaVuSans-38" transform="scale(0.015625)"/>
       </defs>
       <use xlink:href="#DejaVuSans-38"/>
       <use x="63.623047" xlink:href="#DejaVuSans-2e"/>
       <use x="95.410156" xlink:href="#DejaVuSans-30"/>
      </g>
     </g>
    </g>
    <g id="xtick_9">
     <g id="text_9">
      <!-- 9.0 -->
      <g transform="translate(540.680814 367.81465)scale(0.08 -0.08)">
       <defs>
        <path d="M 703 97 
L 703 672 
Q 941 559 1184 500 
Q 1428 441 1663 441 
Q 2288 441 2617 861 
Q 2947 1281 2994 2138 
Q 2813 1869 2534 1725 
Q 2256 1581 1919 1581 
Q 1219 1581 811 2004 
Q 403 2428 403 3163 
Q 403 3881 828 4315 
Q 1253 4750 1959 4750 
Q 2769 4750 3195 4129 
Q 3622 3509 3622 2328 
Q 3622 1225 3098 567 
Q 2575 -91 1691 -91 
Q 1453 -91 1209 -44 
Q 966 3 703 97 
z
M 1959 2075 
Q 2384 2075 2632 2365 
Q 2881 2656 2881 3163 
Q 2881 3666 2632 3958 
Q 2384 4250 1959 4250 
Q 1534 4250 1286 3958 
Q 1038 3666 1038 3163 
Q 1038 2656 1286 2365 
Q 1534 2075 1959 2075 
z
" id="DejaVuSans-39" transform="scale(0.015625)"/>
       </defs>
       <use xlink:href="#DejaVuSans-39"/>
       <use x="63.623047" xlink:href="#DejaVuSans-2e"/>
       <use x="95.410156" xlink:href="#DejaVuSans-30"/>
      </g>
     </g>
    </g>
    <g id="xtick_10">
     <g id="text_10">
      <!-- &gt;10 -->
      <g transform="translate(596.188068 367.81465)scale(0.08 -0.08)">
       <defs>
        <path d="M 678 3150 
L 678 3719 
L 4684 2266 
L 4684 1747 
L 678 294 
L 678 863 
L 3897 2003 
L 678 3150 
z
" id="DejaVuSans-3e" transform="scale(0.015625)"/>
       </defs>
       <use xlink:href="#DejaVuSans-3e"/>
       <use x="83.789062" xlink:href="#DejaVuSans-31"/>
       <use x="147.412109" xlink:href="#DejaVuSans-30"/>
      </g>
     </g>
    </g>
    <g id="xtick_11">
     <g id="text_11">
      <!-- &gt;50 -->
      <g transform="translate(653.775947 367.81465)scale(0.08 -0.08)">
       <use xlink:href="#DejaVuSans-3e"/>
       <use x="83.789062" xlink:href="#DejaVuSans-35"/>
       <use x="147.412109" xlink:href="#DejaVuSans-30"/>
      </g>
     </g>
    </g>
    <g id="xtick_12">
     <g id="text_12">
      <!-- &gt;100 -->
      <g transform="translate(708.818826 367.81465)scale(0.08 -0.08)">
       <use xlink:href="#DejaVuSans-3e"/>
       <use x="83.789062" xlink:href="#DejaVuSans-31"/>
       <use x="147.412109" xlink:href="#DejaVuSans-30"/>
       <use x="211.035156" xlink:href="#DejaVuSans-30"/>
      </g>
     </g>
    </g>
    <g id="xtick_13">
     <g id="text_13">
      <!-- &gt;500 -->
      <g transform="translate(766.406705 367.81465)scale(0.08 -0.08)">
       <use xlink:href="#DejaVuSans-3e"/>
       <use x="83.789062" xlink:href="#DejaVuSans-35"/>
       <use x="147.412109" xlink:href="#DejaVuSans-30"/>
       <use x="211.035156" xlink:href="#DejaVuSans-30"/>
      </g>
     </g>
    </g>
    <g id="xtick_14">
     <g id="text_14">
      <!-- &gt;1k -->
      <g transform="translate(826.768333 367.81465)scale(0.08 -0.08)">
       <defs>
        <path d="M 581 4863 
L 1159 4863 
L 1159 1991 
L 2875 3500 
L 3609 3500 
L 1753 1863 
L 3688 0 
L 2938 0 
L 1159 1709 
L 1159 0 
L 581 0 
L 581 4863 
z
" id="DejaVuSans-6b" transform="scale(0.015625)"/>
       </defs>
       <use xlink:href="#DejaVuSans-3e"/>
       <use x="83.789062" xlink:href="#DejaVuSans-31"/>
       <use x="147.412109" xlink:href="#DejaVuSans-6b"/>
      </g>
     </g>
    </g>
    <g id="xtick_15">
     <g id="text_15">
      <!-- &gt;5k -->
      <g transform="translate(884.356212 367.81465)scale(0.08 -0.08)">
       <use xlink:href="#DejaVuSans-3e"/>
       <use x="83.789062" xlink:href="#DejaVuSans-35"/>
       <use x="147.412109" xlink:href="#DejaVuSans-6b"/>
      </g>
     </g>
    </g>
    <g id="xtick_16">
     <g id="text_16">
      <!-- &gt;10k+ -->
      <g transform="translate(936.047216 367.81465)scale(0.08 -0.08)">
       <defs>
        <path d="M 2944 4013 
L 2944 2272 
L 4684 2272 
L 4684 1741 
L 2944 1741 
L 2944 0 
L 2419 0 
L 2419 1741 
L 678 1741 
L 678 2272 
L 2419 2272 
L 2419 4013 
L 2944 4013 
z
" id="DejaVuSans-2b" transform="scale(0.015625)"/>
       </defs>
       <use xlink:href="#DejaVuSans-3e"/>
       <use x="83.789062" xlink:href="#DejaVuSans-31"/>
       <use x="147.412109" xlink:href="#DejaVuSans-30"/>
       <use x="211.035156" xlink:href="#DejaVuSans-6b"/>
       <use x="268.945312" xlink:href="#DejaVuSans-2b"/>
      </g>
     </g>
    </g>
    <g id="text_17">
     <!-- Sequence Duplication Level -->
     <g transform="translate(448.843438 381.076838)scale(0.1 -0.1)">
      <defs>
       <path d="M 3425 4513 
L 3425 3897 
Q 3066 4069 2747 4153 
Q 2428 4238 2131 4238 
Q 1616 4238 1336 4038 
Q 1056 3838 1056 3469 
Q 1056 3159 1242 3001 
Q 1428 2844 1947 2747 
L 2328 2669 
Q 3034 2534 3370 2195 
Q 3706 1856 3706 1288 
Q 3706 609 3251 259 
Q 2797 -91 1919 -91 
Q 1588 -91 1214 -16 
Q 841 59 441 206 
L 441 856 
Q 825 641 1194 531 
Q 1563 422 1919 422 
Q 2459 422 2753 634 
Q 3047 847 3047 1241 
Q 3047 1584 2836 1778 
Q 2625 1972 2144 2069 
L 1759 2144 
Q 1053 2284 737 2584 
Q 422 2884 422 3419 
Q 422 4038 858 4394 
Q 1294 4750 2059 4750 
Q 2388 4750 2728 4690 
Q 3069 4631 3425 4513 
z
" id="DejaVuSans-53" transform="scale(0.015625)"/>
       <path d="M 3597 1894 
L 3597 1613 
L 953 1613 
Q 991 1019 1311 708 
Q 1631 397 2203 397 
Q 2534 397 2845 478 
Q 3156 559 3463 722 
L 3463 178 
Q 3153 47 2828 -22 
Q 2503 -91 2169 -91 
Q 1331 -91 842 396 
Q 353 884 353 1716 
Q 353 2575 817 3079 
Q 1281 3584 2069 3584 
Q 2775 3584 3186 3129 
Q 3597 2675 3597 1894 
z
M 3022 2063 
Q 3016 2534 2758 2815 
Q 2500 3097 2075 3097 
Q 1594 3097 1305 2825 
Q 1016 2553 972 2059 
L 3022 2063 
z
" id="DejaVuSans-65" transform="scale(0.015625)"/>
       <path d="M 947 1747 
Q 947 1113 1208 752 
Q 1469 391 1925 391 
Q 2381 391 2643 752 
Q 2906 1113 2906 1747 
Q 2906 2381 2643 2742 
Q 2381 3103 1925 3103 
Q 1469 3103 1208 2742 
Q 947 2381 947 1747 
z
M 2906 525 
Q 2725 213 2448 61 
Q 2172 -91 1784 -91 
Q 1150 -91 751 415 
Q 353 922 353 1747 
Q 353 2572 751 3078 
Q 1150 3584 1784 3584 
Q 2172 3584 2448 3432 
Q 2725 3281 2906 2969 
L 2906 3500 
L 3481 3500 
L 3481 -1331 
L 2906 -1331 
L 2906 525 
z
" id="DejaVuSans-71" transform="scale(0.015625)"/>
       <path d="M 544 1381 
L 544 3500 
L 1119 3500 
L 1119 1403 
Q 1119 906 1312 657 
Q 1506 409 1894 409 
Q 2359 409 2629 706 
Q 2900 1003 2900 1516 
L 2900 3500 
L 3475 3500 
L 3475 0 
L 2900 0 
L 2900 538 
Q 2691 219 2414 64 
Q 2138 -91 1772 -91 
Q 1169 -91 856 284 
Q 544 659 544 1381 
z
M 1991 3584 
L 1991 3584 
z
" id="DejaVuSans-75" transform="scale(0.015625)"/>
       <path d="M 3513 2113 
L 3513 0 
L 2938 0 
L 2938 2094 
Q 2938 2591 2744 2837 
Q 2550 3084 2163 3084 
Q 1697 3084 1428 2787 
Q 1159 2491 1159 1978 
L 1159 0 
L 581 0 
L 581 3500 
L 1159 3500 
L 1159 2956 
Q 1366 3272 1645 3428 
Q 1925 3584 2291 3584 
Q 2894 3584 3203 3211 
Q 3513 2838 3513 2113 
z
" id="DejaVuSans-6e" transform="scale(0.015625)"/>
       <path d="M 3122 3366 
L 3122 2828 
Q 2878 2963 2633 3030 
Q 2388 3097 2138 3097 
Q 1578 3097 1268 2742 
Q 959 2388 959 1747 
Q 959 1106 1268 751 
Q 1578 397 2138 397 
Q 2388 397 2633 464 
Q 2878 531 3122 666 
L 3122 134 
Q 2881 22 2623 -34 
Q 2366 -91 2075 -91 
Q 1284 -91 818 406 
Q 353 903 353 1747 
Q 353 2603 823 3093 
Q 1294 3584 2113 3584 
Q 2378 3584 2631 3529 
Q 2884 3475 3122 3366 
z
" id="DejaVuSans-63" transform="scale(0.015625)"/>
       <path id="DejaVuSans-20" transform="scale(0.015625)"/>
       <path d="M 1259 4147 
L 1259 519 
L 2022 519 
Q 2988 519 3436 956 
Q 3884 1394 3884 2338 
Q 3884 3275 3436 3711 
Q 2988 4147 2022 4147 
L 1259 4147 
z
M 628 4666 
L 1925 4666 
Q 3281 4666 3915 4102 
Q 4550 3538 4550 2338 
Q 4550 1131 3912 565 
Q 3275 0 1925 0 
L 628 0 
L 628 4666 
z
" id="DejaVuSans-44" transform="scale(0.015625)"/>
       <path d="M 1159 525 
L 1159 -1331 
L 581 -1331 
L 581 3500 
L 1159 3500 
L 1159 2969 
Q 1341 3281 1617 3432 
Q 1894 3584 2278 3584 
Q 2916 3584 3314 3078 
Q 3713 2572 3713 1747 
Q 3713 922 3314 415 
Q 2916 -91 2278 -91 
Q 1894 -91 1617 61 
Q 1341 213 1159 525 
z
M 3116 1747 
Q 3116 2381 2855 2742 
Q 2594 3103 2138 3103 
Q 1681 3103 1420 2742 
Q 1159 2381 1159 1747 
Q 1159 1113 1420 752 
Q 1681 391 2138 391 
Q 2594 391 2855 752 
Q 3116 1113 3116 1747 
z
" id="DejaVuSans-70" transform="scale(0.015625)"/>
       <path d="M 603 4863 
L 1178 4863 
L 1178 0 
L 603 0 
L 603 4863 
z
" id="DejaVuSans-6c" transform="scale(0.015625)"/>
       <path d="M 603 3500 
L 1178 3500 
L 1178 0 
L 603 0 
L 603 3500 
z
M 603 4863 
L 1178 4863 
L 1178 4134 
L 603 4134 
L 603 4863 
z
" id="DejaVuSans-69" transform="scale(0.015625)"/>
       <path d="M 2194 1759 
Q 1497 1759 1228 1600 
Q 959 1441 959 1056 
Q 959 750 1161 570 
Q 1363 391 1709 391 
Q 2188 391 2477 730 
Q 2766 1069 2766 1631 
L 2766 1759 
L 2194 1759 
z
M 3341 1997 
L 3341 0 
L 2766 0 
L 2766 531 
Q 2569 213 2275 61 
Q 1981 -91 1556 -91 
Q 1019 -91 701 211 
Q 384 513 384 1019 
Q 384 1609 779 1909 
Q 1175 2209 1959 2209 
L 2766 2209 
L 2766 2266 
Q 2766 2663 2505 2880 
Q 2244 3097 1772 3097 
Q 1472 3097 1187 3025 
Q 903 2953 641 2809 
L 641 3341 
Q 956 3463 1253 3523 
Q 1550 3584 1831 3584 
Q 2591 3584 2966 3190 
Q 3341 2797 3341 1997 
z
" id="DejaVuSans-61" transform="scale(0.015625)"/>
       <path d="M 1172 4494 
L 1172 3500 
L 2356 3500 
L 2356 3053 
L 1172 3053 
L 1172 1153 
Q 1172 725 1289 603 
Q 1406 481 1766 481 
L 2356 481 
L 2356 0 
L 1766 0 
Q 1100 0 847 248 
Q 594 497 594 1153 
L 594 3053 
L 172 3053 
L 172 3500 
L 594 3500 
L 594 4494 
L 1172 4494 
z
" id="DejaVuSans-74" transform="scale(0.015625)"/>
       <path d="M 1959 3097 
Q 1497 3097 1228 2736 
Q 959 2375 959 1747 
Q 959 1119 1226 758 
Q 1494 397 1959 397 
Q 2419 397 2687 759 
Q 2956 1122 2956 1747 
Q 2956 2369 2687 2733 
Q 2419 3097 1959 3097 
z
M 1959 3584 
Q 2709 3584 3137 3096 
Q 3566 2609 3566 1747 
Q 3566 888 3137 398 
Q 2709 -91 1959 -91 
Q 1206 -91 779 398 
Q 353 888 353 1747 
Q 353 2609 779 3096 
Q 1206 3584 1959 3584 
z
" id="DejaVuSans-6f" transform="scale(0.015625)"/>
       <path d="M 628 4666 
L 1259 4666 
L 1259 531 
L 3531 531 
L 3531 0 
L 628 0 
L 628 4666 
z
" id="DejaVuSans-4c" transform="scale(0.015625)"/>
       <path d="M 191 3500 
L 800 3500 
L 1894 563 
L 2988 3500 
L 3597 3500 
L 2284 0 
L 1503 0 
L 191 3500 
z
" id="DejaVuSans-76" transform="scale(0.015625)"/>
      </defs>
      <use xlink:href="#DejaVuSans-53"/>
      <use x="63.476562" xlink:href="#DejaVuSans-65"/>
      <use x="125" xlink:href="#DejaVuSans-71"/>
      <use x="188.476562" xlink:href="#DejaVuSans-75"/>
      <use x="251.855469" xlink:href="#DejaVuSans-65"/>
      <use x="313.378906" xlink:href="#DejaVuSans-6e"/>
      <use x="376.757812" xlink:href="#DejaVuSans-63"/>
      <use x="431.738281" xlink:href="#DejaVuSans-65"/>
      <use x="493.261719" xlink:href="#DejaVuSans-20"/>
      <use x="525.048828" xlink:href="#DejaVuSans-44"/>
      <use x="602.050781" xlink:href="#DejaVuSans-75"/>
      <use x="665.429688" xlink:href="#DejaVuSans-70"/>
      <use x="728.90625" xlink:href="#DejaVuSans-6c"/>
      <use x="756.689453" xlink:href="#DejaVuSans-69"/>
      <use x="784.472656" xlink:href="#DejaVuSans-63"/>
      <use x="839.453125" xlink:href="#DejaVuSans-61"/>
      <use x="900.732422" xlink:href="#DejaVuSans-74"/>
      <use x="939.941406" xlink:href="#DejaVuSans-69"/>
      <use x="967.724609" xlink:href="#DejaVuSans-6f"/>
      <use x="1028.90625" xlink:href="#DejaVuSans-6e"/>
      <use x="1092.285156" xlink:href="#DejaVuSans-20"/>
      <use x="1124.072266" xlink:href="#DejaVuSans-4c"/>
      <use x="1178.035156" xlink:href="#DejaVuSans-65"/>
      <use x="1239.558594" xlink:href="#DejaVuSans-76"/>
      <use x="1298.738281" xlink:href="#DejaVuSans-65"/>
      <use x="1360.261719" xlink:href="#DejaVuSans-6c"/>
     </g>
    </g>
   </g>
   <g id="matplotlib.axis_2">
    <g id="ytick_1">
     <g id="line2d_1">
      <path clip-path="url(#p709c5cb3c9)" d="M 43.148125 354.7359 
L 993.348125 354.7359 
" style="fill:none;stroke:#dedede;stroke-linecap:square;"/>
     </g>
     <g id="text_18">
      <!-- 0 -->
      <g transform="translate(31.058125 357.775275)scale(0.08 -0.08)">
       <use xlink:href="#DejaVuSans-30"/>
      </g>
     </g>
    </g>
    <g id="ytick_2">
     <g id="line2d_2">
      <path clip-path="url(#p709c5cb3c9)" d="M 43.148125 290.8543 
L 993.348125 290.8543 
" style="fill:none;stroke:#dedede;stroke-linecap:square;"/>
     </g>
     <g id="text_19">
      <!-- 20 -->
      <g transform="translate(25.968125 293.893675)scale(0.08 -0.08)">
       <use xlink:href="#DejaVuSans-32"/>
       <use x="63.623047" xlink:href="#DejaVuSans-30"/>
      </g>
     </g>
    </g>
    <g id="ytick_3">
     <g id="line2d_3">
      <path clip-path="url(#p709c5cb3c9)" d="M 43.148125 226.9727 
L 993.348125 226.9727 
" style="fill:none;stroke:#dedede;stroke-linecap:square;"/>
     </g>
     <g id="text_20">
      <!-- 40 -->
      <g transform="translate(25.968125 230.012075)scale(0.08 -0.08)">
       <use xlink:href="#DejaVuSans-34"/>
       <use x="63.623047" xlink:href="#DejaVuSans-30"/>
      </g>
     </g>
    </g>
    <g id="ytick_4">
     <g id="line2d_4">
      <path clip-path="url(#p709c5cb3c9)" d="M 43.148125 163.0911 
L 993.348125 163.0911 
" style="fill:none;stroke:#dedede;stroke-linecap:square;"/>
     </g>
     <g id="text_21">
      <!-- 60 -->
      <g transform="translate(25.968125 166.130475)scale(0.08 -0.08)">
       <use xlink:href="#DejaVuSans-36"/>
       <use x="63.623047" xlink:href="#DejaVuSans-30"/>
      </g>
     </g>
    </g>
    <g id="ytick_5">
     <g id="line2d_5">
      <path clip-path="url(#p709c5cb3c9)" d="M 43.148125 99.2095 
L 993.348125 99.2095 
" style="fill:none;stroke:#dedede;stroke-linecap:square;"/>
     </g>
     <g id="text_22">
      <!-- 80 -->
      <g transform="translate(25.968125 102.248875)scale(0.08 -0.08)">
       <use xlink:href="#DejaVuSans-38"/>
       <use x="63.623047" xlink:href="#DejaVuSans-30"/>
      </g>
     </g>
    </g>
    <g id="ytick_6">
     <g id="line2d_6">
      <path clip-path="url(#p709c5cb3c9)" d="M 43.148125 35.3279 
L 993.348125 35.3279 
" style="fill:none;stroke:#dedede;stroke-linecap:square;"/>
     </g>
     <g id="text_23">
      <!-- 100 -->
      <g transform="translate(20.878125 38.367275)scale(0.08 -0.08)">
       <use xlink:href="#DejaVuSans-31"/>
       <use x="63.623047" xlink:href="#DejaVuSans-30"/>
       <use x="127.246094" xlink:href="#DejaVuSans-30"/>
      </g>
     </g>
    </g>
    <g id="text_24">
     <!-- % of Library -->
     <g transform="translate(14.798437 225.263931)rotate(-90)scale(0.1 -0.1)">
      <defs>
       <path d="M 4653 2053 
Q 4381 2053 4226 1822 
Q 4072 1591 4072 1178 
Q 4072 772 4226 539 
Q 4381 306 4653 306 
Q 4919 306 5073 539 
Q 5228 772 5228 1178 
Q 5228 1588 5073 1820 
Q 4919 2053 4653 2053 
z
M 4653 2450 
Q 5147 2450 5437 2106 
Q 5728 1763 5728 1178 
Q 5728 594 5436 251 
Q 5144 -91 4653 -91 
Q 4153 -91 3862 251 
Q 3572 594 3572 1178 
Q 3572 1766 3864 2108 
Q 4156 2450 4653 2450 
z
M 1428 4353 
Q 1159 4353 1004 4120 
Q 850 3888 850 3481 
Q 850 3069 1003 2837 
Q 1156 2606 1428 2606 
Q 1700 2606 1854 2837 
Q 2009 3069 2009 3481 
Q 2009 3884 1853 4118 
Q 1697 4353 1428 4353 
z
M 4250 4750 
L 4750 4750 
L 1831 -91 
L 1331 -91 
L 4250 4750 
z
M 1428 4750 
Q 1922 4750 2215 4408 
Q 2509 4066 2509 3481 
Q 2509 2891 2217 2550 
Q 1925 2209 1428 2209 
Q 931 2209 642 2551 
Q 353 2894 353 3481 
Q 353 4063 643 4406 
Q 934 4750 1428 4750 
z
" id="DejaVuSans-25" transform="scale(0.015625)"/>
       <path d="M 2375 4863 
L 2375 4384 
L 1825 4384 
Q 1516 4384 1395 4259 
Q 1275 4134 1275 3809 
L 1275 3500 
L 2222 3500 
L 2222 3053 
L 1275 3053 
L 1275 0 
L 697 0 
L 697 3053 
L 147 3053 
L 147 3500 
L 697 3500 
L 697 3744 
Q 697 4328 969 4595 
Q 1241 4863 1831 4863 
L 2375 4863 
z
" id="DejaVuSans-66" transform="scale(0.015625)"/>
       <path d="M 3116 1747 
Q 3116 2381 2855 2742 
Q 2594 3103 2138 3103 
Q 1681 3103 1420 2742 
Q 1159 2381 1159 1747 
Q 1159 1113 1420 752 
Q 1681 391 2138 391 
Q 2594 391 2855 752 
Q 3116 1113 3116 1747 
z
M 1159 2969 
Q 1341 3281 1617 3432 
Q 1894 3584 2278 3584 
Q 2916 3584 3314 3078 
Q 3713 2572 3713 1747 
Q 3713 922 3314 415 
Q 2916 -91 2278 -91 
Q 1894 -91 1617 61 
Q 1341 213 1159 525 
L 1159 0 
L 581 0 
L 581 4863 
L 1159 4863 
L 1159 2969 
z
" id="DejaVuSans-62" transform="scale(0.015625)"/>
       <path d="M 2631 2963 
Q 2534 3019 2420 3045 
Q 2306 3072 2169 3072 
Q 1681 3072 1420 2755 
Q 1159 2438 1159 1844 
L 1159 0 
L 581 0 
L 581 3500 
L 1159 3500 
L 1159 2956 
Q 1341 3275 1631 3429 
Q 1922 3584 2338 3584 
Q 2397 3584 2469 3576 
Q 2541 3569 2628 3553 
L 2631 2963 
z
" id="DejaVuSans-72" transform="scale(0.015625)"/>
       <path d="M 2059 -325 
Q 1816 -950 1584 -1140 
Q 1353 -1331 966 -1331 
L 506 -1331 
L 506 -850 
L 844 -850 
Q 1081 -850 1212 -737 
Q 1344 -625 1503 -206 
L 1606 56 
L 191 3500 
L 800 3500 
L 1894 763 
L 2988 3500 
L 3597 3500 
L 2059 -325 
z
" id="DejaVuSans-79" transform="scale(0.015625)"/>
      </defs>
      <use xlink:href="#DejaVuSans-25"/>
      <use x="95.019531" xlink:href="#DejaVuSans-20"/>
      <use x="126.806641" xlink:href="#DejaVuSans-6f"/>
      <use x="187.988281" xlink:href="#DejaVuSans-66"/>
      <use x="223.193359" xlink:href="#DejaVuSans-20"/>
      <use x="254.980469" xlink:href="#DejaVuSans-4c"/>
      <use x="310.693359" xlink:href="#DejaVuSans-69"/>
      <use x="338.476562" xlink:href="#DejaVuSans-62"/>
      <use x="401.953125" xlink:href="#DejaVuSans-72"/>
      <use x="443.066406" xlink:href="#DejaVuSans-61"/>
      <use x="504.345703" xlink:href="#DejaVuSans-72"/>
      <use x="545.458984" xlink:href="#DejaVuSans-79"/>
     </g>
    </g>
   </g>
   <g id="line2d_7">
    <path clip-path="url(#p709c5cb3c9)" d="M 86.339034 113.640549 
L 143.926913 327.478616 
L 201.514792 323.089615 
L 259.10267 347.947464 
L 316.690549 348.36773 
L 374.278428 352.749392 
L 431.866307 353.374233 
L 489.454186 354.029903 
L 547.042064 354.199986 
L 604.629943 353.112954 
L 662.217822 354.72165 
L 719.805701 354.724988 
L 777.39358 354.7359 
L 834.981458 354.721618 
L 892.569337 354.7359 
L 950.157216 354.7359 
" style="fill:none;stroke:#5cb85c;stroke-linecap:square;"/>
   </g>
   <g id="line2d_8">
    <path clip-path="url(#p709c5cb3c9)" d="M 86.339034 112.712567 
L 143.926913 327.705584 
L 201.514792 323.37452 
L 259.10267 347.941065 
L 316.690549 348.695134 
L 374.278428 352.823325 
L 431.866307 353.338824 
L 489.454186 354.094378 
L 547.042064 354.23227 
L 604.629943 353.074549 
L 662.217822 354.729014 
L 719.805701 354.725324 
L 777.39358 354.729777 
L 834.981458 354.718268 
L 892.569337 354.7359 
L 950.157216 354.7359 
" style="fill:none;stroke:#5cb85c;stroke-linecap:square;"/>
   </g>
   <g id="line2d_9">
    <path clip-path="url(#p709c5cb3c9)" d="M 86.339034 184.369801 
L 143.926913 325.110325 
L 201.514792 304.242209 
L 259.10267 337.149987 
L 316.690549 334.469735 
L 374.278428 346.303931 
L 431.866307 347.021749 
L 489.454186 350.981342 
L 547.042064 351.997488 
L 604.629943 346.629107 
L 662.217822 354.433694 
L 719.805701 354.713431 
L 777.39358 354.7359 
L 834.981458 354.7359 
L 892.569337 354.7359 
L 950.157216 354.7359 
" style="fill:none;stroke:#f0ad4e;stroke-linecap:square;"/>
   </g>
   <g id="line2d_10">
    <path clip-path="url(#p709c5cb3c9)" d="M 86.339034 182.595286 
L 143.926913 325.411933 
L 201.514792 303.616436 
L 259.10267 337.504266 
L 316.690549 335.160817 
L 374.278428 346.582653 
L 431.866307 347.275187 
L 489.454186 351.338287 
L 547.042064 351.804041 
L 604.629943 346.930813 
L 662.217822 354.474585 
L 719.805701 354.728496 
L 777.39358 354.7359 
L 834.981458 354.7359 
L 892.569337 354.7359 
L 950.157216 354.7359 
" style="fill:none;stroke:#f0ad4e;stroke-linecap:square;"/>
   </g>
   <g id="line2d_11">
    <path clip-path="url(#p709c5cb3c9)" d="M 86.339034 150.870895 
L 143.926913 326.926922 
L 201.514792 310.974167 
L 259.10267 342.952846 
L 316.690549 341.874195 
L 374.278428 349.893555 
L 431.866307 350.212072 
L 489.454186 352.609517 
L 547.042064 353.015942 
L 604.629943 348.912852 
L 662.217822 354.511177 
L 719.805701 354.668659 
L 777.39358 354.7359 
L 834.981458 354.7359 
L 892.569337 354.7359 
L 950.157216 354.7359 
" style="fill:none;stroke:#5cb85c;stroke-linecap:square;"/>
   </g>
   <g id="line2d_12">
    <path clip-path="url(#p709c5cb3c9)" d="M 86.339034 148.267455 
L 143.926913 326.659586 
L 201.514792 311.280727 
L 259.10267 343.223995 
L 316.690549 342.414839 
L 374.278428 350.15311 
L 431.866307 350.838282 
L 489.454186 352.783073 
L 547.042064 353.160756 
L 604.629943 349.434084 
L 662.217822 354.508634 
L 719.805701 354.698257 
L 777.39358 354.7359 
L 834.981458 354.7359 
L 892.569337 354.7359 
L 950.157216 354.7359 
" style="fill:none;stroke:#5cb85c;stroke-linecap:square;"/>
   </g>
   <g id="line2d_13">
    <path clip-path="url(#p709c5cb3c9)" d="M 86.339034 141.747465 
L 143.926913 324.628959 
L 201.514792 314.200458 
L 259.10267 343.989475 
L 316.690549 344.77935 
L 374.278428 350.666043 
L 431.866307 351.464462 
L 489.454186 352.880425 
L 547.042064 353.339098 
L 604.629943 350.31161 
L 662.217822 354.715079 
L 719.805701 354.728003 
L 777.39358 354.7359 
L 834.981458 354.708272 
L 892.569337 354.7359 
L 950.157216 354.7359 
" style="fill:none;stroke:#5cb85c;stroke-linecap:square;"/>
   </g>
   <g id="line2d_14">
    <path clip-path="url(#p709c5cb3c9)" d="M 86.339034 141.626711 
L 143.926913 323.913555 
L 201.514792 314.843438 
L 259.10267 344.079178 
L 316.690549 344.805024 
L 374.278428 350.666047 
L 431.866307 351.387263 
L 489.454186 352.861099 
L 547.042064 353.29071 
L 604.629943 350.527007 
L 662.217822 354.718539 
L 719.805701 354.7359 
L 777.39358 354.7359 
L 834.981458 354.704228 
L 892.569337 354.7359 
L 950.157216 354.7359 
" style="fill:none;stroke:#5cb85c;stroke-linecap:square;"/>
   </g>
   <g id="line2d_15">
    <path clip-path="url(#p709c5cb3c9)" d="M 86.339034 131.946223 
L 143.926913 324.915048 
L 201.514792 316.718948 
L 259.10267 344.471292 
L 316.690549 345.724339 
L 374.278428 351.590839 
L 431.866307 352.432564 
L 489.454186 353.811364 
L 547.042064 353.993963 
L 604.629943 352.413497 
L 662.217822 354.701297 
L 719.805701 354.720073 
L 777.39358 354.719254 
L 834.981458 354.7359 
L 892.569337 354.7359 
L 950.157216 354.7359 
" style="fill:none;stroke:#5cb85c;stroke-linecap:square;"/>
   </g>
   <g id="line2d_16">
    <path clip-path="url(#p709c5cb3c9)" d="M 86.339034 130.018392 
L 143.926913 325.354999 
L 201.514792 316.8713 
L 259.10267 345.01881 
L 316.690549 346.1347 
L 374.278428 351.757794 
L 431.866307 352.564389 
L 489.454186 353.875764 
L 547.042064 354.04878 
L 604.629943 352.348817 
L 662.217822 354.715074 
L 719.805701 354.73127 
L 777.39358 354.718612 
L 834.981458 354.7359 
L 892.569337 354.7359 
L 950.157216 354.7359 
" style="fill:none;stroke:#5cb85c;stroke-linecap:square;"/>
   </g>
   <g id="line2d_17">
    <path clip-path="url(#p709c5cb3c9)" d="M 86.339034 124.00243 
L 143.926913 328.282876 
L 201.514792 318.988357 
L 259.10267 346.566879 
L 316.690549 346.696884 
L 374.278428 351.941215 
L 431.866307 352.439206 
L 489.454186 353.701946 
L 547.042064 353.916642 
L 604.629943 351.515423 
L 662.217822 354.68017 
L 719.805701 354.715408 
L 777.39358 354.7359 
L 834.981458 354.711264 
L 892.569337 354.7359 
L 950.157216 354.7359 
" style="fill:none;stroke:#5cb85c;stroke-linecap:square;"/>
   </g>
   <g id="line2d_18">
    <path clip-path="url(#p709c5cb3c9)" d="M 86.339034 122.90542 
L 143.926913 328.052555 
L 201.514792 319.707802 
L 259.10267 346.650091 
L 316.690549 346.629442 
L 374.278428 352.063258 
L 431.866307 352.574287 
L 489.454186 353.689054 
L 547.042064 353.990821 
L 604.629943 351.79721 
L 662.217822 354.673276 
L 719.805701 354.728479 
L 777.39358 354.729699 
L 834.981458 354.703207 
L 892.569337 354.7359 
L 950.157216 354.7359 
" style="fill:none;stroke:#5cb85c;stroke-linecap:square;"/>
   </g>
   <g id="line2d_19">
    <path clip-path="url(#p709c5cb3c9)" d="M 86.339034 83.270015 
L 143.926913 335.055089 
L 201.514792 334.69559 
L 259.10267 351.818762 
L 316.690549 351.760259 
L 374.278428 354.060898 
L 431.866307 354.185515 
L 489.454186 354.478063 
L 547.042064 354.542262 
L 604.629943 354.101491 
L 662.217822 354.7359 
L 719.805701 354.718955 
L 777.39358 354.7359 
L 834.981458 354.7359 
L 892.569337 354.7359 
L 950.157216 354.7359 
" style="fill:none;stroke:#5cb85c;stroke-linecap:square;"/>
   </g>
   <g id="line2d_20">
    <path clip-path="url(#p709c5cb3c9)" d="M 86.339034 82.975703 
L 143.926913 335.083818 
L 201.514792 334.669932 
L 259.10267 351.857223 
L 316.690549 351.885441 
L 374.278428 354.141254 
L 431.866307 354.134016 
L 489.454186 354.507069 
L 547.042064 354.564853 
L 604.629943 354.160264 
L 662.217822 354.721809 
L 719.805701 354.721419 
L 777.39358 354.7359 
L 834.981458 354.7359 
L 892.569337 354.7359 
L 950.157216 354.7359 
" style="fill:none;stroke:#5cb85c;stroke-linecap:square;"/>
   </g>
   <g id="line2d_21">
    <path clip-path="url(#p709c5cb3c9)" d="M 86.339034 167.904688 
L 143.926913 328.077387 
L 201.514792 316.202264 
L 259.10267 340.826247 
L 316.690549 340.454877 
L 374.278428 348.008547 
L 431.866307 348.952432 
L 489.454186 351.583044 
L 547.042064 352.273845 
L 604.629943 334.922722 
L 662.217822 353.676656 
L 719.805701 354.618051 
L 777.39358 354.7359 
L 834.981458 354.703422 
L 892.569337 354.690417 
L 950.157216 354.7359 
" style="fill:none;stroke:#f0ad4e;stroke-linecap:square;"/>
   </g>
   <g id="line2d_22">
    <path clip-path="url(#p709c5cb3c9)" d="M 86.339034 167.452516 
L 143.926913 327.08515 
L 201.514792 316.587071 
L 259.10267 340.876871 
L 316.690549 340.51515 
L 374.278428 348.287136 
L 431.866307 349.183296 
L 489.454186 351.79826 
L 547.042064 352.267308 
L 604.629943 335.059204 
L 662.217822 353.786345 
L 719.805701 354.619875 
L 777.39358 354.7359 
L 834.981458 354.702574 
L 892.569337 354.673845 
L 950.157216 354.7359 
" style="fill:none;stroke:#5cb85c;stroke-linecap:square;"/>
   </g>
   <g id="line2d_23">
    <path clip-path="url(#p709c5cb3c9)" d="M 86.339034 141.445398 
L 143.926913 327.940379 
L 201.514792 310.535016 
L 259.10267 344.835355 
L 316.690549 343.296485 
L 374.278428 351.230313 
L 431.866307 351.171155 
L 489.454186 353.393779 
L 547.042064 353.607971 
L 604.629943 350.981843 
L 662.217822 354.363561 
L 719.805701 354.621544 
L 777.39358 354.7359 
L 834.981458 354.7359 
L 892.569337 354.7359 
L 950.157216 354.7359 
" style="fill:none;stroke:#5cb85c;stroke-linecap:square;"/>
   </g>
   <g id="line2d_24">
    <path clip-path="url(#p709c5cb3c9)" d="M 86.339034 136.95673 
L 143.926913 328.340767 
L 201.514792 311.989987 
L 259.10267 345.423816 
L 316.690549 343.725277 
L 374.278428 351.596047 
L 431.866307 351.710946 
L 489.454186 353.461274 
L 547.042064 353.704575 
L 604.629943 351.447641 
L 662.217822 354.436427 
L 719.805701 354.636376 
L 777.39358 354.728837 
L 834.981458 354.7359 
L 892.569337 354.7359 
L 950.157216 354.7359 
" style="fill:none;stroke:#5cb85c;stroke-linecap:square;"/>
   </g>
   <g id="line2d_25">
    <path clip-path="url(#p709c5cb3c9)" d="M 86.339034 89.548307 
L 143.926913 328.761458 
L 201.514792 338.010312 
L 259.10267 350.506507 
L 316.690549 351.974137 
L 374.278428 353.549124 
L 431.866307 353.937082 
L 489.454186 354.226209 
L 547.042064 354.344979 
L 604.629943 353.173961 
L 662.217822 354.707468 
L 719.805701 354.697678 
L 777.39358 354.721479 
L 834.981458 354.7359 
L 892.569337 354.7359 
L 950.157216 354.7359 
" style="fill:none;stroke:#5cb85c;stroke-linecap:square;"/>
   </g>
   <g id="line2d_26">
    <path clip-path="url(#p709c5cb3c9)" d="M 86.339034 89.031723 
L 143.926913 328.97889 
L 201.514792 338.311297 
L 259.10267 350.43597 
L 316.690549 351.951661 
L 374.278428 353.584504 
L 431.866307 353.86622 
L 489.454186 354.297179 
L 547.042064 354.403133 
L 604.629943 353.184722 
L 662.217822 354.689964 
L 719.805701 354.703519 
L 777.39358 354.719918 
L 834.981458 354.7359 
L 892.569337 354.7359 
L 950.157216 354.7359 
" style="fill:none;stroke:#5cb85c;stroke-linecap:square;"/>
   </g>
   <g id="line2d_27">
    <path clip-path="url(#p709c5cb3c9)" d="M 86.339034 92.304756 
L 143.926913 332.035669 
L 201.514792 333.078372 
L 259.10267 350.449403 
L 316.690549 350.841312 
L 374.278428 353.462616 
L 431.866307 353.776333 
L 489.454186 354.258646 
L 547.042064 354.412964 
L 604.629943 353.346818 
L 662.217822 354.732436 
L 719.805701 354.723475 
L 777.39358 354.7359 
L 834.981458 354.7359 
L 892.569337 354.7359 
L 950.157216 354.7359 
" style="fill:none;stroke:#5cb85c;stroke-linecap:square;"/>
   </g>
   <g id="line2d_28">
    <path clip-path="url(#p709c5cb3c9)" d="M 86.339034 92.368135 
L 143.926913 332.064672 
L 201.514792 333.001758 
L 259.10267 350.250673 
L 316.690549 350.770715 
L 374.278428 353.452982 
L 431.866307 353.866502 
L 489.454186 354.336042 
L 547.042064 354.458178 
L 604.629943 353.411949 
L 662.217822 354.728704 
L 719.805701 354.712491 
L 777.39358 354.7359 
L 834.981458 354.7359 
L 892.569337 354.7359 
L 950.157216 354.7359 
" style="fill:none;stroke:#5cb85c;stroke-linecap:square;"/>
   </g>
   <g id="line2d_29">
    <path clip-path="url(#p709c5cb3c9)" d="M 86.339034 92.8891 
L 143.926913 334.839748 
L 201.514792 335.068175 
L 259.10267 350.374549 
L 316.690549 350.381345 
L 374.278428 352.962104 
L 431.866307 353.246038 
L 489.454186 353.830435 
L 547.042064 353.925986 
L 604.629943 350.624505 
L 662.217822 354.597148 
L 719.805701 354.691624 
L 777.39358 354.727944 
L 834.981458 354.7359 
L 892.569337 354.7359 
L 950.157216 354.7359 
" style="fill:none;stroke:#5cb85c;stroke-linecap:square;"/>
   </g>
   <g id="line2d_30">
    <path clip-path="url(#p709c5cb3c9)" d="M 86.339034 92.089587 
L 143.926913 334.832505 
L 201.514792 334.955329 
L 259.10267 350.387183 
L 316.690549 350.718116 
L 374.278428 353.013446 
L 431.866307 353.313553 
L 489.454186 353.95285 
L 547.042064 353.980809 
L 604.629943 350.868024 
L 662.217822 354.617432 
L 719.805701 354.708403 
L 777.39358 354.721464 
L 834.981458 354.7359 
L 892.569337 354.7359 
L 950.157216 354.7359 
" style="fill:none;stroke:#5cb85c;stroke-linecap:square;"/>
   </g>
   <g id="line2d_31">
    <path clip-path="url(#p709c5cb3c9)" d="M 86.339034 118.401893 
L 143.926913 322.926877 
L 201.514792 327.232953 
L 259.10267 344.604713 
L 316.690549 348.146612 
L 374.278428 351.982797 
L 431.866307 353.134897 
L 489.454186 353.968009 
L 547.042064 354.228549 
L 604.629943 353.369009 
L 662.217822 354.732221 
L 719.805701 354.701221 
L 777.39358 354.728951 
L 834.981458 354.7359 
L 892.569337 354.7359 
L 950.157216 354.7359 
" style="fill:none;stroke:#5cb85c;stroke-linecap:square;"/>
   </g>
   <g id="line2d_32">
    <path clip-path="url(#p709c5cb3c9)" d="M 86.339034 118.093284 
L 143.926913 322.596535 
L 201.514792 327.039905 
L 259.10267 344.819171 
L 316.690549 348.499622 
L 374.278428 351.998785 
L 431.866307 353.167057 
L 489.454186 353.948624 
L 547.042064 354.260848 
L 604.629943 353.551493 
L 662.217822 354.7359 
L 719.805701 354.724388 
L 777.39358 354.723088 
L 834.981458 354.7359 
L 892.569337 354.7359 
L 950.157216 354.7359 
" style="fill:none;stroke:#5cb85c;stroke-linecap:square;"/>
   </g>
   <g id="line2d_33">
    <path clip-path="url(#p709c5cb3c9)" d="M 86.339034 108.365028 
L 143.926913 317.844793 
L 201.514792 334.599807 
L 259.10267 347.640368 
L 316.690549 351.260088 
L 374.278428 353.228526 
L 431.866307 353.902281 
L 489.454186 354.252419 
L 547.042064 354.44217 
L 604.629943 352.741924 
L 662.217822 354.450602 
L 719.805701 354.722895 
L 777.39358 354.727793 
L 834.981458 354.715905 
L 892.569337 354.7359 
L 950.157216 354.7359 
" style="fill:none;stroke:#5cb85c;stroke-linecap:square;"/>
   </g>
   <g id="line2d_34">
    <path clip-path="url(#p709c5cb3c9)" d="M 86.339034 107.459619 
L 143.926913 318.234805 
L 201.514792 334.571084 
L 259.10267 348.08587 
L 316.690549 351.282569 
L 374.278428 353.312097 
L 431.866307 353.88941 
L 489.454186 354.2911 
L 547.042064 354.380843 
L 604.629943 352.783429 
L 662.217822 354.457258 
L 719.805701 354.703548 
L 777.39358 354.728648 
L 834.981458 354.714321 
L 892.569337 354.7359 
L 950.157216 354.7359 
" style="fill:none;stroke:#5cb85c;stroke-linecap:square;"/>
   </g>
   <g id="line2d_35">
    <path clip-path="url(#p709c5cb3c9)" d="M 86.339034 124.952106 
L 143.926913 305.672633 
L 201.514792 335.836571 
L 259.10267 346.213219 
L 316.690549 350.586187 
L 374.278428 352.086081 
L 431.866307 352.923631 
L 489.454186 353.625528 
L 547.042064 353.941106 
L 604.629943 352.142968 
L 662.217822 354.724747 
L 719.805701 354.726564 
L 777.39358 354.72736 
L 834.981458 354.7359 
L 892.569337 354.7359 
L 950.157216 354.7359 
" style="fill:none;stroke:#5cb85c;stroke-linecap:square;"/>
   </g>
   <g id="line2d_36">
    <path clip-path="url(#p709c5cb3c9)" d="M 86.339034 123.461212 
L 143.926913 307.007399 
L 201.514792 337.199812 
L 259.10267 346.287943 
L 316.690549 350.319658 
L 374.278428 352.218517 
L 431.866307 352.878603 
L 489.454186 353.39259 
L 547.042064 353.873073 
L 604.629943 351.370617 
L 662.217822 354.702899 
L 719.805701 354.720127 
L 777.39358 354.72625 
L 834.981458 354.7359 
L 892.569337 354.7359 
L 950.157216 354.7359 
" style="fill:none;stroke:#5cb85c;stroke-linecap:square;"/>
   </g>
   <g id="line2d_37">
    <path clip-path="url(#p709c5cb3c9)" d="M 86.339034 126.752267 
L 143.926913 316.533982 
L 201.514792 328.709907 
L 259.10267 344.273623 
L 316.690549 348.410773 
L 374.278428 351.483512 
L 431.866307 352.62131 
L 489.454186 353.543283 
L 547.042064 353.844963 
L 604.629943 351.850108 
L 662.217822 354.721734 
L 719.805701 354.723707 
L 777.39358 354.7359 
L 834.981458 354.689532 
L 892.569337 354.7359 
L 950.157216 354.7359 
" style="fill:none;stroke:#5cb85c;stroke-linecap:square;"/>
   </g>
   <g id="line2d_38">
    <path clip-path="url(#p709c5cb3c9)" d="M 86.339034 125.714512 
L 143.926913 316.334664 
L 201.514792 329.320222 
L 259.10267 344.423895 
L 316.690549 348.718651 
L 374.278428 351.425555 
L 431.866307 352.711363 
L 489.454186 353.523903 
L 547.042064 353.819109 
L 604.629943 352.023598 
L 662.217822 354.725481 
L 719.805701 354.727778 
L 777.39358 354.7359 
L 834.981458 354.689968 
L 892.569337 354.7359 
L 950.157216 354.7359 
" style="fill:none;stroke:#5cb85c;stroke-linecap:square;"/>
   </g>
   <g id="line2d_39">
    <path clip-path="url(#p709c5cb3c9)" d="M 86.339034 235.591872 
L 143.926913 331.25175 
L 201.514792 322.954723 
L 259.10267 330.274583 
L 316.690549 330.037955 
L 374.278428 334.929156 
L 431.866307 337.969886 
L 489.454186 342.45687 
L 547.042064 345.12535 
L 604.629943 318.38788 
L 662.217822 353.882997 
L 719.805701 354.568639 
L 777.39358 354.727038 
L 834.981458 354.7359 
L 892.569337 354.7359 
L 950.157216 354.7359 
" style="fill:none;stroke:#f0ad4e;stroke-linecap:square;"/>
   </g>
   <g id="line2d_40">
    <path clip-path="url(#p709c5cb3c9)" d="M 86.339034 234.863307 
L 143.926913 330.628057 
L 201.514792 323.00437 
L 259.10267 330.015876 
L 316.690549 329.261242 
L 374.278428 335.28153 
L 431.866307 338.509059 
L 489.454186 342.317157 
L 547.042064 344.915117 
L 604.629943 320.144589 
L 662.217822 353.902459 
L 719.805701 354.587986 
L 777.39358 354.727953 
L 834.981458 354.7359 
L 892.569337 354.7359 
L 950.157216 354.7359 
" style="fill:none;stroke:#f0ad4e;stroke-linecap:square;"/>
   </g>
   <g id="line2d_41">
    <path clip-path="url(#p709c5cb3c9)" d="M 86.339034 134.991396 
L 143.926913 310.464425 
L 201.514792 326.674187 
L 259.10267 343.505008 
L 316.690549 348.61498 
L 374.278428 351.828381 
L 431.866307 353.114314 
L 489.454186 353.930365 
L 547.042064 354.148613 
L 604.629943 351.425551 
L 662.217822 354.067304 
L 719.805701 354.703448 
L 777.39358 354.729751 
L 834.981458 354.696876 
L 892.569337 354.7359 
L 950.157216 354.7359 
" style="fill:none;stroke:#5cb85c;stroke-linecap:square;"/>
   </g>
   <g id="line2d_42">
    <path clip-path="url(#p709c5cb3c9)" d="M 86.339034 135.103754 
L 143.926913 310.907256 
L 201.514792 326.628681 
L 259.10267 342.889661 
L 316.690549 348.672567 
L 374.278428 351.943966 
L 431.866307 353.236538 
L 489.454186 353.830455 
L 547.042064 354.051789 
L 604.629943 351.355633 
L 662.217822 354.131943 
L 719.805701 354.712942 
L 777.39358 354.726825 
L 834.981458 354.702591 
L 892.569337 354.7359 
L 950.157216 354.7359 
" style="fill:none;stroke:#5cb85c;stroke-linecap:square;"/>
   </g>
   <g id="line2d_43">
    <path clip-path="url(#p709c5cb3c9)" d="M 86.339034 69.276148 
L 143.926913 335.333256 
L 201.514792 344.553347 
L 259.10267 352.875214 
L 316.690549 353.53099 
L 374.278428 354.259619 
L 431.866307 354.45871 
L 489.454186 354.55835 
L 547.042064 354.619504 
L 604.629943 354.521264 
L 662.217822 354.728604 
L 719.805701 354.716022 
L 777.39358 354.727671 
L 834.981458 354.7359 
L 892.569337 354.7359 
L 950.157216 354.7359 
" style="fill:none;stroke:#5cb85c;stroke-linecap:square;"/>
   </g>
   <g id="line2d_44">
    <path clip-path="url(#p709c5cb3c9)" d="M 86.339034 69.271809 
L 143.926913 335.605017 
L 201.514792 344.412374 
L 259.10267 352.785381 
L 316.690549 353.505281 
L 374.278428 354.217782 
L 431.866307 354.461932 
L 489.454186 354.587404 
L 547.042064 354.609804 
L 604.629943 354.51804 
L 662.217822 354.728805 
L 719.805701 354.727675 
L 777.39358 354.727396 
L 834.981458 354.7359 
L 892.569337 354.7359 
L 950.157216 354.7359 
" style="fill:none;stroke:#5cb85c;stroke-linecap:square;"/>
   </g>
   <g id="line2d_45">
    <path clip-path="url(#p709c5cb3c9)" d="M 86.339034 113.290378 
L 143.926913 332.82577 
L 201.514792 334.469409 
L 259.10267 349.007442 
L 316.690549 349.659377 
L 374.278428 352.093132 
L 431.866307 352.587316 
L 489.454186 353.076428 
L 547.042064 353.283485 
L 604.629943 339.989067 
L 662.217822 353.007374 
L 719.805701 354.172643 
L 777.39358 354.7359 
L 834.981458 354.696878 
L 892.569337 354.7359 
L 950.157216 354.7359 
" style="fill:none;stroke:#5cb85c;stroke-linecap:square;"/>
   </g>
   <g id="line2d_46">
    <path clip-path="url(#p709c5cb3c9)" d="M 86.339034 111.472746 
L 143.926913 332.7743 
L 201.514792 335.207221 
L 259.10267 349.208037 
L 316.690549 350.004509 
L 374.278428 352.127985 
L 431.866307 352.628723 
L 489.454186 353.098673 
L 547.042064 353.418529 
L 604.629943 339.965332 
L 662.217822 353.22847 
L 719.805701 354.326563 
L 777.39358 354.7359 
L 834.981458 354.697613 
L 892.569337 354.7359 
L 950.157216 354.7359 
" style="fill:none;stroke:#5cb85c;stroke-linecap:square;"/>
   </g>
   <g id="line2d_47">
    <path clip-path="url(#p709c5cb3c9)" d="M 86.339034 106.971751 
L 143.926913 317.503546 
L 201.514792 337.114248 
L 259.10267 348.282297 
L 316.690549 350.763304 
L 374.278428 352.528296 
L 431.866307 353.416554 
L 489.454186 353.891621 
L 547.042064 354.209904 
L 604.629943 353.456259 
L 662.217822 354.714792 
L 719.805701 354.692543 
L 777.39358 354.714652 
L 834.981458 354.634834 
L 892.569337 354.7359 
L 950.157216 354.7359 
" style="fill:none;stroke:#5cb85c;stroke-linecap:square;"/>
   </g>
   <g id="line2d_48">
    <path clip-path="url(#p709c5cb3c9)" d="M 86.339034 106.966549 
L 143.926913 317.886216 
L 201.514792 336.992281 
L 259.10267 347.759838 
L 316.690549 350.91725 
L 374.278428 352.650361 
L 431.866307 353.368257 
L 489.454186 353.830375 
L 547.042064 354.177623 
L 604.629943 353.556161 
L 662.217822 354.7359 
L 719.805701 354.696747 
L 777.39358 354.713242 
L 834.981458 354.643799 
L 892.569337 354.7359 
L 950.157216 354.7359 
" style="fill:none;stroke:#5cb85c;stroke-linecap:square;"/>
   </g>
   <g id="line2d_49">
    <path clip-path="url(#p709c5cb3c9)" d="M 86.339034 94.768049 
L 143.926913 325.133456 
L 201.514792 341.291422 
L 259.10267 349.356954 
L 316.690549 351.473585 
L 374.278428 352.381572 
L 431.866307 353.240443 
L 489.454186 353.802051 
L 547.042064 353.955618 
L 604.629943 352.748042 
L 662.217822 354.721642 
L 719.805701 354.655948 
L 777.39358 354.686955 
L 834.981458 354.678864 
L 892.569337 354.7359 
L 950.157216 354.7359 
" style="fill:none;stroke:#5cb85c;stroke-linecap:square;"/>
   </g>
   <g id="line2d_50">
    <path clip-path="url(#p709c5cb3c9)" d="M 86.339034 94.431116 
L 143.926913 324.947546 
L 201.514792 341.55673 
L 259.10267 349.513832 
L 316.690549 351.287467 
L 374.278428 352.529277 
L 431.866307 353.24363 
L 489.454186 353.705426 
L 547.042064 353.99752 
L 604.629943 352.926218 
L 662.217822 354.704415 
L 719.805701 354.690764 
L 777.39358 354.702193 
L 834.981458 354.658466 
L 892.569337 354.7359 
L 950.157216 354.7359 
" style="fill:none;stroke:#5cb85c;stroke-linecap:square;"/>
   </g>
   <g id="line2d_51">
    <path clip-path="url(#p709c5cb3c9)" d="M 86.339034 78.243706 
L 143.926913 332.655438 
L 201.514792 340.761799 
L 259.10267 351.659441 
L 316.690549 353.013672 
L 374.278428 354.005359 
L 431.866307 354.332977 
L 489.454186 354.496989 
L 547.042064 354.564515 
L 604.629943 354.240846 
L 662.217822 354.7359 
L 719.805701 354.727494 
L 777.39358 354.7359 
L 834.981458 354.720564 
L 892.569337 354.7359 
L 950.157216 354.7359 
" style="fill:none;stroke:#5cb85c;stroke-linecap:square;"/>
   </g>
   <g id="line2d_52">
    <path clip-path="url(#p709c5cb3c9)" d="M 86.339034 76.800135 
L 143.926913 333.298636 
L 201.514792 341.075966 
L 259.10267 351.954634 
L 316.690549 353.01692 
L 374.278428 354.037555 
L 431.866307 354.397452 
L 489.454186 354.480852 
L 547.042064 354.593621 
L 604.629943 354.335341 
L 662.217822 354.732348 
L 719.805701 354.732113 
L 777.39358 354.7359 
L 834.981458 354.703127 
L 892.569337 354.7359 
L 950.157216 354.7359 
" style="fill:none;stroke:#5cb85c;stroke-linecap:square;"/>
   </g>
   <g id="line2d_53">
    <path clip-path="url(#p709c5cb3c9)" d="M 86.339034 100.134549 
L 143.926913 322.759661 
L 201.514792 334.379106 
L 259.10267 348.659504 
L 316.690549 351.22592 
L 374.278428 353.343321 
L 431.866307 353.95966 
L 489.454186 354.384297 
L 547.042064 354.580835 
L 604.629943 354.544402 
L 662.217822 354.732443 
L 719.805701 354.7191 
L 777.39358 354.7359 
L 834.981458 354.7359 
L 892.569337 354.7359 
L 950.157216 354.7359 
" style="fill:none;stroke:#5cb85c;stroke-linecap:square;"/>
   </g>
   <g id="line2d_54">
    <path clip-path="url(#p709c5cb3c9)" d="M 86.339034 99.086657 
L 143.926913 323.142801 
L 201.514792 334.071413 
L 259.10267 349.008927 
L 316.690549 351.476352 
L 374.278428 353.529837 
L 431.866307 354.114254 
L 489.454186 354.484291 
L 547.042064 354.538835 
L 604.629943 354.51502 
L 662.217822 354.7359 
L 719.805701 354.718512 
L 777.39358 354.7359 
L 834.981458 354.7359 
L 892.569337 354.7359 
L 950.157216 354.7359 
" style="fill:none;stroke:#5cb85c;stroke-linecap:square;"/>
   </g>
   <g id="line2d_55">
    <path clip-path="url(#p709c5cb3c9)" d="M 86.339034 122.370643 
L 143.926913 336.179904 
L 201.514792 328.142816 
L 259.10267 347.170284 
L 316.690549 345.270328 
L 374.278428 350.44107 
L 431.866307 350.213762 
L 489.454186 351.93476 
L 547.042064 352.307819 
L 604.629943 345.908535 
L 662.217822 353.749762 
L 719.805701 353.771198 
L 777.39358 354.697818 
L 834.981458 354.7359 
L 892.569337 354.7359 
L 950.157216 354.7359 
" style="fill:none;stroke:#5cb85c;stroke-linecap:square;"/>
   </g>
   <g id="line2d_56">
    <path clip-path="url(#p709c5cb3c9)" d="M 86.339034 120.871585 
L 143.926913 335.707406 
L 201.514792 327.968581 
L 259.10267 347.226487 
L 316.690549 345.464023 
L 374.278428 350.295918 
L 431.866307 350.437795 
L 489.454186 352.407085 
L 547.042064 352.516729 
L 604.629943 346.972221 
L 662.217822 353.707303 
L 719.805701 353.86058 
L 777.39358 354.722986 
L 834.981458 354.7359 
L 892.569337 354.7359 
L 950.157216 354.7359 
" style="fill:none;stroke:#5cb85c;stroke-linecap:square;"/>
   </g>
   <g id="line2d_57">
    <path clip-path="url(#p709c5cb3c9)" d="M 86.339034 82.131123 
L 143.926913 330.084912 
L 201.514792 342.320409 
L 259.10267 351.003904 
L 316.690549 352.456196 
L 374.278428 353.472199 
L 431.866307 353.946951 
L 489.454186 354.152196 
L 547.042064 354.458157 
L 604.629943 354.018617 
L 662.217822 354.721786 
L 719.805701 354.716754 
L 777.39358 354.700939 
L 834.981458 354.710455 
L 892.569337 354.7359 
L 950.157216 354.7359 
" style="fill:none;stroke:#5cb85c;stroke-linecap:square;"/>
   </g>
   <g id="line2d_58">
    <path clip-path="url(#p709c5cb3c9)" d="M 86.339034 82.771775 
L 143.926913 329.560831 
L 201.514792 342.579831 
L 259.10267 350.71538 
L 316.690549 352.366311 
L 374.278428 353.446486 
L 431.866307 353.81815 
L 489.454186 354.255396 
L 547.042064 354.406487 
L 604.629943 354.112492 
L 662.217822 354.728995 
L 719.805701 354.7359 
L 777.39358 354.688559 
L 834.981458 354.708007 
L 892.569337 354.7359 
L 950.157216 354.7359 
" style="fill:none;stroke:#5cb85c;stroke-linecap:square;"/>
   </g>
   <g id="line2d_59">
    <path clip-path="url(#p709c5cb3c9)" d="M 86.339034 100.944365 
L 143.926913 332.77971 
L 201.514792 332.885366 
L 259.10267 349.025804 
L 316.690549 349.752363 
L 374.278428 352.293538 
L 431.866307 352.647224 
L 489.454186 353.491835 
L 547.042064 353.735331 
L 604.629943 350.547501 
L 662.217822 354.693889 
L 719.805701 354.716092 
L 777.39358 354.713342 
L 834.981458 354.66824 
L 892.569337 354.7359 
L 950.157216 354.7359 
" style="fill:none;stroke:#5cb85c;stroke-linecap:square;"/>
   </g>
   <g id="line2d_60">
    <path clip-path="url(#p709c5cb3c9)" d="M 86.339034 100.535516 
L 143.926913 332.721046 
L 201.514792 332.657025 
L 259.10267 349.028705 
L 316.690549 350.050547 
L 374.278428 352.299834 
L 431.866307 352.869186 
L 489.454186 353.50466 
L 547.042064 353.586797 
L 604.629943 350.827848 
L 662.217822 354.711489 
L 719.805701 354.715832 
L 777.39358 354.715996 
L 834.981458 354.67012 
L 892.569337 354.7359 
L 950.157216 354.7359 
" style="fill:none;stroke:#5cb85c;stroke-linecap:square;"/>
   </g>
   <g id="line2d_61">
    <path clip-path="url(#p709c5cb3c9)" d="M 86.339034 106.285738 
L 143.926913 328.727411 
L 201.514792 330.369761 
L 259.10267 347.791179 
L 316.690549 349.109164 
L 374.278428 352.279798 
L 431.866307 353.270884 
L 489.454186 353.913565 
L 547.042064 354.164212 
L 604.629943 352.410965 
L 662.217822 354.584495 
L 719.805701 354.636225 
L 777.39358 354.696412 
L 834.981458 354.654791 
L 892.569337 354.7359 
L 950.157216 354.7359 
" style="fill:none;stroke:#5cb85c;stroke-linecap:square;"/>
   </g>
   <g id="line2d_62">
    <path clip-path="url(#p709c5cb3c9)" d="M 86.339034 106.672359 
L 143.926913 328.222026 
L 201.514792 329.985215 
L 259.10267 347.573088 
L 316.690549 349.192488 
L 374.278428 352.495137 
L 431.866307 353.373886 
L 489.454186 353.961919 
L 547.042064 354.283706 
L 604.629943 352.539032 
L 662.217822 354.591742 
L 719.805701 354.666171 
L 777.39358 354.679704 
L 834.981458 354.658125 
L 892.569337 354.7359 
L 950.157216 354.7359 
" style="fill:none;stroke:#5cb85c;stroke-linecap:square;"/>
   </g>
   <g id="line2d_63">
    <path clip-path="url(#p709c5cb3c9)" d="M 86.339034 105.075835 
L 143.926913 328.265419 
L 201.514792 336.983509 
L 259.10267 348.880735 
L 316.690549 350.53733 
L 374.278428 352.26917 
L 431.866307 352.790029 
L 489.454186 353.309109 
L 547.042064 353.468403 
L 604.629943 346.597045 
L 662.217822 354.565825 
L 719.805701 354.726693 
L 777.39358 354.7359 
L 834.981458 354.689598 
L 892.569337 354.7359 
L 950.157216 354.7359 
" style="fill:none;stroke:#5cb85c;stroke-linecap:square;"/>
   </g>
   <g id="line2d_64">
    <path clip-path="url(#p709c5cb3c9)" d="M 86.339034 105.671267 
L 143.926913 327.325505 
L 201.514792 336.864632 
L 259.10267 349.027907 
L 316.690549 350.736076 
L 374.278428 352.48109 
L 431.866307 352.966876 
L 489.454186 353.257535 
L 547.042064 353.497395 
L 604.629943 346.286271 
L 662.217822 354.62818 
L 719.805701 354.722727 
L 777.39358 354.7359 
L 834.981458 354.69324 
L 892.569337 354.7359 
L 950.157216 354.7359 
" style="fill:none;stroke:#5cb85c;stroke-linecap:square;"/>
   </g>
   <g id="line2d_65">
    <path clip-path="url(#p709c5cb3c9)" d="M 86.339034 115.919373 
L 143.926913 328.909349 
L 201.514792 328.201517 
L 259.10267 346.106139 
L 316.690549 347.947343 
L 374.278428 351.55816 
L 431.866307 352.344948 
L 489.454186 353.292058 
L 547.042064 353.648146 
L 604.629943 350.357481 
L 662.217822 354.574179 
L 719.805701 354.704373 
L 777.39358 354.727424 
L 834.981458 354.7359 
L 892.569337 354.60411 
L 950.157216 354.7359 
" style="fill:none;stroke:#5cb85c;stroke-linecap:square;"/>
   </g>
   <g id="line2d_66">
    <path clip-path="url(#p709c5cb3c9)" d="M 86.339034 115.165457 
L 143.926913 328.329054 
L 201.514792 328.170467 
L 259.10267 346.473818 
L 316.690549 348.120025 
L 374.278428 351.657505 
L 431.866307 352.460603 
L 489.454186 353.3983 
L 547.042064 353.593178 
L 604.629943 350.829447 
L 662.217822 354.655409 
L 719.805701 354.719388 
L 777.39358 354.720264 
L 834.981458 354.7359 
L 892.569337 354.601688 
L 950.157216 354.7359 
" style="fill:none;stroke:#5cb85c;stroke-linecap:square;"/>
   </g>
   <g id="line2d_67">
    <path clip-path="url(#p709c5cb3c9)" d="M 86.339034 100.181385 
L 143.926913 327.549039 
L 201.514792 333.354241 
L 259.10267 347.951827 
L 316.690549 350.170078 
L 374.278428 352.687555 
L 431.866307 353.518595 
L 489.454186 354.110219 
L 547.042064 354.357997 
L 604.629943 354.122176 
L 662.217822 354.728712 
L 719.805701 354.705188 
L 777.39358 354.721688 
L 834.981458 354.7359 
L 892.569337 354.7359 
L 950.157216 354.7359 
" style="fill:none;stroke:#5cb85c;stroke-linecap:square;"/>
   </g>
   <g id="line2d_68">
    <path clip-path="url(#p709c5cb3c9)" d="M 86.339034 101.456112 
L 143.926913 326.621108 
L 201.514792 332.924551 
L 259.10267 347.627782 
L 316.690549 349.951586 
L 374.278428 352.91259 
L 431.866307 353.647376 
L 489.454186 354.197281 
L 547.042064 354.409666 
L 604.629943 354.225983 
L 662.217822 354.728793 
L 719.805701 354.7268 
L 777.39358 354.729072 
L 834.981458 354.7359 
L 892.569337 354.7359 
L 950.157216 354.7359 
" style="fill:none;stroke:#5cb85c;stroke-linecap:square;"/>
   </g>
   <g id="line2d_69">
    <path clip-path="url(#p709c5cb3c9)" d="M 86.339034 86.636646 
L 143.926913 330.511209 
L 201.514792 340.144819 
L 259.10267 350.321657 
L 316.690549 351.827464 
L 374.278428 353.115693 
L 431.866307 353.657467 
L 489.454186 354.013788 
L 547.042064 354.248438 
L 604.629943 353.520448 
L 662.217822 354.725527 
L 719.805701 354.727012 
L 777.39358 354.71986 
L 834.981458 354.724572 
L 892.569337 354.7359 
L 950.157216 354.7359 
" style="fill:none;stroke:#5cb85c;stroke-linecap:square;"/>
   </g>
   <g id="line2d_70">
    <path clip-path="url(#p709c5cb3c9)" d="M 86.339034 87.187256 
L 143.926913 329.513081 
L 201.514792 340.128379 
L 259.10267 350.529902 
L 316.690549 351.95258 
L 374.278428 353.221734 
L 431.866307 353.564076 
L 489.454186 353.994425 
L 547.042064 354.277479 
L 604.629943 353.621542 
L 662.217822 354.721958 
L 719.805701 354.726858 
L 777.39358 354.719432 
L 834.981458 354.7359 
L 892.569337 354.7359 
L 950.157216 354.7359 
" style="fill:none;stroke:#5cb85c;stroke-linecap:square;"/>
   </g>
   <g id="line2d_71">
    <path clip-path="url(#p709c5cb3c9)" d="M 86.339034 193.198605 
L 143.926913 331.307092 
L 201.514792 315.657433 
L 259.10267 339.481439 
L 316.690549 336.723723 
L 374.278428 344.615261 
L 431.866307 344.668181 
L 489.454186 348.119354 
L 547.042064 348.349761 
L 604.629943 326.342643 
L 662.217822 354.293068 
L 719.805701 354.683497 
L 777.39358 354.7359 
L 834.981458 354.718643 
L 892.569337 354.7359 
L 950.157216 354.7359 
" style="fill:none;stroke:#f0ad4e;stroke-linecap:square;"/>
   </g>
   <g id="line2d_72">
    <path clip-path="url(#p709c5cb3c9)" d="M 86.339034 195.441018 
L 143.926913 330.515246 
L 201.514792 314.914924 
L 259.10267 339.039724 
L 316.690549 336.684367 
L 374.278428 344.096007 
L 431.866307 343.991292 
L 489.454186 347.971386 
L 547.042064 348.67067 
L 604.629943 327.052656 
L 662.217822 354.357568 
L 719.805701 354.697785 
L 777.39358 354.7359 
L 834.981458 354.726057 
L 892.569337 354.7359 
L 950.157216 354.7359 
" style="fill:none;stroke:#f0ad4e;stroke-linecap:square;"/>
   </g>
   <g id="line2d_73">
    <path clip-path="url(#p709c5cb3c9)" d="M 86.339034 81.696063 
L 143.926913 332.322327 
L 201.514792 340.735874 
L 259.10267 350.955993 
L 316.690549 352.23485 
L 374.278428 353.520571 
L 431.866307 353.802179 
L 489.454186 354.319965 
L 547.042064 354.364578 
L 604.629943 354.076542 
L 662.217822 354.721805 
L 719.805701 354.716169 
L 777.39358 354.712554 
L 834.981458 354.715131 
L 892.569337 354.7359 
L 950.157216 354.7359 
" style="fill:none;stroke:#5cb85c;stroke-linecap:square;"/>
   </g>
   <g id="line2d_74">
    <path clip-path="url(#p709c5cb3c9)" d="M 86.339034 83.51232 
L 143.926913 331.459966 
L 201.514792 339.833577 
L 259.10267 350.927271 
L 316.690549 352.100097 
L 374.278428 353.543118 
L 431.866307 353.924557 
L 489.454186 354.223254 
L 547.042064 354.41948 
L 604.629943 354.092453 
L 662.217822 354.729045 
L 719.805701 354.711382 
L 777.39358 354.705321 
L 834.981458 354.712759 
L 892.569337 354.7359 
L 950.157216 354.7359 
" style="fill:none;stroke:#5cb85c;stroke-linecap:square;"/>
   </g>
   <g id="line2d_75">
    <path clip-path="url(#p709c5cb3c9)" d="M 86.339034 82.725502 
L 143.926913 326.287544 
L 201.514792 343.23484 
L 259.10267 351.444235 
L 316.690549 353.291718 
L 374.278428 354.080354 
L 431.866307 354.311172 
L 489.454186 354.407275 
L 547.042064 354.52621 
L 604.629943 353.700056 
L 662.217822 354.722 
L 719.805701 354.723046 
L 777.39358 354.714026 
L 834.981458 354.726621 
L 892.569337 354.7359 
L 950.157216 354.7359 
" style="fill:none;stroke:#5cb85c;stroke-linecap:square;"/>
   </g>
   <g id="line2d_76">
    <path clip-path="url(#p709c5cb3c9)" d="M 86.339034 83.873324 
L 143.926913 325.447311 
L 201.514792 343.091006 
L 259.10267 351.514806 
L 316.690549 353.147329 
L 374.278428 354.025738 
L 431.866307 354.32405 
L 489.454186 354.449164 
L 547.042064 354.461695 
L 604.629943 353.674122 
L 662.217822 354.725498 
L 719.805701 354.721705 
L 777.39358 354.72286 
L 834.981458 354.715992 
L 892.569337 354.7359 
L 950.157216 354.7359 
" style="fill:none;stroke:#5cb85c;stroke-linecap:square;"/>
   </g>
   <g id="line2d_77">
    <path clip-path="url(#p709c5cb3c9)" d="M 86.339034 85.172096 
L 143.926913 327.841301 
L 201.514792 341.779237 
L 259.10267 351.441051 
L 316.690549 352.925764 
L 374.278428 353.729975 
L 431.866307 354.015028 
L 489.454186 354.255741 
L 547.042064 354.245409 
L 604.629943 352.710922 
L 662.217822 354.634817 
L 719.805701 354.716635 
L 777.39358 354.701069 
L 834.981458 354.725556 
L 892.569337 354.7359 
L 950.157216 354.7359 
" style="fill:none;stroke:#5cb85c;stroke-linecap:square;"/>
   </g>
   <g id="line2d_78">
    <path clip-path="url(#p709c5cb3c9)" d="M 86.339034 86.442649 
L 143.926913 326.626008 
L 201.514792 341.865357 
L 259.10267 351.424948 
L 316.690549 352.893627 
L 374.278428 353.668887 
L 431.866307 354.005356 
L 489.454186 354.142938 
L 547.042064 354.335753 
L 604.629943 352.689304 
L 662.217822 354.648117 
L 719.805701 354.706634 
L 777.39358 354.719096 
L 834.981458 354.725926 
L 892.569337 354.7359 
L 950.157216 354.7359 
" style="fill:none;stroke:#5cb85c;stroke-linecap:square;"/>
   </g>
   <g id="line2d_79">
    <path clip-path="url(#p709c5cb3c9)" d="M 86.339034 155.211013 
L 143.926913 331.211002 
L 201.514792 326.310702 
L 259.10267 341.984228 
L 316.690549 342.222519 
L 374.278428 346.72807 
L 431.866307 348.282308 
L 489.454186 349.972544 
L 547.042064 350.882653 
L 604.629943 338.419791 
L 662.217822 353.077239 
L 719.805701 353.193485 
L 777.39358 354.663146 
L 834.981458 354.7359 
L 892.569337 354.7359 
L 950.157216 354.7359 
" style="fill:none;stroke:#5cb85c;stroke-linecap:square;"/>
   </g>
   <g id="line2d_80">
    <path clip-path="url(#p709c5cb3c9)" d="M 86.339034 155.555987 
L 143.926913 330.301052 
L 201.514792 325.443139 
L 259.10267 341.943161 
L 316.690549 342.047085 
L 374.278428 347.293446 
L 431.866307 348.040328 
L 489.454186 350.109685 
L 547.042064 350.917233 
L 604.629943 339.369158 
L 662.217822 353.231148 
L 719.805701 353.222331 
L 777.39358 354.684946 
L 834.981458 354.7359 
L 892.569337 354.7359 
L 950.157216 354.7359 
" style="fill:none;stroke:#5cb85c;stroke-linecap:square;"/>
   </g>
   <g id="line2d_81">
    <path clip-path="url(#p709c5cb3c9)" d="M 86.339034 144.53558 
L 143.926913 315.573079 
L 201.514792 322.754502 
L 259.10267 342.810428 
L 316.690549 346.443007 
L 374.278428 350.239997 
L 431.866307 351.77729 
L 489.454186 352.707044 
L 547.042064 353.297579 
L 604.629943 348.21896 
L 662.217822 354.473688 
L 719.805701 354.591646 
L 777.39358 354.7359 
L 834.981458 354.7359 
L 892.569337 354.7359 
L 950.157216 354.7359 
" style="fill:none;stroke:#5cb85c;stroke-linecap:square;"/>
   </g>
   <g id="line2d_82">
    <path clip-path="url(#p709c5cb3c9)" d="M 86.339034 143.392139 
L 143.926913 313.934064 
L 201.514792 323.064764 
L 259.10267 342.92455 
L 316.690549 347.317748 
L 374.278428 350.631382 
L 431.866307 351.979622 
L 489.454186 352.880766 
L 547.042064 353.381296 
L 604.629943 348.803563 
L 662.217822 354.483228 
L 719.805701 354.629677 
L 777.39358 354.7359 
L 834.981458 354.7359 
L 892.569337 354.7359 
L 950.157216 354.7359 
" style="fill:none;stroke:#5cb85c;stroke-linecap:square;"/>
   </g>
   <g id="line2d_83">
    <path clip-path="url(#p709c5cb3c9)" d="M 86.339034 149.790926 
L 143.926913 313.330734 
L 201.514792 322.630982 
L 259.10267 342.318943 
L 316.690549 346.521062 
L 374.278428 350.080038 
L 431.866307 351.517218 
L 489.454186 352.369201 
L 547.042064 353.239716 
L 604.629943 346.497278 
L 662.217822 354.487196 
L 719.805701 354.639504 
L 777.39358 354.7359 
L 834.981458 354.7359 
L 892.569337 354.7359 
L 950.157216 354.7359 
" style="fill:none;stroke:#5cb85c;stroke-linecap:square;"/>
   </g>
   <g id="line2d_84">
    <path clip-path="url(#p709c5cb3c9)" d="M 86.339034 149.036365 
L 143.926913 312.126481 
L 201.514792 322.487475 
L 259.10267 342.397912 
L 316.690549 347.020589 
L 374.278428 350.23056 
L 431.866307 351.735608 
L 489.454186 352.800513 
L 547.042064 353.184764 
L 604.629943 347.266806 
L 662.217822 354.488406 
L 719.805701 354.647321 
L 777.39358 354.7359 
L 834.981458 354.7359 
L 892.569337 354.7359 
L 950.157216 354.7359 
" style="fill:none;stroke:#5cb85c;stroke-linecap:square;"/>
   </g>
   <g id="line2d_85">
    <path clip-path="url(#p709c5cb3c9)" d="M 86.339034 272.422557 
L 143.926913 333.719729 
L 201.514792 325.021994 
L 259.10267 334.224476 
L 316.690549 334.635756 
L 374.278428 339.543006 
L 431.866307 341.118052 
L 489.454186 344.075833 
L 547.042064 345.979548 
L 604.629943 273.469236 
L 662.217822 345.39266 
L 719.805701 348.75103 
L 777.39358 354.038837 
L 834.981458 354.501885 
L 892.569337 354.7359 
L 950.157216 354.7359 
" style="fill:none;stroke:#d9534f;stroke-linecap:square;"/>
   </g>
   <g id="line2d_86">
    <path clip-path="url(#p709c5cb3c9)" d="M 86.339034 273.212154 
L 143.926913 331.87995 
L 201.514792 322.968828 
L 259.10267 332.68005 
L 316.690549 332.963486 
L 374.278428 338.807319 
L 431.866307 340.656654 
L 489.454186 343.615867 
L 547.042064 345.430145 
L 604.629943 279.892273 
L 662.217822 346.770217 
L 719.805701 349.322081 
L 777.39358 354.138902 
L 834.981458 354.556672 
L 892.569337 354.7359 
L 950.157216 354.7359 
" style="fill:none;stroke:#d9534f;stroke-linecap:square;"/>
   </g>
   <g id="line2d_87">
    <path clip-path="url(#p709c5cb3c9)" d="M 86.339034 212.98617 
L 143.926913 334.419535 
L 201.514792 318.087102 
L 259.10267 337.167472 
L 316.690549 334.263741 
L 374.278428 342.798938 
L 431.866307 343.592497 
L 489.454186 347.523999 
L 547.042064 348.078694 
L 604.629943 318.153467 
L 662.217822 349.04074 
L 719.805701 351.321705 
L 777.39358 354.724641 
L 834.981458 354.7359 
L 892.569337 354.7359 
L 950.157216 354.7359 
" style="fill:none;stroke:#f0ad4e;stroke-linecap:square;"/>
   </g>
   <g id="line2d_88">
    <path clip-path="url(#p709c5cb3c9)" d="M 86.339034 218.772458 
L 143.926913 332.400562 
L 201.514792 316.800481 
L 259.10267 336.636473 
L 316.690549 333.521379 
L 374.278428 341.948595 
L 431.866307 342.929678 
L 489.454186 347.481286 
L 547.042064 348.548192 
L 604.629943 317.546598 
L 662.217822 349.251022 
L 719.805701 351.597642 
L 777.39358 354.724334 
L 834.981458 354.7359 
L 892.569337 354.7359 
L 950.157216 354.7359 
" style="fill:none;stroke:#f0ad4e;stroke-linecap:square;"/>
   </g>
   <g id="line2d_89">
    <path clip-path="url(#p709c5cb3c9)" d="M 86.339034 218.25813 
L 143.926913 331.549942 
L 201.514792 321.68391 
L 259.10267 335.782918 
L 316.690549 335.5008 
L 374.278428 341.866198 
L 431.866307 343.742431 
L 489.454186 346.649715 
L 547.042064 348.02973 
L 604.629943 312.644608 
L 662.217822 350.896053 
L 719.805701 351.253165 
L 777.39358 354.39695 
L 834.981458 354.64005 
L 892.569337 354.7359 
L 950.157216 354.7359 
" style="fill:none;stroke:#f0ad4e;stroke-linecap:square;"/>
   </g>
   <g id="line2d_90">
    <path clip-path="url(#p709c5cb3c9)" d="M 86.339034 221.555836 
L 143.926913 330.226714 
L 201.514792 320.327279 
L 259.10267 334.255132 
L 316.690549 334.304853 
L 374.278428 340.822293 
L 431.866307 342.819491 
L 489.454186 346.395381 
L 547.042064 347.86233 
L 604.629943 316.909724 
L 662.217822 350.99333 
L 719.805701 351.326213 
L 777.39358 354.420944 
L 834.981458 354.67508 
L 892.569337 354.7359 
L 950.157216 354.7359 
" style="fill:none;stroke:#f0ad4e;stroke-linecap:square;"/>
   </g>
   <g id="line2d_91">
    <path clip-path="url(#p709c5cb3c9)" d="M 86.339034 354.7359 
L 143.926913 108.60925 
L 201.514792 354.7359 
L 259.10267 307.768071 
L 316.690549 354.7359 
L 374.278428 340.397561 
L 431.866307 354.7359 
L 489.454186 349.245766 
L 547.042064 354.7359 
L 604.629943 349.430065 
L 662.217822 354.005995 
L 719.805701 354.303993 
L 777.39358 354.718498 
L 834.981458 354.7359 
L 892.569337 354.7359 
L 950.157216 354.7359 
" style="fill:none;stroke:#d9534f;stroke-linecap:square;"/>
   </g>
   <g id="line2d_92">
    <path clip-path="url(#p709c5cb3c9)" d="M 86.339034 354.7359 
L 143.926913 108.175723 
L 201.514792 354.7359 
L 259.10267 306.522153 
L 316.690549 354.7359 
L 374.278428 340.918893 
L 431.866307 354.7359 
L 489.454186 349.704356 
L 547.042064 354.7359 
L 604.629943 350.140383 
L 662.217822 353.934425 
L 719.805701 354.364515 
L 777.39358 354.718752 
L 834.981458 354.7359 
L 892.569337 354.7359 
L 950.157216 354.7359 
" style="fill:none;stroke:#d9534f;stroke-linecap:square;"/>
   </g>
   <g id="line2d_93">
    <path clip-path="url(#p709c5cb3c9)" d="M 86.339034 232.705521 
L 143.926913 301.972822 
L 201.514792 312.914749 
L 259.10267 323.412009 
L 316.690549 331.941001 
L 374.278428 338.68553 
L 431.866307 344.054307 
L 489.454186 348.072658 
L 547.042064 350.265353 
L 604.629943 344.639996 
L 662.217822 354.365944 
L 719.805701 354.431283 
L 777.39358 354.72396 
L 834.981458 354.709467 
L 892.569337 354.7359 
L 950.157216 354.7359 
" style="fill:none;stroke:#f0ad4e;stroke-linecap:square;"/>
   </g>
   <g id="line2d_94">
    <path clip-path="url(#p709c5cb3c9)" d="M 86.339034 238.413793 
L 143.926913 300.367683 
L 201.514792 311.687638 
L 259.10267 322.490094 
L 316.690549 330.57012 
L 374.278428 338.334243 
L 431.866307 343.763319 
L 489.454186 347.774805 
L 547.042064 350.198192 
L 604.629943 345.071736 
L 662.217822 354.368507 
L 719.805701 354.425842 
L 777.39358 354.7359 
L 834.981458 354.692728 
L 892.569337 354.7359 
L 950.157216 354.7359 
" style="fill:none;stroke:#f0ad4e;stroke-linecap:square;"/>
   </g>
   <g id="line2d_95">
    <path clip-path="url(#p709c5cb3c9)" d="M 86.339034 151.597076 
L 143.926913 324.058611 
L 201.514792 307.855369 
L 259.10267 342.566049 
L 316.690549 342.827873 
L 374.278428 350.531854 
L 431.866307 351.339613 
L 489.454186 353.045023 
L 547.042064 353.419994 
L 604.629943 350.828294 
L 662.217822 354.669914 
L 719.805701 354.721845 
L 777.39358 354.7359 
L 834.981458 354.697184 
L 892.569337 354.7359 
L 950.157216 354.7359 
" style="fill:none;stroke:#5cb85c;stroke-linecap:square;"/>
   </g>
   <g id="line2d_96">
    <path clip-path="url(#p709c5cb3c9)" d="M 86.339034 149.868674 
L 143.926913 322.804757 
L 201.514792 308.348192 
L 259.10267 343.308341 
L 316.690549 343.179938 
L 374.278428 350.746787 
L 431.866307 351.435894 
L 489.454186 353.296149 
L 547.042064 353.645694 
L 604.629943 351.42893 
L 662.217822 354.683339 
L 719.805701 354.719117 
L 777.39358 354.7359 
L 834.981458 354.692891 
L 892.569337 354.7359 
L 950.157216 354.7359 
" style="fill:none;stroke:#5cb85c;stroke-linecap:square;"/>
   </g>
   <g id="line2d_97">
    <path clip-path="url(#p709c5cb3c9)" d="M 86.339034 154.936083 
L 143.926913 309.283589 
L 201.514792 320.159588 
L 259.10267 338.243895 
L 316.690549 344.99547 
L 374.278428 349.55325 
L 431.866307 351.733698 
L 489.454186 353.160076 
L 547.042064 353.922621 
L 604.629943 352.083224 
L 662.217822 354.623871 
L 719.805701 354.727435 
L 777.39358 354.7359 
L 834.981458 354.7359 
L 892.569337 354.7359 
L 950.157216 354.7359 
" style="fill:none;stroke:#5cb85c;stroke-linecap:square;"/>
   </g>
   <g id="line2d_98">
    <path clip-path="url(#p709c5cb3c9)" d="M 86.339034 156.066757 
L 143.926913 307.93457 
L 201.514792 319.135135 
L 259.10267 338.301186 
L 316.690549 345.126796 
L 374.278428 349.832678 
L 431.866307 352.081162 
L 489.454186 353.421074 
L 547.042064 353.954878 
L 604.629943 352.185889 
L 662.217822 354.659386 
L 719.805701 354.723288 
L 777.39358 354.7359 
L 834.981458 354.7359 
L 892.569337 354.7359 
L 950.157216 354.7359 
" style="fill:none;stroke:#5cb85c;stroke-linecap:square;"/>
   </g>
   <g id="line2d_99">
    <path clip-path="url(#p709c5cb3c9)" d="M 86.339034 138.718962 
L 143.926913 319.781044 
L 201.514792 315.987308 
L 259.10267 342.462587 
L 316.690549 345.878205 
L 374.278428 351.420622 
L 431.866307 352.661756 
L 489.454186 353.787499 
L 547.042064 354.138167 
L 604.629943 353.156916 
L 662.217822 354.693834 
L 719.805701 354.7359 
L 777.39358 354.7359 
L 834.981458 354.7359 
L 892.569337 354.7359 
L 950.157216 354.7359 
" style="fill:none;stroke:#5cb85c;stroke-linecap:square;"/>
   </g>
   <g id="line2d_100">
    <path clip-path="url(#p709c5cb3c9)" d="M 86.339034 141.864244 
L 143.926913 317.57639 
L 201.514792 314.652811 
L 259.10267 342.231806 
L 316.690549 345.695214 
L 374.278428 351.581405 
L 431.866307 352.835677 
L 489.454186 353.939116 
L 547.042064 354.34172 
L 604.629943 353.254165 
L 662.217822 354.718303 
L 719.805701 354.731949 
L 777.39358 354.7359 
L 834.981458 354.7359 
L 892.569337 354.7359 
L 950.157216 354.7359 
" style="fill:none;stroke:#5cb85c;stroke-linecap:square;"/>
   </g>
   <g id="line2d_101">
    <path clip-path="url(#p709c5cb3c9)" d="M 86.339034 118.719386 
L 143.926913 319.124276 
L 201.514792 326.80677 
L 259.10267 346.33303 
L 316.690549 349.578711 
L 374.278428 352.512052 
L 431.866307 353.406821 
L 489.454186 353.965706 
L 547.042064 354.335748 
L 604.629943 353.203612 
L 662.217822 354.700789 
L 719.805701 354.7359 
L 777.39358 354.7359 
L 834.981458 354.7359 
L 892.569337 354.7359 
L 950.157216 354.7359 
" style="fill:none;stroke:#5cb85c;stroke-linecap:square;"/>
   </g>
   <g id="line2d_102">
    <path clip-path="url(#p709c5cb3c9)" d="M 86.339034 116.989933 
L 143.926913 318.822948 
L 201.514792 327.503745 
L 259.10267 346.688554 
L 316.690549 349.844951 
L 374.278428 352.717674 
L 431.866307 353.619188 
L 489.454186 354.194495 
L 547.042064 354.309921 
L 604.629943 353.313502 
L 662.217822 354.689877 
L 719.805701 354.728013 
L 777.39358 354.7359 
L 834.981458 354.7359 
L 892.569337 354.7359 
L 950.157216 354.7359 
" style="fill:none;stroke:#5cb85c;stroke-linecap:square;"/>
   </g>
   <g id="line2d_103">
    <path clip-path="url(#p709c5cb3c9)" d="M 86.339034 75.251165 
L 143.926913 334.558834 
L 201.514792 341.03794 
L 259.10267 352.069412 
L 316.690549 353.051715 
L 374.278428 354.12099 
L 431.866307 354.352154 
L 489.454186 354.577625 
L 547.042064 354.609718 
L 604.629943 354.325071 
L 662.217822 354.732276 
L 719.805701 354.7359 
L 777.39358 354.7359 
L 834.981458 354.7359 
L 892.569337 354.7359 
L 950.157216 354.7359 
" style="fill:none;stroke:#5cb85c;stroke-linecap:square;"/>
   </g>
   <g id="line2d_104">
    <path clip-path="url(#p709c5cb3c9)" d="M 86.339034 73.402391 
L 143.926913 335.041525 
L 201.514792 341.492679 
L 259.10267 352.541077 
L 316.690549 353.340968 
L 374.278428 354.153178 
L 431.866307 354.413421 
L 489.454186 354.532402 
L 547.042064 354.616187 
L 604.629943 354.445642 
L 662.217822 354.7215 
L 719.805701 354.72183 
L 777.39358 354.7359 
L 834.981458 354.7359 
L 892.569337 354.7359 
L 950.157216 354.7359 
" style="fill:none;stroke:#5cb85c;stroke-linecap:square;"/>
   </g>
   <g id="line2d_105">
    <path clip-path="url(#p709c5cb3c9)" d="M 86.339034 117.735102 
L 143.926913 308.015591 
L 201.514792 335.469736 
L 259.10267 347.614964 
L 316.690549 351.436666 
L 374.278428 353.22594 
L 431.866307 353.834289 
L 489.454186 354.231725 
L 547.042064 354.379143 
L 604.629943 352.125982 
L 662.217822 354.685202 
L 719.805701 354.687002 
L 777.39358 354.7359 
L 834.981458 354.717359 
L 892.569337 354.7359 
L 950.157216 354.7359 
" style="fill:none;stroke:#5cb85c;stroke-linecap:square;"/>
   </g>
   <g id="line2d_106">
    <path clip-path="url(#p709c5cb3c9)" d="M 86.339034 118.016455 
L 143.926913 306.937059 
L 201.514792 335.847607 
L 259.10267 347.743181 
L 316.690549 351.62574 
L 374.278428 353.251629 
L 431.866307 353.953028 
L 489.454186 354.173938 
L 547.042064 354.369511 
L 604.629943 352.197855 
L 662.217822 354.668207 
L 719.805701 354.681409 
L 777.39358 354.725887 
L 834.981458 354.703094 
L 892.569337 354.7359 
L 950.157216 354.7359 
" style="fill:none;stroke:#5cb85c;stroke-linecap:square;"/>
   </g>
   <g id="line2d_107">
    <path clip-path="url(#p709c5cb3c9)" d="M 86.339034 124.767058 
L 143.926913 323.288961 
L 201.514792 334.178933 
L 259.10267 348.091019 
L 316.690549 350.825094 
L 374.278428 352.466181 
L 431.866307 352.832543 
L 489.454186 352.878011 
L 547.042064 352.843001 
L 604.629943 335.95552 
L 662.217822 354.687075 
L 719.805701 354.71748 
L 777.39358 354.723113 
L 834.981458 354.640609 
L 892.569337 354.7359 
L 950.157216 354.7359 
" style="fill:none;stroke:#5cb85c;stroke-linecap:square;"/>
   </g>
   <g id="line2d_108">
    <path clip-path="url(#p709c5cb3c9)" d="M 86.339034 123.213462 
L 143.926913 323.565077 
L 201.514792 334.743652 
L 259.10267 348.458803 
L 316.690549 350.949925 
L 374.278428 352.517437 
L 431.866307 352.83888 
L 489.454186 352.752336 
L 547.042064 352.939653 
L 604.629943 336.171067 
L 662.217822 354.683173 
L 719.805701 354.700205 
L 777.39358 354.728013 
L 834.981458 354.632916 
L 892.569337 354.7359 
L 950.157216 354.7359 
" style="fill:none;stroke:#5cb85c;stroke-linecap:square;"/>
   </g>
   <g id="line2d_109">
    <path clip-path="url(#p709c5cb3c9)" d="M 86.339034 113.814783 
L 143.926913 327.276297 
L 201.514792 328.143371 
L 259.10267 346.059087 
L 316.690549 348.434268 
L 374.278428 351.842319 
L 431.866307 352.877971 
L 489.454186 353.636217 
L 547.042064 354.028579 
L 604.629943 351.90052 
L 662.217822 354.686782 
L 719.805701 354.722607 
L 777.39358 354.7359 
L 834.981458 354.7359 
L 892.569337 354.7359 
L 950.157216 354.7359 
" style="fill:none;stroke:#5cb85c;stroke-linecap:square;"/>
   </g>
   <g id="line2d_110">
    <path clip-path="url(#p709c5cb3c9)" d="M 86.339034 112.323437 
L 143.926913 326.619577 
L 201.514792 328.887582 
L 259.10267 346.49133 
L 316.690549 348.700367 
L 374.278428 352.057575 
L 431.866307 353.025992 
L 489.454186 353.803857 
L 547.042064 354.073758 
L 604.629943 351.994059 
L 662.217822 354.718276 
L 719.805701 354.72699 
L 777.39358 354.7359 
L 834.981458 354.7359 
L 892.569337 354.7359 
L 950.157216 354.7359 
" style="fill:none;stroke:#5cb85c;stroke-linecap:square;"/>
   </g>
   <g id="line2d_111">
    <path clip-path="url(#p709c5cb3c9)" d="M 86.339034 89.930389 
L 143.926913 327.376392 
L 201.514792 339.270934 
L 259.10267 350.606812 
L 316.690549 352.299177 
L 374.278428 353.414507 
L 431.866307 353.805406 
L 489.454186 354.100705 
L 547.042064 354.283843 
L 604.629943 352.938119 
L 662.217822 354.732275 
L 719.805701 354.693364 
L 777.39358 354.720871 
L 834.981458 354.721805 
L 892.569337 354.7359 
L 950.157216 354.7359 
" style="fill:none;stroke:#5cb85c;stroke-linecap:square;"/>
   </g>
   <g id="line2d_112">
    <path clip-path="url(#p709c5cb3c9)" d="M 86.339034 88.003149 
L 143.926913 327.910614 
L 201.514792 340.10346 
L 259.10267 350.6774 
L 316.690549 352.453312 
L 374.278428 353.395237 
L 431.866307 353.853715 
L 489.454186 354.139406 
L 547.042064 354.25156 
L 604.629943 353.26117 
L 662.217822 354.728878 
L 719.805701 354.695779 
L 777.39358 354.720821 
L 834.981458 354.7001 
L 892.569337 354.7359 
L 950.157216 354.7359 
" style="fill:none;stroke:#5cb85c;stroke-linecap:square;"/>
   </g>
   <g id="line2d_113">
    <path clip-path="url(#p709c5cb3c9)" d="M 86.339034 84.952652 
L 143.926913 331.836695 
L 201.514792 337.542228 
L 259.10267 351.053713 
L 316.690549 352.152995 
L 374.278428 353.683725 
L 431.866307 354.017224 
L 489.454186 354.306594 
L 547.042064 354.535456 
L 604.629943 353.904951 
L 662.217822 354.7359 
L 719.805701 354.721469 
L 777.39358 354.726496 
L 834.981458 354.724503 
L 892.569337 354.7359 
L 950.157216 354.7359 
" style="fill:none;stroke:#5cb85c;stroke-linecap:square;"/>
   </g>
   <g id="line2d_114">
    <path clip-path="url(#p709c5cb3c9)" d="M 86.339034 82.105286 
L 143.926913 332.13326 
L 201.514792 339.030796 
L 259.10267 351.319814 
L 316.690549 352.467747 
L 374.278428 353.770568 
L 431.866307 354.13 
L 489.454186 354.40019 
L 547.042064 354.477253 
L 604.629943 354.16911 
L 662.217822 354.732431 
L 719.805701 354.706877 
L 777.39358 354.715369 
L 834.981458 354.7359 
L 892.569337 354.7359 
L 950.157216 354.7359 
" style="fill:none;stroke:#5cb85c;stroke-linecap:square;"/>
   </g>
   <g id="line2d_115">
    <path clip-path="url(#p709c5cb3c9)" d="M 86.339034 118.738537 
L 143.926913 316.058227 
L 201.514792 330.910412 
L 259.10267 345.618545 
L 316.690549 349.633283 
L 374.278428 352.277423 
L 431.866307 353.319891 
L 489.454186 354.072021 
L 547.042064 354.280861 
L 604.629943 353.208286 
L 662.217822 354.582376 
L 719.805701 354.730457 
L 777.39358 354.728381 
L 834.981458 354.7359 
L 892.569337 354.7359 
L 950.157216 354.7359 
" style="fill:none;stroke:#5cb85c;stroke-linecap:square;"/>
   </g>
   <g id="line2d_116">
    <path clip-path="url(#p709c5cb3c9)" d="M 86.339034 115.937964 
L 143.926913 316.037193 
L 201.514792 332.064592 
L 259.10267 346.089217 
L 316.690549 350.066298 
L 374.278428 352.48299 
L 431.866307 353.615911 
L 489.454186 354.033314 
L 547.042064 354.371205 
L 604.629943 353.37751 
L 662.217822 354.635627 
L 719.805701 354.718264 
L 777.39358 354.728616 
L 834.981458 354.7359 
L 892.569337 354.7359 
L 950.157216 354.7359 
" style="fill:none;stroke:#5cb85c;stroke-linecap:square;"/>
   </g>
   <g id="line2d_117">
    <path clip-path="url(#p709c5cb3c9)" d="M 86.339034 146.016604 
L 143.926913 329.480115 
L 201.514792 330.098498 
L 259.10267 347.780131 
L 316.690549 349.508301 
L 374.278428 352.257248 
L 431.866307 352.813434 
L 489.454186 353.441718 
L 547.042064 353.69007 
L 604.629943 319.589502 
L 662.217822 348.798951 
L 719.805701 354.120773 
L 777.39358 354.729445 
L 834.981458 354.697954 
L 892.569337 354.7359 
L 950.157216 354.607755 
" style="fill:none;stroke:#5cb85c;stroke-linecap:square;"/>
   </g>
   <g id="line2d_118">
    <path clip-path="url(#p709c5cb3c9)" d="M 86.339034 143.071737 
L 143.926913 329.736131 
L 201.514792 330.816509 
L 259.10267 348.420767 
L 316.690549 349.837909 
L 374.278428 352.50863 
L 431.866307 353.01742 
L 489.454186 353.514874 
L 547.042064 353.647899 
L 604.629943 318.799256 
L 662.217822 349.977151 
L 719.805701 354.243222 
L 777.39358 354.719338 
L 834.981458 354.695169 
L 892.569337 354.7359 
L 950.157216 354.624486 
" style="fill:none;stroke:#5cb85c;stroke-linecap:square;"/>
   </g>
   <g id="line2d_119">
    <path clip-path="url(#p709c5cb3c9)" d="M 86.339034 96.78646 
L 143.926913 329.454791 
L 201.514792 335.226106 
L 259.10267 350.135908 
L 316.690549 351.348591 
L 374.278428 353.494572 
L 431.866307 353.788916 
L 489.454186 354.168089 
L 547.042064 354.225343 
L 604.629943 349.811929 
L 662.217822 354.267248 
L 719.805701 354.714847 
L 777.39358 354.7359 
L 834.981458 354.7359 
L 892.569337 354.7359 
L 950.157216 354.7359 
" style="fill:none;stroke:#5cb85c;stroke-linecap:square;"/>
   </g>
   <g id="line2d_120">
    <path clip-path="url(#p709c5cb3c9)" d="M 86.339034 94.377584 
L 143.926913 330.007866 
L 201.514792 336.058449 
L 259.10267 350.45011 
L 316.690549 351.814186 
L 374.278428 353.513885 
L 431.866307 353.795372 
L 489.454186 354.09067 
L 547.042064 354.312597 
L 604.629943 349.99092 
L 662.217822 354.334663 
L 719.805701 354.703812 
L 777.39358 354.7359 
L 834.981458 354.708586 
L 892.569337 354.7359 
L 950.157216 354.7359 
" style="fill:none;stroke:#5cb85c;stroke-linecap:square;"/>
   </g>
   <g id="line2d_121">
    <path clip-path="url(#p709c5cb3c9)" d="M 86.339034 103.960926 
L 143.926913 326.402289 
L 201.514792 333.767642 
L 259.10267 348.360813 
L 316.690549 350.35095 
L 374.278428 352.282882 
L 431.866307 353.261201 
L 489.454186 353.736219 
L 547.042064 353.967234 
L 604.629943 352.052459 
L 662.217822 354.7046 
L 719.805701 354.65025 
L 777.39358 354.694881 
L 834.981458 354.702253 
L 892.569337 354.7359 
L 950.157216 354.7359 
" style="fill:none;stroke:#5cb85c;stroke-linecap:square;"/>
   </g>
   <g id="line2d_122">
    <path clip-path="url(#p709c5cb3c9)" d="M 86.339034 102.03429 
L 143.926913 326.306447 
L 201.514792 334.187789 
L 259.10267 348.687067 
L 316.690549 350.697189 
L 374.278428 352.559128 
L 431.866307 353.264258 
L 489.454186 353.658706 
L 547.042064 354.089891 
L 604.629943 352.62516 
L 662.217822 354.725407 
L 719.805701 354.651385 
L 777.39358 354.69058 
L 834.981458 354.717302 
L 892.569337 354.7359 
L 950.157216 354.7359 
" style="fill:none;stroke:#5cb85c;stroke-linecap:square;"/>
   </g>
   <g id="line2d_123">
    <path clip-path="url(#p709c5cb3c9)" d="M 86.339034 93.371028 
L 143.926913 328.020629 
L 201.514792 337.234609 
L 259.10267 350.04645 
L 316.690549 351.744123 
L 374.278428 353.552868 
L 431.866307 353.992204 
L 489.454186 354.290964 
L 547.042064 354.400096 
L 604.629943 351.650547 
L 662.217822 354.414158 
L 719.805701 354.705125 
L 777.39358 354.7359 
L 834.981458 354.7359 
L 892.569337 354.7359 
L 950.157216 354.7359 
" style="fill:none;stroke:#5cb85c;stroke-linecap:square;"/>
   </g>
   <g id="line2d_124">
    <path clip-path="url(#p709c5cb3c9)" d="M 86.339034 91.095902 
L 143.926913 327.942338 
L 201.514792 337.921762 
L 259.10267 350.613557 
L 316.690549 352.357106 
L 374.278428 353.694257 
L 431.866307 353.921328 
L 489.454186 354.38122 
L 547.042064 354.454971 
L 604.629943 351.811115 
L 662.217822 354.533803 
L 719.805701 354.708465 
L 777.39358 354.7359 
L 834.981458 354.722876 
L 892.569337 354.7359 
L 950.157216 354.7359 
" style="fill:none;stroke:#5cb85c;stroke-linecap:square;"/>
   </g>
   <g id="line2d_125">
    <path clip-path="url(#p709c5cb3c9)" d="M 43.148125 354.7359 
L 993.348125 354.7359 
" style="fill:none;stroke:#dedede;stroke-linecap:square;stroke-width:2;"/>
   </g>
   <g id="text_25">
    <!-- FastQC: Sequence Duplication Levels -->
    <g transform="translate(369.834375 19.3575)scale(0.16 -0.16)">
     <defs>
      <path d="M 628 4666 
L 3309 4666 
L 3309 4134 
L 1259 4134 
L 1259 2759 
L 3109 2759 
L 3109 2228 
L 1259 2228 
L 1259 0 
L 628 0 
L 628 4666 
z
" id="DejaVuSans-46" transform="scale(0.015625)"/>
      <path d="M 2834 3397 
L 2834 2853 
Q 2591 2978 2328 3040 
Q 2066 3103 1784 3103 
Q 1356 3103 1142 2972 
Q 928 2841 928 2578 
Q 928 2378 1081 2264 
Q 1234 2150 1697 2047 
L 1894 2003 
Q 2506 1872 2764 1633 
Q 3022 1394 3022 966 
Q 3022 478 2636 193 
Q 2250 -91 1575 -91 
Q 1294 -91 989 -36 
Q 684 19 347 128 
L 347 722 
Q 666 556 975 473 
Q 1284 391 1588 391 
Q 1994 391 2212 530 
Q 2431 669 2431 922 
Q 2431 1156 2273 1281 
Q 2116 1406 1581 1522 
L 1381 1569 
Q 847 1681 609 1914 
Q 372 2147 372 2553 
Q 372 3047 722 3315 
Q 1072 3584 1716 3584 
Q 2034 3584 2315 3537 
Q 2597 3491 2834 3397 
z
" id="DejaVuSans-73" transform="scale(0.015625)"/>
      <path d="M 2522 4238 
Q 1834 4238 1429 3725 
Q 1025 3213 1025 2328 
Q 1025 1447 1429 934 
Q 1834 422 2522 422 
Q 3209 422 3611 934 
Q 4013 1447 4013 2328 
Q 4013 3213 3611 3725 
Q 3209 4238 2522 4238 
z
M 3406 84 
L 4238 -825 
L 3475 -825 
L 2784 -78 
Q 2681 -84 2626 -87 
Q 2572 -91 2522 -91 
Q 1538 -91 948 567 
Q 359 1225 359 2328 
Q 359 3434 948 4092 
Q 1538 4750 2522 4750 
Q 3503 4750 4090 4092 
Q 4678 3434 4678 2328 
Q 4678 1516 4351 937 
Q 4025 359 3406 84 
z
" id="DejaVuSans-51" transform="scale(0.015625)"/>
      <path d="M 4122 4306 
L 4122 3641 
Q 3803 3938 3442 4084 
Q 3081 4231 2675 4231 
Q 1875 4231 1450 3742 
Q 1025 3253 1025 2328 
Q 1025 1406 1450 917 
Q 1875 428 2675 428 
Q 3081 428 3442 575 
Q 3803 722 4122 1019 
L 4122 359 
Q 3791 134 3420 21 
Q 3050 -91 2638 -91 
Q 1578 -91 968 557 
Q 359 1206 359 2328 
Q 359 3453 968 4101 
Q 1578 4750 2638 4750 
Q 3056 4750 3426 4639 
Q 3797 4528 4122 4306 
z
" id="DejaVuSans-43" transform="scale(0.015625)"/>
      <path d="M 750 794 
L 1409 794 
L 1409 0 
L 750 0 
L 750 794 
z
M 750 3309 
L 1409 3309 
L 1409 2516 
L 750 2516 
L 750 3309 
z
" id="DejaVuSans-3a" transform="scale(0.015625)"/>
     </defs>
     <use xlink:href="#DejaVuSans-46"/>
     <use x="48.394531" xlink:href="#DejaVuSans-61"/>
     <use x="109.673828" xlink:href="#DejaVuSans-73"/>
     <use x="161.773438" xlink:href="#DejaVuSans-74"/>
     <use x="200.982422" xlink:href="#DejaVuSans-51"/>
     <use x="279.693359" xlink:href="#DejaVuSans-43"/>
     <use x="349.517578" xlink:href="#DejaVuSans-3a"/>
     <use x="383.208984" xlink:href="#DejaVuSans-20"/>
     <use x="414.996094" xlink:href="#DejaVuSans-53"/>
     <use x="478.472656" xlink:href="#DejaVuSans-65"/>
     <use x="539.996094" xlink:href="#DejaVuSans-71"/>
     <use x="603.472656" xlink:href="#DejaVuSans-75"/>
     <use x="666.851562" xlink:href="#DejaVuSans-65"/>
     <use x="728.375" xlink:href="#DejaVuSans-6e"/>
     <use x="791.753906" xlink:href="#DejaVuSans-63"/>
     <use x="846.734375" xlink:href="#DejaVuSans-65"/>
     <use x="908.257812" xlink:href="#DejaVuSans-20"/>
     <use x="940.044922" xlink:href="#DejaVuSans-44"/>
     <use x="1017.046875" xlink:href="#DejaVuSans-75"/>
     <use x="1080.425781" xlink:href="#DejaVuSans-70"/>
     <use x="1143.902344" xlink:href="#DejaVuSans-6c"/>
     <use x="1171.685547" xlink:href="#DejaVuSans-69"/>
     <use x="1199.46875" xlink:href="#DejaVuSans-63"/>
     <use x="1254.449219" xlink:href="#DejaVuSans-61"/>
     <use x="1315.728516" xlink:href="#DejaVuSans-74"/>
     <use x="1354.9375" xlink:href="#DejaVuSans-69"/>
     <use x="1382.720703" xlink:href="#DejaVuSans-6f"/>
     <use x="1443.902344" xlink:href="#DejaVuSans-6e"/>
     <use x="1507.28125" xlink:href="#DejaVuSans-20"/>
     <use x="1539.068359" xlink:href="#DejaVuSans-4c"/>
     <use x="1593.03125" xlink:href="#DejaVuSans-65"/>
     <use x="1654.554688" xlink:href="#DejaVuSans-76"/>
     <use x="1713.734375" xlink:href="#DejaVuSans-65"/>
     <use x="1775.257812" xlink:href="#DejaVuSans-6c"/>
     <use x="1803.041016" xlink:href="#DejaVuSans-73"/>
    </g>
   </g>
  </g>
 </g>
 <defs>
  <clipPath id="p709c5cb3c9">
   <rect height="319.408" width="950.2" x="43.148125" y="35.3279"/>
  </clipPath>
 </defs>
</svg>
