<?xml version="1.0" encoding="utf-8" standalone="no"?>
<!DOCTYPE svg PUBLIC "-//W3C//DTD SVG 1.1//EN"
  "http://www.w3.org/Graphics/SVG/1.1/DTD/svg11.dtd">
<svg height="426.2pt" version="1.1" viewBox="0 0 832.743125 426.2" width="832.743125pt" xmlns="http://www.w3.org/2000/svg" xmlns:xlink="http://www.w3.org/1999/xlink">
 <metadata>
  <rdf:RDF xmlns:cc="http://creativecommons.org/ns#" xmlns:dc="http://purl.org/dc/elements/1.1/" xmlns:rdf="http://www.w3.org/1999/02/22-rdf-syntax-ns#">
   <cc:Work>
    <dc:type rdf:resource="http://purl.org/dc/dcmitype/StillImage"/>
    <dc:date>2021-09-26T11:13:22.401858</dc:date>
    <dc:format>image/svg+xml</dc:format>
    <dc:creator>
     <cc:Agent>
      <dc:title>Matplotlib v3.4.2, https://matplotlib.org/</dc:title>
     </cc:Agent>
    </dc:creator>
   </cc:Work>
  </rdf:RDF>
 </metadata>
 <defs>
  <style type="text/css">*{stroke-linecap:butt;stroke-linejoin:round;}</style>
 </defs>
 <g id="figure_1">
  <g id="axes_1">
   <g id="patch_1">
    <path d="M 32.9075 339.84 
L 814.1075 339.84 
L 814.1075 7.2 
L 32.9075 7.2 
z
" style="fill:#ffffff;"/>
   </g>
   <g id="matplotlib.axis_1">
    <g id="xtick_1">
     <g id="line2d_1">
      <path clip-path="url(#p533aa63848)" d="M 32.9075 339.84 
L 32.9075 7.2 
" style="fill:none;stroke:#dedede;stroke-linecap:square;"/>
     </g>
     <g id="text_1">
      <!-- 0% -->
      <g transform="translate(26.561875 352.91875)scale(0.08 -0.08)">
       <defs>
        <path d="M 2034 4250 
Q 1547 4250 1301 3770 
Q 1056 3291 1056 2328 
Q 1056 1369 1301 889 
Q 1547 409 2034 409 
Q 2525 409 2770 889 
Q 3016 1369 3016 2328 
Q 3016 3291 2770 3770 
Q 2525 4250 2034 4250 
z
M 2034 4750 
Q 2819 4750 3233 4129 
Q 3647 3509 3647 2328 
Q 3647 1150 3233 529 
Q 2819 -91 2034 -91 
Q 1250 -91 836 529 
Q 422 1150 422 2328 
Q 422 3509 836 4129 
Q 1250 4750 2034 4750 
z
" id="DejaVuSans-30" transform="scale(0.015625)"/>
        <path d="M 4653 2053 
Q 4381 2053 4226 1822 
Q 4072 1591 4072 1178 
Q 4072 772 4226 539 
Q 4381 306 4653 306 
Q 4919 306 5073 539 
Q 5228 772 5228 1178 
Q 5228 1588 5073 1820 
Q 4919 2053 4653 2053 
z
M 4653 2450 
Q 5147 2450 5437 2106 
Q 5728 1763 5728 1178 
Q 5728 594 5436 251 
Q 5144 -91 4653 -91 
Q 4153 -91 3862 251 
Q 3572 594 3572 1178 
Q 3572 1766 3864 2108 
Q 4156 2450 4653 2450 
z
M 1428 4353 
Q 1159 4353 1004 4120 
Q 850 3888 850 3481 
Q 850 3069 1003 2837 
Q 1156 2606 1428 2606 
Q 1700 2606 1854 2837 
Q 2009 3069 2009 3481 
Q 2009 3884 1853 4118 
Q 1697 4353 1428 4353 
z
M 4250 4750 
L 4750 4750 
L 1831 -91 
L 1331 -91 
L 4250 4750 
z
M 1428 4750 
Q 1922 4750 2215 4408 
Q 2509 4066 2509 3481 
Q 2509 2891 2217 2550 
Q 1925 2209 1428 2209 
Q 931 2209 642 2551 
Q 353 2894 353 3481 
Q 353 4063 643 4406 
Q 934 4750 1428 4750 
z
" id="DejaVuSans-25" transform="scale(0.015625)"/>
       </defs>
       <use xlink:href="#DejaVuSans-30"/>
       <use x="63.623047" xlink:href="#DejaVuSans-25"/>
      </g>
     </g>
    </g>
    <g id="xtick_2">
     <g id="line2d_2">
      <path clip-path="url(#p533aa63848)" d="M 189.1475 339.84 
L 189.1475 7.2 
" style="fill:none;stroke:#dedede;stroke-linecap:square;"/>
     </g>
     <g id="text_2">
      <!-- 20% -->
      <g transform="translate(180.256875 352.91875)scale(0.08 -0.08)">
       <defs>
        <path d="M 1228 531 
L 3431 531 
L 3431 0 
L 469 0 
L 469 531 
Q 828 903 1448 1529 
Q 2069 2156 2228 2338 
Q 2531 2678 2651 2914 
Q 2772 3150 2772 3378 
Q 2772 3750 2511 3984 
Q 2250 4219 1831 4219 
Q 1534 4219 1204 4116 
Q 875 4013 500 3803 
L 500 4441 
Q 881 4594 1212 4672 
Q 1544 4750 1819 4750 
Q 2544 4750 2975 4387 
Q 3406 4025 3406 3419 
Q 3406 3131 3298 2873 
Q 3191 2616 2906 2266 
Q 2828 2175 2409 1742 
Q 1991 1309 1228 531 
z
" id="DejaVuSans-32" transform="scale(0.015625)"/>
       </defs>
       <use xlink:href="#DejaVuSans-32"/>
       <use x="63.623047" xlink:href="#DejaVuSans-30"/>
       <use x="127.246094" xlink:href="#DejaVuSans-25"/>
      </g>
     </g>
    </g>
    <g id="xtick_3">
     <g id="line2d_3">
      <path clip-path="url(#p533aa63848)" d="M 345.3875 339.84 
L 345.3875 7.2 
" style="fill:none;stroke:#dedede;stroke-linecap:square;"/>
     </g>
     <g id="text_3">
      <!-- 40% -->
      <g transform="translate(336.496875 352.91875)scale(0.08 -0.08)">
       <defs>
        <path d="M 2419 4116 
L 825 1625 
L 2419 1625 
L 2419 4116 
z
M 2253 4666 
L 3047 4666 
L 3047 1625 
L 3713 1625 
L 3713 1100 
L 3047 1100 
L 3047 0 
L 2419 0 
L 2419 1100 
L 313 1100 
L 313 1709 
L 2253 4666 
z
" id="DejaVuSans-34" transform="scale(0.015625)"/>
       </defs>
       <use xlink:href="#DejaVuSans-34"/>
       <use x="63.623047" xlink:href="#DejaVuSans-30"/>
       <use x="127.246094" xlink:href="#DejaVuSans-25"/>
      </g>
     </g>
    </g>
    <g id="xtick_4">
     <g id="line2d_4">
      <path clip-path="url(#p533aa63848)" d="M 501.6275 339.84 
L 501.6275 7.2 
" style="fill:none;stroke:#dedede;stroke-linecap:square;"/>
     </g>
     <g id="text_4">
      <!-- 60% -->
      <g transform="translate(492.736875 352.91875)scale(0.08 -0.08)">
       <defs>
        <path d="M 2113 2584 
Q 1688 2584 1439 2293 
Q 1191 2003 1191 1497 
Q 1191 994 1439 701 
Q 1688 409 2113 409 
Q 2538 409 2786 701 
Q 3034 994 3034 1497 
Q 3034 2003 2786 2293 
Q 2538 2584 2113 2584 
z
M 3366 4563 
L 3366 3988 
Q 3128 4100 2886 4159 
Q 2644 4219 2406 4219 
Q 1781 4219 1451 3797 
Q 1122 3375 1075 2522 
Q 1259 2794 1537 2939 
Q 1816 3084 2150 3084 
Q 2853 3084 3261 2657 
Q 3669 2231 3669 1497 
Q 3669 778 3244 343 
Q 2819 -91 2113 -91 
Q 1303 -91 875 529 
Q 447 1150 447 2328 
Q 447 3434 972 4092 
Q 1497 4750 2381 4750 
Q 2619 4750 2861 4703 
Q 3103 4656 3366 4563 
z
" id="DejaVuSans-36" transform="scale(0.015625)"/>
       </defs>
       <use xlink:href="#DejaVuSans-36"/>
       <use x="63.623047" xlink:href="#DejaVuSans-30"/>
       <use x="127.246094" xlink:href="#DejaVuSans-25"/>
      </g>
     </g>
    </g>
    <g id="xtick_5">
     <g id="line2d_5">
      <path clip-path="url(#p533aa63848)" d="M 657.8675 339.84 
L 657.8675 7.2 
" style="fill:none;stroke:#dedede;stroke-linecap:square;"/>
     </g>
     <g id="text_5">
      <!-- 80% -->
      <g transform="translate(648.976875 352.91875)scale(0.08 -0.08)">
       <defs>
        <path d="M 2034 2216 
Q 1584 2216 1326 1975 
Q 1069 1734 1069 1313 
Q 1069 891 1326 650 
Q 1584 409 2034 409 
Q 2484 409 2743 651 
Q 3003 894 3003 1313 
Q 3003 1734 2745 1975 
Q 2488 2216 2034 2216 
z
M 1403 2484 
Q 997 2584 770 2862 
Q 544 3141 544 3541 
Q 544 4100 942 4425 
Q 1341 4750 2034 4750 
Q 2731 4750 3128 4425 
Q 3525 4100 3525 3541 
Q 3525 3141 3298 2862 
Q 3072 2584 2669 2484 
Q 3125 2378 3379 2068 
Q 3634 1759 3634 1313 
Q 3634 634 3220 271 
Q 2806 -91 2034 -91 
Q 1263 -91 848 271 
Q 434 634 434 1313 
Q 434 1759 690 2068 
Q 947 2378 1403 2484 
z
M 1172 3481 
Q 1172 3119 1398 2916 
Q 1625 2713 2034 2713 
Q 2441 2713 2670 2916 
Q 2900 3119 2900 3481 
Q 2900 3844 2670 4047 
Q 2441 4250 2034 4250 
Q 1625 4250 1398 4047 
Q 1172 3844 1172 3481 
z
" id="DejaVuSans-38" transform="scale(0.015625)"/>
       </defs>
       <use xlink:href="#DejaVuSans-38"/>
       <use x="63.623047" xlink:href="#DejaVuSans-30"/>
       <use x="127.246094" xlink:href="#DejaVuSans-25"/>
      </g>
     </g>
    </g>
    <g id="xtick_6">
     <g id="line2d_6">
      <path clip-path="url(#p533aa63848)" d="M 814.1075 339.84 
L 814.1075 7.2 
" style="fill:none;stroke:#dedede;stroke-linecap:square;"/>
     </g>
     <g id="text_6">
      <!-- 100% -->
      <g transform="translate(802.671875 352.91875)scale(0.08 -0.08)">
       <defs>
        <path d="M 794 531 
L 1825 531 
L 1825 4091 
L 703 3866 
L 703 4441 
L 1819 4666 
L 2450 4666 
L 2450 531 
L 3481 531 
L 3481 0 
L 794 0 
L 794 531 
z
" id="DejaVuSans-31" transform="scale(0.015625)"/>
       </defs>
       <use xlink:href="#DejaVuSans-31"/>
       <use x="63.623047" xlink:href="#DejaVuSans-30"/>
       <use x="127.246094" xlink:href="#DejaVuSans-30"/>
       <use x="190.869141" xlink:href="#DejaVuSans-25"/>
      </g>
     </g>
    </g>
    <g id="text_7">
     <!-- # Contigs -->
     <g transform="translate(398.880938 366.180937)scale(0.1 -0.1)">
      <defs>
       <path d="M 3272 2816 
L 2363 2816 
L 2100 1772 
L 3016 1772 
L 3272 2816 
z
M 2803 4594 
L 2478 3297 
L 3391 3297 
L 3719 4594 
L 4219 4594 
L 3897 3297 
L 4872 3297 
L 4872 2816 
L 3775 2816 
L 3519 1772 
L 4513 1772 
L 4513 1294 
L 3397 1294 
L 3072 0 
L 2572 0 
L 2894 1294 
L 1978 1294 
L 1656 0 
L 1153 0 
L 1478 1294 
L 494 1294 
L 494 1772 
L 1594 1772 
L 1856 2816 
L 850 2816 
L 850 3297 
L 1978 3297 
L 2297 4594 
L 2803 4594 
z
" id="DejaVuSans-23" transform="scale(0.015625)"/>
       <path id="DejaVuSans-20" transform="scale(0.015625)"/>
       <path d="M 4122 4306 
L 4122 3641 
Q 3803 3938 3442 4084 
Q 3081 4231 2675 4231 
Q 1875 4231 1450 3742 
Q 1025 3253 1025 2328 
Q 1025 1406 1450 917 
Q 1875 428 2675 428 
Q 3081 428 3442 575 
Q 3803 722 4122 1019 
L 4122 359 
Q 3791 134 3420 21 
Q 3050 -91 2638 -91 
Q 1578 -91 968 557 
Q 359 1206 359 2328 
Q 359 3453 968 4101 
Q 1578 4750 2638 4750 
Q 3056 4750 3426 4639 
Q 3797 4528 4122 4306 
z
" id="DejaVuSans-43" transform="scale(0.015625)"/>
       <path d="M 1959 3097 
Q 1497 3097 1228 2736 
Q 959 2375 959 1747 
Q 959 1119 1226 758 
Q 1494 397 1959 397 
Q 2419 397 2687 759 
Q 2956 1122 2956 1747 
Q 2956 2369 2687 2733 
Q 2419 3097 1959 3097 
z
M 1959 3584 
Q 2709 3584 3137 3096 
Q 3566 2609 3566 1747 
Q 3566 888 3137 398 
Q 2709 -91 1959 -91 
Q 1206 -91 779 398 
Q 353 888 353 1747 
Q 353 2609 779 3096 
Q 1206 3584 1959 3584 
z
" id="DejaVuSans-6f" transform="scale(0.015625)"/>
       <path d="M 3513 2113 
L 3513 0 
L 2938 0 
L 2938 2094 
Q 2938 2591 2744 2837 
Q 2550 3084 2163 3084 
Q 1697 3084 1428 2787 
Q 1159 2491 1159 1978 
L 1159 0 
L 581 0 
L 581 3500 
L 1159 3500 
L 1159 2956 
Q 1366 3272 1645 3428 
Q 1925 3584 2291 3584 
Q 2894 3584 3203 3211 
Q 3513 2838 3513 2113 
z
" id="DejaVuSans-6e" transform="scale(0.015625)"/>
       <path d="M 1172 4494 
L 1172 3500 
L 2356 3500 
L 2356 3053 
L 1172 3053 
L 1172 1153 
Q 1172 725 1289 603 
Q 1406 481 1766 481 
L 2356 481 
L 2356 0 
L 1766 0 
Q 1100 0 847 248 
Q 594 497 594 1153 
L 594 3053 
L 172 3053 
L 172 3500 
L 594 3500 
L 594 4494 
L 1172 4494 
z
" id="DejaVuSans-74" transform="scale(0.015625)"/>
       <path d="M 603 3500 
L 1178 3500 
L 1178 0 
L 603 0 
L 603 3500 
z
M 603 4863 
L 1178 4863 
L 1178 4134 
L 603 4134 
L 603 4863 
z
" id="DejaVuSans-69" transform="scale(0.015625)"/>
       <path d="M 2906 1791 
Q 2906 2416 2648 2759 
Q 2391 3103 1925 3103 
Q 1463 3103 1205 2759 
Q 947 2416 947 1791 
Q 947 1169 1205 825 
Q 1463 481 1925 481 
Q 2391 481 2648 825 
Q 2906 1169 2906 1791 
z
M 3481 434 
Q 3481 -459 3084 -895 
Q 2688 -1331 1869 -1331 
Q 1566 -1331 1297 -1286 
Q 1028 -1241 775 -1147 
L 775 -588 
Q 1028 -725 1275 -790 
Q 1522 -856 1778 -856 
Q 2344 -856 2625 -561 
Q 2906 -266 2906 331 
L 2906 616 
Q 2728 306 2450 153 
Q 2172 0 1784 0 
Q 1141 0 747 490 
Q 353 981 353 1791 
Q 353 2603 747 3093 
Q 1141 3584 1784 3584 
Q 2172 3584 2450 3431 
Q 2728 3278 2906 2969 
L 2906 3500 
L 3481 3500 
L 3481 434 
z
" id="DejaVuSans-67" transform="scale(0.015625)"/>
       <path d="M 2834 3397 
L 2834 2853 
Q 2591 2978 2328 3040 
Q 2066 3103 1784 3103 
Q 1356 3103 1142 2972 
Q 928 2841 928 2578 
Q 928 2378 1081 2264 
Q 1234 2150 1697 2047 
L 1894 2003 
Q 2506 1872 2764 1633 
Q 3022 1394 3022 966 
Q 3022 478 2636 193 
Q 2250 -91 1575 -91 
Q 1294 -91 989 -36 
Q 684 19 347 128 
L 347 722 
Q 666 556 975 473 
Q 1284 391 1588 391 
Q 1994 391 2212 530 
Q 2431 669 2431 922 
Q 2431 1156 2273 1281 
Q 2116 1406 1581 1522 
L 1381 1569 
Q 847 1681 609 1914 
Q 372 2147 372 2553 
Q 372 3047 722 3315 
Q 1072 3584 1716 3584 
Q 2034 3584 2315 3537 
Q 2597 3491 2834 3397 
z
" id="DejaVuSans-73" transform="scale(0.015625)"/>
      </defs>
      <use xlink:href="#DejaVuSans-23"/>
      <use x="83.789062" xlink:href="#DejaVuSans-20"/>
      <use x="115.576172" xlink:href="#DejaVuSans-43"/>
      <use x="185.400391" xlink:href="#DejaVuSans-6f"/>
      <use x="246.582031" xlink:href="#DejaVuSans-6e"/>
      <use x="309.960938" xlink:href="#DejaVuSans-74"/>
      <use x="349.169922" xlink:href="#DejaVuSans-69"/>
      <use x="376.953125" xlink:href="#DejaVuSans-67"/>
      <use x="440.429688" xlink:href="#DejaVuSans-73"/>
     </g>
    </g>
   </g>
   <g id="matplotlib.axis_2">
    <g id="ytick_1">
     <g id="text_8">
      <!-- IndA -->
      <g transform="translate(7.92625 26.871375)scale(0.08 -0.08)">
       <defs>
        <path d="M 628 4666 
L 1259 4666 
L 1259 0 
L 628 0 
L 628 4666 
z
" id="DejaVuSans-49" transform="scale(0.015625)"/>
        <path d="M 2906 2969 
L 2906 4863 
L 3481 4863 
L 3481 0 
L 2906 0 
L 2906 525 
Q 2725 213 2448 61 
Q 2172 -91 1784 -91 
Q 1150 -91 751 415 
Q 353 922 353 1747 
Q 353 2572 751 3078 
Q 1150 3584 1784 3584 
Q 2172 3584 2448 3432 
Q 2725 3281 2906 2969 
z
M 947 1747 
Q 947 1113 1208 752 
Q 1469 391 1925 391 
Q 2381 391 2643 752 
Q 2906 1113 2906 1747 
Q 2906 2381 2643 2742 
Q 2381 3103 1925 3103 
Q 1469 3103 1208 2742 
Q 947 2381 947 1747 
z
" id="DejaVuSans-64" transform="scale(0.015625)"/>
        <path d="M 2188 4044 
L 1331 1722 
L 3047 1722 
L 2188 4044 
z
M 1831 4666 
L 2547 4666 
L 4325 0 
L 3669 0 
L 3244 1197 
L 1141 1197 
L 716 0 
L 50 0 
L 1831 4666 
z
" id="DejaVuSans-41" transform="scale(0.015625)"/>
       </defs>
       <use xlink:href="#DejaVuSans-49"/>
       <use x="29.492188" xlink:href="#DejaVuSans-6e"/>
       <use x="92.871094" xlink:href="#DejaVuSans-64"/>
       <use x="156.347656" xlink:href="#DejaVuSans-41"/>
      </g>
     </g>
    </g>
    <g id="ytick_2">
     <g id="text_9">
      <!-- IndB -->
      <g transform="translate(7.91 60.135375)scale(0.08 -0.08)">
       <defs>
        <path d="M 1259 2228 
L 1259 519 
L 2272 519 
Q 2781 519 3026 730 
Q 3272 941 3272 1375 
Q 3272 1813 3026 2020 
Q 2781 2228 2272 2228 
L 1259 2228 
z
M 1259 4147 
L 1259 2741 
L 2194 2741 
Q 2656 2741 2882 2914 
Q 3109 3088 3109 3444 
Q 3109 3797 2882 3972 
Q 2656 4147 2194 4147 
L 1259 4147 
z
M 628 4666 
L 2241 4666 
Q 2963 4666 3353 4366 
Q 3744 4066 3744 3513 
Q 3744 3084 3544 2831 
Q 3344 2578 2956 2516 
Q 3422 2416 3680 2098 
Q 3938 1781 3938 1306 
Q 3938 681 3513 340 
Q 3088 0 2303 0 
L 628 0 
L 628 4666 
z
" id="DejaVuSans-42" transform="scale(0.015625)"/>
       </defs>
       <use xlink:href="#DejaVuSans-49"/>
       <use x="29.492188" xlink:href="#DejaVuSans-6e"/>
       <use x="92.871094" xlink:href="#DejaVuSans-64"/>
       <use x="156.347656" xlink:href="#DejaVuSans-42"/>
      </g>
     </g>
    </g>
    <g id="ytick_3">
     <g id="text_10">
      <!-- IndC -->
      <g transform="translate(7.8125 93.399375)scale(0.08 -0.08)">
       <use xlink:href="#DejaVuSans-49"/>
       <use x="29.492188" xlink:href="#DejaVuSans-6e"/>
       <use x="92.871094" xlink:href="#DejaVuSans-64"/>
       <use x="156.347656" xlink:href="#DejaVuSans-43"/>
      </g>
     </g>
    </g>
    <g id="ytick_4">
     <g id="text_11">
      <!-- IndD -->
      <g transform="translate(7.23875 126.663375)scale(0.08 -0.08)">
       <defs>
        <path d="M 1259 4147 
L 1259 519 
L 2022 519 
Q 2988 519 3436 956 
Q 3884 1394 3884 2338 
Q 3884 3275 3436 3711 
Q 2988 4147 2022 4147 
L 1259 4147 
z
M 628 4666 
L 1925 4666 
Q 3281 4666 3915 4102 
Q 4550 3538 4550 2338 
Q 4550 1131 3912 565 
Q 3275 0 1925 0 
L 628 0 
L 628 4666 
z
" id="DejaVuSans-44" transform="scale(0.015625)"/>
       </defs>
       <use xlink:href="#DejaVuSans-49"/>
       <use x="29.492188" xlink:href="#DejaVuSans-6e"/>
       <use x="92.871094" xlink:href="#DejaVuSans-64"/>
       <use x="156.347656" xlink:href="#DejaVuSans-44"/>
      </g>
     </g>
    </g>
    <g id="ytick_5">
     <g id="text_12">
      <!-- IndE -->
      <g transform="translate(8.34375 159.927375)scale(0.08 -0.08)">
       <defs>
        <path d="M 628 4666 
L 3578 4666 
L 3578 4134 
L 1259 4134 
L 1259 2753 
L 3481 2753 
L 3481 2222 
L 1259 2222 
L 1259 531 
L 3634 531 
L 3634 0 
L 628 0 
L 628 4666 
z
" id="DejaVuSans-45" transform="scale(0.015625)"/>
       </defs>
       <use xlink:href="#DejaVuSans-49"/>
       <use x="29.492188" xlink:href="#DejaVuSans-6e"/>
       <use x="92.871094" xlink:href="#DejaVuSans-64"/>
       <use x="156.347656" xlink:href="#DejaVuSans-45"/>
      </g>
     </g>
    </g>
    <g id="ytick_6">
     <g id="text_13">
      <!-- IndF -->
      <g transform="translate(8.7975 193.191375)scale(0.08 -0.08)">
       <defs>
        <path d="M 628 4666 
L 3309 4666 
L 3309 4134 
L 1259 4134 
L 1259 2759 
L 3109 2759 
L 3109 2228 
L 1259 2228 
L 1259 0 
L 628 0 
L 628 4666 
z
" id="DejaVuSans-46" transform="scale(0.015625)"/>
       </defs>
       <use xlink:href="#DejaVuSans-49"/>
       <use x="29.492188" xlink:href="#DejaVuSans-6e"/>
       <use x="92.871094" xlink:href="#DejaVuSans-64"/>
       <use x="156.347656" xlink:href="#DejaVuSans-46"/>
      </g>
     </g>
    </g>
    <g id="ytick_7">
     <g id="text_14">
      <!-- IndG -->
      <g transform="translate(7.2 226.455375)scale(0.08 -0.08)">
       <defs>
        <path d="M 3809 666 
L 3809 1919 
L 2778 1919 
L 2778 2438 
L 4434 2438 
L 4434 434 
Q 4069 175 3628 42 
Q 3188 -91 2688 -91 
Q 1594 -91 976 548 
Q 359 1188 359 2328 
Q 359 3472 976 4111 
Q 1594 4750 2688 4750 
Q 3144 4750 3555 4637 
Q 3966 4525 4313 4306 
L 4313 3634 
Q 3963 3931 3569 4081 
Q 3175 4231 2741 4231 
Q 1884 4231 1454 3753 
Q 1025 3275 1025 2328 
Q 1025 1384 1454 906 
Q 1884 428 2741 428 
Q 3075 428 3337 486 
Q 3600 544 3809 666 
z
" id="DejaVuSans-47" transform="scale(0.015625)"/>
       </defs>
       <use xlink:href="#DejaVuSans-49"/>
       <use x="29.492188" xlink:href="#DejaVuSans-6e"/>
       <use x="92.871094" xlink:href="#DejaVuSans-64"/>
       <use x="156.347656" xlink:href="#DejaVuSans-47"/>
      </g>
     </g>
    </g>
    <g id="ytick_8">
     <g id="text_15">
      <!-- IndH -->
      <g transform="translate(7.3825 259.719375)scale(0.08 -0.08)">
       <defs>
        <path d="M 628 4666 
L 1259 4666 
L 1259 2753 
L 3553 2753 
L 3553 4666 
L 4184 4666 
L 4184 0 
L 3553 0 
L 3553 2222 
L 1259 2222 
L 1259 0 
L 628 0 
L 628 4666 
z
" id="DejaVuSans-48" transform="scale(0.015625)"/>
       </defs>
       <use xlink:href="#DejaVuSans-49"/>
       <use x="29.492188" xlink:href="#DejaVuSans-6e"/>
       <use x="92.871094" xlink:href="#DejaVuSans-64"/>
       <use x="156.347656" xlink:href="#DejaVuSans-48"/>
      </g>
     </g>
    </g>
    <g id="ytick_9">
     <g id="text_16">
      <!-- IndI -->
      <g transform="translate(11.03875 292.983375)scale(0.08 -0.08)">
       <use xlink:href="#DejaVuSans-49"/>
       <use x="29.492188" xlink:href="#DejaVuSans-6e"/>
       <use x="92.871094" xlink:href="#DejaVuSans-64"/>
       <use x="156.347656" xlink:href="#DejaVuSans-49"/>
      </g>
     </g>
    </g>
    <g id="ytick_10">
     <g id="text_17">
      <!-- IndJ -->
      <g transform="translate(11.03875 326.247375)scale(0.08 -0.08)">
       <defs>
        <path d="M 628 4666 
L 1259 4666 
L 1259 325 
Q 1259 -519 939 -900 
Q 619 -1281 -91 -1281 
L -331 -1281 
L -331 -750 
L -134 -750 
Q 284 -750 456 -515 
Q 628 -281 628 325 
L 628 4666 
z
" id="DejaVuSans-4a" transform="scale(0.015625)"/>
       </defs>
       <use xlink:href="#DejaVuSans-49"/>
       <use x="29.492188" xlink:href="#DejaVuSans-6e"/>
       <use x="92.871094" xlink:href="#DejaVuSans-64"/>
       <use x="156.347656" xlink:href="#DejaVuSans-4a"/>
      </g>
     </g>
    </g>
   </g>
   <g id="patch_2">
    <path clip-path="url(#p533aa63848)" d="M 32.9075 10.5264 
L 55.701998 10.5264 
L 55.701998 37.1376 
L 32.9075 37.1376 
z
" style="fill:#7cb5ec;"/>
   </g>
   <g id="patch_3">
    <path clip-path="url(#p533aa63848)" d="M 32.9075 43.7904 
L 50.028378 43.7904 
L 50.028378 70.4016 
L 32.9075 70.4016 
z
" style="fill:#7cb5ec;"/>
   </g>
   <g id="patch_4">
    <path clip-path="url(#p533aa63848)" d="M 32.9075 77.0544 
L 46.926134 77.0544 
L 46.926134 103.6656 
L 32.9075 103.6656 
z
" style="fill:#7cb5ec;"/>
   </g>
   <g id="patch_5">
    <path clip-path="url(#p533aa63848)" d="M 32.9075 110.3184 
L 46.990028 110.3184 
L 46.990028 136.9296 
L 32.9075 136.9296 
z
" style="fill:#7cb5ec;"/>
   </g>
   <g id="patch_6">
    <path clip-path="url(#p533aa63848)" d="M 32.9075 143.5824 
L 45.411668 143.5824 
L 45.411668 170.1936 
L 32.9075 170.1936 
z
" style="fill:#7cb5ec;"/>
   </g>
   <g id="patch_7">
    <path clip-path="url(#p533aa63848)" d="M 32.9075 176.8464 
L 48.162689 176.8464 
L 48.162689 203.4576 
L 32.9075 203.4576 
z
" style="fill:#7cb5ec;"/>
   </g>
   <g id="patch_8">
    <path clip-path="url(#p533aa63848)" d="M 32.9075 210.1104 
L 46.530988 210.1104 
L 46.530988 236.7216 
L 32.9075 236.7216 
z
" style="fill:#7cb5ec;"/>
   </g>
   <g id="patch_9">
    <path clip-path="url(#p533aa63848)" d="M 32.9075 243.3744 
L 56.270156 243.3744 
L 56.270156 269.9856 
L 32.9075 269.9856 
z
" style="fill:#7cb5ec;"/>
   </g>
   <g id="patch_10">
    <path clip-path="url(#p533aa63848)" d="M 32.9075 276.6384 
L 56.013845 276.6384 
L 56.013845 303.2496 
L 32.9075 303.2496 
z
" style="fill:#7cb5ec;"/>
   </g>
   <g id="patch_11">
    <path clip-path="url(#p533aa63848)" d="M 32.9075 309.9024 
L 55.630203 309.9024 
L 55.630203 336.5136 
L 32.9075 336.5136 
z
" style="fill:#7cb5ec;"/>
   </g>
   <g id="patch_12">
    <path clip-path="url(#p533aa63848)" d="M 55.701998 10.5264 
L 85.730259 10.5264 
L 85.730259 37.1376 
L 55.701998 37.1376 
z
" style="fill:#434348;"/>
   </g>
   <g id="patch_13">
    <path clip-path="url(#p533aa63848)" d="M 50.028378 43.7904 
L 75.991219 43.7904 
L 75.991219 70.4016 
L 50.028378 70.4016 
z
" style="fill:#434348;"/>
   </g>
   <g id="patch_14">
    <path clip-path="url(#p533aa63848)" d="M 46.926134 77.0544 
L 66.376021 77.0544 
L 66.376021 103.6656 
L 46.926134 103.6656 
z
" style="fill:#434348;"/>
   </g>
   <g id="patch_15">
    <path clip-path="url(#p533aa63848)" d="M 46.990028 110.3184 
L 71.28079 110.3184 
L 71.28079 136.9296 
L 46.990028 136.9296 
z
" style="fill:#434348;"/>
   </g>
   <g id="patch_16">
    <path clip-path="url(#p533aa63848)" d="M 45.411668 143.5824 
L 67.893766 143.5824 
L 67.893766 170.1936 
L 45.411668 170.1936 
z
" style="fill:#434348;"/>
   </g>
   <g id="patch_17">
    <path clip-path="url(#p533aa63848)" d="M 48.162689 176.8464 
L 71.897767 176.8464 
L 71.897767 203.4576 
L 48.162689 203.4576 
z
" style="fill:#434348;"/>
   </g>
   <g id="patch_18">
    <path clip-path="url(#p533aa63848)" d="M 46.530988 210.1104 
L 68.58626 210.1104 
L 68.58626 236.7216 
L 46.530988 236.7216 
z
" style="fill:#434348;"/>
   </g>
   <g id="patch_19">
    <path clip-path="url(#p533aa63848)" d="M 56.270156 243.3744 
L 85.50031 243.3744 
L 85.50031 269.9856 
L 56.270156 269.9856 
z
" style="fill:#434348;"/>
   </g>
   <g id="patch_20">
    <path clip-path="url(#p533aa63848)" d="M 56.013845 276.6384 
L 84.789489 276.6384 
L 84.789489 303.2496 
L 56.013845 303.2496 
z
" style="fill:#434348;"/>
   </g>
   <g id="patch_21">
    <path clip-path="url(#p533aa63848)" d="M 55.630203 309.9024 
L 82.246447 309.9024 
L 82.246447 336.5136 
L 55.630203 336.5136 
z
" style="fill:#434348;"/>
   </g>
   <g id="patch_22">
    <path clip-path="url(#p533aa63848)" d="M 85.730259 10.5264 
L 160.766024 10.5264 
L 160.766024 37.1376 
L 85.730259 37.1376 
z
" style="fill:#90ed7d;"/>
   </g>
   <g id="patch_23">
    <path clip-path="url(#p533aa63848)" d="M 75.991219 43.7904 
L 154.067426 43.7904 
L 154.067426 70.4016 
L 75.991219 70.4016 
z
" style="fill:#90ed7d;"/>
   </g>
   <g id="patch_24">
    <path clip-path="url(#p533aa63848)" d="M 66.376021 77.0544 
L 124.2997 77.0544 
L 124.2997 103.6656 
L 66.376021 103.6656 
z
" style="fill:#90ed7d;"/>
   </g>
   <g id="patch_25">
    <path clip-path="url(#p533aa63848)" d="M 71.28079 110.3184 
L 140.811941 110.3184 
L 140.811941 136.9296 
L 71.28079 136.9296 
z
" style="fill:#90ed7d;"/>
   </g>
   <g id="patch_26">
    <path clip-path="url(#p533aa63848)" d="M 67.893766 143.5824 
L 139.609261 143.5824 
L 139.609261 170.1936 
L 67.893766 170.1936 
z
" style="fill:#90ed7d;"/>
   </g>
   <g id="patch_27">
    <path clip-path="url(#p533aa63848)" d="M 71.897767 176.8464 
L 142.164616 176.8464 
L 142.164616 203.4576 
L 71.897767 203.4576 
z
" style="fill:#90ed7d;"/>
   </g>
   <g id="patch_28">
    <path clip-path="url(#p533aa63848)" d="M 68.58626 210.1104 
L 136.646858 210.1104 
L 136.646858 236.7216 
L 68.58626 236.7216 
z
" style="fill:#90ed7d;"/>
   </g>
   <g id="patch_29">
    <path clip-path="url(#p533aa63848)" d="M 85.50031 243.3744 
L 159.488018 243.3744 
L 159.488018 269.9856 
L 85.50031 269.9856 
z
" style="fill:#90ed7d;"/>
   </g>
   <g id="patch_30">
    <path clip-path="url(#p533aa63848)" d="M 84.789489 276.6384 
L 161.110446 276.6384 
L 161.110446 303.2496 
L 84.789489 303.2496 
z
" style="fill:#90ed7d;"/>
   </g>
   <g id="patch_31">
    <path clip-path="url(#p533aa63848)" d="M 82.246447 309.9024 
L 144.044725 309.9024 
L 144.044725 336.5136 
L 82.246447 336.5136 
z
" style="fill:#90ed7d;"/>
   </g>
   <g id="patch_32">
    <path clip-path="url(#p533aa63848)" d="M 160.766024 10.5264 
L 270.179613 10.5264 
L 270.179613 37.1376 
L 160.766024 37.1376 
z
" style="fill:#f7a35c;"/>
   </g>
   <g id="patch_33">
    <path clip-path="url(#p533aa63848)" d="M 154.067426 43.7904 
L 271.598811 43.7904 
L 271.598811 70.4016 
L 154.067426 70.4016 
z
" style="fill:#f7a35c;"/>
   </g>
   <g id="patch_34">
    <path clip-path="url(#p533aa63848)" d="M 124.2997 77.0544 
L 226.234919 77.0544 
L 226.234919 103.6656 
L 124.2997 103.6656 
z
" style="fill:#f7a35c;"/>
   </g>
   <g id="patch_35">
    <path clip-path="url(#p533aa63848)" d="M 140.811941 110.3184 
L 253.123836 110.3184 
L 253.123836 136.9296 
L 140.811941 136.9296 
z
" style="fill:#f7a35c;"/>
   </g>
   <g id="patch_36">
    <path clip-path="url(#p533aa63848)" d="M 139.609261 143.5824 
L 254.927044 143.5824 
L 254.927044 170.1936 
L 139.609261 170.1936 
z
" style="fill:#f7a35c;"/>
   </g>
   <g id="patch_37">
    <path clip-path="url(#p533aa63848)" d="M 142.164616 176.8464 
L 253.074664 176.8464 
L 253.074664 203.4576 
L 142.164616 203.4576 
z
" style="fill:#f7a35c;"/>
   </g>
   <g id="patch_38">
    <path clip-path="url(#p533aa63848)" d="M 136.646858 210.1104 
L 248.287461 210.1104 
L 248.287461 236.7216 
L 136.646858 236.7216 
z
" style="fill:#f7a35c;"/>
   </g>
   <g id="patch_39">
    <path clip-path="url(#p533aa63848)" d="M 159.488018 243.3744 
L 262.866877 243.3744 
L 262.866877 269.9856 
L 159.488018 269.9856 
z
" style="fill:#f7a35c;"/>
   </g>
   <g id="patch_40">
    <path clip-path="url(#p533aa63848)" d="M 161.110446 276.6384 
L 277.421417 276.6384 
L 277.421417 303.2496 
L 161.110446 303.2496 
z
" style="fill:#f7a35c;"/>
   </g>
   <g id="patch_41">
    <path clip-path="url(#p533aa63848)" d="M 144.044725 309.9024 
L 240.729127 309.9024 
L 240.729127 336.5136 
L 144.044725 336.5136 
z
" style="fill:#f7a35c;"/>
   </g>
   <g id="patch_42">
    <path clip-path="url(#p533aa63848)" d="M 270.179613 10.5264 
L 814.1075 10.5264 
L 814.1075 37.1376 
L 270.179613 37.1376 
z
" style="fill:#8085e9;"/>
   </g>
   <g id="patch_43">
    <path clip-path="url(#p533aa63848)" d="M 271.598811 43.7904 
L 814.1075 43.7904 
L 814.1075 70.4016 
L 271.598811 70.4016 
z
" style="fill:#8085e9;"/>
   </g>
   <g id="patch_44">
    <path clip-path="url(#p533aa63848)" d="M 226.234919 77.0544 
L 814.1075 77.0544 
L 814.1075 103.6656 
L 226.234919 103.6656 
z
" style="fill:#8085e9;"/>
   </g>
   <g id="patch_45">
    <path clip-path="url(#p533aa63848)" d="M 253.123836 110.3184 
L 814.1075 110.3184 
L 814.1075 136.9296 
L 253.123836 136.9296 
z
" style="fill:#8085e9;"/>
   </g>
   <g id="patch_46">
    <path clip-path="url(#p533aa63848)" d="M 254.927044 143.5824 
L 814.1075 143.5824 
L 814.1075 170.1936 
L 254.927044 170.1936 
z
" style="fill:#8085e9;"/>
   </g>
   <g id="patch_47">
    <path clip-path="url(#p533aa63848)" d="M 253.074664 176.8464 
L 814.1075 176.8464 
L 814.1075 203.4576 
L 253.074664 203.4576 
z
" style="fill:#8085e9;"/>
   </g>
   <g id="patch_48">
    <path clip-path="url(#p533aa63848)" d="M 248.287461 210.1104 
L 814.1075 210.1104 
L 814.1075 236.7216 
L 248.287461 236.7216 
z
" style="fill:#8085e9;"/>
   </g>
   <g id="patch_49">
    <path clip-path="url(#p533aa63848)" d="M 262.866877 243.3744 
L 814.1075 243.3744 
L 814.1075 269.9856 
L 262.866877 269.9856 
z
" style="fill:#8085e9;"/>
   </g>
   <g id="patch_50">
    <path clip-path="url(#p533aa63848)" d="M 277.421417 276.6384 
L 814.1075 276.6384 
L 814.1075 303.2496 
L 277.421417 303.2496 
z
" style="fill:#8085e9;"/>
   </g>
   <g id="patch_51">
    <path clip-path="url(#p533aa63848)" d="M 240.729127 309.9024 
L 814.1075 309.9024 
L 814.1075 336.5136 
L 240.729127 336.5136 
z
" style="fill:#8085e9;"/>
   </g>
   <g id="text_18">
    <!-- QUAST: Number of Contigs -->
    <g transform="translate(316.47 -20.52)scale(0.16 -0.16)">
     <defs>
      <path d="M 2522 4238 
Q 1834 4238 1429 3725 
Q 1025 3213 1025 2328 
Q 1025 1447 1429 934 
Q 1834 422 2522 422 
Q 3209 422 3611 934 
Q 4013 1447 4013 2328 
Q 4013 3213 3611 3725 
Q 3209 4238 2522 4238 
z
M 3406 84 
L 4238 -825 
L 3475 -825 
L 2784 -78 
Q 2681 -84 2626 -87 
Q 2572 -91 2522 -91 
Q 1538 -91 948 567 
Q 359 1225 359 2328 
Q 359 3434 948 4092 
Q 1538 4750 2522 4750 
Q 3503 4750 4090 4092 
Q 4678 3434 4678 2328 
Q 4678 1516 4351 937 
Q 4025 359 3406 84 
z
" id="DejaVuSans-51" transform="scale(0.015625)"/>
      <path d="M 556 4666 
L 1191 4666 
L 1191 1831 
Q 1191 1081 1462 751 
Q 1734 422 2344 422 
Q 2950 422 3222 751 
Q 3494 1081 3494 1831 
L 3494 4666 
L 4128 4666 
L 4128 1753 
Q 4128 841 3676 375 
Q 3225 -91 2344 -91 
Q 1459 -91 1007 375 
Q 556 841 556 1753 
L 556 4666 
z
" id="DejaVuSans-55" transform="scale(0.015625)"/>
      <path d="M 3425 4513 
L 3425 3897 
Q 3066 4069 2747 4153 
Q 2428 4238 2131 4238 
Q 1616 4238 1336 4038 
Q 1056 3838 1056 3469 
Q 1056 3159 1242 3001 
Q 1428 2844 1947 2747 
L 2328 2669 
Q 3034 2534 3370 2195 
Q 3706 1856 3706 1288 
Q 3706 609 3251 259 
Q 2797 -91 1919 -91 
Q 1588 -91 1214 -16 
Q 841 59 441 206 
L 441 856 
Q 825 641 1194 531 
Q 1563 422 1919 422 
Q 2459 422 2753 634 
Q 3047 847 3047 1241 
Q 3047 1584 2836 1778 
Q 2625 1972 2144 2069 
L 1759 2144 
Q 1053 2284 737 2584 
Q 422 2884 422 3419 
Q 422 4038 858 4394 
Q 1294 4750 2059 4750 
Q 2388 4750 2728 4690 
Q 3069 4631 3425 4513 
z
" id="DejaVuSans-53" transform="scale(0.015625)"/>
      <path d="M -19 4666 
L 3928 4666 
L 3928 4134 
L 2272 4134 
L 2272 0 
L 1638 0 
L 1638 4134 
L -19 4134 
L -19 4666 
z
" id="DejaVuSans-54" transform="scale(0.015625)"/>
      <path d="M 750 794 
L 1409 794 
L 1409 0 
L 750 0 
L 750 794 
z
M 750 3309 
L 1409 3309 
L 1409 2516 
L 750 2516 
L 750 3309 
z
" id="DejaVuSans-3a" transform="scale(0.015625)"/>
      <path d="M 628 4666 
L 1478 4666 
L 3547 763 
L 3547 4666 
L 4159 4666 
L 4159 0 
L 3309 0 
L 1241 3903 
L 1241 0 
L 628 0 
L 628 4666 
z
" id="DejaVuSans-4e" transform="scale(0.015625)"/>
      <path d="M 544 1381 
L 544 3500 
L 1119 3500 
L 1119 1403 
Q 1119 906 1312 657 
Q 1506 409 1894 409 
Q 2359 409 2629 706 
Q 2900 1003 2900 1516 
L 2900 3500 
L 3475 3500 
L 3475 0 
L 2900 0 
L 2900 538 
Q 2691 219 2414 64 
Q 2138 -91 1772 -91 
Q 1169 -91 856 284 
Q 544 659 544 1381 
z
M 1991 3584 
L 1991 3584 
z
" id="DejaVuSans-75" transform="scale(0.015625)"/>
      <path d="M 3328 2828 
Q 3544 3216 3844 3400 
Q 4144 3584 4550 3584 
Q 5097 3584 5394 3201 
Q 5691 2819 5691 2113 
L 5691 0 
L 5113 0 
L 5113 2094 
Q 5113 2597 4934 2840 
Q 4756 3084 4391 3084 
Q 3944 3084 3684 2787 
Q 3425 2491 3425 1978 
L 3425 0 
L 2847 0 
L 2847 2094 
Q 2847 2600 2669 2842 
Q 2491 3084 2119 3084 
Q 1678 3084 1418 2786 
Q 1159 2488 1159 1978 
L 1159 0 
L 581 0 
L 581 3500 
L 1159 3500 
L 1159 2956 
Q 1356 3278 1631 3431 
Q 1906 3584 2284 3584 
Q 2666 3584 2933 3390 
Q 3200 3197 3328 2828 
z
" id="DejaVuSans-6d" transform="scale(0.015625)"/>
      <path d="M 3116 1747 
Q 3116 2381 2855 2742 
Q 2594 3103 2138 3103 
Q 1681 3103 1420 2742 
Q 1159 2381 1159 1747 
Q 1159 1113 1420 752 
Q 1681 391 2138 391 
Q 2594 391 2855 752 
Q 3116 1113 3116 1747 
z
M 1159 2969 
Q 1341 3281 1617 3432 
Q 1894 3584 2278 3584 
Q 2916 3584 3314 3078 
Q 3713 2572 3713 1747 
Q 3713 922 3314 415 
Q 2916 -91 2278 -91 
Q 1894 -91 1617 61 
Q 1341 213 1159 525 
L 1159 0 
L 581 0 
L 581 4863 
L 1159 4863 
L 1159 2969 
z
" id="DejaVuSans-62" transform="scale(0.015625)"/>
      <path d="M 3597 1894 
L 3597 1613 
L 953 1613 
Q 991 1019 1311 708 
Q 1631 397 2203 397 
Q 2534 397 2845 478 
Q 3156 559 3463 722 
L 3463 178 
Q 3153 47 2828 -22 
Q 2503 -91 2169 -91 
Q 1331 -91 842 396 
Q 353 884 353 1716 
Q 353 2575 817 3079 
Q 1281 3584 2069 3584 
Q 2775 3584 3186 3129 
Q 3597 2675 3597 1894 
z
M 3022 2063 
Q 3016 2534 2758 2815 
Q 2500 3097 2075 3097 
Q 1594 3097 1305 2825 
Q 1016 2553 972 2059 
L 3022 2063 
z
" id="DejaVuSans-65" transform="scale(0.015625)"/>
      <path d="M 2631 2963 
Q 2534 3019 2420 3045 
Q 2306 3072 2169 3072 
Q 1681 3072 1420 2755 
Q 1159 2438 1159 1844 
L 1159 0 
L 581 0 
L 581 3500 
L 1159 3500 
L 1159 2956 
Q 1341 3275 1631 3429 
Q 1922 3584 2338 3584 
Q 2397 3584 2469 3576 
Q 2541 3569 2628 3553 
L 2631 2963 
z
" id="DejaVuSans-72" transform="scale(0.015625)"/>
      <path d="M 2375 4863 
L 2375 4384 
L 1825 4384 
Q 1516 4384 1395 4259 
Q 1275 4134 1275 3809 
L 1275 3500 
L 2222 3500 
L 2222 3053 
L 1275 3053 
L 1275 0 
L 697 0 
L 697 3053 
L 147 3053 
L 147 3500 
L 697 3500 
L 697 3744 
Q 697 4328 969 4595 
Q 1241 4863 1831 4863 
L 2375 4863 
z
" id="DejaVuSans-66" transform="scale(0.015625)"/>
     </defs>
     <use xlink:href="#DejaVuSans-51"/>
     <use x="78.710938" xlink:href="#DejaVuSans-55"/>
     <use x="151.904297" xlink:href="#DejaVuSans-41"/>
     <use x="220.3125" xlink:href="#DejaVuSans-53"/>
     <use x="283.789062" xlink:href="#DejaVuSans-54"/>
     <use x="333.873047" xlink:href="#DejaVuSans-3a"/>
     <use x="367.564453" xlink:href="#DejaVuSans-20"/>
     <use x="399.351562" xlink:href="#DejaVuSans-4e"/>
     <use x="474.15625" xlink:href="#DejaVuSans-75"/>
     <use x="537.535156" xlink:href="#DejaVuSans-6d"/>
     <use x="634.947266" xlink:href="#DejaVuSans-62"/>
     <use x="698.423828" xlink:href="#DejaVuSans-65"/>
     <use x="759.947266" xlink:href="#DejaVuSans-72"/>
     <use x="801.060547" xlink:href="#DejaVuSans-20"/>
     <use x="832.847656" xlink:href="#DejaVuSans-6f"/>
     <use x="894.029297" xlink:href="#DejaVuSans-66"/>
     <use x="929.234375" xlink:href="#DejaVuSans-20"/>
     <use x="961.021484" xlink:href="#DejaVuSans-43"/>
     <use x="1030.845703" xlink:href="#DejaVuSans-6f"/>
     <use x="1092.027344" xlink:href="#DejaVuSans-6e"/>
     <use x="1155.40625" xlink:href="#DejaVuSans-74"/>
     <use x="1194.615234" xlink:href="#DejaVuSans-69"/>
     <use x="1222.398438" xlink:href="#DejaVuSans-67"/>
     <use x="1285.875" xlink:href="#DejaVuSans-73"/>
    </g>
   </g>
   <g id="legend_1">
    <g id="patch_52">
     <path d="M 40.1075 414.13625 
L 56.1075 414.13625 
L 56.1075 408.53625 
L 40.1075 408.53625 
z
" style="fill:#7cb5ec;"/>
    </g>
    <g id="text_19">
     <!-- &gt;= 50000 bp -->
     <g transform="translate(62.5075 414.13625)scale(0.08 -0.08)">
      <defs>
       <path d="M 678 3150 
L 678 3719 
L 4684 2266 
L 4684 1747 
L 678 294 
L 678 863 
L 3897 2003 
L 678 3150 
z
" id="DejaVuSans-3e" transform="scale(0.015625)"/>
       <path d="M 678 2906 
L 4684 2906 
L 4684 2381 
L 678 2381 
L 678 2906 
z
M 678 1631 
L 4684 1631 
L 4684 1100 
L 678 1100 
L 678 1631 
z
" id="DejaVuSans-3d" transform="scale(0.015625)"/>
       <path d="M 691 4666 
L 3169 4666 
L 3169 4134 
L 1269 4134 
L 1269 2991 
Q 1406 3038 1543 3061 
Q 1681 3084 1819 3084 
Q 2600 3084 3056 2656 
Q 3513 2228 3513 1497 
Q 3513 744 3044 326 
Q 2575 -91 1722 -91 
Q 1428 -91 1123 -41 
Q 819 9 494 109 
L 494 744 
Q 775 591 1075 516 
Q 1375 441 1709 441 
Q 2250 441 2565 725 
Q 2881 1009 2881 1497 
Q 2881 1984 2565 2268 
Q 2250 2553 1709 2553 
Q 1456 2553 1204 2497 
Q 953 2441 691 2322 
L 691 4666 
z
" id="DejaVuSans-35" transform="scale(0.015625)"/>
       <path d="M 1159 525 
L 1159 -1331 
L 581 -1331 
L 581 3500 
L 1159 3500 
L 1159 2969 
Q 1341 3281 1617 3432 
Q 1894 3584 2278 3584 
Q 2916 3584 3314 3078 
Q 3713 2572 3713 1747 
Q 3713 922 3314 415 
Q 2916 -91 2278 -91 
Q 1894 -91 1617 61 
Q 1341 213 1159 525 
z
M 3116 1747 
Q 3116 2381 2855 2742 
Q 2594 3103 2138 3103 
Q 1681 3103 1420 2742 
Q 1159 2381 1159 1747 
Q 1159 1113 1420 752 
Q 1681 391 2138 391 
Q 2594 391 2855 752 
Q 3116 1113 3116 1747 
z
" id="DejaVuSans-70" transform="scale(0.015625)"/>
      </defs>
      <use xlink:href="#DejaVuSans-3e"/>
      <use x="83.789062" xlink:href="#DejaVuSans-3d"/>
      <use x="167.578125" xlink:href="#DejaVuSans-20"/>
      <use x="199.365234" xlink:href="#DejaVuSans-35"/>
      <use x="262.988281" xlink:href="#DejaVuSans-30"/>
      <use x="326.611328" xlink:href="#DejaVuSans-30"/>
      <use x="390.234375" xlink:href="#DejaVuSans-30"/>
      <use x="453.857422" xlink:href="#DejaVuSans-30"/>
      <use x="517.480469" xlink:href="#DejaVuSans-20"/>
      <use x="549.267578" xlink:href="#DejaVuSans-62"/>
      <use x="612.744141" xlink:href="#DejaVuSans-70"/>
     </g>
    </g>
    <g id="patch_53">
     <path d="M 204.11375 414.13625 
L 220.11375 414.13625 
L 220.11375 408.53625 
L 204.11375 408.53625 
z
" style="fill:#434348;"/>
    </g>
    <g id="text_20">
     <!-- 25000-50000 bp -->
     <g transform="translate(226.51375 414.13625)scale(0.08 -0.08)">
      <defs>
       <path d="M 313 2009 
L 1997 2009 
L 1997 1497 
L 313 1497 
L 313 2009 
z
" id="DejaVuSans-2d" transform="scale(0.015625)"/>
      </defs>
      <use xlink:href="#DejaVuSans-32"/>
      <use x="63.623047" xlink:href="#DejaVuSans-35"/>
      <use x="127.246094" xlink:href="#DejaVuSans-30"/>
      <use x="190.869141" xlink:href="#DejaVuSans-30"/>
      <use x="254.492188" xlink:href="#DejaVuSans-30"/>
      <use x="318.115234" xlink:href="#DejaVuSans-2d"/>
      <use x="354.199219" xlink:href="#DejaVuSans-35"/>
      <use x="417.822266" xlink:href="#DejaVuSans-30"/>
      <use x="481.445312" xlink:href="#DejaVuSans-30"/>
      <use x="545.068359" xlink:href="#DejaVuSans-30"/>
      <use x="608.691406" xlink:href="#DejaVuSans-30"/>
      <use x="672.314453" xlink:href="#DejaVuSans-20"/>
      <use x="704.101562" xlink:href="#DejaVuSans-62"/>
      <use x="767.578125" xlink:href="#DejaVuSans-70"/>
     </g>
    </g>
    <g id="patch_54">
     <path d="M 380.50625 414.13625 
L 396.50625 414.13625 
L 396.50625 408.53625 
L 380.50625 408.53625 
z
" style="fill:#90ed7d;"/>
    </g>
    <g id="text_21">
     <!-- 10000-25000 bp -->
     <g transform="translate(402.90625 414.13625)scale(0.08 -0.08)">
      <use xlink:href="#DejaVuSans-31"/>
      <use x="63.623047" xlink:href="#DejaVuSans-30"/>
      <use x="127.246094" xlink:href="#DejaVuSans-30"/>
      <use x="190.869141" xlink:href="#DejaVuSans-30"/>
      <use x="254.492188" xlink:href="#DejaVuSans-30"/>
      <use x="318.115234" xlink:href="#DejaVuSans-2d"/>
      <use x="354.199219" xlink:href="#DejaVuSans-32"/>
      <use x="417.822266" xlink:href="#DejaVuSans-35"/>
      <use x="481.445312" xlink:href="#DejaVuSans-30"/>
      <use x="545.068359" xlink:href="#DejaVuSans-30"/>
      <use x="608.691406" xlink:href="#DejaVuSans-30"/>
      <use x="672.314453" xlink:href="#DejaVuSans-20"/>
      <use x="704.101562" xlink:href="#DejaVuSans-62"/>
      <use x="767.578125" xlink:href="#DejaVuSans-70"/>
     </g>
    </g>
    <g id="patch_55">
     <path d="M 556.89875 414.13625 
L 572.89875 414.13625 
L 572.89875 408.53625 
L 556.89875 408.53625 
z
" style="fill:#f7a35c;"/>
    </g>
    <g id="text_22">
     <!-- 5000-10000 bp -->
     <g transform="translate(579.29875 414.13625)scale(0.08 -0.08)">
      <use xlink:href="#DejaVuSans-35"/>
      <use x="63.623047" xlink:href="#DejaVuSans-30"/>
      <use x="127.246094" xlink:href="#DejaVuSans-30"/>
      <use x="190.869141" xlink:href="#DejaVuSans-30"/>
      <use x="254.492188" xlink:href="#DejaVuSans-2d"/>
      <use x="290.576172" xlink:href="#DejaVuSans-31"/>
      <use x="354.199219" xlink:href="#DejaVuSans-30"/>
      <use x="417.822266" xlink:href="#DejaVuSans-30"/>
      <use x="481.445312" xlink:href="#DejaVuSans-30"/>
      <use x="545.068359" xlink:href="#DejaVuSans-30"/>
      <use x="608.691406" xlink:href="#DejaVuSans-20"/>
      <use x="640.478516" xlink:href="#DejaVuSans-62"/>
      <use x="703.955078" xlink:href="#DejaVuSans-70"/>
     </g>
    </g>
    <g id="patch_56">
     <path d="M 728.20125 414.13625 
L 744.20125 414.13625 
L 744.20125 408.53625 
L 728.20125 408.53625 
z
" style="fill:#8085e9;"/>
    </g>
    <g id="text_23">
     <!-- 1000-5000 bp -->
     <g transform="translate(750.60125 414.13625)scale(0.08 -0.08)">
      <use xlink:href="#DejaVuSans-31"/>
      <use x="63.623047" xlink:href="#DejaVuSans-30"/>
      <use x="127.246094" xlink:href="#DejaVuSans-30"/>
      <use x="190.869141" xlink:href="#DejaVuSans-30"/>
      <use x="254.492188" xlink:href="#DejaVuSans-2d"/>
      <use x="290.576172" xlink:href="#DejaVuSans-35"/>
      <use x="354.199219" xlink:href="#DejaVuSans-30"/>
      <use x="417.822266" xlink:href="#DejaVuSans-30"/>
      <use x="481.445312" xlink:href="#DejaVuSans-30"/>
      <use x="545.068359" xlink:href="#DejaVuSans-20"/>
      <use x="576.855469" xlink:href="#DejaVuSans-62"/>
      <use x="640.332031" xlink:href="#DejaVuSans-70"/>
     </g>
    </g>
   </g>
  </g>
 </g>
 <defs>
  <clipPath id="p533aa63848">
   <rect height="332.64" width="781.2" x="32.9075" y="7.2"/>
  </clipPath>
 </defs>
</svg>
