<?xml version="1.0" encoding="utf-8" standalone="no"?>
<!DOCTYPE svg PUBLIC "-//W3C//DTD SVG 1.1//EN"
  "http://www.w3.org/Graphics/SVG/1.1/DTD/svg11.dtd">
<svg height="390.356525pt" version="1.1" viewBox="0 0 1000.548125 390.356525" width="1000.548125pt" xmlns="http://www.w3.org/2000/svg" xmlns:xlink="http://www.w3.org/1999/xlink">
 <metadata>
  <rdf:RDF xmlns:cc="http://creativecommons.org/ns#" xmlns:dc="http://purl.org/dc/elements/1.1/" xmlns:rdf="http://www.w3.org/1999/02/22-rdf-syntax-ns#">
   <cc:Work>
    <dc:type rdf:resource="http://purl.org/dc/dcmitype/StillImage"/>
    <dc:date>2021-08-30T17:45:57.259971</dc:date>
    <dc:format>image/svg+xml</dc:format>
    <dc:creator>
     <cc:Agent>
      <dc:title>Matplotlib v3.4.2, https://matplotlib.org/</dc:title>
     </cc:Agent>
    </dc:creator>
   </cc:Work>
  </rdf:RDF>
 </metadata>
 <defs>
  <style type="text/css">*{stroke-linecap:butt;stroke-linejoin:round;}</style>
 </defs>
 <g id="figure_1">
  <g id="axes_1">
   <g id="patch_1">
    <path d="M 43.148125 354.7359 
L 993.348125 354.7359 
L 993.348125 35.3279 
L 43.148125 35.3279 
z
" style="fill:#ffffff;"/>
   </g>
   <g id="matplotlib.axis_1">
    <g id="xtick_1">
     <g id="text_1">
      <!-- 1.0 -->
      <g transform="translate(79.977784 367.81465)scale(0.08 -0.08)">
       <defs>
        <path d="M 794 531 
L 1825 531 
L 1825 4091 
L 703 3866 
L 703 4441 
L 1819 4666 
L 2450 4666 
L 2450 531 
L 3481 531 
L 3481 0 
L 794 0 
L 794 531 
z
" id="DejaVuSans-31" transform="scale(0.015625)"/>
        <path d="M 684 794 
L 1344 794 
L 1344 0 
L 684 0 
L 684 794 
z
" id="DejaVuSans-2e" transform="scale(0.015625)"/>
        <path d="M 2034 4250 
Q 1547 4250 1301 3770 
Q 1056 3291 1056 2328 
Q 1056 1369 1301 889 
Q 1547 409 2034 409 
Q 2525 409 2770 889 
Q 3016 1369 3016 2328 
Q 3016 3291 2770 3770 
Q 2525 4250 2034 4250 
z
M 2034 4750 
Q 2819 4750 3233 4129 
Q 3647 3509 3647 2328 
Q 3647 1150 3233 529 
Q 2819 -91 2034 -91 
Q 1250 -91 836 529 
Q 422 1150 422 2328 
Q 422 3509 836 4129 
Q 1250 4750 2034 4750 
z
" id="DejaVuSans-30" transform="scale(0.015625)"/>
       </defs>
       <use xlink:href="#DejaVuSans-31"/>
       <use x="63.623047" xlink:href="#DejaVuSans-2e"/>
       <use x="95.410156" xlink:href="#DejaVuSans-30"/>
      </g>
     </g>
    </g>
    <g id="xtick_2">
     <g id="text_2">
      <!-- 2.0 -->
      <g transform="translate(137.565663 367.81465)scale(0.08 -0.08)">
       <defs>
        <path d="M 1228 531 
L 3431 531 
L 3431 0 
L 469 0 
L 469 531 
Q 828 903 1448 1529 
Q 2069 2156 2228 2338 
Q 2531 2678 2651 2914 
Q 2772 3150 2772 3378 
Q 2772 3750 2511 3984 
Q 2250 4219 1831 4219 
Q 1534 4219 1204 4116 
Q 875 4013 500 3803 
L 500 4441 
Q 881 4594 1212 4672 
Q 1544 4750 1819 4750 
Q 2544 4750 2975 4387 
Q 3406 4025 3406 3419 
Q 3406 3131 3298 2873 
Q 3191 2616 2906 2266 
Q 2828 2175 2409 1742 
Q 1991 1309 1228 531 
z
" id="DejaVuSans-32" transform="scale(0.015625)"/>
       </defs>
       <use xlink:href="#DejaVuSans-32"/>
       <use x="63.623047" xlink:href="#DejaVuSans-2e"/>
       <use x="95.410156" xlink:href="#DejaVuSans-30"/>
      </g>
     </g>
    </g>
    <g id="xtick_3">
     <g id="text_3">
      <!-- 3.0 -->
      <g transform="translate(195.153542 367.81465)scale(0.08 -0.08)">
       <defs>
        <path d="M 2597 2516 
Q 3050 2419 3304 2112 
Q 3559 1806 3559 1356 
Q 3559 666 3084 287 
Q 2609 -91 1734 -91 
Q 1441 -91 1130 -33 
Q 819 25 488 141 
L 488 750 
Q 750 597 1062 519 
Q 1375 441 1716 441 
Q 2309 441 2620 675 
Q 2931 909 2931 1356 
Q 2931 1769 2642 2001 
Q 2353 2234 1838 2234 
L 1294 2234 
L 1294 2753 
L 1863 2753 
Q 2328 2753 2575 2939 
Q 2822 3125 2822 3475 
Q 2822 3834 2567 4026 
Q 2313 4219 1838 4219 
Q 1578 4219 1281 4162 
Q 984 4106 628 3988 
L 628 4550 
Q 988 4650 1302 4700 
Q 1616 4750 1894 4750 
Q 2613 4750 3031 4423 
Q 3450 4097 3450 3541 
Q 3450 3153 3228 2886 
Q 3006 2619 2597 2516 
z
" id="DejaVuSans-33" transform="scale(0.015625)"/>
       </defs>
       <use xlink:href="#DejaVuSans-33"/>
       <use x="63.623047" xlink:href="#DejaVuSans-2e"/>
       <use x="95.410156" xlink:href="#DejaVuSans-30"/>
      </g>
     </g>
    </g>
    <g id="xtick_4">
     <g id="text_4">
      <!-- 4.0 -->
      <g transform="translate(252.74142 367.81465)scale(0.08 -0.08)">
       <defs>
        <path d="M 2419 4116 
L 825 1625 
L 2419 1625 
L 2419 4116 
z
M 2253 4666 
L 3047 4666 
L 3047 1625 
L 3713 1625 
L 3713 1100 
L 3047 1100 
L 3047 0 
L 2419 0 
L 2419 1100 
L 313 1100 
L 313 1709 
L 2253 4666 
z
" id="DejaVuSans-34" transform="scale(0.015625)"/>
       </defs>
       <use xlink:href="#DejaVuSans-34"/>
       <use x="63.623047" xlink:href="#DejaVuSans-2e"/>
       <use x="95.410156" xlink:href="#DejaVuSans-30"/>
      </g>
     </g>
    </g>
    <g id="xtick_5">
     <g id="text_5">
      <!-- 5.0 -->
      <g transform="translate(310.329299 367.81465)scale(0.08 -0.08)">
       <defs>
        <path d="M 691 4666 
L 3169 4666 
L 3169 4134 
L 1269 4134 
L 1269 2991 
Q 1406 3038 1543 3061 
Q 1681 3084 1819 3084 
Q 2600 3084 3056 2656 
Q 3513 2228 3513 1497 
Q 3513 744 3044 326 
Q 2575 -91 1722 -91 
Q 1428 -91 1123 -41 
Q 819 9 494 109 
L 494 744 
Q 775 591 1075 516 
Q 1375 441 1709 441 
Q 2250 441 2565 725 
Q 2881 1009 2881 1497 
Q 2881 1984 2565 2268 
Q 2250 2553 1709 2553 
Q 1456 2553 1204 2497 
Q 953 2441 691 2322 
L 691 4666 
z
" id="DejaVuSans-35" transform="scale(0.015625)"/>
       </defs>
       <use xlink:href="#DejaVuSans-35"/>
       <use x="63.623047" xlink:href="#DejaVuSans-2e"/>
       <use x="95.410156" xlink:href="#DejaVuSans-30"/>
      </g>
     </g>
    </g>
    <g id="xtick_6">
     <g id="text_6">
      <!-- 6.0 -->
      <g transform="translate(367.917178 367.81465)scale(0.08 -0.08)">
       <defs>
        <path d="M 2113 2584 
Q 1688 2584 1439 2293 
Q 1191 2003 1191 1497 
Q 1191 994 1439 701 
Q 1688 409 2113 409 
Q 2538 409 2786 701 
Q 3034 994 3034 1497 
Q 3034 2003 2786 2293 
Q 2538 2584 2113 2584 
z
M 3366 4563 
L 3366 3988 
Q 3128 4100 2886 4159 
Q 2644 4219 2406 4219 
Q 1781 4219 1451 3797 
Q 1122 3375 1075 2522 
Q 1259 2794 1537 2939 
Q 1816 3084 2150 3084 
Q 2853 3084 3261 2657 
Q 3669 2231 3669 1497 
Q 3669 778 3244 343 
Q 2819 -91 2113 -91 
Q 1303 -91 875 529 
Q 447 1150 447 2328 
Q 447 3434 972 4092 
Q 1497 4750 2381 4750 
Q 2619 4750 2861 4703 
Q 3103 4656 3366 4563 
z
" id="DejaVuSans-36" transform="scale(0.015625)"/>
       </defs>
       <use xlink:href="#DejaVuSans-36"/>
       <use x="63.623047" xlink:href="#DejaVuSans-2e"/>
       <use x="95.410156" xlink:href="#DejaVuSans-30"/>
      </g>
     </g>
    </g>
    <g id="xtick_7">
     <g id="text_7">
      <!-- 7.0 -->
      <g transform="translate(425.505057 367.81465)scale(0.08 -0.08)">
       <defs>
        <path d="M 525 4666 
L 3525 4666 
L 3525 4397 
L 1831 0 
L 1172 0 
L 2766 4134 
L 525 4134 
L 525 4666 
z
" id="DejaVuSans-37" transform="scale(0.015625)"/>
       </defs>
       <use xlink:href="#DejaVuSans-37"/>
       <use x="63.623047" xlink:href="#DejaVuSans-2e"/>
       <use x="95.410156" xlink:href="#DejaVuSans-30"/>
      </g>
     </g>
    </g>
    <g id="xtick_8">
     <g id="text_8">
      <!-- 8.0 -->
      <g transform="translate(483.092936 367.81465)scale(0.08 -0.08)">
       <defs>
        <path d="M 2034 2216 
Q 1584 2216 1326 1975 
Q 1069 1734 1069 1313 
Q 1069 891 1326 650 
Q 1584 409 2034 409 
Q 2484 409 2743 651 
Q 3003 894 3003 1313 
Q 3003 1734 2745 1975 
Q 2488 2216 2034 2216 
z
M 1403 2484 
Q 997 2584 770 2862 
Q 544 3141 544 3541 
Q 544 4100 942 4425 
Q 1341 4750 2034 4750 
Q 2731 4750 3128 4425 
Q 3525 4100 3525 3541 
Q 3525 3141 3298 2862 
Q 3072 2584 2669 2484 
Q 3125 2378 3379 2068 
Q 3634 1759 3634 1313 
Q 3634 634 3220 271 
Q 2806 -91 2034 -91 
Q 1263 -91 848 271 
Q 434 634 434 1313 
Q 434 1759 690 2068 
Q 947 2378 1403 2484 
z
M 1172 3481 
Q 1172 3119 1398 2916 
Q 1625 2713 2034 2713 
Q 2441 2713 2670 2916 
Q 2900 3119 2900 3481 
Q 2900 3844 2670 4047 
Q 2441 4250 2034 4250 
Q 1625 4250 1398 4047 
Q 1172 3844 1172 3481 
z
" id="DejaVuSans-38" transform="scale(0.015625)"/>
       </defs>
       <use xlink:href="#DejaVuSans-38"/>
       <use x="63.623047" xlink:href="#DejaVuSans-2e"/>
       <use x="95.410156" xlink:href="#DejaVuSans-30"/>
      </g>
     </g>
    </g>
    <g id="xtick_9">
     <g id="text_9">
      <!-- 9.0 -->
      <g transform="translate(540.680814 367.81465)scale(0.08 -0.08)">
       <defs>
        <path d="M 703 97 
L 703 672 
Q 941 559 1184 500 
Q 1428 441 1663 441 
Q 2288 441 2617 861 
Q 2947 1281 2994 2138 
Q 2813 1869 2534 1725 
Q 2256 1581 1919 1581 
Q 1219 1581 811 2004 
Q 403 2428 403 3163 
Q 403 3881 828 4315 
Q 1253 4750 1959 4750 
Q 2769 4750 3195 4129 
Q 3622 3509 3622 2328 
Q 3622 1225 3098 567 
Q 2575 -91 1691 -91 
Q 1453 -91 1209 -44 
Q 966 3 703 97 
z
M 1959 2075 
Q 2384 2075 2632 2365 
Q 2881 2656 2881 3163 
Q 2881 3666 2632 3958 
Q 2384 4250 1959 4250 
Q 1534 4250 1286 3958 
Q 1038 3666 1038 3163 
Q 1038 2656 1286 2365 
Q 1534 2075 1959 2075 
z
" id="DejaVuSans-39" transform="scale(0.015625)"/>
       </defs>
       <use xlink:href="#DejaVuSans-39"/>
       <use x="63.623047" xlink:href="#DejaVuSans-2e"/>
       <use x="95.410156" xlink:href="#DejaVuSans-30"/>
      </g>
     </g>
    </g>
    <g id="xtick_10">
     <g id="text_10">
      <!-- &gt;10 -->
      <g transform="translate(596.188068 367.81465)scale(0.08 -0.08)">
       <defs>
        <path d="M 678 3150 
L 678 3719 
L 4684 2266 
L 4684 1747 
L 678 294 
L 678 863 
L 3897 2003 
L 678 3150 
z
" id="DejaVuSans-3e" transform="scale(0.015625)"/>
       </defs>
       <use xlink:href="#DejaVuSans-3e"/>
       <use x="83.789062" xlink:href="#DejaVuSans-31"/>
       <use x="147.412109" xlink:href="#DejaVuSans-30"/>
      </g>
     </g>
    </g>
    <g id="xtick_11">
     <g id="text_11">
      <!-- &gt;50 -->
      <g transform="translate(653.775947 367.81465)scale(0.08 -0.08)">
       <use xlink:href="#DejaVuSans-3e"/>
       <use x="83.789062" xlink:href="#DejaVuSans-35"/>
       <use x="147.412109" xlink:href="#DejaVuSans-30"/>
      </g>
     </g>
    </g>
    <g id="xtick_12">
     <g id="text_12">
      <!-- &gt;100 -->
      <g transform="translate(708.818826 367.81465)scale(0.08 -0.08)">
       <use xlink:href="#DejaVuSans-3e"/>
       <use x="83.789062" xlink:href="#DejaVuSans-31"/>
       <use x="147.412109" xlink:href="#DejaVuSans-30"/>
       <use x="211.035156" xlink:href="#DejaVuSans-30"/>
      </g>
     </g>
    </g>
    <g id="xtick_13">
     <g id="text_13">
      <!-- &gt;500 -->
      <g transform="translate(766.406705 367.81465)scale(0.08 -0.08)">
       <use xlink:href="#DejaVuSans-3e"/>
       <use x="83.789062" xlink:href="#DejaVuSans-35"/>
       <use x="147.412109" xlink:href="#DejaVuSans-30"/>
       <use x="211.035156" xlink:href="#DejaVuSans-30"/>
      </g>
     </g>
    </g>
    <g id="xtick_14">
     <g id="text_14">
      <!-- &gt;1k -->
      <g transform="translate(826.768333 367.81465)scale(0.08 -0.08)">
       <defs>
        <path d="M 581 4863 
L 1159 4863 
L 1159 1991 
L 2875 3500 
L 3609 3500 
L 1753 1863 
L 3688 0 
L 2938 0 
L 1159 1709 
L 1159 0 
L 581 0 
L 581 4863 
z
" id="DejaVuSans-6b" transform="scale(0.015625)"/>
       </defs>
       <use xlink:href="#DejaVuSans-3e"/>
       <use x="83.789062" xlink:href="#DejaVuSans-31"/>
       <use x="147.412109" xlink:href="#DejaVuSans-6b"/>
      </g>
     </g>
    </g>
    <g id="xtick_15">
     <g id="text_15">
      <!-- &gt;5k -->
      <g transform="translate(884.356212 367.81465)scale(0.08 -0.08)">
       <use xlink:href="#DejaVuSans-3e"/>
       <use x="83.789062" xlink:href="#DejaVuSans-35"/>
       <use x="147.412109" xlink:href="#DejaVuSans-6b"/>
      </g>
     </g>
    </g>
    <g id="xtick_16">
     <g id="text_16">
      <!-- &gt;10k+ -->
      <g transform="translate(936.047216 367.81465)scale(0.08 -0.08)">
       <defs>
        <path d="M 2944 4013 
L 2944 2272 
L 4684 2272 
L 4684 1741 
L 2944 1741 
L 2944 0 
L 2419 0 
L 2419 1741 
L 678 1741 
L 678 2272 
L 2419 2272 
L 2419 4013 
L 2944 4013 
z
" id="DejaVuSans-2b" transform="scale(0.015625)"/>
       </defs>
       <use xlink:href="#DejaVuSans-3e"/>
       <use x="83.789062" xlink:href="#DejaVuSans-31"/>
       <use x="147.412109" xlink:href="#DejaVuSans-30"/>
       <use x="211.035156" xlink:href="#DejaVuSans-6b"/>
       <use x="268.945312" xlink:href="#DejaVuSans-2b"/>
      </g>
     </g>
    </g>
    <g id="text_17">
     <!-- Sequence Duplication Level -->
     <g transform="translate(448.843438 381.076838)scale(0.1 -0.1)">
      <defs>
       <path d="M 3425 4513 
L 3425 3897 
Q 3066 4069 2747 4153 
Q 2428 4238 2131 4238 
Q 1616 4238 1336 4038 
Q 1056 3838 1056 3469 
Q 1056 3159 1242 3001 
Q 1428 2844 1947 2747 
L 2328 2669 
Q 3034 2534 3370 2195 
Q 3706 1856 3706 1288 
Q 3706 609 3251 259 
Q 2797 -91 1919 -91 
Q 1588 -91 1214 -16 
Q 841 59 441 206 
L 441 856 
Q 825 641 1194 531 
Q 1563 422 1919 422 
Q 2459 422 2753 634 
Q 3047 847 3047 1241 
Q 3047 1584 2836 1778 
Q 2625 1972 2144 2069 
L 1759 2144 
Q 1053 2284 737 2584 
Q 422 2884 422 3419 
Q 422 4038 858 4394 
Q 1294 4750 2059 4750 
Q 2388 4750 2728 4690 
Q 3069 4631 3425 4513 
z
" id="DejaVuSans-53" transform="scale(0.015625)"/>
       <path d="M 3597 1894 
L 3597 1613 
L 953 1613 
Q 991 1019 1311 708 
Q 1631 397 2203 397 
Q 2534 397 2845 478 
Q 3156 559 3463 722 
L 3463 178 
Q 3153 47 2828 -22 
Q 2503 -91 2169 -91 
Q 1331 -91 842 396 
Q 353 884 353 1716 
Q 353 2575 817 3079 
Q 1281 3584 2069 3584 
Q 2775 3584 3186 3129 
Q 3597 2675 3597 1894 
z
M 3022 2063 
Q 3016 2534 2758 2815 
Q 2500 3097 2075 3097 
Q 1594 3097 1305 2825 
Q 1016 2553 972 2059 
L 3022 2063 
z
" id="DejaVuSans-65" transform="scale(0.015625)"/>
       <path d="M 947 1747 
Q 947 1113 1208 752 
Q 1469 391 1925 391 
Q 2381 391 2643 752 
Q 2906 1113 2906 1747 
Q 2906 2381 2643 2742 
Q 2381 3103 1925 3103 
Q 1469 3103 1208 2742 
Q 947 2381 947 1747 
z
M 2906 525 
Q 2725 213 2448 61 
Q 2172 -91 1784 -91 
Q 1150 -91 751 415 
Q 353 922 353 1747 
Q 353 2572 751 3078 
Q 1150 3584 1784 3584 
Q 2172 3584 2448 3432 
Q 2725 3281 2906 2969 
L 2906 3500 
L 3481 3500 
L 3481 -1331 
L 2906 -1331 
L 2906 525 
z
" id="DejaVuSans-71" transform="scale(0.015625)"/>
       <path d="M 544 1381 
L 544 3500 
L 1119 3500 
L 1119 1403 
Q 1119 906 1312 657 
Q 1506 409 1894 409 
Q 2359 409 2629 706 
Q 2900 1003 2900 1516 
L 2900 3500 
L 3475 3500 
L 3475 0 
L 2900 0 
L 2900 538 
Q 2691 219 2414 64 
Q 2138 -91 1772 -91 
Q 1169 -91 856 284 
Q 544 659 544 1381 
z
M 1991 3584 
L 1991 3584 
z
" id="DejaVuSans-75" transform="scale(0.015625)"/>
       <path d="M 3513 2113 
L 3513 0 
L 2938 0 
L 2938 2094 
Q 2938 2591 2744 2837 
Q 2550 3084 2163 3084 
Q 1697 3084 1428 2787 
Q 1159 2491 1159 1978 
L 1159 0 
L 581 0 
L 581 3500 
L 1159 3500 
L 1159 2956 
Q 1366 3272 1645 3428 
Q 1925 3584 2291 3584 
Q 2894 3584 3203 3211 
Q 3513 2838 3513 2113 
z
" id="DejaVuSans-6e" transform="scale(0.015625)"/>
       <path d="M 3122 3366 
L 3122 2828 
Q 2878 2963 2633 3030 
Q 2388 3097 2138 3097 
Q 1578 3097 1268 2742 
Q 959 2388 959 1747 
Q 959 1106 1268 751 
Q 1578 397 2138 397 
Q 2388 397 2633 464 
Q 2878 531 3122 666 
L 3122 134 
Q 2881 22 2623 -34 
Q 2366 -91 2075 -91 
Q 1284 -91 818 406 
Q 353 903 353 1747 
Q 353 2603 823 3093 
Q 1294 3584 2113 3584 
Q 2378 3584 2631 3529 
Q 2884 3475 3122 3366 
z
" id="DejaVuSans-63" transform="scale(0.015625)"/>
       <path id="DejaVuSans-20" transform="scale(0.015625)"/>
       <path d="M 1259 4147 
L 1259 519 
L 2022 519 
Q 2988 519 3436 956 
Q 3884 1394 3884 2338 
Q 3884 3275 3436 3711 
Q 2988 4147 2022 4147 
L 1259 4147 
z
M 628 4666 
L 1925 4666 
Q 3281 4666 3915 4102 
Q 4550 3538 4550 2338 
Q 4550 1131 3912 565 
Q 3275 0 1925 0 
L 628 0 
L 628 4666 
z
" id="DejaVuSans-44" transform="scale(0.015625)"/>
       <path d="M 1159 525 
L 1159 -1331 
L 581 -1331 
L 581 3500 
L 1159 3500 
L 1159 2969 
Q 1341 3281 1617 3432 
Q 1894 3584 2278 3584 
Q 2916 3584 3314 3078 
Q 3713 2572 3713 1747 
Q 3713 922 3314 415 
Q 2916 -91 2278 -91 
Q 1894 -91 1617 61 
Q 1341 213 1159 525 
z
M 3116 1747 
Q 3116 2381 2855 2742 
Q 2594 3103 2138 3103 
Q 1681 3103 1420 2742 
Q 1159 2381 1159 1747 
Q 1159 1113 1420 752 
Q 1681 391 2138 391 
Q 2594 391 2855 752 
Q 3116 1113 3116 1747 
z
" id="DejaVuSans-70" transform="scale(0.015625)"/>
       <path d="M 603 4863 
L 1178 4863 
L 1178 0 
L 603 0 
L 603 4863 
z
" id="DejaVuSans-6c" transform="scale(0.015625)"/>
       <path d="M 603 3500 
L 1178 3500 
L 1178 0 
L 603 0 
L 603 3500 
z
M 603 4863 
L 1178 4863 
L 1178 4134 
L 603 4134 
L 603 4863 
z
" id="DejaVuSans-69" transform="scale(0.015625)"/>
       <path d="M 2194 1759 
Q 1497 1759 1228 1600 
Q 959 1441 959 1056 
Q 959 750 1161 570 
Q 1363 391 1709 391 
Q 2188 391 2477 730 
Q 2766 1069 2766 1631 
L 2766 1759 
L 2194 1759 
z
M 3341 1997 
L 3341 0 
L 2766 0 
L 2766 531 
Q 2569 213 2275 61 
Q 1981 -91 1556 -91 
Q 1019 -91 701 211 
Q 384 513 384 1019 
Q 384 1609 779 1909 
Q 1175 2209 1959 2209 
L 2766 2209 
L 2766 2266 
Q 2766 2663 2505 2880 
Q 2244 3097 1772 3097 
Q 1472 3097 1187 3025 
Q 903 2953 641 2809 
L 641 3341 
Q 956 3463 1253 3523 
Q 1550 3584 1831 3584 
Q 2591 3584 2966 3190 
Q 3341 2797 3341 1997 
z
" id="DejaVuSans-61" transform="scale(0.015625)"/>
       <path d="M 1172 4494 
L 1172 3500 
L 2356 3500 
L 2356 3053 
L 1172 3053 
L 1172 1153 
Q 1172 725 1289 603 
Q 1406 481 1766 481 
L 2356 481 
L 2356 0 
L 1766 0 
Q 1100 0 847 248 
Q 594 497 594 1153 
L 594 3053 
L 172 3053 
L 172 3500 
L 594 3500 
L 594 4494 
L 1172 4494 
z
" id="DejaVuSans-74" transform="scale(0.015625)"/>
       <path d="M 1959 3097 
Q 1497 3097 1228 2736 
Q 959 2375 959 1747 
Q 959 1119 1226 758 
Q 1494 397 1959 397 
Q 2419 397 2687 759 
Q 2956 1122 2956 1747 
Q 2956 2369 2687 2733 
Q 2419 3097 1959 3097 
z
M 1959 3584 
Q 2709 3584 3137 3096 
Q 3566 2609 3566 1747 
Q 3566 888 3137 398 
Q 2709 -91 1959 -91 
Q 1206 -91 779 398 
Q 353 888 353 1747 
Q 353 2609 779 3096 
Q 1206 3584 1959 3584 
z
" id="DejaVuSans-6f" transform="scale(0.015625)"/>
       <path d="M 628 4666 
L 1259 4666 
L 1259 531 
L 3531 531 
L 3531 0 
L 628 0 
L 628 4666 
z
" id="DejaVuSans-4c" transform="scale(0.015625)"/>
       <path d="M 191 3500 
L 800 3500 
L 1894 563 
L 2988 3500 
L 3597 3500 
L 2284 0 
L 1503 0 
L 191 3500 
z
" id="DejaVuSans-76" transform="scale(0.015625)"/>
      </defs>
      <use xlink:href="#DejaVuSans-53"/>
      <use x="63.476562" xlink:href="#DejaVuSans-65"/>
      <use x="125" xlink:href="#DejaVuSans-71"/>
      <use x="188.476562" xlink:href="#DejaVuSans-75"/>
      <use x="251.855469" xlink:href="#DejaVuSans-65"/>
      <use x="313.378906" xlink:href="#DejaVuSans-6e"/>
      <use x="376.757812" xlink:href="#DejaVuSans-63"/>
      <use x="431.738281" xlink:href="#DejaVuSans-65"/>
      <use x="493.261719" xlink:href="#DejaVuSans-20"/>
      <use x="525.048828" xlink:href="#DejaVuSans-44"/>
      <use x="602.050781" xlink:href="#DejaVuSans-75"/>
      <use x="665.429688" xlink:href="#DejaVuSans-70"/>
      <use x="728.90625" xlink:href="#DejaVuSans-6c"/>
      <use x="756.689453" xlink:href="#DejaVuSans-69"/>
      <use x="784.472656" xlink:href="#DejaVuSans-63"/>
      <use x="839.453125" xlink:href="#DejaVuSans-61"/>
      <use x="900.732422" xlink:href="#DejaVuSans-74"/>
      <use x="939.941406" xlink:href="#DejaVuSans-69"/>
      <use x="967.724609" xlink:href="#DejaVuSans-6f"/>
      <use x="1028.90625" xlink:href="#DejaVuSans-6e"/>
      <use x="1092.285156" xlink:href="#DejaVuSans-20"/>
      <use x="1124.072266" xlink:href="#DejaVuSans-4c"/>
      <use x="1178.035156" xlink:href="#DejaVuSans-65"/>
      <use x="1239.558594" xlink:href="#DejaVuSans-76"/>
      <use x="1298.738281" xlink:href="#DejaVuSans-65"/>
      <use x="1360.261719" xlink:href="#DejaVuSans-6c"/>
     </g>
    </g>
   </g>
   <g id="matplotlib.axis_2">
    <g id="ytick_1">
     <g id="line2d_1">
      <path clip-path="url(#p3422ac080c)" d="M 43.148125 354.7359 
L 993.348125 354.7359 
" style="fill:none;stroke:#dedede;stroke-linecap:square;"/>
     </g>
     <g id="text_18">
      <!-- 0 -->
      <g transform="translate(31.058125 357.775275)scale(0.08 -0.08)">
       <use xlink:href="#DejaVuSans-30"/>
      </g>
     </g>
    </g>
    <g id="ytick_2">
     <g id="line2d_2">
      <path clip-path="url(#p3422ac080c)" d="M 43.148125 290.8543 
L 993.348125 290.8543 
" style="fill:none;stroke:#dedede;stroke-linecap:square;"/>
     </g>
     <g id="text_19">
      <!-- 20 -->
      <g transform="translate(25.968125 293.893675)scale(0.08 -0.08)">
       <use xlink:href="#DejaVuSans-32"/>
       <use x="63.623047" xlink:href="#DejaVuSans-30"/>
      </g>
     </g>
    </g>
    <g id="ytick_3">
     <g id="line2d_3">
      <path clip-path="url(#p3422ac080c)" d="M 43.148125 226.9727 
L 993.348125 226.9727 
" style="fill:none;stroke:#dedede;stroke-linecap:square;"/>
     </g>
     <g id="text_20">
      <!-- 40 -->
      <g transform="translate(25.968125 230.012075)scale(0.08 -0.08)">
       <use xlink:href="#DejaVuSans-34"/>
       <use x="63.623047" xlink:href="#DejaVuSans-30"/>
      </g>
     </g>
    </g>
    <g id="ytick_4">
     <g id="line2d_4">
      <path clip-path="url(#p3422ac080c)" d="M 43.148125 163.0911 
L 993.348125 163.0911 
" style="fill:none;stroke:#dedede;stroke-linecap:square;"/>
     </g>
     <g id="text_21">
      <!-- 60 -->
      <g transform="translate(25.968125 166.130475)scale(0.08 -0.08)">
       <use xlink:href="#DejaVuSans-36"/>
       <use x="63.623047" xlink:href="#DejaVuSans-30"/>
      </g>
     </g>
    </g>
    <g id="ytick_5">
     <g id="line2d_5">
      <path clip-path="url(#p3422ac080c)" d="M 43.148125 99.2095 
L 993.348125 99.2095 
" style="fill:none;stroke:#dedede;stroke-linecap:square;"/>
     </g>
     <g id="text_22">
      <!-- 80 -->
      <g transform="translate(25.968125 102.248875)scale(0.08 -0.08)">
       <use xlink:href="#DejaVuSans-38"/>
       <use x="63.623047" xlink:href="#DejaVuSans-30"/>
      </g>
     </g>
    </g>
    <g id="ytick_6">
     <g id="line2d_6">
      <path clip-path="url(#p3422ac080c)" d="M 43.148125 35.3279 
L 993.348125 35.3279 
" style="fill:none;stroke:#dedede;stroke-linecap:square;"/>
     </g>
     <g id="text_23">
      <!-- 100 -->
      <g transform="translate(20.878125 38.367275)scale(0.08 -0.08)">
       <use xlink:href="#DejaVuSans-31"/>
       <use x="63.623047" xlink:href="#DejaVuSans-30"/>
       <use x="127.246094" xlink:href="#DejaVuSans-30"/>
      </g>
     </g>
    </g>
    <g id="text_24">
     <!-- % of Library -->
     <g transform="translate(14.798437 225.263931)rotate(-90)scale(0.1 -0.1)">
      <defs>
       <path d="M 4653 2053 
Q 4381 2053 4226 1822 
Q 4072 1591 4072 1178 
Q 4072 772 4226 539 
Q 4381 306 4653 306 
Q 4919 306 5073 539 
Q 5228 772 5228 1178 
Q 5228 1588 5073 1820 
Q 4919 2053 4653 2053 
z
M 4653 2450 
Q 5147 2450 5437 2106 
Q 5728 1763 5728 1178 
Q 5728 594 5436 251 
Q 5144 -91 4653 -91 
Q 4153 -91 3862 251 
Q 3572 594 3572 1178 
Q 3572 1766 3864 2108 
Q 4156 2450 4653 2450 
z
M 1428 4353 
Q 1159 4353 1004 4120 
Q 850 3888 850 3481 
Q 850 3069 1003 2837 
Q 1156 2606 1428 2606 
Q 1700 2606 1854 2837 
Q 2009 3069 2009 3481 
Q 2009 3884 1853 4118 
Q 1697 4353 1428 4353 
z
M 4250 4750 
L 4750 4750 
L 1831 -91 
L 1331 -91 
L 4250 4750 
z
M 1428 4750 
Q 1922 4750 2215 4408 
Q 2509 4066 2509 3481 
Q 2509 2891 2217 2550 
Q 1925 2209 1428 2209 
Q 931 2209 642 2551 
Q 353 2894 353 3481 
Q 353 4063 643 4406 
Q 934 4750 1428 4750 
z
" id="DejaVuSans-25" transform="scale(0.015625)"/>
       <path d="M 2375 4863 
L 2375 4384 
L 1825 4384 
Q 1516 4384 1395 4259 
Q 1275 4134 1275 3809 
L 1275 3500 
L 2222 3500 
L 2222 3053 
L 1275 3053 
L 1275 0 
L 697 0 
L 697 3053 
L 147 3053 
L 147 3500 
L 697 3500 
L 697 3744 
Q 697 4328 969 4595 
Q 1241 4863 1831 4863 
L 2375 4863 
z
" id="DejaVuSans-66" transform="scale(0.015625)"/>
       <path d="M 3116 1747 
Q 3116 2381 2855 2742 
Q 2594 3103 2138 3103 
Q 1681 3103 1420 2742 
Q 1159 2381 1159 1747 
Q 1159 1113 1420 752 
Q 1681 391 2138 391 
Q 2594 391 2855 752 
Q 3116 1113 3116 1747 
z
M 1159 2969 
Q 1341 3281 1617 3432 
Q 1894 3584 2278 3584 
Q 2916 3584 3314 3078 
Q 3713 2572 3713 1747 
Q 3713 922 3314 415 
Q 2916 -91 2278 -91 
Q 1894 -91 1617 61 
Q 1341 213 1159 525 
L 1159 0 
L 581 0 
L 581 4863 
L 1159 4863 
L 1159 2969 
z
" id="DejaVuSans-62" transform="scale(0.015625)"/>
       <path d="M 2631 2963 
Q 2534 3019 2420 3045 
Q 2306 3072 2169 3072 
Q 1681 3072 1420 2755 
Q 1159 2438 1159 1844 
L 1159 0 
L 581 0 
L 581 3500 
L 1159 3500 
L 1159 2956 
Q 1341 3275 1631 3429 
Q 1922 3584 2338 3584 
Q 2397 3584 2469 3576 
Q 2541 3569 2628 3553 
L 2631 2963 
z
" id="DejaVuSans-72" transform="scale(0.015625)"/>
       <path d="M 2059 -325 
Q 1816 -950 1584 -1140 
Q 1353 -1331 966 -1331 
L 506 -1331 
L 506 -850 
L 844 -850 
Q 1081 -850 1212 -737 
Q 1344 -625 1503 -206 
L 1606 56 
L 191 3500 
L 800 3500 
L 1894 763 
L 2988 3500 
L 3597 3500 
L 2059 -325 
z
" id="DejaVuSans-79" transform="scale(0.015625)"/>
      </defs>
      <use xlink:href="#DejaVuSans-25"/>
      <use x="95.019531" xlink:href="#DejaVuSans-20"/>
      <use x="126.806641" xlink:href="#DejaVuSans-6f"/>
      <use x="187.988281" xlink:href="#DejaVuSans-66"/>
      <use x="223.193359" xlink:href="#DejaVuSans-20"/>
      <use x="254.980469" xlink:href="#DejaVuSans-4c"/>
      <use x="310.693359" xlink:href="#DejaVuSans-69"/>
      <use x="338.476562" xlink:href="#DejaVuSans-62"/>
      <use x="401.953125" xlink:href="#DejaVuSans-72"/>
      <use x="443.066406" xlink:href="#DejaVuSans-61"/>
      <use x="504.345703" xlink:href="#DejaVuSans-72"/>
      <use x="545.458984" xlink:href="#DejaVuSans-79"/>
     </g>
    </g>
   </g>
   <g id="line2d_7">
    <path clip-path="url(#p3422ac080c)" d="M 86.339034 294.189964 
L 143.926913 337.768496 
L 201.514792 336.48407 
L 259.10267 334.393385 
L 316.690549 333.743807 
L 374.278428 334.119434 
L 431.866307 334.770975 
L 489.454186 336.931749 
L 547.042064 339.063187 
L 604.629943 263.541672 
L 662.217822 354.531145 
L 719.805701 354.495458 
L 777.39358 354.7359 
L 834.981458 354.400303 
L 892.569337 354.7359 
L 950.157216 338.460954 
" style="fill:none;stroke:#d9534f;stroke-linecap:square;"/>
   </g>
   <g id="line2d_8">
    <path clip-path="url(#p3422ac080c)" d="M 86.339034 278.962664 
L 143.926913 337.489589 
L 201.514792 336.105537 
L 259.10267 334.070841 
L 316.690549 333.600933 
L 374.278428 334.412109 
L 431.866307 335.512089 
L 489.454186 338.207919 
L 547.042064 339.953236 
L 604.629943 275.640521 
L 662.217822 354.578392 
L 719.805701 354.502453 
L 777.39358 354.7359 
L 834.981458 354.7359 
L 892.569337 354.7359 
L 950.157216 339.122418 
" style="fill:none;stroke:#d9534f;stroke-linecap:square;"/>
   </g>
   <g id="line2d_9">
    <path clip-path="url(#p3422ac080c)" d="M 86.339034 276.607931 
L 143.926913 346.010004 
L 201.514792 349.28727 
L 259.10267 348.271484 
L 316.690549 346.79954 
L 374.278428 345.936635 
L 431.866307 345.020426 
L 489.454186 344.325939 
L 547.042064 344.228749 
L 604.629943 186.766872 
L 662.217822 351.274917 
L 719.805701 354.581958 
L 777.39358 354.586656 
L 834.981458 354.7359 
L 892.569337 354.7359 
L 950.157216 353.196218 
" style="fill:none;stroke:#d9534f;stroke-linecap:square;"/>
   </g>
   <g id="line2d_10">
    <path clip-path="url(#p3422ac080c)" d="M 86.339034 272.957887 
L 143.926913 345.928021 
L 201.514792 349.360947 
L 259.10267 347.932756 
L 316.690549 346.533035 
L 374.278428 345.530744 
L 431.866307 344.918877 
L 489.454186 344.092213 
L 547.042064 343.987737 
L 604.629943 190.895809 
L 662.217822 352.240796 
L 719.805701 354.645363 
L 777.39358 354.59903 
L 834.981458 354.7359 
L 892.569337 354.7359 
L 950.157216 353.271386 
" style="fill:none;stroke:#d9534f;stroke-linecap:square;"/>
   </g>
   <g id="line2d_11">
    <path clip-path="url(#p3422ac080c)" d="M 86.339034 262.685541 
L 143.926913 348.862101 
L 201.514792 349.547437 
L 259.10267 348.499698 
L 316.690549 346.886825 
L 374.278428 346.199695 
L 431.866307 345.894702 
L 489.454186 344.789553 
L 547.042064 344.676526 
L 604.629943 213.461527 
L 662.217822 351.788236 
L 719.805701 352.303135 
L 777.39358 354.7359 
L 834.981458 354.7359 
L 892.569337 354.7359 
L 950.157216 336.563722 
" style="fill:none;stroke:#d9534f;stroke-linecap:square;"/>
   </g>
   <g id="line2d_12">
    <path clip-path="url(#p3422ac080c)" d="M 86.339034 236.879578 
L 143.926913 349.084566 
L 201.514792 349.326766 
L 259.10267 348.01171 
L 316.690549 346.330662 
L 374.278428 345.596886 
L 431.866307 344.789553 
L 489.454186 344.574264 
L 547.042064 344.886433 
L 604.629943 239.459456 
L 662.217822 352.721155 
L 719.805701 353.284494 
L 777.39358 354.7359 
L 834.981458 354.7359 
L 892.569337 337.213177 
L 950.157216 354.7359 
" style="fill:none;stroke:#d9534f;stroke-linecap:square;"/>
   </g>
   <g id="line2d_13">
    <path clip-path="url(#p3422ac080c)" d="M 86.339034 230.86257 
L 143.926913 303.98676 
L 201.514792 316.935701 
L 259.10267 327.057554 
L 316.690549 335.145177 
L 374.278428 341.371582 
L 431.866307 345.988964 
L 489.454186 349.342126 
L 547.042064 351.130168 
L 604.629943 347.677488 
L 662.217822 354.679318 
L 719.805701 354.29012 
L 777.39358 354.314445 
L 834.981458 354.7359 
L 892.569337 354.7359 
L 950.157216 334.112627 
" style="fill:none;stroke:#f0ad4e;stroke-linecap:square;"/>
   </g>
   <g id="line2d_14">
    <path clip-path="url(#p3422ac080c)" d="M 86.339034 223.001666 
L 143.926913 305.045728 
L 201.514792 317.64424 
L 259.10267 327.749639 
L 316.690549 335.715151 
L 374.278428 342.74437 
L 431.866307 346.46037 
L 489.454186 349.689428 
L 547.042064 351.600072 
L 604.629943 348.785565 
L 662.217822 354.7359 
L 719.805701 354.346582 
L 777.39358 354.7359 
L 834.981458 354.7359 
L 892.569337 354.7359 
L 950.157216 334.639991 
" style="fill:none;stroke:#f0ad4e;stroke-linecap:square;"/>
   </g>
   <g id="line2d_15">
    <path clip-path="url(#p3422ac080c)" d="M 86.339034 204.057069 
L 143.926913 315.408763 
L 201.514792 329.439132 
L 259.10267 338.408588 
L 316.690549 344.486412 
L 374.278428 347.548715 
L 431.866307 350.074638 
L 489.454186 350.975283 
L 547.042064 351.972376 
L 604.629943 309.505201 
L 662.217822 351.286022 
L 719.805701 354.241904 
L 777.39358 354.7359 
L 834.981458 354.7359 
L 892.569337 354.7359 
L 950.157216 344.754597 
" style="fill:none;stroke:#f0ad4e;stroke-linecap:square;"/>
   </g>
   <g id="line2d_16">
    <path clip-path="url(#p3422ac080c)" d="M 86.339034 196.398469 
L 143.926913 316.188929 
L 201.514792 330.101292 
L 259.10267 339.007249 
L 316.690549 344.555887 
L 374.278428 348.49231 
L 431.866307 350.135663 
L 489.454186 351.411638 
L 547.042064 351.901518 
L 604.629943 312.506547 
L 662.217822 351.907148 
L 719.805701 354.415919 
L 777.39358 354.7359 
L 834.981458 354.7359 
L 892.569337 354.7359 
L 950.157216 345.136132 
" style="fill:none;stroke:#f0ad4e;stroke-linecap:square;"/>
   </g>
   <g id="line2d_17">
    <path clip-path="url(#p3422ac080c)" d="M 86.339034 195.635532 
L 143.926913 281.796987 
L 201.514792 314.855595 
L 259.10267 334.168216 
L 316.690549 343.448016 
L 374.278428 348.521561 
L 431.866307 351.539995 
L 489.454186 352.809613 
L 547.042064 353.771967 
L 604.629943 353.254314 
L 662.217822 354.640543 
L 719.805701 354.198433 
L 777.39358 354.7359 
L 834.981458 353.517929 
L 892.569337 354.7359 
L 950.157216 354.7359 
" style="fill:none;stroke:#f0ad4e;stroke-linecap:square;"/>
   </g>
   <g id="line2d_18">
    <path clip-path="url(#p3422ac080c)" d="M 86.339034 174.355238 
L 143.926913 287.410422 
L 201.514792 319.773644 
L 259.10267 337.505523 
L 316.690549 346.326898 
L 374.278428 350.523004 
L 431.866307 352.291523 
L 489.454186 353.505941 
L 547.042064 354.073626 
L 604.629943 353.884743 
L 662.217822 354.607672 
L 719.805701 354.354476 
L 777.39358 354.7359 
L 834.981458 353.545989 
L 892.569337 354.7359 
L 950.157216 354.7359 
" style="fill:none;stroke:#5cb85c;stroke-linecap:square;"/>
   </g>
   <g id="line2d_19">
    <path clip-path="url(#p3422ac080c)" d="M 86.339034 222.357487 
L 143.926913 311.923778 
L 201.514792 318.448334 
L 259.10267 326.354866 
L 316.690549 333.387235 
L 374.278428 339.697237 
L 431.866307 344.012579 
L 489.454186 347.187593 
L 547.042064 349.611952 
L 604.629943 343.016168 
L 662.217822 354.685546 
L 719.805701 354.665003 
L 777.39358 354.7359 
L 834.981458 354.7359 
L 892.569337 354.7359 
L 950.157216 346.810921 
" style="fill:none;stroke:#f0ad4e;stroke-linecap:square;"/>
   </g>
   <g id="line2d_20">
    <path clip-path="url(#p3422ac080c)" d="M 86.339034 216.867613 
L 143.926913 311.776284 
L 201.514792 318.828643 
L 259.10267 326.840697 
L 316.690549 334.133508 
L 374.278428 340.559717 
L 431.866307 344.472643 
L 489.454186 347.971363 
L 547.042064 350.028888 
L 604.629943 344.197552 
L 662.217822 354.712302 
L 719.805701 354.660076 
L 777.39358 354.7359 
L 834.981458 354.7359 
L 892.569337 354.7359 
L 950.157216 347.109415 
" style="fill:none;stroke:#f0ad4e;stroke-linecap:square;"/>
   </g>
   <g id="line2d_21">
    <path clip-path="url(#p3422ac080c)" d="M 86.339034 306.307982 
L 143.926913 347.154275 
L 201.514792 352.368457 
L 259.10267 353.454051 
L 316.690549 353.613644 
L 374.278428 353.486155 
L 431.866307 353.352762 
L 489.454186 353.065631 
L 547.042064 352.852477 
L 604.629943 245.225293 
L 662.217822 277.429643 
L 719.805701 292.040923 
L 777.39358 354.554507 
L 834.981458 354.63961 
L 892.569337 354.7359 
L 950.157216 352.085091 
" style="fill:none;stroke:#d9534f;stroke-linecap:square;"/>
   </g>
   <g id="line2d_22">
    <path clip-path="url(#p3422ac080c)" d="M 86.339034 297.400138 
L 143.926913 346.945055 
L 201.514792 352.349469 
L 259.10267 353.3773 
L 316.690549 353.606509 
L 374.278428 353.340371 
L 431.866307 353.142901 
L 489.454186 353.015606 
L 547.042064 352.893362 
L 604.629943 243.758974 
L 662.217822 281.263529 
L 719.805701 299.090164 
L 777.39358 354.623549 
L 834.981458 354.645969 
L 892.569337 354.7359 
L 950.157216 352.177604 
" style="fill:none;stroke:#d9534f;stroke-linecap:square;"/>
   </g>
   <g id="line2d_23">
    <path clip-path="url(#p3422ac080c)" d="M 86.339034 201.556545 
L 143.926913 295.581783 
L 201.514792 319.102092 
L 259.10267 335.137177 
L 316.690549 344.672683 
L 374.278428 349.589067 
L 431.866307 352.164714 
L 489.454186 353.566983 
L 547.042064 354.178274 
L 604.629943 354.270587 
L 662.217822 354.7359 
L 719.805701 354.148134 
L 777.39358 354.7359 
L 834.981458 354.7359 
L 892.569337 354.7359 
L 950.157216 323.454762 
" style="fill:none;stroke:#f0ad4e;stroke-linecap:square;"/>
   </g>
   <g id="line2d_24">
    <path clip-path="url(#p3422ac080c)" d="M 86.339034 192.835513 
L 143.926913 297.644316 
L 201.514792 321.361844 
L 259.10267 336.350352 
L 316.690549 345.190359 
L 374.278428 350.123939 
L 431.866307 352.602047 
L 489.454186 353.930162 
L 547.042064 354.308022 
L 604.629943 354.372787 
L 662.217822 354.576028 
L 719.805701 354.634004 
L 777.39358 354.7359 
L 834.981458 354.7359 
L 892.569337 354.7359 
L 950.157216 324.229328 
" style="fill:none;stroke:#f0ad4e;stroke-linecap:square;"/>
   </g>
   <g id="line2d_25">
    <path clip-path="url(#p3422ac080c)" d="M 86.339034 246.448466 
L 143.926913 322.320268 
L 201.514792 329.340827 
L 259.10267 332.793835 
L 316.690549 335.612165 
L 374.278428 338.357744 
L 431.866307 340.483386 
L 489.454186 342.746819 
L 547.042064 344.099767 
L 604.629943 305.132117 
L 662.217822 354.508178 
L 719.805701 354.501272 
L 777.39358 354.7359 
L 834.981458 354.7359 
L 892.569337 354.7359 
L 950.157216 345.813855 
" style="fill:none;stroke:#d9534f;stroke-linecap:square;"/>
   </g>
   <g id="line2d_26">
    <path clip-path="url(#p3422ac080c)" d="M 86.339034 235.950279 
L 143.926913 322.687609 
L 201.514792 329.797823 
L 259.10267 333.474059 
L 316.690549 336.440596 
L 374.278428 338.829902 
L 431.866307 341.073639 
L 489.454186 342.700002 
L 547.042064 345.21522 
L 604.629943 310.479299 
L 662.217822 354.572513 
L 719.805701 354.616496 
L 777.39358 354.7359 
L 834.981458 354.7359 
L 892.569337 354.7359 
L 950.157216 346.321262 
" style="fill:none;stroke:#f0ad4e;stroke-linecap:square;"/>
   </g>
   <g id="line2d_27">
    <path clip-path="url(#p3422ac080c)" d="M 86.339034 252.221593 
L 143.926913 326.9132 
L 201.514792 327.736344 
L 259.10267 330.881218 
L 316.690549 332.951263 
L 374.278428 336.600664 
L 431.866307 339.163998 
L 489.454186 341.517954 
L 547.042064 343.862873 
L 604.629943 298.131903 
L 662.217822 354.52521 
L 719.805701 354.371421 
L 777.39358 354.7359 
L 834.981458 353.28106 
L 892.569337 354.7359 
L 950.157216 354.7359 
" style="fill:none;stroke:#d9534f;stroke-linecap:square;"/>
   </g>
   <g id="line2d_28">
    <path clip-path="url(#p3422ac080c)" d="M 86.339034 240.476374 
L 143.926913 326.424508 
L 201.514792 328.348463 
L 259.10267 330.510272 
L 316.690549 334.331167 
L 374.278428 337.018809 
L 431.866307 339.915981 
L 489.454186 342.348593 
L 547.042064 344.464139 
L 604.629943 306.022688 
L 662.217822 354.577181 
L 719.805701 354.360189 
L 777.39358 354.7359 
L 834.981458 353.360336 
L 892.569337 354.7359 
L 950.157216 354.7359 
" style="fill:none;stroke:#d9534f;stroke-linecap:square;"/>
   </g>
   <g id="line2d_29">
    <path clip-path="url(#p3422ac080c)" d="M 86.339034 236.392531 
L 143.926913 324.29819 
L 201.514792 329.824629 
L 259.10267 332.543964 
L 316.690549 335.113507 
L 374.278428 338.648052 
L 431.866307 341.482237 
L 489.454186 344.277817 
L 547.042064 346.267458 
L 604.629943 318.73205 
L 662.217822 354.220641 
L 719.805701 354.519468 
L 777.39358 354.506703 
L 834.981458 354.7359 
L 892.569337 354.7359 
L 950.157216 336.067352 
" style="fill:none;stroke:#f0ad4e;stroke-linecap:square;"/>
   </g>
   <g id="line2d_30">
    <path clip-path="url(#p3422ac080c)" d="M 86.339034 232.245458 
L 143.926913 324.340207 
L 201.514792 329.787825 
L 259.10267 332.069028 
L 316.690549 335.510126 
L 374.278428 338.552013 
L 431.866307 342.0363 
L 489.454186 344.332679 
L 547.042064 346.855622 
L 604.629943 320.958248 
L 662.217822 354.188188 
L 719.805701 354.620149 
L 777.39358 354.7359 
L 834.981458 354.7359 
L 892.569337 354.7359 
L 950.157216 336.662857 
" style="fill:none;stroke:#f0ad4e;stroke-linecap:square;"/>
   </g>
   <g id="line2d_31">
    <path clip-path="url(#p3422ac080c)" d="M 86.339034 218.65148 
L 143.926913 295.724546 
L 201.514792 317.429763 
L 259.10267 332.1419 
L 316.690549 342.167304 
L 374.278428 347.301107 
L 431.866307 350.420641 
L 489.454186 351.709986 
L 547.042064 352.397308 
L 604.629943 335.199427 
L 662.217822 354.506254 
L 719.805701 354.669394 
L 777.39358 354.7359 
L 834.981458 354.7359 
L 892.569337 354.7359 
L 950.157216 339.83959 
" style="fill:none;stroke:#f0ad4e;stroke-linecap:square;"/>
   </g>
   <g id="line2d_32">
    <path clip-path="url(#p3422ac080c)" d="M 86.339034 210.59459 
L 143.926913 296.606861 
L 201.514792 319.1064 
L 259.10267 333.84442 
L 316.690549 342.752802 
L 374.278428 347.909087 
L 431.866307 350.542542 
L 489.454186 351.920449 
L 547.042064 352.587688 
L 604.629943 336.638887 
L 662.217822 354.556376 
L 719.805701 354.658436 
L 777.39358 354.7359 
L 834.981458 354.7359 
L 892.569337 354.7359 
L 950.157216 340.440162 
" style="fill:none;stroke:#f0ad4e;stroke-linecap:square;"/>
   </g>
   <g id="line2d_33">
    <path clip-path="url(#p3422ac080c)" d="M 86.339034 179.090405 
L 143.926913 322.220705 
L 201.514792 337.230869 
L 259.10267 341.377292 
L 316.690549 343.455298 
L 374.278428 345.213381 
L 431.866307 346.548749 
L 489.454186 348.079538 
L 547.042064 349.363995 
L 604.629943 333.670907 
L 662.217822 354.596384 
L 719.805701 354.358185 
L 777.39358 354.433047 
L 834.981458 354.7359 
L 892.569337 354.7359 
L 950.157216 337.255847 
" style="fill:none;stroke:#f0ad4e;stroke-linecap:square;"/>
   </g>
   <g id="line2d_34">
    <path clip-path="url(#p3422ac080c)" d="M 86.339034 166.409062 
L 143.926913 324.170855 
L 201.514792 337.937661 
L 259.10267 341.899289 
L 316.690549 344.562595 
L 374.278428 345.80231 
L 431.866307 347.297565 
L 489.454186 348.696143 
L 547.042064 349.927226 
L 604.629943 338.028688 
L 662.217822 354.653515 
L 719.805701 354.532142 
L 777.39358 354.7359 
L 834.981458 354.7359 
L 892.569337 354.7359 
L 950.157216 338.241649 
" style="fill:none;stroke:#f0ad4e;stroke-linecap:square;"/>
   </g>
   <g id="line2d_35">
    <path clip-path="url(#p3422ac080c)" d="M 86.339034 194.29238 
L 143.926913 291.520323 
L 201.514792 317.326441 
L 259.10267 331.099868 
L 316.690549 340.935606 
L 374.278428 346.726112 
L 431.866307 349.682971 
L 489.454186 351.902084 
L 547.042064 352.986215 
L 604.629943 352.257828 
L 662.217822 354.660342 
L 719.805701 354.7359 
L 777.39358 354.7359 
L 834.981458 354.03263 
L 892.569337 354.7359 
L 950.157216 354.7359 
" style="fill:none;stroke:#f0ad4e;stroke-linecap:square;"/>
   </g>
   <g id="line2d_36">
    <path clip-path="url(#p3422ac080c)" d="M 86.339034 183.999879 
L 143.926913 292.553908 
L 201.514792 318.646927 
L 259.10267 333.827268 
L 316.690549 342.696344 
L 374.278428 347.96581 
L 431.866307 350.685892 
L 489.454186 352.338519 
L 547.042064 353.32358 
L 604.629943 352.785492 
L 662.217822 354.646929 
L 719.805701 354.620898 
L 777.39358 354.7359 
L 834.981458 354.067255 
L 892.569337 354.7359 
L 950.157216 354.7359 
" style="fill:none;stroke:#5cb85c;stroke-linecap:square;"/>
   </g>
   <g id="line2d_37">
    <path clip-path="url(#p3422ac080c)" d="M 86.339034 202.327709 
L 143.926913 307.231626 
L 201.514792 326.639061 
L 259.10267 336.989152 
L 316.690549 341.870456 
L 374.278428 344.708211 
L 431.866307 347.083232 
L 489.454186 348.293149 
L 547.042064 349.695836 
L 604.629943 328.252986 
L 662.217822 354.715744 
L 719.805701 354.601818 
L 777.39358 354.7359 
L 834.981458 354.7359 
L 892.569337 354.7359 
L 950.157216 349.749721 
" style="fill:none;stroke:#f0ad4e;stroke-linecap:square;"/>
   </g>
   <g id="line2d_38">
    <path clip-path="url(#p3422ac080c)" d="M 86.339034 194.454646 
L 143.926913 308.635958 
L 201.514792 327.986664 
L 259.10267 337.703362 
L 316.690549 342.351534 
L 374.278428 345.425447 
L 431.866307 347.451074 
L 489.454186 348.54368 
L 547.042064 349.794731 
L 604.629943 330.680209 
L 662.217822 354.692875 
L 719.805701 354.470045 
L 777.39358 354.7359 
L 834.981458 354.7359 
L 892.569337 354.7359 
L 950.157216 349.968475 
" style="fill:none;stroke:#f0ad4e;stroke-linecap:square;"/>
   </g>
   <g id="line2d_39">
    <path clip-path="url(#p3422ac080c)" d="M 86.339034 168.452415 
L 143.926913 311.275376 
L 201.514792 331.34453 
L 259.10267 339.292571 
L 316.690549 343.536472 
L 374.278428 346.677167 
L 431.866307 348.640685 
L 489.454186 349.787332 
L 547.042064 351.071371 
L 604.629943 343.194803 
L 662.217822 354.641755 
L 719.805701 354.66684 
L 777.39358 354.7359 
L 834.981458 354.7359 
L 892.569337 354.7359 
L 950.157216 349.577383 
" style="fill:none;stroke:#5cb85c;stroke-linecap:square;"/>
   </g>
   <g id="line2d_40">
    <path clip-path="url(#p3422ac080c)" d="M 86.339034 161.015928 
L 143.926913 313.490147 
L 201.514792 332.337109 
L 259.10267 340.130664 
L 316.690549 344.457164 
L 374.278428 346.762679 
L 431.866307 348.908127 
L 489.454186 350.402163 
L 547.042064 351.190327 
L 604.629943 344.328787 
L 662.217822 354.638632 
L 719.805701 354.704362 
L 777.39358 354.7359 
L 834.981458 354.7359 
L 892.569337 354.7359 
L 950.157216 349.792611 
" style="fill:none;stroke:#5cb85c;stroke-linecap:square;"/>
   </g>
   <g id="line2d_41">
    <path clip-path="url(#p3422ac080c)" d="M 86.339034 120.045784 
L 143.926913 316.57706 
L 201.514792 338.582756 
L 259.10267 345.909257 
L 316.690549 350.220268 
L 374.278428 352.458976 
L 431.866307 353.450027 
L 489.454186 354.014506 
L 547.042064 354.360014 
L 604.629943 354.294717 
L 662.217822 354.7359 
L 719.805701 354.683065 
L 777.39358 354.7359 
L 834.981458 354.7359 
L 892.569337 354.7359 
L 950.157216 342.82637 
" style="fill:none;stroke:#5cb85c;stroke-linecap:square;"/>
   </g>
   <g id="line2d_42">
    <path clip-path="url(#p3422ac080c)" d="M 86.339034 115.253977 
L 143.926913 317.74665 
L 201.514792 339.338338 
L 259.10267 347.000276 
L 316.690549 350.904536 
L 374.278428 352.7085 
L 431.866307 353.546845 
L 489.454186 354.168058 
L 547.042064 354.452066 
L 604.629943 354.364855 
L 662.217822 354.702113 
L 719.805701 354.7359 
L 777.39358 354.7359 
L 834.981458 354.7359 
L 892.569337 354.7359 
L 950.157216 343.236586 
" style="fill:none;stroke:#5cb85c;stroke-linecap:square;"/>
   </g>
   <g id="line2d_43">
    <path clip-path="url(#p3422ac080c)" d="M 86.339034 140.098519 
L 143.926913 312.808399 
L 201.514792 334.856304 
L 259.10267 343.065853 
L 316.690549 346.515084 
L 374.278428 349.440759 
L 431.866307 351.262878 
L 489.454186 352.405235 
L 547.042064 353.151742 
L 604.629943 351.206855 
L 662.217822 354.71732 
L 719.805701 354.651421 
L 777.39358 354.7359 
L 834.981458 354.7359 
L 892.569337 354.7359 
L 950.157216 347.978332 
" style="fill:none;stroke:#5cb85c;stroke-linecap:square;"/>
   </g>
   <g id="line2d_44">
    <path clip-path="url(#p3422ac080c)" d="M 86.339034 135.088933 
L 143.926913 314.105913 
L 201.514792 336.228325 
L 259.10267 343.294194 
L 316.690549 347.028115 
L 374.278428 349.778322 
L 431.866307 351.367637 
L 489.454186 352.569184 
L 547.042064 353.344611 
L 604.629943 351.773125 
L 662.217822 354.720056 
L 719.805701 354.692576 
L 777.39358 354.7359 
L 834.981458 354.7359 
L 892.569337 354.7359 
L 950.157216 348.167708 
" style="fill:none;stroke:#5cb85c;stroke-linecap:square;"/>
   </g>
   <g id="line2d_45">
    <path clip-path="url(#p3422ac080c)" d="M 86.339034 195.636589 
L 143.926913 305.388593 
L 201.514792 325.396912 
L 259.10267 334.884645 
L 316.690549 340.416 
L 374.278428 343.480559 
L 431.866307 346.316569 
L 489.454186 348.829582 
L 547.042064 349.997087 
L 604.629943 339.4688 
L 662.217822 354.650738 
L 719.805701 354.640949 
L 777.39358 354.7359 
L 834.981458 354.7359 
L 892.569337 353.051676 
L 950.157216 354.7359 
" style="fill:none;stroke:#f0ad4e;stroke-linecap:square;"/>
   </g>
   <g id="line2d_46">
    <path clip-path="url(#p3422ac080c)" d="M 86.339034 186.346549 
L 143.926913 306.741461 
L 201.514792 326.134762 
L 259.10267 336.470328 
L 316.690549 341.082 
L 374.278428 344.699022 
L 431.866307 347.245233 
L 489.454186 348.934011 
L 547.042064 350.793209 
L 604.629943 341.287689 
L 662.217822 354.644325 
L 719.805701 354.665726 
L 777.39358 354.7359 
L 834.981458 354.7359 
L 892.569337 353.114384 
L 950.157216 354.7359 
" style="fill:none;stroke:#f0ad4e;stroke-linecap:square;"/>
   </g>
   <g id="line2d_47">
    <path clip-path="url(#p3422ac080c)" d="M 86.339034 243.934518 
L 143.926913 324.106289 
L 201.514792 330.758954 
L 259.10267 334.385554 
L 316.690549 335.547307 
L 374.278428 337.879898 
L 431.866307 339.923688 
L 489.454186 341.467707 
L 547.042064 343.288683 
L 604.629943 298.301668 
L 662.217822 354.66274 
L 719.805701 354.458428 
L 777.39358 354.7359 
L 834.981458 354.7359 
L 892.569337 353.443267 
L 950.157216 354.7359 
" style="fill:none;stroke:#d9534f;stroke-linecap:square;"/>
   </g>
   <g id="line2d_48">
    <path clip-path="url(#p3422ac080c)" d="M 86.339034 238.184728 
L 143.926913 324.31054 
L 201.514792 331.321187 
L 259.10267 333.842792 
L 316.690549 335.809188 
L 374.278428 337.806825 
L 431.866307 339.628596 
L 489.454186 341.702482 
L 547.042064 343.945763 
L 604.629943 302.909875 
L 662.217822 354.709743 
L 719.805701 354.460234 
L 777.39358 354.7359 
L 834.981458 354.7359 
L 892.569337 353.526744 
L 950.157216 354.7359 
" style="fill:none;stroke:#f0ad4e;stroke-linecap:square;"/>
   </g>
   <g id="line2d_49">
    <path clip-path="url(#p3422ac080c)" d="M 86.339034 233.520733 
L 143.926913 312.543672 
L 201.514792 317.717107 
L 259.10267 323.600007 
L 316.690549 330.190213 
L 374.278428 336.694478 
L 431.866307 341.519343 
L 489.454186 345.606165 
L 547.042064 347.898444 
L 604.629943 339.649331 
L 662.217822 354.66792 
L 719.805701 354.675164 
L 777.39358 354.7359 
L 834.981458 353.876124 
L 892.569337 354.7359 
L 950.157216 354.7359 
" style="fill:none;stroke:#f0ad4e;stroke-linecap:square;"/>
   </g>
   <g id="line2d_50">
    <path clip-path="url(#p3422ac080c)" d="M 86.339034 225.001711 
L 143.926913 313.245053 
L 201.514792 318.115688 
L 259.10267 324.710808 
L 316.690549 331.06725 
L 374.278428 337.52254 
L 431.866307 342.498522 
L 489.454186 346.461161 
L 547.042064 348.529088 
L 604.629943 341.667223 
L 662.217822 354.7359 
L 719.805701 354.674016 
L 777.39358 354.7359 
L 834.981458 353.92974 
L 892.569337 354.7359 
L 950.157216 354.7359 
" style="fill:none;stroke:#f0ad4e;stroke-linecap:square;"/>
   </g>
   <g id="line2d_51">
    <path clip-path="url(#p3422ac080c)" d="M 86.339034 198.788395 
L 143.926913 306.507068 
L 201.514792 322.599361 
L 259.10267 332.261459 
L 316.690549 339.228811 
L 374.278428 343.831025 
L 431.866307 347.085968 
L 489.454186 348.914915 
L 547.042064 350.588079 
L 604.629943 342.652231 
L 662.217822 354.619437 
L 719.805701 354.388692 
L 777.39358 354.7359 
L 834.981458 354.7359 
L 892.569337 354.7359 
L 950.157216 350.693259 
" style="fill:none;stroke:#f0ad4e;stroke-linecap:square;"/>
   </g>
   <g id="line2d_52">
    <path clip-path="url(#p3422ac080c)" d="M 86.339034 194.24178 
L 143.926913 305.861247 
L 201.514792 323.379447 
L 259.10267 333.354354 
L 316.690549 339.843192 
L 374.278428 344.156434 
L 431.866307 347.151818 
L 489.454186 349.437058 
L 547.042064 350.794254 
L 604.629943 343.955324 
L 662.217822 354.635644 
L 719.805701 354.473295 
L 777.39358 354.7359 
L 834.981458 354.7359 
L 892.569337 354.7359 
L 950.157216 350.874853 
" style="fill:none;stroke:#f0ad4e;stroke-linecap:square;"/>
   </g>
   <g id="line2d_53">
    <path clip-path="url(#p3422ac080c)" d="M 86.339034 226.487228 
L 143.926913 325.307994 
L 201.514792 332.747835 
L 259.10267 334.809386 
L 316.690549 336.243002 
L 374.278428 338.553248 
L 431.866307 340.664708 
L 489.454186 342.125798 
L 547.042064 344.372043 
L 604.629943 309.837303 
L 662.217822 354.706688 
L 719.805701 354.52477 
L 777.39358 354.7359 
L 834.981458 354.7359 
L 892.569337 354.7359 
L 950.157216 351.778696 
" style="fill:none;stroke:#f0ad4e;stroke-linecap:square;"/>
   </g>
   <g id="line2d_54">
    <path clip-path="url(#p3422ac080c)" d="M 86.339034 220.81914 
L 143.926913 325.363599 
L 201.514792 332.568118 
L 259.10267 335.124642 
L 316.690549 337.062187 
L 374.278428 338.450498 
L 431.866307 340.665429 
L 489.454186 342.984709 
L 547.042064 344.629807 
L 604.629943 313.310019 
L 662.217822 354.695119 
L 719.805701 354.556535 
L 777.39358 354.7359 
L 834.981458 354.7359 
L 892.569337 354.7359 
L 950.157216 351.928898 
" style="fill:none;stroke:#f0ad4e;stroke-linecap:square;"/>
   </g>
   <g id="line2d_55">
    <path clip-path="url(#p3422ac080c)" d="M 86.339034 213.855908 
L 143.926913 316.326985 
L 201.514792 326.192666 
L 259.10267 333.025826 
L 316.690549 339.342956 
L 374.278428 343.692579 
L 431.866307 346.483888 
L 489.454186 348.887951 
L 547.042064 350.188288 
L 604.629943 329.728981 
L 662.217822 354.56149 
L 719.805701 354.579183 
L 777.39358 354.701707 
L 834.981458 354.7359 
L 892.569337 354.7359 
L 950.157216 335.326191 
" style="fill:none;stroke:#f0ad4e;stroke-linecap:square;"/>
   </g>
   <g id="line2d_56">
    <path clip-path="url(#p3422ac080c)" d="M 86.339034 205.243328 
L 143.926913 316.617315 
L 201.514792 326.649818 
L 259.10267 334.110408 
L 316.690549 339.853142 
L 374.278428 344.070219 
L 431.866307 347.459366 
L 489.454186 349.524208 
L 547.042064 350.615412 
L 604.629943 332.519693 
L 662.217822 354.666761 
L 719.805701 354.636505 
L 777.39358 354.655132 
L 834.981458 354.7359 
L 892.569337 354.7359 
L 950.157216 336.273293 
" style="fill:none;stroke:#f0ad4e;stroke-linecap:square;"/>
   </g>
   <g id="line2d_57">
    <path clip-path="url(#p3422ac080c)" d="M 86.339034 214.69858 
L 143.926913 307.670703 
L 201.514792 322.096045 
L 259.10267 332.611609 
L 316.690549 340.263638 
L 374.278428 345.228817 
L 431.866307 348.631719 
L 489.454186 350.598625 
L 547.042064 352.065131 
L 604.629943 349.318723 
L 662.217822 354.65328 
L 719.805701 354.367458 
L 777.39358 354.7359 
L 834.981458 354.373493 
L 892.569337 354.7359 
L 950.157216 320.31678 
" style="fill:none;stroke:#f0ad4e;stroke-linecap:square;"/>
   </g>
   <g id="line2d_58">
    <path clip-path="url(#p3422ac080c)" d="M 86.339034 204.925192 
L 143.926913 308.745901 
L 201.514792 323.653703 
L 259.10267 333.838539 
L 316.690549 340.971883 
L 374.278428 345.859708 
L 431.866307 348.892233 
L 489.454186 351.145229 
L 547.042064 352.298018 
L 604.629943 350.395796 
L 662.217822 354.649675 
L 719.805701 354.454558 
L 777.39358 354.7359 
L 834.981458 354.7359 
L 892.569337 354.7359 
L 950.157216 322.328264 
" style="fill:none;stroke:#f0ad4e;stroke-linecap:square;"/>
   </g>
   <g id="line2d_59">
    <path clip-path="url(#p3422ac080c)" d="M 86.339034 193.331223 
L 143.926913 311.140194 
L 201.514792 327.158057 
L 259.10267 336.64665 
L 316.690549 342.329935 
L 374.278428 346.229013 
L 431.866307 348.832365 
L 489.454186 350.529702 
L 547.042064 351.734094 
L 604.629943 344.356491 
L 662.217822 354.663119 
L 719.805701 354.608719 
L 777.39358 354.625285 
L 834.981458 354.411477 
L 892.569337 354.7359 
L 950.157216 331.034177 
" style="fill:none;stroke:#f0ad4e;stroke-linecap:square;"/>
   </g>
   <g id="line2d_60">
    <path clip-path="url(#p3422ac080c)" d="M 86.339034 185.482941 
L 143.926913 312.353989 
L 201.514792 328.378142 
L 259.10267 337.539182 
L 316.690549 342.96858 
L 374.278428 346.750183 
L 431.866307 349.132968 
L 489.454186 350.559081 
L 547.042064 351.882866 
L 604.629943 345.640308 
L 662.217822 354.643075 
L 719.805701 354.563893 
L 777.39358 354.7359 
L 834.981458 354.7359 
L 892.569337 354.7359 
L 950.157216 332.263491 
" style="fill:none;stroke:#f0ad4e;stroke-linecap:square;"/>
   </g>
   <g id="line2d_61">
    <path clip-path="url(#p3422ac080c)" d="M 86.339034 277.484292 
L 143.926913 335.263674 
L 201.514792 341.806475 
L 259.10267 345.292717 
L 316.690549 347.753692 
L 374.278428 349.752458 
L 431.866307 350.930671 
L 489.454186 351.912058 
L 547.042064 352.511523 
L 604.629943 338.008547 
L 662.217822 324.746682 
L 719.805701 236.401812 
L 777.39358 348.552008 
L 834.981458 354.514131 
L 892.569337 354.7359 
L 950.157216 346.699759 
" style="fill:none;stroke:#d9534f;stroke-linecap:square;"/>
   </g>
   <g id="line2d_62">
    <path clip-path="url(#p3422ac080c)" d="M 86.339034 268.618174 
L 143.926913 334.590101 
L 201.514792 341.582645 
L 259.10267 345.702582 
L 316.690549 348.271399 
L 374.278428 350.014828 
L 431.866307 351.226364 
L 489.454186 352.051326 
L 547.042064 352.865912 
L 604.629943 337.344559 
L 662.217822 324.211401 
L 719.805701 243.7954 
L 777.39358 349.961317 
L 834.981458 354.670593 
L 892.569337 354.490292 
L 950.157216 346.969509 
" style="fill:none;stroke:#d9534f;stroke-linecap:square;"/>
   </g>
   <g id="line2d_63">
    <path clip-path="url(#p3422ac080c)" d="M 86.339034 171.926298 
L 143.926913 303.845333 
L 201.514792 325.073343 
L 259.10267 335.385519 
L 316.690549 341.885555 
L 374.278428 346.642246 
L 431.866307 349.30741 
L 489.454186 351.16883 
L 547.042064 352.579861 
L 604.629943 350.722464 
L 662.217822 354.713865 
L 719.805701 354.6685 
L 777.39358 354.7359 
L 834.981458 354.239475 
L 892.569337 354.7359 
L 950.157216 354.7359 
" style="fill:none;stroke:#5cb85c;stroke-linecap:square;"/>
   </g>
   <g id="line2d_64">
    <path clip-path="url(#p3422ac080c)" d="M 86.339034 167.813731 
L 143.926913 304.245261 
L 201.514792 325.304721 
L 259.10267 335.715499 
L 316.690549 342.817173 
L 374.278428 347.089784 
L 431.866307 349.722386 
L 489.454186 351.577981 
L 547.042064 352.772134 
L 604.629943 351.428165 
L 662.217822 354.7359 
L 719.805701 354.682015 
L 777.39358 354.7359 
L 834.981458 354.25395 
L 892.569337 354.7359 
L 950.157216 354.7359 
" style="fill:none;stroke:#5cb85c;stroke-linecap:square;"/>
   </g>
   <g id="line2d_65">
    <path clip-path="url(#p3422ac080c)" d="M 86.339034 235.36937 
L 143.926913 309.735724 
L 201.514792 324.30153 
L 259.10267 334.484747 
L 316.690549 340.626392 
L 374.278428 344.922893 
L 431.866307 347.504912 
L 489.454186 349.179386 
L 547.042064 350.745125 
L 604.629943 316.853057 
L 662.217822 352.334839 
L 719.805701 354.288193 
L 777.39358 354.7359 
L 834.981458 354.296711 
L 892.569337 354.7359 
L 950.157216 332.251722 
" style="fill:none;stroke:#f0ad4e;stroke-linecap:square;"/>
   </g>
   <g id="line2d_66">
    <path clip-path="url(#p3422ac080c)" d="M 86.339034 219.001303 
L 143.926913 310.79767 
L 201.514792 326.421027 
L 259.10267 335.607679 
L 316.690549 341.351138 
L 374.278428 345.751822 
L 431.866307 348.396513 
L 489.454186 350.000041 
L 547.042064 351.347939 
L 604.629943 322.818554 
L 662.217822 353.540164 
L 719.805701 354.303727 
L 777.39358 354.7359 
L 834.981458 354.7359 
L 892.569337 354.7359 
L 950.157216 332.821125 
" style="fill:none;stroke:#f0ad4e;stroke-linecap:square;"/>
   </g>
   <g id="line2d_67">
    <path clip-path="url(#p3422ac080c)" d="M 86.339034 189.118392 
L 143.926913 327.329266 
L 201.514792 338.471953 
L 259.10267 342.011286 
L 316.690549 343.934465 
L 374.278428 345.635055 
L 431.866307 347.243632 
L 489.454186 348.038064 
L 547.042064 348.972205 
L 604.629943 324.423301 
L 662.217822 354.638802 
L 719.805701 354.691285 
L 777.39358 354.667004 
L 834.981458 354.490458 
L 892.569337 354.7359 
L 950.157216 327.965333 
" style="fill:none;stroke:#f0ad4e;stroke-linecap:square;"/>
   </g>
   <g id="line2d_68">
    <path clip-path="url(#p3422ac080c)" d="M 86.339034 175.141646 
L 143.926913 329.242291 
L 201.514792 339.445573 
L 259.10267 342.597843 
L 316.690549 345.056009 
L 374.278428 346.332714 
L 431.866307 347.664979 
L 489.454186 348.86159 
L 547.042064 349.755491 
L 604.629943 329.808012 
L 662.217822 354.619524 
L 719.805701 354.605071 
L 777.39358 354.7359 
L 834.981458 354.7359 
L 892.569337 354.7359 
L 950.157216 329.027958 
" style="fill:none;stroke:#f0ad4e;stroke-linecap:square;"/>
   </g>
   <g id="line2d_69">
    <path clip-path="url(#p3422ac080c)" d="M 86.339034 212.266656 
L 143.926913 315.147951 
L 201.514792 325.446085 
L 259.10267 333.140172 
L 316.690549 337.851818 
L 374.278428 342.229884 
L 431.866307 345.045237 
L 489.454186 347.62858 
L 547.042064 349.495988 
L 604.629943 339.443613 
L 662.217822 354.706303 
L 719.805701 354.625261 
L 777.39358 354.7359 
L 834.981458 354.493638 
L 892.569337 354.7359 
L 950.157216 335.373413 
" style="fill:none;stroke:#f0ad4e;stroke-linecap:square;"/>
   </g>
   <g id="line2d_70">
    <path clip-path="url(#p3422ac080c)" d="M 86.339034 203.938421 
L 143.926913 315.69136 
L 201.514792 326.023118 
L 259.10267 333.203322 
L 316.690549 338.521925 
L 374.278428 343.23219 
L 431.866307 345.997239 
L 489.454186 348.362184 
L 547.042064 350.14406 
L 604.629943 341.663732 
L 662.217822 354.704793 
L 719.805701 354.660142 
L 777.39358 354.7359 
L 834.981458 354.7359 
L 892.569337 354.7359 
L 950.157216 336.016214 
" style="fill:none;stroke:#f0ad4e;stroke-linecap:square;"/>
   </g>
   <g id="line2d_71">
    <path clip-path="url(#p3422ac080c)" d="M 86.339034 246.723861 
L 143.926913 319.549211 
L 201.514792 324.244016 
L 259.10267 328.880445 
L 316.690549 332.854695 
L 374.278428 336.013114 
L 431.866307 340.015995 
L 489.454186 342.881926 
L 547.042064 345.010041 
L 604.629943 314.091798 
L 662.217822 354.63391 
L 719.805701 354.495415 
L 777.39358 354.7359 
L 834.981458 354.7359 
L 892.569337 354.7359 
L 950.157216 352.764274 
" style="fill:none;stroke:#d9534f;stroke-linecap:square;"/>
   </g>
   <g id="line2d_72">
    <path clip-path="url(#p3422ac080c)" d="M 86.339034 240.658655 
L 143.926913 318.471878 
L 201.514792 324.496093 
L 259.10267 328.887501 
L 316.690549 333.183538 
L 374.278428 337.003743 
L 431.866307 340.052369 
L 489.454186 343.138138 
L 547.042064 346.079752 
L 604.629943 318.199443 
L 662.217822 354.606031 
L 719.805701 354.517139 
L 777.39358 354.7359 
L 834.981458 354.7359 
L 892.569337 354.7359 
L 950.157216 352.864419 
" style="fill:none;stroke:#f0ad4e;stroke-linecap:square;"/>
   </g>
   <g id="line2d_73">
    <path clip-path="url(#p3422ac080c)" d="M 86.339034 254.792998 
L 143.926913 312.602496 
L 201.514792 318.563999 
L 259.10267 322.794061 
L 316.690549 328.011488 
L 374.278428 333.739005 
L 431.866307 338.699135 
L 489.454186 342.890308 
L 547.042064 345.963669 
L 604.629943 330.685144 
L 662.217822 354.6973 
L 719.805701 354.633586 
L 777.39358 354.7359 
L 834.981458 354.085511 
L 892.569337 354.7359 
L 950.157216 354.7359 
" style="fill:none;stroke:#d9534f;stroke-linecap:square;"/>
   </g>
   <g id="line2d_74">
    <path clip-path="url(#p3422ac080c)" d="M 86.339034 243.915136 
L 143.926913 312.999561 
L 201.514792 319.457445 
L 259.10267 323.873995 
L 316.690549 329.311327 
L 374.278428 334.783163 
L 431.866307 339.617866 
L 489.454186 343.597741 
L 547.042064 346.632823 
L 604.629943 334.511971 
L 662.217822 354.703786 
L 719.805701 354.653288 
L 777.39358 354.7359 
L 834.981458 354.100599 
L 892.569337 354.7359 
L 950.157216 354.7359 
" style="fill:none;stroke:#f0ad4e;stroke-linecap:square;"/>
   </g>
   <g id="line2d_75">
    <path clip-path="url(#p3422ac080c)" d="M 86.339034 186.233791 
L 143.926913 295.743956 
L 201.514792 319.099281 
L 259.10267 333.199831 
L 316.690549 342.310166 
L 374.278428 347.639919 
L 431.866307 350.907861 
L 489.454186 352.546274 
L 547.042064 353.558073 
L 604.629943 353.217263 
L 662.217822 354.696241 
L 719.805701 354.576623 
L 777.39358 354.7359 
L 834.981458 354.7359 
L 892.569337 354.7359 
L 950.157216 348.429423 
" style="fill:none;stroke:#f0ad4e;stroke-linecap:square;"/>
   </g>
   <g id="line2d_76">
    <path clip-path="url(#p3422ac080c)" d="M 86.339034 182.248196 
L 143.926913 296.241142 
L 201.514792 319.222751 
L 259.10267 334.165067 
L 316.690549 342.963841 
L 374.278428 348.396668 
L 431.866307 351.135162 
L 489.454186 352.721284 
L 547.042064 353.618642 
L 604.629943 353.309119 
L 662.217822 354.700439 
L 719.805701 354.7359 
L 777.39358 354.7359 
L 834.981458 354.7359 
L 892.569337 354.7359 
L 950.157216 348.700489 
" style="fill:none;stroke:#f0ad4e;stroke-linecap:square;"/>
   </g>
   <g id="line2d_77">
    <path clip-path="url(#p3422ac080c)" d="M 86.339034 186.049609 
L 143.926913 321.062247 
L 201.514792 335.506571 
L 259.10267 340.920489 
L 316.690549 343.855438 
L 374.278428 345.276985 
L 431.866307 347.098061 
L 489.454186 348.608146 
L 547.042064 349.628672 
L 604.629943 334.012369 
L 662.217822 354.67656 
L 719.805701 354.604431 
L 777.39358 354.7359 
L 834.981458 353.714838 
L 892.569337 354.7359 
L 950.157216 331.880183 
" style="fill:none;stroke:#f0ad4e;stroke-linecap:square;"/>
   </g>
   <g id="line2d_78">
    <path clip-path="url(#p3422ac080c)" d="M 86.339034 177.913627 
L 143.926913 322.151523 
L 201.514792 336.445488 
L 259.10267 341.500219 
L 316.690549 343.900391 
L 374.278428 346.145647 
L 431.866307 347.624164 
L 489.454186 348.740001 
L 547.042064 349.869186 
L 604.629943 335.629763 
L 662.217822 354.7359 
L 719.805701 354.652428 
L 777.39358 354.7359 
L 834.981458 354.7359 
L 892.569337 354.7359 
L 950.157216 332.850363 
" style="fill:none;stroke:#f0ad4e;stroke-linecap:square;"/>
   </g>
   <g id="line2d_79">
    <path clip-path="url(#p3422ac080c)" d="M 86.339034 206.140368 
L 143.926913 315.88193 
L 201.514792 324.981394 
L 259.10267 333.363091 
L 316.690549 339.449367 
L 374.278428 344.166683 
L 431.866307 347.253804 
L 489.454186 349.146732 
L 547.042064 350.874169 
L 604.629943 338.57642 
L 662.217822 354.634955 
L 719.805701 354.588791 
L 777.39358 354.7359 
L 834.981458 354.443667 
L 892.569337 354.7359 
L 950.157216 333.393229 
" style="fill:none;stroke:#f0ad4e;stroke-linecap:square;"/>
   </g>
   <g id="line2d_80">
    <path clip-path="url(#p3422ac080c)" d="M 86.339034 198.956781 
L 143.926913 315.793698 
L 201.514792 326.054434 
L 259.10267 334.275593 
L 316.690549 340.440611 
L 374.278428 344.93087 
L 431.866307 347.721797 
L 489.454186 349.77575 
L 547.042064 350.744992 
L 604.629943 339.898315 
L 662.217822 354.645676 
L 719.805701 354.631555 
L 777.39358 354.7359 
L 834.981458 354.7359 
L 892.569337 354.7359 
L 950.157216 334.28863 
" style="fill:none;stroke:#f0ad4e;stroke-linecap:square;"/>
   </g>
   <g id="line2d_81">
    <path clip-path="url(#p3422ac080c)" d="M 86.339034 254.701406 
L 143.926913 319.99514 
L 201.514792 334.101977 
L 259.10267 343.144024 
L 316.690549 347.455876 
L 374.278428 349.539335 
L 431.866307 350.759318 
L 489.454186 350.803342 
L 547.042064 350.749587 
L 604.629943 246.191336 
L 662.217822 337.566355 
L 719.805701 353.403539 
L 777.39358 354.7359 
L 834.981458 353.747465 
L 892.569337 354.7359 
L 950.157216 354.7359 
" style="fill:none;stroke:#d9534f;stroke-linecap:square;"/>
   </g>
   <g id="line2d_82">
    <path clip-path="url(#p3422ac080c)" d="M 86.339034 244.9604 
L 143.926913 320.434939 
L 201.514792 335.335372 
L 259.10267 343.593529 
L 316.690549 347.957589 
L 374.278428 349.771983 
L 431.866307 350.82698 
L 489.454186 350.999354 
L 547.042064 351.031677 
L 604.629943 249.715406 
L 662.217822 339.960312 
L 719.805701 353.775041 
L 777.39358 354.7359 
L 834.981458 353.796117 
L 892.569337 354.7359 
L 950.157216 354.7359 
" style="fill:none;stroke:#d9534f;stroke-linecap:square;"/>
   </g>
   <g id="line2d_83">
    <path clip-path="url(#p3422ac080c)" d="M 86.339034 258.675506 
L 143.926913 338.985639 
L 201.514792 349.081837 
L 259.10267 351.041569 
L 316.690549 351.551379 
L 374.278428 351.475907 
L 431.866307 351.636342 
L 489.454186 351.46063 
L 547.042064 351.662303 
L 604.629943 245.750382 
L 662.217822 315.652316 
L 719.805701 346.918339 
L 777.39358 354.655608 
L 834.981458 354.560235 
L 892.569337 354.7359 
L 950.157216 328.522507 
" style="fill:none;stroke:#d9534f;stroke-linecap:square;"/>
   </g>
   <g id="line2d_84">
    <path clip-path="url(#p3422ac080c)" d="M 86.339034 250.006779 
L 143.926913 339.598904 
L 201.514792 349.069637 
L 259.10267 351.16045 
L 316.690549 351.46517 
L 374.278428 351.62618 
L 431.866307 351.472387 
L 489.454186 351.473543 
L 547.042064 351.639695 
L 604.629943 247.111702 
L 662.217822 319.57044 
L 719.805701 348.114873 
L 777.39358 354.7359 
L 834.981458 354.7359 
L 892.569337 354.7359 
L 950.157216 329.848942 
" style="fill:none;stroke:#d9534f;stroke-linecap:square;"/>
   </g>
   <g id="line2d_85">
    <path clip-path="url(#p3422ac080c)" d="M 86.339034 224.709154 
L 143.926913 308.215573 
L 201.514792 321.998005 
L 259.10267 330.34674 
L 316.690549 337.914267 
L 374.278428 341.899284 
L 431.866307 344.743402 
L 489.454186 347.51284 
L 547.042064 349.346176 
L 604.629943 329.806339 
L 662.217822 354.331333 
L 719.805701 354.553992 
L 777.39358 354.62507 
L 834.981458 354.7359 
L 892.569337 354.7359 
L 950.157216 346.892424 
" style="fill:none;stroke:#f0ad4e;stroke-linecap:square;"/>
   </g>
   <g id="line2d_86">
    <path clip-path="url(#p3422ac080c)" d="M 86.339034 216.719074 
L 143.926913 309.216252 
L 201.514792 322.238194 
L 259.10267 331.695406 
L 316.690549 338.624136 
L 374.278428 342.826198 
L 431.866307 345.655791 
L 489.454186 347.774731 
L 547.042064 349.293197 
L 604.629943 331.881745 
L 662.217822 354.398736 
L 719.805701 354.665008 
L 777.39358 354.631302 
L 834.981458 354.7359 
L 892.569337 354.7359 
L 950.157216 347.274831 
" style="fill:none;stroke:#f0ad4e;stroke-linecap:square;"/>
   </g>
   <g id="line2d_87">
    <path clip-path="url(#p3422ac080c)" d="M 86.339034 231.301725 
L 143.926913 324.058123 
L 201.514792 332.921602 
L 259.10267 337.303905 
L 316.690549 339.511337 
L 374.278428 340.898076 
L 431.866307 342.650009 
L 489.454186 344.235113 
L 547.042064 345.832188 
L 604.629943 298.726117 
L 662.217822 354.440286 
L 719.805701 354.644684 
L 777.39358 354.7359 
L 834.981458 354.7359 
L 892.569337 354.7359 
L 950.157216 345.635534 
" style="fill:none;stroke:#f0ad4e;stroke-linecap:square;"/>
   </g>
   <g id="line2d_88">
    <path clip-path="url(#p3422ac080c)" d="M 86.339034 219.18321 
L 143.926913 325.009541 
L 201.514792 334.238798 
L 259.10267 337.949515 
L 316.690549 340.053138 
L 374.278428 341.781329 
L 431.866307 343.587343 
L 489.454186 344.386728 
L 547.042064 346.109056 
L 604.629943 304.399469 
L 662.217822 354.499791 
L 719.805701 354.7359 
L 777.39358 354.7359 
L 834.981458 354.7359 
L 892.569337 354.7359 
L 950.157216 346.224881 
" style="fill:none;stroke:#f0ad4e;stroke-linecap:square;"/>
   </g>
   <g id="line2d_89">
    <path clip-path="url(#p3422ac080c)" d="M 86.339034 260.908294 
L 143.926913 330.576491 
L 201.514792 334.951672 
L 259.10267 335.931343 
L 316.690549 337.420167 
L 374.278428 339.653289 
L 431.866307 341.656114 
L 489.454186 343.802993 
L 547.042064 345.84628 
L 604.629943 321.297684 
L 662.217822 354.707552 
L 719.805701 354.667122 
L 777.39358 354.45103 
L 834.981458 354.175455 
L 892.569337 354.7359 
L 950.157216 291.58501 
" style="fill:none;stroke:#d9534f;stroke-linecap:square;"/>
   </g>
   <g id="line2d_90">
    <path clip-path="url(#p3422ac080c)" d="M 86.339034 241.982207 
L 143.926913 331.149591 
L 201.514792 335.45591 
L 259.10267 336.850984 
L 316.690549 338.438748 
L 374.278428 340.51401 
L 431.866307 342.478064 
L 489.454186 344.707722 
L 547.042064 346.96357 
L 604.629943 327.978542 
L 662.217822 354.688064 
L 719.805701 354.549614 
L 777.39358 354.7359 
L 834.981458 354.7359 
L 892.569337 354.7359 
L 950.157216 296.401675 
" style="fill:none;stroke:#d9534f;stroke-linecap:square;"/>
   </g>
   <g id="line2d_91">
    <path clip-path="url(#p3422ac080c)" d="M 86.339034 233.729732 
L 143.926913 320.544576 
L 201.514792 331.382666 
L 259.10267 336.092465 
L 316.690549 339.711151 
L 374.278428 341.778575 
L 431.866307 343.8837 
L 489.454186 345.417792 
L 547.042064 346.844389 
L 604.629943 296.68156 
L 662.217822 353.395616 
L 719.805701 354.608315 
L 777.39358 354.627018 
L 834.981458 354.7359 
L 892.569337 354.7359 
L 950.157216 348.197046 
" style="fill:none;stroke:#f0ad4e;stroke-linecap:square;"/>
   </g>
   <g id="line2d_92">
    <path clip-path="url(#p3422ac080c)" d="M 86.339034 228.030947 
L 143.926913 321.483398 
L 201.514792 331.57044 
L 259.10267 336.084139 
L 316.690549 339.644966 
L 374.278428 341.905073 
L 431.866307 344.161673 
L 489.454186 345.971778 
L 547.042064 346.869506 
L 604.629943 299.696925 
L 662.217822 353.689022 
L 719.805701 354.61475 
L 777.39358 354.638537 
L 834.981458 354.7359 
L 892.569337 354.7359 
L 950.157216 348.533447 
" style="fill:none;stroke:#f0ad4e;stroke-linecap:square;"/>
   </g>
   <g id="line2d_93">
    <path clip-path="url(#p3422ac080c)" d="M 86.339034 238.212657 
L 143.926913 334.104693 
L 201.514792 342.171508 
L 259.10267 345.338041 
L 316.690549 347.059999 
L 374.278428 347.901149 
L 431.866307 348.839481 
L 489.454186 349.537546 
L 547.042064 349.764036 
L 604.629943 252.008975 
L 662.217822 337.460344 
L 719.805701 353.157278 
L 777.39358 354.680784 
L 834.981458 354.628578 
L 892.569337 354.7359 
L 950.157216 346.765432 
" style="fill:none;stroke:#d9534f;stroke-linecap:square;"/>
   </g>
   <g id="line2d_94">
    <path clip-path="url(#p3422ac080c)" d="M 86.339034 228.574492 
L 143.926913 333.800809 
L 201.514792 342.638118 
L 259.10267 345.539053 
L 316.690549 346.945041 
L 374.278428 348.079677 
L 431.866307 349.146899 
L 489.454186 349.691408 
L 547.042064 350.186098 
L 604.629943 256.476485 
L 662.217822 340.221094 
L 719.805701 353.501144 
L 777.39358 354.7359 
L 834.981458 354.7359 
L 892.569337 354.7359 
L 950.157216 347.358382 
" style="fill:none;stroke:#d9534f;stroke-linecap:square;"/>
   </g>
   <g id="line2d_95">
    <path clip-path="url(#p3422ac080c)" d="M 86.339034 205.818892 
L 143.926913 305.054467 
L 201.514792 325.254247 
L 259.10267 335.871631 
L 316.690549 343.096781 
L 374.278428 347.25013 
L 431.866307 349.75778 
L 489.454186 351.568757 
L 547.042064 352.620247 
L 604.629943 351.037974 
L 662.217822 354.709749 
L 719.805701 354.711475 
L 777.39358 354.7359 
L 834.981458 354.7359 
L 892.569337 354.7359 
L 950.157216 315.40657 
" style="fill:none;stroke:#f0ad4e;stroke-linecap:square;"/>
   </g>
   <g id="line2d_96">
    <path clip-path="url(#p3422ac080c)" d="M 86.339034 198.391224 
L 143.926913 305.823363 
L 201.514792 325.915992 
L 259.10267 337.252733 
L 316.690549 343.432751 
L 374.278428 347.832458 
L 431.866307 350.314602 
L 489.454186 351.974405 
L 547.042064 353.113578 
L 604.629943 351.946351 
L 662.217822 354.696232 
L 719.805701 354.7359 
L 777.39358 354.7359 
L 834.981458 354.7359 
L 892.569337 354.7359 
L 950.157216 316.729111 
" style="fill:none;stroke:#f0ad4e;stroke-linecap:square;"/>
   </g>
   <g id="line2d_97">
    <path clip-path="url(#p3422ac080c)" d="M 86.339034 202.68916 
L 143.926913 307.373882 
L 201.514792 326.904483 
L 259.10267 336.914229 
L 316.690549 342.437961 
L 374.278428 346.306268 
L 431.866307 348.622416 
L 489.454186 350.769533 
L 547.042064 352.144344 
L 604.629943 347.700253 
L 662.217822 354.667073 
L 719.805701 354.508547 
L 777.39358 354.7359 
L 834.981458 354.195493 
L 892.569337 354.7359 
L 950.157216 321.660958 
" style="fill:none;stroke:#f0ad4e;stroke-linecap:square;"/>
   </g>
   <g id="line2d_98">
    <path clip-path="url(#p3422ac080c)" d="M 86.339034 193.75095 
L 143.926913 308.3319 
L 201.514792 327.689877 
L 259.10267 337.504108 
L 316.690549 343.294207 
L 374.278428 346.988261 
L 431.866307 349.403635 
L 489.454186 351.126634 
L 547.042064 352.338728 
L 604.629943 349.088239 
L 662.217822 354.703011 
L 719.805701 354.429236 
L 777.39358 354.7359 
L 834.981458 354.7359 
L 892.569337 354.7359 
L 950.157216 323.509916 
" style="fill:none;stroke:#f0ad4e;stroke-linecap:square;"/>
   </g>
   <g id="line2d_99">
    <path clip-path="url(#p3422ac080c)" d="M 86.339034 259.870162 
L 143.926913 345.024599 
L 201.514792 346.739809 
L 259.10267 347.731411 
L 316.690549 349.639198 
L 374.278428 350.600946 
L 431.866307 351.994756 
L 489.454186 352.747716 
L 547.042064 353.083576 
L 604.629943 350.843808 
L 662.217822 354.570095 
L 719.805701 354.168888 
L 777.39358 354.7359 
L 834.981458 353.630533 
L 892.569337 354.7359 
L 950.157216 176.249105 
" style="fill:none;stroke:#d9534f;stroke-linecap:square;"/>
   </g>
   <g id="line2d_100">
    <path clip-path="url(#p3422ac080c)" d="M 86.339034 244.982563 
L 143.926913 344.884147 
L 201.514792 346.965195 
L 259.10267 348.428298 
L 316.690549 349.911611 
L 374.278428 351.462057 
L 431.866307 352.242957 
L 489.454186 352.95071 
L 547.042064 353.457898 
L 604.629943 351.976719 
L 662.217822 354.57439 
L 719.805701 354.112931 
L 777.39358 354.7359 
L 834.981458 354.7359 
L 892.569337 354.7359 
L 950.157216 186.209223 
" style="fill:none;stroke:#d9534f;stroke-linecap:square;"/>
   </g>
   <g id="line2d_101">
    <path clip-path="url(#p3422ac080c)" d="M 86.339034 152.940955 
L 143.926913 338.588864 
L 201.514792 343.412424 
L 259.10267 345.455716 
L 316.690549 347.166548 
L 374.278428 348.378053 
L 431.866307 349.368659 
L 489.454186 350.119746 
L 547.042064 350.150896 
L 604.629943 318.486686 
L 662.217822 354.144096 
L 719.805701 354.587241 
L 777.39358 354.7359 
L 834.981458 354.359183 
L 892.569337 354.7359 
L 950.157216 339.735532 
" style="fill:none;stroke:#f0ad4e;stroke-linecap:square;"/>
   </g>
   <g id="line2d_102">
    <path clip-path="url(#p3422ac080c)" d="M 86.339034 149.19041 
L 143.926913 338.42186 
L 201.514792 343.721142 
L 259.10267 345.551643 
L 316.690549 347.118264 
L 374.278428 348.250419 
L 431.866307 349.477245 
L 489.454186 350.195342 
L 547.042064 350.427731 
L 604.629943 320.728822 
L 662.217822 354.229846 
L 719.805701 354.50173 
L 777.39358 354.7359 
L 834.981458 354.7359 
L 892.569337 354.7359 
L 950.157216 340.344244 
" style="fill:none;stroke:#5cb85c;stroke-linecap:square;"/>
   </g>
   <g id="line2d_103">
    <path clip-path="url(#p3422ac080c)" d="M 86.339034 211.264261 
L 143.926913 319.838619 
L 201.514792 335.378813 
L 259.10267 341.96108 
L 316.690549 345.654412 
L 374.278428 346.977246 
L 431.866307 348.773606 
L 489.454186 349.454228 
L 547.042064 349.544412 
L 604.629943 288.504102 
L 662.217822 351.106492 
L 719.805701 354.632476 
L 777.39358 354.7359 
L 834.981458 354.7359 
L 892.569337 354.7359 
L 950.157216 349.068952 
" style="fill:none;stroke:#f0ad4e;stroke-linecap:square;"/>
   </g>
   <g id="line2d_104">
    <path clip-path="url(#p3422ac080c)" d="M 86.339034 205.164694 
L 143.926913 320.251531 
L 201.514792 336.255062 
L 259.10267 342.597674 
L 316.690549 345.933449 
L 374.278428 347.714159 
L 431.866307 348.464062 
L 489.454186 349.407342 
L 547.042064 349.75229 
L 604.629943 291.339354 
L 662.217822 351.408594 
L 719.805701 354.655926 
L 777.39358 354.7359 
L 834.981458 354.7359 
L 892.569337 354.7359 
L 950.157216 349.214563 
" style="fill:none;stroke:#f0ad4e;stroke-linecap:square;"/>
   </g>
   <g id="line2d_105">
    <path clip-path="url(#p3422ac080c)" d="M 86.339034 226.806932 
L 143.926913 297.201744 
L 201.514792 314.210737 
L 259.10267 326.43998 
L 316.690549 334.982353 
L 374.278428 341.941484 
L 431.866307 345.981718 
L 489.454186 348.740404 
L 547.042064 350.396812 
L 604.629943 345.436286 
L 662.217822 354.680751 
L 719.805701 354.691559 
L 777.39358 354.7359 
L 834.981458 354.7359 
L 892.569337 354.7359 
L 950.157216 350.64794 
" style="fill:none;stroke:#f0ad4e;stroke-linecap:square;"/>
   </g>
   <g id="line2d_106">
    <path clip-path="url(#p3422ac080c)" d="M 86.339034 213.825582 
L 143.926913 301.003492 
L 201.514792 316.746205 
L 259.10267 328.229957 
L 316.690549 336.797114 
L 374.278428 342.46668 
L 431.866307 346.635056 
L 489.454186 349.432798 
L 547.042064 350.846458 
L 604.629943 345.954838 
L 662.217822 354.686837 
L 719.805701 354.697676 
L 777.39358 354.7359 
L 834.981458 354.7359 
L 892.569337 354.7359 
L 950.157216 350.836005 
" style="fill:none;stroke:#f0ad4e;stroke-linecap:square;"/>
   </g>
   <g id="line2d_107">
    <path clip-path="url(#p3422ac080c)" d="M 86.339034 208.225774 
L 143.926913 292.784265 
L 201.514792 312.519616 
L 259.10267 328.538131 
L 316.690549 338.109173 
L 374.278428 344.589336 
L 431.866307 348.669925 
L 489.454186 351.1526 
L 547.042064 352.525129 
L 604.629943 351.516528 
L 662.217822 354.64746 
L 719.805701 354.7359 
L 777.39358 354.7359 
L 834.981458 354.144863 
L 892.569337 354.7359 
L 950.157216 354.7359 
" style="fill:none;stroke:#f0ad4e;stroke-linecap:square;"/>
   </g>
   <g id="line2d_108">
    <path clip-path="url(#p3422ac080c)" d="M 86.339034 201.951002 
L 143.926913 293.289641 
L 201.514792 314.479948 
L 259.10267 328.992114 
L 316.690549 339.220519 
L 374.278428 345.159057 
L 431.866307 349.324311 
L 489.454186 351.408527 
L 547.042064 352.917889 
L 604.629943 351.79533 
L 662.217822 354.693459 
L 719.805701 354.7359 
L 777.39358 354.7359 
L 834.981458 354.191004 
L 892.569337 354.7359 
L 950.157216 354.7359 
" style="fill:none;stroke:#f0ad4e;stroke-linecap:square;"/>
   </g>
   <g id="line2d_109">
    <path clip-path="url(#p3422ac080c)" d="M 86.339034 187.889838 
L 143.926913 307.119432 
L 201.514792 329.09499 
L 259.10267 338.365717 
L 316.690549 343.167146 
L 374.278428 345.5251 
L 431.866307 347.356891 
L 489.454186 348.44953 
L 547.042064 349.622279 
L 604.629943 331.913554 
L 662.217822 354.712603 
L 719.805701 354.7359 
L 777.39358 354.7359 
L 834.981458 354.20572 
L 892.569337 354.7359 
L 950.157216 354.7359 
" style="fill:none;stroke:#f0ad4e;stroke-linecap:square;"/>
   </g>
   <g id="line2d_110">
    <path clip-path="url(#p3422ac080c)" d="M 86.339034 180.161841 
L 143.926913 308.048836 
L 201.514792 330.033261 
L 259.10267 339.047322 
L 316.690549 343.770208 
L 374.278428 346.164644 
L 431.866307 347.606885 
L 489.454186 348.71853 
L 547.042064 349.652019 
L 604.629943 335.364495 
L 662.217822 354.687018 
L 719.805701 354.670561 
L 777.39358 354.7359 
L 834.981458 354.233081 
L 892.569337 354.7359 
L 950.157216 354.7359 
" style="fill:none;stroke:#f0ad4e;stroke-linecap:square;"/>
   </g>
   <g id="line2d_111">
    <path clip-path="url(#p3422ac080c)" d="M 86.339034 228.465629 
L 143.926913 323.134436 
L 201.514792 334.641457 
L 259.10267 340.380929 
L 316.690549 343.688837 
L 374.278428 345.95034 
L 431.866307 347.512654 
L 489.454186 348.40912 
L 547.042064 349.239438 
L 604.629943 286.684778 
L 662.217822 351.97699 
L 719.805701 354.665849 
L 777.39358 354.7359 
L 834.981458 353.943103 
L 892.569337 354.7359 
L 950.157216 338.20104 
" style="fill:none;stroke:#f0ad4e;stroke-linecap:square;"/>
   </g>
   <g id="line2d_112">
    <path clip-path="url(#p3422ac080c)" d="M 86.339034 221.664233 
L 143.926913 323.119582 
L 201.514792 335.245419 
L 259.10267 340.913917 
L 316.690549 344.110671 
L 374.278428 346.330893 
L 431.866307 347.629843 
L 489.454186 348.663027 
L 547.042064 348.958095 
L 604.629943 289.402667 
L 662.217822 352.436347 
L 719.805701 354.597778 
L 777.39358 354.642385 
L 834.981458 354.7359 
L 892.569337 354.7359 
L 950.157216 339.179743 
" style="fill:none;stroke:#f0ad4e;stroke-linecap:square;"/>
   </g>
   <g id="line2d_113">
    <path clip-path="url(#p3422ac080c)" d="M 86.339034 254.325909 
L 143.926913 304.391754 
L 201.514792 314.908648 
L 259.10267 323.038305 
L 316.690549 331.253651 
L 374.278428 336.953163 
L 431.866307 341.132619 
L 489.454186 344.880085 
L 547.042064 347.107848 
L 604.629943 331.695791 
L 662.217822 354.632303 
L 719.805701 354.698087 
L 777.39358 354.7359 
L 834.981458 354.7359 
L 892.569337 353.140537 
L 950.157216 354.7359 
" style="fill:none;stroke:#f0ad4e;stroke-linecap:square;"/>
   </g>
   <g id="line2d_114">
    <path clip-path="url(#p3422ac080c)" d="M 86.339034 247.891339 
L 143.926913 304.38662 
L 201.514792 315.89513 
L 259.10267 323.586207 
L 316.690549 331.460736 
L 374.278428 337.531351 
L 431.866307 342.091539 
L 489.454186 345.444934 
L 547.042064 347.662431 
L 604.629943 333.657409 
L 662.217822 354.658316 
L 719.805701 354.664509 
L 777.39358 354.7359 
L 834.981458 354.7359 
L 892.569337 353.228178 
L 950.157216 354.7359 
" style="fill:none;stroke:#f0ad4e;stroke-linecap:square;"/>
   </g>
   <g id="line2d_115">
    <path clip-path="url(#p3422ac080c)" d="M 86.339034 204.701277 
L 143.926913 317.516825 
L 201.514792 332.342968 
L 259.10267 340.016363 
L 316.690549 343.982152 
L 374.278428 346.131109 
L 431.866307 347.869654 
L 489.454186 348.895913 
L 547.042064 349.789042 
L 604.629943 324.616622 
L 662.217822 354.606634 
L 719.805701 354.585036 
L 777.39358 354.54399 
L 834.981458 354.106202 
L 892.569337 354.7359 
L 950.157216 327.926713 
" style="fill:none;stroke:#f0ad4e;stroke-linecap:square;"/>
   </g>
   <g id="line2d_116">
    <path clip-path="url(#p3422ac080c)" d="M 86.339034 193.597764 
L 143.926913 318.811707 
L 201.514792 333.984321 
L 259.10267 340.909335 
L 316.690549 344.313009 
L 374.278428 346.783235 
L 431.866307 348.309408 
L 489.454186 349.515773 
L 547.042064 350.208061 
L 604.629943 328.317304 
L 662.217822 354.688164 
L 719.805701 354.553547 
L 777.39358 354.7359 
L 834.981458 353.978629 
L 892.569337 354.7359 
L 950.157216 328.924344 
" style="fill:none;stroke:#f0ad4e;stroke-linecap:square;"/>
   </g>
   <g id="line2d_117">
    <path clip-path="url(#p3422ac080c)" d="M 86.339034 255.534574 
L 143.926913 335.752706 
L 201.514792 341.33715 
L 259.10267 343.07974 
L 316.690549 343.741205 
L 374.278428 344.52014 
L 431.866307 345.473223 
L 489.454186 345.846211 
L 547.042064 346.846208 
L 604.629943 241.537906 
L 662.217822 347.824382 
L 719.805701 354.20692 
L 777.39358 354.655194 
L 834.981458 354.326466 
L 892.569337 354.7359 
L 950.157216 346.948477 
" style="fill:none;stroke:#d9534f;stroke-linecap:square;"/>
   </g>
   <g id="line2d_118">
    <path clip-path="url(#p3422ac080c)" d="M 86.339034 250.461096 
L 143.926913 335.54446 
L 201.514792 341.633912 
L 259.10267 342.791283 
L 316.690549 343.764147 
L 374.278428 344.874121 
L 431.866307 345.4421 
L 489.454186 346.21791 
L 547.042064 346.771334 
L 604.629943 244.665266 
L 662.217822 348.462678 
L 719.805701 354.194347 
L 777.39358 354.7359 
L 834.981458 354.600369 
L 892.569337 354.7359 
L 950.157216 347.471576 
" style="fill:none;stroke:#d9534f;stroke-linecap:square;"/>
   </g>
   <g id="line2d_119">
    <path clip-path="url(#p3422ac080c)" d="M 86.339034 243.488962 
L 143.926913 326.965339 
L 201.514792 336.920495 
L 259.10267 341.792142 
L 316.690549 344.890434 
L 374.278428 346.906857 
L 431.866307 348.226651 
L 489.454186 349.23824 
L 547.042064 349.935858 
L 604.629943 278.037761 
L 662.217822 328.686442 
L 719.805701 347.199966 
L 777.39358 354.584788 
L 834.981458 354.350285 
L 892.569337 354.7359 
L 950.157216 350.406282 
" style="fill:none;stroke:#d9534f;stroke-linecap:square;"/>
   </g>
   <g id="line2d_120">
    <path clip-path="url(#p3422ac080c)" d="M 86.339034 236.096877 
L 143.926913 326.962115 
L 201.514792 337.288472 
L 259.10267 342.190201 
L 316.690549 345.357773 
L 374.278428 347.386578 
L 431.866307 348.37776 
L 489.454186 349.370796 
L 547.042064 350.123906 
L 604.629943 280.300695 
L 662.217822 330.444031 
L 719.805701 348.348147 
L 777.39358 354.7359 
L 834.981458 354.011052 
L 892.569337 354.7359 
L 950.157216 350.636196 
" style="fill:none;stroke:#d9534f;stroke-linecap:square;"/>
   </g>
   <g id="line2d_121">
    <path clip-path="url(#p3422ac080c)" d="M 86.339034 191.30007 
L 143.926913 287.192037 
L 201.514792 320.443207 
L 259.10267 336.694269 
L 316.690549 345.571778 
L 374.278428 349.909081 
L 431.866307 352.05546 
L 489.454186 353.396665 
L 547.042064 354.002366 
L 604.629943 353.629104 
L 662.217822 354.643083 
L 719.805701 354.463636 
L 777.39358 354.7359 
L 834.981458 354.7359 
L 892.569337 354.7359 
L 950.157216 338.857944 
" style="fill:none;stroke:#f0ad4e;stroke-linecap:square;"/>
   </g>
   <g id="line2d_122">
    <path clip-path="url(#p3422ac080c)" d="M 86.339034 183.411418 
L 143.926913 289.123053 
L 201.514792 321.631281 
L 259.10267 338.54364 
L 316.690549 346.356422 
L 374.278428 350.299586 
L 431.866307 352.602821 
L 489.454186 353.523505 
L 547.042064 354.104981 
L 604.629943 353.675613 
L 662.217822 354.667733 
L 719.805701 354.657723 
L 777.39358 354.7359 
L 834.981458 354.7359 
L 892.569337 354.7359 
L 950.157216 339.560926 
" style="fill:none;stroke:#f0ad4e;stroke-linecap:square;"/>
   </g>
   <g id="line2d_123">
    <path clip-path="url(#p3422ac080c)" d="M 86.339034 225.034911 
L 143.926913 306.151726 
L 201.514792 321.647858 
L 259.10267 331.223862 
L 316.690549 337.59335 
L 374.278428 341.025583 
L 431.866307 344.084196 
L 489.454186 346.923957 
L 547.042064 348.366368 
L 604.629943 330.897721 
L 662.217822 354.606898 
L 719.805701 354.504989 
L 777.39358 354.615549 
L 834.981458 354.7359 
L 892.569337 354.7359 
L 950.157216 350.217633 
" style="fill:none;stroke:#f0ad4e;stroke-linecap:square;"/>
   </g>
   <g id="line2d_124">
    <path clip-path="url(#p3422ac080c)" d="M 86.339034 215.857268 
L 143.926913 306.674044 
L 201.514792 322.80675 
L 259.10267 332.002404 
L 316.690549 337.999414 
L 374.278428 341.944059 
L 431.866307 345.132633 
L 489.454186 347.116105 
L 547.042064 349.007226 
L 604.629943 334.067487 
L 662.217822 354.582477 
L 719.805701 354.459896 
L 777.39358 354.7359 
L 834.981458 354.7359 
L 892.569337 354.7359 
L 950.157216 350.508938 
" style="fill:none;stroke:#f0ad4e;stroke-linecap:square;"/>
   </g>
   <g id="line2d_125">
    <path clip-path="url(#p3422ac080c)" d="M 43.148125 354.7359 
L 993.348125 354.7359 
" style="fill:none;stroke:#dedede;stroke-linecap:square;stroke-width:2;"/>
   </g>
   <g id="text_25">
    <!-- FastQC: Sequence Duplication Levels -->
    <g transform="translate(369.834375 19.3575)scale(0.16 -0.16)">
     <defs>
      <path d="M 628 4666 
L 3309 4666 
L 3309 4134 
L 1259 4134 
L 1259 2759 
L 3109 2759 
L 3109 2228 
L 1259 2228 
L 1259 0 
L 628 0 
L 628 4666 
z
" id="DejaVuSans-46" transform="scale(0.015625)"/>
      <path d="M 2834 3397 
L 2834 2853 
Q 2591 2978 2328 3040 
Q 2066 3103 1784 3103 
Q 1356 3103 1142 2972 
Q 928 2841 928 2578 
Q 928 2378 1081 2264 
Q 1234 2150 1697 2047 
L 1894 2003 
Q 2506 1872 2764 1633 
Q 3022 1394 3022 966 
Q 3022 478 2636 193 
Q 2250 -91 1575 -91 
Q 1294 -91 989 -36 
Q 684 19 347 128 
L 347 722 
Q 666 556 975 473 
Q 1284 391 1588 391 
Q 1994 391 2212 530 
Q 2431 669 2431 922 
Q 2431 1156 2273 1281 
Q 2116 1406 1581 1522 
L 1381 1569 
Q 847 1681 609 1914 
Q 372 2147 372 2553 
Q 372 3047 722 3315 
Q 1072 3584 1716 3584 
Q 2034 3584 2315 3537 
Q 2597 3491 2834 3397 
z
" id="DejaVuSans-73" transform="scale(0.015625)"/>
      <path d="M 2522 4238 
Q 1834 4238 1429 3725 
Q 1025 3213 1025 2328 
Q 1025 1447 1429 934 
Q 1834 422 2522 422 
Q 3209 422 3611 934 
Q 4013 1447 4013 2328 
Q 4013 3213 3611 3725 
Q 3209 4238 2522 4238 
z
M 3406 84 
L 4238 -825 
L 3475 -825 
L 2784 -78 
Q 2681 -84 2626 -87 
Q 2572 -91 2522 -91 
Q 1538 -91 948 567 
Q 359 1225 359 2328 
Q 359 3434 948 4092 
Q 1538 4750 2522 4750 
Q 3503 4750 4090 4092 
Q 4678 3434 4678 2328 
Q 4678 1516 4351 937 
Q 4025 359 3406 84 
z
" id="DejaVuSans-51" transform="scale(0.015625)"/>
      <path d="M 4122 4306 
L 4122 3641 
Q 3803 3938 3442 4084 
Q 3081 4231 2675 4231 
Q 1875 4231 1450 3742 
Q 1025 3253 1025 2328 
Q 1025 1406 1450 917 
Q 1875 428 2675 428 
Q 3081 428 3442 575 
Q 3803 722 4122 1019 
L 4122 359 
Q 3791 134 3420 21 
Q 3050 -91 2638 -91 
Q 1578 -91 968 557 
Q 359 1206 359 2328 
Q 359 3453 968 4101 
Q 1578 4750 2638 4750 
Q 3056 4750 3426 4639 
Q 3797 4528 4122 4306 
z
" id="DejaVuSans-43" transform="scale(0.015625)"/>
      <path d="M 750 794 
L 1409 794 
L 1409 0 
L 750 0 
L 750 794 
z
M 750 3309 
L 1409 3309 
L 1409 2516 
L 750 2516 
L 750 3309 
z
" id="DejaVuSans-3a" transform="scale(0.015625)"/>
     </defs>
     <use xlink:href="#DejaVuSans-46"/>
     <use x="48.394531" xlink:href="#DejaVuSans-61"/>
     <use x="109.673828" xlink:href="#DejaVuSans-73"/>
     <use x="161.773438" xlink:href="#DejaVuSans-74"/>
     <use x="200.982422" xlink:href="#DejaVuSans-51"/>
     <use x="279.693359" xlink:href="#DejaVuSans-43"/>
     <use x="349.517578" xlink:href="#DejaVuSans-3a"/>
     <use x="383.208984" xlink:href="#DejaVuSans-20"/>
     <use x="414.996094" xlink:href="#DejaVuSans-53"/>
     <use x="478.472656" xlink:href="#DejaVuSans-65"/>
     <use x="539.996094" xlink:href="#DejaVuSans-71"/>
     <use x="603.472656" xlink:href="#DejaVuSans-75"/>
     <use x="666.851562" xlink:href="#DejaVuSans-65"/>
     <use x="728.375" xlink:href="#DejaVuSans-6e"/>
     <use x="791.753906" xlink:href="#DejaVuSans-63"/>
     <use x="846.734375" xlink:href="#DejaVuSans-65"/>
     <use x="908.257812" xlink:href="#DejaVuSans-20"/>
     <use x="940.044922" xlink:href="#DejaVuSans-44"/>
     <use x="1017.046875" xlink:href="#DejaVuSans-75"/>
     <use x="1080.425781" xlink:href="#DejaVuSans-70"/>
     <use x="1143.902344" xlink:href="#DejaVuSans-6c"/>
     <use x="1171.685547" xlink:href="#DejaVuSans-69"/>
     <use x="1199.46875" xlink:href="#DejaVuSans-63"/>
     <use x="1254.449219" xlink:href="#DejaVuSans-61"/>
     <use x="1315.728516" xlink:href="#DejaVuSans-74"/>
     <use x="1354.9375" xlink:href="#DejaVuSans-69"/>
     <use x="1382.720703" xlink:href="#DejaVuSans-6f"/>
     <use x="1443.902344" xlink:href="#DejaVuSans-6e"/>
     <use x="1507.28125" xlink:href="#DejaVuSans-20"/>
     <use x="1539.068359" xlink:href="#DejaVuSans-4c"/>
     <use x="1593.03125" xlink:href="#DejaVuSans-65"/>
     <use x="1654.554688" xlink:href="#DejaVuSans-76"/>
     <use x="1713.734375" xlink:href="#DejaVuSans-65"/>
     <use x="1775.257812" xlink:href="#DejaVuSans-6c"/>
     <use x="1803.041016" xlink:href="#DejaVuSans-73"/>
    </g>
   </g>
  </g>
 </g>
 <defs>
  <clipPath id="p3422ac080c">
   <rect height="319.408" width="950.2" x="43.148125" y="35.3279"/>
  </clipPath>
 </defs>
</svg>
