<?xml version="1.0" encoding="utf-8" standalone="no"?>
<!DOCTYPE svg PUBLIC "-//W3C//DTD SVG 1.1//EN"
  "http://www.w3.org/Graphics/SVG/1.1/DTD/svg11.dtd">
<svg height="390.356525pt" version="1.1" viewBox="0 0 1000.548125 390.356525" width="1000.548125pt" xmlns="http://www.w3.org/2000/svg" xmlns:xlink="http://www.w3.org/1999/xlink">
 <metadata>
  <rdf:RDF xmlns:cc="http://creativecommons.org/ns#" xmlns:dc="http://purl.org/dc/elements/1.1/" xmlns:rdf="http://www.w3.org/1999/02/22-rdf-syntax-ns#">
   <cc:Work>
    <dc:type rdf:resource="http://purl.org/dc/dcmitype/StillImage"/>
    <dc:date>2021-08-30T17:44:39.904114</dc:date>
    <dc:format>image/svg+xml</dc:format>
    <dc:creator>
     <cc:Agent>
      <dc:title>Matplotlib v3.4.2, https://matplotlib.org/</dc:title>
     </cc:Agent>
    </dc:creator>
   </cc:Work>
  </rdf:RDF>
 </metadata>
 <defs>
  <style type="text/css">*{stroke-linecap:butt;stroke-linejoin:round;}</style>
 </defs>
 <g id="figure_1">
  <g id="axes_1">
   <g id="patch_1">
    <path d="M 43.148125 354.7359 
L 993.348125 354.7359 
L 993.348125 35.3279 
L 43.148125 35.3279 
z
" style="fill:#ffffff;"/>
   </g>
   <g id="matplotlib.axis_1">
    <g id="xtick_1">
     <g id="text_1">
      <!-- 1.0 -->
      <g transform="translate(79.977784 367.81465)scale(0.08 -0.08)">
       <defs>
        <path d="M 794 531 
L 1825 531 
L 1825 4091 
L 703 3866 
L 703 4441 
L 1819 4666 
L 2450 4666 
L 2450 531 
L 3481 531 
L 3481 0 
L 794 0 
L 794 531 
z
" id="DejaVuSans-31" transform="scale(0.015625)"/>
        <path d="M 684 794 
L 1344 794 
L 1344 0 
L 684 0 
L 684 794 
z
" id="DejaVuSans-2e" transform="scale(0.015625)"/>
        <path d="M 2034 4250 
Q 1547 4250 1301 3770 
Q 1056 3291 1056 2328 
Q 1056 1369 1301 889 
Q 1547 409 2034 409 
Q 2525 409 2770 889 
Q 3016 1369 3016 2328 
Q 3016 3291 2770 3770 
Q 2525 4250 2034 4250 
z
M 2034 4750 
Q 2819 4750 3233 4129 
Q 3647 3509 3647 2328 
Q 3647 1150 3233 529 
Q 2819 -91 2034 -91 
Q 1250 -91 836 529 
Q 422 1150 422 2328 
Q 422 3509 836 4129 
Q 1250 4750 2034 4750 
z
" id="DejaVuSans-30" transform="scale(0.015625)"/>
       </defs>
       <use xlink:href="#DejaVuSans-31"/>
       <use x="63.623047" xlink:href="#DejaVuSans-2e"/>
       <use x="95.410156" xlink:href="#DejaVuSans-30"/>
      </g>
     </g>
    </g>
    <g id="xtick_2">
     <g id="text_2">
      <!-- 2.0 -->
      <g transform="translate(137.565663 367.81465)scale(0.08 -0.08)">
       <defs>
        <path d="M 1228 531 
L 3431 531 
L 3431 0 
L 469 0 
L 469 531 
Q 828 903 1448 1529 
Q 2069 2156 2228 2338 
Q 2531 2678 2651 2914 
Q 2772 3150 2772 3378 
Q 2772 3750 2511 3984 
Q 2250 4219 1831 4219 
Q 1534 4219 1204 4116 
Q 875 4013 500 3803 
L 500 4441 
Q 881 4594 1212 4672 
Q 1544 4750 1819 4750 
Q 2544 4750 2975 4387 
Q 3406 4025 3406 3419 
Q 3406 3131 3298 2873 
Q 3191 2616 2906 2266 
Q 2828 2175 2409 1742 
Q 1991 1309 1228 531 
z
" id="DejaVuSans-32" transform="scale(0.015625)"/>
       </defs>
       <use xlink:href="#DejaVuSans-32"/>
       <use x="63.623047" xlink:href="#DejaVuSans-2e"/>
       <use x="95.410156" xlink:href="#DejaVuSans-30"/>
      </g>
     </g>
    </g>
    <g id="xtick_3">
     <g id="text_3">
      <!-- 3.0 -->
      <g transform="translate(195.153542 367.81465)scale(0.08 -0.08)">
       <defs>
        <path d="M 2597 2516 
Q 3050 2419 3304 2112 
Q 3559 1806 3559 1356 
Q 3559 666 3084 287 
Q 2609 -91 1734 -91 
Q 1441 -91 1130 -33 
Q 819 25 488 141 
L 488 750 
Q 750 597 1062 519 
Q 1375 441 1716 441 
Q 2309 441 2620 675 
Q 2931 909 2931 1356 
Q 2931 1769 2642 2001 
Q 2353 2234 1838 2234 
L 1294 2234 
L 1294 2753 
L 1863 2753 
Q 2328 2753 2575 2939 
Q 2822 3125 2822 3475 
Q 2822 3834 2567 4026 
Q 2313 4219 1838 4219 
Q 1578 4219 1281 4162 
Q 984 4106 628 3988 
L 628 4550 
Q 988 4650 1302 4700 
Q 1616 4750 1894 4750 
Q 2613 4750 3031 4423 
Q 3450 4097 3450 3541 
Q 3450 3153 3228 2886 
Q 3006 2619 2597 2516 
z
" id="DejaVuSans-33" transform="scale(0.015625)"/>
       </defs>
       <use xlink:href="#DejaVuSans-33"/>
       <use x="63.623047" xlink:href="#DejaVuSans-2e"/>
       <use x="95.410156" xlink:href="#DejaVuSans-30"/>
      </g>
     </g>
    </g>
    <g id="xtick_4">
     <g id="text_4">
      <!-- 4.0 -->
      <g transform="translate(252.74142 367.81465)scale(0.08 -0.08)">
       <defs>
        <path d="M 2419 4116 
L 825 1625 
L 2419 1625 
L 2419 4116 
z
M 2253 4666 
L 3047 4666 
L 3047 1625 
L 3713 1625 
L 3713 1100 
L 3047 1100 
L 3047 0 
L 2419 0 
L 2419 1100 
L 313 1100 
L 313 1709 
L 2253 4666 
z
" id="DejaVuSans-34" transform="scale(0.015625)"/>
       </defs>
       <use xlink:href="#DejaVuSans-34"/>
       <use x="63.623047" xlink:href="#DejaVuSans-2e"/>
       <use x="95.410156" xlink:href="#DejaVuSans-30"/>
      </g>
     </g>
    </g>
    <g id="xtick_5">
     <g id="text_5">
      <!-- 5.0 -->
      <g transform="translate(310.329299 367.81465)scale(0.08 -0.08)">
       <defs>
        <path d="M 691 4666 
L 3169 4666 
L 3169 4134 
L 1269 4134 
L 1269 2991 
Q 1406 3038 1543 3061 
Q 1681 3084 1819 3084 
Q 2600 3084 3056 2656 
Q 3513 2228 3513 1497 
Q 3513 744 3044 326 
Q 2575 -91 1722 -91 
Q 1428 -91 1123 -41 
Q 819 9 494 109 
L 494 744 
Q 775 591 1075 516 
Q 1375 441 1709 441 
Q 2250 441 2565 725 
Q 2881 1009 2881 1497 
Q 2881 1984 2565 2268 
Q 2250 2553 1709 2553 
Q 1456 2553 1204 2497 
Q 953 2441 691 2322 
L 691 4666 
z
" id="DejaVuSans-35" transform="scale(0.015625)"/>
       </defs>
       <use xlink:href="#DejaVuSans-35"/>
       <use x="63.623047" xlink:href="#DejaVuSans-2e"/>
       <use x="95.410156" xlink:href="#DejaVuSans-30"/>
      </g>
     </g>
    </g>
    <g id="xtick_6">
     <g id="text_6">
      <!-- 6.0 -->
      <g transform="translate(367.917178 367.81465)scale(0.08 -0.08)">
       <defs>
        <path d="M 2113 2584 
Q 1688 2584 1439 2293 
Q 1191 2003 1191 1497 
Q 1191 994 1439 701 
Q 1688 409 2113 409 
Q 2538 409 2786 701 
Q 3034 994 3034 1497 
Q 3034 2003 2786 2293 
Q 2538 2584 2113 2584 
z
M 3366 4563 
L 3366 3988 
Q 3128 4100 2886 4159 
Q 2644 4219 2406 4219 
Q 1781 4219 1451 3797 
Q 1122 3375 1075 2522 
Q 1259 2794 1537 2939 
Q 1816 3084 2150 3084 
Q 2853 3084 3261 2657 
Q 3669 2231 3669 1497 
Q 3669 778 3244 343 
Q 2819 -91 2113 -91 
Q 1303 -91 875 529 
Q 447 1150 447 2328 
Q 447 3434 972 4092 
Q 1497 4750 2381 4750 
Q 2619 4750 2861 4703 
Q 3103 4656 3366 4563 
z
" id="DejaVuSans-36" transform="scale(0.015625)"/>
       </defs>
       <use xlink:href="#DejaVuSans-36"/>
       <use x="63.623047" xlink:href="#DejaVuSans-2e"/>
       <use x="95.410156" xlink:href="#DejaVuSans-30"/>
      </g>
     </g>
    </g>
    <g id="xtick_7">
     <g id="text_7">
      <!-- 7.0 -->
      <g transform="translate(425.505057 367.81465)scale(0.08 -0.08)">
       <defs>
        <path d="M 525 4666 
L 3525 4666 
L 3525 4397 
L 1831 0 
L 1172 0 
L 2766 4134 
L 525 4134 
L 525 4666 
z
" id="DejaVuSans-37" transform="scale(0.015625)"/>
       </defs>
       <use xlink:href="#DejaVuSans-37"/>
       <use x="63.623047" xlink:href="#DejaVuSans-2e"/>
       <use x="95.410156" xlink:href="#DejaVuSans-30"/>
      </g>
     </g>
    </g>
    <g id="xtick_8">
     <g id="text_8">
      <!-- 8.0 -->
      <g transform="translate(483.092936 367.81465)scale(0.08 -0.08)">
       <defs>
        <path d="M 2034 2216 
Q 1584 2216 1326 1975 
Q 1069 1734 1069 1313 
Q 1069 891 1326 650 
Q 1584 409 2034 409 
Q 2484 409 2743 651 
Q 3003 894 3003 1313 
Q 3003 1734 2745 1975 
Q 2488 2216 2034 2216 
z
M 1403 2484 
Q 997 2584 770 2862 
Q 544 3141 544 3541 
Q 544 4100 942 4425 
Q 1341 4750 2034 4750 
Q 2731 4750 3128 4425 
Q 3525 4100 3525 3541 
Q 3525 3141 3298 2862 
Q 3072 2584 2669 2484 
Q 3125 2378 3379 2068 
Q 3634 1759 3634 1313 
Q 3634 634 3220 271 
Q 2806 -91 2034 -91 
Q 1263 -91 848 271 
Q 434 634 434 1313 
Q 434 1759 690 2068 
Q 947 2378 1403 2484 
z
M 1172 3481 
Q 1172 3119 1398 2916 
Q 1625 2713 2034 2713 
Q 2441 2713 2670 2916 
Q 2900 3119 2900 3481 
Q 2900 3844 2670 4047 
Q 2441 4250 2034 4250 
Q 1625 4250 1398 4047 
Q 1172 3844 1172 3481 
z
" id="DejaVuSans-38" transform="scale(0.015625)"/>
       </defs>
       <use xlink:href="#DejaVuSans-38"/>
       <use x="63.623047" xlink:href="#DejaVuSans-2e"/>
       <use x="95.410156" xlink:href="#DejaVuSans-30"/>
      </g>
     </g>
    </g>
    <g id="xtick_9">
     <g id="text_9">
      <!-- 9.0 -->
      <g transform="translate(540.680814 367.81465)scale(0.08 -0.08)">
       <defs>
        <path d="M 703 97 
L 703 672 
Q 941 559 1184 500 
Q 1428 441 1663 441 
Q 2288 441 2617 861 
Q 2947 1281 2994 2138 
Q 2813 1869 2534 1725 
Q 2256 1581 1919 1581 
Q 1219 1581 811 2004 
Q 403 2428 403 3163 
Q 403 3881 828 4315 
Q 1253 4750 1959 4750 
Q 2769 4750 3195 4129 
Q 3622 3509 3622 2328 
Q 3622 1225 3098 567 
Q 2575 -91 1691 -91 
Q 1453 -91 1209 -44 
Q 966 3 703 97 
z
M 1959 2075 
Q 2384 2075 2632 2365 
Q 2881 2656 2881 3163 
Q 2881 3666 2632 3958 
Q 2384 4250 1959 4250 
Q 1534 4250 1286 3958 
Q 1038 3666 1038 3163 
Q 1038 2656 1286 2365 
Q 1534 2075 1959 2075 
z
" id="DejaVuSans-39" transform="scale(0.015625)"/>
       </defs>
       <use xlink:href="#DejaVuSans-39"/>
       <use x="63.623047" xlink:href="#DejaVuSans-2e"/>
       <use x="95.410156" xlink:href="#DejaVuSans-30"/>
      </g>
     </g>
    </g>
    <g id="xtick_10">
     <g id="text_10">
      <!-- &gt;10 -->
      <g transform="translate(596.188068 367.81465)scale(0.08 -0.08)">
       <defs>
        <path d="M 678 3150 
L 678 3719 
L 4684 2266 
L 4684 1747 
L 678 294 
L 678 863 
L 3897 2003 
L 678 3150 
z
" id="DejaVuSans-3e" transform="scale(0.015625)"/>
       </defs>
       <use xlink:href="#DejaVuSans-3e"/>
       <use x="83.789062" xlink:href="#DejaVuSans-31"/>
       <use x="147.412109" xlink:href="#DejaVuSans-30"/>
      </g>
     </g>
    </g>
    <g id="xtick_11">
     <g id="text_11">
      <!-- &gt;50 -->
      <g transform="translate(653.775947 367.81465)scale(0.08 -0.08)">
       <use xlink:href="#DejaVuSans-3e"/>
       <use x="83.789062" xlink:href="#DejaVuSans-35"/>
       <use x="147.412109" xlink:href="#DejaVuSans-30"/>
      </g>
     </g>
    </g>
    <g id="xtick_12">
     <g id="text_12">
      <!-- &gt;100 -->
      <g transform="translate(708.818826 367.81465)scale(0.08 -0.08)">
       <use xlink:href="#DejaVuSans-3e"/>
       <use x="83.789062" xlink:href="#DejaVuSans-31"/>
       <use x="147.412109" xlink:href="#DejaVuSans-30"/>
       <use x="211.035156" xlink:href="#DejaVuSans-30"/>
      </g>
     </g>
    </g>
    <g id="xtick_13">
     <g id="text_13">
      <!-- &gt;500 -->
      <g transform="translate(766.406705 367.81465)scale(0.08 -0.08)">
       <use xlink:href="#DejaVuSans-3e"/>
       <use x="83.789062" xlink:href="#DejaVuSans-35"/>
       <use x="147.412109" xlink:href="#DejaVuSans-30"/>
       <use x="211.035156" xlink:href="#DejaVuSans-30"/>
      </g>
     </g>
    </g>
    <g id="xtick_14">
     <g id="text_14">
      <!-- &gt;1k -->
      <g transform="translate(826.768333 367.81465)scale(0.08 -0.08)">
       <defs>
        <path d="M 581 4863 
L 1159 4863 
L 1159 1991 
L 2875 3500 
L 3609 3500 
L 1753 1863 
L 3688 0 
L 2938 0 
L 1159 1709 
L 1159 0 
L 581 0 
L 581 4863 
z
" id="DejaVuSans-6b" transform="scale(0.015625)"/>
       </defs>
       <use xlink:href="#DejaVuSans-3e"/>
       <use x="83.789062" xlink:href="#DejaVuSans-31"/>
       <use x="147.412109" xlink:href="#DejaVuSans-6b"/>
      </g>
     </g>
    </g>
    <g id="xtick_15">
     <g id="text_15">
      <!-- &gt;5k -->
      <g transform="translate(884.356212 367.81465)scale(0.08 -0.08)">
       <use xlink:href="#DejaVuSans-3e"/>
       <use x="83.789062" xlink:href="#DejaVuSans-35"/>
       <use x="147.412109" xlink:href="#DejaVuSans-6b"/>
      </g>
     </g>
    </g>
    <g id="xtick_16">
     <g id="text_16">
      <!-- &gt;10k+ -->
      <g transform="translate(936.047216 367.81465)scale(0.08 -0.08)">
       <defs>
        <path d="M 2944 4013 
L 2944 2272 
L 4684 2272 
L 4684 1741 
L 2944 1741 
L 2944 0 
L 2419 0 
L 2419 1741 
L 678 1741 
L 678 2272 
L 2419 2272 
L 2419 4013 
L 2944 4013 
z
" id="DejaVuSans-2b" transform="scale(0.015625)"/>
       </defs>
       <use xlink:href="#DejaVuSans-3e"/>
       <use x="83.789062" xlink:href="#DejaVuSans-31"/>
       <use x="147.412109" xlink:href="#DejaVuSans-30"/>
       <use x="211.035156" xlink:href="#DejaVuSans-6b"/>
       <use x="268.945312" xlink:href="#DejaVuSans-2b"/>
      </g>
     </g>
    </g>
    <g id="text_17">
     <!-- Sequence Duplication Level -->
     <g transform="translate(448.843438 381.076838)scale(0.1 -0.1)">
      <defs>
       <path d="M 3425 4513 
L 3425 3897 
Q 3066 4069 2747 4153 
Q 2428 4238 2131 4238 
Q 1616 4238 1336 4038 
Q 1056 3838 1056 3469 
Q 1056 3159 1242 3001 
Q 1428 2844 1947 2747 
L 2328 2669 
Q 3034 2534 3370 2195 
Q 3706 1856 3706 1288 
Q 3706 609 3251 259 
Q 2797 -91 1919 -91 
Q 1588 -91 1214 -16 
Q 841 59 441 206 
L 441 856 
Q 825 641 1194 531 
Q 1563 422 1919 422 
Q 2459 422 2753 634 
Q 3047 847 3047 1241 
Q 3047 1584 2836 1778 
Q 2625 1972 2144 2069 
L 1759 2144 
Q 1053 2284 737 2584 
Q 422 2884 422 3419 
Q 422 4038 858 4394 
Q 1294 4750 2059 4750 
Q 2388 4750 2728 4690 
Q 3069 4631 3425 4513 
z
" id="DejaVuSans-53" transform="scale(0.015625)"/>
       <path d="M 3597 1894 
L 3597 1613 
L 953 1613 
Q 991 1019 1311 708 
Q 1631 397 2203 397 
Q 2534 397 2845 478 
Q 3156 559 3463 722 
L 3463 178 
Q 3153 47 2828 -22 
Q 2503 -91 2169 -91 
Q 1331 -91 842 396 
Q 353 884 353 1716 
Q 353 2575 817 3079 
Q 1281 3584 2069 3584 
Q 2775 3584 3186 3129 
Q 3597 2675 3597 1894 
z
M 3022 2063 
Q 3016 2534 2758 2815 
Q 2500 3097 2075 3097 
Q 1594 3097 1305 2825 
Q 1016 2553 972 2059 
L 3022 2063 
z
" id="DejaVuSans-65" transform="scale(0.015625)"/>
       <path d="M 947 1747 
Q 947 1113 1208 752 
Q 1469 391 1925 391 
Q 2381 391 2643 752 
Q 2906 1113 2906 1747 
Q 2906 2381 2643 2742 
Q 2381 3103 1925 3103 
Q 1469 3103 1208 2742 
Q 947 2381 947 1747 
z
M 2906 525 
Q 2725 213 2448 61 
Q 2172 -91 1784 -91 
Q 1150 -91 751 415 
Q 353 922 353 1747 
Q 353 2572 751 3078 
Q 1150 3584 1784 3584 
Q 2172 3584 2448 3432 
Q 2725 3281 2906 2969 
L 2906 3500 
L 3481 3500 
L 3481 -1331 
L 2906 -1331 
L 2906 525 
z
" id="DejaVuSans-71" transform="scale(0.015625)"/>
       <path d="M 544 1381 
L 544 3500 
L 1119 3500 
L 1119 1403 
Q 1119 906 1312 657 
Q 1506 409 1894 409 
Q 2359 409 2629 706 
Q 2900 1003 2900 1516 
L 2900 3500 
L 3475 3500 
L 3475 0 
L 2900 0 
L 2900 538 
Q 2691 219 2414 64 
Q 2138 -91 1772 -91 
Q 1169 -91 856 284 
Q 544 659 544 1381 
z
M 1991 3584 
L 1991 3584 
z
" id="DejaVuSans-75" transform="scale(0.015625)"/>
       <path d="M 3513 2113 
L 3513 0 
L 2938 0 
L 2938 2094 
Q 2938 2591 2744 2837 
Q 2550 3084 2163 3084 
Q 1697 3084 1428 2787 
Q 1159 2491 1159 1978 
L 1159 0 
L 581 0 
L 581 3500 
L 1159 3500 
L 1159 2956 
Q 1366 3272 1645 3428 
Q 1925 3584 2291 3584 
Q 2894 3584 3203 3211 
Q 3513 2838 3513 2113 
z
" id="DejaVuSans-6e" transform="scale(0.015625)"/>
       <path d="M 3122 3366 
L 3122 2828 
Q 2878 2963 2633 3030 
Q 2388 3097 2138 3097 
Q 1578 3097 1268 2742 
Q 959 2388 959 1747 
Q 959 1106 1268 751 
Q 1578 397 2138 397 
Q 2388 397 2633 464 
Q 2878 531 3122 666 
L 3122 134 
Q 2881 22 2623 -34 
Q 2366 -91 2075 -91 
Q 1284 -91 818 406 
Q 353 903 353 1747 
Q 353 2603 823 3093 
Q 1294 3584 2113 3584 
Q 2378 3584 2631 3529 
Q 2884 3475 3122 3366 
z
" id="DejaVuSans-63" transform="scale(0.015625)"/>
       <path id="DejaVuSans-20" transform="scale(0.015625)"/>
       <path d="M 1259 4147 
L 1259 519 
L 2022 519 
Q 2988 519 3436 956 
Q 3884 1394 3884 2338 
Q 3884 3275 3436 3711 
Q 2988 4147 2022 4147 
L 1259 4147 
z
M 628 4666 
L 1925 4666 
Q 3281 4666 3915 4102 
Q 4550 3538 4550 2338 
Q 4550 1131 3912 565 
Q 3275 0 1925 0 
L 628 0 
L 628 4666 
z
" id="DejaVuSans-44" transform="scale(0.015625)"/>
       <path d="M 1159 525 
L 1159 -1331 
L 581 -1331 
L 581 3500 
L 1159 3500 
L 1159 2969 
Q 1341 3281 1617 3432 
Q 1894 3584 2278 3584 
Q 2916 3584 3314 3078 
Q 3713 2572 3713 1747 
Q 3713 922 3314 415 
Q 2916 -91 2278 -91 
Q 1894 -91 1617 61 
Q 1341 213 1159 525 
z
M 3116 1747 
Q 3116 2381 2855 2742 
Q 2594 3103 2138 3103 
Q 1681 3103 1420 2742 
Q 1159 2381 1159 1747 
Q 1159 1113 1420 752 
Q 1681 391 2138 391 
Q 2594 391 2855 752 
Q 3116 1113 3116 1747 
z
" id="DejaVuSans-70" transform="scale(0.015625)"/>
       <path d="M 603 4863 
L 1178 4863 
L 1178 0 
L 603 0 
L 603 4863 
z
" id="DejaVuSans-6c" transform="scale(0.015625)"/>
       <path d="M 603 3500 
L 1178 3500 
L 1178 0 
L 603 0 
L 603 3500 
z
M 603 4863 
L 1178 4863 
L 1178 4134 
L 603 4134 
L 603 4863 
z
" id="DejaVuSans-69" transform="scale(0.015625)"/>
       <path d="M 2194 1759 
Q 1497 1759 1228 1600 
Q 959 1441 959 1056 
Q 959 750 1161 570 
Q 1363 391 1709 391 
Q 2188 391 2477 730 
Q 2766 1069 2766 1631 
L 2766 1759 
L 2194 1759 
z
M 3341 1997 
L 3341 0 
L 2766 0 
L 2766 531 
Q 2569 213 2275 61 
Q 1981 -91 1556 -91 
Q 1019 -91 701 211 
Q 384 513 384 1019 
Q 384 1609 779 1909 
Q 1175 2209 1959 2209 
L 2766 2209 
L 2766 2266 
Q 2766 2663 2505 2880 
Q 2244 3097 1772 3097 
Q 1472 3097 1187 3025 
Q 903 2953 641 2809 
L 641 3341 
Q 956 3463 1253 3523 
Q 1550 3584 1831 3584 
Q 2591 3584 2966 3190 
Q 3341 2797 3341 1997 
z
" id="DejaVuSans-61" transform="scale(0.015625)"/>
       <path d="M 1172 4494 
L 1172 3500 
L 2356 3500 
L 2356 3053 
L 1172 3053 
L 1172 1153 
Q 1172 725 1289 603 
Q 1406 481 1766 481 
L 2356 481 
L 2356 0 
L 1766 0 
Q 1100 0 847 248 
Q 594 497 594 1153 
L 594 3053 
L 172 3053 
L 172 3500 
L 594 3500 
L 594 4494 
L 1172 4494 
z
" id="DejaVuSans-74" transform="scale(0.015625)"/>
       <path d="M 1959 3097 
Q 1497 3097 1228 2736 
Q 959 2375 959 1747 
Q 959 1119 1226 758 
Q 1494 397 1959 397 
Q 2419 397 2687 759 
Q 2956 1122 2956 1747 
Q 2956 2369 2687 2733 
Q 2419 3097 1959 3097 
z
M 1959 3584 
Q 2709 3584 3137 3096 
Q 3566 2609 3566 1747 
Q 3566 888 3137 398 
Q 2709 -91 1959 -91 
Q 1206 -91 779 398 
Q 353 888 353 1747 
Q 353 2609 779 3096 
Q 1206 3584 1959 3584 
z
" id="DejaVuSans-6f" transform="scale(0.015625)"/>
       <path d="M 628 4666 
L 1259 4666 
L 1259 531 
L 3531 531 
L 3531 0 
L 628 0 
L 628 4666 
z
" id="DejaVuSans-4c" transform="scale(0.015625)"/>
       <path d="M 191 3500 
L 800 3500 
L 1894 563 
L 2988 3500 
L 3597 3500 
L 2284 0 
L 1503 0 
L 191 3500 
z
" id="DejaVuSans-76" transform="scale(0.015625)"/>
      </defs>
      <use xlink:href="#DejaVuSans-53"/>
      <use x="63.476562" xlink:href="#DejaVuSans-65"/>
      <use x="125" xlink:href="#DejaVuSans-71"/>
      <use x="188.476562" xlink:href="#DejaVuSans-75"/>
      <use x="251.855469" xlink:href="#DejaVuSans-65"/>
      <use x="313.378906" xlink:href="#DejaVuSans-6e"/>
      <use x="376.757812" xlink:href="#DejaVuSans-63"/>
      <use x="431.738281" xlink:href="#DejaVuSans-65"/>
      <use x="493.261719" xlink:href="#DejaVuSans-20"/>
      <use x="525.048828" xlink:href="#DejaVuSans-44"/>
      <use x="602.050781" xlink:href="#DejaVuSans-75"/>
      <use x="665.429688" xlink:href="#DejaVuSans-70"/>
      <use x="728.90625" xlink:href="#DejaVuSans-6c"/>
      <use x="756.689453" xlink:href="#DejaVuSans-69"/>
      <use x="784.472656" xlink:href="#DejaVuSans-63"/>
      <use x="839.453125" xlink:href="#DejaVuSans-61"/>
      <use x="900.732422" xlink:href="#DejaVuSans-74"/>
      <use x="939.941406" xlink:href="#DejaVuSans-69"/>
      <use x="967.724609" xlink:href="#DejaVuSans-6f"/>
      <use x="1028.90625" xlink:href="#DejaVuSans-6e"/>
      <use x="1092.285156" xlink:href="#DejaVuSans-20"/>
      <use x="1124.072266" xlink:href="#DejaVuSans-4c"/>
      <use x="1178.035156" xlink:href="#DejaVuSans-65"/>
      <use x="1239.558594" xlink:href="#DejaVuSans-76"/>
      <use x="1298.738281" xlink:href="#DejaVuSans-65"/>
      <use x="1360.261719" xlink:href="#DejaVuSans-6c"/>
     </g>
    </g>
   </g>
   <g id="matplotlib.axis_2">
    <g id="ytick_1">
     <g id="line2d_1">
      <path clip-path="url(#pf1f679c63c)" d="M 43.148125 354.7359 
L 993.348125 354.7359 
" style="fill:none;stroke:#dedede;stroke-linecap:square;"/>
     </g>
     <g id="text_18">
      <!-- 0 -->
      <g transform="translate(31.058125 357.775275)scale(0.08 -0.08)">
       <use xlink:href="#DejaVuSans-30"/>
      </g>
     </g>
    </g>
    <g id="ytick_2">
     <g id="line2d_2">
      <path clip-path="url(#pf1f679c63c)" d="M 43.148125 290.8543 
L 993.348125 290.8543 
" style="fill:none;stroke:#dedede;stroke-linecap:square;"/>
     </g>
     <g id="text_19">
      <!-- 20 -->
      <g transform="translate(25.968125 293.893675)scale(0.08 -0.08)">
       <use xlink:href="#DejaVuSans-32"/>
       <use x="63.623047" xlink:href="#DejaVuSans-30"/>
      </g>
     </g>
    </g>
    <g id="ytick_3">
     <g id="line2d_3">
      <path clip-path="url(#pf1f679c63c)" d="M 43.148125 226.9727 
L 993.348125 226.9727 
" style="fill:none;stroke:#dedede;stroke-linecap:square;"/>
     </g>
     <g id="text_20">
      <!-- 40 -->
      <g transform="translate(25.968125 230.012075)scale(0.08 -0.08)">
       <use xlink:href="#DejaVuSans-34"/>
       <use x="63.623047" xlink:href="#DejaVuSans-30"/>
      </g>
     </g>
    </g>
    <g id="ytick_4">
     <g id="line2d_4">
      <path clip-path="url(#pf1f679c63c)" d="M 43.148125 163.0911 
L 993.348125 163.0911 
" style="fill:none;stroke:#dedede;stroke-linecap:square;"/>
     </g>
     <g id="text_21">
      <!-- 60 -->
      <g transform="translate(25.968125 166.130475)scale(0.08 -0.08)">
       <use xlink:href="#DejaVuSans-36"/>
       <use x="63.623047" xlink:href="#DejaVuSans-30"/>
      </g>
     </g>
    </g>
    <g id="ytick_5">
     <g id="line2d_5">
      <path clip-path="url(#pf1f679c63c)" d="M 43.148125 99.2095 
L 993.348125 99.2095 
" style="fill:none;stroke:#dedede;stroke-linecap:square;"/>
     </g>
     <g id="text_22">
      <!-- 80 -->
      <g transform="translate(25.968125 102.248875)scale(0.08 -0.08)">
       <use xlink:href="#DejaVuSans-38"/>
       <use x="63.623047" xlink:href="#DejaVuSans-30"/>
      </g>
     </g>
    </g>
    <g id="ytick_6">
     <g id="line2d_6">
      <path clip-path="url(#pf1f679c63c)" d="M 43.148125 35.3279 
L 993.348125 35.3279 
" style="fill:none;stroke:#dedede;stroke-linecap:square;"/>
     </g>
     <g id="text_23">
      <!-- 100 -->
      <g transform="translate(20.878125 38.367275)scale(0.08 -0.08)">
       <use xlink:href="#DejaVuSans-31"/>
       <use x="63.623047" xlink:href="#DejaVuSans-30"/>
       <use x="127.246094" xlink:href="#DejaVuSans-30"/>
      </g>
     </g>
    </g>
    <g id="text_24">
     <!-- % of Library -->
     <g transform="translate(14.798437 225.263931)rotate(-90)scale(0.1 -0.1)">
      <defs>
       <path d="M 4653 2053 
Q 4381 2053 4226 1822 
Q 4072 1591 4072 1178 
Q 4072 772 4226 539 
Q 4381 306 4653 306 
Q 4919 306 5073 539 
Q 5228 772 5228 1178 
Q 5228 1588 5073 1820 
Q 4919 2053 4653 2053 
z
M 4653 2450 
Q 5147 2450 5437 2106 
Q 5728 1763 5728 1178 
Q 5728 594 5436 251 
Q 5144 -91 4653 -91 
Q 4153 -91 3862 251 
Q 3572 594 3572 1178 
Q 3572 1766 3864 2108 
Q 4156 2450 4653 2450 
z
M 1428 4353 
Q 1159 4353 1004 4120 
Q 850 3888 850 3481 
Q 850 3069 1003 2837 
Q 1156 2606 1428 2606 
Q 1700 2606 1854 2837 
Q 2009 3069 2009 3481 
Q 2009 3884 1853 4118 
Q 1697 4353 1428 4353 
z
M 4250 4750 
L 4750 4750 
L 1831 -91 
L 1331 -91 
L 4250 4750 
z
M 1428 4750 
Q 1922 4750 2215 4408 
Q 2509 4066 2509 3481 
Q 2509 2891 2217 2550 
Q 1925 2209 1428 2209 
Q 931 2209 642 2551 
Q 353 2894 353 3481 
Q 353 4063 643 4406 
Q 934 4750 1428 4750 
z
" id="DejaVuSans-25" transform="scale(0.015625)"/>
       <path d="M 2375 4863 
L 2375 4384 
L 1825 4384 
Q 1516 4384 1395 4259 
Q 1275 4134 1275 3809 
L 1275 3500 
L 2222 3500 
L 2222 3053 
L 1275 3053 
L 1275 0 
L 697 0 
L 697 3053 
L 147 3053 
L 147 3500 
L 697 3500 
L 697 3744 
Q 697 4328 969 4595 
Q 1241 4863 1831 4863 
L 2375 4863 
z
" id="DejaVuSans-66" transform="scale(0.015625)"/>
       <path d="M 3116 1747 
Q 3116 2381 2855 2742 
Q 2594 3103 2138 3103 
Q 1681 3103 1420 2742 
Q 1159 2381 1159 1747 
Q 1159 1113 1420 752 
Q 1681 391 2138 391 
Q 2594 391 2855 752 
Q 3116 1113 3116 1747 
z
M 1159 2969 
Q 1341 3281 1617 3432 
Q 1894 3584 2278 3584 
Q 2916 3584 3314 3078 
Q 3713 2572 3713 1747 
Q 3713 922 3314 415 
Q 2916 -91 2278 -91 
Q 1894 -91 1617 61 
Q 1341 213 1159 525 
L 1159 0 
L 581 0 
L 581 4863 
L 1159 4863 
L 1159 2969 
z
" id="DejaVuSans-62" transform="scale(0.015625)"/>
       <path d="M 2631 2963 
Q 2534 3019 2420 3045 
Q 2306 3072 2169 3072 
Q 1681 3072 1420 2755 
Q 1159 2438 1159 1844 
L 1159 0 
L 581 0 
L 581 3500 
L 1159 3500 
L 1159 2956 
Q 1341 3275 1631 3429 
Q 1922 3584 2338 3584 
Q 2397 3584 2469 3576 
Q 2541 3569 2628 3553 
L 2631 2963 
z
" id="DejaVuSans-72" transform="scale(0.015625)"/>
       <path d="M 2059 -325 
Q 1816 -950 1584 -1140 
Q 1353 -1331 966 -1331 
L 506 -1331 
L 506 -850 
L 844 -850 
Q 1081 -850 1212 -737 
Q 1344 -625 1503 -206 
L 1606 56 
L 191 3500 
L 800 3500 
L 1894 763 
L 2988 3500 
L 3597 3500 
L 2059 -325 
z
" id="DejaVuSans-79" transform="scale(0.015625)"/>
      </defs>
      <use xlink:href="#DejaVuSans-25"/>
      <use x="95.019531" xlink:href="#DejaVuSans-20"/>
      <use x="126.806641" xlink:href="#DejaVuSans-6f"/>
      <use x="187.988281" xlink:href="#DejaVuSans-66"/>
      <use x="223.193359" xlink:href="#DejaVuSans-20"/>
      <use x="254.980469" xlink:href="#DejaVuSans-4c"/>
      <use x="310.693359" xlink:href="#DejaVuSans-69"/>
      <use x="338.476562" xlink:href="#DejaVuSans-62"/>
      <use x="401.953125" xlink:href="#DejaVuSans-72"/>
      <use x="443.066406" xlink:href="#DejaVuSans-61"/>
      <use x="504.345703" xlink:href="#DejaVuSans-72"/>
      <use x="545.458984" xlink:href="#DejaVuSans-79"/>
     </g>
    </g>
   </g>
   <g id="line2d_7">
    <path clip-path="url(#pf1f679c63c)" d="M 86.339034 309.209183 
L 143.926913 343.060027 
L 201.514792 348.264734 
L 259.10267 350.286604 
L 316.690549 351.504647 
L 374.278428 352.070738 
L 431.866307 352.5559 
L 489.454186 352.764884 
L 547.042064 353.082749 
L 604.629943 329.230378 
L 662.217822 341.486898 
L 719.805701 312.368193 
L 777.39358 329.780182 
L 834.981458 287.579094 
L 892.569337 328.930973 
L 950.157216 314.191218 
" style="fill:none;stroke:#d9534f;stroke-linecap:square;"/>
   </g>
   <g id="line2d_8">
    <path clip-path="url(#pf1f679c63c)" d="M 86.339034 302.25915 
L 143.926913 342.673527 
L 201.514792 348.658249 
L 259.10267 350.97788 
L 316.690549 351.7817 
L 374.278428 352.395896 
L 431.866307 352.744525 
L 489.454186 352.999937 
L 547.042064 353.242282 
L 604.629943 326.782219 
L 662.217822 338.376264 
L 719.805701 299.088832 
L 777.39358 323.532289 
L 834.981458 281.504755 
L 892.569337 337.437367 
L 950.157216 341.911528 
" style="fill:none;stroke:#d9534f;stroke-linecap:square;"/>
   </g>
   <g id="line2d_9">
    <path clip-path="url(#pf1f679c63c)" d="M 86.339034 327.827169 
L 143.926913 347.514636 
L 201.514792 350.65928 
L 259.10267 351.931913 
L 316.690549 352.599133 
L 374.278428 353.038057 
L 431.866307 353.310726 
L 489.454186 353.440539 
L 547.042064 353.599683 
L 604.629943 336.617852 
L 662.217822 344.798654 
L 719.805701 318.685455 
L 777.39358 331.907183 
L 834.981458 287.168154 
L 892.569337 325.371679 
L 950.157216 267.896287 
" style="fill:none;stroke:#d9534f;stroke-linecap:square;"/>
   </g>
   <g id="line2d_10">
    <path clip-path="url(#pf1f679c63c)" d="M 86.339034 318.845088 
L 143.926913 346.893934 
L 201.514792 350.770052 
L 259.10267 352.10957 
L 316.690549 352.830392 
L 374.278428 353.192504 
L 431.866307 353.457906 
L 489.454186 353.594218 
L 547.042064 353.780654 
L 604.629943 336.087198 
L 662.217822 342.707797 
L 719.805701 304.534852 
L 777.39358 322.596087 
L 834.981458 269.90213 
L 892.569337 327.585985 
L 950.157216 317.478032 
" style="fill:none;stroke:#d9534f;stroke-linecap:square;"/>
   </g>
   <g id="line2d_11">
    <path clip-path="url(#pf1f679c63c)" d="M 86.339034 307.619077 
L 143.926913 345.543376 
L 201.514792 349.682499 
L 259.10267 351.255358 
L 316.690549 352.086904 
L 374.278428 352.626053 
L 431.866307 352.932749 
L 489.454186 353.167379 
L 547.042064 353.34226 
L 604.629943 333.105524 
L 662.217822 344.275257 
L 719.805701 321.257591 
L 777.39358 334.750599 
L 834.981458 298.539388 
L 892.569337 326.869841 
L 950.157216 279.312547 
" style="fill:none;stroke:#d9534f;stroke-linecap:square;"/>
   </g>
   <g id="line2d_12">
    <path clip-path="url(#pf1f679c63c)" d="M 86.339034 293.112798 
L 143.926913 344.423931 
L 201.514792 349.296272 
L 259.10267 351.134793 
L 316.690549 351.980608 
L 374.278428 352.436403 
L 431.866307 352.829575 
L 489.454186 353.118101 
L 547.042064 353.368388 
L 604.629943 329.988521 
L 662.217822 341.685165 
L 719.805701 310.542035 
L 777.39358 328.923263 
L 834.981458 289.502526 
L 892.569337 330.253174 
L 950.157216 323.770847 
" style="fill:none;stroke:#d9534f;stroke-linecap:square;"/>
   </g>
   <g id="line2d_13">
    <path clip-path="url(#pf1f679c63c)" d="M 86.339034 319.651458 
L 143.926913 347.273251 
L 201.514792 350.621948 
L 259.10267 351.813145 
L 316.690549 352.54568 
L 374.278428 352.902814 
L 431.866307 353.113351 
L 489.454186 353.339024 
L 547.042064 353.49635 
L 604.629943 333.838717 
L 662.217822 343.6685 
L 719.805701 316.545745 
L 777.39358 331.46176 
L 834.981458 286.942675 
L 892.569337 325.099647 
L 950.157216 284.052334 
" style="fill:none;stroke:#d9534f;stroke-linecap:square;"/>
   </g>
   <g id="line2d_14">
    <path clip-path="url(#pf1f679c63c)" d="M 86.339034 304.674779 
L 143.926913 346.894231 
L 201.514792 350.733796 
L 259.10267 351.990479 
L 316.690549 352.624399 
L 374.278428 353.029164 
L 431.866307 353.209616 
L 489.454186 353.374878 
L 547.042064 353.497235 
L 604.629943 330.583871 
L 662.217822 339.149442 
L 719.805701 300.355813 
L 777.39358 322.117015 
L 834.981458 284.733814 
L 892.569337 333.402751 
L 950.157216 325.995117 
" style="fill:none;stroke:#d9534f;stroke-linecap:square;"/>
   </g>
   <g id="line2d_15">
    <path clip-path="url(#pf1f679c63c)" d="M 86.339034 309.808289 
L 143.926913 346.236416 
L 201.514792 349.894537 
L 259.10267 351.369163 
L 316.690549 352.13643 
L 374.278428 352.56143 
L 431.866307 352.93427 
L 489.454186 353.049148 
L 547.042064 353.298561 
L 604.629943 328.730254 
L 662.217822 340.761777 
L 719.805701 310.360852 
L 777.39358 329.722006 
L 834.981458 291.596758 
L 892.569337 333.580925 
L 950.157216 300.325584 
" style="fill:none;stroke:#d9534f;stroke-linecap:square;"/>
   </g>
   <g id="line2d_16">
    <path clip-path="url(#pf1f679c63c)" d="M 86.339034 293.705814 
L 143.926913 346.357721 
L 201.514792 350.151785 
L 259.10267 351.405655 
L 316.690549 352.038914 
L 374.278428 352.505714 
L 431.866307 352.78391 
L 489.454186 353.05588 
L 547.042064 353.112048 
L 604.629943 322.376322 
L 662.217822 335.838635 
L 719.805701 297.218664 
L 777.39358 327.942849 
L 834.981458 300.164818 
L 892.569337 337.881087 
L 950.157216 329.826583 
" style="fill:none;stroke:#d9534f;stroke-linecap:square;"/>
   </g>
   <g id="line2d_17">
    <path clip-path="url(#pf1f679c63c)" d="M 86.339034 305.978023 
L 143.926913 345.641393 
L 201.514792 349.722294 
L 259.10267 351.135381 
L 316.690549 351.9818 
L 374.278428 352.397698 
L 431.866307 352.7121 
L 489.454186 352.984462 
L 547.042064 353.122832 
L 604.629943 326.221747 
L 662.217822 339.341996 
L 719.805701 306.36022 
L 777.39358 327.631839 
L 834.981458 291.207808 
L 892.569337 331.762686 
L 950.157216 318.16412 
" style="fill:none;stroke:#d9534f;stroke-linecap:square;"/>
   </g>
   <g id="line2d_18">
    <path clip-path="url(#pf1f679c63c)" d="M 86.339034 292.497292 
L 143.926913 345.531358 
L 201.514792 349.570884 
L 259.10267 351.074067 
L 316.690549 351.747141 
L 374.278428 352.124003 
L 431.866307 352.460937 
L 489.454186 352.689499 
L 547.042064 352.832036 
L 604.629943 316.322777 
L 662.217822 332.796499 
L 719.805701 291.177125 
L 777.39358 325.783889 
L 834.981458 303.563291 
L 892.569337 341.942758 
L 950.157216 344.252843 
" style="fill:none;stroke:#d9534f;stroke-linecap:square;"/>
   </g>
   <g id="line2d_19">
    <path clip-path="url(#pf1f679c63c)" d="M 86.339034 217.892259 
L 143.926913 323.030152 
L 201.514792 339.57935 
L 259.10267 344.9944 
L 316.690549 347.541422 
L 374.278428 349.208052 
L 431.866307 350.298895 
L 489.454186 351.068949 
L 547.042064 351.781733 
L 604.629943 319.495631 
L 662.217822 343.844593 
L 719.805701 334.244794 
L 777.39358 347.031732 
L 834.981458 338.306864 
L 892.569337 349.552554 
L 950.157216 348.49502 
" style="fill:none;stroke:#f0ad4e;stroke-linecap:square;"/>
   </g>
   <g id="line2d_20">
    <path clip-path="url(#pf1f679c63c)" d="M 86.339034 200.092706 
L 143.926913 321.247622 
L 201.514792 339.699359 
L 259.10267 345.315405 
L 316.690549 348.307058 
L 374.278428 349.918014 
L 431.866307 350.838829 
L 489.454186 351.514383 
L 547.042064 352.05781 
L 604.629943 321.806423 
L 662.217822 343.381049 
L 719.805701 333.526972 
L 777.39358 347.785073 
L 834.981458 343.775585 
L 892.569337 352.841236 
L 950.157216 354.258876 
" style="fill:none;stroke:#f0ad4e;stroke-linecap:square;"/>
   </g>
   <g id="line2d_21">
    <path clip-path="url(#pf1f679c63c)" d="M 86.339034 293.901306 
L 143.926913 343.566597 
L 201.514792 348.725335 
L 259.10267 350.65194 
L 316.690549 351.672212 
L 374.278428 352.08282 
L 431.866307 352.437025 
L 489.454186 352.848378 
L 547.042064 353.010775 
L 604.629943 326.899887 
L 662.217822 341.635849 
L 719.805701 314.20655 
L 777.39358 334.632814 
L 834.981458 303.69756 
L 892.569337 332.396193 
L 950.157216 304.001158 
" style="fill:none;stroke:#d9534f;stroke-linecap:square;"/>
   </g>
   <g id="line2d_22">
    <path clip-path="url(#pf1f679c63c)" d="M 86.339034 277.899112 
L 143.926913 342.431713 
L 201.514792 347.972963 
L 259.10267 349.940979 
L 316.690549 351.055183 
L 374.278428 351.697661 
L 431.866307 352.115521 
L 489.454186 352.309626 
L 547.042064 352.537351 
L 604.629943 321.268401 
L 662.217822 338.687945 
L 719.805701 308.499879 
L 777.39358 331.703667 
L 834.981458 305.904206 
L 892.569337 338.308141 
L 950.157216 334.034051 
" style="fill:none;stroke:#d9534f;stroke-linecap:square;"/>
   </g>
   <g id="line2d_23">
    <path clip-path="url(#pf1f679c63c)" d="M 86.339034 285.185972 
L 143.926913 337.67783 
L 201.514792 345.943697 
L 259.10267 348.508923 
L 316.690549 349.823906 
L 374.278428 350.823623 
L 431.866307 351.590229 
L 489.454186 351.789858 
L 547.042064 352.142227 
L 604.629943 311.013346 
L 662.217822 333.081439 
L 719.805701 299.927579 
L 777.39358 332.007191 
L 834.981458 313.369131 
L 892.569337 345.597727 
L 950.157216 347.883723 
" style="fill:none;stroke:#d9534f;stroke-linecap:square;"/>
   </g>
   <g id="line2d_24">
    <path clip-path="url(#pf1f679c63c)" d="M 86.339034 274.33695 
L 143.926913 337.089798 
L 201.514792 345.709688 
L 259.10267 348.502409 
L 316.690549 349.855481 
L 374.278428 350.605099 
L 431.866307 351.024072 
L 489.454186 351.496781 
L 547.042064 351.865136 
L 604.629943 300.81355 
L 662.217822 328.06454 
L 719.805701 295.002611 
L 777.39358 334.774461 
L 834.981458 331.369854 
L 892.569337 351.873874 
L 950.157216 353.982096 
" style="fill:none;stroke:#d9534f;stroke-linecap:square;"/>
   </g>
   <g id="line2d_25">
    <path clip-path="url(#pf1f679c63c)" d="M 86.339034 304.215658 
L 143.926913 345.263453 
L 201.514792 349.554962 
L 259.10267 350.925487 
L 316.690549 351.559669 
L 374.278428 352.165552 
L 431.866307 352.519586 
L 489.454186 352.677055 
L 547.042064 352.849058 
L 604.629943 319.459014 
L 662.217822 336.019342 
L 719.805701 298.720066 
L 777.39358 327.615039 
L 834.981458 297.806038 
L 892.569337 336.946686 
L 950.157216 328.069735 
" style="fill:none;stroke:#d9534f;stroke-linecap:square;"/>
   </g>
   <g id="line2d_26">
    <path clip-path="url(#pf1f679c63c)" d="M 86.339034 272.568716 
L 143.926913 343.709265 
L 201.514792 348.450767 
L 259.10267 350.063734 
L 316.690549 350.894423 
L 374.278428 351.485867 
L 431.866307 351.795972 
L 489.454186 352.089772 
L 547.042064 352.295613 
L 604.629943 308.053395 
L 662.217822 330.665545 
L 719.805701 294.672694 
L 777.39358 331.601897 
L 834.981458 319.63533 
L 892.569337 349.652463 
L 950.157216 348.730949 
" style="fill:none;stroke:#d9534f;stroke-linecap:square;"/>
   </g>
   <g id="line2d_27">
    <path clip-path="url(#pf1f679c63c)" d="M 86.339034 280.825591 
L 143.926913 342.272736 
L 201.514792 348.20058 
L 259.10267 350.05485 
L 316.690549 351.111554 
L 374.278428 351.668446 
L 431.866307 352.216502 
L 489.454186 352.382746 
L 547.042064 352.687378 
L 604.629943 319.084602 
L 662.217822 336.651635 
L 719.805701 302.478556 
L 777.39358 330.522285 
L 834.981458 307.319156 
L 892.569337 341.960416 
L 950.157216 336.929366 
" style="fill:none;stroke:#d9534f;stroke-linecap:square;"/>
   </g>
   <g id="line2d_28">
    <path clip-path="url(#pf1f679c63c)" d="M 86.339034 259.714087 
L 143.926913 341.01471 
L 201.514792 347.036628 
L 259.10267 349.073233 
L 316.690549 350.046216 
L 374.278428 350.725141 
L 431.866307 351.318586 
L 489.454186 351.699296 
L 547.042064 351.83109 
L 604.629943 305.526081 
L 662.217822 332.300685 
L 719.805701 299.888322 
L 777.39358 334.588116 
L 834.981458 329.190609 
L 892.569337 349.824006 
L 950.157216 352.589595 
" style="fill:none;stroke:#d9534f;stroke-linecap:square;"/>
   </g>
   <g id="line2d_29">
    <path clip-path="url(#pf1f679c63c)" d="M 86.339034 277.546432 
L 143.926913 342.664996 
L 201.514792 348.552844 
L 259.10267 350.373684 
L 316.690549 351.333097 
L 374.278428 351.825927 
L 431.866307 352.328798 
L 489.454186 352.496786 
L 547.042064 352.804479 
L 604.629943 323.425769 
L 662.217822 338.515046 
L 719.805701 303.212319 
L 777.39358 327.152148 
L 834.981458 303.506644 
L 892.569337 339.275498 
L 950.157216 341.351934 
" style="fill:none;stroke:#d9534f;stroke-linecap:square;"/>
   </g>
   <g id="line2d_30">
    <path clip-path="url(#pf1f679c63c)" d="M 86.339034 259.197773 
L 143.926913 340.15987 
L 201.514792 346.644644 
L 259.10267 348.759884 
L 316.690549 349.972838 
L 374.278428 350.78704 
L 431.866307 351.26213 
L 489.454186 351.808429 
L 547.042064 351.910567 
L 604.629943 313.633659 
L 662.217822 334.184278 
L 719.805701 296.643059 
L 777.39358 331.747671 
L 834.981458 326.17765 
L 892.569337 350.490211 
L 950.157216 352.986697 
" style="fill:none;stroke:#d9534f;stroke-linecap:square;"/>
   </g>
   <g id="line2d_31">
    <path clip-path="url(#pf1f679c63c)" d="M 86.339034 329.9613 
L 143.926913 348.224138 
L 201.514792 350.716068 
L 259.10267 351.718978 
L 316.690549 352.123894 
L 374.278428 352.54669 
L 431.866307 352.738593 
L 489.454186 352.869041 
L 547.042064 353.092557 
L 604.629943 321.659111 
L 662.217822 334.767181 
L 719.805701 292.681459 
L 777.39358 323.901864 
L 834.981458 282.877144 
L 892.569337 331.434899 
L 950.157216 325.053484 
" style="fill:none;stroke:#d9534f;stroke-linecap:square;"/>
   </g>
   <g id="line2d_32">
    <path clip-path="url(#pf1f679c63c)" d="M 86.339034 325.217762 
L 143.926913 348.987469 
L 201.514792 350.993852 
L 259.10267 351.50101 
L 316.690549 352.040767 
L 374.278428 352.264918 
L 431.866307 352.40677 
L 489.454186 352.51485 
L 547.042064 352.632283 
L 604.629943 307.30079 
L 662.217822 325.312473 
L 719.805701 270.418846 
L 777.39358 318.35012 
L 834.981458 301.57477 
L 892.569337 346.392792 
L 950.157216 348.456929 
" style="fill:none;stroke:#d9534f;stroke-linecap:square;"/>
   </g>
   <g id="line2d_33">
    <path clip-path="url(#pf1f679c63c)" d="M 86.339034 288.363513 
L 143.926913 343.25695 
L 201.514792 348.582828 
L 259.10267 350.557478 
L 316.690549 351.555759 
L 374.278428 352.153475 
L 431.866307 352.622371 
L 489.454186 352.868631 
L 547.042064 353.15188 
L 604.629943 329.212474 
L 662.217822 342.519073 
L 719.805701 319.222703 
L 777.39358 337.3118 
L 834.981458 308.33346 
L 892.569337 333.882875 
L 950.157216 292.771129 
" style="fill:none;stroke:#d9534f;stroke-linecap:square;"/>
   </g>
   <g id="line2d_34">
    <path clip-path="url(#pf1f679c63c)" d="M 86.339034 268.860697 
L 143.926913 340.859295 
L 201.514792 346.985108 
L 259.10267 349.474043 
L 316.690549 350.634755 
L 374.278428 351.465686 
L 431.866307 352.035944 
L 489.454186 352.332803 
L 547.042064 352.659937 
L 604.629943 324.539512 
L 662.217822 340.559726 
L 719.805701 317.566886 
L 777.39358 336.809571 
L 834.981458 306.598915 
L 892.569337 338.530041 
L 950.157216 326.45348 
" style="fill:none;stroke:#d9534f;stroke-linecap:square;"/>
   </g>
   <g id="line2d_35">
    <path clip-path="url(#pf1f679c63c)" d="M 86.339034 320.343616 
L 143.926913 347.549896 
L 201.514792 350.628103 
L 259.10267 351.672873 
L 316.690549 352.258986 
L 374.278428 352.623119 
L 431.866307 352.892405 
L 489.454186 352.977393 
L 547.042064 353.2017 
L 604.629943 327.453015 
L 662.217822 340.832975 
L 719.805701 314.092157 
L 777.39358 333.624519 
L 834.981458 299.658648 
L 892.569337 330.799173 
L 950.157216 275.757822 
" style="fill:none;stroke:#d9534f;stroke-linecap:square;"/>
   </g>
   <g id="line2d_36">
    <path clip-path="url(#pf1f679c63c)" d="M 86.339034 299.574412 
L 143.926913 346.378486 
L 201.514792 349.641158 
L 259.10267 350.992177 
L 316.690549 351.518834 
L 374.278428 352.17889 
L 431.866307 352.375869 
L 489.454186 352.60025 
L 547.042064 352.748173 
L 604.629943 318.752216 
L 662.217822 337.096471 
L 719.805701 308.064618 
L 777.39358 331.797355 
L 834.981458 301.044561 
L 892.569337 333.750563 
L 950.157216 317.852366 
" style="fill:none;stroke:#d9534f;stroke-linecap:square;"/>
   </g>
   <g id="line2d_37">
    <path clip-path="url(#pf1f679c63c)" d="M 86.339034 275.612704 
L 143.926913 335.82938 
L 201.514792 344.764571 
L 259.10267 348.031789 
L 316.690549 349.747747 
L 374.278428 350.703611 
L 431.866307 351.475144 
L 489.454186 351.850556 
L 547.042064 352.238934 
L 604.629943 318.764708 
L 662.217822 339.221455 
L 719.805701 315.959847 
L 777.39358 336.544899 
L 834.981458 312.807543 
L 892.569337 339.112565 
L 950.157216 333.700945 
" style="fill:none;stroke:#d9534f;stroke-linecap:square;"/>
   </g>
   <g id="line2d_38">
    <path clip-path="url(#pf1f679c63c)" d="M 86.339034 261.503277 
L 143.926913 334.817111 
L 201.514792 344.990428 
L 259.10267 348.60824 
L 316.690549 349.976054 
L 374.278428 350.983332 
L 431.866307 351.660613 
L 489.454186 352.166304 
L 547.042064 352.362924 
L 604.629943 317.123683 
L 662.217822 337.128671 
L 719.805701 309.26434 
L 777.39358 334.014507 
L 834.981458 317.103325 
L 892.569337 346.455257 
L 950.157216 348.208334 
" style="fill:none;stroke:#d9534f;stroke-linecap:square;"/>
   </g>
   <g id="line2d_39">
    <path clip-path="url(#pf1f679c63c)" d="M 86.339034 322.813089 
L 143.926913 348.745053 
L 201.514792 351.020232 
L 259.10267 352.050013 
L 316.690549 352.474803 
L 374.278428 352.783228 
L 431.866307 353.069254 
L 489.454186 353.253327 
L 547.042064 353.399231 
L 604.629943 332.267152 
L 662.217822 344.432421 
L 719.805701 326.809374 
L 777.39358 340.915742 
L 834.981458 315.37705 
L 892.569337 332.076315 
L 950.157216 224.880113 
" style="fill:none;stroke:#d9534f;stroke-linecap:square;"/>
   </g>
   <g id="line2d_40">
    <path clip-path="url(#pf1f679c63c)" d="M 86.339034 310.533182 
L 143.926913 347.403572 
L 201.514792 349.99625 
L 259.10267 350.998064 
L 316.690549 351.685272 
L 374.278428 352.157915 
L 431.866307 352.479506 
L 489.454186 352.71182 
L 547.042064 352.878389 
L 604.629943 326.505147 
L 662.217822 343.054161 
L 719.805701 326.642543 
L 777.39358 340.971955 
L 834.981458 308.439895 
L 892.569337 322.552174 
L 950.157216 267.356555 
" style="fill:none;stroke:#d9534f;stroke-linecap:square;"/>
   </g>
   <g id="line2d_41">
    <path clip-path="url(#pf1f679c63c)" d="M 86.339034 287.927629 
L 143.926913 344.28531 
L 201.514792 349.1981 
L 259.10267 351.169916 
L 316.690549 351.995034 
L 374.278428 352.623794 
L 431.866307 353.003942 
L 489.454186 353.291193 
L 547.042064 353.463234 
L 604.629943 335.876523 
L 662.217822 346.14687 
L 719.805701 329.477018 
L 777.39358 340.745945 
L 834.981458 313.561036 
L 892.569337 331.684461 
L 950.157216 261.916397 
" style="fill:none;stroke:#d9534f;stroke-linecap:square;"/>
   </g>
   <g id="line2d_42">
    <path clip-path="url(#pf1f679c63c)" d="M 86.339034 260.927393 
L 143.926913 342.514133 
L 201.514792 348.858681 
L 259.10267 350.730946 
L 316.690549 351.781479 
L 374.278428 352.438348 
L 431.866307 352.746374 
L 489.454186 353.034539 
L 547.042064 353.307534 
L 604.629943 335.467212 
L 662.217822 346.032706 
L 719.805701 328.692818 
L 777.39358 340.302371 
L 834.981458 306.127316 
L 892.569337 330.629393 
L 950.157216 302.775156 
" style="fill:none;stroke:#d9534f;stroke-linecap:square;"/>
   </g>
   <g id="line2d_43">
    <path clip-path="url(#pf1f679c63c)" d="M 86.339034 309.058711 
L 143.926913 344.036615 
L 201.514792 348.635908 
L 259.10267 350.228527 
L 316.690549 351.194142 
L 374.278428 351.673742 
L 431.866307 352.13034 
L 489.454186 352.418824 
L 547.042064 352.633706 
L 604.629943 314.845227 
L 662.217822 332.951743 
L 719.805701 290.837598 
L 777.39358 326.761663 
L 834.981458 303.011983 
L 892.569337 341.615883 
L 950.157216 334.331789 
" style="fill:none;stroke:#d9534f;stroke-linecap:square;"/>
   </g>
   <g id="line2d_44">
    <path clip-path="url(#pf1f679c63c)" d="M 86.339034 302.726365 
L 143.926913 343.992403 
L 201.514792 348.460728 
L 259.10267 349.987585 
L 316.690549 350.802007 
L 374.278428 351.296545 
L 431.866307 351.761853 
L 489.454186 351.907183 
L 547.042064 351.947665 
L 604.629943 298.117958 
L 662.217822 323.496555 
L 719.805701 280.321283 
L 777.39358 330.111329 
L 834.981458 321.045064 
L 892.569337 349.241393 
L 950.157216 351.150482 
" style="fill:none;stroke:#d9534f;stroke-linecap:square;"/>
   </g>
   <g id="line2d_45">
    <path clip-path="url(#pf1f679c63c)" d="M 86.339034 276.247684 
L 143.926913 336.193561 
L 201.514792 344.980124 
L 259.10267 347.855142 
L 316.690549 349.494227 
L 374.278428 350.524468 
L 431.866307 351.368919 
L 489.454186 351.678022 
L 547.042064 351.998596 
L 604.629943 313.955783 
L 662.217822 336.87928 
L 719.805701 307.226528 
L 777.39358 335.25348 
L 834.981458 316.781419 
L 892.569337 343.389869 
L 950.157216 342.539299 
" style="fill:none;stroke:#d9534f;stroke-linecap:square;"/>
   </g>
   <g id="line2d_46">
    <path clip-path="url(#pf1f679c63c)" d="M 86.339034 262.543184 
L 143.926913 334.843731 
L 201.514792 344.530563 
L 259.10267 347.865344 
L 316.690549 349.415654 
L 374.278428 350.47875 
L 431.866307 351.058003 
L 489.454186 351.487579 
L 547.042064 351.921093 
L 604.629943 305.917802 
L 662.217822 330.167498 
L 719.805701 299.421997 
L 777.39358 335.853979 
L 834.981458 334.355113 
L 892.569337 352.290049 
L 950.157216 354.21606 
" style="fill:none;stroke:#d9534f;stroke-linecap:square;"/>
   </g>
   <g id="line2d_47">
    <path clip-path="url(#pf1f679c63c)" d="M 86.339034 292.72294 
L 143.926913 342.896405 
L 201.514792 348.264106 
L 259.10267 350.1581 
L 316.690549 351.167058 
L 374.278428 351.899062 
L 431.866307 352.281069 
L 489.454186 352.58827 
L 547.042064 352.821766 
L 604.629943 322.915717 
L 662.217822 339.055893 
L 719.805701 306.578756 
L 777.39358 330.60495 
L 834.981458 300.096898 
L 892.569337 337.890316 
L 950.157216 324.425096 
" style="fill:none;stroke:#d9534f;stroke-linecap:square;"/>
   </g>
   <g id="line2d_48">
    <path clip-path="url(#pf1f679c63c)" d="M 86.339034 275.402545 
L 143.926913 341.598389 
L 201.514792 347.347092 
L 259.10267 349.282722 
L 316.690549 350.636895 
L 374.278428 350.994489 
L 431.866307 351.634247 
L 489.454186 351.913513 
L 547.042064 352.26403 
L 604.629943 310.816451 
L 662.217822 334.225511 
L 719.805701 299.184001 
L 777.39358 329.598954 
L 834.981458 313.908765 
L 892.569337 346.643227 
L 950.157216 350.91557 
" style="fill:none;stroke:#d9534f;stroke-linecap:square;"/>
   </g>
   <g id="line2d_49">
    <path clip-path="url(#pf1f679c63c)" d="M 86.339034 290.762738 
L 143.926913 339.140037 
L 201.514792 346.589471 
L 259.10267 349.205148 
L 316.690549 350.415488 
L 374.278428 351.332811 
L 431.866307 351.651239 
L 489.454186 352.167909 
L 547.042064 352.457308 
L 604.629943 316.292426 
L 662.217822 335.121637 
L 719.805701 299.342546 
L 777.39358 329.683832 
L 834.981458 306.883099 
L 892.569337 342.621533 
L 950.157216 342.699179 
" style="fill:none;stroke:#d9534f;stroke-linecap:square;"/>
   </g>
   <g id="line2d_50">
    <path clip-path="url(#pf1f679c63c)" d="M 86.339034 280.797763 
L 143.926913 339.186545 
L 201.514792 346.95109 
L 259.10267 349.276552 
L 316.690549 350.529058 
L 374.278428 351.266274 
L 431.866307 351.512377 
L 489.454186 352.14387 
L 547.042064 352.355776 
L 604.629943 307.40478 
L 662.217822 328.346915 
L 719.805701 286.383632 
L 777.39358 330.009453 
L 834.981458 324.706053 
L 892.569337 350.760362 
L 950.157216 354.7359 
" style="fill:none;stroke:#d9534f;stroke-linecap:square;"/>
   </g>
   <g id="line2d_51">
    <path clip-path="url(#pf1f679c63c)" d="M 86.339034 297.328418 
L 143.926913 345.095383 
L 201.514792 349.583656 
L 259.10267 351.133672 
L 316.690549 351.964204 
L 374.278428 352.616149 
L 431.866307 352.892955 
L 489.454186 353.0737 
L 547.042064 353.246339 
L 604.629943 328.82369 
L 662.217822 339.758784 
L 719.805701 305.419202 
L 777.39358 326.13951 
L 834.981458 295.374221 
L 892.569337 330.156274 
L 950.157216 323.760244 
" style="fill:none;stroke:#d9534f;stroke-linecap:square;"/>
   </g>
   <g id="line2d_52">
    <path clip-path="url(#pf1f679c63c)" d="M 86.339034 275.496676 
L 143.926913 341.362441 
L 201.514792 347.071816 
L 259.10267 349.206017 
L 316.690549 350.525789 
L 374.278428 351.270443 
L 431.866307 351.781684 
L 489.454186 352.275907 
L 547.042064 352.52838 
L 604.629943 318.919185 
L 662.217822 335.815083 
L 719.805701 294.277918 
L 777.39358 328.469225 
L 834.981458 309.313997 
L 892.569337 345.84784 
L 950.157216 352.204 
" style="fill:none;stroke:#d9534f;stroke-linecap:square;"/>
   </g>
   <g id="line2d_53">
    <path clip-path="url(#pf1f679c63c)" d="M 86.339034 307.23243 
L 143.926913 343.44103 
L 201.514792 348.569187 
L 259.10267 350.051778 
L 316.690549 351.016739 
L 374.278428 351.533279 
L 431.866307 352.060226 
L 489.454186 352.474098 
L 547.042064 352.487636 
L 604.629943 315.636701 
L 662.217822 333.623122 
L 719.805701 293.700386 
L 777.39358 327.466862 
L 834.981458 301.768317 
L 892.569337 339.32757 
L 950.157216 335.977037 
" style="fill:none;stroke:#d9534f;stroke-linecap:square;"/>
   </g>
   <g id="line2d_54">
    <path clip-path="url(#pf1f679c63c)" d="M 86.339034 300.280058 
L 143.926913 343.613409 
L 201.514792 348.528611 
L 259.10267 350.120027 
L 316.690549 350.744234 
L 374.278428 351.44068 
L 431.866307 351.670353 
L 489.454186 351.996706 
L 547.042064 352.230844 
L 604.629943 304.299139 
L 662.217822 325.785864 
L 719.805701 281.873677 
L 777.39358 328.540405 
L 834.981458 317.108901 
L 892.569337 346.918483 
L 950.157216 351.215007 
" style="fill:none;stroke:#d9534f;stroke-linecap:square;"/>
   </g>
   <g id="line2d_55">
    <path clip-path="url(#pf1f679c63c)" d="M 86.339034 310.499513 
L 143.926913 345.176238 
L 201.514792 348.692423 
L 259.10267 350.247079 
L 316.690549 351.1726 
L 374.278428 351.614372 
L 431.866307 351.99124 
L 489.454186 352.333703 
L 547.042064 352.555591 
L 604.629943 313.786028 
L 662.217822 332.887388 
L 719.805701 295.045066 
L 777.39358 327.402735 
L 834.981458 301.07813 
L 892.569337 336.127667 
L 950.157216 335.756627 
" style="fill:none;stroke:#d9534f;stroke-linecap:square;"/>
   </g>
   <g id="line2d_56">
    <path clip-path="url(#pf1f679c63c)" d="M 86.339034 300.425052 
L 143.926913 344.79176 
L 201.514792 348.21804 
L 259.10267 349.580862 
L 316.690549 350.552722 
L 374.278428 351.001031 
L 431.866307 351.337037 
L 489.454186 351.759704 
L 547.042064 352.037626 
L 604.629943 300.563907 
L 662.217822 326.218197 
L 719.805701 284.144747 
L 777.39358 328.465866 
L 834.981458 316.048786 
L 892.569337 349.646131 
L 950.157216 351.574933 
" style="fill:none;stroke:#d9534f;stroke-linecap:square;"/>
   </g>
   <g id="line2d_57">
    <path clip-path="url(#pf1f679c63c)" d="M 86.339034 320.416849 
L 143.926913 347.225715 
L 201.514792 350.271063 
L 259.10267 351.305844 
L 316.690549 352.02499 
L 374.278428 352.446191 
L 431.866307 352.688152 
L 489.454186 353.003238 
L 547.042064 353.062279 
L 604.629943 324.895433 
L 662.217822 338.04799 
L 719.805701 303.571457 
L 777.39358 326.852674 
L 834.981458 292.103656 
L 892.569337 329.76405 
L 950.157216 308.686818 
" style="fill:none;stroke:#d9534f;stroke-linecap:square;"/>
   </g>
   <g id="line2d_58">
    <path clip-path="url(#pf1f679c63c)" d="M 86.339034 307.59753 
L 143.926913 346.311145 
L 201.514792 349.249664 
L 259.10267 350.633276 
L 316.690549 351.297347 
L 374.278428 351.738107 
L 431.866307 351.894376 
L 489.454186 352.270654 
L 547.042064 352.323238 
L 604.629943 308.151865 
L 662.217822 328.826498 
L 719.805701 287.92873 
L 777.39358 324.559079 
L 834.981458 300.517425 
L 892.569337 343.443213 
L 950.157216 349.624253 
" style="fill:none;stroke:#d9534f;stroke-linecap:square;"/>
   </g>
   <g id="line2d_59">
    <path clip-path="url(#pf1f679c63c)" d="M 86.339034 317.316859 
L 143.926913 347.097408 
L 201.514792 350.114336 
L 259.10267 351.413152 
L 316.690549 351.988222 
L 374.278428 352.333497 
L 431.866307 352.734207 
L 489.454186 352.91944 
L 547.042064 353.113571 
L 604.629943 326.672251 
L 662.217822 340.074166 
L 719.805701 308.179151 
L 777.39358 329.066564 
L 834.981458 289.453367 
L 892.569337 330.84827 
L 950.157216 303.041939 
" style="fill:none;stroke:#d9534f;stroke-linecap:square;"/>
   </g>
   <g id="line2d_60">
    <path clip-path="url(#pf1f679c63c)" d="M 86.339034 304.369954 
L 143.926913 346.238234 
L 201.514792 349.541272 
L 259.10267 350.712996 
L 316.690549 351.634329 
L 374.278428 351.918669 
L 431.866307 352.261149 
L 489.454186 352.389933 
L 547.042064 352.747333 
L 604.629943 314.464111 
L 662.217822 332.589647 
L 719.805701 292.731372 
L 777.39358 324.589087 
L 834.981458 292.383237 
L 892.569337 341.866099 
L 950.157216 345.928978 
" style="fill:none;stroke:#d9534f;stroke-linecap:square;"/>
   </g>
   <g id="line2d_61">
    <path clip-path="url(#pf1f679c63c)" d="M 86.339034 302.331759 
L 143.926913 345.450137 
L 201.514792 349.318471 
L 259.10267 350.82662 
L 316.690549 351.583147 
L 374.278428 352.095781 
L 431.866307 352.413499 
L 489.454186 352.84963 
L 547.042064 352.948075 
L 604.629943 321.775293 
L 662.217822 337.282417 
L 719.805701 305.107302 
L 777.39358 330.457818 
L 834.981458 299.882528 
L 892.569337 332.921681 
L 950.157216 319.122243 
" style="fill:none;stroke:#d9534f;stroke-linecap:square;"/>
   </g>
   <g id="line2d_62">
    <path clip-path="url(#pf1f679c63c)" d="M 86.339034 289.083921 
L 143.926913 344.484499 
L 201.514792 348.845319 
L 259.10267 350.458168 
L 316.690549 351.031752 
L 374.278428 351.669069 
L 431.866307 351.896095 
L 489.454186 352.193664 
L 547.042064 352.351366 
L 604.629943 309.23469 
L 662.217822 330.231933 
L 719.805701 294.768841 
L 777.39358 330.643459 
L 834.981458 309.078364 
L 892.569337 344.830183 
L 950.157216 345.565076 
" style="fill:none;stroke:#d9534f;stroke-linecap:square;"/>
   </g>
   <g id="line2d_63">
    <path clip-path="url(#pf1f679c63c)" d="M 86.339034 318.637444 
L 143.926913 347.227331 
L 201.514792 350.143172 
L 259.10267 351.313457 
L 316.690549 352.026378 
L 374.278428 352.397425 
L 431.866307 352.606761 
L 489.454186 352.987482 
L 547.042064 353.130472 
L 604.629943 322.474863 
L 662.217822 336.471608 
L 719.805701 299.931257 
L 777.39358 327.529942 
L 834.981458 291.590395 
L 892.569337 328.6766 
L 950.157216 319.221813 
" style="fill:none;stroke:#d9534f;stroke-linecap:square;"/>
   </g>
   <g id="line2d_64">
    <path clip-path="url(#pf1f679c63c)" d="M 86.339034 301.313809 
L 143.926913 346.683813 
L 201.514792 349.596732 
L 259.10267 350.763107 
L 316.690549 351.347523 
L 374.278428 351.857601 
L 431.866307 352.078313 
L 489.454186 352.267057 
L 547.042064 352.466888 
L 604.629943 308.372344 
L 662.217822 330.222392 
L 719.805701 290.270403 
L 777.39358 327.186866 
L 834.981458 303.581743 
L 892.569337 343.152376 
L 950.157216 345.205433 
" style="fill:none;stroke:#d9534f;stroke-linecap:square;"/>
   </g>
   <g id="line2d_65">
    <path clip-path="url(#pf1f679c63c)" d="M 86.339034 292.499902 
L 143.926913 344.191321 
L 201.514792 348.944294 
L 259.10267 350.798093 
L 316.690549 351.686211 
L 374.278428 352.18257 
L 431.866307 352.70891 
L 489.454186 352.876241 
L 547.042064 353.094531 
L 604.629943 326.906314 
L 662.217822 339.69908 
L 719.805701 308.422285 
L 777.39358 331.926397 
L 834.981458 300.253062 
L 892.569337 332.632579 
L 950.157216 317.544609 
" style="fill:none;stroke:#d9534f;stroke-linecap:square;"/>
   </g>
   <g id="line2d_66">
    <path clip-path="url(#pf1f679c63c)" d="M 86.339034 275.317863 
L 143.926913 340.536752 
L 201.514792 346.672334 
L 259.10267 348.927109 
L 316.690549 350.295564 
L 374.278428 350.813909 
L 431.866307 351.6818 
L 489.454186 352.011158 
L 547.042064 352.31174 
L 604.629943 316.000859 
L 662.217822 335.027899 
L 719.805701 301.03959 
L 777.39358 330.353263 
L 834.981458 315.752815 
L 892.569337 344.66449 
L 950.157216 344.959255 
" style="fill:none;stroke:#d9534f;stroke-linecap:square;"/>
   </g>
   <g id="line2d_67">
    <path clip-path="url(#pf1f679c63c)" d="M 86.339034 295.120357 
L 143.926913 341.407223 
L 201.514792 348.241403 
L 259.10267 350.307653 
L 316.690549 351.484584 
L 374.278428 352.194595 
L 431.866307 352.612898 
L 489.454186 352.781558 
L 547.042064 353.139295 
L 604.629943 331.002563 
L 662.217822 343.56712 
L 719.805701 319.200063 
L 777.39358 331.377442 
L 834.981458 292.063892 
L 892.569337 332.567505 
L 950.157216 309.298248 
" style="fill:none;stroke:#d9534f;stroke-linecap:square;"/>
   </g>
   <g id="line2d_68">
    <path clip-path="url(#pf1f679c63c)" d="M 86.339034 285.755145 
L 143.926913 341.284927 
L 201.514792 348.561319 
L 259.10267 350.673924 
L 316.690549 351.666565 
L 374.278428 352.276728 
L 431.866307 352.730685 
L 489.454186 353.038069 
L 547.042064 353.234528 
L 604.629943 327.952399 
L 662.217822 339.392309 
L 719.805701 302.669985 
L 777.39358 325.573311 
L 834.981458 294.00384 
L 892.569337 338.675615 
L 950.157216 338.87705 
" style="fill:none;stroke:#d9534f;stroke-linecap:square;"/>
   </g>
   <g id="line2d_69">
    <path clip-path="url(#pf1f679c63c)" d="M 86.339034 263.818807 
L 143.926913 332.818939 
L 201.514792 343.470501 
L 259.10267 347.342549 
L 316.690549 349.257787 
L 374.278428 350.363661 
L 431.866307 351.145373 
L 489.454186 351.591363 
L 547.042064 352.070359 
L 604.629943 317.06751 
L 662.217822 337.868241 
L 719.805701 314.554515 
L 777.39358 336.953917 
L 834.981458 322.824672 
L 892.569337 343.814332 
L 950.157216 341.403874 
" style="fill:none;stroke:#d9534f;stroke-linecap:square;"/>
   </g>
   <g id="line2d_70">
    <path clip-path="url(#pf1f679c63c)" d="M 86.339034 251.582602 
L 143.926913 332.177201 
L 201.514792 343.892003 
L 259.10267 347.519336 
L 316.690549 349.611424 
L 374.278428 350.713103 
L 431.866307 351.471388 
L 489.454186 351.677611 
L 547.042064 352.14467 
L 604.629943 314.003106 
L 662.217822 335.24205 
L 719.805701 308.956269 
L 777.39358 338.031578 
L 834.981458 328.300111 
L 892.569337 350.090241 
L 950.157216 350.953707 
" style="fill:none;stroke:#d9534f;stroke-linecap:square;"/>
   </g>
   <g id="line2d_71">
    <path clip-path="url(#pf1f679c63c)" d="M 86.339034 290.863441 
L 143.926913 338.426383 
L 201.514792 346.490663 
L 259.10267 349.210314 
L 316.690549 350.493803 
L 374.278428 351.366137 
L 431.866307 351.951493 
L 489.454186 352.42129 
L 547.042064 352.73078 
L 604.629943 323.67051 
L 662.217822 340.868034 
L 719.805701 314.035759 
L 777.39358 332.990355 
L 834.981458 304.467145 
L 892.569337 336.634557 
L 950.157216 319.745738 
" style="fill:none;stroke:#d9534f;stroke-linecap:square;"/>
   </g>
   <g id="line2d_72">
    <path clip-path="url(#pf1f679c63c)" d="M 86.339034 280.09994 
L 143.926913 336.99639 
L 201.514792 345.934086 
L 259.10267 349.25112 
L 316.690549 350.772695 
L 374.278428 351.533605 
L 431.866307 352.098949 
L 489.454186 352.476456 
L 547.042064 352.799124 
L 604.629943 321.85455 
L 662.217822 336.995601 
L 719.805701 301.729193 
L 777.39358 330.060737 
L 834.981458 306.912688 
L 892.569337 343.559748 
L 950.157216 343.291519 
" style="fill:none;stroke:#d9534f;stroke-linecap:square;"/>
   </g>
   <g id="line2d_73">
    <path clip-path="url(#pf1f679c63c)" d="M 86.339034 289.797163 
L 143.926913 344.312561 
L 201.514792 349.366473 
L 259.10267 350.953564 
L 316.690549 351.799192 
L 374.278428 352.355776 
L 431.866307 352.654297 
L 489.454186 353.010558 
L 547.042064 353.066524 
L 604.629943 328.75805 
L 662.217822 340.128736 
L 719.805701 306.133005 
L 777.39358 329.638627 
L 834.981458 299.446576 
L 892.569337 335.83202 
L 950.157216 319.113277 
" style="fill:none;stroke:#d9534f;stroke-linecap:square;"/>
   </g>
   <g id="line2d_74">
    <path clip-path="url(#pf1f679c63c)" d="M 86.339034 261.367848 
L 143.926913 341.767592 
L 201.514792 347.369814 
L 259.10267 349.389019 
L 316.690549 350.491805 
L 374.278428 351.355532 
L 431.866307 351.810594 
L 489.454186 352.082893 
L 547.042064 352.538505 
L 604.629943 319.344182 
L 662.217822 335.3485 
L 719.805701 296.165685 
L 777.39358 330.010892 
L 834.981458 317.322571 
L 892.569337 348.950666 
L 950.157216 351.050303 
" style="fill:none;stroke:#d9534f;stroke-linecap:square;"/>
   </g>
   <g id="line2d_75">
    <path clip-path="url(#pf1f679c63c)" d="M 86.339034 278.583388 
L 143.926913 336.524269 
L 201.514792 345.494532 
L 259.10267 348.427095 
L 316.690549 350.082138 
L 374.278428 350.935033 
L 431.866307 351.601455 
L 489.454186 351.904948 
L 547.042064 352.325804 
L 604.629943 316.207163 
L 662.217822 336.747482 
L 719.805701 307.16384 
L 777.39358 334.909929 
L 834.981458 313.870831 
L 892.569337 341.36262 
L 950.157216 340.225875 
" style="fill:none;stroke:#d9534f;stroke-linecap:square;"/>
   </g>
   <g id="line2d_76">
    <path clip-path="url(#pf1f679c63c)" d="M 86.339034 269.333583 
L 143.926913 335.31788 
L 201.514792 345.082238 
L 259.10267 348.381258 
L 316.690549 349.874153 
L 374.278428 350.834401 
L 431.866307 351.06009 
L 489.454186 351.685383 
L 547.042064 352.111552 
L 604.629943 308.50466 
L 662.217822 331.794557 
L 719.805701 299.558098 
L 777.39358 334.604205 
L 834.981458 325.14722 
L 892.569337 351.02095 
L 950.157216 352.056173 
" style="fill:none;stroke:#d9534f;stroke-linecap:square;"/>
   </g>
   <g id="line2d_77">
    <path clip-path="url(#pf1f679c63c)" d="M 86.339034 304.760002 
L 143.926913 343.664287 
L 201.514792 348.660281 
L 259.10267 350.481359 
L 316.690549 351.353621 
L 374.278428 351.832392 
L 431.866307 352.267309 
L 489.454186 352.345422 
L 547.042064 352.494518 
L 604.629943 313.712039 
L 662.217822 331.143188 
L 719.805701 283.999438 
L 777.39358 325.495998 
L 834.981458 302.208395 
L 892.569337 343.347904 
L 950.157216 348.600245 
" style="fill:none;stroke:#d9534f;stroke-linecap:square;"/>
   </g>
   <g id="line2d_78">
    <path clip-path="url(#pf1f679c63c)" d="M 86.339034 302.921823 
L 143.926913 344.187853 
L 201.514792 349.131437 
L 259.10267 350.567975 
L 316.690549 351.126759 
L 374.278428 351.508215 
L 431.866307 351.937244 
L 489.454186 352.094153 
L 547.042064 352.415857 
L 604.629943 300.843475 
L 662.217822 321.619516 
L 719.805701 270.998174 
L 777.39358 327.110928 
L 834.981458 323.964125 
L 892.569337 352.170833 
L 950.157216 353.768034 
" style="fill:none;stroke:#d9534f;stroke-linecap:square;"/>
   </g>
   <g id="line2d_79">
    <path clip-path="url(#pf1f679c63c)" d="M 86.339034 335.337641 
L 143.926913 350.516572 
L 201.514792 352.368721 
L 259.10267 352.993898 
L 316.690549 353.335485 
L 374.278428 353.571858 
L 431.866307 353.758366 
L 489.454186 353.847111 
L 547.042064 353.9097 
L 604.629943 339.831583 
L 662.217822 346.721163 
L 719.805701 331.672519 
L 777.39358 342.411522 
L 834.981458 317.175513 
L 892.569337 332.849774 
L 950.157216 186.064975 
" style="fill:none;stroke:#d9534f;stroke-linecap:square;"/>
   </g>
   <g id="line2d_80">
    <path clip-path="url(#pf1f679c63c)" d="M 86.339034 316.857505 
L 143.926913 350.01199 
L 201.514792 352.048818 
L 259.10267 352.729393 
L 316.690549 353.136791 
L 374.278428 353.380546 
L 431.866307 353.459024 
L 489.454186 353.597623 
L 547.042064 353.6918 
L 604.629943 335.396027 
L 662.217822 344.719086 
L 719.805701 327.889474 
L 777.39358 341.130134 
L 834.981458 310.579078 
L 892.569337 324.795368 
L 950.157216 232.943745 
" style="fill:none;stroke:#d9534f;stroke-linecap:square;"/>
   </g>
   <g id="line2d_81">
    <path clip-path="url(#pf1f679c63c)" d="M 86.339034 300.017335 
L 143.926913 343.487596 
L 201.514792 348.618051 
L 259.10267 350.589541 
L 316.690549 351.514425 
L 374.278428 352.177633 
L 431.866307 352.678778 
L 489.454186 352.960096 
L 547.042064 353.20362 
L 604.629943 331.189387 
L 662.217822 343.526251 
L 719.805701 317.652114 
L 777.39358 331.872609 
L 834.981458 294.28406 
L 892.569337 327.053054 
L 950.157216 305.54185 
" style="fill:none;stroke:#d9534f;stroke-linecap:square;"/>
   </g>
   <g id="line2d_82">
    <path clip-path="url(#pf1f679c63c)" d="M 86.339034 280.907967 
L 143.926913 342.171997 
L 201.514792 348.446996 
L 259.10267 350.29281 
L 316.690549 351.312589 
L 374.278428 352.060961 
L 431.866307 352.418848 
L 489.454186 352.621007 
L 547.042064 352.937321 
L 604.629943 323.105159 
L 662.217822 338.455235 
L 719.805701 300.635993 
L 777.39358 326.410089 
L 834.981458 299.076747 
L 892.569337 339.298985 
L 950.157216 346.213696 
" style="fill:none;stroke:#d9534f;stroke-linecap:square;"/>
   </g>
   <g id="line2d_83">
    <path clip-path="url(#pf1f679c63c)" d="M 86.339034 284.131389 
L 143.926913 342.955295 
L 201.514792 348.916861 
L 259.10267 350.734329 
L 316.690549 351.87895 
L 374.278428 352.522531 
L 431.866307 352.978194 
L 489.454186 353.188516 
L 547.042064 353.453919 
L 604.629943 334.353376 
L 662.217822 344.292173 
L 719.805701 318.494766 
L 777.39358 334.009339 
L 834.981458 292.96697 
L 892.569337 329.271601 
L 950.157216 312.218192 
" style="fill:none;stroke:#d9534f;stroke-linecap:square;"/>
   </g>
   <g id="line2d_84">
    <path clip-path="url(#pf1f679c63c)" d="M 86.339034 262.37893 
L 143.926913 341.361701 
L 201.514792 348.219196 
L 259.10267 350.369852 
L 316.690549 351.55477 
L 374.278428 352.226151 
L 431.866307 352.628297 
L 489.454186 352.906688 
L 547.042064 353.151315 
L 604.629943 330.933181 
L 662.217822 342.113351 
L 719.805701 309.278829 
L 777.39358 328.766707 
L 834.981458 295.413915 
L 892.569337 340.871563 
L 950.157216 344.191953 
" style="fill:none;stroke:#d9534f;stroke-linecap:square;"/>
   </g>
   <g id="line2d_85">
    <path clip-path="url(#pf1f679c63c)" d="M 86.339034 327.656298 
L 143.926913 348.99657 
L 201.514792 351.637341 
L 259.10267 352.534714 
L 316.690549 353.041506 
L 374.278428 353.378663 
L 431.866307 353.525817 
L 489.454186 353.666723 
L 547.042064 353.808677 
L 604.629943 339.983896 
L 662.217822 348.283208 
L 719.805701 336.728875 
L 777.39358 343.590168 
L 834.981458 315.786493 
L 892.569337 331.606229 
L 950.157216 192.141222 
" style="fill:none;stroke:#d9534f;stroke-linecap:square;"/>
   </g>
   <g id="line2d_86">
    <path clip-path="url(#pf1f679c63c)" d="M 86.339034 313.736488 
L 143.926913 348.455762 
L 201.514792 351.258623 
L 259.10267 352.124553 
L 316.690549 352.773775 
L 374.278428 353.047488 
L 431.866307 353.372534 
L 489.454186 353.474058 
L 547.042064 353.641277 
L 604.629943 338.777669 
L 662.217822 348.669543 
L 719.805701 336.994583 
L 777.39358 342.832234 
L 834.981458 306.25018 
L 892.569337 317.944291 
L 950.157216 233.013342 
" style="fill:none;stroke:#d9534f;stroke-linecap:square;"/>
   </g>
   <g id="line2d_87">
    <path clip-path="url(#pf1f679c63c)" d="M 86.339034 333.485649 
L 143.926913 349.083162 
L 201.514792 351.352058 
L 259.10267 352.225629 
L 316.690549 352.706349 
L 374.278428 353.016207 
L 431.866307 353.260715 
L 489.454186 353.43925 
L 547.042064 353.495831 
L 604.629943 330.784143 
L 662.217822 339.800075 
L 719.805701 304.614916 
L 777.39358 326.140226 
L 834.981458 285.349292 
L 892.569337 326.75426 
L 950.157216 290.85864 
" style="fill:none;stroke:#d9534f;stroke-linecap:square;"/>
   </g>
   <g id="line2d_88">
    <path clip-path="url(#pf1f679c63c)" d="M 86.339034 326.71302 
L 143.926913 348.964512 
L 201.514792 351.551747 
L 259.10267 352.235178 
L 316.690549 352.715904 
L 374.278428 352.962281 
L 431.866307 353.208352 
L 489.454186 353.298474 
L 547.042064 353.335626 
L 604.629943 322.834694 
L 662.217822 334.042267 
L 719.805701 289.184951 
L 777.39358 322.992341 
L 834.981458 280.529564 
L 892.569337 331.646692 
L 950.157216 330.150798 
" style="fill:none;stroke:#d9534f;stroke-linecap:square;"/>
   </g>
   <g id="line2d_89">
    <path clip-path="url(#pf1f679c63c)" d="M 86.339034 289.823941 
L 143.926913 341.770597 
L 201.514792 347.565196 
L 259.10267 350.004652 
L 316.690549 351.136358 
L 374.278428 351.924833 
L 431.866307 352.29073 
L 489.454186 352.740105 
L 547.042064 352.918553 
L 604.629943 329.281933 
L 662.217822 343.824218 
L 719.805701 324.298173 
L 777.39358 339.501101 
L 834.981458 308.267509 
L 892.569337 333.990874 
L 950.157216 287.027629 
" style="fill:none;stroke:#d9534f;stroke-linecap:square;"/>
   </g>
   <g id="line2d_90">
    <path clip-path="url(#pf1f679c63c)" d="M 86.339034 264.198812 
L 143.926913 340.626118 
L 201.514792 347.407248 
L 259.10267 349.776383 
L 316.690549 351.152352 
L 374.278428 351.685846 
L 431.866307 352.206121 
L 489.454186 352.497732 
L 547.042064 352.87159 
L 604.629943 326.455137 
L 662.217822 342.134679 
L 719.805701 320.802767 
L 777.39358 338.042463 
L 834.981458 308.214952 
L 892.569337 331.34525 
L 950.157216 326.948948 
" style="fill:none;stroke:#d9534f;stroke-linecap:square;"/>
   </g>
   <g id="line2d_91">
    <path clip-path="url(#pf1f679c63c)" d="M 86.339034 293.103721 
L 143.926913 342.816893 
L 201.514792 348.575862 
L 259.10267 350.523847 
L 316.690549 351.621892 
L 374.278428 352.077832 
L 431.866307 352.342183 
L 489.454186 352.826975 
L 547.042064 352.937096 
L 604.629943 326.324553 
L 662.217822 340.907698 
L 719.805701 312.582213 
L 777.39358 332.649389 
L 834.981458 302.017046 
L 892.569337 333.189093 
L 950.157216 311.870108 
" style="fill:none;stroke:#d9534f;stroke-linecap:square;"/>
   </g>
   <g id="line2d_92">
    <path clip-path="url(#pf1f679c63c)" d="M 86.339034 274.272286 
L 143.926913 342.7188 
L 201.514792 348.470922 
L 259.10267 350.467582 
L 316.690549 351.333567 
L 374.278428 351.782676 
L 431.866307 352.058799 
L 489.454186 352.463242 
L 547.042064 352.623336 
L 604.629943 314.961806 
L 662.217822 333.81966 
L 719.805701 298.637571 
L 777.39358 329.419378 
L 834.981458 310.02333 
L 892.569337 344.153307 
L 950.157216 349.160137 
" style="fill:none;stroke:#d9534f;stroke-linecap:square;"/>
   </g>
   <g id="line2d_93">
    <path clip-path="url(#pf1f679c63c)" d="M 86.339034 315.768137 
L 143.926913 346.809191 
L 201.514792 350.177541 
L 259.10267 351.598408 
L 316.690549 352.400658 
L 374.278428 352.75273 
L 431.866307 353.047734 
L 489.454186 353.302989 
L 547.042064 353.512207 
L 604.629943 337.39848 
L 662.217822 346.588485 
L 719.805701 324.959901 
L 777.39358 334.301642 
L 834.981458 288.697966 
L 892.569337 321.826143 
L 950.157216 273.224188 
" style="fill:none;stroke:#d9534f;stroke-linecap:square;"/>
   </g>
   <g id="line2d_94">
    <path clip-path="url(#pf1f679c63c)" d="M 86.339034 298.009294 
L 143.926913 345.586834 
L 201.514792 350.062641 
L 259.10267 351.572047 
L 316.690549 352.450926 
L 374.278428 352.908576 
L 431.866307 353.187385 
L 489.454186 353.438834 
L 547.042064 353.582752 
L 604.629943 334.592127 
L 662.217822 342.791611 
L 719.805701 307.819317 
L 777.39358 323.479048 
L 834.981458 270.167383 
L 892.569337 328.31698 
L 950.157216 338.400647 
" style="fill:none;stroke:#d9534f;stroke-linecap:square;"/>
   </g>
   <g id="line2d_95">
    <path clip-path="url(#pf1f679c63c)" d="M 86.339034 317.008384 
L 143.926913 346.001268 
L 201.514792 349.55669 
L 259.10267 351.080316 
L 316.690549 351.877814 
L 374.278428 352.472967 
L 431.866307 352.789857 
L 489.454186 353.09808 
L 547.042064 353.259013 
L 604.629943 332.7011 
L 662.217822 344.740126 
L 719.805701 320.533123 
L 777.39358 334.55816 
L 834.981458 287.175113 
L 892.569337 323.642178 
L 950.157216 285.872211 
" style="fill:none;stroke:#d9534f;stroke-linecap:square;"/>
   </g>
   <g id="line2d_96">
    <path clip-path="url(#pf1f679c63c)" d="M 86.339034 302.069515 
L 143.926913 344.793091 
L 201.514792 349.392351 
L 259.10267 351.352718 
L 316.690549 352.06183 
L 374.278428 352.673832 
L 431.866307 352.932742 
L 489.454186 353.234888 
L 547.042064 353.355241 
L 604.629943 329.610215 
L 662.217822 339.324932 
L 719.805701 299.648167 
L 777.39358 322.132256 
L 834.981458 283.077833 
L 892.569337 332.537768 
L 950.157216 338.169022 
" style="fill:none;stroke:#d9534f;stroke-linecap:square;"/>
   </g>
   <g id="line2d_97">
    <path clip-path="url(#pf1f679c63c)" d="M 86.339034 286.389551 
L 143.926913 335.60718 
L 201.514792 344.386911 
L 259.10267 348.048479 
L 316.690549 349.600998 
L 374.278428 350.586834 
L 431.866307 351.300655 
L 489.454186 351.87061 
L 547.042064 352.168174 
L 604.629943 318.739415 
L 662.217822 338.829428 
L 719.805701 310.518362 
L 777.39358 332.228548 
L 834.981458 308.780919 
L 892.569337 340.510677 
L 950.157216 336.799659 
" style="fill:none;stroke:#d9534f;stroke-linecap:square;"/>
   </g>
   <g id="line2d_98">
    <path clip-path="url(#pf1f679c63c)" d="M 86.339034 272.290615 
L 143.926913 334.163219 
L 201.514792 344.580289 
L 259.10267 348.251378 
L 316.690549 350.039999 
L 374.278428 350.97896 
L 431.866307 351.678657 
L 489.454186 352.161455 
L 547.042064 352.404291 
L 604.629943 317.155773 
L 662.217822 334.617505 
L 719.805701 299.571091 
L 777.39358 330.967735 
L 834.981458 318.807522 
L 892.569337 349.267776 
L 950.157216 349.430136 
" style="fill:none;stroke:#d9534f;stroke-linecap:square;"/>
   </g>
   <g id="line2d_99">
    <path clip-path="url(#pf1f679c63c)" d="M 86.339034 317.52397 
L 143.926913 346.650481 
L 201.514792 350.342745 
L 259.10267 351.464029 
L 316.690549 352.295639 
L 374.278428 352.733205 
L 431.866307 352.995084 
L 489.454186 353.249352 
L 547.042064 353.38957 
L 604.629943 332.245314 
L 662.217822 343.513661 
L 719.805701 320.131703 
L 777.39358 334.725088 
L 834.981458 301.327792 
L 892.569337 330.79881 
L 950.157216 262.979956 
" style="fill:none;stroke:#d9534f;stroke-linecap:square;"/>
   </g>
   <g id="line2d_100">
    <path clip-path="url(#pf1f679c63c)" d="M 86.339034 304.978888 
L 143.926913 346.28767 
L 201.514792 349.972105 
L 259.10267 351.207471 
L 316.690549 352.002981 
L 374.278428 352.418663 
L 431.866307 352.759349 
L 489.454186 352.995745 
L 547.042064 353.069935 
L 604.629943 324.761129 
L 662.217822 338.423081 
L 719.805701 306.82279 
L 777.39358 330.600592 
L 834.981458 298.168162 
L 892.569337 331.43364 
L 950.157216 310.464198 
" style="fill:none;stroke:#d9534f;stroke-linecap:square;"/>
   </g>
   <g id="line2d_101">
    <path clip-path="url(#pf1f679c63c)" d="M 86.339034 318.619767 
L 143.926913 345.057799 
L 201.514792 349.389178 
L 259.10267 350.907892 
L 316.690549 351.785277 
L 374.278428 352.229911 
L 431.866307 352.649474 
L 489.454186 352.933261 
L 547.042064 353.04777 
L 604.629943 326.056236 
L 662.217822 339.042927 
L 719.805701 301.867897 
L 777.39358 325.456929 
L 834.981458 286.56185 
L 892.569337 335.314213 
L 950.157216 315.446019 
" style="fill:none;stroke:#d9534f;stroke-linecap:square;"/>
   </g>
   <g id="line2d_102">
    <path clip-path="url(#pf1f679c63c)" d="M 86.339034 311.925689 
L 143.926913 345.131801 
L 201.514792 349.479666 
L 259.10267 351.24067 
L 316.690549 352.176127 
L 374.278428 352.570646 
L 431.866307 352.929721 
L 489.454186 353.042557 
L 547.042064 353.084555 
L 604.629943 323.632571 
L 662.217822 333.688066 
L 719.805701 281.012761 
L 777.39358 317.883517 
L 834.981458 290.193723 
L 892.569337 340.305761 
L 950.157216 348.06857 
" style="fill:none;stroke:#d9534f;stroke-linecap:square;"/>
   </g>
   <g id="line2d_103">
    <path clip-path="url(#pf1f679c63c)" d="M 86.339034 271.163516 
L 143.926913 341.496625 
L 201.514792 347.810378 
L 259.10267 350.019468 
L 316.690549 351.232795 
L 374.278428 351.839608 
L 431.866307 352.234589 
L 489.454186 352.685453 
L 547.042064 352.838566 
L 604.629943 323.092238 
L 662.217822 338.146725 
L 719.805701 305.961095 
L 777.39358 332.669358 
L 834.981458 309.184201 
L 892.569337 341.210061 
L 950.157216 334.781723 
" style="fill:none;stroke:#d9534f;stroke-linecap:square;"/>
   </g>
   <g id="line2d_104">
    <path clip-path="url(#pf1f679c63c)" d="M 86.339034 251.384655 
L 143.926913 338.047546 
L 201.514792 345.951103 
L 259.10267 348.565432 
L 316.690549 350.067928 
L 374.278428 351.025883 
L 431.866307 351.524682 
L 489.454186 352.093053 
L 547.042064 352.329536 
L 604.629943 316.996667 
L 662.217822 335.491325 
L 719.805701 306.469118 
L 777.39358 337.292524 
L 834.981458 327.863546 
L 892.569337 347.776323 
L 950.157216 343.487076 
" style="fill:none;stroke:#d9534f;stroke-linecap:square;"/>
   </g>
   <g id="line2d_105">
    <path clip-path="url(#pf1f679c63c)" d="M 86.339034 319.65597 
L 143.926913 345.013388 
L 201.514792 348.834157 
L 259.10267 350.366857 
L 316.690549 350.981221 
L 374.278428 351.611567 
L 431.866307 351.902876 
L 489.454186 352.155493 
L 547.042064 352.377501 
L 604.629943 311.440754 
L 662.217822 333.438187 
L 719.805701 302.596682 
L 777.39358 330.738766 
L 834.981458 301.746059 
L 892.569337 334.155147 
L 950.157216 319.351774 
" style="fill:none;stroke:#d9534f;stroke-linecap:square;"/>
   </g>
   <g id="line2d_106">
    <path clip-path="url(#pf1f679c63c)" d="M 86.339034 319.282072 
L 143.926913 345.559188 
L 201.514792 348.835633 
L 259.10267 350.144476 
L 316.690549 350.789985 
L 374.278428 351.269046 
L 431.866307 351.561566 
L 489.454186 351.931767 
L 547.042064 352.17789 
L 604.629943 299.378206 
L 662.217822 326.540289 
L 719.805701 293.93431 
L 777.39358 331.914309 
L 834.981458 308.623834 
L 892.569337 338.421707 
L 950.157216 336.002123 
" style="fill:none;stroke:#d9534f;stroke-linecap:square;"/>
   </g>
   <g id="line2d_107">
    <path clip-path="url(#pf1f679c63c)" d="M 86.339034 283.702347 
L 143.926913 342.746399 
L 201.514792 348.610099 
L 259.10267 350.590958 
L 316.690549 351.6622 
L 374.278428 352.241307 
L 431.866307 352.657225 
L 489.454186 352.877432 
L 547.042064 353.147441 
L 604.629943 328.98959 
L 662.217822 340.986426 
L 719.805701 310.718667 
L 777.39358 331.05817 
L 834.981458 297.573412 
L 892.569337 335.980752 
L 950.157216 322.823974 
" style="fill:none;stroke:#d9534f;stroke-linecap:square;"/>
   </g>
   <g id="line2d_108">
    <path clip-path="url(#pf1f679c63c)" d="M 86.339034 262.406213 
L 143.926913 339.228473 
L 201.514792 346.388046 
L 259.10267 349.174669 
L 316.690549 350.27566 
L 374.278428 351.287249 
L 431.866307 351.834791 
L 489.454186 352.236387 
L 547.042064 352.501577 
L 604.629943 321.43476 
L 662.217822 337.208714 
L 719.805701 301.772754 
L 777.39358 329.715116 
L 834.981458 314.709409 
L 892.569337 347.329856 
L 950.157216 348.862725 
" style="fill:none;stroke:#d9534f;stroke-linecap:square;"/>
   </g>
   <g id="line2d_109">
    <path clip-path="url(#pf1f679c63c)" d="M 86.339034 279.222817 
L 143.926913 336.531744 
L 201.514792 345.347988 
L 259.10267 348.046773 
L 316.690549 349.617483 
L 374.278428 350.586638 
L 431.866307 351.41009 
L 489.454186 351.720939 
L 547.042064 352.236627 
L 604.629943 318.57346 
L 662.217822 340.161262 
L 719.805701 318.334821 
L 777.39358 336.250467 
L 834.981458 311.935684 
L 892.569337 338.484795 
L 950.157216 327.90481 
" style="fill:none;stroke:#d9534f;stroke-linecap:square;"/>
   </g>
   <g id="line2d_110">
    <path clip-path="url(#pf1f679c63c)" d="M 86.339034 268.367668 
L 143.926913 334.255153 
L 201.514792 344.299284 
L 259.10267 347.67148 
L 316.690549 349.545737 
L 374.278428 350.534129 
L 431.866307 351.295765 
L 489.454186 351.624138 
L 547.042064 352.10666 
L 604.629943 315.506463 
L 662.217822 336.399099 
L 719.805701 308.514727 
L 777.39358 336.9434 
L 834.981458 319.845582 
L 892.569337 345.421874 
L 950.157216 344.03524 
" style="fill:none;stroke:#d9534f;stroke-linecap:square;"/>
   </g>
   <g id="line2d_111">
    <path clip-path="url(#pf1f679c63c)" d="M 86.339034 282.771076 
L 143.926913 341.852705 
L 201.514792 347.964438 
L 259.10267 349.945462 
L 316.690549 351.003336 
L 374.278428 351.787375 
L 431.866307 352.105086 
L 489.454186 352.457714 
L 547.042064 352.621292 
L 604.629943 319.731556 
L 662.217822 337.816912 
L 719.805701 305.314455 
L 777.39358 331.940476 
L 834.981458 309.409043 
L 892.569337 339.318778 
L 950.157216 330.326696 
" style="fill:none;stroke:#d9534f;stroke-linecap:square;"/>
   </g>
   <g id="line2d_112">
    <path clip-path="url(#pf1f679c63c)" d="M 86.339034 267.134444 
L 143.926913 340.82869 
L 201.514792 346.898208 
L 259.10267 349.005786 
L 316.690549 349.988089 
L 374.278428 350.7229 
L 431.866307 351.43373 
L 489.454186 351.731862 
L 547.042064 351.922727 
L 604.629943 305.92256 
L 662.217822 332.596314 
L 719.805701 303.591918 
L 777.39358 337.893345 
L 834.981458 328.281455 
L 892.569337 346.618574 
L 950.157216 341.795798 
" style="fill:none;stroke:#d9534f;stroke-linecap:square;"/>
   </g>
   <g id="line2d_113">
    <path clip-path="url(#pf1f679c63c)" d="M 86.339034 323.782188 
L 143.926913 346.626031 
L 201.514792 350.588332 
L 259.10267 351.893368 
L 316.690549 352.644415 
L 374.278428 353.05229 
L 431.866307 353.306691 
L 489.454186 353.525098 
L 547.042064 353.696962 
L 604.629943 338.038347 
L 662.217822 346.828596 
L 719.805701 329.381829 
L 777.39358 339.933937 
L 834.981458 305.058039 
L 892.569337 321.244215 
L 950.157216 236.766062 
" style="fill:none;stroke:#d9534f;stroke-linecap:square;"/>
   </g>
   <g id="line2d_114">
    <path clip-path="url(#pf1f679c63c)" d="M 86.339034 314.822966 
L 143.926913 346.393351 
L 201.514792 350.647866 
L 259.10267 352.063301 
L 316.690549 352.819199 
L 374.278428 353.212021 
L 431.866307 353.428139 
L 489.454186 353.650136 
L 547.042064 353.774385 
L 604.629943 338.41237 
L 662.217822 346.131703 
L 719.805701 327.49615 
L 777.39358 335.771136 
L 834.981458 272.031605 
L 892.569337 311.961073 
L 950.157216 293.750999 
" style="fill:none;stroke:#d9534f;stroke-linecap:square;"/>
   </g>
   <g id="line2d_115">
    <path clip-path="url(#pf1f679c63c)" d="M 86.339034 326.239169 
L 143.926913 346.234074 
L 201.514792 349.940929 
L 259.10267 351.253246 
L 316.690549 352.009411 
L 374.278428 352.534882 
L 431.866307 352.864499 
L 489.454186 353.051924 
L 547.042064 353.229844 
L 604.629943 329.228426 
L 662.217822 341.090715 
L 719.805701 310.461155 
L 777.39358 329.326108 
L 834.981458 290.40001 
L 892.569337 328.251232 
L 950.157216 290.250775 
" style="fill:none;stroke:#d9534f;stroke-linecap:square;"/>
   </g>
   <g id="line2d_116">
    <path clip-path="url(#pf1f679c63c)" d="M 86.339034 316.930154 
L 143.926913 345.284677 
L 201.514792 349.744601 
L 259.10267 351.318111 
L 316.690549 351.989598 
L 374.278428 352.679768 
L 431.866307 352.876974 
L 489.454186 353.090225 
L 547.042064 353.213391 
L 604.629943 324.45117 
L 662.217822 334.772308 
L 719.805701 286.943177 
L 777.39358 319.022759 
L 834.981458 285.250663 
L 892.569337 337.391126 
L 950.157216 341.407698 
" style="fill:none;stroke:#d9534f;stroke-linecap:square;"/>
   </g>
   <g id="line2d_117">
    <path clip-path="url(#pf1f679c63c)" d="M 86.339034 280.453715 
L 143.926913 334.062719 
L 201.514792 343.805059 
L 259.10267 346.701524 
L 316.690549 348.686064 
L 374.278428 349.651882 
L 431.866307 350.666342 
L 489.454186 351.111367 
L 547.042064 351.629311 
L 604.629943 309.805924 
L 662.217822 335.73247 
L 719.805701 309.008346 
L 777.39358 333.828037 
L 834.981458 318.567745 
L 892.569337 348.569403 
L 950.157216 344.086492 
" style="fill:none;stroke:#d9534f;stroke-linecap:square;"/>
   </g>
   <g id="line2d_118">
    <path clip-path="url(#pf1f679c63c)" d="M 86.339034 269.556556 
L 143.926913 332.670768 
L 201.514792 342.765509 
L 259.10267 346.223264 
L 316.690549 348.472013 
L 374.278428 349.689978 
L 431.866307 350.59211 
L 489.454186 351.135026 
L 547.042064 351.68897 
L 604.629943 307.570147 
L 662.217822 333.734895 
L 719.805701 302.233439 
L 777.39358 337.286732 
L 834.981458 329.928061 
L 892.569337 350.774409 
L 950.157216 352.044523 
" style="fill:none;stroke:#d9534f;stroke-linecap:square;"/>
   </g>
   <g id="line2d_119">
    <path clip-path="url(#pf1f679c63c)" d="M 86.339034 298.621162 
L 143.926913 341.521633 
L 201.514792 347.585408 
L 259.10267 349.880921 
L 316.690549 350.969264 
L 374.278428 351.684591 
L 431.866307 352.182987 
L 489.454186 352.33276 
L 547.042064 352.602174 
L 604.629943 317.09242 
L 662.217822 333.457248 
L 719.805701 293.60328 
L 777.39358 329.202809 
L 834.981458 304.300781 
L 892.569337 338.793668 
L 950.157216 342.535295 
" style="fill:none;stroke:#d9534f;stroke-linecap:square;"/>
   </g>
   <g id="line2d_120">
    <path clip-path="url(#pf1f679c63c)" d="M 86.339034 291.497667 
L 143.926913 341.366068 
L 201.514792 348.007464 
L 259.10267 350.109221 
L 316.690549 350.913389 
L 374.278428 351.673062 
L 431.866307 351.855781 
L 489.454186 352.195397 
L 547.042064 352.37966 
L 604.629943 305.541643 
L 662.217822 326.476595 
L 719.805701 281.866052 
L 777.39358 327.576689 
L 834.981458 320.394134 
L 892.569337 352.215329 
L 950.157216 352.298249 
" style="fill:none;stroke:#d9534f;stroke-linecap:square;"/>
   </g>
   <g id="line2d_121">
    <path clip-path="url(#pf1f679c63c)" d="M 86.339034 314.288552 
L 143.926913 346.959922 
L 201.514792 350.256877 
L 259.10267 351.466928 
L 316.690549 352.120405 
L 374.278428 352.497151 
L 431.866307 352.909406 
L 489.454186 353.093838 
L 547.042064 353.158238 
L 604.629943 325.429206 
L 662.217822 339.262667 
L 719.805701 306.880264 
L 777.39358 327.878318 
L 834.981458 289.779264 
L 892.569337 328.462425 
L 950.157216 311.922939 
" style="fill:none;stroke:#d9534f;stroke-linecap:square;"/>
   </g>
   <g id="line2d_122">
    <path clip-path="url(#pf1f679c63c)" d="M 86.339034 286.62644 
L 143.926913 346.010185 
L 201.514792 349.474789 
L 259.10267 350.810181 
L 316.690549 351.564275 
L 374.278428 352.057918 
L 431.866307 352.397701 
L 489.454186 352.68414 
L 547.042064 352.649237 
L 604.629943 315.03399 
L 662.217822 333.555109 
L 719.805701 294.558371 
L 777.39358 326.480182 
L 834.981458 303.396837 
L 892.569337 342.532583 
L 950.157216 346.534462 
" style="fill:none;stroke:#d9534f;stroke-linecap:square;"/>
   </g>
   <g id="line2d_123">
    <path clip-path="url(#pf1f679c63c)" d="M 86.339034 298.452786 
L 143.926913 341.656706 
L 201.514792 348.600701 
L 259.10267 350.732207 
L 316.690549 351.673353 
L 374.278428 352.169252 
L 431.866307 352.569842 
L 489.454186 352.796543 
L 547.042064 353.086855 
L 604.629943 325.230036 
L 662.217822 339.139553 
L 719.805701 307.160821 
L 777.39358 329.68008 
L 834.981458 300.996713 
L 892.569337 334.633086 
L 950.157216 317.787867 
" style="fill:none;stroke:#d9534f;stroke-linecap:square;"/>
   </g>
   <g id="line2d_124">
    <path clip-path="url(#pf1f679c63c)" d="M 86.339034 289.632115 
L 143.926913 341.1488 
L 201.514792 348.416318 
L 259.10267 350.470646 
L 316.690549 351.323534 
L 374.278428 351.928357 
L 431.866307 352.153604 
L 489.454186 352.302371 
L 547.042064 352.46672 
L 604.629943 312.829322 
L 662.217822 330.687852 
L 719.805701 287.044648 
L 777.39358 327.530274 
L 834.981458 311.508051 
L 892.569337 345.174756 
L 950.157216 351.749033 
" style="fill:none;stroke:#d9534f;stroke-linecap:square;"/>
   </g>
   <g id="line2d_125">
    <path clip-path="url(#pf1f679c63c)" d="M 43.148125 354.7359 
L 993.348125 354.7359 
" style="fill:none;stroke:#dedede;stroke-linecap:square;stroke-width:2;"/>
   </g>
   <g id="text_25">
    <!-- FastQC: Sequence Duplication Levels -->
    <g transform="translate(369.834375 19.3575)scale(0.16 -0.16)">
     <defs>
      <path d="M 628 4666 
L 3309 4666 
L 3309 4134 
L 1259 4134 
L 1259 2759 
L 3109 2759 
L 3109 2228 
L 1259 2228 
L 1259 0 
L 628 0 
L 628 4666 
z
" id="DejaVuSans-46" transform="scale(0.015625)"/>
      <path d="M 2834 3397 
L 2834 2853 
Q 2591 2978 2328 3040 
Q 2066 3103 1784 3103 
Q 1356 3103 1142 2972 
Q 928 2841 928 2578 
Q 928 2378 1081 2264 
Q 1234 2150 1697 2047 
L 1894 2003 
Q 2506 1872 2764 1633 
Q 3022 1394 3022 966 
Q 3022 478 2636 193 
Q 2250 -91 1575 -91 
Q 1294 -91 989 -36 
Q 684 19 347 128 
L 347 722 
Q 666 556 975 473 
Q 1284 391 1588 391 
Q 1994 391 2212 530 
Q 2431 669 2431 922 
Q 2431 1156 2273 1281 
Q 2116 1406 1581 1522 
L 1381 1569 
Q 847 1681 609 1914 
Q 372 2147 372 2553 
Q 372 3047 722 3315 
Q 1072 3584 1716 3584 
Q 2034 3584 2315 3537 
Q 2597 3491 2834 3397 
z
" id="DejaVuSans-73" transform="scale(0.015625)"/>
      <path d="M 2522 4238 
Q 1834 4238 1429 3725 
Q 1025 3213 1025 2328 
Q 1025 1447 1429 934 
Q 1834 422 2522 422 
Q 3209 422 3611 934 
Q 4013 1447 4013 2328 
Q 4013 3213 3611 3725 
Q 3209 4238 2522 4238 
z
M 3406 84 
L 4238 -825 
L 3475 -825 
L 2784 -78 
Q 2681 -84 2626 -87 
Q 2572 -91 2522 -91 
Q 1538 -91 948 567 
Q 359 1225 359 2328 
Q 359 3434 948 4092 
Q 1538 4750 2522 4750 
Q 3503 4750 4090 4092 
Q 4678 3434 4678 2328 
Q 4678 1516 4351 937 
Q 4025 359 3406 84 
z
" id="DejaVuSans-51" transform="scale(0.015625)"/>
      <path d="M 4122 4306 
L 4122 3641 
Q 3803 3938 3442 4084 
Q 3081 4231 2675 4231 
Q 1875 4231 1450 3742 
Q 1025 3253 1025 2328 
Q 1025 1406 1450 917 
Q 1875 428 2675 428 
Q 3081 428 3442 575 
Q 3803 722 4122 1019 
L 4122 359 
Q 3791 134 3420 21 
Q 3050 -91 2638 -91 
Q 1578 -91 968 557 
Q 359 1206 359 2328 
Q 359 3453 968 4101 
Q 1578 4750 2638 4750 
Q 3056 4750 3426 4639 
Q 3797 4528 4122 4306 
z
" id="DejaVuSans-43" transform="scale(0.015625)"/>
      <path d="M 750 794 
L 1409 794 
L 1409 0 
L 750 0 
L 750 794 
z
M 750 3309 
L 1409 3309 
L 1409 2516 
L 750 2516 
L 750 3309 
z
" id="DejaVuSans-3a" transform="scale(0.015625)"/>
     </defs>
     <use xlink:href="#DejaVuSans-46"/>
     <use x="48.394531" xlink:href="#DejaVuSans-61"/>
     <use x="109.673828" xlink:href="#DejaVuSans-73"/>
     <use x="161.773438" xlink:href="#DejaVuSans-74"/>
     <use x="200.982422" xlink:href="#DejaVuSans-51"/>
     <use x="279.693359" xlink:href="#DejaVuSans-43"/>
     <use x="349.517578" xlink:href="#DejaVuSans-3a"/>
     <use x="383.208984" xlink:href="#DejaVuSans-20"/>
     <use x="414.996094" xlink:href="#DejaVuSans-53"/>
     <use x="478.472656" xlink:href="#DejaVuSans-65"/>
     <use x="539.996094" xlink:href="#DejaVuSans-71"/>
     <use x="603.472656" xlink:href="#DejaVuSans-75"/>
     <use x="666.851562" xlink:href="#DejaVuSans-65"/>
     <use x="728.375" xlink:href="#DejaVuSans-6e"/>
     <use x="791.753906" xlink:href="#DejaVuSans-63"/>
     <use x="846.734375" xlink:href="#DejaVuSans-65"/>
     <use x="908.257812" xlink:href="#DejaVuSans-20"/>
     <use x="940.044922" xlink:href="#DejaVuSans-44"/>
     <use x="1017.046875" xlink:href="#DejaVuSans-75"/>
     <use x="1080.425781" xlink:href="#DejaVuSans-70"/>
     <use x="1143.902344" xlink:href="#DejaVuSans-6c"/>
     <use x="1171.685547" xlink:href="#DejaVuSans-69"/>
     <use x="1199.46875" xlink:href="#DejaVuSans-63"/>
     <use x="1254.449219" xlink:href="#DejaVuSans-61"/>
     <use x="1315.728516" xlink:href="#DejaVuSans-74"/>
     <use x="1354.9375" xlink:href="#DejaVuSans-69"/>
     <use x="1382.720703" xlink:href="#DejaVuSans-6f"/>
     <use x="1443.902344" xlink:href="#DejaVuSans-6e"/>
     <use x="1507.28125" xlink:href="#DejaVuSans-20"/>
     <use x="1539.068359" xlink:href="#DejaVuSans-4c"/>
     <use x="1593.03125" xlink:href="#DejaVuSans-65"/>
     <use x="1654.554688" xlink:href="#DejaVuSans-76"/>
     <use x="1713.734375" xlink:href="#DejaVuSans-65"/>
     <use x="1775.257812" xlink:href="#DejaVuSans-6c"/>
     <use x="1803.041016" xlink:href="#DejaVuSans-73"/>
    </g>
   </g>
  </g>
 </g>
 <defs>
  <clipPath id="pf1f679c63c">
   <rect height="319.408" width="950.2" x="43.148125" y="35.3279"/>
  </clipPath>
 </defs>
</svg>
